<svg width="292" height="789" viewBox="0 0 292 789" fill="none" xmlns="http://www.w3.org/2000/svg">
<g clip-path="url(#clip0_59_1495)">
<path d="M28.6231 146.282C29.2367 146.015 29.7911 145.629 30.254 145.145C30.717 144.662 31.0793 144.091 31.3199 143.467C31.5605 142.842 31.6745 142.176 31.6554 141.506C31.6363 140.837 31.4845 140.179 31.2087 139.569L14.5271 101.381C9.97202 91.9576 0.985095 96.885 5.04774 105.569L21.729 143.695C22.0081 144.321 22.409 144.885 22.9079 145.355C23.4068 145.825 23.994 146.191 24.6354 146.431C25.2768 146.672 25.9597 146.783 26.6443 146.757C27.3289 146.732 28.0014 146.57 28.6231 146.282Z" fill="#FFC990"/>
<path d="M37.4871 146.036C38.7002 145.601 39.7074 144.728 40.3109 143.588C40.9144 142.449 41.0708 141.125 40.7497 139.877L27.9462 100.273C24.93 90.5409 14.5273 91.2801 18.0975 103.475L30.9011 143.079C31.1332 143.711 31.489 144.29 31.9478 144.782C32.4065 145.274 32.9587 145.669 33.5723 145.944C34.1859 146.22 34.8484 146.37 35.5207 146.386C36.193 146.401 36.8614 146.282 37.4871 146.036Z" fill="#FFC990"/>
<path d="M37.3025 186.379L58.7236 190.013L48.3207 165.992C52.2603 162.235 54.8459 159.155 53.9841 154.104C53.7988 152.938 53.4677 151.8 52.999 150.717L48.6284 140.8L43.8273 141.416L36.8099 127.065C24.1727 131.661 12.6392 138.858 2.95459 148.191C5.91779 154.968 9.41711 161.497 13.419 167.716C15.8578 171.338 19.4996 173.978 23.6987 175.169L34.4708 203.194L37.3025 186.379Z" fill="#E6B582"/>
<path d="M54.5995 141.047C53.1489 135.119 53.1489 128.928 54.5995 123C56.0153 117.519 46.1048 113.638 44.1351 127.743C43.2747 131.802 42.719 135.919 42.473 140.061C38.7417 141.109 35.462 143.362 33.1458 146.471C30.8295 149.58 29.6074 153.369 29.6698 157.246L53.43 161.927C56.1343 155.292 56.5459 147.943 54.5995 141.047Z" fill="#FFC990"/>
<path d="M61.309 188.165L48.5058 167.039C50.6071 165.747 52.3399 163.934 53.5368 161.776C54.7337 159.618 55.3541 157.188 55.3383 154.72L49.6137 145.666L40.9958 144.188C33.3014 148.376 26.4691 155.644 30.9011 164.452L40.873 187.18L61.309 188.165Z" fill="#FFC990"/>
<path d="M19.5747 150.286C20.8057 149.688 21.7494 148.626 22.1994 147.333C22.6494 146.04 22.569 144.621 21.9755 143.387L16.5586 132.116C15.9622 130.899 14.9074 129.97 13.6262 129.531C12.3451 129.092 10.9424 129.18 9.72607 129.775C9.11873 130.065 8.57445 130.473 8.12482 130.974C7.67519 131.475 7.32898 132.059 7.10592 132.695C6.88285 133.33 6.78724 134.003 6.82489 134.675C6.86254 135.348 7.03272 136.006 7.32533 136.612L12.7422 147.884C13.0255 148.497 13.4287 149.047 13.9283 149.502C14.4279 149.956 15.0138 150.306 15.6509 150.53C16.288 150.754 16.9636 150.848 17.6376 150.806C18.3116 150.764 18.9703 150.587 19.5747 150.286Z" fill="#FFC990"/>
<path d="M11.2032 153.92C12.2201 153.305 12.9566 152.316 13.2556 151.166C13.5546 150.015 13.3924 148.793 12.8037 147.76L8.49471 138.953C8.19598 138.443 7.7997 137.997 7.32853 137.64C6.85736 137.284 6.32043 137.024 5.7487 136.875C5.17697 136.726 4.58148 136.692 3.99642 136.773C3.41136 136.855 2.84832 137.051 2.33919 137.351C1.33419 137.977 0.607485 138.965 0.309643 140.111C0.0118019 141.257 0.165521 142.474 0.738696 143.511L5.10925 152.318C5.7334 153.308 6.70947 154.024 7.84061 154.321C8.97175 154.618 10.1736 154.475 11.2032 153.92Z" fill="#FFC990"/>
<path d="M131.728 205.473C131.728 205.473 123.972 227.892 116.032 248.218C109.876 263.924 103.721 278.398 100.766 280.369C94.6925 283.527 87.7658 284.65 81.0066 283.572C78.5434 283.227 76.1781 282.376 74.0595 281.072C71.9408 279.768 70.1146 278.04 68.6955 275.996C66.598 272.959 65.1913 269.5 64.5745 265.86C63.9576 262.221 64.1459 258.49 65.1256 254.931L65.9871 251.913L78.2981 208.429L93.3792 155.336C95.0827 149.41 99.0661 144.402 104.455 141.412C109.845 138.421 116.199 137.692 122.125 139.384C144.408 150.532 144.47 174.307 131.728 205.473Z" fill="#094D61"/>
<path d="M94.5486 279.076H94.1177L92.5788 279.753C88.6085 281.37 84.2676 281.852 80.0397 281.145C75.8118 280.438 71.863 278.57 68.6338 275.75L67.8339 275.011C65.9335 273.124 64.3533 270.939 63.1556 268.543L28.2536 194.632L23.8218 185.209L50.106 168.394L78.4828 208.552L99.2269 237.932L102.12 242.059L105.259 248.218C107.895 253.736 108.249 260.072 106.244 265.85C104.238 271.628 100.036 276.38 94.5486 279.076Z" fill="#094D61"/>
<path opacity="0.2" d="M116.031 248.218C109.876 263.924 103.72 278.398 100.766 280.369C94.6923 283.527 87.7656 284.65 81.0064 283.572C78.5432 283.227 76.1779 282.376 74.0593 281.072C71.9406 279.768 70.1145 278.04 68.6954 275.996L67.8951 275.257C65.9947 273.37 64.4149 271.186 63.2172 268.79L28.3152 194.879C39.6079 214.829 52.2135 234.006 66.0485 252.283C74.7894 262.261 80.9451 264.109 89.7475 262.261C94.795 261.214 97.4418 251.359 99.2269 238.178C102.243 215.204 102.489 182.129 107.66 168.579C107.537 194.879 113.2 221.548 116.031 248.218Z" fill="#1D1D1B"/>
<path d="M203.563 351.755C202.209 361.055 196.73 383.229 189.344 409.775C188.174 414.148 186.943 418.706 185.589 423.325C170.446 476.48 149.579 540.351 137.576 553.901C136.246 556.408 134.274 558.516 131.862 560.01C129.45 561.503 126.685 562.329 123.849 562.401H122.618C101.997 564.619 68.6341 551.438 69.6805 532.282C69.6509 531.996 69.6509 531.707 69.6805 531.42C73.1276 485.719 88.1469 428.499 107.167 369.74L110.122 352.556C110.738 349.106 126.188 354.157 136.529 347.135C162.998 329.335 203.809 350.769 203.563 351.755Z" fill="#403D3E"/>
<path d="M136.899 779.823V787.768H24.3147C24.3147 787.768 19.0207 770.83 28.6848 764.856C40.4419 757.711 55.646 759.99 68.6341 753.954C71.4159 752.704 74.0065 751.066 76.3285 749.088C78.1967 747.387 80.2635 745.919 82.484 744.715C88.4139 741.356 95.1217 739.614 101.936 739.664C109.62 739.738 117.244 741.026 124.526 743.483L129.143 744.9C131.174 745.577 135.668 751.552 136.53 771.138C136.899 773.786 136.899 776.681 136.899 779.823Z" fill="#131313"/>
<path d="M130.436 757.095L112.646 756.479L83.2843 755.555L82.4225 744.653L81.4992 731.904L79.7756 709.053L123.11 703.017L124.649 702.832L127.666 731.534L129.143 744.9L130.436 757.095Z" fill="#3C3C3B"/>
<path d="M138.007 770.707C138.007 770.707 137.391 771.077 136.529 771.138C131.01 771.006 125.513 770.409 120.094 769.352C99.5348 765.903 68.6338 758.45 68.6338 753.954V539.797C68.8966 537.034 69.3702 534.296 70.0498 531.605C75.282 509.001 93.687 479.99 113.138 481.838H114C125.634 482.947 132.467 496.867 135.606 513.066C135.606 514.421 136.16 515.776 136.344 517.192C138.346 529.279 138.883 541.563 137.945 553.778C147.055 588.886 145.639 705.542 138.007 770.707Z" fill="#403D3E"/>
<path d="M276.691 161.064L273.305 179.542L248.683 313.875C246.601 324.038 242.791 333.767 237.419 342.639C236.568 344.223 235.368 345.592 233.91 346.643C227.595 346.696 221.283 346.346 215.012 345.596H213.289L127.111 344.425H116.955H112.954C112.053 344.332 111.188 344.027 110.428 343.535C109.668 343.042 109.036 342.376 108.584 341.592C103.905 334.509 105.136 316.154 105.444 308.27V296.568V268.605L106.244 179.542V169.687L104.706 141.355L151.733 122.877L211.38 124.109L276.691 161.064Z" fill="#094D61"/>
<path d="M159.428 181.328C159.428 182.031 159.707 182.704 160.203 183.201C160.7 183.698 161.373 183.977 162.075 183.977C162.777 183.977 163.45 183.698 163.946 183.201C164.443 182.704 164.722 182.031 164.722 181.328C164.722 180.626 164.443 179.952 163.946 179.456C163.45 178.959 162.777 178.68 162.075 178.68C161.373 178.68 160.7 178.959 160.203 179.456C159.707 179.952 159.428 180.626 159.428 181.328Z" fill="#16191E"/>
<path d="M158.689 236.7C158.702 237.238 158.875 237.761 159.186 238.2C159.496 238.64 159.931 238.977 160.434 239.169C160.937 239.36 161.485 239.397 162.01 239.276C162.534 239.154 163.01 238.878 163.377 238.485C163.744 238.091 163.986 237.597 164.071 237.065C164.157 236.534 164.081 235.989 163.856 235.5C163.63 235.011 163.264 234.6 162.805 234.32C162.345 234.041 161.812 233.904 161.275 233.928C160.567 233.96 159.9 234.268 159.417 234.787C158.934 235.305 158.672 235.992 158.689 236.7Z" fill="#16191E"/>
<path d="M159.182 287.822C159.189 288.167 159.266 288.507 159.407 288.822C159.549 289.137 159.751 289.42 160.004 289.656C160.256 289.891 160.553 290.073 160.877 290.192C161.201 290.311 161.545 290.364 161.89 290.347C162.592 290.347 163.265 290.068 163.762 289.571C164.258 289.075 164.537 288.401 164.537 287.699C164.537 286.996 164.258 286.323 163.762 285.826C163.265 285.329 162.592 285.05 161.89 285.05C161.527 285.041 161.165 285.107 160.829 285.244C160.492 285.381 160.187 285.586 159.933 285.846C159.679 286.106 159.481 286.416 159.352 286.756C159.223 287.096 159.165 287.459 159.182 287.822Z" fill="#16191E"/>
<path d="M159.551 334.632C159.551 334.983 159.621 335.329 159.759 335.652C159.896 335.974 160.098 336.264 160.351 336.506C160.605 336.748 160.904 336.936 161.232 337.059C161.56 337.181 161.91 337.236 162.26 337.219C162.962 337.219 163.635 336.94 164.131 336.443C164.628 335.947 164.906 335.273 164.906 334.571C164.906 333.868 164.628 333.195 164.131 332.698C163.635 332.201 162.962 331.922 162.26 331.922C161.899 331.904 161.539 331.963 161.203 332.093C160.866 332.223 160.56 332.422 160.305 332.677C160.05 332.932 159.851 333.238 159.721 333.575C159.591 333.911 159.534 334.272 159.551 334.632Z" fill="#16191E"/>
<path d="M151.118 137.167C171.246 149.485 205.04 134.087 209.965 117.149L199.193 78.9616L154.257 85.1209L151.118 137.167Z" fill="#FFC990"/>
<path d="M127.173 110.682C128.14 112.664 129.622 114.349 131.462 115.563C133.303 116.776 135.436 117.473 137.637 117.58L148.348 117.95C152.373 117.625 156.3 116.538 159.92 114.747C166.33 111.745 171.815 107.074 175.8 101.222C179.786 95.3705 182.125 88.5539 182.573 81.4869H183.311C191.19 81.4869 203.071 90.1715 204.363 82.5956C205.656 75.0197 210.519 59.4368 212.55 48.3502C215.258 -0.923844 182.511 4.9274 170.2 1.04707C162.552 0.640261 154.937 2.32255 148.171 5.91377C141.405 9.505 135.742 14.8699 131.79 21.4342C127.442 29.1252 124.288 37.4323 122.433 46.0712C122.485 47.3391 122.822 48.5792 123.419 49.6989C124.015 50.8186 124.857 51.7892 125.881 52.5384L117.878 69.9075C117.554 70.6049 117.385 71.3637 117.38 72.1326C117.376 72.9014 117.536 73.6622 117.852 74.3633C118.167 75.0645 118.63 75.6894 119.208 76.1959C119.786 76.7024 120.466 77.0785 121.202 77.2986L125.819 78.9C125.091 82.971 124.639 87.0865 124.464 91.2185C123.858 97.8283 124.785 104.489 127.173 110.682Z" fill="#FFC990"/>
<path d="M201.84 87.5845C177.895 87.5845 190.021 61.962 190.021 61.962C184.179 62.3216 178.32 62.3216 172.478 61.962C180.542 20.8798 157.581 20.1408 131.728 21.619C124.034 -1.84777 160.044 -0.923961 174.817 1.23178C204.794 5.48166 221.722 16.1988 217.044 44.3465C214.966 57.3691 212.067 70.2472 208.364 82.9035C207.878 84.2531 206.995 85.4232 205.83 86.2591C204.664 87.0949 203.273 87.5571 201.84 87.5845Z" fill="#131313"/>
<path d="M195.438 65.5961C194.884 73.4183 187.682 81.8564 182.573 81.4868C177.464 81.1173 178.51 74.8965 179.003 67.0742C179.372 61.962 178.572 54.7557 184.296 53.3391C190.021 51.9225 196.3 54.263 195.438 65.5961Z" fill="#FFC990"/>
<path opacity="0.1" d="M127.173 110.682C128.14 112.664 129.622 114.349 131.462 115.563C133.303 116.776 135.436 117.473 137.637 117.58L148.348 117.95C152.373 117.625 156.3 116.538 159.92 114.747C163.068 110.489 165.176 105.553 166.076 100.334C167.102 94.9702 167.699 89.5328 167.861 84.0738C166.948 88.8728 164.659 93.3024 161.275 96.8234C157.954 100.38 154.064 103.357 149.764 105.631C145.593 108.088 141.034 109.817 136.283 110.743C133.268 111.277 130.181 111.256 127.173 110.682Z" fill="#050504"/>
<path d="M176.725 166.177C196.546 156.938 218.029 145.851 226.339 132.485L209.965 117.149C206.887 126.881 187.066 139.692 164.906 141.232L176.725 166.177Z" fill="#0B5B73"/>
<path d="M153.395 162.112C148.225 155.952 141.823 135.011 138.93 128.174L152.164 120.352C151.897 124.719 152.976 129.062 155.254 132.796C157.533 136.53 160.902 139.475 164.906 141.232L153.395 162.112Z" fill="#0B5B73"/>
<path opacity="0.2" d="M185.589 423.325C170.446 476.48 149.579 540.351 137.576 553.901C147.055 588.886 145.64 705.419 138.007 770.707C138.007 770.707 137.391 771.076 136.53 771.138C136.53 773.787 136.53 776.681 136.53 779.823V787.768H114.924C116.955 781.71 118.641 775.541 119.971 769.29C120.833 765.348 121.633 761.16 122.372 756.972C123.111 752.784 123.787 748.226 124.403 743.606C125.265 737.139 126.065 730.364 126.681 723.404C132.221 664.029 130.435 590.241 123.726 562.524C122.125 555.749 120.156 551.746 118.001 551.314C124.677 540.42 130.64 529.105 135.853 517.439C154.319 475.617 156.473 436.444 126.989 402.753C136.241 408.401 146.612 411.966 157.38 413.2C168.148 414.434 179.055 413.307 189.344 409.898C188.174 414.148 186.943 418.706 185.589 423.325Z" fill="#1D1D1B"/>
<path d="M240.558 548.235C239.871 551.012 238.965 553.731 237.85 556.365C237.531 558.755 236.557 561.01 235.036 562.88C233.514 564.749 231.506 566.161 229.232 566.959C216.012 571.78 201.517 571.78 188.297 566.959C183.969 565.879 179.972 563.754 176.656 560.768C173.34 557.783 170.806 554.029 169.277 549.836L168.661 534.561L155.92 412.362L150.872 364.751C150.072 357.052 188.79 353.849 213.228 352.432C224.307 351.816 232.433 351.632 232.433 351.632C233.382 352.474 234.229 353.425 234.956 354.465C244.313 366.783 249.237 397.58 239.758 426.59C248.622 475.864 246.221 525.507 240.558 548.235Z" fill="#403D3E"/>
<path d="M291.587 776.497L262.594 781.609L220.429 789L180.972 788.384C180.972 788.384 177.217 772.924 185.712 765.472C194.207 758.019 202.763 763.439 213.535 758.081C218.121 755.877 222.191 752.728 225.477 748.842C227.035 746.863 228.811 745.065 230.771 743.483C238.26 737.554 247.505 734.283 257.055 734.183C263.67 733.983 270.288 734.437 276.814 735.538C279.153 735.907 285.924 742.436 290.233 768.674L291.587 776.497Z" fill="#131313"/>
<path d="M280.261 747.302L258.901 750.32L233.479 753.954L230.77 743.421L225.969 724.636L221.906 708.807L254.592 698.274L265.057 694.887L270.412 713.426L276.814 735.538L280.261 747.302Z" fill="#3C3C3B"/>
<path d="M286.416 751.736C286.416 755.001 223.507 757.896 221.906 751.121L218.521 738.248L169.277 549.836V548.604C168.733 543.943 168.63 539.242 168.969 534.561C169.597 525.003 171.673 515.595 175.125 506.66C180.234 493.725 188.359 483.439 198.885 482.023H199.685C208.303 480.791 215.751 487.012 221.906 496.374C224.228 499.87 226.286 503.535 228.062 507.337C233.74 519.779 237.695 532.937 239.819 546.449C240.188 547.065 240.435 547.681 240.804 548.358C256.562 578.662 276.506 674.746 285.124 739.295C285.431 743.606 285.985 747.733 286.416 751.736Z" fill="#403D3E"/>
<path d="M235.633 345.041L110.984 343.501L109.938 356.313L237.295 357.052L235.633 345.041Z" fill="#16191E"/>
<path opacity="0.2" d="M221.906 747.24L218.583 738.248L169.338 549.836V548.604C168.838 543.937 168.838 539.229 169.338 534.561L156.535 412.362C171.574 410.331 186.01 405.125 198.885 397.087C166.753 417.72 164.599 463.853 175.678 506.66C179.192 520.287 183.995 533.548 190.021 546.264C189.153 553.127 188.783 560.043 188.913 566.959C188.79 611.306 204.609 678.38 221.906 747.24Z" fill="#1D1D1B"/>
<path opacity="0.2" d="M284.631 739.233V747.179C270.35 674.253 254.715 605.516 229.232 566.959C227.024 563.58 224.598 560.35 221.968 557.289C224.738 540.105 226.831 523.29 228.124 507.214C230.155 475.617 228.123 446.73 218.274 422.894C225.846 397.518 225.477 373.62 213.473 352.555C224.553 351.94 232.679 351.755 232.679 351.755C233.628 352.597 234.475 353.548 235.202 354.588C244.559 366.906 249.483 397.703 240.004 426.713C248.929 475.987 246.529 525.261 240.866 548.235C256.316 578.538 276.26 674.746 284.631 739.233Z" fill="#1D1D1B"/>
<path opacity="0.2" d="M213.35 345.472C214.212 309.687 164.722 283.018 105.69 268.235L106.798 227.153L197.9 233.928C211.073 224.813 227.016 200.176 237.295 175.6L273.305 179.481L248.683 313.814C246.601 323.976 242.791 333.706 237.418 342.578C236.568 344.162 235.368 345.531 233.91 346.581C227.595 346.634 221.283 346.284 215.012 345.534L213.35 345.472Z" fill="#1D1D1B"/>
<path d="M217.782 292.872H217.351C213.649 291.283 210.384 288.825 207.834 285.704C205.284 282.584 203.523 278.895 202.701 274.949C201.83 270.843 202.129 266.575 203.563 262.63C203.537 262.447 203.537 262.26 203.563 262.076L217.29 226.784L221.66 215.389L240.127 168.456C241.283 165.685 242.992 163.18 245.149 161.094C247.307 159.008 249.867 157.384 252.674 156.323C255.481 155.262 258.474 154.786 261.471 154.923C264.469 155.061 267.406 155.809 270.104 157.123H270.535C275.017 159.14 278.837 162.386 281.553 166.485C283.652 169.561 284.982 173.097 285.431 176.794C285.881 180.492 285.438 184.243 284.139 187.734L247.698 281.355C247.404 282.188 247.033 282.992 246.59 283.757C246.278 284.353 245.928 284.929 245.544 285.481C242.531 289.792 238.092 292.898 233.012 294.251C227.932 295.603 222.538 295.115 217.782 292.872Z" fill="#094D61"/>
<path d="M91.04 270.206C91.5183 269.736 91.8983 269.175 92.1577 268.557C92.417 267.938 92.5507 267.274 92.5507 266.603C92.5507 265.932 92.417 265.268 92.1577 264.649C91.8983 264.031 91.5183 263.47 91.04 263L81.8067 251.729C80.9224 250.692 79.669 250.041 78.3126 249.914C76.9563 249.788 75.6038 250.196 74.5432 251.051C73.5019 251.916 72.8411 253.156 72.703 254.503C72.5649 255.851 72.9605 257.199 73.8046 258.257L83.8997 268.605C84.6446 269.753 85.8089 270.563 87.1435 270.862C88.4782 271.162 89.8767 270.926 91.04 270.206Z" fill="#E6B582"/>
<path d="M97.9958 264.232C98.4741 263.762 98.8541 263.201 99.1135 262.582C99.3728 261.964 99.5065 261.299 99.5065 260.629C99.5065 259.958 99.3728 259.294 99.1135 258.675C98.8541 258.056 98.4741 257.496 97.9958 257.025L88.7625 245.816C88.3389 245.293 87.8164 244.859 87.2247 244.539C86.6331 244.218 85.9842 244.018 85.315 243.949C84.6459 243.881 83.9696 243.945 83.3253 244.138C82.681 244.332 82.0815 244.651 81.5606 245.077C81.0381 245.5 80.6044 246.023 80.2844 246.615C79.9643 247.207 79.7643 247.857 79.6956 248.526C79.627 249.196 79.6909 249.872 79.8843 250.517C80.0776 251.162 80.3963 251.762 80.822 252.283L90.9172 262.692C91.6603 263.825 92.818 264.622 94.1418 264.91C95.4656 265.198 96.8495 264.954 97.9958 264.232Z" fill="#E6B582"/>
<path d="M70.5421 248.341C69.5711 249.957 68.8843 251.728 68.5111 253.576C68.3283 254.499 68.3729 255.452 68.6411 256.354C68.9092 257.255 69.3927 258.078 70.0499 258.75C70.8247 259.374 71.7389 259.801 72.7144 259.994C73.69 260.187 74.6976 260.14 75.6513 259.859C77.5595 259.489 79.3448 258.689 81.253 258.319C89.1321 256.841 96.8265 262.815 104.767 261.768C106.491 261.424 108.196 260.992 109.876 260.475C115.93 258.894 122.288 258.894 128.343 260.475C128.958 252.714 129.758 244.953 130.805 237.254C118.27 232.718 105.292 229.518 92.0864 227.707C90.2552 227.369 88.3779 227.369 86.5467 227.707C83.2424 228.671 80.44 230.879 78.7291 233.867C77.0055 236.454 75.5897 239.225 74.1124 241.935L70.5421 248.341Z" fill="#FFC990"/>
<path d="M98.1808 248.895C97.8133 247.802 97.0395 246.891 96.0197 246.352C95 245.813 93.8122 245.687 92.7023 246L58.6008 256.656C50.1062 259.612 53.4917 267.743 61.2476 265.094L95.2875 254.5C95.852 254.333 96.3768 254.053 96.8305 253.677C97.2841 253.301 97.6573 252.838 97.9275 252.314C98.1977 251.791 98.3593 251.218 98.4028 250.631C98.4463 250.043 98.3709 249.453 98.1808 248.895Z" fill="#FFC990"/>
<path d="M116.278 241.874C118.309 239.718 116.955 235.715 118.863 233.497C99.2886 227.338 105.383 215.635 101.628 210.277C100.643 208.86 98.1807 209.538 96.9496 210.708C90.794 216.251 96.9494 244.276 108.706 244.337C110.154 244.28 111.585 244.011 112.954 243.537C114.19 243.289 115.338 242.714 116.278 241.874Z" fill="#FFC990"/>
<path d="M117.386 262.569L121.079 240.026L121.571 237.07L122.556 230.91L227.877 246.308C243.266 250.127 250.714 259.304 246.898 276.119C246.002 281.355 243.262 286.096 239.174 289.485C235.087 292.875 229.922 294.688 224.615 294.597C221.898 294.167 219.206 293.591 216.551 292.872L117.386 262.569Z" fill="#094D61"/>
</g>
<defs>
<clipPath id="clip0_59_1495">
<rect width="291.587" height="789" fill="white"/>
</clipPath>
</defs>
</svg>
