<svg width="323" height="789" viewBox="0 0 323 789" fill="none" xmlns="http://www.w3.org/2000/svg">
<g clip-path="url(#clip0_59_1636)">
<path d="M90.1198 382.007C91.4618 381.111 92.4063 379.732 92.7563 378.157C93.1063 376.582 92.8348 374.932 91.9985 373.552C91.2261 372.387 90.0396 371.559 88.6793 371.235C88.0047 371.093 87.3084 371.086 86.6311 371.215C85.9537 371.344 85.3087 371.606 84.7338 371.987L67.0105 388.018C65.7093 388.843 64.7876 390.149 64.4472 391.652C64.1068 393.154 64.3754 394.73 65.1943 396.034C65.9687 397.27 67.2009 398.147 68.6211 398.476C70.0414 398.804 71.5341 398.557 72.7723 397.788L90.1198 382.007Z" fill="#F7AB69"/>
<path d="M58.1802 397.036L61.562 382.069L132.393 399.04L129.011 414.007L58.1802 397.036Z" fill="#1C1C1C"/>
<path d="M61.3741 548.461H60.7478C32.9416 537.878 33.3173 500.992 37.388 482.957C41.4588 455.527 99.5764 195.45 101.33 187.559L112.415 190.189C111.976 192.13 52.6063 457.719 48.5356 485.148C48.5356 486.025 39.5174 526.793 64.067 536.938C90.4329 539.005 100.077 498.424 100.265 497.548C108.407 471.058 168.466 205.657 169.155 203.716L180.177 206.409C178.361 214.299 119.554 474.189 111.288 500.742C107.154 518.777 91.6228 552.031 62.1256 548.837L61.3741 548.461Z" fill="#949494"/>
<path d="M61.8752 546.457L54.2974 544.641L6.01221 760.819L13.59 762.635L21.1052 764.451L69.453 548.273L61.8752 546.457Z" fill="#949494"/>
<path d="M21.6688 777.728L22.4203 758.627L7.32732 755.058L0 772.718L21.6688 777.728Z" fill="#1C1C1C"/>
<path d="M98.3238 190.252C95.4012 189.802 92.7592 188.257 90.9333 185.932C89.1075 183.606 88.2344 180.673 88.4914 177.727C88.9703 176.331 89.72 175.044 90.6975 173.939C91.675 172.834 92.861 171.933 94.1875 171.287C95.5141 170.641 96.9551 170.264 98.428 170.176C99.9008 170.088 101.376 170.292 102.77 170.776L186.001 190.314C188.93 190.75 191.582 192.291 193.41 194.62C195.239 196.949 196.106 199.89 195.834 202.839C194.852 205.647 192.801 207.954 190.126 209.256C187.451 210.558 184.37 210.75 181.555 209.79L98.3238 190.252Z" fill="#1C1C1C"/>
<path d="M192.264 178.228L162.453 285.064L108.094 281.056L135.086 166.956C137.841 152.239 151.556 128.317 170.532 132.575C170.783 132.512 201.846 139.777 192.264 178.228Z" fill="#C9C9C9"/>
<path d="M81.6652 406.054C82.1194 404.493 81.9486 402.816 81.1889 401.379C80.4292 399.941 79.1402 398.856 77.5945 398.351C76.3108 397.822 74.87 397.822 73.5863 398.351C72.3722 399.012 71.4545 400.108 71.0188 401.42L68.0753 410.688C67.6222 412.166 67.7689 413.764 68.4837 415.135C69.1986 416.506 70.424 417.54 71.8955 418.015C73.2907 418.446 74.7997 418.305 76.0913 417.624C77.383 416.943 78.3516 415.778 78.7844 414.383L81.6652 406.054Z" fill="#F7AB69"/>
<path d="M93.2511 407.307C93.48 406.643 93.5702 405.939 93.5164 405.239C93.4625 404.539 93.2658 403.857 92.938 403.236C92.3007 401.99 91.1981 401.045 89.8692 400.606C88.3322 400.143 86.676 400.287 85.2425 401.01C83.809 401.732 82.7079 402.978 82.1662 404.489L78.2207 416.387C77.9727 416.983 77.845 417.621 77.845 418.266C77.845 418.911 77.9727 419.549 78.2207 420.145C78.8485 421.323 79.9007 422.219 81.1642 422.65H82.1662C83.5451 423.069 85.0329 422.938 86.3174 422.284C87.6019 421.63 88.583 420.505 89.055 419.143L93.2511 407.307Z" fill="#F7AB69"/>
<path d="M103.271 412.442C103.729 410.889 103.566 409.219 102.819 407.783C102.072 406.347 100.797 405.256 99.2633 404.739C97.9796 404.21 96.539 404.21 95.2553 404.739C94.0371 405.424 93.1206 406.541 92.6876 407.87L89.7441 417.139C89.293 418.608 89.4415 420.197 90.1571 421.558C90.8728 422.919 92.0975 423.941 93.5642 424.403L94.5663 424.716C95.1426 424.898 95.7492 424.965 96.3512 424.911C96.9532 424.857 97.5385 424.684 98.0734 424.403C98.6081 424.125 99.0828 423.744 99.4697 423.282C99.8566 422.82 100.148 422.285 100.328 421.71L103.271 412.442Z" fill="#F7AB69"/>
<path d="M112.227 414.759C112.378 414.229 112.422 413.673 112.355 413.126C112.288 412.578 112.112 412.049 111.838 411.571C111.563 411.092 111.196 410.673 110.758 410.339C110.319 410.005 109.818 409.761 109.283 409.624H108.532C107.485 409.263 106.339 409.331 105.342 409.811C104.344 410.292 103.578 411.148 103.209 412.191L100.766 419.957C100.623 420.45 100.58 420.967 100.638 421.477C100.696 421.988 100.855 422.482 101.106 422.93C101.356 423.379 101.693 423.773 102.097 424.09C102.501 424.408 102.964 424.642 103.459 424.779L105.025 425.28C105.947 425.601 106.958 425.544 107.838 425.121C108.718 424.699 109.396 423.945 109.722 423.025L112.227 414.759Z" fill="#F7AB69"/>
<path d="M74.8388 387.142L74.463 388.144L73.7115 390.273V390.774C73.6809 390.939 73.6809 391.109 73.7115 391.275C73.6576 391.459 73.6576 391.654 73.7115 391.838C73.676 392.003 73.676 392.174 73.7115 392.339C73.6834 392.568 73.6834 392.799 73.7115 393.028C73.529 393.667 73.3826 394.315 73.2731 394.97C73.3015 395.282 73.3015 395.597 73.2731 395.909C73.2731 396.786 72.96 397.6 72.7722 398.414C72.5172 399.536 72.2035 400.644 71.8326 401.733V402.171L71.3317 403.8V404.301C71.3009 404.55 71.3009 404.803 71.3317 405.052C71.293 406.227 71.6306 407.382 72.2953 408.351C72.96 409.32 73.917 410.051 75.0266 410.438C76.3254 410.881 77.7433 410.817 78.9972 410.26C80.2511 409.702 81.2485 408.693 81.7902 407.432V407.056C81.7902 407.056 81.7902 407.056 81.7902 407.494C81.6352 408.047 81.6352 408.632 81.7902 409.185C81.9679 410.168 82.4037 411.087 83.053 411.846C83.7022 412.605 84.5418 413.178 85.4854 413.506C86.7841 413.949 88.202 413.886 89.4559 413.328C90.7098 412.771 91.7072 411.761 92.249 410.501V410.125V409.373V408.559C92.1981 408.828 92.1981 409.104 92.249 409.373C92.155 409.786 92.155 410.213 92.249 410.626C92.249 410.626 92.249 411.001 92.249 411.127C92.4626 412.032 92.902 412.869 93.5262 413.559C94.1504 414.249 94.9391 414.769 95.8187 415.072C96.6756 415.369 97.5927 415.451 98.4885 415.309C99.3843 415.167 100.231 414.806 100.954 414.258C101.781 413.609 102.41 412.741 102.77 411.753V411.44L103.209 410.062C103.124 410.517 103.124 410.984 103.209 411.44C103.178 411.794 103.178 412.15 103.209 412.505C103.209 412.505 103.209 412.505 103.209 412.943C103.543 413.898 104.153 414.733 104.961 415.343C105.769 415.953 106.739 416.31 107.749 416.37C108.76 416.431 109.766 416.191 110.64 415.681C111.515 415.172 112.219 414.415 112.665 413.506V412.505V411.753L113.166 410.062C113.531 409.04 113.825 407.994 114.043 406.931C114.043 406.931 114.481 405.24 114.669 404.238C114.705 404.01 114.705 403.778 114.669 403.549C114.669 402.547 115.108 401.545 115.296 400.418C115.296 399.541 115.296 398.665 115.671 397.663V396.66C115.671 395.721 115.671 394.782 115.671 393.842C116.179 388.87 115.968 383.85 115.045 378.938C115.045 378.562 119.554 361.153 119.554 361.153C119.613 360.92 119.581 360.674 119.465 360.465C119.349 360.255 119.157 360.098 118.928 360.026L103.647 355.516L99.451 354.828H97.948L92.562 360.464C88.7609 364.26 85.1852 368.274 81.8529 372.488C81.2267 373.364 80.6003 374.178 80.0367 375.055C77.8467 378.872 76.1027 382.927 74.8388 387.142Z" fill="#FFBA7D"/>
<path d="M112.477 266.966L84.0449 369.294L117.112 377.999L159.635 292.892C162.449 288.21 164.085 282.914 164.401 277.46C164.718 272.006 163.705 266.557 161.451 261.58C159.967 258.121 157.739 255.031 154.924 252.53C152.11 250.03 148.779 248.181 145.169 247.114H144.605C141.191 246.296 137.65 246.161 134.184 246.717C130.718 247.274 127.396 248.51 124.41 250.355C121.424 252.2 118.832 254.618 116.784 257.469C114.736 260.32 113.273 263.547 112.477 266.966Z" fill="#C9C9C9"/>
<path d="M273.679 561.988C272.994 564.61 272.136 567.183 271.111 569.691C270.775 571.939 269.835 574.053 268.39 575.807C266.944 577.561 265.049 578.889 262.907 579.648C253.199 583.354 242.618 584.138 232.47 581.903C219.945 579.46 208.797 573.386 206.355 563.554L205.791 549.15L204.539 517.838L203.411 490.221L199.278 388.707C198.589 382.445 264.911 362.03 265.725 363.032C271.236 370.421 273.177 446.384 272.802 447.449C281.444 493.853 279.127 540.633 273.679 561.988Z" fill="#146770"/>
<path d="M321.964 777.54L294.596 782.299L276.622 785.493L254.89 789.313L217.628 788.687C217.628 788.687 214.058 774.158 222.074 767.082C230.09 760.005 238.169 765.203 248.315 760.13C252.649 758.063 256.492 755.096 259.587 751.426C261.081 749.569 262.759 747.869 264.598 746.353C267.595 743.875 270.981 741.908 274.618 740.529C279.347 738.735 284.342 737.74 289.398 737.586C295.688 737.421 301.98 737.862 308.186 738.901C310.315 739.214 316.703 745.163 320.711 770.213L321.964 777.54Z" fill="#262625"/>
<path d="M311.317 749.735L291.151 752.49L278.25 754.369L267.165 755.935L264.66 746.04L260.088 728.317L256.268 713.413L265.787 710.344L287.143 703.456L296.975 700.262L301.986 717.734L308.06 738.525L311.317 749.735Z" fill="#262625"/>
<path d="M273.678 561.988C273.303 561.362 273.052 560.798 272.676 560.235C270.179 543.569 264.503 527.539 255.955 513.016C250.193 504.186 243.054 498.362 234.975 499.489H234.224C233.183 499.629 232.156 499.86 231.155 500.178C216.25 505 207.169 529.11 205.791 548.962C205.313 553.396 205.313 557.868 205.791 562.301V563.366L255.517 754.369L317.454 744.537C311.254 686.735 289.21 591.484 273.678 561.988Z" fill="#146770"/>
<path d="M261.967 403.925C261.028 409.561 247.5 434.486 233.723 460.287C223.069 479.021 213.39 498.293 204.726 518.026C196.397 541.823 188.444 560.861 182.619 567.499C181.204 570.016 179.137 572.106 176.636 573.549C174.134 574.992 171.291 575.737 168.403 575.703C167.235 575.767 166.064 575.767 164.896 575.703C161.751 575.747 158.607 575.517 155.502 575.014C137.591 572.258 117.926 561.487 118.49 547.084C118.49 547.084 118.49 547.084 118.49 546.645C122.543 510.899 130.265 475.664 141.536 441.5C146.233 425.906 151.369 410.187 156.629 393.905L160.825 378.688C160.825 378.249 161.326 377.748 162.078 377.247C172.25 373.079 182.716 369.668 193.391 367.04C202.101 364.204 211.391 363.642 220.379 365.406C229.366 367.171 237.754 371.204 244.745 377.122C244.745 377.122 255.579 394.093 260.026 401.17C261.153 402.673 261.967 403.863 261.967 403.925Z" fill="#187E89"/>
<path d="M181.68 780.358V787.873H75.7157C75.7157 787.873 70.7054 771.779 79.9115 766.268C93.251 758.127 111.225 762.886 124.752 751.3C126.533 749.727 128.487 748.361 130.576 747.23C136.188 744.1 142.501 742.441 148.926 742.408C152.456 742.419 155.978 742.754 159.447 743.41C162.343 743.917 165.207 744.586 168.027 745.414C170.407 746.04 172.599 746.792 174.603 747.418C176.607 748.044 178.674 751.05 180.302 759.943C181.383 766.691 181.844 773.525 181.68 780.358Z" fill="#30302F"/>
<path d="M175.856 758.878L159.072 758.314L153.185 758.126L131.391 757.437L130.577 747.23L129.637 735.143L128.072 713.663L168.967 707.965L170.094 707.777L170.345 707.714V707.777L170.407 708.152L173.288 734.83L174.666 747.418L175.856 758.878Z" fill="#30302F"/>
<path d="M186.565 761.132L180.302 760.13L171.472 758.753L166.086 757.876L130.952 752.302L124.69 751.3H122.811L117.112 554.097C117.372 551.61 117.79 549.142 118.364 546.708C123.312 525.353 140.722 497.986 158.946 499.74H159.698C170.72 500.742 176.92 513.893 180.114 529.173L180.678 532.304C180.991 534.183 181.367 536.124 181.555 538.066C182.793 547.847 183.066 557.726 182.369 567.561C191.387 599.813 193.391 700.637 186.565 761.132Z" fill="#187E89"/>
<path d="M139.156 149.296C159.447 160.568 168.591 125.937 176.732 111.721L164.833 73.2701L114.732 95.1886L139.156 149.296Z" fill="#FFC990"/>
<path d="M99.138 120.551C100.528 122.255 102.342 123.563 104.398 124.343C106.454 125.124 108.679 125.349 110.849 124.997L121.308 122.994C125.144 121.807 128.716 119.893 131.829 117.357C141.348 109.717 152.872 79.7829 152.934 79.7829C160.575 78.2799 168.34 84.1039 167.965 76.4638C167.589 68.8237 174.728 54.4203 174.227 43.3358C165.272 -5.26041 135.461 2.06645 117.362 4.8219C109.847 6.08706 102.818 9.37203 97.0261 14.325C91.2345 19.278 86.8989 25.7127 84.4833 32.9402C82.752 38.1749 81.8434 43.6465 81.7903 49.1598C81.7478 52.4445 81.9152 55.7285 82.2914 58.9918C83.2747 60.8671 84.3619 62.686 85.5479 64.4401L84.7964 67.1329L81.5399 79.3446C81.3958 80.0786 81.4099 80.8348 81.5814 81.5629C81.7528 82.291 82.0775 82.9742 82.5339 83.5669C82.9903 84.1596 83.5677 84.6481 84.2278 84.9999C84.888 85.3517 85.6156 85.5587 86.3621 85.607L91.1843 86.1706C91.7479 89.4271 93.3762 107.901 93.3762 107.901C94.0876 112.57 96.0824 116.95 99.138 120.551Z" fill="#FFC990"/>
<path d="M169.03 86.609C137.153 98.8207 149.553 59.6806 149.553 59.6806C149.553 59.6806 133.645 61.8098 128.76 62.1855C140.597 22.1688 109.973 14.4034 84.233 33.0027C78.7845 16.6578 104.211 2.94334 121.371 0.688873C145.858 -2.50495 168.904 5.19779 174.666 29.2454C178.048 43.2106 180.929 83.9788 169.03 86.609Z" fill="#131313"/>
<path d="M155.627 61.9978C156.754 69.7005 151.619 79.4699 146.609 80.2214C141.599 80.9729 141.223 74.6479 140.346 67.0078C139.532 61.9979 137.152 54.984 142.413 52.5417C147.674 50.0993 153.936 51.1012 155.627 61.9978Z" fill="#FFC990"/>
<path opacity="0.1" d="M99.1379 120.551C100.528 122.255 102.342 123.563 104.398 124.343C106.454 125.124 108.679 125.35 110.849 124.997L121.308 122.994C125.144 121.807 128.716 119.893 131.829 117.357C134.042 112.555 135.093 107.299 134.898 102.015C134.731 96.5886 134.124 91.185 133.081 85.8574C133.249 90.6984 132.009 95.4841 129.512 99.6348C127.051 103.795 123.919 107.519 120.243 110.657C116.753 113.989 112.704 116.681 108.281 118.61C105.38 119.816 102.28 120.475 99.1379 120.551Z" fill="#050504"/>
<path d="M263.408 342.679C258.022 345.747 252.824 344.745 247.375 347.313C228.086 356.393 207.983 356.957 187.191 356.581C178.583 356.467 170.021 355.289 161.702 353.074L160.951 351.696L159.197 348.001C159.197 347.313 158.571 346.624 158.258 345.81C157.318 343.681 156.379 341.238 155.377 338.671C155.064 337.731 154.751 336.855 154.375 335.978C152.997 332.346 151.619 328.4 150.179 324.267C147.047 315.249 143.916 305.48 140.722 295.46C140.284 294.082 139.908 292.642 139.47 291.264L137.403 284.626C136.777 282.497 136.088 280.305 135.461 278.364C134.835 276.422 134.209 274.168 133.583 272.101C132.643 269.095 131.829 266.215 131.015 263.522L130.138 260.892C128.572 255.694 127.32 251.185 126.381 247.803C125.128 243.294 124.377 240.664 124.377 240.539C117.597 205.481 120.189 169.254 131.892 135.518L135.712 133.327V129.444C135.679 129.048 135.679 128.65 135.712 128.254C135.872 125.282 136.705 122.385 138.148 119.781C139.591 117.178 141.606 114.936 144.041 113.224L171.472 95.4389L177.734 107.212C179.363 107.525 180.991 107.901 182.557 108.34C186.765 109.402 190.841 110.936 194.706 112.911C202.144 116.886 208.788 122.193 214.308 128.567C224.966 141.354 233.162 156.005 238.482 171.778C252.072 208.726 257.27 254.504 260.339 289.949C260.965 297.276 261.466 304.102 261.842 310.365C262.28 319.445 262.907 336.541 263.408 342.679Z" fill="#DADADA"/>
<path d="M233.723 460.161C231.445 461.013 229.125 461.744 226.771 462.353L218.003 461.351L164.082 455.089L162.266 376.746L161.702 352.886L183.496 348.753L263.408 342.491L265.913 362.906C266.664 364.973 267.353 367.102 267.917 369.168C277.311 402.86 271.549 445.946 233.723 460.161Z" fill="#187E89"/>
<path opacity="0.15" d="M193.516 366.726C163.831 379.251 149.678 423.651 141.724 441.186C146.421 425.593 151.557 409.874 156.817 393.592L161.013 378.374C161.64 375.055 183.872 368.73 193.516 366.726Z" fill="#1D1D1B"/>
<path opacity="0.15" d="M150.179 324.017C147.047 314.999 143.916 305.229 140.722 295.209C140.284 293.832 139.908 292.392 139.469 291.014L137.403 284.376C136.776 282.246 136.088 280.055 135.461 278.113C134.835 276.172 134.209 273.917 133.583 271.851C132.706 268.845 131.892 266.027 131.015 263.271C130.702 262.395 130.451 261.455 130.201 260.579V230.895L189.884 159.065C227.46 244.359 163.518 303.476 183.621 349.129C184.748 351.822 186.064 354.327 187.316 356.769C178.708 356.655 170.147 355.477 161.827 353.262L160.95 351.696L159.197 348.001C159.197 347.313 158.571 346.624 158.257 345.81C157.318 343.681 156.379 341.238 155.377 338.671C155.063 337.731 154.75 336.855 154.375 335.978C153.06 332.095 151.619 328.15 150.179 324.017Z" fill="#1D1D1B"/>
<path d="M265.913 363.094C240.862 358.084 186.878 363.47 161.264 377.811L161.702 353.074C183.892 348.442 206.328 345.076 228.901 342.992C240.377 341.99 251.915 341.885 263.408 342.679L264.723 353.074L265.913 363.094Z" fill="#3C3C3B"/>
<path opacity="0.2" d="M233.723 460.161C223.069 478.895 213.39 498.167 204.726 517.9C196.397 541.698 188.444 560.735 182.619 567.374C191.387 599.813 193.391 700.638 186.565 761.132L180.302 760.13C181.372 766.817 181.833 773.588 181.68 780.358V787.873H151.243L165.773 758.565L166.086 757.876C166.775 753.743 167.464 749.547 168.027 745.351C169.405 736.27 170.595 727.315 171.534 718.423C177.108 667.384 175.856 619.352 164.896 575.703C163.769 571.382 162.579 567.061 161.264 562.802C168.902 555.134 175.781 546.745 181.805 537.753C197.442 514.091 209.631 488.323 218.003 461.226C219.632 456.279 221.197 451.269 222.763 446.134C240.152 435.789 253.428 419.748 260.339 400.731C264.13 390.629 266.736 380.122 268.105 369.419C277.311 402.86 271.549 445.946 233.723 460.161Z" fill="#1D1D1B"/>
<path d="M112.853 387.33C114.107 386.28 114.9 384.782 115.064 383.156C115.228 381.529 114.749 379.903 113.73 378.625C112.823 377.556 111.55 376.864 110.16 376.683C108.762 376.571 107.373 376.997 106.277 377.873L90.6207 396.034C89.4378 397.023 88.6901 398.436 88.5378 399.97C88.3856 401.504 88.8412 403.036 89.8067 404.238C90.2612 404.796 90.8217 405.258 91.4559 405.598C92.0901 405.938 92.7852 406.149 93.5014 406.219C94.2176 406.289 94.9407 406.216 95.6286 406.005C96.3166 405.794 96.9558 405.449 97.5096 404.99L112.853 387.33Z" fill="#FAC48E"/>
<path d="M82.9802 406.054L84.5459 390.837L156.942 399.04L155.377 414.321L82.9802 406.054Z" fill="#3C3C3B"/>
<path d="M104.586 555.976H103.96C75.0266 548.837 70.9558 512.139 72.6467 493.79C73.3356 466.048 99.3883 200.835 100.202 192.757L111.475 194.072C111.475 196.013 84.6712 466.862 83.9197 494.667C83.9197 495.544 80.0368 537.126 105.651 544.14C132.08 543.013 136.964 501.556 136.964 500.679C141.849 473.375 169.217 202.651 169.468 200.71L180.74 202.025C179.864 210.041 153.122 475.191 148.237 502.62C146.358 521.032 134.96 555.913 105.275 556.352L104.586 555.976Z" fill="#B2B2B2"/>
<path d="M104.837 553.909L97.134 553.033L75.4026 773.532L83.1683 774.409L90.8714 775.285L112.54 554.786L104.837 553.909Z" fill="#B2B2B2"/>
<path d="M93.0005 788.374L91.4349 769.336L76.0287 767.583L70.8933 786.057L93.0005 788.374Z" fill="#3C3C3B"/>
<path d="M97.7602 195.951C94.7636 195.87 91.9149 194.631 89.8128 192.494C87.7107 190.356 86.5186 187.488 86.4873 184.49C87.1183 181.58 88.8755 179.038 91.3749 177.418C93.8742 175.799 96.9126 175.235 99.8268 175.848L184.686 185.492C187.689 185.573 190.544 186.81 192.656 188.945C194.768 191.081 195.974 193.949 196.021 196.953C195.39 199.863 193.633 202.405 191.134 204.025C188.635 205.644 185.596 206.208 182.682 205.595L97.7602 195.951Z" fill="#3C3C3B"/>
<path d="M189.759 172.529L173.476 282.246L118.928 284.877L131.954 168.333C132.831 153.366 143.603 128.003 162.892 129.882C162.641 129.882 194.393 133.264 189.759 172.529Z" fill="#DADADA"/>
<path d="M107.405 412.191C107.681 410.583 107.319 408.93 106.394 407.585C105.47 406.24 104.058 405.309 102.457 404.989C101.086 404.753 99.677 405.044 98.5117 405.804C97.3709 406.605 96.5852 407.817 96.3197 409.185L94.5662 418.767C94.2911 420.277 94.6237 421.835 95.4916 423.102C96.3595 424.369 97.6926 425.241 99.2007 425.53C100.618 425.749 102.065 425.408 103.234 424.577C104.403 423.747 105.203 422.494 105.463 421.084L107.405 412.191Z" fill="#FAC48E"/>
<path d="M119.116 411.941C119.253 411.254 119.252 410.547 119.115 409.86C118.978 409.174 118.707 408.521 118.318 407.939C117.928 407.357 117.427 406.858 116.844 406.47C116.261 406.083 115.607 405.813 114.92 405.678C113.339 405.416 111.717 405.77 110.389 406.667C109.061 407.564 108.128 408.936 107.781 410.501L105.338 423.025C105.198 423.666 105.187 424.328 105.305 424.973C105.423 425.618 105.669 426.233 106.027 426.783C106.783 427.86 107.928 428.601 109.221 428.849H110.286C111.687 429.088 113.126 428.77 114.296 427.963C115.466 427.156 116.274 425.923 116.548 424.528L119.116 411.941Z" fill="#FAC48E"/>
<path d="M129.637 415.886C129.896 414.287 129.525 412.651 128.602 411.32C127.68 409.988 126.277 409.066 124.69 408.747C123.998 408.611 123.287 408.614 122.597 408.754C121.907 408.895 121.251 409.172 120.669 409.568C120.086 409.964 119.588 410.472 119.203 411.062C118.818 411.652 118.555 412.312 118.427 413.005L117.112 422.461C116.967 423.21 116.972 423.981 117.128 424.727C117.283 425.474 117.585 426.182 118.016 426.812C118.447 427.441 118.999 427.978 119.639 428.392C120.279 428.806 120.995 429.09 121.746 429.225H122.811C124.013 429.425 125.246 429.156 126.255 428.474C126.751 428.135 127.173 427.7 127.496 427.194C127.819 426.688 128.036 426.122 128.134 425.53L129.637 415.886Z" fill="#FAC48E"/>
<path d="M138.843 417.139C138.987 416.037 138.694 414.922 138.027 414.032C137.36 413.143 136.372 412.55 135.274 412.379H134.522C133.983 412.259 133.426 412.247 132.883 412.343C132.339 412.438 131.82 412.64 131.354 412.937C130.889 413.233 130.487 413.619 130.17 414.071C129.854 414.524 129.631 415.034 129.512 415.573L128.009 423.589C127.865 424.618 128.133 425.662 128.755 426.494C129.376 427.327 130.301 427.88 131.328 428.035L132.894 428.348C133.84 428.555 134.829 428.382 135.649 427.867C136.469 427.352 137.054 426.535 137.278 425.593L138.843 417.139Z" fill="#FAC48E"/>
<path d="M98.3239 394.218V395.22C98.3239 395.972 97.9482 396.723 97.7603 397.475C97.7907 397.661 97.7907 397.852 97.7603 398.038C97.7257 398.182 97.7257 398.332 97.7603 398.476C97.7299 398.663 97.7299 398.854 97.7603 399.04C97.6983 399.223 97.6983 399.421 97.7603 399.604C97.725 399.832 97.725 400.065 97.7603 400.293C97.7603 400.982 97.7603 401.608 97.7603 402.297C97.7909 402.609 97.7909 402.924 97.7603 403.236C97.822 404.091 97.822 404.949 97.7603 405.804C97.7603 405.804 97.7603 405.804 97.7603 406.117C97.6856 407.256 97.5179 408.387 97.2592 409.498C97.2592 409.498 97.2592 409.874 97.2592 409.999L96.8834 411.69C96.8565 411.856 96.8565 412.025 96.8834 412.191C96.852 412.441 96.852 412.693 96.8834 412.943C97.0126 414.113 97.5048 415.213 98.291 416.089C99.0773 416.965 100.118 417.573 101.267 417.827C102.594 418.118 103.981 417.891 105.145 417.192C106.309 416.494 107.162 415.377 107.53 414.07V414.32C107.53 414.32 107.53 414.32 107.53 414.696C107.373 415.27 107.373 415.876 107.53 416.45C107.823 417.404 108.367 418.262 109.105 418.934C109.844 419.606 110.749 420.067 111.726 420.27C113.057 420.513 114.43 420.258 115.585 419.553C116.74 418.849 117.596 417.744 117.989 416.45V416.074V415.26V414.446C117.958 414.737 117.958 415.031 117.989 415.322C117.927 415.716 117.927 416.118 117.989 416.512C117.989 416.512 117.989 416.512 117.989 416.826C117.953 416.991 117.953 417.161 117.989 417.326C118.315 418.201 118.861 418.978 119.574 419.581C120.287 420.184 121.143 420.594 122.059 420.771C123.443 421.014 124.867 420.713 126.033 419.931C127.2 419.149 128.02 417.947 128.322 416.575L128.635 415.197C128.573 415.654 128.573 416.118 128.635 416.575C128.607 416.908 128.607 417.244 128.635 417.577V418.015C128.966 418.733 129.461 419.363 130.082 419.853C130.702 420.343 131.43 420.678 132.205 420.833C133.434 421.159 134.742 420.987 135.844 420.354C136.947 419.721 137.755 418.678 138.092 417.452V416.387V415.636V413.882C138.338 412.831 138.505 411.764 138.593 410.688C138.622 410.565 138.622 410.436 138.593 410.312C138.746 409.4 138.851 408.48 138.906 407.557C138.94 407.329 138.94 407.097 138.906 406.868C138.906 405.866 138.906 404.864 138.906 403.737C138.906 402.798 138.906 401.921 138.906 400.919V399.854C138.906 398.978 138.906 398.038 138.906 397.036C138.77 392.057 137.926 387.124 136.401 382.382C136.401 381.944 138.781 364.159 138.781 364.159C138.817 363.918 138.76 363.673 138.62 363.475C138.479 363.276 138.268 363.14 138.029 363.094L122.247 360.464H118.051H116.486C114.983 362.593 113.417 364.66 111.851 366.726C108.537 370.976 105.463 375.408 102.645 380.003L101.205 382.695C99.853 386.428 98.8877 390.289 98.3239 394.218Z" fill="#FFCF9F"/>
<path d="M121.12 270.285L105.338 375.368L138.968 380.003L170.845 290.388C173.061 285.394 174.036 279.938 173.687 274.485C173.338 269.033 171.675 263.746 168.841 259.076C166.965 255.783 164.378 252.95 161.269 250.784C158.16 248.617 154.606 247.171 150.868 246.551H150.366C143.343 245.832 136.321 247.927 130.839 252.376C125.357 256.824 121.862 263.264 121.12 270.285Z" fill="#DADADA"/>
</g>
<defs>
<clipPath id="clip0_59_1636">
<rect width="322.026" height="789" fill="white"/>
</clipPath>
</defs>
</svg>
