<svg width="44" height="32" viewBox="0 0 44 32" fill="none" xmlns="http://www.w3.org/2000/svg">
<g clip-path="url(#clip0_59_1621)">
<path d="M16.9175 25.2838C16.9175 25.2838 21.3217 24.2289 21.4012 19.8668C21.4084 18.7332 21.1233 17.6168 20.5735 16.6254C20.0237 15.634 19.2277 14.8009 18.2624 14.2066C17.7802 13.9054 17.2759 13.6411 16.7538 13.416C15.3174 12.8092 14.0378 11.8838 13.0115 10.7099C12.7906 10.4505 12.5837 10.1796 12.3917 9.8983C12.2891 9.74101 12.1502 9.61073 11.9866 9.51847C11.8231 9.42622 11.6397 9.3747 11.4521 9.36828C11.2644 9.36185 11.0779 9.40071 10.9085 9.48157C10.739 9.56242 10.5915 9.6829 10.4784 9.83281L10.3872 9.97314C10.2929 10.1409 10.2422 10.3297 10.2398 10.5222C10.2373 10.7146 10.2832 10.9046 10.3732 11.0748C10.8573 12.0104 12.0876 14.1154 13.9751 15.1749C13.9751 15.1749 8.94874 14.8101 7.34424 8.0365C7.34424 8.0365 6.86475 5.10816 4.72463 3.91063C4.62144 3.854 4.50351 3.82997 4.38639 3.84171C4.26927 3.85345 4.15845 3.9004 4.06854 3.97637C3.97864 4.05235 3.91386 4.15378 3.88276 4.26731C3.85166 4.38083 3.85568 4.50112 3.89431 4.61231C4.2662 5.68354 4.73165 7.63655 4.96086 11.0046C4.96086 11.0046 5.00765 17.3197 12.553 20.0937C13.6202 20.4725 14.5744 21.1147 15.3271 21.9607C16.0799 22.8066 16.6068 23.829 16.859 24.933C16.873 25.0499 16.8964 25.1575 16.9175 25.2838Z" fill="#EC5863"/>
<path d="M36.2418 28.4693C36.065 28.4693 35.8954 28.3991 35.7704 28.274C35.6454 28.149 35.5752 27.9795 35.5752 27.8027C35.5752 27.6259 35.6454 27.4563 35.7704 27.3313C35.8954 27.2063 36.065 27.1361 36.2418 27.1361C37.1262 27.133 37.9732 26.779 38.5968 26.1519C39.2204 25.5248 39.5696 24.6758 39.5678 23.7914C39.5624 23.701 39.5755 23.6105 39.6064 23.5254C39.6373 23.4403 39.6853 23.3624 39.7474 23.2965C39.8095 23.2306 39.8844 23.1781 39.9676 23.1422C40.0507 23.1063 40.1403 23.0878 40.2308 23.0878C40.3214 23.0878 40.411 23.1063 40.4941 23.1422C40.5773 23.1781 40.6522 23.2306 40.7143 23.2965C40.7764 23.3624 40.8243 23.4403 40.8552 23.5254C40.8861 23.6105 40.8993 23.701 40.8939 23.7914C40.8939 25.0276 40.4046 26.2136 39.5329 27.0901C38.6612 27.9666 37.478 28.4625 36.2418 28.4693Z" fill="#587EEC"/>
<path d="M7.7582 28.4694C6.52242 28.4619 5.33978 27.9658 4.46857 27.0894C3.59737 26.2129 3.10838 25.0273 3.1084 23.7915C3.1084 23.7046 3.12551 23.6185 3.15878 23.5382C3.19204 23.4579 3.2408 23.3849 3.30226 23.3234C3.36373 23.262 3.4367 23.2132 3.51701 23.18C3.59732 23.1467 3.68338 23.1296 3.77031 23.1296C3.85723 23.1296 3.94331 23.1467 4.02361 23.18C4.10392 23.2132 4.1769 23.262 4.23836 23.3234C4.29983 23.3849 4.34858 23.4579 4.38185 23.5382C4.41511 23.6185 4.43223 23.7046 4.43223 23.7915C4.43036 24.6759 4.77958 25.5249 5.40319 26.152C6.0268 26.7791 6.87381 27.1331 7.7582 27.1362C7.93499 27.1362 8.10454 27.2064 8.22955 27.3314C8.35456 27.4564 8.42479 27.626 8.42479 27.8028C8.42479 27.9796 8.35456 28.1491 8.22955 28.2741C8.10454 28.3991 7.93499 28.4694 7.7582 28.4694Z" fill="#EC5863"/>
<path d="M27.0825 25.2838C27.0825 25.2838 22.6783 24.2289 22.5987 19.8668C22.5921 18.733 22.8776 17.6166 23.4278 16.6252C23.978 15.6338 24.7743 14.8008 25.7399 14.2066C26.2213 13.9054 26.7249 13.6411 27.2462 13.416C28.6826 12.8092 29.9622 11.8838 30.9885 10.7099C31.2101 10.4506 31.4178 10.1797 31.6107 9.8983C31.7133 9.74147 31.8521 9.61161 32.0154 9.51966C32.1788 9.42771 32.3618 9.37636 32.5491 9.36994C32.7365 9.36352 32.9226 9.40221 33.0918 9.48277C33.261 9.56332 33.4084 9.68337 33.5216 9.83281C33.5547 9.87778 33.5851 9.92464 33.6128 9.97314C33.7074 10.1407 33.7585 10.3294 33.7614 10.5219C33.7642 10.7143 33.7188 10.9044 33.6292 11.0748C33.145 12.0104 31.9147 14.1154 30.0272 15.1749C30.0272 15.1749 35.0512 14.8101 36.6581 8.0365C36.6581 8.0365 37.1259 5.10816 39.2753 3.91063C39.3785 3.854 39.4965 3.82997 39.6136 3.84171C39.7307 3.85345 39.8415 3.9004 39.9314 3.97637C40.0213 4.05235 40.0861 4.15378 40.1172 4.26731C40.1483 4.38083 40.1443 4.50112 40.1057 4.61231C39.7361 5.68354 39.2683 7.63655 39.0391 11.0046C39.0391 11.0046 38.9923 17.3197 31.4493 20.0937C30.3817 20.4718 29.4271 21.1137 28.6742 21.9598C27.9213 22.8059 27.3947 23.8287 27.1433 24.933C27.1269 25.0499 27.1035 25.1575 27.0825 25.2838Z" fill="#587EEC"/>
<path d="M26.4814 8.53235C26.3178 9.33069 25.9485 10.0724 25.4101 10.6842C24.4972 11.8073 23.3276 12.6946 22 13.271C21.0062 12.8429 20.0987 12.2373 19.3219 11.4841C19.1535 11.318 18.9898 11.1449 18.8331 10.9672C18.7512 10.876 18.6717 10.7847 18.5992 10.6888C18.0585 10.079 17.6896 9.33635 17.5303 8.53703C17.4063 7.73945 17.6379 6.84598 18.2624 6.33375C18.9243 5.80048 19.8996 5.79112 20.6668 6.12559C21.0378 6.28845 21.3582 6.54808 21.5944 6.87727C21.8305 7.20647 21.9739 7.59312 22.0093 7.99673C22.0443 7.5933 22.1872 7.20671 22.423 6.8775C22.6588 6.54828 22.9788 6.28857 23.3495 6.12559C24.1261 5.79112 25.0944 5.80048 25.754 6.33375C26.1008 6.62677 26.3422 7.02514 26.4416 7.46814C26.4635 7.54894 26.4806 7.63094 26.4931 7.71372C26.5292 7.98571 26.5253 8.26151 26.4814 8.53235Z" fill="#E5E2E9"/>
<path d="M32.1672 7.8494C34.3219 7.8494 36.0686 6.09224 36.0686 3.92467C36.0686 1.7571 34.3219 -6.10352e-05 32.1672 -6.10352e-05C30.0126 -6.10352e-05 28.2659 1.7571 28.2659 3.92467C28.2659 6.09224 30.0126 7.8494 32.1672 7.8494Z" fill="#EC5863"/>
<path d="M11.8327 7.8494C13.9874 7.8494 15.7341 6.09224 15.7341 3.92467C15.7341 1.7571 13.9874 -6.10352e-05 11.8327 -6.10352e-05C9.67809 -6.10352e-05 7.9314 1.7571 7.9314 3.92467C7.9314 6.09224 9.67809 7.8494 11.8327 7.8494Z" fill="#587EEC"/>
<path d="M29.6086 25.5551C29.8924 26.6188 30.4284 27.5984 31.1714 28.4108C31.9143 29.2232 32.8423 29.8445 33.8765 30.2219C34.9106 30.5993 36.0206 30.7217 37.1122 30.5788C38.2038 30.4359 39.2448 30.0318 40.147 29.4009C41.0491 28.77 41.7858 27.9308 42.2946 26.9545C42.8034 25.9782 43.0692 24.8936 43.0695 23.7927C43.0698 22.6918 42.8046 21.607 42.2964 20.6304C41.7882 19.6538 41.052 18.8142 40.1502 18.1828V15.2521H42.4447" stroke="#EC5863" stroke-width="1.85945" stroke-linecap="round" stroke-linejoin="round"/>
<path d="M14.3914 25.5551C14.1072 26.6179 13.5709 27.5966 12.828 28.4082C12.0851 29.2197 11.1575 29.8402 10.1238 30.217C9.09011 30.5938 7.98081 30.7158 6.88994 30.5727C5.79906 30.4296 4.75876 30.0256 3.85722 29.395C2.95568 28.7643 2.21947 27.9256 1.71099 26.95C1.20252 25.9743 0.936775 24.8904 0.93628 23.7902C0.935785 22.69 1.20056 21.6058 1.70815 20.6297C2.21575 19.6536 2.9512 18.8142 3.85218 18.1828V15.2521H1.55535" stroke="#587EEC" stroke-width="1.85945" stroke-linecap="round" stroke-linejoin="round"/>
</g>
<defs>
<clipPath id="clip0_59_1621">
<rect width="44" height="31.6317" fill="white"/>
</clipPath>
</defs>
</svg>
