<svg width="15" height="20" viewBox="0 0 15 20" fill="none" xmlns="http://www.w3.org/2000/svg">
<path d="M12.3675 1.29358L11.2181 0.624861C10.052 -0.0319586 8.45041 0.070372 6.68462 1.10082C3.11495 3.15695 0.237793 8.15449 0.237793 12.2667C0.237793 14.3181 0.951727 15.7603 2.1202 16.4361L3.27439 17.0953C4.45 17.8402 6.10633 17.7736 7.94352 16.7122C11.5108 14.6441 14.3951 9.64661 14.3975 5.54149C14.3975 3.40444 13.6169 1.93136 12.3675 1.29358Z" fill="#F0F0F0"/>
<path d="M0.480654 10.0917C0.325829 10.8032 0.246067 11.5291 0.242676 12.2573C0.242676 14.3086 0.95661 15.7508 2.12508 16.4266L3.28641 17.0882L3.85518 16.1363L5.45677 12.9617L0.480654 10.0917Z" fill="#E0E0E0"/>
<path d="M5.06905 17.3691C3.00578 17.3691 1.7207 15.689 1.7207 12.9856C1.7207 8.93993 4.56454 4.02806 8.06044 2.01001C8.89331 1.48847 9.8485 1.1947 10.8305 1.15805C11.291 1.14643 11.7479 1.24208 12.165 1.43744C12.5822 1.6328 12.9482 1.92252 13.2341 2.28368C13.8528 3.05711 14.186 4.18751 14.186 5.5416C14.186 9.58723 11.3445 14.5015 7.84864 16.5172C7.01697 17.0394 6.06235 17.3333 5.08095 17.3691H5.06905Z" fill="#FAFAFA"/>
<path d="M10.8304 1.37697C11.2579 1.36562 11.6821 1.4539 12.0695 1.63481C12.457 1.81572 12.797 2.0843 13.0627 2.41931C13.6481 3.15466 13.9575 4.2327 13.9575 5.54158C13.9575 9.5063 11.1636 14.3468 7.72959 16.3291C6.92833 16.8276 6.01181 17.1104 5.069 17.1501C4.64148 17.1621 4.21708 17.074 3.82956 16.8931C3.44204 16.7121 3.1021 16.4432 2.83677 16.1078C2.25134 15.3748 1.94197 14.2944 1.94197 12.9855C1.94197 9.02082 4.73583 4.18035 8.16985 2.20037C8.97089 1.70109 9.88742 1.41744 10.8304 1.37697ZM10.8304 0.939087C9.81012 0.97573 8.81724 1.27934 7.95091 1.81961C4.38124 3.87574 1.50171 8.87565 1.50171 12.9855C1.50171 15.9031 2.95575 17.588 5.07138 17.588C6.09171 17.5514 7.08459 17.2478 7.95091 16.7075C11.5111 14.6442 14.3954 9.6467 14.3977 5.54158C14.3977 2.62635 12.9437 0.939087 10.8281 0.939087H10.8304Z" fill="#E0E0E0"/>
<path d="M7.94847 8.85655C8.90038 8.30206 9.68809 6.8147 9.68809 5.52486C9.68809 4.23502 8.9099 3.65435 7.94847 4.20884C6.98704 4.76333 6.20885 6.25307 6.20885 7.54053C6.20885 8.82799 6.98704 9.40866 7.94847 8.85655ZM11.1612 10.708C11.0208 9.11832 9.97128 8.46626 8.70048 9.19448L7.19646 10.0655C5.93518 10.7794 4.87379 12.6666 4.73339 14.4181L4.68579 15.47C4.93624 15.5698 5.20393 15.6191 5.4735 15.6151C6.19514 15.5801 6.89572 15.3605 7.50821 14.9773C8.93608 14.1516 10.2497 12.6737 11.1874 10.9984L11.1612 10.708Z" fill="#BA68C8"/>
<path d="M5.06412 13.7041L4.45252 13.3447C4.00988 13.1068 3.40303 13.1329 2.72956 13.5208C1.37784 14.3014 0.280762 16.2005 0.280762 17.764C0.280762 18.5445 0.554436 19.0919 0.994696 19.3489L1.62534 19.7106C2.07274 19.9938 2.701 19.97 3.40065 19.5655C4.75237 18.7849 5.84945 16.8858 5.84945 15.3223C5.83517 14.5061 5.54008 13.9468 5.06412 13.7041Z" fill="#455A64"/>
<path d="M0.35453 16.9358C0.294952 17.2063 0.263845 17.4822 0.261719 17.7592C0.261719 18.5398 0.535393 19.0871 0.975653 19.3441L1.60867 19.7082L1.82523 19.3441L2.43446 18.1376L0.35453 16.9358Z" fill="#263238"/>
<path d="M3.38623 13.9039C2.03214 14.6845 0.935059 16.5836 0.935059 18.1471C0.935059 19.7106 2.03214 20.3412 3.38623 19.5607C4.74033 18.7801 5.83503 16.881 5.83503 15.3175C5.83503 13.754 4.73795 13.1234 3.38623 13.9039Z" fill="#37474F"/>
<path d="M4.83552 15.896C4.83552 15.6794 4.70464 15.5794 4.54281 15.6723L3.67895 16.172V15.0202C3.67895 14.8036 3.54806 14.7037 3.38624 14.7989C3.2969 14.8625 3.22383 14.9463 3.17297 15.0435C3.12211 15.1407 3.09489 15.2485 3.09352 15.3581V16.5099L2.22728 17.0097C2.13889 17.0742 2.06652 17.1582 2.01576 17.2552C1.96501 17.3522 1.93723 17.4595 1.93457 17.5689C1.93457 17.7855 2.06546 17.8855 2.22728 17.7903L3.09352 17.2929V18.4518C3.09352 18.6684 3.22441 18.766 3.38624 18.6732C3.47557 18.6095 3.54864 18.5257 3.5995 18.4286C3.65036 18.3314 3.67758 18.2236 3.67895 18.1139V16.9621L4.54281 16.4623C4.63215 16.3971 4.7051 16.3119 4.7559 16.2136C4.8067 16.1153 4.83396 16.0066 4.83552 15.896Z" fill="#FAFAFA"/>
</svg>
