<svg width="36" height="46" viewBox="0 0 36 46" fill="none" xmlns="http://www.w3.org/2000/svg">
<path d="M10.4116 28.9027V29.7475C10.4108 30.5522 10.6332 31.3414 11.0542 32.0273C11.0851 32.0797 11.1184 32.1296 11.1517 32.1796V32.1939C11.1803 32.2367 11.2112 32.2796 11.2422 32.32C11.5994 32.812 12.0556 33.2239 12.5814 33.5292C13.1072 33.8345 13.691 34.0266 14.2954 34.093H14.3287H14.3954C14.438 34.0993 14.4809 34.1033 14.5239 34.1049H14.7738C15.6753 34.0628 16.551 33.7908 17.3177 33.3148L17.689 33.0982C20.9041 31.2444 23.5076 26.7347 23.5076 23.0246V22.5963C23.5076 22.513 23.5076 22.432 23.5076 22.3583V22.1941C23.5088 21.4669 23.328 20.7511 22.9816 20.1118C22.9688 20.0841 22.9545 20.057 22.9388 20.0308L22.9055 19.9714C22.8745 19.9166 22.8412 19.8643 22.8079 19.8119L22.7532 19.731L22.7079 19.6667C22.6865 19.6334 22.6603 19.6025 22.6366 19.5716L22.5937 19.5216C22.2355 19.0574 21.7871 18.6706 21.2755 18.3843C20.7638 18.098 20.1996 17.9182 19.6166 17.8557C19.4848 17.8394 19.352 17.8314 19.2192 17.8319H19.1526C18.2475 17.8725 17.3681 18.1454 16.5991 18.6244L16.2278 18.8386C13.0151 20.6805 10.4116 25.1902 10.4116 28.9027ZM12.5939 29.1145C12.5939 25.9827 14.7928 22.175 17.5034 20.6091C20.2139 19.0432 22.4152 20.3117 22.4152 23.4458C22.4152 26.58 20.2282 30.3853 17.5034 31.9512C14.7785 33.5171 12.5939 32.2486 12.5939 29.1145Z" fill="#455A64"/>
<path d="M11.5017 29.5308V29.9592C11.5017 31.794 12.1395 33.0886 13.1676 33.705L13.2175 33.7335C13.2271 33.7404 13.2375 33.746 13.2485 33.7502L13.2699 33.7621L13.3508 33.8049C13.4055 33.8335 13.4603 33.8573 13.5174 33.8811L13.5935 33.912L13.6864 33.9453L13.772 33.9739C13.8387 33.9953 13.9053 34.012 13.9767 34.0286L14.0838 34.0524L14.198 34.0715L14.3241 34.0905H14.3908C14.4334 34.0968 14.4763 34.1008 14.5193 34.1024H14.7168C15.6366 34.0693 16.5317 33.7961 17.3131 33.3099L17.6844 33.0934C20.8995 31.2395 23.5029 26.7298 23.5029 23.0198V22.5914C23.5029 22.5081 23.5029 22.4272 23.5029 22.3534C23.5029 22.2796 23.5029 22.2178 23.5029 22.1535C23.5029 22.1297 23.5029 22.1035 23.5029 22.0797L23.4887 21.9013V21.8679C23.4887 21.7989 23.4744 21.7299 23.4649 21.6633C23.4553 21.5966 23.4482 21.5419 23.4387 21.4848C23.4292 21.4277 23.4268 21.4134 23.4197 21.3801C23.4078 21.3087 23.3935 21.2349 23.3768 21.1659C23.3602 21.0969 23.3459 21.0422 23.3316 20.9803C23.3007 20.8708 23.2697 20.7613 23.2316 20.6566C23.2126 20.5995 23.1912 20.5424 23.1698 20.4853C23.1299 20.3815 23.0846 20.2798 23.0341 20.1807C23.0221 20.153 23.0086 20.126 22.9937 20.0998C22.9808 20.0721 22.9665 20.0451 22.9508 20.0189L22.9175 19.9594C22.8866 19.9046 22.8533 19.8523 22.82 19.7999L22.7652 19.719L22.72 19.6547C22.6986 19.6214 22.6724 19.5905 22.6486 19.5596C22.6248 19.5286 22.5986 19.5001 22.5748 19.4715C22.551 19.4429 22.5249 19.412 22.4987 19.3835C22.4478 19.3266 22.3937 19.2726 22.3368 19.2216L22.2536 19.1455C22.1977 19.0952 22.1389 19.0484 22.0775 19.0051L21.9846 18.9408L21.8918 18.8813L21.8704 18.8694L21.7919 18.8194C20.74 18.234 19.3003 18.3292 17.7106 19.2454L17.3393 19.462C14.1076 21.3111 11.5017 25.8208 11.5017 29.5308ZM12.594 29.1144C12.594 25.9826 14.7929 22.1749 17.5035 20.609C20.2141 19.0431 22.4154 20.3116 22.4154 23.4457C22.4154 26.5799 20.2284 30.3852 17.5035 31.9511C14.7787 33.517 12.594 32.2485 12.594 29.1144Z" fill="#263238"/>
<path d="M13.8503 31.1467C14.6285 32.0724 15.9731 32.2033 17.5033 31.3204C19.9164 29.9282 21.8702 26.5442 21.8702 23.7598C21.8702 22.5152 21.4799 21.6014 20.8326 21.0945C21.2824 21.6276 21.5465 22.4248 21.5465 23.4457C21.5465 26.2277 19.5928 29.6141 17.182 31.0063C15.847 31.7773 14.6523 31.7749 13.8503 31.1467Z" fill="#BA68C8"/>
<path opacity="0.2" d="M13.8503 31.1467C14.6285 32.0724 15.9731 32.2033 17.5033 31.3204C19.9164 29.9282 21.8702 26.5442 21.8702 23.7598C21.8702 22.5152 21.4799 21.6014 20.8326 21.0945C21.2824 21.6276 21.5465 22.4248 21.5465 23.4457C21.5465 26.2277 19.5928 29.6141 17.182 31.0063C15.847 31.7773 14.6523 31.7749 13.8503 31.1467Z" fill="black"/>
<path d="M12.594 29.1144C12.594 32.2486 14.7929 33.517 17.5035 31.9511C20.214 30.3852 22.4153 26.5776 22.4153 23.4434C22.4153 20.3092 20.2164 19.0432 17.5035 20.6091C14.7905 22.175 12.594 25.9826 12.594 29.1144ZM13.139 28.8003C13.139 26.016 15.0928 22.6319 17.5035 21.2397C19.9142 19.8476 21.8704 20.9756 21.8704 23.7599C21.8704 26.5443 19.9166 29.9283 17.5035 31.3205C15.0904 32.7127 13.139 31.5846 13.139 28.8003Z" fill="#BA68C8"/>
<path d="M13.2865 27.4152C13.2865 27.3652 13.308 27.3176 13.3175 27.2677L17.1251 26.2491L17.2132 26.1206L14.4169 24.5071C14.4384 24.469 14.4622 24.431 14.486 24.3929L17.2751 26.0016L17.3417 25.8636L16.3327 22.0988L16.4445 21.9988L17.4369 25.7018L17.5725 25.5495L18.5482 20.7899L18.6934 20.7518L17.7296 25.4567L17.8819 25.4329L20.4997 20.8946C20.5377 20.916 20.5782 20.9351 20.6163 20.9589L17.9985 25.4995L18.0556 25.6447L21.6872 22.4248C21.7015 22.4724 21.7133 22.52 21.7276 22.5676L18.0461 25.8327L17.9795 26.0254L21.7491 25.0164L21.7205 25.1616L17.889 26.1896L17.801 26.3158L20.6567 27.9626C20.6353 28.0006 20.6139 28.0411 20.5901 28.0792L17.7344 26.4324L17.6677 26.5704L18.7053 30.4399L18.5935 30.5422L17.5725 26.7346L17.4369 26.8893L16.4326 31.7964L16.2875 31.8321L17.2798 26.9916L17.1251 27.0154L14.4479 31.6417L14.3337 31.5727L17.0109 26.9369L16.9538 26.7941L13.2937 30.0473C13.2794 29.9997 13.2675 29.9497 13.2556 29.8997L16.9633 26.6132L17.0299 26.4205L13.2865 27.4152Z" fill="#EBEBEB"/>
<path d="M15.614 27.082C15.614 27.5937 15.7925 27.9578 16.0781 28.1315L16.3161 28.2648C16.4754 28.3636 16.6625 28.4078 16.8491 28.3909C16.8883 28.3875 16.9272 28.382 16.9657 28.3743H17.0014L17.0942 28.3481C17.1171 28.3443 17.1394 28.3379 17.1609 28.329L17.2275 28.3029L17.3251 28.2648C17.382 28.2383 17.4376 28.2089 17.4917 28.1767C17.9682 27.8663 18.3648 27.4478 18.6492 26.9554C18.9337 26.4629 19.0981 25.9103 19.129 25.3424C19.129 25.2782 19.129 25.2187 19.129 25.1592V25.0997C19.129 25.064 19.129 25.0283 19.1123 24.9926C19.0956 24.9569 19.1123 24.945 19.0956 24.9212C19.079 24.8974 19.0837 24.8665 19.0766 24.8427L19.048 24.7665C19.0412 24.7455 19.0332 24.7249 19.0242 24.7046C19.0138 24.6794 19.0018 24.6548 18.9885 24.6309L18.9624 24.5856C18.9474 24.5592 18.9307 24.5338 18.9124 24.5095L18.891 24.4809L18.8267 24.4095L18.8101 24.3929L18.7292 24.3263L18.6649 24.2858C18.5864 24.2382 18.5102 24.2049 18.4483 24.1644C18.1509 23.9788 17.7344 23.9955 17.2584 24.2644C16.7828 24.5724 16.3862 24.9879 16.1005 25.4773C15.8149 25.9667 15.6483 26.5164 15.614 27.082ZM17.6701 27.4224C17.5321 27.1606 17.5083 26.6418 17.6701 26.4466C17.832 26.2515 17.8344 26.5371 18.2603 26.3158C18.3588 26.2633 18.4541 26.2053 18.5459 26.142C18.3507 26.6075 18.0698 27.0321 17.7177 27.3938L17.6701 27.4224ZM16.6825 25.4067C16.6873 25.391 16.6937 25.3758 16.7016 25.3615C16.9829 24.9983 17.3512 24.7118 17.7725 24.5285C17.7493 24.9703 17.5971 25.3956 17.3346 25.7517C17.3062 25.6994 17.2632 25.6564 17.2109 25.628L16.9586 25.4852C16.9372 25.4716 16.9139 25.4612 16.8896 25.4543C16.8226 25.4307 16.7531 25.4148 16.6825 25.4067ZM18.3722 24.4548C18.5641 24.6882 18.6647 24.9833 18.6554 25.2853C18.6197 25.5971 18.0961 25.9088 17.7749 25.9612C17.7868 25.7993 17.9938 25.7232 18.1318 25.2306C18.2437 24.8308 18.2342 24.5214 18.3722 24.4619V24.4548ZM16.4208 27.9173C16.414 27.9122 16.4083 27.9057 16.4041 27.8983C16.2732 27.6913 16.7777 26.9964 17.118 26.7322C17.0752 26.888 17.0752 27.0524 17.118 27.2082C17.2061 27.5318 17.3965 27.6841 17.2251 27.8388C16.9779 27.9703 16.6887 27.9985 16.4208 27.9173ZM16.0876 27.2439C16.0962 26.8222 16.191 26.4067 16.366 26.023C16.4176 25.9376 16.4978 25.8733 16.5924 25.8414C16.6869 25.8096 16.7897 25.8124 16.8824 25.8493C16.9327 25.8886 16.9703 25.9418 16.9906 26.0023C17.0109 26.0628 17.013 26.1279 16.9967 26.1896C16.911 26.4443 16.7706 26.2801 16.4136 26.756C16.2708 26.9369 16.1661 27.1154 16.0805 27.2439H16.0876Z" fill="#E0E0E0"/>
<path opacity="0.2" d="M15.614 27.082C15.614 27.5937 15.7925 27.9578 16.0781 28.1315L16.3161 28.2648C16.4754 28.3636 16.6625 28.4078 16.8491 28.3909C16.8883 28.3875 16.9272 28.382 16.9657 28.3743H17.0014L17.0942 28.3481C17.1171 28.3443 17.1394 28.3379 17.1609 28.329L17.2275 28.3029L17.3251 28.2648C17.382 28.2383 17.4376 28.2089 17.4917 28.1767C17.9682 27.8663 18.3648 27.4478 18.6492 26.9554C18.9337 26.4629 19.0981 25.9103 19.129 25.3424C19.129 25.2782 19.129 25.2187 19.129 25.1592V25.0997C19.129 25.064 19.129 25.0283 19.1123 24.9926C19.0956 24.9569 19.1123 24.945 19.0956 24.9212C19.079 24.8974 19.0837 24.8665 19.0766 24.8427L19.048 24.7665C19.0412 24.7455 19.0332 24.7249 19.0242 24.7046C19.0138 24.6794 19.0018 24.6548 18.9885 24.6309L18.9624 24.5856C18.9474 24.5592 18.9307 24.5338 18.9124 24.5095L18.891 24.4809L18.8267 24.4095L18.8101 24.3929L18.7292 24.3263L18.6649 24.2858C18.5864 24.2382 18.5102 24.2049 18.4483 24.1644C18.1509 23.9788 17.7344 23.9955 17.2584 24.2644C16.7828 24.5724 16.3862 24.9879 16.1005 25.4773C15.8149 25.9667 15.6483 26.5164 15.614 27.082ZM17.6701 27.4224C17.5321 27.1606 17.5083 26.6418 17.6701 26.4466C17.832 26.2515 17.8344 26.5371 18.2603 26.3158C18.3588 26.2633 18.4541 26.2053 18.5459 26.142C18.3507 26.6075 18.0698 27.0321 17.7177 27.3938L17.6701 27.4224ZM16.6825 25.4067C16.6873 25.391 16.6937 25.3758 16.7016 25.3615C16.9829 24.9983 17.3512 24.7118 17.7725 24.5285C17.7493 24.9703 17.5971 25.3956 17.3346 25.7517C17.3062 25.6994 17.2632 25.6564 17.2109 25.628L16.9586 25.4852C16.9372 25.4716 16.9139 25.4612 16.8896 25.4543C16.8226 25.4307 16.7531 25.4148 16.6825 25.4067ZM18.3722 24.4548C18.5641 24.6882 18.6647 24.9833 18.6554 25.2853C18.6197 25.5971 18.0961 25.9088 17.7749 25.9612C17.7868 25.7993 17.9938 25.7232 18.1318 25.2306C18.2437 24.8308 18.2342 24.5214 18.3722 24.4619V24.4548ZM16.4208 27.9173C16.414 27.9122 16.4083 27.9057 16.4041 27.8983C16.2732 27.6913 16.7777 26.9964 17.118 26.7322C17.0752 26.888 17.0752 27.0524 17.118 27.2082C17.2061 27.5318 17.3965 27.6841 17.2251 27.8388C16.9779 27.9703 16.6887 27.9985 16.4208 27.9173ZM16.0876 27.2439C16.0962 26.8222 16.191 26.4067 16.366 26.023C16.4176 25.9376 16.4978 25.8733 16.5924 25.8414C16.6869 25.8096 16.7897 25.8124 16.8824 25.8493C16.9327 25.8886 16.9703 25.9418 16.9906 26.0023C17.0109 26.0628 17.013 26.1279 16.9967 26.1896C16.911 26.4443 16.7706 26.2801 16.4136 26.756C16.2708 26.9369 16.1661 27.1154 16.0805 27.2439H16.0876Z" fill="black"/>
<path d="M15.8684 27.2247C15.8684 28.2695 16.599 28.6907 17.5033 28.1767C17.9798 27.8662 18.3764 27.4477 18.6609 26.9553C18.9454 26.4628 19.1097 25.9102 19.1406 25.3423C19.1406 24.2976 18.4076 23.874 17.5033 24.3904C17.0274 24.7013 16.6314 25.1199 16.3473 25.6123C16.0633 26.1047 15.8992 26.6571 15.8684 27.2247ZM17.5081 25.9539C17.3129 26.0325 17.47 25.716 17.1392 25.5946C16.8774 25.5018 16.5942 25.5946 16.7013 25.3566C16.8084 25.1186 17.5866 24.4999 17.9103 24.4951C18.2339 24.4904 17.7937 25.8349 17.5081 25.9539ZM18.905 25.4351C18.855 25.8754 17.8246 26.3228 17.7746 26.023C17.7413 25.8183 17.9793 25.785 18.1316 25.2376C18.2506 24.8045 18.2315 24.4785 18.3981 24.4499C18.5647 24.4214 18.955 24.9949 18.905 25.4351ZM17.6723 26.4466C17.846 26.2395 17.8365 26.537 18.2625 26.3157C18.5956 26.1443 18.8693 25.8587 18.8646 26.0658C18.8598 26.2728 18.3243 27.2557 17.9698 27.5341C17.6152 27.8125 17.4176 26.7488 17.6723 26.4466ZM17.3415 26.6369C17.4819 26.7131 17.2392 26.9344 17.3415 27.3509C17.4295 27.6745 17.6199 27.8268 17.451 27.9815C17.282 28.1362 16.5585 28.1743 16.3896 27.9054C16.2206 27.6364 17.1345 26.5251 17.3415 26.6369ZM16.1183 27.5389C16.0183 27.4294 16.1183 26.4656 16.3563 26.023C16.5942 25.5803 17.3653 25.9611 17.2368 26.3323C17.1511 26.5846 17.0107 26.4228 16.6537 26.8963C16.3753 27.27 16.2206 27.6483 16.1183 27.5389Z" fill="#E0E0E0"/>
<path d="M17.5034 26.8583C17.2274 27.0178 17.0037 26.8893 17.0037 26.568C17.0131 26.3945 17.0633 26.2257 17.1501 26.0752C17.2369 25.9247 17.358 25.7968 17.5034 25.7017C17.7818 25.5423 18.0055 25.6708 18.0055 25.9897C17.9966 26.1639 17.9464 26.3335 17.8591 26.4845C17.7718 26.6355 17.6499 26.7636 17.5034 26.8583Z" fill="#455A64"/>
<path d="M3.41765 37.7244L5.34766 33.6526L5.96402 32.3532C6.37155 31.4965 7.01456 30.7734 7.81787 30.2686V30.8445C7.20525 31.2863 6.71411 31.8757 6.39 32.5579L6.0949 33.179L7.58465 32.3342V32.8839L5.74032 33.9287L3.83649 37.9291C3.81721 37.9696 3.78687 38.0038 3.74897 38.0278C3.71108 38.0518 3.66717 38.0646 3.62232 38.0647C3.58709 38.0647 3.55225 38.0574 3.51999 38.0433C3.46435 38.0144 3.42239 37.9646 3.40323 37.9049C3.38407 37.8452 3.38925 37.7803 3.41765 37.7244Z" fill="#FAFAFA"/>
<path d="M8.83154 32.0059C9.5074 33.2839 9.28846 34.9093 9.26466 35.4638C9.24087 36.0183 9.51692 35.9088 9.67399 35.4638C9.83105 35.0187 10.2475 33.1935 9.54072 31.6038L8.83154 32.0059Z" fill="#EBEBEB"/>
<path d="M7.53931 35.9729C7.57058 35.4149 7.73245 34.872 8.01187 34.388C8.29129 33.904 8.68046 33.4923 9.14804 33.1862C9.624 32.9173 10.0333 32.9077 10.326 33.1029L11.0114 33.4908L8.7054 37.4103L8.02954 37.0248C7.72969 36.8582 7.53931 36.4964 7.53931 35.9729Z" fill="#455A64"/>
<path d="M9.87631 33.6027C9.40794 33.908 9.01817 34.3195 8.73865 34.8037C8.45913 35.2879 8.29773 35.8312 8.26758 36.3894C8.26758 37.4151 8.98151 37.8316 9.87631 37.3176C10.3445 37.0126 10.7342 36.6016 11.0137 36.1178C11.2932 35.634 11.4547 35.0911 11.485 34.5332C11.485 33.5052 10.764 33.0911 9.87631 33.6027Z" fill="#263238"/>
<path d="M9.8762 34.8068C9.71113 34.914 9.57375 35.0587 9.47531 35.2291C9.37686 35.3995 9.32016 35.5908 9.30981 35.7873C9.30981 36.149 9.56207 36.2966 9.8762 36.1157C10.0411 36.0078 10.1782 35.8626 10.2766 35.6918C10.375 35.5211 10.4319 35.3296 10.4426 35.1329C10.4426 34.7735 10.188 34.626 9.8762 34.8068Z" fill="black"/>
<path d="M9.30981 31.9511C9.98329 33.2266 9.76435 34.852 9.74055 35.4065C9.71676 35.961 9.99519 35.8539 10.1499 35.4065C10.3046 34.9591 10.7234 33.1386 10.019 31.5465L9.30981 31.9511Z" fill="#FAFAFA"/>
<path d="M7.60106 32.5864L14.3358 28.5884V29.3023L8.5958 32.6983L7.85331 33.1409L7.72243 33.2171C7.67047 33.2478 7.61099 33.2635 7.55064 33.2624C7.49029 33.2613 7.43142 33.2435 7.3806 33.2109C7.32977 33.1783 7.28899 33.1323 7.26278 33.0779C7.23658 33.0236 7.22599 32.963 7.23219 32.9029L7.29169 32.2556L7.60106 32.5864Z" fill="#37474F"/>
<path d="M12.1846 44.4259L15.4139 42.5625L5.0833 36.5964L1.85156 38.4622L12.1846 44.4259Z" fill="#BA68C8"/>
<path d="M15.4139 42.5626V43.3075L12.1846 45.1709V44.426L15.4139 42.5626Z" fill="#BA68C8"/>
<path opacity="0.3" d="M15.4139 42.5626V43.3075L12.1846 45.1709V44.426L15.4139 42.5626Z" fill="black"/>
<path d="M1.85156 38.4622V39.207L12.1846 45.1708V44.4259L1.85156 38.4622Z" fill="#BA68C8"/>
<path opacity="0.15" d="M1.85156 38.4622V39.207L12.1846 45.1708V44.4259L1.85156 38.4622Z" fill="black"/>
<path d="M19.6905 35.6184C19.6749 35.5911 19.6542 35.5672 19.6293 35.548C19.6045 35.5288 19.5761 35.5147 19.5458 35.5065C19.5155 35.4983 19.4839 35.4962 19.4527 35.5003C19.4216 35.5044 19.3916 35.5146 19.3645 35.5303L19.1598 35.647C18.2815 36.1545 17.5785 36.9173 17.1441 37.834L16.5301 39.1333L14.6001 43.2051C14.5732 43.262 14.5698 43.3272 14.5907 43.3865C14.6117 43.4458 14.6553 43.4944 14.712 43.5216C14.7439 43.5371 14.7789 43.5452 14.8143 43.5454C14.8596 43.5458 14.904 43.5332 14.9423 43.5092C14.9807 43.4851 15.0114 43.4507 15.0309 43.4098L16.9347 39.4094L19.3145 38.0577C19.3418 38.042 19.3658 38.0212 19.3851 37.9963C19.4044 37.9714 19.4186 37.9429 19.4269 37.9125C19.4352 37.8822 19.4374 37.8504 19.4334 37.8192C19.4294 37.788 19.4193 37.7578 19.4037 37.7305C19.3881 37.7031 19.3672 37.6791 19.3423 37.6598C19.3174 37.6405 19.289 37.6263 19.2586 37.6181C19.2282 37.6098 19.1965 37.6076 19.1652 37.6115C19.134 37.6155 19.1038 37.6256 19.0765 37.6412L17.2845 38.6598L17.5772 38.0386C17.9697 37.2087 18.6066 36.5186 19.4025 36.061L19.6048 35.9444C19.6319 35.9287 19.6556 35.9078 19.6745 35.8828C19.6935 35.8579 19.7074 35.8295 19.7153 35.7992C19.7233 35.7689 19.7252 35.7373 19.7209 35.7063C19.7167 35.6753 19.7063 35.6454 19.6905 35.6184Z" fill="#F5F5F5"/>
<path d="M19.8096 38.3098C20.483 39.5854 20.2641 41.2108 20.2403 41.7653C20.2165 42.3198 20.4949 42.2127 20.652 41.7653C20.8091 41.3179 21.2232 39.4973 20.5187 37.9053L19.8096 38.3098Z" fill="#E0E0E0"/>
<path d="M18.5173 42.277C18.5467 41.7185 18.7078 41.1749 18.9874 40.6906C19.267 40.2063 19.6572 39.795 20.1261 39.4902C20.602 39.2213 21.009 39.2094 21.3041 39.4069L21.9894 39.8044L19.681 43.7263L19.0052 43.3383C18.7053 43.1622 18.5173 42.7981 18.5173 42.277Z" fill="#455A64"/>
<path d="M20.8519 39.9067C20.3834 40.2118 19.9935 40.6233 19.714 41.1075C19.4344 41.5917 19.2731 42.1351 19.2432 42.6934C19.2432 43.7191 19.9571 44.1332 20.8519 43.6215C21.3203 43.3162 21.71 42.9048 21.9896 42.4206C22.2691 41.9364 22.4305 41.3931 22.4606 40.8348C22.4606 39.8044 21.7419 39.3927 20.8519 39.9067Z" fill="#37474F"/>
<path d="M20.8518 41.1085C20.6869 41.2164 20.5498 41.3616 20.4514 41.5323C20.353 41.7031 20.2961 41.8945 20.2854 42.0913C20.2854 42.4507 20.54 42.5982 20.8518 42.4173C21.0169 42.3102 21.1542 42.1655 21.2527 41.9951C21.3511 41.8247 21.4078 41.6334 21.4182 41.4369C21.4182 41.0751 21.1659 40.93 20.8518 41.1085Z" fill="#263238"/>
<path d="M20.2854 38.2551C20.9613 39.533 20.7423 41.1584 20.7185 41.7129C20.6947 42.2674 20.9708 42.1579 21.1278 41.7129C21.2849 41.2679 21.7014 39.4426 20.9946 37.8529L20.2854 38.2551Z" fill="#F5F5F5"/>
<path d="M30.6089 15.0547L29.9854 13.9791L32.615 12.4631C32.6648 12.4384 32.7204 12.4278 32.7757 12.4324C32.8311 12.4371 32.8841 12.4567 32.9291 12.4893C33.0572 12.5728 33.1637 12.6852 33.2402 12.8175C33.3167 12.9498 33.3609 13.0983 33.3694 13.2509C33.3746 13.304 33.3659 13.3576 33.3442 13.4064C33.3225 13.4552 33.2886 13.4975 33.2457 13.5293L30.6089 15.0547Z" fill="#455A64"/>
<path d="M30.7349 14.7714C30.7349 15.0499 30.5397 15.1641 30.297 15.0237C30.1695 14.9405 30.0634 14.8284 29.9873 14.6965C29.9112 14.5646 29.8673 14.4166 29.8591 14.2645C29.8591 13.9837 30.0543 13.8695 30.297 14.0099C30.4247 14.0935 30.5309 14.206 30.607 14.3383C30.6831 14.4706 30.7269 14.619 30.7349 14.7714Z" fill="#37474F"/>
<path d="M30.2734 14.2575C30.2549 14.2448 30.2337 14.2363 30.2115 14.2326C30.1893 14.2289 30.1666 14.2301 30.1449 14.2361L30.1092 14.2575L28.2744 15.3141L28.8598 15.652L30.3853 14.7715L30.4519 14.7334C30.4756 14.702 30.4874 14.6632 30.4852 14.624C30.4806 14.5507 30.4591 14.4795 30.4223 14.4159C30.3856 14.3523 30.3346 14.2981 30.2734 14.2575Z" fill="#E0E0E0"/>
<path d="M22.8889 10.595L22.2678 9.51936L24.8856 8.00344C24.9356 7.97933 24.9913 7.96925 25.0466 7.97428C25.1019 7.97931 25.1548 7.99926 25.1997 8.03199C25.3279 8.11466 25.4347 8.22658 25.5113 8.35855C25.5878 8.49053 25.6319 8.63879 25.64 8.79114C25.6451 8.84429 25.6364 8.89786 25.6148 8.94665C25.5931 8.99544 25.5591 9.03779 25.5162 9.06958L22.8889 10.595Z" fill="#455A64"/>
<path d="M23.0173 10.3117C23.0173 10.5901 22.8198 10.7044 22.577 10.564C22.4495 10.4807 22.3434 10.3686 22.2673 10.2367C22.1912 10.1048 22.1473 9.95686 22.1392 9.80481C22.1392 9.52399 22.3343 9.40976 22.577 9.55017C22.7051 9.63363 22.8116 9.74606 22.8881 9.87836C22.9646 10.0107 23.0088 10.1591 23.0173 10.3117Z" fill="#37474F"/>
<path d="M22.5557 9.79773C22.5366 9.78512 22.5151 9.77669 22.4925 9.773C22.4699 9.76931 22.4469 9.77044 22.4248 9.77632L22.3891 9.79773L20.5566 10.8544L21.1397 11.1923L22.6651 10.3118L22.7318 10.2737C22.7554 10.2423 22.7672 10.2035 22.7651 10.1642C22.7607 10.0911 22.7395 10.0201 22.7032 9.95649C22.6669 9.89293 22.6164 9.8386 22.5557 9.79773Z" fill="#E0E0E0"/>
<path d="M20.9279 14.0624L22.1821 14.7763L10.5354 20.2903C10.1893 20.5093 9.89316 20.7988 9.6664 21.14C9.43965 21.4812 9.28734 21.8663 9.2194 22.2702L7.61544 32.5937C7.61042 32.6219 7.59873 32.6484 7.58132 32.6711C7.56392 32.6938 7.54132 32.7119 7.51543 32.7241C7.48954 32.7362 7.46112 32.7419 7.43255 32.7408C7.40398 32.7396 7.37612 32.7316 7.35128 32.7175C7.29179 32.6842 7.25609 32.6175 7.2775 32.3676L8.18896 21.4016C8.29264 20.6666 8.67845 20.0008 9.26462 19.5454L20.9279 14.0624Z" fill="#455A64"/>
<path d="M20.0475 33.0339L29.7213 27.4461C29.8992 27.33 30.0472 27.1736 30.1535 26.9896C30.2597 26.8056 30.3212 26.5993 30.3329 26.3871V25.816C30.3214 25.6038 30.26 25.3974 30.1537 25.2134C30.0474 25.0294 29.8993 24.873 29.7213 24.757L20.0475 19.1716C19.8584 19.0755 19.6492 19.0254 19.4371 19.0254C19.2249 19.0254 19.0158 19.0755 18.8267 19.1716L9.15286 24.757C8.97485 24.873 8.82671 25.0294 8.72045 25.2134C8.61418 25.3974 8.5528 25.6038 8.54126 25.816V26.3943C8.5528 26.6064 8.61418 26.8129 8.72045 26.9969C8.82671 27.1809 8.97485 27.3373 9.15286 27.4533L18.8267 33.0339C19.0158 33.13 19.2249 33.1801 19.4371 33.1801C19.6492 33.1801 19.8584 33.13 20.0475 33.0339Z" fill="#BA68C8"/>
<path opacity="0.3" d="M19.8689 33.1124C19.9313 33.0935 19.9913 33.0671 20.0474 33.0339L29.7212 27.4438C29.8991 27.3282 30.0473 27.1723 30.1536 26.9887C30.2599 26.8051 30.3213 26.599 30.3328 26.3871V25.816C30.3219 25.6275 30.272 25.4432 30.1864 25.2749C30.1008 25.1066 29.9813 24.9578 29.8354 24.8379C30.0544 25.033 30.0139 25.2924 29.7212 25.4638L20.095 31.0206L19.8689 33.1124Z" fill="black"/>
<path opacity="0.15" d="M8.54126 25.816V26.3943C8.55241 26.6062 8.61365 26.8125 8.71997 26.9961C8.82628 27.1798 8.97464 27.3357 9.15286 27.4509L18.8267 33.0362C18.9869 33.1168 19.1615 33.1649 19.3404 33.1775C19.5194 33.1902 19.699 33.1672 19.869 33.11L20.0951 31.0206L20.0475 31.0467C19.8587 31.144 19.6494 31.1948 19.4371 31.1948C19.2247 31.1948 19.0154 31.144 18.8267 31.0467L9.15286 25.4638C8.85777 25.2924 8.81969 25.0307 9.03863 24.8379C8.89283 24.9579 8.77339 25.1067 8.6878 25.275C8.60221 25.4433 8.55233 25.6275 8.54126 25.816Z" fill="black"/>
<path d="M16.6063 21.1588L26.2825 26.7441C26.5015 26.86 26.7498 26.9089 26.9964 26.8845C27.0329 26.887 27.0694 26.887 27.1059 26.8845H27.1297H27.1939L27.2915 26.8607C27.3634 26.8386 27.4328 26.8091 27.4985 26.7727L27.9959 26.4847C28.3669 26.2435 28.6303 25.8684 28.7313 25.4376L30.2091 17.1964C30.2167 17.146 30.2207 17.0951 30.221 17.0441C30.221 17.0251 30.221 17.0037 30.221 16.9846C30.2133 16.882 30.1909 16.781 30.1544 16.6848C30.0888 16.5052 29.9772 16.346 29.8307 16.2231L29.7903 16.1898C29.7689 16.1749 29.7467 16.1614 29.7236 16.1493L20.0498 10.564C19.8607 10.4678 19.6516 10.4177 19.4394 10.4177C19.2273 10.4177 19.0181 10.4678 18.829 10.564L18.3293 10.8496C18.2215 10.9154 18.123 10.9955 18.0365 11.0875C18.0194 11.1047 18.0035 11.1229 17.9889 11.1423C17.922 11.2163 17.8615 11.2959 17.8081 11.3802C17.7962 11.3969 17.7867 11.4159 17.7748 11.435C17.7651 11.4511 17.7564 11.4678 17.7486 11.485C17.7343 11.5088 17.7224 11.5326 17.7105 11.5563C17.6986 11.5801 17.6867 11.6039 17.6772 11.6277C17.6682 11.648 17.6603 11.6686 17.6534 11.6896L17.6415 11.7182C17.6415 11.7372 17.6296 11.7539 17.6248 11.7729C17.6201 11.7919 17.6106 11.8205 17.6058 11.8419C17.601 11.8592 17.597 11.8766 17.5939 11.8943L16.1232 20.1069C16.0951 20.31 16.1256 20.517 16.2112 20.7033C16.2968 20.8897 16.4339 21.0477 16.6063 21.1588Z" fill="#BA68C8"/>
<path d="M28.4885 18.1889L27.0178 26.4015C27.0087 26.4828 26.9788 26.5603 26.9311 26.6266C26.8834 26.693 26.8194 26.7459 26.7453 26.7803C26.6711 26.8148 26.5894 26.8295 26.5079 26.8232C26.4264 26.8169 26.3479 26.7897 26.28 26.7442L16.6062 21.1589C16.4359 21.0473 16.3008 20.8897 16.2165 20.7043C16.1323 20.5189 16.1024 20.3135 16.1303 20.1118L17.601 11.8992C17.6112 11.8202 17.6412 11.745 17.6881 11.6806C17.7349 11.6162 17.7972 11.5645 17.8692 11.5304C17.9412 11.4963 18.0206 11.4808 18.1001 11.4854C18.1797 11.4899 18.2568 11.5144 18.3244 11.5565L27.9982 17.1418C28.1712 17.2516 28.3091 17.4084 28.396 17.5939C28.4828 17.7794 28.5149 17.9858 28.4885 18.1889Z" fill="#BA68C8"/>
<path opacity="0.15" d="M28.4885 18.1889L27.0178 26.4015C27.0087 26.4828 26.9788 26.5603 26.9311 26.6266C26.8834 26.693 26.8194 26.7459 26.7453 26.7803C26.6711 26.8148 26.5894 26.8295 26.5079 26.8232C26.4264 26.8169 26.3479 26.7897 26.28 26.7442L16.6062 21.1589C16.4359 21.0473 16.3008 20.8897 16.2165 20.7043C16.1323 20.5189 16.1024 20.3135 16.1303 20.1118L17.601 11.8992C17.6112 11.8202 17.6412 11.745 17.6881 11.6806C17.7349 11.6162 17.7972 11.5645 17.8692 11.5304C17.9412 11.4963 18.0206 11.4808 18.1001 11.4854C18.1797 11.4899 18.2568 11.5144 18.3244 11.5565L27.9982 17.1418C28.1712 17.2516 28.3091 17.4084 28.396 17.5939C28.4828 17.7794 28.5149 17.9858 28.4885 18.1889Z" fill="black"/>
<path opacity="0.3" d="M26.5298 26.8418C26.6848 26.8835 26.8458 26.898 27.0057 26.8847C27.0422 26.8871 27.0788 26.8871 27.1152 26.8847L27.2009 26.8704L27.2984 26.8466C27.3703 26.8245 27.4397 26.795 27.5055 26.7585L28.0029 26.4706C28.3738 26.2294 28.6373 25.8543 28.7382 25.4235L30.2089 17.1966C30.2165 17.1462 30.2205 17.0953 30.2208 17.0443C30.2208 17.0252 30.2208 17.0038 30.2208 16.9848C30.2131 16.8822 30.1907 16.7812 30.1542 16.6849L28.4265 17.6725C28.4948 17.8389 28.5162 18.0208 28.4883 18.1985L27.0153 26.4087C27.0079 26.528 26.9538 26.6397 26.8647 26.7194C26.7756 26.7991 26.6587 26.8406 26.5393 26.8347C26.5366 26.8377 26.5334 26.8401 26.5298 26.8418Z" fill="black"/>
<path d="M3.76753 38.4954C4.58855 37.7243 5.312 36.2893 5.8427 35.4159C6.21807 34.6734 6.5363 33.9033 6.79461 33.1123L9.84073 33.5883C9.43855 34.4236 9.09347 35.2279 8.93641 35.6158L8.88168 36.0537C8.85611 36.2808 8.74967 36.4912 8.58182 36.6463C8.40572 36.82 8.22486 36.9818 8.0321 37.1389C7.52282 37.5577 6.53521 38.5239 5.85697 39.2188C4.8765 40.2207 3.77467 40.3492 2.79658 40.2255C1.81849 40.1017 2.23258 39.7781 2.36108 39.6591C2.48959 39.5401 3.58904 38.662 3.76753 38.4954Z" fill="#FFA8A7"/>
<path d="M8.61986 38.1813C8.61986 38.6834 8.14391 39.9352 8.14391 39.9352C8.05077 40.0597 7.92854 40.1595 7.7879 40.2259C7.64726 40.2923 7.4925 40.3232 7.33716 40.3159L7.64177 38.3122L8.61986 38.1813Z" fill="#263238"/>
<path d="M7.33966 40.3183L5.11694 39.2569L5.38586 37.9171L7.64427 38.3145L7.33966 40.3183Z" fill="black"/>
<path d="M9.06241 35.9776C9.09097 35.9086 9.12429 35.8277 9.1457 35.7563C9.16556 35.6972 9.16148 35.6328 9.13434 35.5767C9.1072 35.5207 9.05916 35.4775 9.00054 35.4564C8.9785 35.5096 8.95306 35.5612 8.92439 35.6111C8.87203 35.6397 8.78398 35.7015 8.40797 35.6801C8.24158 35.6743 8.07672 35.6463 7.91774 35.5968C7.75353 35.5421 7.28472 35.3279 7.12052 35.2708C7.07555 35.2534 7.0282 35.243 6.9801 35.2399C6.88456 35.2561 6.79915 35.309 6.74213 35.3874C6.62314 35.5207 6.53985 35.6254 6.40658 35.7825C6.34947 35.8491 6.27093 35.9467 6.21381 36.0204C6.16581 36.083 6.10598 36.1356 6.03771 36.1751C6.03375 36.1678 6.03168 36.1596 6.03168 36.1513C6.03168 36.143 6.03375 36.1348 6.03771 36.1275C6.10741 35.723 6.10176 35.3091 6.02105 34.9067C6.01894 34.881 6.0099 34.8563 5.99488 34.8353C5.98883 34.8272 5.98119 34.8204 5.97242 34.8154C5.96366 34.8104 5.95396 34.8072 5.94392 34.8061C5.93388 34.805 5.92371 34.806 5.91405 34.8089C5.9044 34.8119 5.89546 34.8168 5.88778 34.8234C5.63994 35.4133 5.34218 35.981 4.99775 36.5202C4.61312 37.1323 4.11177 37.6628 3.52228 38.0813C2.17771 39.0047 1.64464 39.2974 1.22104 39.6758C0.576119 40.2493 1.17106 40.849 2.89878 41.2369C4.07677 41.5034 5.41421 41.1941 5.89731 40.7609C6.3804 40.3278 6.68739 39.4402 7.07054 39.1237C7.45368 38.8072 8.358 38.5906 8.61739 38.186C8.61818 38.1789 8.61818 38.1717 8.61739 38.1646C8.72258 37.9877 8.80267 37.7971 8.85537 37.5982C8.90584 37.3579 8.93294 37.1132 8.93628 36.8676V36.782C8.94818 36.6534 8.9577 36.5249 8.96722 36.3941C8.97467 36.2708 8.99541 36.1487 9.0291 36.0299C9.03875 36.0116 9.04989 35.9941 9.06241 35.9776Z" fill="#37474F"/>
<path d="M22.6393 20.0902C22.6687 20.4437 22.6615 20.7994 22.6179 21.1515C22.5084 22.0915 22.1681 23.8216 20.0001 25.1805C17.8321 26.5394 12.8013 28.0815 12.5228 28.5122C12.2444 28.9429 12.1206 30.2352 10.9617 32.2246C9.80274 34.2141 9.36248 34.7448 9.36248 34.7448C8.09644 34.8448 6.9827 34.4664 6.37109 33.7739C6.37109 33.7739 6.76614 32.2818 7.24448 30.2375C8.11072 26.5465 8.56287 25.1424 9.38628 24.3738C10.2097 23.6051 18.1391 19.3572 18.1391 19.3572C18.1391 19.3572 19.0839 19.9973 22.6393 20.0902Z" fill="#37474F"/>
<path d="M17.9654 20.3949C17.1277 22.3273 17.6822 23.5957 17.6822 23.5957C15.4714 25.2211 13.2653 26.8441 12.9226 28.2434L12.9702 28.2268C14.2981 27.6033 18.101 26.3443 19.9453 25.2092L17.9654 20.3949Z" fill="#263238"/>
<path d="M14.2647 22.8221C13.5721 23.3457 12.2609 24.1739 11.7992 24.5142C11.4272 24.7624 11.0846 25.0522 10.7783 25.378C10.5267 25.6639 10.3175 25.9845 10.1572 26.3299C10.0144 26.6845 9.86683 27.0581 9.7288 27.4223L9.30044 28.5241C9.01645 29.2587 8.71977 29.9892 8.4104 30.7159C8.60792 29.952 8.83162 29.1928 9.0815 28.4456C9.33138 27.6983 9.59077 26.9558 9.89776 26.2157C10.0707 25.8452 10.3003 25.504 10.5784 25.2043C10.9373 24.8425 11.3365 24.5231 11.7683 24.2524C12.5656 23.7173 13.3998 23.2394 14.2647 22.8221Z" fill="#263238"/>
<path d="M6.56609 33.1719C6.93734 33.9667 8.96967 34.426 9.76214 34.2285L9.25525 35.1804C9.25525 35.1804 8.77929 35.3875 7.5894 35.0471C6.39951 34.7068 6.29004 34.1476 6.29004 34.1476L6.56609 33.1719Z" fill="#263238"/>
<path d="M8.00825 41.1298C8.82928 40.3587 9.55273 38.9237 10.0834 38.0503C10.4588 37.3078 10.777 36.5377 11.0353 35.7467L14.0815 36.2227C13.6793 37.058 13.3342 37.8623 13.1771 38.2502L13.1224 38.6881C13.0968 38.9152 12.9904 39.1256 12.8226 39.2807C12.6464 39.4544 12.4656 39.6162 12.2728 39.7733C11.7635 40.1921 10.7759 41.1583 10.0977 41.8532C9.11723 42.8551 8.0154 42.9836 7.03731 42.8599C6.05922 42.7361 6.47329 42.4125 6.6018 42.2935C6.73031 42.1745 7.82977 41.2964 8.00825 41.1298Z" fill="#FFA8A7"/>
<path d="M12.8511 40.8157C12.8511 41.3178 12.3751 42.5672 12.3751 42.5672C12.2822 42.6922 12.1601 42.7925 12.0195 42.8593C11.8788 42.926 11.7239 42.9573 11.5684 42.9503L11.873 40.9466L12.8511 40.8157Z" fill="#263238"/>
<path d="M11.5804 42.9528L9.35767 41.8914L9.6242 40.5492L11.885 40.949L11.5804 42.9528Z" fill="black"/>
<path d="M13.3033 38.6143C13.3318 38.5453 13.3651 38.4644 13.3866 38.393C13.4064 38.334 13.4023 38.2695 13.3752 38.2134C13.348 38.1574 13.3 38.1142 13.2414 38.0931C13.2128 38.1479 13.1843 38.224 13.1652 38.2478C13.1462 38.2716 13.0224 38.3383 12.6488 38.3168C12.4814 38.3112 12.3157 38.2823 12.1562 38.2312C11.9944 38.1764 11.5256 37.9623 11.3614 37.9075C11.3167 37.8891 11.2692 37.8786 11.221 37.8766C11.1734 37.8839 11.1278 37.9007 11.0869 37.9261C11.046 37.9514 11.0106 37.9848 10.983 38.0241C10.864 38.1574 10.7807 38.2621 10.6474 38.4192C10.5903 38.4858 10.5118 38.5834 10.4523 38.6572C10.4045 38.719 10.3456 38.7715 10.2786 38.8118C10.2746 38.8045 10.2725 38.7964 10.2725 38.788C10.2725 38.7797 10.2746 38.7716 10.2786 38.7642C10.3483 38.3598 10.3426 37.9459 10.2619 37.5434C10.2598 37.5177 10.2507 37.493 10.2357 37.472C10.2299 37.4638 10.2224 37.4568 10.2137 37.4515C10.205 37.4463 10.1953 37.4429 10.1853 37.4416C10.1752 37.4402 10.165 37.441 10.1553 37.4438C10.1455 37.4465 10.1365 37.4513 10.1286 37.4578C9.88363 38.0519 9.58742 38.6236 9.24335 39.1664C8.85804 39.778 8.35681 40.3084 7.7679 40.7276C6.42332 41.6509 5.89025 41.9436 5.46664 42.322C4.82172 42.8955 5.41667 43.4929 7.14439 43.8832C8.32238 44.1497 9.65982 43.8403 10.1429 43.4072C10.626 42.9741 10.933 42.0864 11.3161 41.7699C11.6993 41.4534 12.6131 41.2321 12.8511 40.8156V40.7942C12.9559 40.6171 13.0359 40.4266 13.0891 40.2278C13.1395 39.9875 13.1666 39.7428 13.17 39.4972V39.4116C13.1819 39.283 13.1914 39.1545 13.2009 39.0236C13.2084 38.9004 13.2291 38.7783 13.2628 38.6595C13.2751 38.6434 13.2886 38.6283 13.3033 38.6143Z" fill="#37474F"/>
<path d="M26.4325 19.6833C26.7109 21.0707 27.0227 22.0868 26.9513 23.6694C26.9084 24.6213 26.5015 26.3395 24.3335 27.6984C22.1655 29.0572 17.1323 30.5993 16.8539 31.0301C16.5754 31.4608 16.4517 32.753 15.2927 34.7425C14.1338 36.732 13.6959 37.2627 13.6959 37.2627C12.4275 37.3627 11.3161 36.9843 10.7021 36.2917C10.7021 36.2917 11.0996 34.7972 11.5779 32.7554C12.4418 29.0644 12.8963 27.9316 13.7197 27.1629C14.5431 26.3942 18.1413 23.7099 18.1413 23.7099C18.1413 23.7099 17.782 23.0768 17.6987 21.3634C17.6641 20.6616 17.8222 19.9638 18.1556 19.3453C18.1556 19.3453 22.5225 20.2068 26.4325 19.6833Z" fill="#37474F"/>
<path d="M23.4363 21.1802C23.408 21.6432 23.3142 22.0999 23.1579 22.5367C23.0039 22.9746 22.807 23.3963 22.5701 23.7956C22.3311 24.1933 22.0554 24.5677 21.7467 24.9141C21.4418 25.2611 21.0985 25.5725 20.7234 25.8422C21.0185 25.4876 21.3041 25.1282 21.573 24.7736C21.8419 24.4191 22.0941 24.0359 22.3226 23.648C22.5543 23.2635 22.7641 22.8663 22.9509 22.4581C23.1383 22.0423 23.3004 21.6155 23.4363 21.1802Z" fill="#263238"/>
<path d="M23.7483 21.2421C23.8303 21.6266 23.8615 22.0203 23.8411 22.4129C23.8254 22.8047 23.7784 23.1947 23.7007 23.579C23.624 23.9633 23.5181 24.3412 23.3842 24.7094C23.258 25.0811 23.0852 25.4353 22.8701 25.7636C22.982 25.39 23.0795 25.0188 23.17 24.6451C23.2604 24.2715 23.3461 23.8979 23.4198 23.5219C23.4936 23.1459 23.5602 22.7699 23.6174 22.3915C23.6745 22.0131 23.7173 21.6323 23.7483 21.2421Z" fill="#263238"/>
<path d="M17.8226 25.7184C17.2515 26.2634 16.0497 27.1867 15.4833 27.7293C15.2025 28.003 14.9288 28.279 14.6789 28.5765C14.4272 28.8618 14.2188 29.1826 14.0602 29.5284C13.915 29.883 13.7675 30.2542 13.6294 30.6207L13.2011 31.7226C12.9171 32.4555 12.6204 33.1861 12.311 33.9143C12.5094 33.1481 12.733 32.3905 12.9821 31.6417C13.2344 30.892 13.4914 30.1519 13.7984 29.4142C13.971 29.0435 14.2007 28.7023 14.479 28.4028C14.7475 28.1073 15.0344 27.8291 15.3381 27.5699C15.945 27.0511 17.1848 26.1824 17.8226 25.7184Z" fill="#263238"/>
<path d="M10.8071 35.8063C11.1783 36.6011 13.2106 37.0604 14.0031 36.8629L13.4962 37.8148C13.4962 37.8148 13.0203 38.0218 11.8304 37.6815C10.6405 37.3412 10.531 36.782 10.531 36.782L10.8071 35.8063Z" fill="#263238"/>
<path d="M26.5158 18.7932C25.8019 19.1454 24.612 19.538 22.7343 19.431C20.8567 19.3239 18.91 18.6837 18.3889 18.1173L18.1509 19.3381C18.1509 19.3381 19.2503 20.3829 22.463 20.5661C25.3664 20.7303 26.6419 19.7237 26.6419 19.7237L26.5158 18.7932Z" fill="#455A64"/>
<path d="M21.097 9.66908C20.6687 9.6548 20.1451 9.55485 19.9071 9.15743C19.5288 9.32164 18.4293 9.2669 18.6125 8.68148C18.2933 8.73235 17.9661 8.67465 17.6835 8.5176C17.4009 8.36055 17.1792 8.11323 17.0538 7.81524C17.2671 7.90791 17.5029 7.93604 17.732 7.89615C16.9134 7.79858 16.3874 6.78241 16.911 6.10417C17.3037 5.59014 18.2722 5.44735 18.3151 4.69534C15.9519 0.718731 24.6286 -1.25411 25.2783 2.81294C26.8371 3.51259 26.2516 5.10466 26.5372 6.44924C26.7228 7.32738 27.363 8.11509 26.7752 8.88376C26.8088 8.5318 26.7463 8.1773 26.5943 7.85807C26.7561 9.19075 24.8833 10.0165 23.8552 9.35495C23.5839 9.69764 22.6201 9.77618 22.2798 9.37399C21.9187 9.57558 21.5105 9.67743 21.097 9.66908Z" fill="#263238"/>
<path d="M16.5018 11.1947C15.8331 11.9991 14.7265 13.0985 13.6461 14.336L13.4081 14.1218C12.9179 13.6601 12.4324 13.1961 11.9564 12.7225C11.7184 12.4845 11.4614 12.2251 11.2235 11.9681C11.1354 11.8729 11.0473 11.7754 10.9641 11.673C10.7451 11.4089 10.7998 11.0305 10.7879 10.7211C10.7858 10.3237 10.7306 9.92832 10.6237 9.5455C10.5857 9.42176 10.5405 9.30752 10.5 9.17902C10.415 8.91739 10.3615 8.64657 10.3406 8.37227C10.3415 8.29918 10.326 8.22682 10.2953 8.16047C10.212 8.01054 10.0288 8.07956 9.93123 8.17237C9.83519 8.28239 9.77902 8.42156 9.77178 8.56741C9.73133 8.87203 9.78606 9.17664 9.77178 9.48363C9.77178 9.60024 9.72419 9.73826 9.61234 9.76206C9.58149 9.76735 9.54981 9.76514 9.51999 9.75562C9.49016 9.74609 9.46307 9.72953 9.441 9.70733C9.31288 9.56965 9.20182 9.41704 9.11021 9.25279L8.76038 8.72448C8.5581 8.41987 8.3582 8.10812 8.12974 7.82254C7.8275 7.44892 7.59191 7.4037 7.46816 7.54649C7.39676 7.62978 7.55383 7.90583 7.87748 8.4984C8.20113 9.09096 8.46291 9.47173 8.42245 9.49791C8.382 9.52408 8.17257 9.08382 7.73707 8.54599C7.33727 8.05576 7.13499 7.84634 6.87797 7.75829C6.62095 7.67024 6.54242 7.85586 6.63999 8.02483C6.73756 8.19379 6.91605 8.47698 7.46816 9.21472C7.64405 9.43656 7.80315 9.67122 7.94411 9.91675C7.9108 9.9691 7.58714 9.58596 7.11595 9.18378C6.85142 8.93485 6.56376 8.71173 6.25685 8.51744C6.22888 8.50096 6.19643 8.49369 6.1641 8.49667C6.13177 8.49966 6.1012 8.51274 6.07672 8.53406C6.05224 8.55538 6.03509 8.58387 6.0277 8.61548C6.0203 8.64709 6.02304 8.68023 6.03553 8.7102C6.17371 8.94261 6.33734 9.15892 6.52339 9.35512C6.78754 9.67163 6.90891 9.77396 7.12547 10C7.2754 10.1547 7.46578 10.3594 7.44436 10.3903C7.42294 10.4213 6.54242 9.82156 6.25447 9.71923C5.93082 9.60262 5.87132 9.86439 6.06646 10.0691C6.18069 10.1857 6.6281 10.545 7.03028 10.952C7.32299 11.2494 7.64902 11.6516 7.82274 11.8253C8.66757 12.6749 8.80797 12.6035 9.1816 13.039C9.55522 13.4745 10.2097 14.5145 11.0116 15.5759C11.6732 16.4516 12.3919 17.3155 12.6775 17.6034C13.5342 18.4625 14.0673 18.0508 15.1073 17.1989C16.203 16.2382 17.2047 15.1751 18.0986 14.0243L20.2404 9.42652C18.6888 9.32894 17.6536 9.8049 16.5018 11.1947Z" fill="#FFA8A7"/>
<path d="M9.41696 10.2402C9.30367 10.4285 9.23115 10.6385 9.2041 10.8566C9.17704 11.0747 9.19605 11.296 9.25989 11.5063C9.28131 11.5705 9.30987 11.6324 9.33605 11.6943C9.39322 11.7904 9.44487 11.8897 9.49073 11.9918C9.49073 12.0084 9.49073 12.0393 9.46218 12.0274C9.39484 11.9792 9.33814 11.9176 9.29559 11.8466C9.24478 11.771 9.20021 11.6914 9.16232 11.6086C9.08503 11.4467 9.03978 11.2713 9.02906 11.0922C9.02028 10.9294 9.05097 10.767 9.11851 10.6186C9.18605 10.4703 9.28844 10.3405 9.41696 10.2402Z" fill="#F28F8F"/>
<path d="M20.1166 9.29077C18.9648 9.35503 18.4151 9.57158 17.7368 10.019C17.1144 10.4252 16.5629 10.9309 16.1043 11.5159C15.5022 12.2155 13.6555 14.2502 13.6555 14.2502C14.0836 14.7176 14.3743 15.294 14.4956 15.9161C14.6229 16.5644 14.5489 17.2362 14.2838 17.8413C14.2838 17.8413 14.8002 17.6747 15.7997 16.7276C16.7992 15.7804 18.2818 14.3859 18.2818 14.3859L20.1166 9.29077Z" fill="#EBEBEB"/>
<path d="M13.7695 13.9432C13.6244 14.1145 13.6077 14.055 13.4863 13.9955C13.4576 13.976 13.4236 13.9655 13.3888 13.9655C13.354 13.9655 13.32 13.976 13.2912 13.9955L13.4649 14.1692C13.5595 14.7648 13.5022 15.3746 13.2983 15.9422C13.2068 16.1943 13.0655 16.4253 12.8827 16.6216C12.6999 16.8178 12.4795 16.9753 12.2346 17.0845L12.0728 16.8917C12.0361 16.9332 12.0082 16.9817 11.9907 17.0342C11.9733 17.0868 11.9668 17.1423 11.9714 17.1975C11.9761 17.2527 11.9919 17.3063 12.0179 17.3552C12.0439 17.4041 12.0796 17.4472 12.1227 17.4819C12.2132 17.5699 12.3345 17.6175 12.4297 17.6984C12.5249 17.7794 12.6225 17.9055 12.7272 18.0007C12.8103 18.0929 12.9002 18.1788 12.9961 18.2577C13.1318 18.3375 13.2872 18.3776 13.4445 18.3734C13.6019 18.3692 13.7549 18.3209 13.8861 18.2339C14.0099 18.1601 14.1241 18.0673 14.2479 17.9959C14.3716 17.9245 14.4859 17.9103 14.5977 17.8603C14.7493 17.7896 14.8827 17.685 14.9875 17.5546C15.0923 17.4242 15.1657 17.2715 15.2022 17.1083C15.2557 16.8362 15.2629 16.557 15.2236 16.2825C15.1787 15.9845 15.1062 15.6913 15.007 15.4067C14.8559 14.8921 14.6141 14.4085 14.2931 13.9789C13.9932 13.6267 13.8481 13.8503 13.7695 13.9432Z" fill="#E0E0E0"/>
<path d="M26.6966 18.3102C26.6981 18.4014 26.6787 18.4916 26.6399 18.5741C26.6012 18.6566 26.544 18.7292 26.4729 18.7862C25.7709 19.2193 24.5524 19.7381 22.601 19.7952C20.6496 19.8523 18.9004 19.1765 18.3055 18.6339C18.2329 18.5724 18.1767 18.494 18.1418 18.4056C18.1069 18.3171 18.0945 18.2214 18.1056 18.127C18.1529 17.4842 18.1257 16.8382 18.0247 16.2017C16.642 14.7096 17.1037 13.4602 17.3322 12.7629C17.8938 11.0471 20.1165 9.2837 20.1165 9.2837H21.2683C22.0234 9.24647 22.7801 9.2568 23.5339 9.31464C24.3359 9.39556 26.204 10.169 26.204 10.169C25.966 11.6278 25.709 12.3108 26.0588 13.4269C26.2343 13.9481 26.5566 14.4076 26.9869 14.7501C26.7197 15.9167 26.6219 17.1157 26.6966 18.3102Z" fill="#E0E0E0"/>
<path opacity="0.1" d="M20.4663 16.1589C20.4663 16.1589 21.254 17.0847 22.8818 16.761C24.5096 16.4374 24.7856 15.1927 24.7856 15.1927C24.7856 15.1927 24.9332 16.7777 22.9865 17.1584C21.0398 17.5392 20.4663 16.1589 20.4663 16.1589Z" fill="black"/>
<path d="M12.782 19.6332C12.7795 19.6951 12.7959 19.7562 12.8291 19.8085C12.8623 19.8608 12.9106 19.9018 12.9676 19.9259C13.0828 19.9705 13.191 20.0314 13.2889 20.1068C13.4816 20.3019 13.4959 20.6303 13.6078 20.8636C13.6768 21.0087 13.8576 21.0682 13.9552 21.1967C14.0066 21.2848 14.0519 21.3762 14.0909 21.4704C14.198 21.6655 14.4359 21.7274 14.6144 21.8393C14.8238 21.9692 15.0495 22.0708 15.2855 22.1415C15.7687 22.2863 16.2708 22.3585 16.7753 22.3557C17.8105 22.3557 18.7291 22.0035 19.7238 21.8178C20.7757 21.6203 21.837 21.4014 22.8699 21.1039C23.9027 20.8064 24.2311 20.5661 24.7071 20.0544L22.0465 18.2767C21.1445 18.6147 20.2593 18.9907 19.3597 19.3429C19.0447 19.4943 18.7056 19.5894 18.3578 19.6237C18.0575 19.6083 17.7642 19.5271 17.4987 19.3857C17.1727 19.231 16.8657 19.0359 16.5278 18.9098C16.3134 18.8508 16.0956 18.8047 15.8757 18.7717C15.4711 18.6718 15.0618 18.6075 14.662 18.4933C14.6317 18.478 14.5983 18.4701 14.5644 18.4701C14.5305 18.4701 14.4971 18.478 14.4669 18.4933C14.3979 18.5433 14.4098 18.648 14.4383 18.7313C14.5589 19.0008 14.7691 19.2203 15.0333 19.3524C15.1546 19.419 16.1089 19.7593 15.9685 19.9259C15.9378 19.9515 15.9018 19.9698 15.8631 19.9797C15.8244 19.9896 15.784 19.9907 15.7448 19.983C15.0499 19.9307 14.3907 19.6713 13.7196 19.4809C13.4913 19.3966 13.2438 19.3784 13.0057 19.4285C12.9535 19.4395 12.9052 19.4642 12.8658 19.5002C12.8264 19.5362 12.7975 19.5822 12.782 19.6332Z" fill="#FFA8A7"/>
<path d="M26.204 10.1808C26.9536 10.4664 27.6937 10.9233 27.6652 12.6986C27.6461 13.7576 27.1892 15.0474 26.3849 16.9608C25.8304 18.2673 25.314 19.481 25.0665 19.9831C24.531 19.0502 23.2435 17.5105 22.5605 17.8151L24.1621 13.353C24.1621 13.353 25.045 10.8043 26.204 10.1808Z" fill="#EBEBEB"/>
<path d="M22.3417 17.7484C22.4844 17.6389 23.2531 17.4676 24.0694 18.2053C24.8856 18.943 25.1593 19.5903 25.1641 19.8354C25.1688 20.0805 24.9665 20.1686 24.8 20.2947C24.6334 20.4209 24.5453 20.7992 24.2574 20.8635C24.0187 20.9189 23.7889 21.007 23.5744 21.1253C23.4924 21.1627 23.4014 21.1761 23.3121 21.1639C23.2228 21.1517 23.1388 21.1144 23.0699 21.0563L23.3078 20.9801C23.3532 20.6741 23.3342 20.362 23.2523 20.0638C23.1703 19.7655 23.0272 19.4875 22.8319 19.2476C22.1513 18.3338 21.692 18.4242 21.692 18.4242L21.4968 18.498C21.5025 18.4322 21.5258 18.3692 21.5644 18.3156C21.6029 18.2619 21.6552 18.2197 21.7158 18.1934C21.9181 18.1172 22.0537 18.0982 22.1251 18.0149C22.1846 17.9165 22.2575 17.8268 22.3417 17.7484Z" fill="#E0E0E0"/>
<path d="M23.9671 6.55396L24.1908 9.48109C23.91 10.414 22.3203 10.671 20.2403 12.0489C20.1785 10.7638 21.2684 9.60484 21.2684 9.60484L21.1803 8.81475L23.9671 6.55396Z" fill="#FFA8A7"/>
<path d="M24.75 5.00709C24.5995 4.96917 24.4409 4.97982 24.2969 5.03753C24.1528 5.09524 24.0307 5.19704 23.948 5.32836C23.8711 5.4677 23.821 5.62028 23.8005 5.77814C23.7696 5.94473 23.6268 5.98042 23.4983 5.87095C23.3712 5.75946 23.287 5.60712 23.2603 5.44021C23.2427 5.29478 23.2427 5.14776 23.2603 5.00233C22.7534 4.90714 22.7843 4.36931 22.801 4.14799C21.9443 4.08374 21.5373 3.95285 20.9876 3.56971C20.5514 3.28706 20.2365 2.85166 20.1047 2.34888C20.0309 2.42979 19.2194 2.98428 19.1385 4.67868C19.1385 4.91666 19.0148 5.21889 18.9743 5.49257C18.6649 7.50824 19.2599 8.43398 19.6073 8.64578C20.0886 8.90869 20.6444 9.00174 21.1851 8.90993C21.7557 8.83272 22.315 8.68731 22.851 8.47681C23.1627 8.16933 23.4259 7.81627 23.6315 7.42971L23.9028 6.95375C23.9891 7.04234 24.0963 7.10781 24.2146 7.14413C24.326 7.17178 24.4421 7.17525 24.5549 7.15432C24.6678 7.13338 24.7749 7.08853 24.869 7.02276C25.0396 6.86993 25.1742 6.68116 25.2631 6.47006C25.352 6.25896 25.3929 6.03077 25.383 5.80194C25.3668 5.62206 25.2982 5.45089 25.1857 5.30961C25.0732 5.16833 24.9217 5.06315 24.75 5.00709Z" fill="#FFA8A7"/>
<path d="M23.7981 7.15601C23.7709 7.45089 23.6823 7.73683 23.5381 7.99544C23.3938 8.25405 23.197 8.47962 22.9604 8.65765C22.4418 8.98552 21.8436 9.16571 21.2303 9.17882L21.2041 8.90039C21.706 8.86289 22.1974 8.73722 22.6558 8.52914C23.3221 8.20311 23.5815 7.6986 23.7981 7.15601Z" fill="#F28F8F"/>
<path d="M21.504 5.22131C21.4955 5.27694 21.5037 5.33385 21.5277 5.38477C21.5517 5.43569 21.5903 5.47831 21.6386 5.5072C21.6869 5.53609 21.7427 5.54993 21.7989 5.54695C21.8551 5.54398 21.9091 5.52433 21.9541 5.4905C21.9991 5.45668 22.033 5.41022 22.0514 5.35706C22.0699 5.30389 22.0721 5.24643 22.0578 5.19201C22.0434 5.13758 22.0132 5.08867 21.9709 5.0515C21.9287 5.01433 21.8763 4.9906 21.8205 4.98333C21.7471 4.97377 21.6729 4.99332 21.6137 5.0378C21.5546 5.08228 21.5152 5.14815 21.504 5.22131Z" fill="#263238"/>
<path d="M19.4548 4.92382C19.4485 4.96187 19.4499 5.00082 19.459 5.03831C19.4681 5.07579 19.4847 5.11105 19.5077 5.14195C19.5308 5.17285 19.56 5.19875 19.5933 5.21809C19.6267 5.23743 19.6637 5.24981 19.702 5.25447C19.7402 5.25914 19.7791 5.256 19.8161 5.24524C19.8532 5.23449 19.8877 5.21633 19.9175 5.19188C19.9473 5.16743 19.9719 5.13719 19.9897 5.10298C20.0076 5.06877 20.0183 5.0313 20.0212 4.99284C20.0269 4.91952 20.004 4.84687 19.9574 4.78999C19.9108 4.73312 19.844 4.69642 19.771 4.68752C19.6981 4.67863 19.6244 4.69823 19.5655 4.74225C19.5066 4.78627 19.467 4.8513 19.4548 4.92382Z" fill="#263238"/>
<path d="M21.7515 4.40503L22.3464 4.78818C22.3962 4.70624 22.4124 4.60819 22.3916 4.51459C22.3707 4.42099 22.3144 4.33909 22.2346 4.28604C22.1953 4.26122 22.1514 4.24458 22.1055 4.23713C22.0597 4.22968 22.0128 4.23157 21.9677 4.24268C21.9226 4.25379 21.8802 4.2739 21.843 4.3018C21.8059 4.32969 21.7747 4.36481 21.7515 4.40503Z" fill="#263238"/>
<path d="M19.4835 4.21934L20.1974 4.15271C20.1954 4.10627 20.1839 4.06073 20.1636 4.01891C20.1433 3.97709 20.1147 3.93986 20.0794 3.90954C20.0442 3.87921 20.0031 3.85642 19.9587 3.84258C19.9144 3.82874 19.8676 3.82414 19.8214 3.82906C19.7255 3.83756 19.6366 3.88302 19.5735 3.95585C19.5104 4.02867 19.4782 4.12316 19.4835 4.21934Z" fill="#263238"/>
<path d="M20.9541 4.70728L20.5495 6.4112L19.7095 5.96618L20.9541 4.70728Z" fill="#F28F8F"/>
<path d="M21.4563 6.96326L20.3806 7.07749C20.3888 7.1526 20.4124 7.2252 20.4501 7.29068C20.4878 7.35616 20.5387 7.41308 20.5996 7.45784C20.6604 7.50259 20.73 7.5342 20.8037 7.55066C20.8774 7.56712 20.9538 7.56807 21.0279 7.55344C21.095 7.54332 21.1594 7.51995 21.2174 7.48469C21.2754 7.44943 21.3258 7.40298 21.3657 7.34805C21.4056 7.29313 21.4341 7.23082 21.4496 7.16476C21.4652 7.0987 21.4674 7.0302 21.4563 6.96326Z" fill="#B16668"/>
<path d="M20.7305 7.50814C20.7744 7.37438 20.8663 7.26164 20.9885 7.19175C21.1107 7.12185 21.2545 7.09977 21.3921 7.12976L21.442 7.14642C21.4247 7.24783 21.375 7.3409 21.3004 7.41169C21.2257 7.48248 21.1301 7.52717 21.0279 7.53908C20.9277 7.55213 20.8259 7.54153 20.7305 7.50814Z" fill="#F28F8F"/>
<path d="M29.6142 20.5092L29.4761 21.285L20.997 26.3134C20.6855 26.5609 20.4279 26.8695 20.24 27.2203C20.0522 27.571 19.9381 27.9564 19.9047 28.3529L18.8576 39.2047C18.8547 39.2386 18.8617 39.2726 18.8778 39.3026C18.8938 39.3325 18.9182 39.3572 18.948 39.3737C18.976 39.3907 19.0081 39.3997 19.0408 39.3997C19.0735 39.3997 19.1056 39.3907 19.1336 39.3737L22.5153 37.4032V36.6893L19.7071 38.3313L20.9422 29.0502C21.01 28.6462 21.1623 28.261 21.3891 27.9198C21.6158 27.5786 21.912 27.2891 22.2583 27.0702L29.7926 22.3106C30.6494 21.7871 30.3281 20.9637 29.6142 20.5092Z" fill="#455A64"/>
<path d="M21.9536 35.5994V36.4466C21.9528 37.2514 22.1752 38.0406 22.5962 38.7265C22.6271 38.7788 22.6604 38.8288 22.6937 38.8788V38.8931C22.7223 38.9359 22.7532 38.9787 22.7842 39.0192C23.1409 39.5087 23.5958 39.9184 24.12 40.2221C24.6441 40.5257 25.2258 40.7166 25.8279 40.7826H25.8612H25.9255H26.0564H26.104H26.2539H26.3062C27.2079 40.7393 28.0835 40.4665 28.8502 39.9901L29.2215 39.776C32.4342 37.9221 35.0376 33.41 35.0376 29.7V29.2716C35.0376 29.1907 35.0376 29.1074 35.0376 29.0336V28.8599C35.0386 28.1336 34.8578 27.4185 34.5117 26.78C34.4974 26.7514 34.4832 26.7229 34.4689 26.6991L34.4356 26.6396C34.4046 26.5848 34.3713 26.5325 34.338 26.4801C34.3211 26.4522 34.3029 26.4252 34.2833 26.3992L34.238 26.335C34.2166 26.3016 34.1904 26.2707 34.1666 26.2398L34.1238 26.1898C33.7659 25.7253 33.3176 25.3383 32.8059 25.052C32.2942 24.7656 31.7298 24.586 31.1467 24.5239C31.0149 24.5076 30.8821 24.4996 30.7493 24.5001H30.6826C29.7812 24.5425 28.9055 24.8145 28.1387 25.2902L27.7674 25.5068C24.5571 27.3797 21.9536 31.8894 21.9536 35.5994ZM24.1335 35.8136C24.1335 32.6818 26.3348 28.8742 29.0454 27.3083C31.7559 25.7424 33.9572 27.0108 33.9572 30.1426C33.9572 33.2744 31.7583 37.0844 29.0454 38.6503C26.3324 40.2162 24.1335 38.9454 24.1335 35.8136Z" fill="#455A64"/>
<path d="M23.0435 36.2347V36.663C23.0435 38.4978 23.6812 39.7924 24.7093 40.4088L24.7593 40.4373L24.7902 40.454L24.8116 40.4659L24.8926 40.5087C24.9465 40.5367 25.0021 40.5614 25.0591 40.5825L25.1353 40.6158L25.2281 40.6491L25.3138 40.6753C25.378 40.6967 25.447 40.7158 25.5184 40.7324L25.6255 40.7562L25.7398 40.7753C25.7814 40.7833 25.8235 40.7889 25.8659 40.7919H25.9301H26.061H26.1086H26.2585C27.1787 40.7591 28.0741 40.485 28.8549 39.9971L29.2261 39.7829C32.4388 37.9291 35.0423 33.417 35.0423 29.7069V29.2786C35.0423 29.1976 35.0423 29.1143 35.0423 29.0406C35.0423 28.9668 35.0423 28.9049 35.0423 28.8383V28.7669L35.028 28.5884C35.028 28.5765 35.028 28.5646 35.028 28.5551C35.028 28.4837 35.0138 28.4171 35.0042 28.3504C34.9947 28.2838 34.9876 28.2291 34.9781 28.1696C34.9685 28.1101 34.9662 28.1006 34.959 28.0672C34.9479 27.9927 34.9336 27.9213 34.9162 27.8531C34.9019 27.7888 34.8852 27.7293 34.871 27.6674C34.84 27.5556 34.8091 27.4485 34.771 27.3438C34.752 27.2867 34.7306 27.2296 34.7091 27.1725C34.6693 27.0679 34.624 26.9654 34.5735 26.8655C34.5616 26.8393 34.5473 26.8131 34.533 26.7869C34.5188 26.7607 34.5045 26.7298 34.4902 26.706L34.4569 26.6465C34.426 26.5918 34.3926 26.5394 34.3593 26.4871C34.3425 26.4592 34.3242 26.4322 34.3046 26.4062L34.2594 26.3419C34.2379 26.3086 34.2118 26.2777 34.188 26.2467L34.1142 26.1563C34.088 26.1277 34.0642 26.0968 34.0357 26.0706C33.9856 26.013 33.9323 25.9582 33.8762 25.9064L33.7929 25.8326C33.737 25.7824 33.6782 25.7355 33.6168 25.6922L33.524 25.628L33.4312 25.5661L33.4098 25.5542L33.317 25.5256C32.2651 24.9378 30.8253 25.033 29.2356 25.9516L28.8644 26.1658C25.6493 28.0078 23.0435 32.5198 23.0435 36.2347ZM24.1334 35.8182C24.1334 32.6864 26.3347 28.8788 29.0453 27.3129C31.7558 25.747 33.9571 27.0154 33.9571 30.1472C33.9571 33.279 31.7582 37.089 29.0453 38.6549C26.3323 40.2208 24.1334 38.9452 24.1334 35.8134V35.8182Z" fill="#37474F"/>
<path d="M25.3923 37.8458C26.1705 38.7715 27.5151 38.9024 29.0453 38.0195C31.4584 36.6273 33.4122 33.2433 33.4122 30.4566C33.4122 29.2143 33.0219 28.3005 32.3722 27.7936C32.8244 28.3266 33.0862 29.1239 33.0862 30.1424C33.0862 32.9268 31.1324 36.3108 28.7216 37.7054C27.389 38.474 26.1943 38.474 25.3923 37.8458Z" fill="#BA68C8"/>
<path opacity="0.2" d="M25.3923 37.8458C26.1705 38.7715 27.5151 38.9024 29.0453 38.0195C31.4584 36.6273 33.4122 33.2433 33.4122 30.4566C33.4122 29.2143 33.0219 28.3005 32.3722 27.7936C32.8244 28.3266 33.0862 29.1239 33.0862 30.1424C33.0862 32.9268 31.1324 36.3108 28.7216 37.7054C27.389 38.474 26.1943 38.474 25.3923 37.8458Z" fill="black"/>
<path d="M24.136 35.8135C24.136 38.9453 26.3349 40.2161 29.0455 38.6502C31.756 37.0843 33.9573 33.2742 33.9573 30.1424C33.9573 27.0107 31.7584 25.7422 29.0455 27.3081C26.3325 28.874 24.136 32.6817 24.136 35.8135ZM24.681 35.4993C24.681 32.715 26.6347 29.3286 29.0455 27.9388C31.4562 26.549 33.4124 27.6675 33.4124 30.459C33.4124 33.2504 31.4562 36.6273 29.0455 38.0195C26.6347 39.4117 24.681 38.2837 24.681 35.4993Z" fill="#BA68C8"/>
<path d="M24.8285 34.1142C24.8285 34.0642 24.8499 34.0142 24.8594 33.9666L28.6671 32.9481L28.7551 32.8196L25.9589 31.2061L26.0279 31.0895L28.8218 32.703L28.8884 32.565L27.8794 28.8001C27.9174 28.7668 27.9531 28.7311 27.9912 28.7002L28.9836 32.4031L29.1192 32.2508L30.0949 27.4913L30.2401 27.4508L29.2715 32.1461L29.4238 32.1247L32.0416 27.5865C32.0825 27.6055 32.1222 27.627 32.1606 27.6507L29.5428 32.1913L29.5999 32.3341L33.2291 29.1167C33.2458 29.1619 33.2577 29.2095 33.2719 29.2594L29.5904 32.5245L29.5238 32.7173L33.291 31.713L33.2624 31.8605L29.431 32.8886L29.3429 33.0147L32.1987 34.6592L32.132 34.7782L29.2763 33.1313L29.2097 33.2694L30.2472 37.1389L30.133 37.2412L29.1145 33.4336L28.9788 33.5859L27.9745 38.493L27.8294 38.5311L28.8218 33.6906L28.6671 33.712L25.9898 38.3502L25.8756 38.2812L28.5576 33.6359L28.5029 33.4931L24.8428 36.7367C24.8285 36.6891 24.8166 36.6415 24.8047 36.5915L28.5124 33.3027L28.579 33.1099L24.8285 34.1142Z" fill="#EBEBEB"/>
<path d="M27.1558 33.7812C27.1558 34.2928 27.3342 34.6546 27.6198 34.8283C27.7103 34.883 27.7816 34.9163 27.8578 34.9639C28.0169 35.063 28.2044 35.1065 28.3909 35.0877C28.43 35.0843 28.469 35.0787 28.5075 35.071H28.5432L28.636 35.0449L28.7026 35.0258L28.7693 34.9996L28.8668 34.9616C28.9238 34.935 28.9794 34.9056 29.0334 34.8735C29.5099 34.563 29.9065 34.1446 30.191 33.6521C30.4755 33.1597 30.6398 32.6071 30.6707 32.0392C30.6707 31.9749 30.6707 31.9154 30.6707 31.8559V31.7965C30.6707 31.7608 30.6707 31.7227 30.654 31.6894C30.6374 31.656 30.654 31.6418 30.6374 31.618C30.6207 31.5942 30.6255 31.5632 30.616 31.5371C30.6087 31.512 30.5999 31.4873 30.5898 31.4633C30.5833 31.4421 30.5754 31.4215 30.566 31.4014L30.5303 31.3253L30.5041 31.2824C30.4897 31.2556 30.473 31.2301 30.4541 31.2063L30.4327 31.1777L30.3685 31.1063C30.3623 31.1014 30.3567 31.0958 30.3518 31.0897L30.2709 31.023L30.2066 30.9826C30.1281 30.935 30.052 30.9017 29.9901 30.8612C29.6926 30.6756 29.2761 30.6898 28.8002 30.9588C28.3242 31.2675 27.9274 31.6838 27.6417 32.1741C27.3561 32.6643 27.1896 33.2148 27.1558 33.7812ZM29.2095 34.1215C29.0739 33.8597 29.0501 33.3409 29.2095 33.1434C29.369 32.9459 29.3737 33.2362 29.7997 33.0149C29.8981 32.9625 29.9935 32.9045 30.0853 32.8412C29.8946 33.3056 29.6185 33.7302 29.2714 34.0929C29.2522 34.1054 29.2314 34.115 29.2095 34.1215ZM28.2243 32.1058C28.2294 32.0895 28.2357 32.0736 28.2433 32.0582C28.5255 31.6965 28.8936 31.411 29.3142 31.2277C29.2911 31.6695 29.1388 32.0948 28.8763 32.4509C28.8487 32.398 28.8055 32.3548 28.7526 32.3271L28.5003 32.1844C28.4783 32.1714 28.4552 32.1603 28.4313 32.151C28.3639 32.1294 28.2946 32.1143 28.2243 32.1058ZM29.9139 31.1539C30.1054 31.3874 30.2052 31.6827 30.1947 31.9845C30.1614 32.2962 29.6379 32.608 29.3142 32.6603C29.3285 32.4985 29.5355 32.4223 29.6736 31.9273C29.7854 31.5299 29.7759 31.2205 29.9139 31.161V31.1539ZM27.953 34.6094C27.953 34.6094 27.953 34.5975 27.9387 34.5903C27.8078 34.3833 28.31 33.6884 28.6526 33.4242C28.6097 33.58 28.6097 33.7444 28.6526 33.9002C28.7407 34.2238 28.9311 34.3761 28.7597 34.5308C28.5124 34.6638 28.2228 34.6946 27.953 34.6165V34.6094ZM27.6222 33.9359C27.6302 33.5141 27.725 33.0986 27.9006 32.715C27.9522 32.6296 28.0324 32.5653 28.127 32.5334C28.2215 32.5016 28.3243 32.5044 28.417 32.5413C28.4675 32.5804 28.5053 32.6336 28.5257 32.6942C28.546 32.7547 28.5479 32.82 28.5313 32.8816C28.4456 33.1363 28.3052 32.9721 27.9482 33.448C27.8126 33.6336 27.7055 33.8145 27.6222 33.943V33.9359Z" fill="#E0E0E0"/>
<path opacity="0.2" d="M27.1558 33.7812C27.1558 34.2928 27.3342 34.6546 27.6198 34.8283C27.7103 34.883 27.7816 34.9163 27.8578 34.9639C28.0169 35.063 28.2044 35.1065 28.3909 35.0877C28.43 35.0843 28.469 35.0787 28.5075 35.071H28.5432L28.636 35.0449L28.7026 35.0258L28.7693 34.9996L28.8668 34.9616C28.9238 34.935 28.9794 34.9056 29.0334 34.8735C29.5099 34.563 29.9065 34.1446 30.191 33.6521C30.4755 33.1597 30.6398 32.6071 30.6707 32.0392C30.6707 31.9749 30.6707 31.9154 30.6707 31.8559V31.7965C30.6707 31.7608 30.6707 31.7227 30.654 31.6894C30.6374 31.656 30.654 31.6418 30.6374 31.618C30.6207 31.5942 30.6255 31.5632 30.616 31.5371C30.6087 31.512 30.5999 31.4873 30.5898 31.4633C30.5833 31.4421 30.5754 31.4215 30.566 31.4014L30.5303 31.3253L30.5041 31.2824C30.4897 31.2556 30.473 31.2301 30.4541 31.2063L30.4327 31.1777L30.3685 31.1063C30.3623 31.1014 30.3567 31.0958 30.3518 31.0897L30.2709 31.023L30.2066 30.9826C30.1281 30.935 30.052 30.9017 29.9901 30.8612C29.6926 30.6756 29.2761 30.6898 28.8002 30.9588C28.3242 31.2675 27.9274 31.6838 27.6417 32.1741C27.3561 32.6643 27.1896 33.2148 27.1558 33.7812ZM29.2095 34.1215C29.0739 33.8597 29.0501 33.3409 29.2095 33.1434C29.369 32.9459 29.3737 33.2362 29.7997 33.0149C29.8981 32.9625 29.9935 32.9045 30.0853 32.8412C29.8946 33.3056 29.6185 33.7302 29.2714 34.0929C29.2522 34.1054 29.2314 34.115 29.2095 34.1215ZM28.2243 32.1058C28.2294 32.0895 28.2357 32.0736 28.2433 32.0582C28.5255 31.6965 28.8936 31.411 29.3142 31.2277C29.2911 31.6695 29.1388 32.0948 28.8763 32.4509C28.8487 32.398 28.8055 32.3548 28.7526 32.3271L28.5003 32.1844C28.4783 32.1714 28.4552 32.1603 28.4313 32.151C28.3639 32.1294 28.2946 32.1143 28.2243 32.1058ZM29.9139 31.1539C30.1054 31.3874 30.2052 31.6827 30.1947 31.9845C30.1614 32.2962 29.6379 32.608 29.3142 32.6603C29.3285 32.4985 29.5355 32.4223 29.6736 31.9273C29.7854 31.5299 29.7759 31.2205 29.9139 31.161V31.1539ZM27.953 34.6094C27.953 34.6094 27.953 34.5975 27.9387 34.5903C27.8078 34.3833 28.31 33.6884 28.6526 33.4242C28.6097 33.58 28.6097 33.7444 28.6526 33.9002C28.7407 34.2238 28.9311 34.3761 28.7597 34.5308C28.5124 34.6638 28.2228 34.6946 27.953 34.6165V34.6094ZM27.6222 33.9359C27.6302 33.5141 27.725 33.0986 27.9006 32.715C27.9522 32.6296 28.0324 32.5653 28.127 32.5334C28.2215 32.5016 28.3243 32.5044 28.417 32.5413C28.4675 32.5804 28.5053 32.6336 28.5257 32.6942C28.546 32.7547 28.5479 32.82 28.5313 32.8816C28.4456 33.1363 28.3052 32.9721 27.9482 33.448C27.8126 33.6336 27.7055 33.8145 27.6222 33.943V33.9359Z" fill="black"/>
<path d="M27.4104 33.924C27.4104 34.9663 28.141 35.3899 29.0453 34.8759C29.5218 34.5654 29.9184 34.147 30.2029 33.6545C30.4874 33.162 30.6517 32.6094 30.6826 32.0416C30.6826 30.9968 29.9496 30.5732 29.0453 31.0896C28.5694 31.4005 28.1734 31.8191 27.8893 32.3115C27.6053 32.8039 27.4412 33.3563 27.4104 33.924ZM29.0501 32.6508C28.8549 32.7317 29.012 32.4128 28.6812 32.2938C28.4194 32.201 28.1362 32.2938 28.2433 32.0558C28.3504 31.8179 29.1286 31.2015 29.4523 31.1967C29.7759 31.192 29.3356 32.5342 29.0501 32.6508ZM30.447 32.132C30.397 32.5746 29.3666 33.0196 29.3166 32.7222C29.2833 32.5175 29.5213 32.4842 29.6736 31.9345C29.7926 31.5037 29.7735 31.1777 29.9401 31.1491C30.1067 31.1206 30.497 31.6941 30.447 32.132ZM29.2143 33.141C29.388 32.934 29.3785 33.2338 29.8045 33.0125C30.1376 32.8388 30.4113 32.5556 30.4065 32.7626C30.4018 32.9697 29.8663 33.9525 29.5118 34.231C29.1572 34.5094 28.9596 33.4456 29.2143 33.141ZM28.8835 33.3338C29.0239 33.4099 28.7812 33.6289 28.8835 34.0477C28.9715 34.3737 29.1619 34.5237 28.9906 34.6807C28.8192 34.8378 28.1005 34.8735 27.9316 34.6046C27.7626 34.3357 28.6788 33.2243 28.8835 33.3362V33.3338ZM27.6603 34.2357C27.5603 34.1262 27.6603 33.1601 27.8983 32.7198C28.1362 32.2795 28.9073 32.6579 28.7788 33.0268C28.6931 33.2814 28.5527 33.1196 28.1957 33.5932C27.9173 33.9692 27.7626 34.3476 27.6603 34.2381V34.2357Z" fill="#E0E0E0"/>
<path d="M29.0454 33.5575C28.7693 33.717 28.5457 33.5861 28.5457 33.2672C28.5551 33.0937 28.6053 32.9249 28.6921 32.7744C28.7789 32.6239 28.8999 32.496 29.0454 32.401C29.3238 32.2415 29.5475 32.37 29.5475 32.6889C29.5382 32.863 29.4878 33.0325 29.4006 33.1834C29.3133 33.3344 29.1916 33.4625 29.0454 33.5575Z" fill="#455A64"/>
</svg>
