<svg width="24" height="55" viewBox="0 0 24 55" fill="none" xmlns="http://www.w3.org/2000/svg">
<path d="M10.941 48.4145L10.3699 48.1194L10.941 47.9695V48.4145Z" fill="#263238"/>
<path d="M5.20562 49.3901C5.20562 49.3901 12.057 46.4107 12.1355 46.8723C12.1549 46.9641 12.1549 47.059 12.1355 47.1508C12.1427 47.1426 12.149 47.1339 12.1546 47.1246L12.0165 47.9837C11.71 48.2265 11.3397 48.3753 10.9504 48.4121V47.9694C10.7391 48.0521 10.5366 48.1557 10.3459 48.2788C9.90331 48.562 9.61535 49.0665 9.15605 49.6472C8.81099 50.0731 8.20414 50.2635 7.31411 50.3777C6.36219 50.4991 5.51261 50.2992 5.27701 50.0374C5.21276 49.9438 5.17262 49.8357 5.16017 49.7227C5.14771 49.6098 5.16333 49.4956 5.20562 49.3901Z" fill="#263238"/>
<path d="M5.39604 49.2331C5.46267 49.1664 5.71017 48.8999 6.04334 48.6143C6.36021 48.3218 6.69226 48.0462 7.03809 47.7885C7.21352 47.6696 7.37906 47.5367 7.53308 47.3911C7.65207 47.265 7.77106 47.1341 7.87577 46.9961C8.20623 46.5652 8.48947 46.1 8.7206 45.6087C8.95147 45.0738 9.04474 44.4897 8.99189 43.9095C8.93239 42.4626 8.82293 41.939 8.83245 40.999L12.0689 41.4964C11.9666 42.0152 11.8476 43.1765 11.7881 43.7667C11.6977 44.6663 11.5644 44.7496 11.9 45.6539C12.0278 45.9066 12.1146 46.1782 12.157 46.4582C12.1713 46.9199 11.8048 47.3126 11.3978 47.5315C11.0623 47.7124 10.6839 47.7862 10.3507 47.9813C10.0173 48.202 9.72628 48.4809 9.49164 48.8047C9.25366 49.095 9.06804 49.4401 8.74439 49.6424C8.40147 49.838 8.02272 49.9626 7.63065 50.0089C7.13828 50.0892 6.63771 50.1068 6.14091 50.0612C5.43412 49.9946 4.91294 49.7233 5.39604 49.2331Z" fill="#C8856A"/>
<path d="M8.07333 47.8671C7.91632 47.7741 7.74121 47.7158 7.55977 47.6961C7.37834 47.6763 7.19478 47.6957 7.02147 47.7529C6.51219 48.1456 6.09097 48.493 5.79588 48.7381C5.43415 49.0332 5.11764 49.3021 5.12716 49.6472C5.13906 50.1898 7.22375 50.3849 8.39936 49.8852C8.76097 49.7655 9.06154 49.5093 9.23704 49.1713C9.23704 49.1713 9.07759 48.4169 8.07333 47.8671ZM12.0761 45.9871C11.9024 45.6349 11.8381 45.4564 11.8381 45.4564C11.4924 45.7082 11.2294 46.0572 11.0828 46.459C10.9361 46.8608 10.9125 47.2971 11.0147 47.7125C11.2248 47.6754 11.425 47.5956 11.6031 47.4782C11.7811 47.3607 11.9332 47.208 12.0499 47.0295C12.1519 46.8758 12.2084 46.6964 12.2131 46.512C12.2177 46.3277 12.1702 46.1457 12.0761 45.9871Z" fill="#37474F"/>
<path d="M17.709 48.0957C17.521 48.4098 17.7947 49.5712 17.7661 50.4017C17.7423 51.1585 17.6114 52.3389 17.8137 53.2194C18.016 54.0999 18.7918 55.0637 19.8151 54.2165C20.4481 53.6906 20.6956 53.0671 20.767 51.9771C20.8123 51.2227 20.491 50.1828 20.2149 49.2618C19.8913 48.1861 19.7628 47.6102 19.7628 47.6102L17.709 48.0957Z" fill="#263238"/>
<path d="M19.7295 42.4865C19.8389 44.2451 19.6581 45.485 19.67 46.613C19.6833 47.1249 19.7471 47.6343 19.8604 48.1337C20.0222 48.8476 20.2935 49.8447 20.4077 50.3088C20.5671 50.9561 20.6861 51.3654 20.4767 52.1008C20.4584 52.1585 20.4345 52.2143 20.4053 52.2673C20.1031 52.8742 19.313 53.3454 19.056 53.2764C19.0057 53.3447 18.9366 53.3968 18.8571 53.4264C18.7777 53.456 18.6913 53.4618 18.6086 53.443C18.5794 53.44 18.5506 53.4337 18.5229 53.4239C18.4932 53.416 18.4645 53.4048 18.4372 53.3906C18.3308 53.335 18.237 53.2579 18.162 53.164C18.0871 53.0702 18.0325 52.9618 18.0017 52.8456C17.9832 52.7943 17.9681 52.7419 17.9565 52.6886C17.8306 52.0812 17.8072 51.457 17.8875 50.8419C17.8994 50.4325 17.8637 49.9114 17.8161 49.2522C17.7685 48.593 17.5781 46.5202 17.3187 45.5326C17.1355 44.8448 16.9047 43.981 16.6643 43.06L19.7295 42.4865Z" fill="#C8856A"/>
<path d="M20.579 51.1512C19.9436 50.8846 18.116 50.8822 17.8423 51.777C17.8423 52.6147 17.8566 53.1835 18.4015 53.9022C19.1155 54.8541 20.0198 53.8117 20.3577 53.1525C20.634 52.5236 20.7113 51.8252 20.579 51.1512Z" fill="#37474F"/>
<path d="M16.6952 17.7035C17.6162 19.2837 18.8585 21.4778 18.9751 25.0499C19.1274 29.8094 19.2273 33.2268 19.2606 33.8027C19.2939 34.3786 19.6866 35.421 20.0555 38.2434C20.4243 41.0658 20.0222 46.4631 20.0222 46.4631C20.0222 46.4631 19.7057 47.1033 18.6252 47.2294C17.6305 47.346 17.164 46.8796 17.164 46.8796C17.164 46.8796 15.5863 39.3262 15.1603 37.6318C14.7343 35.9374 13.2874 28.5291 13.2874 28.5291L12.7591 33.0911C12.7591 33.0911 13.1041 34.6451 12.8685 37.1368C12.6329 39.6284 11.8429 44.4284 11.8429 44.4284C11.8429 44.4284 11.3907 44.9044 10.3317 44.8639C9.79083 44.8618 9.27036 44.6572 8.87289 44.2904C8.87289 44.2904 7.94478 34.8117 7.86862 31.9988C7.79247 29.1859 7.86863 22.1632 8.64443 17.9748L16.6952 17.7035Z" fill="#37474F"/>
<path d="M9.29168 21.9966C9.4416 23.1389 11.1955 24.3264 11.8785 24.4716L12.74 28.7552L12.759 33.0864L13.2873 28.5243L12.4211 24.0218C12.4211 24.0218 10.2388 23.4792 9.29168 21.9966ZM16.619 36.568C16.3287 35.1139 15.9455 31.8084 15.7337 30.333C15.5219 28.8575 15.3292 27.3844 15.0912 25.9256C15.2007 27.4106 15.3292 28.8932 15.4934 30.3734C15.6576 31.8536 16.0431 35.1591 16.3263 36.6346C16.6095 38.1101 16.9379 39.5475 17.2639 41.0015C17.59 42.4556 17.9255 43.9025 18.2849 45.3494C18.039 43.8802 17.7748 42.4151 17.4924 40.9539C17.214 39.4903 16.9189 38.0196 16.619 36.568ZM9.22266 28.4505L9.36069 24.5644C9.19649 25.8518 9.07511 27.144 8.98944 28.4386C8.90377 29.7332 8.83237 31.0255 8.86331 32.3367C8.94422 33.6408 9.0775 34.9259 9.2179 36.2181C9.35831 37.5104 9.52252 38.7931 9.71052 40.0758C9.63913 38.7812 9.55265 37.4874 9.45112 36.1943L9.3012 34.2572C9.25122 33.6123 9.1941 32.965 9.16316 32.3248C9.13223 31.6847 9.16316 31.0374 9.16316 30.3924C9.16316 29.7475 9.20362 29.0978 9.22266 28.4505Z" fill="#263238"/>
<path d="M16.2191 1.68264C17.1401 2.17526 17.2353 2.93917 17.2805 4.80016C17.3662 8.17944 18.399 12.0252 18.399 12.0252L10.6719 12.1227L10.2554 4.38845C10.2554 4.38845 9.57241 3.56029 9.60097 2.67025C9.62953 1.78021 10.1198 0.595084 11.757 0.164344C13.123 -0.199763 15.7789 -0.0593556 16.2191 1.68264Z" fill="#263238"/>
<path d="M6.38119 16.9109C8.23504 15.1522 10.0794 13.3174 10.0794 13.3174L10.7933 8.85295C9.3345 8.87913 8.26836 10.445 6.84525 11.9181C5.28887 13.5316 5.06042 13.7363 5.06042 13.7363C5.06042 13.7363 3.90622 11.7015 3.69204 10.9472C3.54931 10.5355 3.55436 10.087 3.70632 9.67874C3.97761 8.79822 3.96096 8.38175 3.89908 7.40842C3.88718 7.23946 3.87528 7.07525 3.861 6.90867C3.85145 6.82972 3.84747 6.7502 3.8491 6.67069C3.8491 6.59216 3.84911 6.52791 3.76105 6.49459C3.69406 6.47681 3.62286 6.48444 3.56115 6.51601C3.4603 6.56809 3.37126 6.6404 3.29961 6.72844C3.22795 6.81647 3.17522 6.91833 3.14469 7.02766C3.08717 7.24702 3.04738 7.47064 3.0257 7.69638C3.0019 7.8701 2.8615 7.72969 2.80676 7.65354C2.52833 7.2823 2.51167 6.68021 2.46645 6.22567C2.46614 5.93636 2.44306 5.64751 2.39744 5.36181C2.35734 5.17987 2.26368 5.01409 2.12852 4.88586C2.03095 4.80256 1.91672 4.75973 1.82391 4.88586C1.77822 4.97202 1.75145 5.06695 1.74538 5.16429C1.74487 5.26099 1.72332 5.35642 1.68222 5.44395C1.64113 5.53148 1.58147 5.60902 1.5074 5.67118C1.39165 5.73588 1.28518 5.81593 1.19089 5.90916C1.0911 6.04472 1.02799 6.20374 1.00765 6.37084C0.914839 6.3518 0.769672 6.45413 0.710178 6.63737C0.593673 7.06825 0.562947 7.51781 0.619745 7.96053C0.663366 8.49531 0.801129 9.01817 1.02669 9.50501C1.21342 9.95331 1.37237 10.4127 1.50264 10.8805C1.79297 12.1846 2.38554 14.9404 3.10185 16.7324C3.97285 18.8766 4.96522 18.2555 6.38119 16.9109Z" fill="#C8856A"/>
<path d="M4.42992 12.5392L4.09913 11.8848C3.84711 12.2421 3.4965 12.5183 3.0901 12.6796C2.729 12.8605 2.32232 12.93 1.92163 12.8795L2.0668 13.5221C2.50948 13.5113 2.94653 13.4202 3.35664 13.2531C3.75453 13.0818 4.11815 12.84 4.42992 12.5392Z" fill="#F0F0F0"/>
<path d="M10.8076 8.73633C8.82997 9.0814 7.64722 10.771 6.61201 11.9086C5.68628 12.92 5.06278 13.653 5.06278 13.653L4.32266 12.2632C4.32266 12.2632 4.11562 12.7558 3.26366 13.1437C2.4117 13.5316 2 13.3483 2 13.3483C2 13.3483 2.67348 15.9994 3.18989 17.137C3.65395 18.146 4.43214 18.7742 5.58871 17.8176C7.01658 16.642 10.4244 13.2817 10.4244 13.2817L10.8076 8.73633Z" fill="#BA68C8"/>
<path opacity="0.15" d="M5.0603 13.6529C5.57909 14.5358 5.84325 15.2854 5.79327 15.8661C6.1193 15.214 5.88133 14.1645 5.34112 13.3292L5.0603 13.6529Z" fill="black"/>
<path d="M17.709 19.4739C17.609 18.76 17.1021 18.6433 17.3496 16.9132C17.471 16.0565 17.9017 13.8409 17.9017 13.8409C17.9017 13.8409 16.4287 12.7058 16.8999 9.39314L15.3292 8.75536L14.4653 8.44836L12.0427 8.55308L10.8076 8.891C10.1182 9.4142 9.50256 10.0282 8.97757 10.7163C8.07325 11.9919 7.91143 13.3983 8.83478 14.4478C8.83478 14.6525 8.80623 17.8104 8.56825 18.5791C8.41131 18.938 8.40275 19.3443 8.54445 19.7095C9.42973 21.1659 14.7009 22.6533 17.709 19.4739Z" fill="#FAFAFA"/>
<path d="M12.0427 8.5531L10.8052 8.73872C9.61527 9.6359 8.20407 11.2542 8.12315 12.5012C8.07386 13.2396 8.26869 13.9738 8.67764 14.5906C8.67764 14.5906 8.69668 17.1251 8.40635 18.4625C8.11602 19.7999 7.79474 23.3839 7.79474 23.3839C7.79474 23.3839 7.76857 23.6076 8.76332 23.8884C9.06793 22.1702 9.81994 15.8709 9.77948 14.3574C9.73902 12.8438 9.70809 10.4569 12.0427 8.5531Z" fill="#BA68C8"/>
<path opacity="0.3" d="M12.0427 8.5531L10.8052 8.73872C9.61527 9.6359 8.20407 11.2542 8.12315 12.5012C8.07386 13.2396 8.26869 13.9738 8.67764 14.5906C8.67764 14.5906 8.69668 17.1251 8.40635 18.4625C8.11602 19.7999 7.79474 23.3839 7.79474 23.3839C7.79474 23.3839 7.76857 23.6076 8.76332 23.8884C9.06793 22.1702 9.81994 15.8709 9.77948 14.3574C9.73902 12.8438 9.70809 10.4569 12.0427 8.5531Z" fill="black"/>
<path opacity="0.2" d="M9.59388 15.0594C9.49393 14.6596 9.38684 14.2598 9.27737 13.8695C9.1679 13.4792 9.06319 13.0723 8.96562 12.6796C8.91495 12.4823 8.8768 12.282 8.85139 12.0799C8.85168 11.9849 8.87319 11.8911 8.91436 11.8055C8.95554 11.7198 9.01533 11.6445 9.08937 11.5849C9.37765 11.2954 9.69687 11.0384 10.0413 10.8186L10.0722 10.7972V10.7591C10.0342 10.5426 10.0342 10.3212 10.0722 10.1047C10.1073 9.88586 10.184 9.67581 10.2983 9.48594C10.4291 9.30168 10.59 9.14077 10.7742 9.00999C10.9556 8.87562 11.1511 8.76151 11.3573 8.66968C11.1426 8.7461 10.938 8.84839 10.7481 8.97429C10.5518 9.09934 10.3813 9.26092 10.2459 9.45025C10.1166 9.6439 10.0276 9.86161 9.98417 10.0904C9.93773 10.3201 9.9329 10.5563 9.96989 10.7877L9.99368 10.7282C9.63818 10.9492 9.3092 11.2103 9.01321 11.5064C8.93983 11.5848 8.87519 11.671 8.82045 11.7634C8.8052 11.7879 8.7932 11.8143 8.78476 11.8419C8.77099 11.868 8.76136 11.8961 8.7562 11.9252C8.74793 11.982 8.74793 12.0397 8.7562 12.0966C8.78392 12.3037 8.82526 12.5088 8.87995 12.7105C8.9799 13.1127 9.10603 13.5054 9.22977 13.9004C9.35352 14.2955 9.46537 14.6667 9.59388 15.0594Z" fill="black"/>
<path d="M15.3292 8.75537C14.8453 9.4561 14.4399 10.2079 14.1202 10.9971C13.4254 12.5725 12.759 14.0028 12.7709 15.4545C12.7828 16.9061 13.2588 24.4524 13.2588 24.4524C13.2588 24.4524 15.3482 24.7665 17.2425 24.005L17.0878 21.085L17.8018 23.867C17.8018 23.867 18.7085 23.5433 19.0416 23.2411C18.549 20.2045 17.4448 18.7647 17.3901 17.6438C17.352 16.8728 18.0064 14.7405 18.1302 12.8177C18.1805 11.689 18.1006 10.5583 17.8922 9.44789L15.3292 8.75537Z" fill="#BA68C8"/>
<path opacity="0.3" d="M15.3292 8.75537C14.8453 9.4561 14.4399 10.2079 14.1202 10.9971C13.4254 12.5725 12.759 14.0028 12.7709 15.4545C12.7828 16.9061 13.2588 24.4524 13.2588 24.4524C13.2588 24.4524 15.3482 24.7665 17.2425 24.005L17.0878 21.085L17.8018 23.867C17.8018 23.867 18.7085 23.5433 19.0416 23.2411C18.549 20.2045 17.4448 18.7647 17.3901 17.6438C17.352 16.8728 18.0064 14.7405 18.1302 12.8177C18.1805 11.689 18.1006 10.5583 17.8922 9.44789L15.3292 8.75537Z" fill="black"/>
<path opacity="0.2" d="M13.0469 15.8946C13.1778 15.5281 13.3719 15.1874 13.6204 14.888C13.8584 14.5762 14.113 14.2835 14.3748 13.9979C14.5057 13.8528 14.6389 13.71 14.7722 13.5672L14.9721 13.3554C15.0078 13.3173 15.0387 13.284 15.0744 13.2412C15.0843 13.231 15.0931 13.2198 15.1006 13.2078C15.1096 13.19 15.1175 13.1718 15.1244 13.1531C15.1329 13.1205 15.1369 13.0869 15.1363 13.0532C15.1022 12.8492 15.033 12.6527 14.9317 12.4725C14.8388 12.2964 14.7389 12.1274 14.6318 11.9608V12.056L15.2291 11.4539L15.5266 11.1493L15.6004 11.0732L15.6361 11.0327C15.6561 11.0153 15.6737 10.9953 15.6884 10.9732C15.7029 10.9304 15.7077 10.8849 15.7027 10.84C15.7027 10.8019 15.7027 10.7638 15.7027 10.7281C15.6527 10.4457 15.5851 10.1668 15.5004 9.8928C15.4148 9.61913 15.3291 9.34783 15.2315 9.0813C15.3005 9.35735 15.3695 9.63341 15.4314 9.90946C15.4994 10.184 15.5527 10.4621 15.5909 10.7424C15.6008 10.8015 15.6008 10.8618 15.5909 10.9209C15.5909 10.9042 15.5909 10.9209 15.5718 10.9375L15.5314 10.9756L15.4552 11.0494L15.1458 11.3468L14.5342 11.9466L14.4914 11.9894L14.5247 12.0441C14.627 12.2059 14.7222 12.3773 14.8103 12.5463C14.9016 12.7071 14.9667 12.8814 15.0031 13.0627C15.0045 13.0777 15.0045 13.0928 15.0031 13.1079C15.0031 13.1079 14.9888 13.1245 14.984 13.1317C14.9793 13.1388 14.9221 13.2031 14.8912 13.2388L14.6937 13.4553C14.5628 13.6005 14.4295 13.7457 14.301 13.8932C14.0488 14.1931 13.8036 14.5001 13.5871 14.8237C13.4754 14.9859 13.3745 15.1552 13.2849 15.3306C13.177 15.5052 13.0967 15.6955 13.0469 15.8946Z" fill="black"/>
<path d="M15.1769 6.48743C15.342 6.5183 15.5122 6.50676 15.6716 6.4539C15.831 6.40104 15.9744 6.30859 16.0884 6.1852C16.5857 5.68782 16.6547 5.16189 16.4501 4.79779C16.3626 4.63887 16.2192 4.51806 16.0478 4.45871C15.8764 4.39937 15.689 4.40571 15.522 4.47652C15.1793 4.67166 15.1603 4.84062 15.0246 5.07146C14.889 5.3023 14.5701 5.1024 14.7224 4.15762C14.087 3.82208 14.4844 2.76545 14.1512 2.30616C13.6324 1.59222 12.7234 1.72549 12.4187 1.87542C12.2461 1.74256 12.0403 1.65965 11.8237 1.63573C11.6072 1.61182 11.3883 1.6478 11.1908 1.73977C10.7434 1.95395 10.2579 2.38469 10.2817 4.06719C9.86524 5.84727 10.2103 6.98956 10.5911 7.37509C10.8528 7.63686 11.4835 7.85104 12.0927 7.85104V8.69586C12.0927 8.69586 10.3388 10.4783 12.5687 10.4141C14.2464 10.3665 14.8628 8.83151 14.8628 8.83151L14.8199 6.21375C14.8199 6.21375 14.8533 6.41128 15.1769 6.48743Z" fill="#C8856A"/>
<path d="M12.9924 3.33179L13.6159 3.61023C13.6517 3.52478 13.6532 3.42882 13.6199 3.34235C13.5866 3.25588 13.5213 3.1856 13.4374 3.14617C13.3962 3.12804 13.3517 3.11848 13.3066 3.11806C13.2615 3.11764 13.2168 3.12636 13.1752 3.14372C13.1336 3.16107 13.096 3.18669 13.0645 3.21902C13.0331 3.25134 13.0086 3.28971 12.9924 3.33179Z" fill="#263238"/>
<path d="M10.5981 3.29859L11.2835 3.15104C11.2765 3.1066 11.2604 3.06407 11.2363 3.0261C11.2121 2.98814 11.1804 2.95553 11.1432 2.93032C11.1059 2.9051 11.0639 2.88781 11.0196 2.87952C10.9754 2.87123 10.93 2.87212 10.8861 2.88213C10.7934 2.90062 10.7116 2.9544 10.6579 3.03211C10.6042 3.10982 10.5827 3.20538 10.5981 3.29859Z" fill="#263238"/>
<path d="M12.7615 5.82593L11.8096 6.03535C11.8215 6.09704 11.8456 6.15575 11.8803 6.20809C11.9151 6.26044 11.9598 6.30539 12.0121 6.34035C12.0643 6.3753 12.1229 6.39957 12.1845 6.41176C12.2462 6.42395 12.3096 6.42381 12.3712 6.41135C12.4985 6.38168 12.6097 6.30463 12.6822 6.19588C12.7547 6.08713 12.783 5.95484 12.7615 5.82593Z" fill="#AF6152"/>
<path d="M12.1855 6.41134C12.2078 6.3 12.2669 6.19937 12.3532 6.12558C12.4395 6.05179 12.5481 6.00912 12.6615 6.0044C12.694 6.00195 12.7266 6.00195 12.7591 6.0044C12.7412 6.10269 12.6949 6.19361 12.626 6.26592C12.5571 6.33824 12.4685 6.38879 12.3712 6.41134C12.31 6.42439 12.2467 6.42439 12.1855 6.41134Z" fill="#F28F8F"/>
<path d="M10.6504 3.95538C10.6285 4.00575 10.6219 4.06151 10.6315 4.11562C10.6412 4.16973 10.6666 4.21977 10.7046 4.25945C10.7427 4.29912 10.7916 4.32665 10.8453 4.33857C10.8989 4.35049 10.9549 4.34626 11.0061 4.32642C11.0574 4.30658 11.1016 4.27201 11.1333 4.22708C11.1649 4.18214 11.1826 4.12884 11.184 4.0739C11.1854 4.01895 11.1705 3.96482 11.1412 3.91832C11.1119 3.87182 11.0695 3.83503 11.0193 3.81259C10.9857 3.79758 10.9495 3.78936 10.9128 3.78842C10.876 3.78748 10.8394 3.79383 10.8051 3.80711C10.7708 3.82038 10.7395 3.84032 10.7129 3.86577C10.6864 3.89122 10.6652 3.92168 10.6504 3.95538Z" fill="#263238"/>
<path d="M12.7925 4.06964C12.7626 4.13723 12.7606 4.21385 12.7869 4.2829C12.8132 4.35194 12.8656 4.40785 12.9329 4.4385C12.9831 4.4609 13.0389 4.46792 13.0931 4.45866C13.1473 4.4494 13.1976 4.42428 13.2376 4.38648C13.2775 4.34868 13.3054 4.29988 13.3177 4.24625C13.3299 4.19262 13.326 4.13656 13.3064 4.08514C13.2869 4.03373 13.2525 3.98926 13.2077 3.95736C13.1629 3.92546 13.1096 3.90755 13.0546 3.90589C12.9996 3.90423 12.9454 3.9189 12.8987 3.94804C12.8521 3.97718 12.8151 4.0195 12.7925 4.06964Z" fill="#263238"/>
<path d="M12.1118 3.71973L11.8881 5.53074L10.9053 5.19519C11.1837 4.49316 11.6311 3.7935 12.1118 3.71973Z" fill="#AF6152"/>
<path d="M12.0926 7.83915C12.966 7.83915 14.0179 7.5631 14.3582 7.01575C14.1559 7.61545 13.5277 7.90102 13.0303 8.01525C12.719 8.09525 12.3997 8.13995 12.0784 8.14852L12.0926 7.83915Z" fill="#AF6152"/>
<path d="M19.256 23.9527C19.4559 23.7456 19.7105 23.5624 19.7962 23.2768C19.8218 23.2039 19.8298 23.126 19.8195 23.0495C19.8091 22.973 19.7808 22.9 19.7367 22.8365C19.7148 22.8132 19.6978 22.7857 19.6867 22.7556C19.6808 22.729 19.6808 22.7014 19.6867 22.6747C19.7167 22.5673 19.7117 22.4531 19.6725 22.3487C19.6533 22.3054 19.6252 22.2666 19.5899 22.235C19.5546 22.2034 19.513 22.1797 19.4678 22.1654C19.5213 22.0048 19.5213 21.8311 19.4678 21.6704C19.4083 21.4824 19.2179 21.3278 19.087 21.5348C19.025 21.6382 18.9732 21.7474 18.9323 21.8608C18.8302 22.1431 18.7607 22.4361 18.7253 22.7342C18.6872 23.0436 18.5944 23.9241 19.0751 23.9741C19.1227 23.9765 19.2298 23.9812 19.256 23.9527Z" fill="#AF6152"/>
<path d="M17.452 9.6311C19.2987 10.019 19.4724 10.6044 20.5457 12.1465C21.619 13.6886 22.9564 15.7947 23.2848 16.542C23.6917 17.4677 23.775 17.8199 22.7755 18.7742C22.2591 19.2668 21.5428 19.8499 20.8098 20.5115C20.2339 21.0326 19.5414 21.5847 18.9822 22.1249C18.9074 22.1829 18.8506 22.2608 18.8182 22.3496C18.7858 22.4384 18.7791 22.5346 18.7989 22.6271C18.836 22.7498 18.8662 22.8746 18.8893 23.0007C18.8857 23.1652 18.869 23.3291 18.8394 23.4909C18.8256 23.5726 18.8357 23.6566 18.8687 23.7326C18.9016 23.8087 18.9559 23.8735 19.025 23.9193C19.1 23.9513 19.1821 23.9628 19.263 23.9526C19.1233 24.0542 18.9693 24.1344 18.806 24.1906C18.6402 24.2445 18.4602 24.2343 18.3015 24.162C18.1516 24.0859 18.0421 23.9407 17.8827 23.8884C17.797 23.8622 17.7042 23.8646 17.6162 23.8384C17.5266 23.8114 17.4476 23.7574 17.3901 23.6837C17.302 23.5671 17.2687 23.4005 17.1402 23.3267C17.0783 23.2934 17.0069 23.2863 16.9403 23.2577C16.8768 23.2248 16.8221 23.1771 16.7807 23.1188C16.7393 23.0604 16.7124 22.993 16.7023 22.9222C16.6836 22.7794 16.6901 22.6344 16.7214 22.4938C16.7867 22.1127 16.8725 21.7353 16.9784 21.3634C17.0222 21.2386 17.0866 21.122 17.1688 21.0184C17.2592 20.8946 17.3449 20.7804 17.4401 20.6495C18.0945 19.8523 20.1697 17.1893 20.1697 17.1893L17.8779 14.186C17.3837 13.5446 17.0814 12.7764 17.006 11.9702C16.9306 11.164 17.0852 10.353 17.452 9.6311Z" fill="#C8856A"/>
<path d="M20.1602 17.1893C20.7123 17.7533 21.588 17.8152 21.9093 17.8033C21.584 17.93 21.2296 17.9621 20.8868 17.896C20.5441 17.8299 20.227 17.6682 19.9722 17.4297L20.1602 17.1893Z" fill="#AF6152"/>
<path d="M21.3286 20.0595L20.8074 20.5116C20.307 20.4349 19.8535 20.1734 19.5366 19.7786C18.9583 19.0885 19.0035 18.5888 19.0035 18.5888L19.6056 17.9058L21.3286 20.0595Z" fill="#F0F0F0"/>
<path d="M17.4306 9.32898C18.7561 9.61931 19.0036 9.80494 19.9508 11.1233C20.8979 12.4417 22.4971 14.9786 22.9136 15.6449C23.33 16.3113 23.9512 17.4298 23.5918 17.9961C23.2325 18.5625 21.262 20.2236 21.262 20.2236C20.7514 20.1506 20.2838 19.8974 19.9436 19.5097C19.751 19.3289 19.5967 19.1112 19.49 18.8696C19.3833 18.628 19.3263 18.3673 19.3225 18.1032L20.0531 17.187C20.0531 17.187 18.0089 14.5526 17.6376 14.0671C17.2664 13.5816 16.4525 11.9372 17.4306 9.32898Z" fill="#BA68C8"/>
<path opacity="0.15" d="M20.0532 17.1869C20.3173 16.8895 20.967 16.4016 21.4406 16.3207C20.9432 16.2326 20.2031 16.5896 19.8533 16.9156L20.0532 17.1869Z" fill="black"/>
</svg>
