<svg width="38" height="57" viewBox="0 0 38 57" fill="none" xmlns="http://www.w3.org/2000/svg">
<path d="M8.1113 43.0637C7.96524 43.1184 7.83382 43.2062 7.72731 43.3202C7.6208 43.4341 7.54208 43.5711 7.49731 43.7205C7.50212 44.1741 7.57266 44.6246 7.70674 45.058C7.94798 45.8011 7.96618 46.5987 7.75909 47.3521C7.53539 48.1327 7.52111 49.6962 8.15651 50.4839C8.50686 50.8875 8.95157 51.1982 9.45106 51.3884C9.95056 51.5786 10.4893 51.6423 11.0194 51.5738C11.9713 51.431 12.2712 51.0336 12.3187 50.3316L8.1113 43.0637Z" fill="#37474F"/>
<path d="M8.29936 49.8556C8.20283 49.7089 8.12902 49.5485 8.08042 49.3797C7.93784 48.9269 7.9004 48.4475 7.97095 47.978C8.11015 47.4923 8.20729 46.9954 8.26128 46.493C8.29572 45.9635 8.26293 45.4317 8.16371 44.9105C8.0828 44.4964 7.92573 44.0561 7.94953 43.6301C8.02806 42.3332 9.33932 42.0571 10.0247 41.7097L12.0428 39.0348L14.087 42.2189C14.087 42.2189 12.8376 43.1708 12.4949 43.5088C12.0356 43.9586 11.7334 44.8058 11.5692 45.3864C11.3455 46.1384 11.0313 46.9476 11.2669 47.7281C11.4147 48.1434 11.6054 48.5422 11.8357 48.918C11.9025 49.0252 11.9516 49.1426 11.9809 49.2655C12.0475 49.6058 11.8262 49.9294 11.6168 50.2174C11.2765 50.6648 10.8552 51.1693 10.2912 51.1693C9.96974 51.1429 9.66216 51.0266 9.40357 50.8337C8.97166 50.5878 8.59563 50.2547 8.29936 49.8556Z" fill="#F28F8F"/>
<path d="M11.6859 48.3422C11.574 47.9805 11.2813 46.9952 11.4027 46.4717C11.5432 45.8161 11.7391 45.1737 11.9881 44.5512C12.1666 44.2299 12.3736 44.0871 12.2665 44.03C11.5362 44.0041 10.8054 44.064 10.089 44.2085C9.59402 44.3513 9.61306 44.6702 9.42982 44.9724C9.56063 44.5779 9.58364 44.1556 9.49645 43.7492C9.37508 43.3518 9.21088 42.2309 9.82962 41.8454L10.0224 41.7074C10.0224 41.7074 9.99145 41.5384 9.73205 41.6907C9.47266 41.843 8.58262 42.3356 8.30418 42.6426C8.10761 42.8146 7.96004 43.0355 7.87645 43.2829C7.79286 43.5304 7.77622 43.7955 7.82823 44.0514C7.95198 44.8011 8.12808 45.0034 8.15188 45.772C8.1847 46.4627 8.11249 47.1544 7.9377 47.8234C7.77539 48.5732 7.88859 49.3563 8.25659 50.0295L11.6859 48.3422Z" fill="#455A64"/>
<path d="M23.937 23.2855C23.937 23.2855 23.9227 27.8808 22.4735 32.4095C21.3954 35.7722 19.8248 37.4499 19.3488 37.8902C17.2237 39.8487 12.9853 43.09 12.9853 43.09C12.9853 43.09 11.1195 42.0952 10.9553 40.3913C12.4903 38.3733 13.9562 35.2272 15.6768 34.2182L14.5892 23.2545L23.937 23.2855Z" fill="#37474F"/>
<path d="M10.3317 51.1979C10.8981 51.2431 12.088 51.2693 12.3069 50.3793C12.4878 49.6653 11.8643 48.6516 11.6858 48.3422C11.6073 48.2637 10.7815 48.0495 9.60826 48.3279C8.43503 48.6063 8.11614 48.9895 8.06616 49.5987C8.25614 50.0507 8.56924 50.4402 8.96978 50.723C9.37032 51.0057 9.84222 51.1703 10.3317 51.1979Z" fill="#F0F0F0"/>
<path d="M22.9183 50.1103C22.6613 50.1103 22.5519 49.9199 22.4614 49.1251C22.371 48.3302 22.2234 44.801 22.2234 44.801L18.2754 45.841C18.2754 45.841 19.0488 48.7419 19.2987 49.582C19.5771 50.5149 19.9698 51.7952 19.9817 52.4996C19.9936 53.204 19.8341 55.1531 20.6718 55.5933C21.5095 56.0336 22.3615 55.7171 22.9778 55.3982C23.5942 55.0793 24.4057 53.8299 25.1006 53.2278C25.7955 52.6257 26.3833 52.3116 26.9473 51.6714C27.5113 51.0313 27.6612 49.3226 27.0187 48.899C26.3762 48.4754 25.4005 48.7848 24.8079 49.0632C24.2153 49.3416 23.3943 50.127 22.9183 50.1103Z" fill="#F28F8F"/>
<path d="M12.9234 23.2545C12.6688 24.968 12.5641 26.9622 13.5517 29.3706C14.5393 31.7789 14.851 32.9926 17.0285 38.4494C16.9143 39.6131 16.8191 40.7721 17.4474 43.04C18.2256 45.8601 19.0823 48.8943 19.0823 48.8943C19.0823 48.8943 20.0961 47.6187 22.4378 48.1565C22.4497 46.8072 22.1522 39.9534 22.057 38.0258C21.8976 34.8726 20.6982 27.5548 20.6982 27.5548C20.6982 27.5548 23.3778 25.9056 23.9442 23.2712L12.9234 23.2545Z" fill="#455A64"/>
<path d="M20.0628 54.9794C19.9061 54.277 19.846 53.5564 19.8844 52.8376C19.901 51.8096 19.7463 51.4812 19.7463 51.4812C19.7463 51.4812 19.9201 50.8172 21.0457 50.0985C22.1713 49.3798 22.7853 49.832 22.7853 49.832C22.7853 49.832 22.9805 50.2698 23.7182 49.5797L24.7772 51.267L20.0628 54.9794Z" fill="#455A64"/>
<path d="M27.1163 48.8206C26.7665 48.4113 26.1454 48.3446 25.2815 48.6802C24.7053 48.8814 24.1724 49.1898 23.7109 49.5893C23.7109 49.5893 23.1945 50.3341 23.7989 50.9386C24.4034 51.5431 27.1163 48.8206 27.1163 48.8206Z" fill="#F0F0F0"/>
<path d="M27.6375 49.5987C27.6333 49.3757 27.5409 49.1634 27.3805 49.0085C27.3305 48.968 27.1425 48.849 27.1163 48.8205C26.6665 48.4587 25.7289 49.0442 24.9293 49.632C23.9964 50.3173 23.0493 51.7881 22.2521 52.7685C21.4548 53.749 20.5576 54.0655 20.2269 54.4986C20.1183 54.6328 20.0579 54.7995 20.0553 54.9721C20.0527 55.1447 20.1081 55.3132 20.2126 55.4505C20.2507 55.5029 20.3982 55.6695 20.4268 55.7028C20.5683 55.838 20.7395 55.9381 20.9267 55.9952C21.114 56.0522 21.3119 56.0646 21.5048 56.0312C22.4805 55.9455 23.1968 55.7123 24.1035 54.6676C25.0102 53.6229 25.4862 53.085 26.4833 52.4568C27.4804 51.8285 27.7422 50.5244 27.6375 49.5987Z" fill="#37474F"/>
<path d="M27.6375 49.5986C27.4923 48.2993 26.2263 49.0608 25.1911 49.82C24.2606 50.5053 23.3134 51.976 22.5162 52.9565C21.719 53.937 20.8028 54.2392 20.491 54.6866C19.927 55.5029 20.5315 56.1145 21.5048 56.0288C22.4781 55.9431 23.1968 55.7099 24.1035 54.6652C25.0102 53.6205 25.4862 53.0826 26.4833 52.4544C27.4804 51.8261 27.7422 50.5244 27.6375 49.5986Z" fill="#263238"/>
<path d="M23.1731 49.9509C22.8708 50.0508 22.778 49.8414 22.778 49.8414C21.7761 50.6672 21.6167 51.2455 21.6167 51.2455C21.6167 51.2455 22.6138 50.2531 23.1731 49.9509Z" fill="#37474F"/>
<path d="M19.4417 27.0454C19.9176 28.559 20.3245 30.8864 20.6149 32.4475C20.9153 34.0099 21.1361 35.5866 21.2765 37.1714C21.3693 38.7563 21.4549 40.3412 21.5144 41.9309C21.5739 43.5206 21.6358 45.1032 21.6644 46.6905C21.5057 45.104 21.3685 43.523 21.2527 41.9476C21.1313 40.3674 21.029 38.7849 20.9338 37.2023C20.8862 36.4146 20.7196 34.8606 20.622 34.0753C20.5245 33.29 20.465 33.2757 20.3507 32.4927C20.2365 31.7098 20.0628 30.1558 19.9105 29.3776C19.7582 28.5994 19.6225 27.8188 19.4417 27.0454Z" fill="#37474F"/>
<path d="M36.9805 5.74634C36.9733 5.78327 36.9733 5.82125 36.9805 5.85819C37.002 5.91768 37.0805 5.93434 37.1376 5.96289C37.1805 5.98613 37.218 6.01801 37.2479 6.05651C37.2778 6.09502 37.2994 6.13931 37.3113 6.18659C37.3356 6.28141 37.3468 6.37909 37.3446 6.47693V6.78392C37.3302 6.87514 37.335 6.96838 37.3589 7.05759C37.3803 7.10519 37.4137 7.14565 37.4375 7.18848C37.5078 7.31627 37.5393 7.46187 37.5279 7.60732C37.5141 7.81564 37.4799 8.0221 37.4256 8.22369C37.3803 8.40931 37.3494 8.58779 37.2875 8.76866C37.1971 9.02329 37.0924 9.27079 37.0139 9.53019C36.9419 9.79517 36.8878 10.0647 36.852 10.3369C36.8033 10.7145 36.6743 11.0772 36.4736 11.4007C36.3715 11.5615 36.2364 11.6987 36.0772 11.8033C35.918 11.908 35.7384 11.9776 35.5503 12.0075C35.5915 11.9044 35.6195 11.7964 35.6336 11.6863C35.6553 11.5708 35.6688 11.4539 35.674 11.3364C35.6565 11.1756 35.6263 11.0165 35.5836 10.8605C35.5567 10.5376 35.5487 10.2134 35.5598 9.88953C35.5479 9.68107 35.5479 9.47211 35.5598 9.26365C35.586 9.04471 35.6217 8.82815 35.6621 8.61159C35.7431 8.18085 35.843 7.75725 35.943 7.33127L36.0762 6.77678C36.1833 6.31986 36.2928 5.86056 36.4379 5.41317C36.4523 5.35665 36.4801 5.30442 36.5189 5.26086C36.6831 5.10617 36.8877 5.32987 36.9353 5.4798C36.9535 5.54748 36.9647 5.61686 36.9686 5.68684C36.9829 5.69874 36.9829 5.72254 36.9805 5.74634Z" fill="#F28F8F"/>
<path d="M24.7842 11.491C25.5815 11.9027 29.6414 13.7066 29.6414 13.7066C29.6414 13.7066 32.6827 11.6814 33.3395 11.184C34.2415 10.501 34.4628 9.7704 34.6627 9.13024C34.8102 8.65429 34.9221 8.19499 35.1149 7.74283C35.4028 7.06698 35.6503 6.3816 35.9097 5.69622C35.9299 5.61822 35.9771 5.54991 36.043 5.50346C36.2119 5.41303 36.3571 5.74144 36.3857 5.86281C36.4142 6.00621 36.4191 6.15334 36.3999 6.29831C36.3517 6.70678 36.2721 7.11095 36.162 7.50723C36.1096 7.70714 36.0572 7.90704 36.0097 8.10694C35.9859 8.20689 35.9644 8.30684 35.943 8.40679C35.943 8.43773 35.8669 8.60669 35.943 8.59241C35.9552 8.58856 35.9664 8.5821 35.9759 8.57347C35.9854 8.56483 35.9928 8.55424 35.9978 8.54244C36.1524 8.30446 36.2952 8.05458 36.4737 7.8285C36.557 7.72141 36.6189 7.62622 36.7521 7.71904C36.8047 7.75631 36.8476 7.80552 36.8773 7.86261C36.9071 7.9197 36.923 7.98305 36.9235 8.04744C36.9143 8.39772 36.8125 8.73931 36.6284 9.03743C36.4602 9.35249 36.3376 9.68981 36.2643 10.0393C36.2405 10.3459 36.2405 10.6538 36.2643 10.9603C36.2874 11.2696 36.2222 11.579 36.0763 11.8527C35.9696 12.0118 35.832 12.1477 35.6717 12.2525C35.5289 12.3501 35.3624 12.4072 35.2219 12.5024C34.8938 12.7307 34.5835 12.9837 34.2938 13.2592C33.6513 13.8708 31.7237 16.0411 31.2192 16.4504C30.1221 17.3452 30.0578 17.3143 27.3853 16.391C23.6158 15.0892 23.6776 14.9631 23.6776 14.9631L22.2878 10.5272C23.1566 10.7439 23.9952 11.0677 24.7842 11.491Z" fill="#FFA8A7"/>
<path d="M22.2903 10.4559C23.3445 10.6654 24.4321 11.2198 24.9961 11.4721C27.4211 12.5858 29.6176 13.6139 29.6176 13.6139L31.738 12.217C31.7055 12.686 31.8303 13.1524 32.0926 13.5425C32.2369 13.7627 32.434 13.9434 32.6659 14.0681C32.8978 14.1927 33.1572 14.2575 33.4205 14.2564C33.4205 14.2564 32.6804 15.0656 31.7785 15.9889C30.8765 16.9123 30.4767 17.1193 30.1555 17.2074C29.8342 17.2954 29.4153 17.1169 28.58 16.8575C27.7447 16.5981 23.473 15.1631 23.473 15.1631L22.2903 10.4559Z" fill="#37474F"/>
<path d="M36.0383 8.48545C35.9074 8.70677 35.372 9.34693 35.3244 9.43736C35.2768 9.5278 35.2125 9.3041 35.4148 8.96141C35.6171 8.61872 35.9764 8.28555 36.0002 8.15466L36.0383 8.48545Z" fill="#F28F8F"/>
<path d="M23.5871 14.8918C23.4586 11.5196 22.4662 10.6486 21.876 10.4106L18.9798 9.90613C18.2492 9.99656 15.4839 10.9294 14.6272 11.1531C14.0751 11.2935 13.7514 12.4144 13.492 14.1897C13.2652 15.8035 13.1546 17.4315 13.1613 19.0611C13.147 20.8841 13.078 21.9431 12.6853 24.5584C16.493 25.6745 20.6005 26.4623 23.3943 24.2681C23.3229 23.7921 23.568 19.8441 23.5799 18.6804C23.5918 17.5167 23.6323 15.8056 23.5871 14.8918Z" fill="#FAFAFA"/>
<path d="M20.4243 13.5901C20.5171 12.9381 20.8859 12.7144 21.093 12.6953C21.2378 12.6754 21.3852 12.689 21.5239 12.7353C21.6625 12.7815 21.7887 12.859 21.8926 12.9619C21.7071 12.1736 21.3621 11.4317 20.8788 10.782C20.1649 9.88956 19.9602 9.77771 19.9602 9.77771L19.9316 10.7844C20.0764 11.1098 20.1695 11.4559 20.2077 11.81C20.2645 12.3292 20.2876 12.8514 20.2767 13.3736C20.3504 13.4256 20.4028 13.5025 20.4243 13.5901Z" fill="#E0E0E0"/>
<path d="M16.7311 9.70862C16.4455 9.81333 16.4931 10.1608 15.6792 10.5677C15.86 11.2861 16.193 11.9573 16.6557 12.5358C17.1185 13.1143 17.7001 13.5866 18.3612 13.9208C18.6064 13.6038 18.9365 13.3628 19.3131 13.2259C19.9128 13.0213 20.415 13.5567 20.415 13.5567C20.3528 13.3921 20.2515 13.2451 20.1199 13.1284C19.1394 12.2954 18.5278 11.7981 18.0042 11.4292C16.6192 10.4582 16.712 9.92518 16.712 9.92518L16.7311 9.70862Z" fill="#E0E0E0"/>
<path d="M13.661 11.1175C14.2651 10.9579 14.8601 10.7656 15.4434 10.5416C15.7659 10.398 16.0791 10.2343 16.3811 10.0514C16.3439 10.3413 16.3592 10.6355 16.4263 10.92C16.5358 11.465 16.8475 11.9957 17.095 12.6454C17.678 14.1613 17.6995 15.3702 17.7399 18.6591C17.7709 21.2149 17.4282 25.4962 17.3425 27.369C16.2073 27.4333 12.947 26.7313 12.3069 26.2625C12.3616 23.8827 13.0779 21.9432 12.8566 19.0493C12.6496 16.353 11.4668 11.8315 13.661 11.1175Z" fill="#263238"/>
<path d="M15.5863 11.1174C15.6196 11.8052 15.6482 12.4953 15.6672 13.1831L15.6982 14.2159L15.7196 15.2511L15.6934 15.1964C16.0932 15.4938 16.4978 15.7866 16.8833 16.0864L16.9285 16.1221L16.9047 16.1745L16.1908 17.7451V17.6951C16.3978 18.2163 16.5929 18.7399 16.7928 19.261C16.9928 19.7822 17.1855 20.3058 17.3759 20.8317C17.1522 20.32 16.9309 19.806 16.7167 19.292C16.5025 18.7779 16.2836 18.2615 16.0742 17.7427V17.7189V17.6928L16.7643 16.115L16.7881 16.203C16.3859 15.9079 15.9909 15.6033 15.5982 15.3058L15.572 15.2844V15.2511V14.2183V13.1855C15.572 12.489 15.5768 11.7996 15.5863 11.1174Z" fill="#37474F"/>
<path d="M20.4195 10.2346C21.4166 11.5768 21.8759 12.3122 22.102 14.5182C22.2662 16.1174 22.29 18.4401 22.34 19.649C22.4733 23.6613 22.7422 26.5218 22.7422 26.5218C23.3011 26.3939 23.8057 26.0933 24.1843 25.6627C23.9844 23.0735 23.8678 19.5991 23.8488 18.5948C23.8297 17.5905 23.7464 15.2631 23.6965 14.047C23.6465 12.831 23.3347 11.277 22.2971 10.4559C21.2762 10.2513 20.1958 9.97998 20.1958 9.97998L20.4195 10.2346Z" fill="#263238"/>
<path d="M21.124 10.532C21.398 10.8122 21.6472 11.1155 21.8689 11.4387C22.0919 11.761 22.2953 12.0963 22.4781 12.4429C22.6574 12.7912 22.8163 13.1496 22.9541 13.5162C23.0939 13.8826 23.2146 14.2559 23.3158 14.6347V14.6633L23.3015 14.6895L22.7328 15.6414V15.5676L23.4967 16.8574L23.5109 16.8812V16.905L23.2849 17.8688L23.0469 18.8208C22.8922 19.4633 22.728 20.1011 22.5709 20.7412C22.6994 20.0939 22.8303 19.4466 22.9684 18.8017L23.1754 17.8331L23.3896 16.867V16.9146L22.6233 15.639L22.6019 15.6033L22.6233 15.5652L23.1992 14.6133V14.6657C23.1021 14.2896 22.9862 13.9187 22.8517 13.5543C22.7185 13.1902 22.5638 12.8404 22.3972 12.4834C22.2238 12.135 22.0323 11.7958 21.8237 11.4672C21.6148 11.138 21.3809 10.8253 21.124 10.532Z" fill="#37474F"/>
<path d="M16.819 8.84229C16.6738 8.05934 15.8813 7.25022 15.522 6.5696C15.1627 5.88898 14.9651 5.40351 14.9937 4.78238C15.0127 4.4159 15.2317 3.91376 15.5077 3.80667C15.4421 3.5854 15.4221 3.35312 15.4489 3.12388C15.4756 2.89464 15.5486 2.67322 15.6634 2.473C15.7782 2.27278 15.9324 2.09793 16.1167 1.95902C16.301 1.82012 16.5116 1.72005 16.7357 1.66487C16.9902 1.6078 17.2406 1.53386 17.4853 1.44355C17.7804 1.31504 17.8447 1.07707 18.0803 0.870026C18.4872 0.517818 19.1773 0.498778 19.4486 1.02471C19.7176 0.667743 20.0888 0.672502 20.5195 0.786732C20.7008 0.825291 20.8607 0.931308 20.9667 1.08331C21.0728 1.23531 21.1171 1.42193 21.0907 1.60538C21.1897 1.53979 21.3026 1.49805 21.4205 1.48344C21.5384 1.46884 21.6581 1.48176 21.7702 1.52119C21.8823 1.56062 21.9837 1.62548 22.0664 1.7107C22.1492 1.79591 22.2111 1.89916 22.2473 2.01232C22.2901 2.2503 22.2473 2.46924 22.4043 2.69056C22.4364 2.74467 22.4813 2.79007 22.535 2.82274C22.5887 2.8554 22.6497 2.87434 22.7125 2.87786C22.7753 2.88139 22.838 2.86941 22.8951 2.84297C22.9521 2.81652 23.0018 2.77644 23.0397 2.72625C23.104 3.07846 22.9707 3.34976 22.5876 3.33548C22.6536 3.43261 22.6974 3.54309 22.716 3.65908C22.7345 3.77507 22.7272 3.89372 22.6947 4.00658C22.6511 4.14885 22.5651 4.27438 22.4481 4.36628C22.3311 4.45818 22.1887 4.51204 22.0402 4.52061C22.0284 4.71102 21.9721 4.89602 21.876 5.06082C21.7637 5.23312 21.6109 5.3753 21.431 5.4749C20.8384 5.71518 20.2193 5.88376 19.5867 5.97703L18.8466 6.14124C18.8037 6.14124 18.58 6.16742 18.5538 6.20549L16.819 8.84229Z" fill="#263238"/>
<path d="M15.8528 7.84034C15.99 7.93636 16.1551 7.98443 16.3225 7.97712C16.4898 7.9698 16.6501 7.90751 16.7785 7.79989L16.738 9.38482L16.7119 9.92503C16.7119 10.3677 17.2735 10.9483 17.9803 11.4433C18.9084 12.093 20.0983 13.1258 20.2863 13.2924C20.341 12.8855 20.2387 11.3458 19.9317 10.7841L19.9793 9.5633C20.2911 9.56448 20.6027 9.5462 20.9122 9.50857C21.2261 9.45037 21.516 9.30111 21.7458 9.07938C21.9756 8.85766 22.1351 8.57325 22.2044 8.26156C22.3917 7.38285 22.4078 6.47628 22.252 5.59145C22.2051 5.37425 22.1891 5.15154 22.2044 4.92987C22.2427 4.45821 22.171 3.98409 21.995 3.54484C21.3096 3.00701 19.3915 2.91896 17.9493 3.82803C18.2706 4.56814 18.085 5.32967 17.4567 5.6676C17.4901 5.90558 17.5257 6.49577 17.1402 6.49101C16.8618 6.49101 16.838 6.13642 16.55 5.83419C16.2621 5.53196 15.5981 5.4558 15.3411 5.91272C15.1762 6.24106 15.1372 6.61841 15.2315 6.97353C15.3258 7.32865 15.5467 7.63699 15.8528 7.84034Z" fill="#FFA8A7"/>
<path d="M19.9793 9.56333C19.0012 9.461 18.2564 9.36343 17.74 8.66378C17.4978 8.3026 17.2952 7.91644 17.1355 7.51196C17.204 8.01438 17.3518 8.50275 17.5734 8.95887C17.8256 9.40627 18.4325 9.77513 19.9674 9.88698L19.9793 9.56333Z" fill="#F28F8F"/>
<path d="M21.8881 4.81321L21.2336 4.64187C21.2436 4.59962 21.262 4.55981 21.2877 4.52481C21.3133 4.4898 21.3458 4.46032 21.3831 4.43812C21.4204 4.41591 21.4618 4.40144 21.5048 4.39556C21.5478 4.38968 21.5916 4.39251 21.6334 4.40389C21.7194 4.42795 21.7932 4.48331 21.8403 4.55908C21.8874 4.63484 21.9045 4.7255 21.8881 4.81321Z" fill="#263238"/>
<path d="M21.7785 5.42962C21.7766 5.48377 21.7589 5.53618 21.7274 5.5803C21.696 5.62443 21.6522 5.65833 21.6017 5.67777C21.5511 5.69721 21.4959 5.70134 21.443 5.68964C21.3901 5.67793 21.3418 5.65092 21.3041 5.61196C21.2665 5.573 21.2411 5.52382 21.2312 5.47055C21.2213 5.41727 21.2273 5.36226 21.2484 5.31237C21.2696 5.26248 21.305 5.21992 21.3501 5.18999C21.3953 5.16005 21.4483 5.14408 21.5025 5.14404C21.5393 5.14466 21.5757 5.15254 21.6096 5.16723C21.6434 5.18192 21.674 5.20313 21.6996 5.22964C21.7253 5.25616 21.7454 5.28747 21.759 5.32179C21.7725 5.3561 21.7791 5.39274 21.7785 5.42962Z" fill="#263238"/>
<path d="M19.6437 5.57244C19.6419 5.62659 19.6241 5.679 19.5927 5.72313C19.5612 5.76725 19.5175 5.80115 19.4669 5.82059C19.4163 5.84003 19.3611 5.84416 19.3082 5.83246C19.2553 5.82076 19.207 5.79374 19.1694 5.75478C19.1317 5.71582 19.1063 5.66664 19.0964 5.61337C19.0865 5.5601 19.0925 5.50509 19.1137 5.4552C19.1348 5.40531 19.1702 5.36274 19.2154 5.33281C19.2605 5.30288 19.3135 5.2869 19.3677 5.28687C19.4046 5.28748 19.441 5.29536 19.4748 5.31005C19.5086 5.32474 19.5392 5.34595 19.5649 5.37247C19.5905 5.39899 19.6107 5.4303 19.6242 5.46461C19.6377 5.49892 19.6444 5.53556 19.6437 5.57244Z" fill="#263238"/>
<path d="M21.4739 6.57901L20.522 7.01451L20.2031 5.14401C20.5553 5.01312 21.0146 5.86746 21.4739 6.57901Z" fill="#F28F8F"/>
<path d="M19.3487 4.71345L18.7276 4.98713C18.6933 4.90195 18.693 4.80691 18.7266 4.72151C18.7603 4.6361 18.8253 4.5668 18.9084 4.52783C18.9494 4.50977 18.9935 4.50026 19.0383 4.49989C19.083 4.49952 19.1274 4.50829 19.1686 4.52567C19.2098 4.54306 19.2471 4.56868 19.278 4.60097C19.309 4.63326 19.333 4.67153 19.3487 4.71345Z" fill="#263238"/>
<path d="M19.475 7.54761L20.6268 7.78559C20.6151 7.86212 20.588 7.93549 20.5472 8.00128C20.5064 8.06706 20.4527 8.12391 20.3893 8.16838C20.3259 8.21285 20.2542 8.24403 20.1785 8.26005C20.1027 8.27606 20.0245 8.27657 19.9486 8.26154C19.7922 8.22772 19.6551 8.13417 19.5667 8.00082C19.4782 7.86747 19.4453 7.70486 19.475 7.54761Z" fill="#B16668"/>
<path d="M19.6153 7.72613C19.5686 7.72134 19.5215 7.72134 19.4749 7.72613C19.4892 7.85203 19.543 7.97019 19.6285 8.06377C19.7139 8.15735 19.8267 8.22157 19.9508 8.2473C20.013 8.25795 20.0766 8.25795 20.1388 8.2473C20.134 8.11019 20.0773 7.98003 19.98 7.88323C19.8828 7.78644 19.7524 7.73027 19.6153 7.72613Z" fill="#F28F8F"/>
<path d="M6.90022 30.6984C7.06919 30.6652 7.22967 30.5981 7.372 30.5011C7.51433 30.4042 7.63556 30.2794 7.72838 30.1344C7.80606 29.8523 7.78678 29.5523 7.67365 29.2824C7.55228 29.1135 7.01445 28.4162 6.80979 28.4495C6.60513 28.4828 6.2791 29.5133 6.40999 29.9321C6.51788 30.2191 6.68491 30.4802 6.90022 30.6984Z" fill="#F28F8F"/>
<path d="M11.3837 34.1636L10.3484 41.2744C10.2985 41.6195 10.0248 41.7837 9.70115 41.9146L8.88964 42.2382C8.79793 42.2866 8.69677 42.3145 8.5932 42.3198C8.48964 42.3251 8.38615 42.3079 8.28994 42.2691C8.1594 42.2146 8.0369 42.1426 7.92583 42.055H7.91156L7.87348 42.0264L0.862646 36.4791C0.611272 36.2808 0.416494 36.0198 0.297864 35.7224C0.179235 35.425 0.140927 35.1016 0.186789 34.7847L1.1387 28.3094C1.15492 28.2294 1.18992 28.1545 1.24082 28.0908C1.29172 28.0271 1.35705 27.9764 1.43141 27.9429L2.81407 27.3908C2.89311 27.3632 2.97763 27.3551 3.06048 27.3671C3.14333 27.3791 3.22206 27.4109 3.29002 27.4598L11.2099 33.7257C11.2721 33.7786 11.3197 33.8467 11.348 33.9233C11.3818 33.9986 11.3942 34.0817 11.3837 34.1636Z" fill="#37474F"/>
<path d="M11.3836 34.1633L10.3484 41.2741C10.2984 41.6192 10.0247 41.7834 9.7011 41.9143L8.88959 42.2379C8.79788 42.2863 8.69672 42.3142 8.59315 42.3195C8.48958 42.3249 8.3861 42.3076 8.28989 42.2689C8.15935 42.2144 8.03685 42.1423 7.92578 42.0547C8.20422 42.2379 8.46123 42.1166 8.51359 41.7644L9.4893 35.0653C9.50353 34.9422 9.48548 34.8175 9.43694 34.7035L11.3598 33.9373C11.3871 34.0093 11.3953 34.0872 11.3836 34.1633Z" fill="#263238"/>
<path d="M9.47724 35.0534C9.48857 34.9306 9.47077 34.807 9.42528 34.6924C9.37979 34.5779 9.30791 34.4757 9.21547 34.3942L1.70964 28.4685C1.41217 28.2305 1.12421 28.3471 1.06948 28.7231L0.186581 34.7844C0.13971 35.1012 0.177305 35.4246 0.295564 35.7222C0.413823 36.0197 0.608553 36.2807 0.860059 36.4788L7.86137 42.0071C8.15885 42.245 8.4468 42.1261 8.50153 41.7524L9.47724 35.0534Z" fill="#455A64"/>
<path d="M2.35714 27.569L10.3056 33.8992C10.4175 33.9891 10.5039 34.1066 10.5565 34.2402C10.6091 34.3737 10.626 34.5187 10.6055 34.6607L9.53932 41.9785L9.39653 42.0357L10.4746 34.6417C10.491 34.5226 10.4765 34.4014 10.4323 34.2896C10.3881 34.1779 10.3158 34.0795 10.2223 34.0039L2.21436 27.6261L2.35714 27.569Z" fill="#BA68C8"/>
<path opacity="0.2" d="M10.5554 34.2395C10.6089 34.3731 10.6262 34.5184 10.6054 34.6607L9.53927 41.9785L9.39648 42.0357L10.4745 34.6417C10.4918 34.5226 10.477 34.401 10.4317 34.2895L10.5554 34.2395Z" fill="black"/>
<path opacity="0.2" d="M10.4317 34.2895C10.3881 34.1776 10.3159 34.0792 10.2223 34.0039L2.21436 27.6261L2.35714 27.569L10.3056 33.8992C10.4135 33.9897 10.4956 34.1071 10.5436 34.2395" fill="black"/>
<path d="M5.30795 28.9279L5.14612 30.0297L4.67017 30.2153L4.88435 28.7542C4.88435 28.678 4.95098 28.6542 5.01047 28.7018L5.30795 28.9279Z" fill="#BA68C8"/>
<path opacity="0.4" d="M5.30795 28.9279L5.14612 30.0297L4.67017 30.2153L4.88435 28.7542C4.88435 28.678 4.95098 28.6542 5.01047 28.7018L5.30795 28.9279Z" fill="black"/>
<path d="M8.17784 30.458L7.92558 32.2404L7.47818 32.4189L7.21165 32.2166L7.42345 30.7554C7.42772 30.7142 7.42194 30.6725 7.40661 30.634C7.39128 30.5954 7.36684 30.5612 7.3354 30.5341L5.41491 29.0158L5.01511 28.7017C4.95562 28.6541 4.8985 28.6779 4.88898 28.7541L4.6748 30.2152L4.42017 30.0153L4.67956 28.2329V28.2091C4.69034 28.1731 4.70864 28.1399 4.73326 28.1116C4.75788 28.0833 4.78825 28.0605 4.82235 28.0449L5.01273 27.9687C5.05236 27.9552 5.09466 27.9514 5.13607 27.9576C5.17747 27.9638 5.21679 27.9799 5.25071 28.0044L8.07789 30.2343C8.11078 30.2612 8.13694 30.2955 8.15429 30.3343C8.17164 30.3731 8.17971 30.4155 8.17784 30.458Z" fill="#BA68C8"/>
<path opacity="0.2" d="M7.73044 30.6318L7.47104 32.4167L7.21165 32.2168L7.42345 30.7556C7.42772 30.7143 7.42194 30.6727 7.40661 30.6341C7.39128 30.5956 7.36684 30.5613 7.3354 30.5343L5.41491 29.016L5.01511 28.7018C4.95562 28.6543 4.8985 28.6781 4.88898 28.7542L4.6748 30.2154L4.42017 30.0155L4.67956 28.233V28.2092C4.69622 28.1545 4.74858 28.1402 4.80093 28.1807L7.62811 30.4129C7.66136 30.4386 7.68798 30.4719 7.70578 30.51C7.72358 30.5481 7.73203 30.5898 7.73044 30.6318Z" fill="black"/>
<path d="M4.63002 29.0849C4.58531 28.5769 4.57498 28.0665 4.59908 27.5571C4.64602 27.1096 4.72394 26.6659 4.8323 26.2292C5.04648 25.1392 5.54623 21.8789 6.04599 20.2155L8.79463 22.1835C8.79463 22.1835 7.23588 25.6866 7.08119 26.2696C6.98838 26.6171 7.31917 27.0835 7.45244 27.4119C7.55905 27.7268 7.62619 28.0538 7.65234 28.3852C7.69319 28.7426 7.76647 29.0954 7.87128 29.4395C7.88854 29.4809 7.89665 29.5255 7.89508 29.5704C7.88363 29.6233 7.85296 29.6701 7.80901 29.7018C7.76506 29.7334 7.71093 29.7476 7.6571 29.7417C7.5453 29.7199 7.44444 29.6603 7.37152 29.5728C7.19547 29.3618 7.06065 29.1196 6.9741 28.8588C6.95982 28.8231 6.9384 28.7803 6.89795 28.7755C6.87996 28.7756 6.86236 28.7808 6.84719 28.7905C6.83203 28.8002 6.81992 28.814 6.81228 28.8303C6.76493 28.9287 6.73283 29.0339 6.71708 29.142C6.69705 29.4178 6.74019 29.6945 6.84321 29.9511C6.92651 30.2034 7.28585 30.4461 7.38104 30.5413C7.34059 30.5699 7.25729 30.6246 7.2097 30.6508C7.12784 30.6963 7.04177 30.7337 6.95268 30.7626C6.78194 30.8025 6.60238 30.7734 6.45293 30.6817C6.24589 30.577 6.11024 30.3533 5.88654 30.2891C5.82705 30.2724 5.76517 30.2676 5.7033 30.2557C5.56381 30.2385 5.43614 30.1687 5.34633 30.0606C5.27256 29.963 5.244 29.8345 5.15119 29.756C5.09881 29.7204 5.043 29.6901 4.98461 29.6656C4.88185 29.6059 4.79561 29.5216 4.73369 29.4202C4.67178 29.3188 4.63614 29.2035 4.63002 29.0849Z" fill="#FFA8A7"/>
<path d="M9.49641 20.9389C9.49641 20.9389 12.395 17.4335 12.9995 16.6553C13.6039 15.8771 14.7391 12.9476 13.661 11.1176C12.1808 11.4317 11.3622 11.6887 10.1199 13.4236C8.87767 15.1584 7.17851 17.6548 6.59546 18.5853C6.1552 19.2992 6.0029 19.968 5.74112 21.2031C5.50314 22.2882 5.37939 23.1497 5.37939 23.1497C5.37939 23.1497 5.62927 23.5186 6.71683 23.7851C7.7211 24.0231 8.109 23.7232 8.109 23.7232L9.49641 20.9389Z" fill="#37474F"/>
</svg>
