<svg width="26" height="56" viewBox="0 0 26 56" fill="none" xmlns="http://www.w3.org/2000/svg">
<path d="M12.2725 42.8879C12.37 44.8678 12.5104 47.5284 12.3486 48.1519C12.3224 48.2567 13.3672 48.7564 14.1001 48.6279C14.8331 48.4994 15.0235 48.2305 15.0235 48.1519C15.0235 47.883 15.2448 47.3833 15.2757 47.1167C15.4733 45.4081 15.6327 44.0444 15.8207 42.8331L12.2725 42.8879Z" fill="#B16668"/>
<path d="M23.0507 43.9587L19.719 43.5232C19.9927 45.2105 20.283 46.962 20.4972 48.1471C20.5482 48.5024 20.6294 48.8527 20.7399 49.1942C20.8637 49.9581 22.6747 50.1318 23.0935 48.9419L23.0626 47.9091C23.0626 46.9477 23.0483 45.3675 23.0507 43.9587Z" fill="#B16668"/>
<path d="M8.28167 51.8667C8.26408 51.9609 8.27178 52.0581 8.30396 52.1484C8.33615 52.2387 8.39169 52.3189 8.46492 52.3807C9.13826 52.8659 9.97265 53.073 10.7947 52.959C11.9489 52.8234 12.2559 52.5687 12.739 52.226C13.2221 51.8833 13.8313 51.1313 14.3549 51.0219C14.8308 50.9219 15.4186 50.7672 15.6209 50.5126C15.7518 50.346 15.7209 49.8248 15.7209 49.8248L8.28167 51.8667Z" fill="#263238"/>
<path d="M15.3045 46.8834C15.3493 46.8852 15.3923 46.9015 15.4271 46.9298C15.4618 46.9581 15.4865 46.997 15.4973 47.0405C15.5306 47.2214 15.5663 47.8567 15.64 48.1518C15.743 48.7812 15.7622 49.4213 15.6972 50.0557C15.6305 50.3912 14.6263 50.5887 14.1194 50.7696C13.6125 50.9505 13.1841 51.5121 12.6558 51.9309C12.0407 52.4037 11.2897 52.6657 10.514 52.6782C9.62395 52.6639 8.62683 52.3736 8.40075 51.9643C8.12231 51.4621 8.08424 50.9838 9.4074 50.396C9.65965 50.2841 10.5473 49.6011 10.8353 49.406C11.1402 49.1903 11.4282 48.9516 11.6967 48.6921C11.8134 48.5826 11.9347 48.4731 12.0371 48.3541C12.1216 48.2457 12.1846 48.1221 12.2227 47.99C12.2729 47.7461 12.304 47.4987 12.3155 47.2499C12.3179 47.2268 12.3261 47.2047 12.3393 47.1857C12.3559 47.1696 12.3764 47.1581 12.3988 47.1523C12.6104 47.0989 12.8306 47.0892 13.0461 47.1238C13.2673 47.1463 13.4848 47.1966 13.6934 47.2737C13.8111 47.302 13.9158 47.3691 13.9909 47.4641C14.031 47.5368 14.0507 47.619 14.048 47.7021C14.042 47.7853 14.042 47.8688 14.048 47.9519C14.05 47.9825 14.0617 48.0117 14.0813 48.0352C14.1241 48.0805 14.1979 48.0352 14.236 48.0114C14.3657 47.8824 14.4858 47.744 14.5953 47.5974C14.6572 47.5212 14.938 47.476 15.0165 47.4165C15.0951 47.357 15.1784 47.2237 15.2426 47.1642C15.3069 47.1047 15.2997 46.9881 15.3045 46.8834Z" fill="#37474F"/>
<path d="M12.6486 51.9262C12.8633 51.7767 13.0584 51.6008 13.2292 51.4026C13.2292 51.4026 11.8537 52.0023 11.2326 51.5787C10.8304 51.305 11.0256 50.979 11.0375 50.8648C11.0494 50.7505 10.057 50.3031 9.66432 50.2532C9.55485 50.3127 9.46442 50.3603 9.40492 50.3841C8.18172 50.8862 8.14602 51.3526 8.27453 51.8571C8.49823 52.2617 9.34543 52.6805 10.4949 52.6901C11.2753 52.6684 12.0289 52.401 12.6486 51.9262Z" fill="#455A64"/>
<path d="M11.1565 50.5696C10.3331 50.8838 10.6805 51.0456 10.9185 51.0694C11.1565 51.0932 12.3464 50.1627 13.2007 49.5178C14.086 48.8467 14.7333 48.0661 15.0641 47.8186C15.1854 47.7258 15.4377 47.5687 15.5567 47.464C15.5353 47.2879 15.521 47.1261 15.5043 47.0404C15.4914 46.9932 15.4674 46.9498 15.4342 46.9138C15.4011 46.8778 15.3599 46.8502 15.3139 46.8334L15.264 47.1665C15.1785 47.233 15.0829 47.2852 14.9808 47.3212C14.8404 47.3861 14.716 47.4812 14.6167 47.5997C14.5072 47.7463 14.3871 47.8847 14.2573 48.0138C13.5244 48.8966 11.9775 50.2555 11.1565 50.5696Z" fill="#263238"/>
<path d="M10.9684 50.9529C10.9873 50.9536 11.0058 50.9477 11.0208 50.9362C11.0282 50.9289 11.0341 50.9202 11.0381 50.9106C11.0421 50.901 11.0442 50.8907 11.0442 50.8803C11.0442 50.8699 11.0421 50.8596 11.0381 50.85C11.0341 50.8404 11.0282 50.8317 11.0208 50.8244C10.8278 50.6254 10.5948 50.4696 10.3372 50.3675C10.0795 50.2653 9.80313 50.2191 9.52626 50.2318C9.51572 50.2324 9.50541 50.2351 9.49594 50.2398C9.48648 50.2444 9.47806 50.251 9.47117 50.259C9.46429 50.267 9.45908 50.2763 9.45587 50.2863C9.45266 50.2964 9.45151 50.307 9.45249 50.3175C9.45488 50.3385 9.46545 50.3578 9.48192 50.3712C9.49839 50.3845 9.51943 50.3909 9.54054 50.3889C9.79075 50.38 10.0401 50.4227 10.2731 50.5144C10.5061 50.6061 10.7176 50.7449 10.8946 50.9219C10.903 50.9332 10.9143 50.9421 10.9273 50.9475C10.9403 50.953 10.9545 50.9548 10.9684 50.9529Z" fill="#F0F0F0"/>
<path d="M11.7609 50.4126C11.776 50.4129 11.7908 50.4089 11.8037 50.4012C11.8166 50.3935 11.8271 50.3823 11.834 50.369C11.8409 50.3556 11.844 50.3406 11.8428 50.3257C11.8417 50.3107 11.8364 50.2963 11.8276 50.2841C11.6383 50.0815 11.4085 49.921 11.153 49.8132C10.8975 49.7053 10.6222 49.6525 10.345 49.6583C10.3333 49.6573 10.3216 49.6589 10.3107 49.6629C10.2997 49.6669 10.2897 49.6733 10.2814 49.6815C10.2732 49.6898 10.2667 49.6997 10.2627 49.7106C10.2586 49.7216 10.2569 49.7333 10.2578 49.7449C10.2587 49.7566 10.262 49.7679 10.2677 49.7781C10.2734 49.7883 10.2812 49.7972 10.2906 49.8041C10.3 49.811 10.3108 49.8158 10.3222 49.8182C10.3337 49.8205 10.3455 49.8204 10.3569 49.8177C10.6071 49.8152 10.8552 49.8642 11.0856 49.9617C11.3161 50.0591 11.5241 50.2029 11.6967 50.3841C11.7044 50.3935 11.7143 50.401 11.7254 50.406C11.7366 50.4109 11.7488 50.4132 11.7609 50.4126Z" fill="#F0F0F0"/>
<path d="M12.4105 49.8724C12.4286 49.8728 12.4463 49.8669 12.4605 49.8558C12.477 49.8427 12.4877 49.8236 12.4904 49.8028C12.493 49.7819 12.4874 49.7608 12.4748 49.7439C12.2814 49.5449 12.048 49.3891 11.79 49.287C11.5319 49.1848 11.2551 49.1386 10.9779 49.1514C10.9674 49.152 10.9571 49.1547 10.9476 49.1593C10.9381 49.164 10.9297 49.1705 10.9228 49.1785C10.9159 49.1865 10.9107 49.1958 10.9075 49.2059C10.9043 49.2159 10.9032 49.2265 10.9041 49.237C10.9053 49.2477 10.9086 49.258 10.9138 49.2674C10.919 49.2768 10.926 49.285 10.9344 49.2917C10.9428 49.2983 10.9525 49.3032 10.9628 49.3061C10.9731 49.309 10.9839 49.3098 10.9946 49.3084C11.2447 49.2993 11.4939 49.3422 11.7266 49.4344C11.9593 49.5265 12.1703 49.666 12.3463 49.8439C12.3544 49.8529 12.3643 49.8601 12.3753 49.8651C12.3864 49.87 12.3984 49.8725 12.4105 49.8724Z" fill="#F0F0F0"/>
<path d="M12.9889 49.4322C13.0069 49.4326 13.0246 49.4267 13.0388 49.4155C13.0475 49.4098 13.055 49.4024 13.0607 49.3937C13.0664 49.385 13.0703 49.3752 13.0721 49.3649C13.0739 49.3547 13.0735 49.3441 13.0711 49.334C13.0686 49.3239 13.0641 49.3144 13.0579 49.3061C12.8733 49.0994 12.647 48.9343 12.3939 48.8215C12.1408 48.7087 11.8666 48.6508 11.5896 48.6516C11.5789 48.6519 11.5685 48.6543 11.5588 48.6587C11.5491 48.663 11.5403 48.6693 11.533 48.677C11.5257 48.6847 11.52 48.6938 11.5163 48.7038C11.5125 48.7137 11.5107 48.7243 11.511 48.7349C11.5128 48.756 11.5228 48.7755 11.5388 48.7892C11.5548 48.803 11.5756 48.81 11.5967 48.8087C11.847 48.811 12.0942 48.8645 12.3229 48.9661C12.5517 49.0676 12.7573 49.2149 12.927 49.3989C12.9341 49.4087 12.9434 49.4168 12.9541 49.4226C12.9648 49.4284 12.9767 49.4316 12.9889 49.4322Z" fill="#F0F0F0"/>
<path d="M13.6219 48.9563C13.6396 48.9564 13.6569 48.9515 13.6719 48.942C13.6806 48.9361 13.6881 48.9284 13.6939 48.9195C13.6996 48.9106 13.7035 48.9006 13.7053 48.8902C13.707 48.8797 13.7067 48.869 13.7042 48.8587C13.7017 48.8484 13.6972 48.8387 13.6909 48.8302C13.3934 48.4232 12.6866 48.1305 12.0822 48.1686C12.0716 48.1689 12.0613 48.1713 12.0517 48.1757C12.0421 48.1801 12.0335 48.1863 12.0264 48.1941C12.0193 48.2019 12.0139 48.211 12.0104 48.2209C12.0068 48.2309 12.0054 48.2414 12.006 48.2519C12.0066 48.2624 12.0093 48.2727 12.014 48.2822C12.0186 48.2917 12.0252 48.3001 12.0332 48.307C12.0412 48.3139 12.0505 48.3191 12.0605 48.3223C12.0706 48.3255 12.0812 48.3267 12.0917 48.3257C12.3653 48.3112 12.6387 48.3572 12.8925 48.4604C13.1463 48.5637 13.3742 48.7216 13.56 48.923C13.5671 48.9328 13.5764 48.941 13.5871 48.9467C13.5978 48.9525 13.6097 48.9558 13.6219 48.9563Z" fill="#F0F0F0"/>
<path d="M20.5708 53.2971C20.5922 54.08 20.6946 54.6036 20.9587 55.07C21.0898 55.2889 21.2902 55.4579 21.5281 55.5501C21.766 55.6423 22.0279 55.6526 22.2723 55.5793C22.8054 55.4627 23.4955 55.1271 23.6693 54.4584C23.825 53.85 23.8461 53.2149 23.7311 52.5974L20.5708 53.2971Z" fill="#263238"/>
<path d="M23.0625 47.8995C23.2458 47.9638 23.2577 49.0347 23.3481 50.0889C23.4481 51.2193 23.6337 51.5644 23.7265 52.4901C23.8288 53.5491 23.7432 53.9013 23.3529 54.5248C22.9626 55.1483 21.6347 55.7338 21.0207 54.8009C20.5186 54.0394 20.5447 53.3326 20.6209 52.2807C20.6931 51.4467 20.7177 50.6092 20.6947 49.7724C20.678 48.9823 20.2925 48.2184 20.4852 48.1351C20.502 48.3375 20.5394 48.5377 20.5971 48.7325C20.6151 48.836 20.6505 48.9358 20.7018 49.0275C20.7994 49.1799 20.8565 48.9395 20.8589 48.8491C20.8589 48.6944 20.816 48.5659 20.9422 48.4421C21.0392 48.3601 21.1529 48.3001 21.2753 48.266C21.4049 48.2188 21.5388 48.1846 21.6751 48.1637C21.9547 48.13 22.2368 48.1236 22.5176 48.1447C22.5788 48.1433 22.6395 48.1559 22.6952 48.1815C22.7508 48.207 22.8 48.2449 22.8388 48.2922C22.8543 48.3176 22.864 48.346 22.8674 48.3755C22.8841 48.4802 22.8674 48.5849 22.8888 48.6896C22.8888 48.7182 22.9031 48.7943 22.9293 48.811C22.9555 48.8277 23.0007 48.8229 23.003 48.811C23.0054 48.7991 23.0768 48.0828 23.0625 47.8995Z" fill="#37474F"/>
<path d="M23.693 52.1284C23.7097 52.2807 23.7835 53.235 23.5026 53.4064C23.2218 53.5777 23.0624 52.7971 23.0624 52.7971C23.0624 52.7971 22.3722 52.5592 21.3466 52.9732C21.3918 53.1374 21.218 53.6705 20.9444 53.5491C20.6707 53.4278 20.616 52.3878 20.6136 52.3712C20.5398 53.3802 20.5327 54.0608 21.0205 54.8009C21.6345 55.7338 22.9624 55.1507 23.3527 54.5249C23.743 53.899 23.8287 53.5492 23.7263 52.4901C23.7144 52.3854 23.7073 52.2236 23.693 52.1284Z" fill="#455A64"/>
<path d="M22.9817 52.8614C22.9817 53.2445 23.3172 53.1232 23.3886 52.5901C23.491 51.7881 23.3172 51.0147 23.3482 50.0889C23.2577 49.0347 23.2815 47.9233 23.0626 47.8995C23.0626 48.0804 23.0031 48.8038 23.0031 48.8038C23.0459 49.5916 23.222 50.5173 23.1649 51.3264C23.1197 52.0499 22.9888 52.4806 22.9817 52.8614Z" fill="#263238"/>
<path d="M21.4539 52.9661C21.3944 52.5877 21.2777 52.4782 21.2159 51.7762C21.154 51.0742 20.8137 49.7796 20.6899 49.0061C20.6566 48.7682 20.471 48.1542 20.4686 48.1447C20.3306 48.2065 20.4448 48.6515 20.5376 49.1299C20.6304 49.6082 20.6923 49.9033 20.7447 50.3626C20.9041 51.2741 20.8994 52.2379 21.0065 52.7662C21.1135 53.2945 21.5229 53.3421 21.4539 52.9661Z" fill="#263238"/>
<path d="M21.3776 52.9804H21.4061C21.939 52.7517 22.5336 52.7098 23.0934 52.8614C23.1132 52.8653 23.1337 52.8616 23.151 52.8512C23.1682 52.8407 23.1809 52.8241 23.1866 52.8047C23.1923 52.7854 23.1905 52.7646 23.1816 52.7464C23.1727 52.7283 23.1574 52.7141 23.1386 52.7067C22.5413 52.5404 21.9048 52.5858 21.3371 52.8352C21.321 52.8438 21.3082 52.8576 21.3009 52.8743C21.2936 52.8911 21.2922 52.9098 21.2969 52.9275C21.3016 52.9451 21.3121 52.9606 21.3268 52.9716C21.3414 52.9825 21.3593 52.9881 21.3776 52.9876V52.9804Z" fill="#F0F0F0"/>
<path d="M21.18 52.2166H21.2085C21.835 51.9727 22.5193 51.9181 23.1766 52.0595C23.1869 52.0622 23.1976 52.0627 23.2082 52.0613C23.2187 52.0598 23.2289 52.0562 23.238 52.0508C23.2472 52.0454 23.2552 52.0382 23.2616 52.0297C23.268 52.0212 23.2727 52.0115 23.2753 52.0012C23.278 51.9909 23.2786 51.9801 23.2771 51.9696C23.2756 51.9591 23.2721 51.9489 23.2666 51.9397C23.2612 51.9306 23.2541 51.9226 23.2456 51.9162C23.237 51.9098 23.2274 51.9051 23.217 51.9024C22.5243 51.7483 21.8012 51.8064 21.1419 52.069C21.1322 52.0734 21.1235 52.0796 21.1162 52.0874C21.1089 52.0951 21.1032 52.1042 21.0995 52.1142C21.0957 52.1241 21.0939 52.1347 21.0943 52.1453C21.0946 52.156 21.097 52.1664 21.1014 52.1761C21.1094 52.1895 21.121 52.2004 21.1349 52.2076C21.1488 52.2148 21.1644 52.2179 21.18 52.2166Z" fill="#F0F0F0"/>
<path d="M23.3076 51.436C23.3264 51.4352 23.3443 51.4279 23.3583 51.4154C23.3723 51.4028 23.3815 51.3858 23.3843 51.3672C23.3871 51.3487 23.3834 51.3297 23.3737 51.3136C23.3641 51.2975 23.3491 51.2852 23.3314 51.2789C22.3629 50.9172 21.0635 51.3336 21.0207 51.3527C21.002 51.3625 20.9878 51.3792 20.9813 51.3992C20.9747 51.4193 20.9763 51.4411 20.9856 51.4601C20.9949 51.479 21.0113 51.4935 21.0311 51.5006C21.051 51.5077 21.0729 51.5067 21.0921 51.4978C21.0921 51.4978 22.3748 51.0933 23.2743 51.4312C23.285 51.435 23.2963 51.4366 23.3076 51.436Z" fill="#F0F0F0"/>
<path d="M23.1719 50.7481C23.1869 50.7471 23.2013 50.7418 23.2135 50.733C23.2257 50.7242 23.2352 50.7121 23.2409 50.6982C23.2451 50.6884 23.2473 50.6778 23.2473 50.6671C23.2473 50.6564 23.2451 50.6459 23.2408 50.6361C23.2366 50.6263 23.2304 50.6174 23.2227 50.6101C23.2149 50.6028 23.2057 50.5971 23.1957 50.5935C22.1319 50.1722 21.0087 50.7243 20.9706 50.7481C20.9612 50.7531 20.9529 50.7599 20.9462 50.7682C20.9395 50.7765 20.9346 50.786 20.9317 50.7963C20.9288 50.8065 20.928 50.8172 20.9294 50.8277C20.9307 50.8383 20.9342 50.8485 20.9397 50.8576C20.9502 50.8761 20.9676 50.8898 20.9881 50.8956C21.0085 50.9014 21.0305 50.8988 21.0491 50.8886C21.0491 50.8886 22.1462 50.3531 23.1362 50.7434C23.1477 50.7473 23.1598 50.7489 23.1719 50.7481Z" fill="#F0F0F0"/>
<path d="M23.1314 49.9081C23.147 49.908 23.1622 49.9032 23.1749 49.8943C23.1877 49.8854 23.1974 49.8727 23.2028 49.8581C23.207 49.8483 23.2092 49.8377 23.2091 49.827C23.2091 49.8164 23.2069 49.8058 23.2027 49.796C23.1985 49.7862 23.1923 49.7774 23.1845 49.77C23.1768 49.7627 23.1676 49.757 23.1576 49.7534C22.1628 49.3441 20.9587 49.9081 20.9158 49.9319C20.9047 49.9357 20.8947 49.9419 20.8862 49.9501C20.8778 49.9583 20.8712 49.9681 20.867 49.9791C20.8628 49.99 20.861 50.0017 20.8617 50.0134C20.8625 50.0251 20.8658 50.0365 20.8714 50.0468C20.877 50.0571 20.8847 50.0661 20.8941 50.0731C20.9035 50.0801 20.9143 50.085 20.9258 50.0874C20.9373 50.0898 20.9491 50.0897 20.9605 50.0871C20.972 50.0845 20.9827 50.0794 20.992 50.0723C20.992 50.0723 22.1819 49.5225 23.0957 49.9033C23.1069 49.9084 23.1193 49.9101 23.1314 49.9081Z" fill="#EBEBEB"/>
<path d="M16.9178 30.3511L16.4037 35.5295C16.4037 35.5295 16.4846 37.1525 16.4323 38.6089C16.3799 40.0654 15.7731 44.1538 15.4804 45.7031C15.0081 45.9935 14.4689 46.1572 13.9149 46.1785C13.3609 46.1997 12.8108 46.0778 12.3176 45.8244C12.3176 45.8244 11.8417 37.3524 11.7822 35.3034C11.6894 32.5833 11.7513 24.9466 11.8036 21.703L21.9534 21.5887C21.9534 21.5887 22.0367 23.3498 22.2508 25.9533C22.3056 28.571 22.4603 35.5795 22.4603 35.5795C23.3955 38.7255 23.2004 40.7507 23.1218 46.5431C22.6886 46.8311 22.1879 47.0016 21.669 47.0379C21.15 47.0741 20.6305 46.975 20.1614 46.7502C20.1614 46.7502 18.8597 40.9982 18.3647 38.6589C18.1267 37.5452 17.3818 32.9046 16.9178 30.3297" fill="#455A64"/>
<path d="M13.058 26.7434L12.9985 30.7295C13.0175 31.3626 12.9556 32.7595 12.9794 33.3949C13.0032 34.0303 12.9913 34.4539 13.0223 35.3225C13.0532 36.1911 13.2293 41.1078 13.2603 42.3833C12.9913 40.984 12.8533 36.7932 12.7438 35.2844C12.7034 33.9184 12.7581 32.5739 12.8224 30.7224C12.8866 28.8709 12.9699 28.0142 13.058 26.7434Z" fill="#37474F"/>
<path d="M18.7861 25.8129C19.1883 27.919 19.7571 33.3401 19.8761 34.7894C19.9951 36.2387 21.1064 41.9811 21.1802 43.4399C20.9922 41.9906 19.7166 36.272 19.5834 34.8132C19.4501 33.3544 18.9741 28.4639 18.7861 25.8129Z" fill="#37474F"/>
<path d="M16.0493 26.5078L16.9179 30.3511L16.4039 35.5295L16.4801 31.2769L15.5044 26.9719C14.9952 26.8753 14.5239 26.6365 14.1449 26.2831C13.7658 25.9298 13.4946 25.4763 13.3625 24.9752C14.3145 26.1746 16.0493 26.5078 16.0493 26.5078Z" fill="#37474F"/>
<path d="M10.8851 11.8174C10.2164 12.6218 9.11216 13.7212 8.02936 14.954L7.79138 14.7398C7.30114 14.2805 6.81805 13.8164 6.34209 13.3429C6.10412 13.1049 5.8471 12.8479 5.60912 12.5908C5.52107 12.4956 5.43301 12.3981 5.34972 12.2957C5.13316 12.0316 5.1879 11.6532 5.176 11.3438C5.17904 10.9467 5.13105 10.5508 5.03321 10.1658C4.99514 10.0421 4.94754 9.92786 4.90709 9.79698C4.82263 9.53613 4.7699 9.26607 4.75002 8.99261C4.74974 8.91965 4.73434 8.84753 4.7048 8.78081C4.62151 8.63088 4.43827 8.6999 4.3407 8.78081C4.24466 8.89083 4.18849 9.02999 4.18126 9.17585C4.1408 9.48047 4.19553 9.78508 4.18126 10.0921C4.18126 10.2063 4.13366 10.3443 4.02181 10.3705C3.99113 10.3751 3.9598 10.3723 3.93042 10.3624C3.90103 10.3524 3.87444 10.3357 3.85285 10.3134C3.72325 10.1764 3.61132 10.0237 3.51968 9.85885C3.40545 9.68275 3.28169 9.50664 3.17222 9.33292C2.96994 9.02831 2.77004 8.71656 2.54158 8.43099C2.24173 8.05736 2.00375 8.01214 1.88001 8.15731C1.81099 8.23822 1.96806 8.51428 2.28933 9.10922C2.6106 9.70417 2.87476 10.0802 2.8343 10.1063C2.79384 10.1325 2.58442 9.69465 2.1513 9.15444C1.7515 8.6642 1.54922 8.45478 1.2922 8.36673C1.03518 8.27868 0.956651 8.46668 1.05422 8.63326C1.18749 8.83793 1.33028 9.08542 1.88239 9.82315C2.05941 10.0433 2.21857 10.2773 2.35834 10.5228C2.32741 10.5752 2.00376 10.192 1.53256 9.78984C1.26757 9.54216 0.979939 9.31987 0.673456 9.12588C0.645485 9.1094 0.613042 9.10213 0.580713 9.10512C0.548385 9.1081 0.517813 9.12118 0.493331 9.1425C0.468849 9.16382 0.451695 9.19231 0.444302 9.22392C0.436909 9.25553 0.439651 9.28867 0.452138 9.31864C0.587081 9.55014 0.746661 9.76637 0.928094 9.96356C1.19463 10.2777 1.316 10.38 1.53256 10.6061C1.68249 10.7608 1.87049 10.9655 1.84907 10.9964C1.82765 11.0273 0.949511 10.4276 0.659178 10.3253C0.335527 10.2087 0.276033 10.4728 0.473555 10.6751C0.585405 10.7917 1.0328 11.1511 1.42547 11.558C1.7158 11.8531 2.04421 12.2553 2.21556 12.429C3.06038 13.2786 3.1984 13.2048 3.57441 13.6403C3.95041 14.0758 4.59772 15.1134 5.3997 16.1748C6.06128 17.0482 6.7776 17.912 7.06555 18.1976C7.91989 19.0567 8.45296 18.645 9.49292 17.7954C10.5859 16.8343 11.5866 15.7731 12.4819 14.6256L14.6237 10.0326C13.0673 9.95404 12.0345 10.43 10.8851 11.8174Z" fill="#B16668"/>
<path d="M3.80992 10.8655C3.80992 10.8655 3.80992 10.8655 3.80992 10.8774C3.73042 11.0093 3.67258 11.1531 3.63858 11.3034C3.59734 11.4479 3.57966 11.5982 3.58623 11.7484C3.59156 11.8816 3.61395 12.0135 3.65286 12.141C3.67666 12.2053 3.70283 12.2672 3.73139 12.329C3.78779 12.4252 3.83865 12.5245 3.8837 12.6265C3.8837 12.6432 3.88369 12.6741 3.85513 12.6622C3.78795 12.6145 3.73192 12.5528 3.69093 12.4813C3.63849 12.4064 3.59309 12.3267 3.55529 12.2434C3.47883 12.0811 3.43362 11.9059 3.42202 11.727C3.41208 11.5627 3.44219 11.3985 3.50976 11.2484C3.57733 11.0983 3.68033 10.9669 3.80992 10.8655Z" fill="#9A4A4D"/>
<path d="M13.6004 10.0231C12.5938 10.1897 11.9751 10.4705 10.9827 11.5247C9.99032 12.579 8.01748 14.785 8.01748 14.785L6.14935 13.1192C6.0622 13.5527 5.8106 13.9356 5.44732 14.1877C5.08293 14.4467 4.64209 14.5758 4.19556 14.5542C4.19556 14.5542 5.26408 16.1415 5.83999 16.934C6.41589 17.7264 7.11793 18.5998 7.74381 18.7735C8.36969 18.9472 8.82661 18.5213 9.57148 17.9025C10.3164 17.2838 13.6457 14.0235 13.6457 14.0235L13.6004 10.0231Z" fill="#37474F"/>
<path d="M21.644 10.1136C20.9848 9.97083 20.2899 9.8447 19.0809 9.5853V9.48535L18.9905 9.56626L18.6288 9.49011L15.773 9.6329C15.773 9.6329 13.6788 9.97083 13.5908 10.0232C12.3128 10.6419 12.0844 12.7766 11.9249 15.8417C11.794 18.3429 11.7036 23.626 11.7036 23.626C11.7036 23.626 12.1225 24.4042 15.5327 24.7017C19.8758 25.0801 22.108 23.4428 22.108 23.4428C21.9724 21.9102 22.0176 20.825 22.0009 19.7374C22.0178 18.3835 22.1228 17.0321 22.3151 15.6918C22.6856 13.8082 22.4507 11.8556 21.644 10.1136Z" fill="#263238"/>
<path d="M13.6669 4.11894L13.6455 4.09039C13.5343 3.92623 13.4424 3.74974 13.3718 3.56446C13.2171 3.20273 12.8959 2.11517 13.5765 2.06281C13.4289 1.90337 13.2124 1.58686 13.4599 1.406C13.6669 1.26321 13.9787 1.39172 14.2095 1.38458C14.1111 1.293 14.0304 1.1841 13.9715 1.06331C13.916 0.946516 13.8868 0.818985 13.8858 0.689681C14.012 0.713479 14.1238 0.765835 14.25 0.794392C14.5648 0.84585 14.8854 0.851461 15.2019 0.81105C15.5565 0.784873 15.892 0.663504 16.2442 0.632567C16.5919 0.605225 16.9412 0.605225 17.2889 0.632567C18.4407 0.713479 19.5711 1.20133 19.7758 2.38646C20.7015 2.67204 20.5825 4.19272 20.3446 4.86143C19.8686 6.22029 18.9357 7.3959 18.9167 8.09318L18.6264 7.87424L17.1699 6.78192L15.2852 5.35405L14.4689 4.74245C14.1752 4.57101 13.9055 4.36135 13.6669 4.11894Z" fill="#263238"/>
<path d="M13.7455 7.54815C13.8053 7.82924 13.9434 8.08766 14.1438 8.29359C14.3443 8.49951 14.5989 8.64452 14.8782 8.71187C15.1313 8.7474 15.3867 8.76331 15.6422 8.75946L15.6303 9.64236C15.209 10.2254 15.6303 11.4105 15.823 11.6818C16.5822 10.6038 18.4122 10.3991 18.9429 9.64712L18.9548 6.94369C18.9548 6.94369 19.3237 7.36967 19.94 6.97463C20.1891 6.7934 20.368 6.53175 20.4465 6.23387C20.525 5.93599 20.4982 5.62015 20.3708 5.33972C20.0733 4.6948 19.4617 4.95657 19.2713 5.14934C19.0809 5.3421 18.862 5.7062 18.7073 5.65385C18.6175 5.62524 18.5362 5.57485 18.4705 5.50716C18.4049 5.43948 18.3571 5.35661 18.3313 5.26595C18.194 4.86583 18.1303 4.44414 18.1433 4.02132C17.9062 3.90311 17.7109 3.71538 17.5833 3.48321C17.4557 3.25103 17.402 2.98546 17.4294 2.72196C16.2062 2.06276 14.5736 2.20317 14.0239 2.62201C13.7859 3.04323 13.6717 3.66673 13.7193 4.57819C13.691 4.86791 13.6409 5.15509 13.5694 5.43729C13.5127 6.14581 13.5722 6.85883 13.7455 7.54815Z" fill="#B16668"/>
<path d="M15.6421 8.73812C16.3156 8.70718 17.4984 8.57392 18.1195 8.00753C18.505 7.6577 18.6431 6.87 18.6431 6.87C18.6431 6.87 18.5812 7.83856 18.298 8.26454C18.0148 8.69053 17.3104 8.87139 16.8844 8.97848C16.4584 9.08557 15.635 9.16648 15.635 9.16648L15.6421 8.73812Z" fill="#9A4A4D"/>
<path d="M16.1895 4.80193C16.1909 4.85657 16.2083 4.90959 16.2396 4.95438C16.271 4.99917 16.3148 5.03374 16.3656 5.0538C16.4165 5.07385 16.4721 5.0785 16.5256 5.06715C16.5791 5.05581 16.628 5.02898 16.6663 4.99C16.7046 4.95103 16.7307 4.90164 16.7411 4.84798C16.7515 4.79433 16.746 4.73879 16.7251 4.68829C16.7042 4.63778 16.6688 4.59455 16.6235 4.56398C16.5782 4.5334 16.5249 4.51684 16.4703 4.51636C16.3954 4.51761 16.3239 4.54824 16.2714 4.60166C16.2189 4.65508 16.1894 4.72701 16.1895 4.80193Z" fill="#263238"/>
<path d="M13.9549 4.27832L14.5975 4.04034C14.5841 3.99774 14.5622 3.9583 14.5332 3.92438C14.5041 3.89046 14.4685 3.86277 14.4285 3.84298C14.3885 3.82319 14.3449 3.81171 14.3003 3.80923C14.2557 3.80674 14.2111 3.81331 14.1691 3.82854C14.0822 3.8613 14.0114 3.92644 13.9714 4.01029C13.9315 4.09414 13.9256 4.1902 13.9549 4.27832Z" fill="#263238"/>
<path d="M16.3347 4.01186L16.9249 4.35217C16.9492 4.3149 16.9657 4.27306 16.9732 4.2292C16.9808 4.18534 16.9793 4.1404 16.9688 4.09715C16.9583 4.0539 16.9391 4.01325 16.9123 3.97771C16.8855 3.94217 16.8517 3.91248 16.8131 3.89049C16.733 3.84523 16.6386 3.83259 16.5495 3.8552C16.4604 3.87781 16.3835 3.93393 16.3347 4.01186Z" fill="#263238"/>
<path d="M14.0764 4.75908C14.0778 4.81372 14.0953 4.86674 14.1266 4.91153C14.1579 4.95632 14.2018 4.9909 14.2526 5.01095C14.3035 5.031 14.3591 5.03565 14.4126 5.02431C14.466 5.01296 14.515 4.98613 14.5533 4.94716C14.5916 4.90818 14.6176 4.85879 14.6281 4.80514C14.6385 4.75149 14.6329 4.69595 14.612 4.64544C14.5911 4.59494 14.5558 4.5517 14.5105 4.52113C14.4652 4.49056 14.4119 4.474 14.3572 4.47351C14.32 4.47382 14.2833 4.48146 14.249 4.49598C14.2148 4.5105 14.1838 4.53162 14.1577 4.55814C14.1316 4.58465 14.111 4.61605 14.0971 4.65053C14.0831 4.68501 14.0761 4.72189 14.0764 4.75908Z" fill="#263238"/>
<path d="M15.5707 4.40454L15.3517 6.3988L14.2832 6.06563L15.5707 4.40454Z" fill="#9A4A4D"/>
<path d="M16.2966 6.59631C16.344 6.72535 16.3392 6.86776 16.2833 6.99333C16.2274 7.11889 16.1247 7.21771 15.9971 7.26881C15.8695 7.31992 15.727 7.31927 15.5999 7.26703C15.4727 7.21478 15.371 7.11504 15.3162 6.98898L16.2966 6.59631Z" fill="#9A4A4D"/>
<path d="M16.2182 6.8698C16.0958 6.86816 15.9768 6.91049 15.8829 6.98909C15.789 7.06769 15.7265 7.17735 15.7065 7.29816C15.8084 7.32038 15.9146 7.31125 16.0112 7.27198C16.093 7.23955 16.1653 7.187 16.2215 7.1192C16.2777 7.0514 16.3158 6.97053 16.3324 6.88407C16.2949 6.87566 16.2566 6.87088 16.2182 6.8698Z" fill="#FFA8A7"/>
<path d="M15.8279 11.6724C16.1611 11.4749 16.8536 10.8109 17.1748 11.2298C17.4961 11.6486 17.7293 12.1341 17.9697 12.0651C18.5704 11.7815 19.0726 11.3249 19.4118 10.7538C19.5617 10.4376 19.6467 10.0945 19.6617 9.74479C19.5306 9.58423 19.4181 9.4094 19.3262 9.22362C19.1929 8.9547 19.1548 8.70245 18.943 8.68579V9.36403C18.943 9.36403 18.7645 9.74717 18.0601 10.0113C17.1153 10.3659 16.2658 10.7467 15.8279 11.6724Z" fill="#37474F"/>
<path d="M15.8279 11.6723C15.6327 11.4914 15.5304 10.9584 15.2068 11.044C14.8831 11.1297 14.4143 11.8603 14.4072 11.689C14.4 11.5176 14.6213 10.2944 14.8688 9.93268C15.1163 9.57095 15.4186 8.91651 15.6399 8.93317V9.63283C15.5525 9.88522 15.5106 10.1511 15.5161 10.4182C15.5471 10.7085 15.7898 11.3915 15.8279 11.6723Z" fill="#37474F"/>
<path d="M20.7659 27.2859C20.7151 27.3336 20.671 27.388 20.635 27.4477C20.6187 27.4782 20.612 27.513 20.6158 27.5474C20.6196 27.5818 20.6338 27.6142 20.6564 27.6404C20.6814 27.6628 20.7117 27.6784 20.7444 27.6857C20.8485 27.7092 20.9562 27.7105 21.0608 27.6896C21.1654 27.6687 21.2643 27.626 21.3513 27.5643C21.5253 27.4398 21.6746 27.2841 21.7916 27.105C21.8284 27.0419 21.8808 26.9895 21.9439 26.9527C22.2294 26.8147 22.0914 27.2954 22.0676 27.4072C22.0079 27.7255 21.917 28.0372 21.7963 28.3377C21.7249 28.5757 21.1419 29.1135 21.0062 29.3301C20.944 29.4114 20.9086 29.51 20.9048 29.6123C20.9009 29.7145 20.9289 29.8155 20.9848 29.9012C21.0943 30.0012 21.3204 29.8513 21.6012 29.5752C21.8095 29.3962 22.0044 29.2022 22.1842 28.9945C22.2913 28.8351 22.4032 28.678 22.4032 28.678C22.3446 28.8739 22.2689 29.0642 22.1771 29.2468C22.0748 29.4039 21.6868 29.806 21.5655 30.0036C21.5217 30.0814 21.5029 30.1708 21.5114 30.2597C21.5199 30.3486 21.5554 30.4328 21.6131 30.5009C21.6821 30.5771 21.7202 30.6913 22.089 30.3153C22.2732 30.1354 22.4457 29.9438 22.6054 29.7418C22.7033 29.7643 22.8056 29.7599 22.9011 29.7289C22.9967 29.6978 23.082 29.6414 23.148 29.5657C23.3646 29.3039 23.5566 29.0227 23.7216 28.7256C23.821 28.6953 23.9131 28.645 23.9925 28.5779C24.0719 28.5108 24.1368 28.4283 24.1832 28.3353C24.3332 28.0236 24.5307 27.5286 24.6735 27.1264C24.8163 26.7242 24.733 25.6985 24.8091 25.0036C24.8305 24.7871 25.0471 22.3454 25.1375 20.8271C25.2143 19.8199 25.1728 18.8071 25.0138 17.8096C24.6949 16.4245 24.7163 16.5983 24.2094 14.6873C23.881 13.4498 23.6145 12.5669 23.3979 11.9743C23.0624 11.0605 22.8506 10.6536 21.5369 10.1776C20.823 10.7559 20.5517 12.1814 21.0134 14.892C21.3601 16.1799 21.8032 17.44 22.3389 18.6615C22.3389 18.6615 22.534 24.5586 22.5293 24.6633C22.534 24.7585 22.5147 24.8533 22.4731 24.939C22.4315 25.0246 22.369 25.0985 22.2913 25.1536C22.1366 25.2868 21.9605 25.3915 21.8154 25.5367C21.3394 26.0008 21.2347 26.7528 20.7897 27.2502L20.7659 27.2859Z" fill="#B16668"/>
<path d="M22.6077 29.7416C22.8205 29.4908 22.9982 29.2122 23.136 28.9135C23.2783 28.6174 23.3861 28.306 23.4572 27.9854C23.3383 28.29 23.2193 28.5946 23.0765 28.8849C22.9399 29.1808 22.7833 29.4671 22.6077 29.7416Z" fill="#9A4A4D"/>
<path d="M23.7239 28.7279C23.8231 28.5989 23.9033 28.4562 23.9619 28.3043C24.0282 28.1517 24.0769 27.992 24.107 27.8284C24.0285 27.9735 23.969 28.1235 23.9024 28.271L23.7239 28.7279Z" fill="#9A4A4D"/>
<path d="M22.4056 28.6779C22.5631 28.4418 22.6986 28.1917 22.8101 27.9307C22.7579 28.3141 22.5835 28.6704 22.3127 28.9468L22.4056 28.6779Z" fill="#9A4A4D"/>
<path d="M21.4702 10.0754C22.6148 10.2753 23.0955 10.7346 23.3906 11.2082C23.7524 11.7865 23.9213 12.4766 24.5805 14.716C25.2397 16.9554 25.442 17.9287 25.4587 18.4071C25.4984 19.2965 25.4498 20.1878 25.3135 21.0676C25.1921 22.0196 25.0279 23.2094 24.8494 24.6754C24.1855 24.9324 22.7076 24.6611 22.3745 24.2256C22.3745 23.2356 22.3364 22.3884 22.3197 21.2699C22.2983 19.8778 22.2245 18.795 22.2245 18.795L20.83 14.6089C20.83 14.6089 20.0256 11.1606 21.4702 10.0754Z" fill="#37474F"/>
<path d="M8.00781 14.785C8.65749 15.3467 9.15725 15.9868 9.1977 16.8626C9.2721 16.4237 9.21931 15.9726 9.04557 15.5627C8.87183 15.1528 8.5844 14.8012 8.21723 14.5494L8.00781 14.785Z" fill="#263238"/>
</svg>
