<svg width="133" height="123" viewBox="0 0 133 123" fill="none" xmlns="http://www.w3.org/2000/svg">
<g clip-path="url(#clip0_49_3150)">
<path d="M50.584 93.684H7.84521V100.343H50.584V93.684Z" fill="#FFCC00"/>
<g style="mix-blend-mode:screen" opacity="0.5">
<path d="M22.4922 93.684H7.84521V100.343H22.4922V93.684Z" fill="#FFCC00"/>
</g>
<g style="mix-blend-mode:multiply" opacity="0.5">
<path d="M50.5838 93.684H36.5535V100.343H50.5838V93.684Z" fill="#FFCC00"/>
</g>
<path d="M49.0266 87.0441H6.28784V93.7026H49.0266V87.0441Z" fill="#FFCC00"/>
<g style="mix-blend-mode:screen" opacity="0.5">
<path d="M17.6304 87.0441H6.28784V93.7026H17.6304V87.0441Z" fill="#FFCC00"/>
</g>
<g style="mix-blend-mode:multiply" opacity="0.5">
<path d="M49.0267 87.0441H31.0225V93.7026H49.0267V87.0441Z" fill="#FFCC00"/>
</g>
<path d="M53.6858 80.3606H10.947V87.0192H53.6858V80.3606Z" fill="#FFCC00"/>
<g style="mix-blend-mode:screen" opacity="0.5">
<path d="M27.6557 80.3606H10.947V87.0192H27.6557V80.3606Z" fill="#FFCC00"/>
</g>
<g style="mix-blend-mode:multiply" opacity="0.5">
<path d="M53.6858 80.3606H41.5334V87.0192H53.6858V80.3606Z" fill="#FFCC00"/>
</g>
<path d="M51.0325 73.7518H8.2937V80.4104H51.0325V73.7518Z" fill="#FFCC00"/>
<g style="mix-blend-mode:screen" opacity="0.5">
<path d="M21.0284 73.7518H8.2937V80.4104H21.0284V73.7518Z" fill="#FFCC00"/>
</g>
<g style="mix-blend-mode:multiply" opacity="0.5">
<path d="M51.0324 73.7518H33.6946V80.4104H51.0324V73.7518Z" fill="#FFCC00"/>
</g>
<g style="mix-blend-mode:multiply" opacity="0.5">
<path d="M48.8648 93.684H7.84521V94.6775H48.8648V93.684Z" fill="#FFCC00"/>
</g>
<g style="mix-blend-mode:multiply" opacity="0.5">
<path d="M51.0323 80.4104H10.947V81.4413H51.0323V80.4104Z" fill="#FFCC00"/>
</g>
<path d="M112.386 0H59.1298C56.0338 0 53.5239 2.50985 53.5239 5.6059V89.0715C53.5239 92.1676 56.0338 94.6774 59.1298 94.6774H112.386C115.482 94.6774 117.992 92.1676 117.992 89.0715V5.6059C117.992 2.50985 115.482 0 112.386 0Z" fill="#F0F1F3"/>
<path d="M111.763 81.9084V6.22876L59.7526 6.22876L59.7526 81.9084H111.763Z" fill="white"/>
<path opacity="0.5" d="M65.5144 24.7594H62.7114V41.5771H65.5144V24.7594Z" fill="#F3A100"/>
<path opacity="0.5" d="M69.8745 21.645H67.0715V41.5771H69.8745V21.645Z" fill="#1E2346"/>
<path opacity="0.5" d="M74.2346 15.7277H71.4316V41.5771H74.2346V15.7277Z" fill="#F3A100"/>
<path opacity="0.5" d="M78.5947 22.5793H75.7917V41.5771H78.5947V22.5793Z" fill="#1E2346"/>
<path opacity="0.5" d="M82.9548 29.7424H80.1519V41.5771H82.9548V29.7424Z" fill="#F3A100"/>
<path opacity="0.5" d="M87.3149 21.1779H84.512V41.5771H87.3149V21.1779Z" fill="#F3A100"/>
<path opacity="0.5" d="M91.675 33.7911H88.8721V41.5771H91.675V33.7911Z" fill="#1E2346"/>
<path opacity="0.5" d="M96.0354 36.127H93.2324V41.5771H96.0354V36.127Z" fill="#F3A100"/>
<path opacity="0.5" d="M100.395 30.3654H97.5925V41.5772H100.395V30.3654Z" fill="#F3A100"/>
<path opacity="0.5" d="M104.756 27.2509H101.953V41.577H104.756V27.2509Z" fill="#1E2346"/>
<path opacity="0.5" d="M109.116 24.7594H106.313V41.5771H109.116V24.7594Z" fill="#F3A100"/>
<path opacity="0.5" d="M106.316 74.9011H109.119V58.0834H106.316V74.9011Z" fill="#F3A100"/>
<path opacity="0.5" d="M101.956 74.9011H104.759V54.969H101.956V74.9011Z" fill="#1E2346"/>
<path opacity="0.5" d="M97.5955 74.9011H100.398V49.0517H97.5955V74.9011Z" fill="#F3A100"/>
<path opacity="0.5" d="M93.2354 74.9011H96.0383V55.9033H93.2354V74.9011Z" fill="#1E2346"/>
<path opacity="0.5" d="M88.8753 74.9011H91.6782V63.0664H88.8753V74.9011Z" fill="#F3A100"/>
<path opacity="0.5" d="M84.5152 74.9011H87.3181V54.5019H84.5152V74.9011Z" fill="#F3A100"/>
<path opacity="0.5" d="M80.1551 74.9011H82.958V67.1151H80.1551V74.9011Z" fill="#1E2346"/>
<path opacity="0.5" d="M75.7949 74.9011H78.5979V69.4509H75.7949V74.9011Z" fill="#F3A100"/>
<path opacity="0.5" d="M71.4346 74.9011H74.2375V63.6893H71.4346V74.9011Z" fill="#F3A100"/>
<path opacity="0.5" d="M67.0745 74.9011H69.8774V60.5749H67.0745V74.9011Z" fill="#1E2346"/>
<path opacity="0.5" d="M62.7144 74.9011H65.5173V58.0834H62.7144V74.9011Z" fill="#F3A100"/>
<path d="M85.7579 90.7845C87.5639 90.7845 89.028 89.3204 89.028 87.5144C89.028 85.7083 87.5639 84.2443 85.7579 84.2443C83.9519 84.2443 82.4878 85.7083 82.4878 87.5144C82.4878 89.3204 83.9519 90.7845 85.7579 90.7845Z" fill="white"/>
<path d="M128.048 38.1077H65.3398V70.4724H128.048V38.1077Z" fill="#6CACAC"/>
<path d="M119.415 66.9314H73.976V66.4268C73.976 63.3592 71.7336 60.8645 68.9774 60.8645H68.5227V47.7156H68.9774C71.7336 47.7156 73.976 45.2241 73.976 42.1533V41.6456H119.415V42.1533C119.415 45.2209 121.657 47.7156 124.414 47.7156H124.868V60.8645H124.429C121.673 60.8645 119.431 63.356 119.431 66.4268L119.415 66.9314ZM74.8792 65.9223H118.512C118.736 62.6989 121.053 60.1171 123.949 59.871V48.7091C121.053 48.4599 118.736 45.8812 118.512 42.6578H74.8636C74.6425 45.8812 72.3254 48.4599 69.429 48.7091V59.871C72.3254 60.1171 74.6425 62.6989 74.8636 65.9161L74.8792 65.9223Z" fill="#5A9997"/>
<path d="M102.781 48.7122H101.177C100.998 48.2653 100.757 47.8459 100.461 47.4664H102.115L103.51 45.4172L102.781 44.8628H91.5226L90.1273 46.9089L90.8561 47.4664H96.3094C96.8541 47.4628 97.3906 47.6001 97.8666 47.8651C98.1147 48.1165 98.3198 48.4068 98.4739 48.7246H91.2734L89.8782 50.7739L90.6069 51.3283H98.5331C98.2915 51.9126 97.882 52.4121 97.3565 52.7635C96.8309 53.115 96.2129 53.3027 95.5806 53.3028H90.255V55.6386L94.5311 63.1754L95.2598 63.7298H98.1998L93.8397 55.894H96.3312C97.5979 55.8817 98.8174 55.4113 99.7643 54.5697C100.711 53.7282 101.321 52.5723 101.482 51.3158H102.105L103.501 49.2697L102.781 48.7122Z" fill="#5A9997"/>
<path d="M99.7321 46.8965H101.383L102.778 44.8503H91.5226L90.1273 46.8965H95.5806C96.1828 46.8965 96.7727 47.0666 97.2824 47.3873C97.7921 47.708 98.2008 48.1662 98.4614 48.7091H91.2734L89.8782 50.7583H98.7075C98.5547 51.4719 98.1625 52.1118 97.596 52.5718C97.0296 53.0318 96.3228 53.2842 95.5931 53.2872H90.2675V55.6386L94.5311 63.1754H97.4711L93.1109 55.3365H95.6024C96.8691 55.3256 98.0889 54.8561 99.036 54.0149C99.983 53.1738 100.593 52.018 100.754 50.7615H101.383L102.778 48.7122H100.635C100.456 48.0538 100.149 47.437 99.7321 46.8965Z" fill="#A2C2C0"/>
<path d="M126.721 36.4415H64.0132V68.8063H126.721V36.4415Z" fill="#7BC3C3"/>
<path d="M118.088 65.2652H72.6493V64.7607C72.6493 61.693 70.407 59.1984 67.6507 59.1984H67.196V46.0494H67.6507C70.407 46.0494 72.6493 43.5579 72.6493 40.4871V39.9795H118.088V40.4871C118.088 43.5548 120.331 46.0494 123.087 46.0494H123.542V59.1984H123.087C120.331 59.1984 118.088 61.6899 118.088 64.7607V65.2652ZM73.5525 64.2562H117.198C117.419 61.0328 119.739 58.4509 122.632 58.2049V47.0398C119.739 46.7938 117.419 44.2151 117.198 40.9917H73.5401C73.3189 44.2151 70.9987 46.7938 68.1054 47.0398V58.2049C70.9987 58.4416 73.3189 61.0328 73.5401 64.2562H73.5525Z" fill="#68B0AE"/>
<path d="M101.457 47.046H99.8534C99.6732 46.5997 99.4321 46.1805 99.1371 45.8002H100.788L102.186 43.751L101.457 43.181H90.1988L88.8035 45.2272L89.5323 45.7847H94.9856C95.4332 45.7057 95.8942 45.7874 96.2874 46.0153C96.6806 46.2433 96.9806 46.6028 97.1345 47.0304H89.9496L88.5513 49.0984L89.28 49.6527H97.2093C96.9674 50.2368 96.5578 50.7361 96.0323 51.0875C95.5068 51.4389 94.889 51.6267 94.2568 51.6273H88.925V53.9724L93.2104 61.5123L93.9392 62.0667H96.8823L92.5221 54.2309H95.0136C96.2804 54.2186 97.4999 53.7482 98.4467 52.9066C99.3936 52.0651 100.004 50.9093 100.165 49.6527H100.769L102.167 47.6066L101.457 47.046Z" fill="#68B0AE"/>
<path d="M98.4083 45.2302H100.059L101.457 43.1841H90.1988L88.8035 45.2302H94.2568C94.8587 45.2301 95.4482 45.4002 95.9575 45.7209C96.4667 46.0417 96.8748 46.4999 97.1345 47.0428H89.9496L88.5513 49.0983H97.3806C97.2289 49.8124 96.837 50.4529 96.2703 50.9131C95.7035 51.3733 94.9962 51.6253 94.2662 51.6272H88.925V53.9723L93.2104 61.5123H96.1535L91.7934 53.6733H94.2849C95.5546 53.6663 96.7785 53.1986 97.7294 52.3572C98.6802 51.5157 99.2933 50.3577 99.4548 49.0983H100.059L101.457 47.049H99.3115C99.1306 46.3902 98.8239 45.7726 98.4083 45.2302Z" fill="#B5D9D7"/>
<path d="M124.532 34.6444H61.8237V67.0091H124.532V34.6444Z" fill="#86D4D4"/>
<path d="M115.899 63.4682H70.4568V62.9636C70.4568 59.8959 68.2144 57.3982 65.4737 57.3982H65.019V44.2524H65.4737C68.23 44.2524 70.4568 41.7609 70.4568 38.687V38.198H115.899V38.7025C115.899 41.7702 118.141 44.2679 120.897 44.2679H121.349V57.4138H120.897C118.141 57.4138 115.899 59.9053 115.899 62.9792V63.4682ZM71.363 62.456H115.005C115.226 59.2326 117.546 56.6539 120.443 56.4078V45.2427C117.546 44.9967 115.226 42.418 115.005 39.1946H71.3475C71.1264 42.418 68.8093 44.9967 65.9129 45.2427V56.4078C68.8093 56.6539 71.1264 59.2326 71.3475 62.456H71.363Z" fill="#72C1BF"/>
<path d="M99.265 45.2489H97.6611C97.4811 44.8025 97.2401 44.3833 96.9448 44.0032H98.5985L99.9937 41.957L99.265 41.3995H88.0065L86.6112 43.4488L87.34 44.0032H92.7933C93.3379 44.001 93.8739 44.1383 94.3505 44.4018C94.5979 44.6549 94.803 44.9462 94.9578 45.2645H87.7573L86.3621 47.3138L87.0908 47.8681H95.017C94.7754 48.4524 94.3659 48.9519 93.8403 49.3034C93.3148 49.6549 92.6968 49.8425 92.0645 49.8426H86.7451V52.1878L91.0336 59.7246L91.7624 60.2821H94.7024L90.3422 52.4432H92.8338C94.1038 52.4333 95.3271 51.9623 96.2758 51.1178C97.2246 50.2733 97.8342 49.1129 97.9912 47.8526H98.5985L99.9937 45.8033L99.265 45.2489Z" fill="#72C1BF"/>
<path d="M96.216 43.4333H97.8697L99.265 41.384H88.0065L86.6112 43.4333H92.0645C92.6669 43.4339 93.257 43.6047 93.7666 43.9259C94.2763 44.2471 94.6849 44.7058 94.9453 45.249H87.7573L86.3621 47.2983H95.1914C95.0381 48.0116 94.6458 48.6511 94.0794 49.111C93.513 49.5709 92.8065 49.8236 92.077 49.8271H86.7451V52.1723L91.0336 59.7091H93.9736L89.6135 51.8733H92.105C93.3715 51.8617 94.5909 51.392 95.5379 50.551C96.4848 49.71 97.0952 48.5545 97.2562 47.2983H97.8791L99.2743 45.249H97.1285C96.9473 44.5894 96.6371 43.9723 96.216 43.4333Z" fill="#C3EAE8"/>
<g opacity="0.5">
<path d="M20.8384 39.9109L19.2126 38.4565L42.8509 12.0745L57.7688 27.1326L86.2063 1.5105L97.116 17.098L106.593 8.80128L108.032 10.4426L96.7236 20.3401L85.8326 4.78061L57.6816 30.1411L42.9287 15.2543L20.8384 39.9109Z" fill="#1E2346"/>
<path d="M109.458 14.2452L112.61 4.98303L103.015 6.88281L109.458 14.2452Z" fill="#1E2346"/>
</g>
<path d="M107.714 102.769C118.251 102.769 126.793 94.2267 126.793 83.6898C126.793 73.1529 118.251 64.6111 107.714 64.6111C97.1773 64.6111 88.6355 73.1529 88.6355 83.6898C88.6355 94.2267 97.1773 102.769 107.714 102.769Z" fill="#FFCC00"/>
<path d="M107.714 98.3306C115.8 98.3306 122.355 91.7757 122.355 83.6898C122.355 75.604 115.8 69.0491 107.714 69.0491C99.6284 69.0491 93.0735 75.604 93.0735 83.6898C93.0735 91.7757 99.6284 98.3306 107.714 98.3306Z" fill="#D68900"/>
<path d="M107.714 97.7763C115.494 97.7763 121.801 91.4696 121.801 83.6899C121.801 75.9102 115.494 69.6035 107.714 69.6035C99.9346 69.6035 93.6279 75.9102 93.6279 83.6899C93.6279 91.4696 99.9346 97.7763 107.714 97.7763Z" fill="#F3A100"/>
<path d="M114.588 78.0434H112.881C112.69 77.5629 112.433 77.1112 112.118 76.7011H113.878L115.366 74.5211L114.588 73.9293H102.597L101.109 76.1094L101.884 76.7011H107.696C108.175 76.6157 108.668 76.704 109.088 76.9501C109.507 77.1961 109.825 77.5838 109.985 78.0434H102.317L100.832 80.2235L101.607 80.8152H110.05C109.793 81.4372 109.357 81.969 108.798 82.3432C108.239 82.7175 107.581 82.9173 106.908 82.9174H101.246V85.409L105.811 93.441L106.59 94.0327H109.723L105.076 85.6924H107.745C109.094 85.6793 110.393 85.1787 111.402 84.2828C112.41 83.3869 113.061 82.1564 113.233 80.8183H113.878L115.366 78.6383L114.588 78.0434Z" fill="#D68900"/>
<path d="M111.349 76.1094H113.108L114.594 73.9293H102.597L101.109 76.1094H106.92C107.561 76.1097 108.19 76.2915 108.732 76.6338C109.274 76.976 109.708 77.4647 109.985 78.0434H102.317L100.832 80.2235H110.237C110.074 80.9856 109.654 81.6687 109.049 82.1589C108.443 82.6492 107.687 82.9169 106.908 82.9174H101.246V85.409L105.811 93.441H108.945L104.304 85.0913H106.973C108.318 85.0789 109.612 84.5815 110.62 83.6906C111.627 82.7997 112.278 81.5752 112.454 80.2422H113.102L114.588 78.0621H112.305C112.116 77.3553 111.791 76.6921 111.349 76.1094Z" fill="#FFCC00"/>
<path d="M83.3191 83.9329H54.7695V100.853H83.3191V83.9329Z" fill="#F9A91C"/>
<path d="M76.0254 55.707C75.1322 55.3673 74.1641 55.2737 73.2224 55.4361L74.9353 51.0759L76.9223 52.0881L76.0254 55.707Z" fill="#141930"/>
<path d="M74.9167 53.3712C75.787 53.3712 76.4926 52.6657 76.4926 51.7954C76.4926 50.925 75.787 50.2195 74.9167 50.2195C74.0464 50.2195 73.3408 50.925 73.3408 51.7954C73.3408 52.6657 74.0464 53.3712 74.9167 53.3712Z" fill="#E6976D"/>
<path d="M69.3698 50.179C69.3698 50.179 68.8622 52.7888 68.3576 53.3712C67.8531 53.9536 67.1492 54.5018 67.5385 55.1246C67.9278 55.7475 68.8248 55.897 69.5629 55.7849C70.301 55.6728 71.1606 55.4734 71.6651 55.707C72.1696 55.9406 71.8208 52.6705 71.8208 52.6705L70.8086 49.2852C70.8086 49.2852 69.2141 50.1416 69.3698 50.179Z" fill="#141930"/>
<path d="M56.2771 71.0081C55.0997 71.5312 53.8848 71.9653 52.6426 72.3068C53.3173 72.7631 54.1214 72.9893 54.9351 72.9517C55.7488 72.9141 56.5286 72.6147 57.1584 72.0981L56.2771 71.0081Z" fill="#E6976D"/>
<path d="M67.9561 57.9806C67.9561 57.9806 65.3587 66.7009 56.2771 71.0081L57.0557 72.6182C57.0557 72.6182 63.2845 71.6839 69.8745 63.2221L67.9561 57.9806Z" fill="#E59303"/>
<path d="M53.4866 95.2599C53.4866 95.2599 51.7332 97.8697 49.9424 98.5705C49.9424 98.5705 51.8889 98.7262 52.9789 97.714C54.0689 96.7019 53.4866 95.2599 53.4866 95.2599Z" fill="#E6976D"/>
<path d="M58.7156 83.3566C58.7156 83.3566 64.2966 95.6958 64.5893 98.0441C64.8821 100.392 62.7207 103.821 62.7207 103.821H63.6986L66.9313 99.8068L63.3062 84.6304L66.5389 84.238L64.8727 80.0273L58.8028 79.9308L58.7156 83.3566Z" fill="#E37463"/>
<path d="M59.0518 75.1439C59.0518 75.1439 56.4108 74.5584 55.8222 76.9067C55.2335 79.2549 52.4399 97.7731 52.4399 97.7731L54.9844 97.0879L59.2916 80.7343L66.4547 81.0301C66.4547 81.0301 62.8731 76.4177 59.0518 75.1439Z" fill="#E6976D"/>
<path d="M54.9782 97.0786C54.9782 97.0786 55.3706 98.2527 54.6854 99.1341C54.0002 100.015 52.8697 101.373 52.8697 101.373L52.577 100.884L53.2154 99.0376L49.2321 99.5265L46.9773 98.2527C48.8106 98.4484 50.6644 98.2823 52.4337 97.7638L54.9782 97.0786Z" fill="#42528E"/>
<path d="M63.6985 103.834L66.9312 99.8193C67.7129 100.754 67.5167 101.616 67.5167 101.616L67.3859 104.946H66.8129L66.5513 102.071L64.0099 104.619H61.3315L62.7361 103.834H63.6985Z" fill="#42528E"/>
<path d="M74.711 56.9995L77.5327 58.2453C77.8687 58.3917 78.1408 58.6542 78.2992 58.9847C78.4576 59.3153 78.4917 59.6918 78.3954 60.0454C77.8441 62.0666 77.1122 67.3518 77.8535 72.4376H68.7657C68.7657 72.4376 67.4607 64.3962 67.5822 58.6439C67.5898 58.2936 67.7178 57.9565 67.9447 57.6894C68.1716 57.4222 68.4834 57.2413 68.828 57.1771L71.3413 56.7255L74.711 56.9995Z" fill="#F9A91C"/>
<path d="M76.0782 58.862C75.9973 59.949 74.4307 60.7307 72.5808 60.5843C70.7308 60.4379 69.2982 59.4538 69.3761 58.3637C69.4539 57.2737 71.0236 56.4951 72.8735 56.6415C74.7235 56.7878 76.1561 57.772 76.0782 58.862Z" fill="#E37463"/>
<path d="M74.3622 53.3214C74.3622 53.3214 74.4121 55.7101 74.792 57.1428C73.5482 57.4021 72.2643 57.4021 71.0205 57.1428C71.0205 57.1428 71.8302 56.333 71.9735 53.801L74.3622 53.3214Z" fill="#E37463"/>
<path d="M68.3701 59.927L66.4111 63.7016C66.4111 63.7016 67.034 65.7571 69.7062 65.5173L72.478 63.7016L68.3701 59.927Z" fill="#F9A91C"/>
<path d="M77.8536 72.4252C77.8536 72.4252 79.2333 76.1624 79.3111 78.5481C79.3859 80.8465 78.7194 83.7335 73.509 84.1291C68.607 84.4997 67.8284 84.6242 64.0755 84.6242C64.0755 84.6242 63.0384 77.1154 60.4722 75.0413C60.4722 75.0413 64.3465 73.7955 68.7658 72.4252H77.8536Z" fill="#42528E"/>
<path d="M78.3363 59.1018C78.2169 59.0187 78.092 58.9438 77.9625 58.8775C76.6919 58.2546 75.3651 60.2728 75.3651 60.2728C75.3651 60.2728 73.3377 64.4461 68.1709 68.1584C68.3391 69.563 68.501 70.7402 68.6131 71.5001C71.1607 70.4163 74.0571 68.747 76.4147 66.2057C76.8974 65.6825 77.3085 65.1966 77.6604 64.745C77.7687 63.1554 78.0126 61.578 78.3892 60.0298C78.4683 59.7225 78.4498 59.3981 78.3363 59.1018Z" fill="#D68505"/>
<path d="M75.5862 59.7962C75.5862 59.7962 71.6403 67.2178 61.4407 70.6717L62.1663 72.3846C62.1663 72.3846 70.6811 71.5001 76.4147 65.7665C81.5534 60.6277 78.8875 58.8525 78.2335 58.4975C76.9877 57.8186 75.5862 59.7962 75.5862 59.7962Z" fill="#F3A100"/>
<path d="M61.4406 70.6718L57.6255 72.0981L58.3511 73.864C58.3511 73.864 60.2727 74.1754 62.1663 72.3847L61.4406 70.6718Z" fill="#E6976D"/>
<g style="mix-blend-mode:multiply" opacity="0.4">
<path d="M74.5087 55.4922C74.4807 55.2275 74.4558 54.9659 74.4371 54.7261L71.9985 53.7917H71.9736C71.877 55.5202 71.4659 56.4483 71.2168 56.8625C72.4439 56.8197 73.6137 56.3327 74.5087 55.4922Z" fill="#E37463"/>
</g>
<path d="M69.7622 49.1669H74.8387V53.527C74.8387 54.1663 74.5847 54.7795 74.1326 55.2315C73.6806 55.6836 73.0674 55.9376 72.4281 55.9376H72.1821C71.5428 55.9376 70.9296 55.6836 70.4776 55.2315C70.0255 54.7795 69.7715 54.1663 69.7715 53.527V49.1669H69.7622Z" fill="#E6976D"/>
<path d="M73.5742 49.2852C73.5742 49.2852 73.6116 50.8797 74.6643 51.8545C74.6643 51.8545 75.0909 50.724 75.636 51.4652C76.181 52.2065 75.6764 52.982 74.7795 53.1003C74.7795 53.1003 74.5085 55.162 75.365 56.059C76.2215 56.9559 76.2215 55.3177 77.3489 55.4735C78.4763 55.6292 79.2175 55.3177 78.5946 54.3056C77.9717 53.2934 76.9222 50.724 76.8039 49.4783C76.6855 48.2325 76.2993 46.2486 74.8978 46.7158C74.8286 46.3396 74.632 45.9986 74.3411 45.7502C74.0501 45.5018 73.6826 45.3611 73.3002 45.3517C71.8987 45.2738 70.927 46.5975 69.837 46.4044C68.7469 46.2113 67.6569 46.6379 67.5012 47.9616C67.3081 49.5904 67.8905 50.7645 69.9148 50.4904C69.9273 50.4904 72.9109 50.0326 73.5742 49.2852Z" fill="#1E2346"/>
<path d="M85.655 74.2533H41.5054V75.932H85.655V74.2533Z" fill="#1A427D"/>
<path d="M86.1627 74.9198H41.001V75.2655H86.1627V74.9198Z" fill="#A9BFF8"/>
<path d="M37.0238 73.4561C49.795 73.4561 60.1481 63.103 60.1481 50.3317C60.1481 37.5605 49.795 27.2074 37.0238 27.2074C24.2525 27.2074 13.8994 37.5605 13.8994 50.3317C13.8994 63.103 24.2525 73.4561 37.0238 73.4561Z" fill="#FFCC00"/>
<path d="M54.3426 54.1882C56.4739 44.622 50.4467 35.1394 40.8805 33.0081C31.3143 30.8768 21.8316 36.904 19.7003 46.4701C17.5691 56.0363 23.5962 65.519 33.1624 67.6503C42.7286 69.7816 52.2113 63.7544 54.3426 54.1882Z" fill="#D68900"/>
<path d="M53.6601 54.1639C55.7764 44.9752 50.0432 35.8107 40.8545 33.6945C31.6659 31.5782 22.5014 37.3114 20.3851 46.5001C18.2688 55.6887 24.0021 64.8532 33.1907 66.9695C42.3794 69.0858 51.5438 63.3525 53.6601 54.1639Z" fill="#F3A100"/>
<path d="M45.3547 43.4924H43.2868C43.0535 42.9092 42.739 42.3619 42.3525 41.8667H44.4858L46.2891 39.2226L45.3547 38.5032H30.8199L29.0166 41.1504L29.951 41.8667H36.9926C37.6899 41.8657 38.3759 42.0425 38.9858 42.3806C39.3064 42.7058 39.5716 43.0814 39.7706 43.4924H30.4898L28.6865 46.1397L29.6208 46.856H39.8578C39.5473 47.6092 39.0208 48.2536 38.3447 48.7081C37.6685 49.1625 36.873 49.4067 36.0583 49.4098H29.1817V52.437L34.7129 62.1788L35.6472 62.8951H39.4467L33.8222 52.7764H37.0549C38.6915 52.7614 40.2672 52.1535 41.4899 51.0655C42.7125 49.9774 43.4992 48.4829 43.7041 46.8591H44.4858L46.2891 44.215L45.3547 43.4924Z" fill="#D68900"/>
<path d="M41.4183 41.1474H43.5516L45.3549 38.5001H30.82L29.0168 41.1474H36.0584C36.8362 41.148 37.5981 41.3686 38.256 41.7835C38.9139 42.1984 39.4412 42.7909 39.777 43.4925H30.4961L28.6929 46.1397H40.0947C39.8967 47.0657 39.3863 47.8954 38.6491 48.4897C37.912 49.084 36.9928 49.4067 36.0459 49.4036H29.1818V52.4308L34.713 62.1788H38.5125L32.8848 52.0602H36.1207C37.7573 52.0452 39.333 51.4373 40.5557 50.3492C41.7783 49.2611 42.565 47.7667 42.7699 46.1428H43.5516L45.3549 43.4956H42.5862C42.3547 42.6438 41.9579 41.8459 41.4183 41.1474Z" fill="#FFCC00"/>
<path d="M84.9636 75.9319H42.4927V76.7229H84.9636V75.9319Z" fill="#102F54"/>
<path d="M39.8266 106.029H38.4189L43.6044 76.723H45.7533L39.8266 106.029Z" fill="#E6976D"/>
<path d="M86.745 106.029H88.1527L82.9673 76.723H80.8184L86.745 106.029Z" fill="#E6976D"/>
<path d="M59.4225 73.4778H45.0184L42.4927 64.1003H56.8967L59.4225 73.4778Z" fill="#F0F1F5"/>
<path d="M59.4537 73.4778H59.027L56.5012 64.1003L56.931 64.5457L59.4537 73.4778Z" fill="#CBCED8"/>
<path d="M65.4957 73.4778H45.0186V74.2533H65.4957V73.4778Z" fill="#CBCED8"/>
<path d="M51.2192 68.9028C51.3718 69.7187 50.9078 70.488 50.2195 70.6188C49.5312 70.7496 48.8181 70.1921 48.6623 69.373C48.5066 68.554 48.9582 67.7878 49.662 67.657C50.3659 67.5262 51.0666 68.0961 51.2192 68.9028Z" fill="#CBCED8"/>
<path d="M12.5416 103.149H4.26982L3.23584 92.8555H13.5725L12.5416 103.149Z" fill="#F0F1F3"/>
<path d="M13.5757 92.8555C13.5757 92.2856 11.2617 91.8215 8.40579 91.8215C5.54989 91.8215 3.23901 92.2856 3.23901 92.8555C3.23901 93.4254 5.55301 93.8864 8.40579 93.8864C11.2586 93.8864 13.5757 93.4254 13.5757 92.8555Z" fill="#F0F1F3"/>
<path d="M12.9341 92.8556C12.9341 92.3542 10.9004 91.9462 8.39332 91.9462C5.88623 91.9462 3.85254 92.3542 3.85254 92.8556C3.85254 93.357 5.88623 93.7619 8.39332 93.7619C10.9004 93.7619 12.9341 93.357 12.9341 92.8556Z" fill="#1E2346"/>
<path d="M12.5416 103.114C12.5416 102.544 10.6885 102.083 8.40568 102.083C6.12284 102.083 4.26978 102.544 4.26978 103.114C4.26978 103.684 6.13841 104.148 8.40568 104.148C10.673 104.148 12.5416 103.684 12.5416 103.114Z" fill="#F0F1F3"/>
<path d="M13.3638 89.2926C13.3656 88.8804 13.2394 88.4777 13.0025 88.1403C12.825 87.8289 12.6911 87.5548 12.8904 87.2527C13.0488 87.0733 13.2389 86.9244 13.451 86.8136C13.7369 86.6434 14.0322 86.4895 14.3355 86.3527C15.0201 86.0614 15.6639 85.6824 16.2508 85.2253C16.4921 85.0227 16.702 84.7855 16.8737 84.5214C17.008 84.3161 17.107 84.0898 17.1665 83.8518C17.2456 83.4408 17.2935 83.0243 17.3097 82.6061C17.3291 82.4951 17.3708 82.3893 17.4324 82.2951C17.4939 82.2009 17.5741 82.1202 17.6679 82.0579C17.9158 81.8759 18.1795 81.7164 18.4558 81.5814C18.7673 81.435 19.0787 81.3042 19.3902 81.1579C19.6774 81.0352 19.9527 80.8861 20.2124 80.7125C20.3351 80.622 20.4406 80.5102 20.5238 80.3824C20.6072 80.2593 20.6751 80.1265 20.7262 79.9869C20.8218 79.704 20.8794 79.4097 20.8975 79.1117C20.9242 78.8563 20.8741 78.5987 20.7538 78.3718C20.6334 78.1449 20.4482 77.9591 20.2217 77.8379C19.9481 77.6922 19.6525 77.5923 19.3465 77.5421C19.1821 77.5218 19.0158 77.5218 18.8514 77.5421C18.6817 77.5695 18.5177 77.6242 18.3655 77.704C18.0489 77.8728 17.7558 78.0822 17.4935 78.3269C17.2101 78.5947 16.9236 78.8781 16.6588 79.1522C16.4298 79.4121 16.1798 79.6527 15.9114 79.8716C15.7306 80.0439 15.499 80.1531 15.2511 80.1831C14.7832 80.148 14.3127 80.1847 13.8559 80.2921C13.5711 80.3734 13.3002 80.4973 13.0524 80.6596C12.7343 80.8848 12.451 81.1556 12.2115 81.4631C11.6806 82.1863 11.3072 83.0128 11.1152 83.8892C11.0031 84.2847 10.9315 84.6678 10.8536 84.9855C10.8024 85.2476 10.7121 85.5006 10.5858 85.736C10.3802 86.0879 10.0688 86.0879 9.68883 86.0911C9.22911 86.0482 8.77085 86.1868 8.41193 86.4772C8.22152 86.6606 8.10984 86.9107 8.10049 87.1749C8.08218 87.5581 8.1041 87.9423 8.16589 88.321C8.21884 88.7601 8.32473 89.2553 8.42127 89.8065C8.51782 90.3578 8.63305 90.9308 8.7078 91.5381C8.71395 91.6313 8.74682 91.7207 8.80248 91.7957C8.85813 91.8707 8.93422 91.928 9.02162 91.9609C9.10902 91.9937 9.20404 92.0007 9.29531 91.981C9.38657 91.9612 9.47021 91.9156 9.53622 91.8496C9.94647 91.4597 10.4 91.118 10.8879 90.8312C11.2835 90.6001 11.6922 90.3921 12.1118 90.2083C12.4162 90.0817 12.7108 89.9328 12.9932 89.7629C13.0877 89.7193 13.1705 89.6539 13.2349 89.5722C13.2993 89.4905 13.3435 89.3947 13.3638 89.2926Z" fill="#26377C"/>
<path d="M8.66742 93.0673C8.65226 93.0621 8.6383 93.0539 8.62641 93.0431C8.61452 93.0324 8.60493 93.0193 8.59823 93.0048C8.59153 92.9902 8.58786 92.9744 8.58744 92.9584C8.58702 92.9424 8.58986 92.9265 8.59579 92.9116L8.82625 92.1828C8.89477 91.9461 9.00066 91.6689 9.13769 91.3544C9.27472 91.0398 9.38373 90.6754 9.56125 90.2955C10.3658 88.4146 11.4049 86.643 12.6538 85.0228C13.8933 83.392 15.3367 81.9267 16.9486 80.6627C17.5964 80.1363 18.1943 79.7564 18.5805 79.473L19.2314 79.0681C19.2444 79.0588 19.2591 79.0521 19.2747 79.0486C19.2903 79.0451 19.3065 79.0448 19.3222 79.0478C19.3379 79.0507 19.3528 79.0567 19.3662 79.0656C19.3795 79.0744 19.3908 79.0859 19.3996 79.0992C19.4142 79.1279 19.4171 79.161 19.4079 79.1918C19.3986 79.2226 19.3778 79.2485 19.3498 79.2643L18.7051 79.6661C18.3127 79.9464 17.7334 80.3232 17.0887 80.8433C16.3485 81.4261 15.6414 82.05 14.9709 82.7119C14.2074 83.4774 13.4948 84.292 12.8376 85.1505C11.6005 86.7562 10.5699 88.5109 9.76991 90.3733C9.59862 90.7471 9.45847 91.1052 9.35258 91.4198C9.2467 91.7343 9.12835 92.0084 9.06295 92.242L8.83248 92.9645C8.83027 92.9831 8.82393 93.0009 8.81391 93.0166C8.8039 93.0324 8.79047 93.0457 8.77463 93.0555C8.75878 93.0654 8.74092 93.0716 8.72236 93.0736C8.7038 93.0757 8.68503 93.0735 8.66742 93.0673Z" fill="white"/>
<path d="M9.87885 87.4053C9.5965 87.071 9.19355 86.8617 8.75767 86.8229C8.3964 86.7513 8.09742 86.6952 7.99465 86.3464C7.93404 86.1128 7.91298 85.8707 7.93236 85.6301C7.93236 85.3187 7.96973 84.9761 7.9635 84.5992C8.00264 83.7822 7.85346 82.967 7.52749 82.2167C7.37475 81.898 7.17063 81.6066 6.9233 81.3541C6.7282 81.1654 6.50293 81.0106 6.25682 80.8962C5.84804 80.7329 5.41606 80.6352 4.9768 80.6066C4.75681 80.5519 4.56421 80.4191 4.4349 80.2329C4.23397 79.9957 4.05567 79.7402 3.90234 79.4698C3.7217 79.1802 3.51927 78.8781 3.31372 78.5947C3.22127 78.4553 3.11708 78.324 3.00228 78.2023C2.89478 78.0902 2.77924 77.9861 2.65658 77.8909C2.53315 77.798 2.39385 77.7283 2.24548 77.6853C2.09572 77.6491 1.94157 77.6344 1.78767 77.6417C1.49245 77.6559 1.2018 77.7201 0.928097 77.8317C0.695213 77.9302 0.492338 78.0883 0.339827 78.29C0.187315 78.4917 0.0905304 78.73 0.0591819 78.9809C0.0129122 79.2598 0.00244675 79.5434 0.0280385 79.8249C0.0420369 79.9592 0.073444 80.0911 0.12147 80.2173C0.164975 80.3415 0.232727 80.4558 0.320791 80.5537C0.407695 80.6461 0.503686 80.7296 0.607314 80.8028L0.953011 81.0426C1.19282 81.2077 1.46377 81.3541 1.70358 81.5285C1.92165 81.6803 2.12405 81.8535 2.30777 82.0455C2.37857 82.1155 2.43269 82.2006 2.46612 82.2944C2.49954 82.3882 2.51142 82.4883 2.50086 82.5874C2.40993 82.9663 2.34747 83.3515 2.314 83.7397C2.3085 83.9514 2.3412 84.1624 2.41055 84.3626C2.49457 84.6134 2.62214 84.8474 2.78739 85.054C3.2185 85.5389 3.71789 85.9586 4.26984 86.2997C4.51673 86.4621 4.75383 86.6389 4.97992 86.8292C5.14843 86.9562 5.28936 87.1162 5.39413 87.2994C5.50936 87.5922 5.30381 87.804 5.04843 88.0469C4.74032 88.2851 4.51128 88.6107 4.3913 88.9812C4.35393 89.14 4.4349 89.2926 4.60619 89.4484C4.82996 89.6444 5.06724 89.8244 5.31627 89.9871C5.66455 90.2178 5.99842 90.4695 6.31599 90.7408C6.70411 91.0669 7.05317 91.4369 7.3562 91.8433C7.40726 91.9156 7.47624 91.9734 7.55636 92.011C7.63648 92.0486 7.72501 92.0648 7.81325 92.0578C7.90149 92.0509 7.98642 92.0212 8.05971 91.9716C8.13301 91.922 8.19215 91.8542 8.23134 91.7748C8.46492 91.264 8.7421 90.7813 8.96945 90.3297C9.1968 89.8781 9.44595 89.4577 9.61413 89.084C9.77741 88.7662 9.90384 88.4308 9.99097 88.0842C10.0226 87.9697 10.029 87.8497 10.0097 87.7324C9.99031 87.6152 9.94567 87.5036 9.87885 87.4053Z" fill="#86D4D4"/>
<path d="M7.85125 93.1047C7.82088 93.1056 7.79133 93.0948 7.76872 93.0745C7.74611 93.0542 7.73217 93.026 7.72978 92.9957L7.70798 92.3292C7.70798 92.1143 7.67995 91.859 7.65192 91.5662C7.6239 91.2735 7.59587 90.9433 7.53046 90.579C7.26662 88.8179 6.75056 87.104 5.99818 85.49C5.59939 84.6265 5.1372 83.7938 4.61539 82.9985C4.15605 82.3085 3.65254 81.649 3.10803 81.024C2.63776 80.4665 2.1924 80.0554 1.89653 79.7502L1.41069 79.308C1.38939 79.2864 1.37744 79.2573 1.37744 79.227C1.37744 79.1967 1.38939 79.1676 1.41069 79.146C1.42088 79.1352 1.43319 79.1266 1.44684 79.1206C1.4605 79.1147 1.47522 79.1117 1.4901 79.1117C1.50499 79.1117 1.51971 79.1147 1.53337 79.1206C1.54702 79.1266 1.55933 79.1352 1.56952 79.146L2.07405 79.5945C2.38549 79.9059 2.82462 80.3233 3.30112 80.8839C3.8509 81.5179 4.36057 82.1857 4.82717 82.8833C5.35301 83.6897 5.82033 84.5327 6.22553 85.4059C6.98871 87.0395 7.51314 88.7743 7.78273 90.5572C7.84813 90.9215 7.87616 91.2579 7.90419 91.5569C7.93222 91.8558 7.96025 92.1143 7.96025 92.3292C7.96025 92.759 7.98516 93.0051 7.98516 93.0051C7.98479 93.0212 7.98076 93.0369 7.97337 93.0512C7.96598 93.0655 7.95543 93.078 7.94252 93.0876C7.92961 93.0972 7.91468 93.1037 7.89886 93.1067C7.88305 93.1097 7.86676 93.109 7.85125 93.1047Z" fill="white"/>
<path d="M10.8038 86.6486C10.6391 86.2333 10.3454 85.8817 9.96599 85.6458C9.65455 85.4184 9.41474 85.2191 9.46457 84.7955C9.52675 84.5251 9.6319 84.2665 9.77601 84.0294C9.95689 83.6958 10.1544 83.3715 10.3677 83.0577C10.8667 82.3488 11.2845 81.5862 11.6135 80.7842C11.7394 80.4384 11.8231 80.0787 11.8627 79.7129C11.8973 79.4309 11.8889 79.1452 11.8377 78.8657C11.7348 78.4125 11.5942 77.9688 11.4173 77.539C11.3586 77.2849 11.3905 77.0183 11.5076 76.7853C11.6591 76.4616 11.8339 76.1493 12.0308 75.851C12.2488 75.524 12.5042 75.197 12.7222 74.87C12.8312 74.7049 12.9402 74.5585 13.0337 74.3935C13.1277 74.2477 13.212 74.0958 13.2859 73.9388C13.3595 73.7804 13.4069 73.611 13.4261 73.4374C13.4463 73.2719 13.4463 73.1045 13.4261 72.9391C13.3922 72.6186 13.3147 72.3042 13.1956 72.0047C13.111 71.7612 12.9473 71.5531 12.7305 71.4137C12.5136 71.2742 12.2563 71.2115 11.9997 71.2355C11.6705 71.2675 11.3486 71.3527 11.0467 71.4878C10.8791 71.5643 10.7212 71.6604 10.5764 71.7743C10.4302 71.9005 10.3033 72.0474 10.1996 72.2103C10.0961 72.377 10.0025 72.5496 9.91927 72.7273C9.82574 72.9209 9.74561 73.1207 9.67947 73.3252C9.53932 73.7457 9.40229 74.1817 9.28082 74.599C9.18357 74.9816 9.06079 75.3572 8.91333 75.7233C8.82574 75.9905 8.66367 76.2272 8.44617 76.4054C7.99607 76.6475 7.58288 76.9527 7.2191 77.3117C6.99682 77.5564 6.80828 77.8298 6.65851 78.1245C6.46871 78.5199 6.33255 78.9389 6.25364 79.3703C6.09723 80.3661 6.12998 81.3826 6.35018 82.3663C6.42804 82.821 6.53393 83.2383 6.60868 83.6121C6.68047 83.9055 6.71294 84.2071 6.70522 84.509C6.68342 84.9762 6.39379 85.1319 6.06366 85.3499C5.61969 85.5674 5.27548 85.9461 5.10131 86.4088C5.01839 86.6915 5.036 86.9941 5.15114 87.2652C5.30714 87.658 5.50115 88.0346 5.73042 88.3895C5.97646 88.8069 6.30347 89.2678 6.63982 89.7692C6.97618 90.2706 7.34367 90.8157 7.69249 91.4074C7.73225 91.4976 7.7999 91.5727 7.88549 91.6216C7.97108 91.6706 8.0701 91.6908 8.16802 91.6793C8.26594 91.6678 8.35759 91.6252 8.42951 91.5577C8.50144 91.4903 8.54985 91.4016 8.56763 91.3046C8.75349 90.7076 9.00085 90.1314 9.30574 89.5855C9.55118 89.1425 9.82045 88.7131 10.1124 88.2992C10.3276 88.0021 10.5212 87.6898 10.6916 87.3649C10.7606 87.2605 10.8063 87.1426 10.8257 87.019C10.845 86.8954 10.8375 86.7691 10.8038 86.6486Z" fill="#F3CE87"/>
<path d="M8.37137 93.03C8.30909 93.03 8.24991 92.9832 8.23746 92.9023L8.10042 92.0302C8.08174 91.8901 8.05059 91.7375 8.03502 91.5693C8.01945 91.4011 7.99765 91.2174 7.97585 91.0212C7.93536 90.6319 7.88242 90.1959 7.86373 89.7131C7.71474 87.3591 7.84226 84.9958 8.24368 82.6715C8.45595 81.4306 8.74195 80.2034 9.10014 78.9965C9.42048 77.9467 9.79576 76.9144 10.2244 75.9039C10.5888 75.0101 10.9657 74.3 11.2086 73.7924C11.4515 73.2847 11.6321 73.0169 11.6321 73.0169C11.6373 73 11.6461 72.9845 11.658 72.9714C11.6699 72.9584 11.6846 72.9482 11.7009 72.9415C11.7173 72.9349 11.7349 72.932 11.7525 72.9331C11.7701 72.9341 11.7873 72.9391 11.8027 72.9477C11.8182 72.9562 11.8315 72.9681 11.8418 72.9825C11.852 72.9969 11.8589 73.0134 11.862 73.0307C11.865 73.0481 11.8641 73.066 11.8594 73.083C11.8547 73.1 11.8462 73.1157 11.8346 73.129C11.8346 73.129 11.682 73.4093 11.411 73.8983C11.1401 74.3872 10.7881 75.1067 10.4362 75.9911C9.51693 78.1447 8.85622 80.3997 8.46792 82.7089C8.06989 85.0157 7.94445 87.3614 8.09419 89.6976C8.11288 90.1772 8.16271 90.6101 8.20631 90.9994C8.225 91.1925 8.24368 91.3731 8.26237 91.5382C8.28106 91.7032 8.30909 91.8496 8.32777 91.996C8.41498 92.5472 8.46169 92.8618 8.46169 92.8618C8.47067 92.896 8.46635 92.9324 8.44959 92.9636C8.43284 92.9948 8.40489 93.0185 8.37137 93.03Z" fill="white"/>
<path d="M124.656 103.149H116.388L115.354 92.8555H125.69L124.656 103.149Z" fill="#F0F1F3"/>
<path d="M125.694 92.8555C125.694 92.2856 123.38 91.8215 120.524 91.8215C117.668 91.8215 115.357 92.2856 115.357 92.8555C115.357 93.4254 117.671 93.8864 120.524 93.8864C123.376 93.8864 125.694 93.4254 125.694 92.8555Z" fill="#F0F1F3"/>
<path d="M125.052 92.8556C125.052 92.3542 123.018 91.9462 120.511 91.9462C118.004 91.9462 115.97 92.3542 115.97 92.8556C115.97 93.357 118.004 93.7619 120.511 93.7619C123.018 93.7619 125.052 93.357 125.052 92.8556Z" fill="#1E2346"/>
<path d="M124.66 103.114C124.66 102.544 122.807 102.083 120.524 102.083C118.241 102.083 116.388 102.544 116.388 103.114C116.388 103.684 118.241 104.148 120.524 104.148C122.807 104.148 124.66 103.684 124.66 103.114Z" fill="#F0F1F3"/>
<path d="M125.482 89.2926C125.484 88.8803 125.357 88.4777 125.12 88.1403C124.943 87.8288 124.809 87.5548 125.008 87.2527C125.167 87.0732 125.357 86.9244 125.569 86.8135C125.855 86.6434 126.15 86.4895 126.453 86.3526C127.139 86.0565 127.783 85.6723 128.369 85.2096C128.61 85.0071 128.82 84.7699 128.992 84.5058C129.126 84.3005 129.225 84.0742 129.284 83.8362C129.364 83.4251 129.411 83.0087 129.428 82.5904C129.447 82.4795 129.489 82.3737 129.55 82.2795C129.612 82.1852 129.692 82.1045 129.786 82.0423C130.034 81.8603 130.297 81.7008 130.574 81.5658C130.885 81.4194 131.197 81.2886 131.508 81.1422C131.795 81.0195 132.071 80.8704 132.33 80.6969C132.453 80.6064 132.559 80.4946 132.642 80.3668C132.725 80.2437 132.793 80.1108 132.844 79.9712C132.94 79.6884 132.997 79.3941 133.015 79.0961C133.042 78.8406 132.992 78.5831 132.872 78.3562C132.751 78.1293 132.566 77.9434 132.34 77.8223C132.066 77.6766 131.77 77.5766 131.464 77.5264C131.3 77.5062 131.134 77.5062 130.969 77.5264C130.8 77.5539 130.636 77.6086 130.483 77.6884C130.167 77.8571 129.874 78.0665 129.611 78.3113C129.328 78.5791 129.041 78.8625 128.777 79.1366C128.548 79.3964 128.298 79.637 128.029 79.856C127.849 80.0282 127.617 80.1375 127.369 80.1674C126.901 80.1323 126.431 80.1691 125.974 80.2764C125.689 80.3578 125.418 80.4817 125.17 80.6439C124.852 80.8692 124.569 81.1399 124.329 81.4474C123.799 82.1707 123.425 82.9972 123.233 83.8736C123.121 84.2691 123.049 84.6522 122.972 84.9698C122.919 85.2316 122.829 85.4844 122.704 85.7204C122.498 86.0723 122.187 86.0723 121.807 86.0754C121.347 86.0326 120.889 86.1712 120.53 86.4616C120.339 86.6449 120.228 86.8951 120.218 87.1592C120.2 87.5425 120.222 87.9266 120.284 88.3053C120.337 88.7445 120.443 89.2396 120.539 89.7909C120.636 90.3421 120.751 90.9152 120.826 91.5225C120.832 91.6157 120.865 91.7051 120.92 91.7801C120.976 91.8551 121.052 91.9124 121.14 91.9453C121.227 91.9781 121.322 91.9851 121.413 91.9653C121.504 91.9456 121.588 91.9 121.654 91.8339C122.068 91.4575 122.522 91.1285 123.009 90.8529C123.406 90.6224 123.816 90.4144 124.236 90.23C124.54 90.1034 124.835 89.9546 125.117 89.7847C125.213 89.7382 125.297 89.6691 125.36 89.5834C125.423 89.4977 125.465 89.3979 125.482 89.2926Z" fill="#26377C"/>
<path d="M120.785 93.0673C120.77 93.0622 120.756 93.0539 120.744 93.0432C120.732 93.0324 120.723 93.0194 120.716 93.0048C120.709 92.9903 120.706 92.9745 120.705 92.9585C120.705 92.9425 120.708 92.9265 120.714 92.9116L120.944 92.1829C121.013 91.9462 121.119 91.669 121.24 91.3544C121.362 91.0399 121.486 90.6755 121.664 90.2955C122.468 88.4147 123.507 86.6431 124.756 85.0229C125.422 84.1578 126.141 83.336 126.911 82.5625C127.589 81.894 128.302 81.2629 129.048 80.6721C129.699 80.1457 130.294 79.7658 130.683 79.4824L131.334 79.0775C131.347 79.0682 131.361 79.0615 131.377 79.058C131.393 79.0545 131.409 79.0542 131.425 79.0572C131.44 79.0601 131.455 79.0661 131.469 79.075C131.482 79.0838 131.493 79.0953 131.502 79.1086C131.517 79.1373 131.519 79.1704 131.51 79.2012C131.501 79.232 131.48 79.2579 131.452 79.2737L130.807 79.6755C130.415 79.9558 129.836 80.3326 129.191 80.8527C128.451 81.4355 127.744 82.0594 127.073 82.7213C126.31 83.4868 125.597 84.3014 124.94 85.1599C123.703 86.7656 122.672 88.5203 121.872 90.3827C121.701 90.7565 121.561 91.1146 121.455 91.4292C121.349 91.7437 121.231 92.0178 121.165 92.2514L120.935 92.9739C120.931 92.9899 120.924 93.0049 120.915 93.0183C120.905 93.0316 120.893 93.0429 120.879 93.0516C120.866 93.0603 120.85 93.0661 120.834 93.0688C120.818 93.0715 120.801 93.071 120.785 93.0673Z" fill="white"/>
<path d="M121.997 87.4053C121.715 87.071 121.312 86.8617 120.876 86.8229C120.514 86.7513 120.215 86.6952 120.113 86.3464C120.052 86.1128 120.031 85.8707 120.05 85.6301C120.05 85.3187 120.088 84.9761 120.082 84.5992C120.121 83.7822 119.972 82.967 119.646 82.2167C119.493 81.898 119.289 81.6066 119.041 81.3541C118.846 81.1654 118.621 81.0106 118.375 80.8962C117.966 80.7329 117.534 80.6352 117.095 80.6066C116.875 80.5519 116.682 80.4191 116.553 80.2329C116.352 79.9957 116.174 79.7402 116.02 79.4698C115.84 79.1802 115.634 78.8781 115.432 78.5947C115.339 78.4553 115.235 78.324 115.12 78.2023C115.013 78.0902 114.897 77.9861 114.775 77.8909C114.651 77.798 114.512 77.7283 114.364 77.6853C114.214 77.6491 114.06 77.6344 113.906 77.6417C113.611 77.6559 113.32 77.7201 113.046 77.8317C112.813 77.9302 112.61 78.0883 112.458 78.29C112.305 78.4917 112.209 78.73 112.177 78.9809C112.133 79.2599 112.122 79.5433 112.146 79.8249C112.16 79.9592 112.192 80.0911 112.24 80.2173C112.283 80.3415 112.351 80.4558 112.439 80.5537C112.526 80.6461 112.622 80.7296 112.725 80.8028L113.071 81.0426C113.311 81.2077 113.582 81.3541 113.822 81.5285C114.04 81.6803 114.242 81.8535 114.426 82.0455C114.497 82.1155 114.551 82.2006 114.584 82.2944C114.618 82.3882 114.629 82.4883 114.619 82.5874C114.528 82.9663 114.466 83.3515 114.432 83.7397C114.427 83.9514 114.459 84.1624 114.529 84.3626C114.613 84.6134 114.74 84.8474 114.905 85.054C115.337 85.5389 115.836 85.9586 116.388 86.2997C116.635 86.4621 116.872 86.6389 117.098 86.8292C117.267 86.9562 117.407 87.1162 117.512 87.2994C117.627 87.5922 117.422 87.804 117.167 88.0469C116.858 88.2851 116.629 88.6107 116.509 88.9812C116.472 89.14 116.553 89.2926 116.724 89.4484C116.948 89.6444 117.185 89.8244 117.434 89.9871C117.783 90.2178 118.116 90.4695 118.434 90.7408C118.822 91.0669 119.171 91.4369 119.474 91.8433C119.525 91.9156 119.594 91.9734 119.674 92.011C119.755 92.0486 119.843 92.0648 119.931 92.0578C120.02 92.0509 120.104 92.0212 120.178 91.9716C120.251 91.922 120.31 91.8542 120.349 91.7748C120.583 91.264 120.86 90.7813 121.088 90.3297C121.315 89.8781 121.564 89.4577 121.732 89.084C121.895 88.7662 122.022 88.4308 122.109 88.0842C122.141 87.9697 122.147 87.8497 122.128 87.7324C122.108 87.6152 122.064 87.5036 121.997 87.4053Z" fill="#86D4D4"/>
<path d="M119.969 93.1047C119.939 93.1056 119.909 93.0948 119.887 93.0745C119.864 93.0542 119.85 93.026 119.848 92.9957L119.826 92.3292C119.826 92.1143 119.798 91.859 119.77 91.5662C119.742 91.2735 119.714 90.9433 119.649 90.579C119.385 88.8179 118.869 87.104 118.116 85.49C117.375 83.8691 116.401 82.3646 115.226 81.024C114.756 80.4665 114.311 80.0554 114.015 79.7502L113.529 79.308C113.508 79.2864 113.496 79.2573 113.496 79.227C113.496 79.1967 113.508 79.1676 113.529 79.146C113.539 79.1352 113.551 79.1266 113.565 79.1206C113.579 79.1147 113.593 79.1117 113.608 79.1117C113.623 79.1117 113.638 79.1147 113.652 79.1206C113.665 79.1266 113.677 79.1352 113.688 79.146L114.192 79.5945C114.504 79.9059 114.943 80.3233 115.419 80.8839C116.609 82.2408 117.594 83.7643 118.344 85.4059C119.107 87.0395 119.631 88.7743 119.901 90.5572C119.966 90.9215 119.994 91.2579 120.022 91.5569C120.05 91.8558 120.078 92.1143 120.078 92.3292C120.094 92.759 120.103 93.0051 120.103 93.0051C120.103 93.0212 120.099 93.0369 120.092 93.0512C120.084 93.0655 120.074 93.078 120.061 93.0876C120.048 93.0972 120.033 93.1037 120.017 93.1067C120.001 93.1097 119.985 93.109 119.969 93.1047Z" fill="white"/>
<path d="M122.922 86.6486C122.757 86.2332 122.463 85.8817 122.084 85.6458C121.773 85.4184 121.533 85.2191 121.583 84.7955C121.645 84.5251 121.75 84.2665 121.894 84.0294C122.075 83.6958 122.272 83.3715 122.486 83.0577C122.985 82.3488 123.403 81.5862 123.732 80.7842C123.857 80.4384 123.941 80.0787 123.981 79.7128C124.015 79.4308 124.007 79.1452 123.956 78.8657C123.853 78.4125 123.712 77.9687 123.535 77.539C123.477 77.2849 123.509 77.0183 123.626 76.7853C123.777 76.4616 123.952 76.1493 124.149 75.851C124.367 75.524 124.622 75.197 124.84 74.87C124.949 74.7049 125.058 74.5585 125.152 74.3935C125.246 74.2476 125.33 74.0957 125.404 73.9388C125.478 73.7803 125.525 73.611 125.544 73.4373C125.57 73.2725 125.575 73.1052 125.56 72.939C125.526 72.6185 125.448 72.3042 125.329 72.0047C125.245 71.7561 125.078 71.5437 124.857 71.4027C124.635 71.2616 124.372 71.2004 124.112 71.2292C123.782 71.2612 123.46 71.3464 123.159 71.4815C122.991 71.558 122.833 71.6542 122.688 71.768C122.542 71.8942 122.415 72.0411 122.311 72.204C122.208 72.3707 122.114 72.5434 122.031 72.721C121.938 72.9146 121.857 73.1144 121.791 73.319C121.651 73.7394 121.514 74.1755 121.393 74.5928C121.295 74.9753 121.173 75.3509 121.025 75.7171C120.938 75.9843 120.775 76.2209 120.558 76.3991C120.108 76.6413 119.695 76.9464 119.331 77.3054C119.109 77.5502 118.92 77.8235 118.77 78.1183C118.581 78.5137 118.444 78.9326 118.365 79.364C118.209 80.3599 118.242 81.3763 118.462 82.3601C118.54 82.8148 118.646 83.2321 118.721 83.6058C118.792 83.8992 118.825 84.2008 118.817 84.5028C118.795 84.9699 118.506 85.1257 118.175 85.3437C117.732 85.5611 117.387 85.9399 117.213 86.4025C117.13 86.6852 117.148 86.9879 117.263 87.259C117.418 87.6523 117.612 88.029 117.842 88.3833C118.088 88.8006 118.415 89.2616 118.752 89.763C119.088 90.2644 119.455 90.8094 119.804 91.4011C119.844 91.4914 119.912 91.5664 119.997 91.6154C120.083 91.6643 120.182 91.6845 120.28 91.673C120.378 91.6615 120.469 91.6189 120.541 91.5515C120.613 91.4841 120.662 91.3953 120.679 91.2984C120.869 90.7019 121.121 90.1268 121.43 89.5823C121.675 89.1393 121.945 88.71 122.237 88.2961C122.452 87.9989 122.645 87.6867 122.816 87.3618C122.883 87.2573 122.928 87.1396 122.946 87.0166C122.964 86.8936 122.956 86.7681 122.922 86.6486Z" fill="#F3CE87"/>
<path d="M120.49 93.03C120.427 93.03 120.368 92.9832 120.356 92.9023L120.219 92.0302C120.2 91.8901 120.169 91.7375 120.153 91.5693C120.138 91.4011 120.116 91.2174 120.094 91.0212C120.054 90.6319 120.001 90.1959 119.982 89.7131C119.833 87.3591 119.96 84.9958 120.362 82.6715C120.574 81.4306 120.86 80.2034 121.218 78.9965C121.539 77.9467 121.914 76.9144 122.343 75.9039C122.707 75.0101 123.084 74.3 123.327 73.7924C123.57 73.2847 123.75 73.0169 123.75 73.0169C123.755 73 123.764 72.9845 123.776 72.9714C123.788 72.9584 123.803 72.9482 123.819 72.9415C123.835 72.9349 123.853 72.932 123.871 72.9331C123.888 72.9341 123.905 72.9391 123.921 72.9477C123.936 72.9562 123.95 72.9681 123.96 72.9825C123.97 72.9969 123.977 73.0134 123.98 73.0307C123.983 73.0481 123.982 73.066 123.978 73.083C123.973 73.1 123.964 73.1157 123.953 73.129C123.953 73.129 123.8 73.4093 123.529 73.8983C123.258 74.3872 122.906 75.1067 122.554 75.9911C121.635 78.1447 120.974 80.3997 120.586 82.7089C120.188 85.0157 120.063 87.3614 120.212 89.6976C120.231 90.1772 120.281 90.6101 120.324 90.9994C120.343 91.1925 120.362 91.3731 120.381 91.5382C120.399 91.7032 120.427 91.8496 120.446 91.996C120.533 92.5472 120.58 92.8618 120.58 92.8618C120.589 92.896 120.585 92.9324 120.568 92.9636C120.551 92.9948 120.523 93.0185 120.49 93.03Z" fill="white"/>
</g>
<defs>
<clipPath id="clip0_49_3150">
<rect width="133" height="122.386" fill="white"/>
</clipPath>
</defs>
</svg>
