<svg width="37" height="18" viewBox="0 0 37 18" fill="none" xmlns="http://www.w3.org/2000/svg">
<path d="M18.9002 3.80376C18.8956 3.85084 18.8786 3.89588 18.8511 3.93432C18.8235 3.97276 18.7863 4.00325 18.7431 4.0227L17.3581 4.73663C17.27 4.78422 17.2037 4.86405 17.1731 4.95942C17.1424 5.05479 17.1499 5.1583 17.1939 5.24829C17.2485 5.36921 17.2939 5.49411 17.3295 5.62191C17.3589 5.72827 17.416 5.82489 17.495 5.90185C17.5741 5.97881 17.6722 6.03333 17.7793 6.05979L18.1268 6.1169L18.7193 5.80992C18.7641 5.79077 18.8026 5.75941 18.8303 5.71943C18.8581 5.67945 18.8741 5.63246 18.8764 5.58384L18.9002 3.80376ZM8.11979 4.46772C6.50868 5.13882 5.93278 6.34298 6.62291 7.34963C7.00164 6.85342 7.51322 6.47469 8.09838 6.25731C9.96412 5.48388 12.5129 5.72186 13.7884 6.79276C13.9506 6.92803 14.096 7.08223 14.2216 7.25206C14.7213 6.53813 14.6118 5.68141 13.8075 5.00555C12.5343 3.92275 9.98554 3.68239 8.11979 4.46772ZM19.914 6.70233C19.913 6.73723 19.9066 6.77175 19.8949 6.80466L19.588 7.77085C19.5507 7.87377 19.4834 7.96308 19.3946 8.02718C19.3059 8.09127 19.2 8.12717 19.0906 8.1302L17.132 8.07071C17.0264 8.07114 16.922 8.09299 16.825 8.13496C16.7025 8.18642 16.5904 8.25981 16.4942 8.35152C16.3457 8.50592 16.1867 8.64984 16.0183 8.78226C15.9788 8.81007 15.9458 8.84602 15.9213 8.88768C15.8969 8.92935 15.8817 8.97576 15.8768 9.02379C15.8718 9.07182 15.8772 9.12037 15.8926 9.16614C15.908 9.21192 15.933 9.25386 15.9659 9.28915L16.6346 10.0031C16.6871 9.96752 16.7439 9.93873 16.8036 9.91741C16.8998 9.8757 17.0034 9.85384 17.1082 9.85316L19.0668 9.91027C19.1766 9.90772 19.2831 9.87204 19.3723 9.80792C19.4614 9.74379 19.5292 9.65421 19.5665 9.55092L19.8711 8.59901C19.8834 8.56387 19.8891 8.52675 19.8878 8.48954L19.914 6.70233ZM4.01467 4.28448C4.01583 4.35675 4.04481 4.42579 4.09559 4.47724L4.19554 4.58671C4.25469 4.55088 4.30907 4.5077 4.35736 4.4582C4.507 4.30496 4.66596 4.16111 4.83332 4.02746C4.87329 4.00009 4.90686 3.96439 4.93173 3.92282C4.95659 3.88124 4.97216 3.83477 4.97736 3.78661C4.98256 3.73845 4.97727 3.68973 4.96186 3.6438C4.94644 3.59788 4.92126 3.55583 4.88805 3.52056L4.11938 2.69002C4.07686 2.6495 4.0492 2.59586 4.04085 2.53772L4.01467 4.28448ZM16.8155 10.3006C16.8134 10.3543 16.7947 10.4061 16.7618 10.4488C16.729 10.4914 16.6837 10.5228 16.6323 10.5385L14.9117 11.2525C14.7674 11.3049 14.6109 11.3131 14.4619 11.2763C14.383 11.2635 14.3076 11.2343 14.2406 11.1906L13.0959 10.4291C12.8887 10.3072 12.6459 10.2601 12.4082 10.2958C12.0417 10.3648 11.668 10.4148 11.2968 10.4481C11.1589 10.4662 11.0288 10.5223 10.9208 10.6099C10.8443 10.6656 10.7816 10.7381 10.7376 10.8217L10.2997 11.6689C10.2298 11.7947 10.1177 11.8916 9.98316 11.9426C9.90759 11.9725 9.82619 11.9847 9.74518 11.9783L7.60338 11.7784C7.55382 11.7731 7.50581 11.758 7.46224 11.7337C7.41867 11.7095 7.38042 11.6768 7.34978 11.6375C7.31913 11.5982 7.29671 11.5531 7.28386 11.5049C7.27101 11.4568 7.26798 11.4065 7.27497 11.3572L7.38444 10.5314C7.39576 10.4264 7.37076 10.3207 7.31359 10.232C7.25643 10.1432 7.17056 10.0767 7.07031 10.0435C6.76744 9.95444 6.47023 9.84715 6.18027 9.72227C5.95219 9.63498 5.70242 9.62166 5.46634 9.6842H5.4473L3.78145 10.2268C3.64557 10.2672 3.50087 10.2672 3.36499 10.2268C3.27838 10.2038 3.19739 10.1633 3.12701 10.1078L2.04422 9.19634C2.0147 9.17429 1.98998 9.14646 1.97157 9.11455C1.95315 9.08264 1.94144 9.04731 1.93712 9.01072L1.91571 10.7908C1.91907 10.8286 1.93034 10.8653 1.94878 10.8985C1.96723 10.9318 1.99245 10.9607 2.0228 10.9836L3.10322 11.895C3.23377 11.9943 3.39376 12.047 3.55776 12.0449C3.5901 12.0497 3.62298 12.0497 3.65533 12.0449H3.66961C3.70041 12.0423 3.73077 12.0359 3.76004 12.0259L5.42588 11.4809H5.44492C5.68113 11.418 5.93127 11.4322 6.15885 11.5214C6.44842 11.6452 6.74478 11.7525 7.04651 11.8427C7.13425 11.8706 7.21143 11.9246 7.26783 11.9973L7.25118 13.2087C7.25134 13.3002 7.28553 13.3884 7.3471 13.4561C7.40868 13.5239 7.49324 13.5663 7.58434 13.5751L9.72615 13.775C9.80712 13.7804 9.88829 13.7682 9.96412 13.7393C10.0137 13.7184 10.0608 13.6921 10.1045 13.6608C10.1282 13.6453 10.1505 13.6278 10.1712 13.6085C10.1889 13.5928 10.2049 13.5753 10.2188 13.5561C10.2361 13.5358 10.2521 13.5144 10.2664 13.4918V13.4704L10.7042 12.6256C10.717 12.5991 10.733 12.5744 10.7518 12.5518C10.7624 12.5344 10.7752 12.5184 10.7899 12.5042C10.8188 12.4697 10.8516 12.4386 10.8875 12.4114C10.9954 12.3238 11.1256 12.2677 11.2635 12.2496C11.6363 12.2179 12.0072 12.167 12.3748 12.0973C12.6133 12.0632 12.8563 12.1101 13.065 12.2306L14.2097 12.9921C14.2768 13.0333 14.351 13.0616 14.4286 13.0754L14.4857 13.0873C14.5726 13.0992 14.6606 13.0992 14.7475 13.0873C14.7662 13.0858 14.7846 13.0818 14.8022 13.0754C14.8283 13.0711 14.8539 13.0639 14.8784 13.054L16.6013 12.34C16.6639 12.3171 16.7168 12.2734 16.7513 12.2163C16.7701 12.1838 16.78 12.1468 16.7798 12.1092L16.8155 10.3006ZM1.21367 6.43342C1.14082 6.42287 1.07398 6.38706 1.02483 6.33226C0.975684 6.27746 0.947343 6.20713 0.944757 6.13356L0.92334 7.92792C0.923351 8.004 0.951181 8.07745 1.00159 8.13443C1.052 8.19141 1.1215 8.228 1.19701 8.23729L2.71055 8.47527L3.50064 8.06594C3.58836 8.01795 3.65415 7.93795 3.68431 7.84261C3.71446 7.74728 3.70663 7.64399 3.66247 7.55429C3.60672 7.43357 3.56057 7.30864 3.52444 7.18067C3.49531 7.0746 3.43855 6.97817 3.35994 6.90124C3.28133 6.82431 3.18371 6.76962 3.07704 6.74279L1.21367 6.43342Z" fill="#E6E6E6"/>
<path opacity="0.1" d="M18.9002 3.80376C18.8956 3.85084 18.8786 3.89588 18.8511 3.93432C18.8235 3.97276 18.7863 4.00325 18.7431 4.0227L17.3581 4.73663C17.27 4.78422 17.2037 4.86405 17.1731 4.95942C17.1424 5.05479 17.1499 5.1583 17.1939 5.24829C17.2485 5.36921 17.2939 5.49411 17.3295 5.62191C17.3589 5.72827 17.416 5.82489 17.495 5.90185C17.5741 5.97881 17.6722 6.03333 17.7793 6.05979L18.1268 6.1169L18.7193 5.80992C18.7641 5.79077 18.8026 5.75941 18.8303 5.71943C18.8581 5.67945 18.8741 5.63246 18.8764 5.58384L18.9002 3.80376ZM8.11979 4.46772C6.50868 5.13882 5.93278 6.34298 6.62291 7.34963C7.00164 6.85342 7.51322 6.47469 8.09838 6.25731C9.96412 5.48388 12.5129 5.72186 13.7884 6.79276C13.9506 6.92803 14.096 7.08223 14.2216 7.25206C14.7213 6.53813 14.6118 5.68141 13.8075 5.00555C12.5343 3.92275 9.98554 3.68239 8.11979 4.46772ZM19.914 6.70233C19.913 6.73723 19.9066 6.77175 19.8949 6.80466L19.588 7.77085C19.5507 7.87377 19.4834 7.96308 19.3946 8.02718C19.3059 8.09127 19.2 8.12717 19.0906 8.1302L17.132 8.07071C17.0264 8.07114 16.922 8.09299 16.825 8.13496C16.7025 8.18642 16.5904 8.25981 16.4942 8.35152C16.3457 8.50592 16.1867 8.64984 16.0183 8.78226C15.9788 8.81007 15.9458 8.84602 15.9213 8.88768C15.8969 8.92935 15.8817 8.97576 15.8768 9.02379C15.8718 9.07182 15.8772 9.12037 15.8926 9.16614C15.908 9.21192 15.933 9.25386 15.9659 9.28915L16.6346 10.0031C16.6871 9.96752 16.7439 9.93873 16.8036 9.91741C16.8998 9.8757 17.0034 9.85384 17.1082 9.85316L19.0668 9.91027C19.1766 9.90772 19.2831 9.87204 19.3723 9.80792C19.4614 9.74379 19.5292 9.65421 19.5665 9.55092L19.8711 8.59901C19.8834 8.56387 19.8891 8.52675 19.8878 8.48954L19.914 6.70233ZM4.01467 4.28448C4.01583 4.35675 4.04481 4.42579 4.09559 4.47724L4.19554 4.58671C4.25469 4.55088 4.30907 4.5077 4.35736 4.4582C4.507 4.30496 4.66596 4.16111 4.83332 4.02746C4.87329 4.00009 4.90686 3.96439 4.93173 3.92282C4.95659 3.88124 4.97216 3.83477 4.97736 3.78661C4.98256 3.73845 4.97727 3.68973 4.96186 3.6438C4.94644 3.59788 4.92126 3.55583 4.88805 3.52056L4.11938 2.69002C4.07686 2.6495 4.0492 2.59586 4.04085 2.53772L4.01467 4.28448ZM16.8155 10.3006C16.8134 10.3543 16.7947 10.4061 16.7618 10.4488C16.729 10.4914 16.6837 10.5228 16.6323 10.5385L14.9117 11.2525C14.7674 11.3049 14.6109 11.3131 14.4619 11.2763C14.383 11.2635 14.3076 11.2343 14.2406 11.1906L13.0959 10.4291C12.8887 10.3072 12.6459 10.2601 12.4082 10.2958C12.0417 10.3648 11.668 10.4148 11.2968 10.4481C11.1589 10.4662 11.0288 10.5223 10.9208 10.6099C10.8443 10.6656 10.7816 10.7381 10.7376 10.8217L10.2997 11.6689C10.2298 11.7947 10.1177 11.8916 9.98316 11.9426C9.90759 11.9725 9.82619 11.9847 9.74518 11.9783L7.60338 11.7784C7.55382 11.7731 7.50581 11.758 7.46224 11.7337C7.41867 11.7095 7.38042 11.6768 7.34978 11.6375C7.31913 11.5982 7.29671 11.5531 7.28386 11.5049C7.27101 11.4568 7.26798 11.4065 7.27497 11.3572L7.38444 10.5314C7.39576 10.4264 7.37076 10.3207 7.31359 10.232C7.25643 10.1432 7.17056 10.0767 7.07031 10.0435C6.76744 9.95444 6.47023 9.84715 6.18027 9.72227C5.95219 9.63498 5.70242 9.62166 5.46634 9.6842H5.4473L3.78145 10.2268C3.64557 10.2672 3.50087 10.2672 3.36499 10.2268C3.27838 10.2038 3.19739 10.1633 3.12701 10.1078L2.04422 9.19634C2.0147 9.17429 1.98998 9.14646 1.97157 9.11455C1.95315 9.08264 1.94144 9.04731 1.93712 9.01072L1.91571 10.7908C1.91907 10.8286 1.93034 10.8653 1.94878 10.8985C1.96723 10.9318 1.99245 10.9607 2.0228 10.9836L3.10322 11.895C3.23377 11.9943 3.39376 12.047 3.55776 12.0449C3.5901 12.0497 3.62298 12.0497 3.65533 12.0449H3.66961C3.70041 12.0423 3.73077 12.0359 3.76004 12.0259L5.42588 11.4809H5.44492C5.68113 11.418 5.93127 11.4322 6.15885 11.5214C6.44842 11.6452 6.74478 11.7525 7.04651 11.8427C7.13425 11.8706 7.21143 11.9246 7.26783 11.9973L7.25118 13.2087C7.25134 13.3002 7.28553 13.3884 7.3471 13.4561C7.40868 13.5239 7.49324 13.5663 7.58434 13.5751L9.72615 13.775C9.80712 13.7804 9.88829 13.7682 9.96412 13.7393C10.0137 13.7184 10.0608 13.6921 10.1045 13.6608C10.1282 13.6453 10.1505 13.6278 10.1712 13.6085C10.1889 13.5928 10.2049 13.5753 10.2188 13.5561C10.2361 13.5358 10.2521 13.5144 10.2664 13.4918V13.4704L10.7042 12.6256C10.717 12.5991 10.733 12.5744 10.7518 12.5518C10.7624 12.5344 10.7752 12.5184 10.7899 12.5042C10.8188 12.4697 10.8516 12.4386 10.8875 12.4114C10.9954 12.3238 11.1256 12.2677 11.2635 12.2496C11.6363 12.2179 12.0072 12.167 12.3748 12.0973C12.6133 12.0632 12.8563 12.1101 13.065 12.2306L14.2097 12.9921C14.2768 13.0333 14.351 13.0616 14.4286 13.0754L14.4857 13.0873C14.5726 13.0992 14.6606 13.0992 14.7475 13.0873C14.7662 13.0858 14.7846 13.0818 14.8022 13.0754C14.8283 13.0711 14.8539 13.0639 14.8784 13.054L16.6013 12.34C16.6639 12.3171 16.7168 12.2734 16.7513 12.2163C16.7701 12.1838 16.78 12.1468 16.7798 12.1092L16.8155 10.3006ZM1.21367 6.43342C1.14082 6.42287 1.07398 6.38706 1.02483 6.33226C0.975684 6.27746 0.947343 6.20713 0.944757 6.13356L0.92334 7.92792C0.923351 8.004 0.951181 8.07745 1.00159 8.13443C1.052 8.19141 1.1215 8.228 1.19701 8.23729L2.71055 8.47527L3.50064 8.06594C3.58836 8.01795 3.65415 7.93795 3.68431 7.84261C3.71446 7.74728 3.70663 7.64399 3.66247 7.55429C3.60672 7.43357 3.56057 7.30864 3.52444 7.18067C3.49531 7.0746 3.43855 6.97817 3.35994 6.90124C3.28133 6.82431 3.18371 6.76962 3.07704 6.74279L1.21367 6.43342Z" fill="black"/>
<path d="M5.457 9.68909L3.79115 10.2317C3.65527 10.2721 3.51057 10.2721 3.37469 10.2317L3.35327 12.0165C3.42316 12.0357 3.49502 12.0469 3.56745 12.0498C3.5998 12.0546 3.63267 12.0546 3.66502 12.0498H3.6793C3.7101 12.0472 3.74047 12.0408 3.76973 12.0308L5.43558 11.4858L5.457 9.68909Z" fill="#EBEBEB"/>
<path d="M10.9161 10.6077C10.8396 10.6633 10.7769 10.7358 10.7328 10.8195L10.295 11.6667C10.2251 11.7924 10.113 11.8893 9.97845 11.9403L9.95703 13.7276C10.0066 13.7066 10.0537 13.6803 10.0974 13.649C10.1211 13.6335 10.1434 13.616 10.1641 13.5967C10.1818 13.5811 10.1978 13.5635 10.2117 13.5443C10.2291 13.5241 10.245 13.5026 10.2593 13.4801V13.4586L10.6971 12.6138C10.7099 12.5874 10.7259 12.5626 10.7447 12.5401C10.7561 12.5232 10.7688 12.5072 10.7828 12.4925C10.8138 12.4615 10.8471 12.433 10.8804 12.4044L10.9161 10.6077Z" fill="#EBEBEB"/>
<path d="M18.9003 3.80627C18.8982 3.85383 18.8818 3.89965 18.8534 3.93783C18.825 3.97602 18.7858 4.00479 18.7408 4.02045L17.3582 4.73439C17.2698 4.7824 17.2036 4.86283 17.1734 4.95872C17.1432 5.05461 17.1515 5.15847 17.1963 5.24842C17.2503 5.37043 17.2956 5.49607 17.332 5.62442C17.3612 5.73057 17.4184 5.82695 17.4975 5.90354C17.5766 5.98012 17.6747 6.03412 17.7818 6.05993L18.1268 6.11466L18.7194 5.80767C18.7638 5.78934 18.8021 5.75884 18.8299 5.71968C18.8577 5.68052 18.8738 5.6343 18.8765 5.58635L18.9003 3.80627Z" fill="#EBEBEB"/>
<path d="M19.9141 6.69043C19.9132 6.72532 19.9067 6.75985 19.8951 6.79276L19.5881 7.75895C19.5509 7.86186 19.4835 7.95119 19.3948 8.01528C19.3061 8.07937 19.2001 8.11527 19.0907 8.1183L17.1322 8.0588C17.0266 8.05923 16.9221 8.08109 16.8252 8.12305L16.8062 9.91265C16.9023 9.87094 17.0059 9.84908 17.1108 9.8484L19.0693 9.90551C19.1791 9.90296 19.2856 9.86727 19.3748 9.80315C19.464 9.73902 19.5317 9.64945 19.5691 9.54617L19.8737 8.59425C19.886 8.55911 19.8916 8.52199 19.8903 8.48479L19.9141 6.69043Z" fill="#EBEBEB"/>
<path d="M16.8203 10.3007C16.8182 10.3544 16.7995 10.4062 16.7667 10.4489C16.7338 10.4915 16.6885 10.5229 16.6371 10.5386L14.9165 11.2526C14.7723 11.3049 14.6157 11.3132 14.4667 11.2764L14.4453 13.0636L14.5024 13.0755C14.5893 13.0874 14.6773 13.0874 14.7642 13.0755C14.7829 13.074 14.8013 13.07 14.8189 13.0636C14.845 13.0593 14.8706 13.0521 14.8951 13.0422L16.6181 12.3282C16.6807 12.3053 16.7336 12.2616 16.768 12.2045C16.7868 12.172 16.7967 12.135 16.7965 12.0974L16.8203 10.3007Z" fill="#EBEBEB"/>
<path d="M17.0561 2.56392L15.3902 3.11365C15.1543 3.17734 14.9041 3.164 14.6763 3.07557C14.386 2.95095 14.0888 2.8429 13.7863 2.75192C13.6877 2.71996 13.6029 2.65545 13.5458 2.56897C13.4887 2.48248 13.4628 2.37916 13.4721 2.27597L13.5816 1.45018C13.5889 1.40078 13.5861 1.3504 13.5734 1.30211C13.5607 1.25381 13.5383 1.2086 13.5076 1.16922C13.4769 1.12983 13.4385 1.09709 13.3948 1.07298C13.3511 1.04887 13.3029 1.03389 13.2532 1.02896L11.1114 0.829056C10.9991 0.824216 10.8876 0.850557 10.7893 0.90516C10.691 0.959763 10.6097 1.0405 10.5545 1.13843L10.1166 1.98563C10.0579 2.08582 9.97737 2.17146 9.88094 2.23615C9.78452 2.30085 9.67473 2.34293 9.55976 2.35926C9.18614 2.39258 8.81251 2.44255 8.44841 2.51156C8.21018 2.54715 7.96692 2.50101 7.75827 2.38068L6.61359 1.61201C6.51281 1.55392 6.40065 1.51832 6.28482 1.50764C6.16898 1.49696 6.05221 1.51145 5.9425 1.55013L4.22192 2.26406C4.17621 2.27248 4.13397 2.2941 4.10041 2.32625C4.06685 2.3584 4.04344 2.39967 4.03306 2.44497C4.02268 2.49027 4.0258 2.53762 4.04202 2.58117C4.05824 2.62472 4.08686 2.66257 4.12435 2.69005L4.89063 3.52059C4.92359 3.55588 4.9486 3.59783 4.96398 3.6436C4.97936 3.68937 4.98475 3.73792 4.97979 3.78595C4.97483 3.83398 4.95963 3.88039 4.93522 3.92206C4.91081 3.96372 4.87775 3.99967 4.83828 4.02748C4.66987 4.1599 4.51084 4.30383 4.36232 4.45822C4.19104 4.6264 3.96425 4.72626 3.72454 4.73904L1.76598 4.68192C1.65633 4.68396 1.54992 4.71948 1.46102 4.7837C1.37212 4.84793 1.30499 4.93781 1.26861 5.04127L0.961617 5.99318C0.944764 6.03812 0.938196 6.08627 0.942393 6.13408C0.94659 6.18189 0.961447 6.22816 0.985872 6.26948C1.0103 6.31079 1.04367 6.34612 1.08354 6.37284C1.12341 6.39957 1.16875 6.41702 1.21625 6.42392L3.07486 6.72378C3.18197 6.75024 3.28009 6.80475 3.35914 6.88171C3.43819 6.95867 3.49531 7.0553 3.52464 7.16165C3.56116 7.2895 3.6073 7.4144 3.66267 7.53528C3.70737 7.62552 3.71524 7.7296 3.68459 7.82553C3.65395 7.92146 3.5872 8.0017 3.49846 8.04931L2.11581 8.76324C2.07445 8.77814 2.03803 8.80421 2.01058 8.83855C1.98314 8.87289 1.96574 8.91416 1.96031 8.95778C1.95489 9.00141 1.96166 9.04568 1.97986 9.08569C1.99807 9.1257 2.027 9.1599 2.06346 9.18447L3.14626 10.0959C3.23884 10.1648 3.34586 10.2117 3.45923 10.2331C3.5726 10.2546 3.68936 10.25 3.80069 10.2197L5.46654 9.66994C5.7025 9.60625 5.95263 9.61959 6.18048 9.70801C6.4708 9.83263 6.76796 9.94069 7.07051 10.0317C7.16908 10.0636 7.25387 10.1281 7.31095 10.2146C7.36802 10.3011 7.39401 10.4044 7.38464 10.5076L7.27756 11.3334C7.27022 11.3828 7.273 11.4332 7.28571 11.4815C7.29843 11.5298 7.32082 11.575 7.35152 11.6144C7.38223 11.6538 7.42061 11.6865 7.46435 11.7106C7.50809 11.7347 7.55627 11.7497 7.60596 11.7546L9.74776 11.9545C9.8597 11.9589 9.97068 11.9324 10.0685 11.8778C10.1663 11.8232 10.2472 11.7427 10.3023 11.6452L10.7401 10.798C10.7991 10.6975 10.88 10.6117 10.9769 10.547C11.0737 10.4822 11.184 10.4403 11.2994 10.4243C11.673 10.391 12.0443 10.341 12.4107 10.272C12.649 10.237 12.892 10.2831 13.1009 10.4029L14.2432 11.1668C14.344 11.2249 14.4561 11.2605 14.5719 11.2712C14.6878 11.2819 14.8046 11.2674 14.9143 11.2287L16.6348 10.5148C16.6807 10.5067 16.7232 10.4853 16.7571 10.4533C16.791 10.4213 16.8147 10.3801 16.8253 10.3347C16.836 10.2894 16.8331 10.2419 16.817 10.1982C16.8009 10.1545 16.7723 10.1164 16.7348 10.0888L15.9661 9.25824C15.9332 9.22295 15.9082 9.181 15.8928 9.13523C15.8774 9.08945 15.872 9.04092 15.877 8.99288C15.8819 8.94485 15.8971 8.89843 15.9215 8.85677C15.946 8.8151 15.979 8.77916 16.0185 8.75135C16.1863 8.61824 16.3453 8.47435 16.4944 8.32061C16.6645 8.15203 16.8907 8.05206 17.1298 8.03979L19.0884 8.09691C19.1981 8.09487 19.3045 8.05935 19.3934 7.99512C19.4823 7.93089 19.5494 7.84102 19.5858 7.73756L19.8951 6.77375C19.912 6.72864 19.9185 6.68031 19.9142 6.63234C19.9098 6.58438 19.8948 6.538 19.8701 6.49664C19.8454 6.45528 19.8118 6.42 19.7716 6.39341C19.7315 6.36682 19.6858 6.34959 19.6381 6.34301L17.7795 6.04316C17.6724 6.01669 17.5743 5.96218 17.4952 5.88522C17.4162 5.80826 17.3591 5.71163 17.3297 5.60528C17.293 5.47782 17.2477 5.353 17.1941 5.23165C17.1486 5.14181 17.14 5.03773 17.1703 4.94166C17.2005 4.8456 17.2672 4.76518 17.3559 4.71762L18.7386 4.00368C18.7799 3.98878 18.8164 3.96272 18.8438 3.92838C18.8713 3.89405 18.8886 3.85277 18.8941 3.80915C18.8995 3.76552 18.8927 3.72125 18.8745 3.68123C18.8563 3.64122 18.8274 3.60704 18.7909 3.58246L17.7081 2.67101C17.6145 2.60533 17.5072 2.56159 17.3943 2.54305C17.2814 2.52451 17.1658 2.53164 17.0561 2.56392ZM13.8101 4.9913C15.0856 6.0622 14.6073 7.56146 12.7392 8.33727C10.871 9.11308 8.32704 8.8751 7.0491 7.80182C5.77115 6.72854 6.25187 5.23165 8.12 4.45585C9.98812 3.68004 12.5345 3.92039 13.8101 4.99367V4.9913Z" fill="#FAFAFA"/>
<path d="M11.0707 1.02899H11.0897L13.2315 1.23128C13.2531 1.23326 13.2741 1.23969 13.293 1.25017C13.312 1.26064 13.3286 1.27494 13.3418 1.29216C13.355 1.30937 13.3645 1.32913 13.3697 1.35019C13.3749 1.37125 13.3756 1.39316 13.3719 1.41452L13.2648 2.24031C13.2475 2.39432 13.284 2.54957 13.3682 2.67971C13.4523 2.80984 13.5789 2.90685 13.7265 2.95424C14.0207 3.04418 14.3099 3.14983 14.5927 3.27075C14.7558 3.33422 14.9295 3.36573 15.1044 3.36356C15.2212 3.36509 15.3375 3.34905 15.4495 3.31597L17.1153 2.76624C17.1562 2.75407 17.1988 2.74844 17.2414 2.74958C17.3598 2.74734 17.4758 2.78321 17.5722 2.85191L18.655 3.76098C18.6683 3.77091 18.679 3.784 18.686 3.79906C18.686 3.79906 18.686 3.8181 18.6408 3.83476L17.2581 4.54869C17.1215 4.62039 17.018 4.74238 16.9696 4.88891C16.9212 5.03544 16.9317 5.19504 16.9987 5.33402C17.0495 5.44567 17.0916 5.56102 17.1248 5.67909C17.1651 5.82388 17.244 5.95503 17.3529 6.05855C17.4619 6.16206 17.5969 6.23407 17.7436 6.26689L19.6022 6.56675C19.6191 6.56872 19.6353 6.57444 19.6498 6.58349C19.6642 6.59255 19.6764 6.60472 19.6855 6.6191C19.6928 6.63642 19.6966 6.65503 19.6966 6.67383C19.6966 6.69264 19.6928 6.71125 19.6855 6.72857L19.3761 7.68048C19.3535 7.74081 19.3137 7.79322 19.2617 7.83127C19.2097 7.86932 19.1477 7.89135 19.0834 7.89466L17.1272 7.83755H17.1058C16.8144 7.85382 16.5391 7.97663 16.3324 8.18261C16.1913 8.33005 16.0402 8.46761 15.8802 8.59432C15.8163 8.64249 15.7633 8.70367 15.7247 8.77381C15.6862 8.84395 15.6629 8.92147 15.6565 9.00126C15.6513 9.07544 15.6614 9.1499 15.6864 9.21995C15.7114 9.28999 15.7507 9.3541 15.8017 9.40821L16.5703 10.2387C16.5847 10.2522 16.5946 10.2696 16.5989 10.2887C16.5857 10.307 16.5675 10.321 16.5465 10.3292L14.8236 11.0431C14.7655 11.0635 14.7042 11.0732 14.6427 11.0717C14.5401 11.0751 14.4387 11.0496 14.35 10.9979L13.2053 10.2364C13.0066 10.1165 12.7782 10.0546 12.5461 10.0579C12.484 10.0575 12.4219 10.0623 12.3605 10.0722C12.0083 10.1388 11.6466 10.1888 11.2706 10.2221C11.1221 10.2432 10.9806 10.2982 10.8568 10.3828C10.733 10.4674 10.6303 10.5793 10.5566 10.7099L10.1188 11.5571C10.0839 11.6146 10.0355 11.6626 9.97789 11.697C9.92023 11.7314 9.85503 11.7512 9.78797 11.7547H9.76893L7.62713 11.5524C7.60635 11.5506 7.58615 11.5446 7.56775 11.5348C7.54934 11.525 7.53311 11.5115 7.52004 11.4953C7.50577 11.4779 7.49541 11.4576 7.48967 11.4358C7.48392 11.4141 7.48291 11.3913 7.48672 11.3691L7.59381 10.5434C7.61113 10.3893 7.57461 10.2341 7.49045 10.104C7.40629 9.97381 7.27969 9.87681 7.13213 9.82942C6.83794 9.73948 6.54878 9.63383 6.2659 9.51292C6.10305 9.44857 5.92933 9.41625 5.75424 9.41772C5.63736 9.41688 5.52102 9.43373 5.40917 9.4677L3.74333 10.0174C3.70243 10.0296 3.65986 10.0352 3.6172 10.0341C3.4995 10.0367 3.38418 10.0007 3.28879 9.93175L2.20361 9.02268C2.19029 9.01276 2.17966 8.99967 2.17267 8.9846C2.18445 8.96904 2.20001 8.95674 2.21789 8.9489L3.60054 8.23497C3.73718 8.16326 3.84062 8.04128 3.88901 7.89476C3.93741 7.74823 3.92699 7.58863 3.85994 7.44964C3.80955 7.33784 3.7674 7.22251 3.73381 7.10457C3.69347 6.9602 3.61492 6.82939 3.50644 6.72593C3.39796 6.62248 3.26357 6.55021 3.11745 6.51677L1.25646 6.21692C1.23955 6.21495 1.2233 6.20922 1.20889 6.20016C1.19448 6.19111 1.18227 6.17894 1.17316 6.16456C1.16583 6.14725 1.16206 6.12863 1.16206 6.10983C1.16206 6.09102 1.16583 6.07241 1.17316 6.0551L1.48254 5.10318C1.50516 5.04285 1.54492 4.99044 1.59692 4.95239C1.64892 4.91434 1.7109 4.89231 1.77525 4.889L3.73143 4.94612H3.75285C4.04425 4.92984 4.31951 4.80703 4.52627 4.60105C4.66738 4.45361 4.81846 4.31605 4.97843 4.18934C5.04207 4.14143 5.09489 4.08064 5.13344 4.01092C5.17198 3.94121 5.19539 3.86416 5.20213 3.78478C5.20772 3.71021 5.1977 3.6353 5.1727 3.56482C5.14771 3.49434 5.10829 3.42985 5.05697 3.37546L4.2883 2.54492C4.26688 2.52112 4.25974 2.50208 4.26212 2.49494C4.2645 2.4878 4.27878 2.46877 4.31447 2.45449L6.03506 1.74055C6.09311 1.72013 6.1544 1.71046 6.21592 1.712C6.31853 1.70814 6.4201 1.73374 6.50863 1.78577L7.6533 2.5473C7.85254 2.66605 8.08057 2.72779 8.3125 2.72578C8.37467 2.72613 8.43675 2.72136 8.49813 2.7115C8.85866 2.64308 9.22245 2.59303 9.58807 2.56157C9.73886 2.54197 9.88308 2.48773 10.0094 2.40309C10.1358 2.31845 10.2408 2.20572 10.3163 2.07372L10.7518 1.22652C10.7866 1.16912 10.835 1.1211 10.8926 1.08667C10.9503 1.05224 11.0155 1.03244 11.0826 1.02899M10.3329 9.00602C11.189 9.01208 12.0379 8.85038 12.8317 8.53007C13.9145 8.08029 14.6046 7.36873 14.7355 6.57626C14.8331 5.95038 14.5594 5.32926 13.9645 4.8295C13.1792 4.1703 11.9369 3.78954 10.559 3.78954C9.703 3.78348 8.85409 3.94518 8.06025 4.2655C6.97745 4.71527 6.28731 5.42683 6.15642 6.21929C6.06123 6.84518 6.33253 7.4663 6.92747 7.96368C7.7128 8.62526 8.95505 9.00602 10.3329 9.00602ZM11.0826 0.81958C10.977 0.823164 10.8742 0.853687 10.7838 0.908255C10.6934 0.962823 10.6185 1.03962 10.5662 1.13133L10.1283 1.97853C10.0696 2.07872 9.98901 2.16436 9.89259 2.22905C9.79616 2.29375 9.68637 2.33582 9.57141 2.35215C9.19778 2.38547 8.82416 2.43545 8.46005 2.50446C8.4114 2.51344 8.36196 2.51743 8.3125 2.51636C8.12209 2.51841 7.93465 2.46909 7.76991 2.37358L6.61334 1.61204C6.49 1.53757 6.34807 1.49961 6.20402 1.50258C6.11455 1.5019 6.02575 1.51804 5.94225 1.55017L4.22166 2.2641C4.17596 2.27252 4.13372 2.29414 4.10016 2.32629C4.0666 2.35844 4.04318 2.39971 4.03281 2.44501C4.02243 2.49031 4.02555 2.53766 4.04177 2.58121C4.05799 2.62476 4.08661 2.66261 4.12409 2.69008L4.89038 3.52062C4.92334 3.55592 4.94835 3.59786 4.96373 3.64364C4.97911 3.68941 4.9845 3.73796 4.97954 3.78599C4.97458 3.83402 4.95938 3.88043 4.93497 3.9221C4.91056 3.96376 4.8775 3.99971 4.83803 4.02752C4.66962 4.15994 4.51059 4.30386 4.36207 4.45826C4.19407 4.62278 3.97311 4.7223 3.73857 4.73908H3.72429L1.76573 4.68196C1.65988 4.68852 1.55831 4.7261 1.47367 4.79C1.38903 4.8539 1.32508 4.9413 1.28977 5.04131L0.980402 5.99322C0.964001 6.03835 0.957847 6.08656 0.962388 6.13437C0.966928 6.18217 0.98205 6.22836 1.00665 6.2696C1.03126 6.31084 1.06473 6.34608 1.10465 6.37278C1.14456 6.39948 1.18991 6.41696 1.23742 6.42396L3.09603 6.72381C3.20313 6.75028 3.30125 6.80479 3.3803 6.88175C3.45935 6.95871 3.51648 7.05534 3.5458 7.16169C3.58232 7.28954 3.62846 7.41444 3.68383 7.53532C3.72854 7.62555 3.7364 7.72964 3.70576 7.82557C3.67512 7.92149 3.60837 8.00174 3.51963 8.04935L2.13698 8.76328C2.09562 8.77818 2.05919 8.80425 2.03175 8.83858C2.0043 8.87292 1.9869 8.9142 1.98148 8.95782C1.97606 9.00144 1.98282 9.04571 2.00103 9.08573C2.01923 9.12574 2.04817 9.15993 2.08462 9.1845L3.16742 10.096C3.30456 10.1983 3.47234 10.2512 3.64338 10.2459C3.70782 10.2472 3.77206 10.2384 3.83376 10.2197L5.49961 9.66997C5.59079 9.64334 5.68544 9.63052 5.78042 9.6319C5.92679 9.62925 6.07229 9.65511 6.20878 9.70805C6.4991 9.83267 6.79626 9.94073 7.09882 10.0317C7.19739 10.0637 7.28217 10.1282 7.33925 10.2147C7.39633 10.3011 7.42232 10.4045 7.41295 10.5077L7.30586 11.3334C7.29852 11.3828 7.3013 11.4332 7.31401 11.4815C7.32673 11.5298 7.34912 11.575 7.37983 11.6144C7.41053 11.6538 7.44892 11.6865 7.49266 11.7106C7.53639 11.7348 7.58457 11.7497 7.63427 11.7547L9.77607 11.9546H9.81414C9.91967 11.951 10.0225 11.9205 10.1129 11.8659C10.2033 11.8113 10.2782 11.7345 10.3306 11.6428L10.7684 10.7956C10.8274 10.6951 10.9083 10.6093 11.0052 10.5446C11.102 10.4799 11.2123 10.438 11.3277 10.422C11.7013 10.3887 12.0726 10.3387 12.439 10.2697C12.4869 10.2606 12.5355 10.2566 12.5842 10.2578C12.7753 10.256 12.9635 10.3053 13.1292 10.4006L14.2715 11.1645C14.3949 11.2387 14.5368 11.2767 14.6808 11.274C14.7703 11.2746 14.8591 11.2585 14.9426 11.2264L16.6632 10.5124C16.709 10.5044 16.7515 10.483 16.7854 10.451C16.8193 10.419 16.843 10.3778 16.8536 10.3324C16.8643 10.287 16.8614 10.2396 16.8453 10.1958C16.8292 10.1521 16.8006 10.1141 16.7631 10.0864L15.9944 9.2559C15.9615 9.2206 15.9365 9.17866 15.9211 9.13288C15.9057 9.08711 15.9003 9.03857 15.9053 8.99054C15.9102 8.9425 15.9254 8.8961 15.9498 8.85443C15.9743 8.81277 16.0073 8.77681 16.0468 8.749C16.2146 8.61589 16.3736 8.47201 16.5227 8.31826C16.6898 8.15373 16.91 8.05417 17.1439 8.03745H17.1581L19.1167 8.09456H19.1286C19.2345 8.088 19.336 8.05043 19.4207 7.98652C19.5053 7.92262 19.5693 7.83522 19.6046 7.73522L19.9139 6.7714C19.9308 6.72629 19.9373 6.67797 19.933 6.63C19.9286 6.58204 19.9136 6.53566 19.8889 6.4943C19.8642 6.45295 19.8305 6.41766 19.7904 6.39107C19.7502 6.36447 19.7046 6.34725 19.6569 6.34066L17.7983 6.04081C17.6912 6.01435 17.5931 5.95983 17.514 5.88287C17.435 5.80591 17.3779 5.70929 17.3485 5.60293C17.3118 5.47548 17.2665 5.35066 17.2129 5.22931C17.1674 5.13947 17.1588 5.03538 17.1891 4.93932C17.2193 4.84326 17.2859 4.76285 17.3747 4.71528L18.7574 4.00134C18.7987 3.98644 18.8351 3.96038 18.8626 3.92604C18.89 3.8917 18.9074 3.85043 18.9129 3.8068C18.9183 3.76318 18.9115 3.71891 18.8933 3.6789C18.8751 3.63888 18.8462 3.60469 18.8097 3.58012L17.7269 2.66867C17.5898 2.56632 17.422 2.51347 17.251 2.51874C17.1865 2.51742 17.1223 2.52626 17.0606 2.54492L15.3947 3.09465C15.3036 3.12128 15.2089 3.13412 15.1139 3.13273C14.9675 3.13538 14.822 3.10951 14.6856 3.05657C14.3952 2.93196 14.0981 2.8239 13.7955 2.73292C13.6969 2.70096 13.6122 2.63644 13.5551 2.54996C13.498 2.46348 13.472 2.36016 13.4814 2.25696L13.5909 1.43118C13.5982 1.38178 13.5954 1.33141 13.5827 1.28311C13.57 1.23481 13.5476 1.1896 13.5169 1.15021C13.4862 1.11083 13.4478 1.07809 13.4041 1.05398C13.3603 1.02988 13.3121 1.0149 13.2624 1.00996L11.1206 0.810059L11.0826 0.81958ZM10.3329 8.7966C9.06689 8.7966 7.83179 8.45153 7.06074 7.80423C5.78518 6.73333 6.26351 5.23407 8.13164 4.45826C8.89595 4.14876 9.71301 3.99037 10.5376 3.99182C11.8036 3.99182 13.0387 4.33689 13.8098 4.98419C15.0854 6.0551 14.607 7.55436 12.7389 8.33016C11.9702 8.63792 11.149 8.7931 10.321 8.78708L10.3329 8.7966Z" fill="#EBEBEB"/>
<path d="M36.0467 9.92237C36.0441 9.95809 36.0316 9.99238 36.0106 10.0214C35.9896 10.0504 35.9609 10.073 35.9277 10.0866L34.8783 10.6315C34.8109 10.6671 34.7601 10.7275 34.7365 10.7999C34.713 10.8723 34.7186 10.9511 34.7521 11.0194C34.7933 11.1122 34.8283 11.2076 34.8568 11.305C34.8797 11.3851 34.9231 11.4578 34.9828 11.5159C35.0425 11.5739 35.1164 11.6153 35.1972 11.6358L35.4613 11.6786L35.9111 11.4407C35.9446 11.4262 35.9734 11.4028 35.9944 11.373C36.0154 11.3432 36.0278 11.3081 36.0301 11.2717L36.0467 9.92237ZM27.8627 10.4174C26.6418 10.9266 26.1968 11.8452 26.7275 12.6044C27.0134 12.2269 27.4016 11.9395 27.846 11.7762C29.2739 11.1884 31.1991 11.3669 32.1677 12.1808C32.2907 12.2839 32.401 12.4013 32.4961 12.5306C32.8769 11.9785 32.7936 11.3407 32.182 10.8243C31.2134 10.0104 29.281 9.82956 27.8627 10.4174ZM36.8178 12.1118C36.8175 12.1386 36.8126 12.1651 36.8035 12.1903L36.5655 12.9233C36.5373 13.0017 36.4861 13.0697 36.4186 13.1185C36.3511 13.1674 36.2704 13.1947 36.1871 13.1969L34.6998 13.1517C34.6177 13.1506 34.5365 13.1676 34.4618 13.2017C34.3676 13.2391 34.2818 13.2949 34.2095 13.3659C34.097 13.4824 33.977 13.5913 33.8502 13.6919C33.8201 13.713 33.7949 13.7403 33.7763 13.772C33.7577 13.8037 33.7461 13.839 33.7422 13.8755C33.7384 13.912 33.7424 13.949 33.7541 13.9838C33.7657 14.0186 33.7847 14.0506 33.8097 14.0775L34.3166 14.6248C34.357 14.5987 34.4001 14.5772 34.4451 14.5606C34.5203 14.5283 34.6013 14.5121 34.6831 14.513L36.1705 14.5558C36.2539 14.5542 36.3349 14.5271 36.4025 14.4782C36.4702 14.4293 36.5212 14.3609 36.5489 14.2821L36.7868 13.5515C36.7953 13.5246 36.7993 13.4965 36.7987 13.4682L36.8178 12.1118ZM24.7499 10.2865C24.7495 10.3138 24.7545 10.3409 24.7647 10.3663C24.775 10.3916 24.7901 10.4146 24.8094 10.434L24.8856 10.5149C24.9305 10.4883 24.972 10.4563 25.0093 10.4197C25.1212 10.3019 25.2412 10.1921 25.3687 10.0913C25.3991 10.0705 25.4246 10.0433 25.4434 10.0116C25.4623 9.97995 25.474 9.94457 25.4779 9.90791C25.4817 9.87125 25.4776 9.83419 25.4657 9.7993C25.4538 9.76441 25.4345 9.73251 25.4091 9.70581L24.8261 9.07754C24.7944 9.04593 24.7736 9.00511 24.7666 8.96094L24.7499 10.2865ZM34.4761 14.8533C34.4734 14.8934 34.4588 14.9318 34.4343 14.9635C34.4097 14.9953 34.3762 15.0191 34.338 15.0318L33.0315 15.5743C32.9217 15.6144 32.8025 15.621 32.6889 15.5934C32.6288 15.5822 32.5714 15.5596 32.5199 15.5268L31.6465 14.9389C31.4884 14.8471 31.3038 14.8118 31.123 14.839C30.8445 14.8913 30.5613 14.9294 30.2781 14.9556C30.174 14.9678 30.0756 15.01 29.995 15.077C29.9371 15.1193 29.8892 15.1737 29.8545 15.2364L29.5214 15.8813C29.469 15.9763 29.3847 16.0496 29.2834 16.0884C29.2261 16.1115 29.1642 16.1213 29.1025 16.1169L27.4771 15.9646C27.4404 15.9597 27.405 15.9475 27.3731 15.9287C27.3412 15.9099 27.3133 15.8849 27.2911 15.8552C27.269 15.8255 27.2529 15.7917 27.244 15.7557C27.2351 15.7197 27.2334 15.6824 27.2392 15.6457L27.3225 15.0175C27.3308 14.9381 27.3118 14.8582 27.2685 14.7911C27.2252 14.724 27.1603 14.6737 27.0845 14.6486C26.8545 14.5833 26.6288 14.5038 26.4086 14.4106C26.2367 14.3453 26.0487 14.3353 25.8708 14.3821H25.8565L24.6024 14.7938C24.499 14.8235 24.3893 14.8235 24.2859 14.7938C24.2186 14.7771 24.1559 14.7453 24.1026 14.701L23.2816 14.0108C23.2589 13.9945 23.24 13.9735 23.2261 13.9493C23.2121 13.9251 23.2035 13.8982 23.2007 13.8704L23.184 15.2221C23.1865 15.2507 23.1949 15.2784 23.2089 15.3034C23.2228 15.3284 23.2419 15.3502 23.2649 15.3673L24.086 16.0598C24.1848 16.1354 24.3066 16.1749 24.431 16.1717C24.4554 16.1764 24.4804 16.1764 24.5048 16.1717H24.5167C24.5401 16.1692 24.5632 16.1644 24.5857 16.1574L25.8399 15.7433H25.8541C26.0321 15.6962 26.2205 15.707 26.392 15.7742C26.6123 15.867 26.838 15.9465 27.0678 16.0122C27.134 16.0344 27.192 16.0758 27.2344 16.1312V17.0498C27.2341 17.1193 27.2598 17.1865 27.3065 17.238C27.3532 17.2895 27.4174 17.3217 27.4867 17.3282L29.1097 17.4805C29.1721 17.4851 29.2348 17.4753 29.2929 17.452C29.3305 17.4359 29.3664 17.4159 29.4 17.3925C29.4169 17.3811 29.4328 17.3684 29.4476 17.3544C29.4615 17.3421 29.4742 17.3286 29.4857 17.314C29.4981 17.2991 29.5093 17.2832 29.519 17.2664V17.2497L29.8498 16.6072C29.8594 16.5876 29.8714 16.5692 29.8855 16.5524C29.8944 16.5394 29.9048 16.5274 29.9164 16.5167C29.938 16.49 29.9628 16.466 29.9902 16.4453C30.0718 16.3783 30.1709 16.3362 30.2758 16.324C30.5584 16.2993 30.8395 16.2604 31.1182 16.2074C31.299 16.1813 31.4833 16.2165 31.6418 16.3073L32.5104 16.888C32.5622 16.9175 32.6185 16.9384 32.677 16.9499H32.7198C32.7862 16.9582 32.8533 16.9582 32.9197 16.9499H32.9625L33.0173 16.9332L34.3261 16.3882C34.3742 16.3708 34.4146 16.3371 34.4404 16.293C34.4543 16.2682 34.4625 16.2406 34.4642 16.2121L34.4761 14.8533ZM22.6248 11.919C22.5667 11.912 22.5133 11.8838 22.4747 11.84C22.436 11.7961 22.4149 11.7395 22.4154 11.681L22.3987 13.0423C22.3981 13.1 22.4186 13.156 22.4562 13.1998C22.4939 13.2436 22.5462 13.2722 22.6034 13.2802L23.7528 13.4659L24.3525 13.1541C24.4199 13.1186 24.4706 13.058 24.4938 12.9855C24.5169 12.9129 24.5106 12.8342 24.4762 12.7662C24.4351 12.6742 24.4001 12.5796 24.3715 12.483C24.3491 12.4025 24.3058 12.3293 24.246 12.2708C24.1863 12.2123 24.1122 12.1706 24.0312 12.1498L22.6248 11.919Z" fill="#E6E6E6"/>
<path opacity="0.1" d="M36.0467 9.92237C36.0441 9.95809 36.0316 9.99238 36.0106 10.0214C35.9896 10.0504 35.9609 10.073 35.9277 10.0866L34.8783 10.6315C34.8109 10.6671 34.7601 10.7275 34.7365 10.7999C34.713 10.8723 34.7186 10.9511 34.7521 11.0194C34.7933 11.1122 34.8283 11.2076 34.8568 11.305C34.8797 11.3851 34.9231 11.4578 34.9828 11.5159C35.0425 11.5739 35.1164 11.6153 35.1972 11.6358L35.4613 11.6786L35.9111 11.4407C35.9446 11.4262 35.9734 11.4028 35.9944 11.373C36.0154 11.3432 36.0278 11.3081 36.0301 11.2717L36.0467 9.92237ZM27.8627 10.4174C26.6418 10.9266 26.1968 11.8452 26.7275 12.6044C27.0134 12.2269 27.4016 11.9395 27.846 11.7762C29.2739 11.1884 31.1991 11.3669 32.1677 12.1808C32.2907 12.2839 32.401 12.4013 32.4961 12.5306C32.8769 11.9785 32.7936 11.3407 32.182 10.8243C31.2134 10.0104 29.281 9.82956 27.8627 10.4174ZM36.8178 12.1118C36.8175 12.1386 36.8126 12.1651 36.8035 12.1903L36.5655 12.9233C36.5373 13.0017 36.4861 13.0697 36.4186 13.1185C36.3511 13.1674 36.2704 13.1947 36.1871 13.1969L34.6998 13.1517C34.6177 13.1506 34.5365 13.1676 34.4618 13.2017C34.3676 13.2391 34.2818 13.2949 34.2095 13.3659C34.097 13.4824 33.977 13.5913 33.8502 13.6919C33.8201 13.713 33.7949 13.7403 33.7763 13.772C33.7577 13.8037 33.7461 13.839 33.7422 13.8755C33.7384 13.912 33.7424 13.949 33.7541 13.9838C33.7657 14.0186 33.7847 14.0506 33.8097 14.0775L34.3166 14.6248C34.357 14.5987 34.4001 14.5772 34.4451 14.5606C34.5203 14.5283 34.6013 14.5121 34.6831 14.513L36.1705 14.5558C36.2539 14.5542 36.3349 14.5271 36.4025 14.4782C36.4702 14.4293 36.5212 14.3609 36.5489 14.2821L36.7868 13.5515C36.7953 13.5246 36.7993 13.4965 36.7987 13.4682L36.8178 12.1118ZM24.7499 10.2865C24.7495 10.3138 24.7545 10.3409 24.7647 10.3663C24.775 10.3916 24.7901 10.4146 24.8094 10.434L24.8856 10.5149C24.9305 10.4883 24.972 10.4563 25.0093 10.4197C25.1212 10.3019 25.2412 10.1921 25.3687 10.0913C25.3991 10.0705 25.4246 10.0433 25.4434 10.0116C25.4623 9.97995 25.474 9.94457 25.4779 9.90791C25.4817 9.87125 25.4776 9.83419 25.4657 9.7993C25.4538 9.76441 25.4345 9.73251 25.4091 9.70581L24.8261 9.07754C24.7944 9.04593 24.7736 9.00511 24.7666 8.96094L24.7499 10.2865ZM34.4761 14.8533C34.4734 14.8934 34.4588 14.9318 34.4343 14.9635C34.4097 14.9953 34.3762 15.0191 34.338 15.0318L33.0315 15.5743C32.9217 15.6144 32.8025 15.621 32.6889 15.5934C32.6288 15.5822 32.5714 15.5596 32.5199 15.5268L31.6465 14.9389C31.4884 14.8471 31.3038 14.8118 31.123 14.839C30.8445 14.8913 30.5613 14.9294 30.2781 14.9556C30.174 14.9678 30.0756 15.01 29.995 15.077C29.9371 15.1193 29.8892 15.1737 29.8545 15.2364L29.5214 15.8813C29.469 15.9763 29.3847 16.0496 29.2834 16.0884C29.2261 16.1115 29.1642 16.1213 29.1025 16.1169L27.4771 15.9646C27.4404 15.9597 27.405 15.9475 27.3731 15.9287C27.3412 15.9099 27.3133 15.8849 27.2911 15.8552C27.269 15.8255 27.2529 15.7917 27.244 15.7557C27.2351 15.7197 27.2334 15.6824 27.2392 15.6457L27.3225 15.0175C27.3308 14.9381 27.3118 14.8582 27.2685 14.7911C27.2252 14.724 27.1603 14.6737 27.0845 14.6486C26.8545 14.5833 26.6288 14.5038 26.4086 14.4106C26.2367 14.3453 26.0487 14.3353 25.8708 14.3821H25.8565L24.6024 14.7938C24.499 14.8235 24.3893 14.8235 24.2859 14.7938C24.2186 14.7771 24.1559 14.7453 24.1026 14.701L23.2816 14.0108C23.2589 13.9945 23.24 13.9735 23.2261 13.9493C23.2121 13.9251 23.2035 13.8982 23.2007 13.8704L23.184 15.2221C23.1865 15.2507 23.1949 15.2784 23.2089 15.3034C23.2228 15.3284 23.2419 15.3502 23.2649 15.3673L24.086 16.0598C24.1848 16.1354 24.3066 16.1749 24.431 16.1717C24.4554 16.1764 24.4804 16.1764 24.5048 16.1717H24.5167C24.5401 16.1692 24.5632 16.1644 24.5857 16.1574L25.8399 15.7433H25.8541C26.0321 15.6962 26.2205 15.707 26.392 15.7742C26.6123 15.867 26.838 15.9465 27.0678 16.0122C27.134 16.0344 27.192 16.0758 27.2344 16.1312V17.0498C27.2341 17.1193 27.2598 17.1865 27.3065 17.238C27.3532 17.2895 27.4174 17.3217 27.4867 17.3282L29.1097 17.4805C29.1721 17.4851 29.2348 17.4753 29.2929 17.452C29.3305 17.4359 29.3664 17.4159 29.4 17.3925C29.4169 17.3811 29.4328 17.3684 29.4476 17.3544C29.4615 17.3421 29.4742 17.3286 29.4857 17.314C29.4981 17.2991 29.5093 17.2832 29.519 17.2664V17.2497L29.8498 16.6072C29.8594 16.5876 29.8714 16.5692 29.8855 16.5524C29.8944 16.5394 29.9048 16.5274 29.9164 16.5167C29.938 16.49 29.9628 16.466 29.9902 16.4453C30.0718 16.3783 30.1709 16.3362 30.2758 16.324C30.5584 16.2993 30.8395 16.2604 31.1182 16.2074C31.299 16.1813 31.4833 16.2165 31.6418 16.3073L32.5104 16.888C32.5622 16.9175 32.6185 16.9384 32.677 16.9499H32.7198C32.7862 16.9582 32.8533 16.9582 32.9197 16.9499H32.9625L33.0173 16.9332L34.3261 16.3882C34.3742 16.3708 34.4146 16.3371 34.4404 16.293C34.4543 16.2682 34.4625 16.2406 34.4642 16.2121L34.4761 14.8533ZM22.6248 11.919C22.5667 11.912 22.5133 11.8838 22.4747 11.84C22.436 11.7961 22.4149 11.7395 22.4154 11.681L22.3987 13.0423C22.3981 13.1 22.4186 13.156 22.4562 13.1998C22.4939 13.2436 22.5462 13.2722 22.6034 13.2802L23.7528 13.4659L24.3525 13.1541C24.4199 13.1186 24.4706 13.058 24.4938 12.9855C24.5169 12.9129 24.5106 12.8342 24.4762 12.7662C24.4351 12.6742 24.4001 12.5796 24.3715 12.483C24.3491 12.4025 24.3058 12.3293 24.246 12.2708C24.1863 12.2123 24.1122 12.1706 24.0312 12.1498L22.6248 11.919Z" fill="black"/>
<path d="M25.8422 14.3893L24.5881 14.801C24.4846 14.8307 24.375 14.8307 24.2715 14.801L24.2549 16.1551C24.3075 16.1701 24.3619 16.1781 24.4167 16.1789C24.4411 16.1836 24.4661 16.1836 24.4905 16.1789H24.5024C24.5258 16.1764 24.5489 16.1716 24.5714 16.1646L25.8255 15.7505L25.8422 14.3893Z" fill="#EBEBEB"/>
<path d="M29.9949 15.0865C29.937 15.1289 29.8891 15.1833 29.8545 15.246L29.5213 15.8909C29.4689 15.9859 29.3846 16.0592 29.2833 16.098L29.269 17.4544C29.3067 17.4383 29.3426 17.4184 29.3761 17.3949C29.393 17.3836 29.4089 17.3708 29.4237 17.3569C29.4376 17.3446 29.4504 17.331 29.4618 17.3164C29.4742 17.3015 29.4854 17.2856 29.4951 17.2688V17.2521L29.8259 16.6096C29.8356 16.59 29.8475 16.5716 29.8616 16.5549L29.8925 16.5192C29.9154 16.4952 29.9401 16.4729 29.9663 16.4525L29.9949 15.0865Z" fill="#EBEBEB"/>
<path d="M36.0492 9.92236C36.0459 9.95819 36.0328 9.99242 36.0114 10.0214C35.99 10.0503 35.9611 10.0728 35.9278 10.0866L34.876 10.6315C34.8094 10.6679 34.7596 10.7286 34.737 10.801C34.7144 10.8733 34.7207 10.9517 34.7546 11.0194C34.7954 11.1121 34.8296 11.2075 34.8569 11.305C34.88 11.3854 34.9238 11.4583 34.9839 11.5164C35.0441 11.5744 35.1185 11.6156 35.1996 11.6358L35.459 11.6786L35.9112 11.4407C35.9445 11.426 35.9732 11.4025 35.9942 11.3727C36.0152 11.343 36.0276 11.308 36.0302 11.2717L36.0492 9.92236Z" fill="#EBEBEB"/>
<path d="M36.8178 12.1118C36.8175 12.1386 36.8126 12.1652 36.8035 12.1904L36.5655 12.9233C36.5373 13.0017 36.4861 13.0698 36.4186 13.1186C36.3511 13.1674 36.2704 13.1947 36.1871 13.197L34.6998 13.1518C34.6177 13.1506 34.5364 13.1677 34.4618 13.2018L34.4475 14.5582C34.5227 14.526 34.6037 14.5098 34.6855 14.5106L36.1729 14.5535C36.2563 14.5519 36.3373 14.5248 36.4049 14.4759C36.4725 14.427 36.5236 14.3586 36.5512 14.2798L36.7892 13.5492C36.7976 13.5223 36.8017 13.4941 36.8011 13.4659L36.8178 12.1118Z" fill="#EBEBEB"/>
<path d="M34.476 14.8533C34.4733 14.8934 34.4588 14.9317 34.4342 14.9635C34.4096 14.9953 34.3761 15.0191 34.338 15.0318L33.0315 15.5743C32.9216 15.6144 32.8024 15.621 32.6888 15.5934L32.6721 16.9499H32.715C32.7813 16.9582 32.8485 16.9582 32.9149 16.9499H32.9577L33.0124 16.9332L34.3213 16.3882C34.3693 16.3708 34.4097 16.3371 34.4355 16.293C34.4495 16.2682 34.4576 16.2405 34.4593 16.2121L34.476 14.8533Z" fill="#EBEBEB"/>
<path d="M34.6474 8.98951L33.3766 9.40597C33.1987 9.4527 33.0107 9.44271 32.8388 9.37741C32.6182 9.28529 32.3925 9.20584 32.1629 9.13943C32.0871 9.11434 32.0222 9.06407 31.9789 8.99697C31.9356 8.92987 31.9165 8.84997 31.9249 8.77056L32.0082 8.1423C32.0185 8.06854 31.9992 7.99371 31.9547 7.93402C31.9101 7.87434 31.8439 7.8346 31.7702 7.82341L30.1449 7.67111C30.0598 7.6695 29.9758 7.69073 29.9018 7.73258C29.8277 7.77444 29.7662 7.83539 29.7236 7.90908L29.3928 8.55163C29.3476 8.62798 29.2859 8.69325 29.2122 8.74267C29.1385 8.79208 29.0547 8.82438 28.9669 8.8372C28.6843 8.86091 28.4031 8.89904 28.1244 8.95143C27.9436 8.97916 27.7588 8.94388 27.6009 8.85148L26.7323 8.27319C26.6559 8.22866 26.5708 8.20133 26.4829 8.19311C26.3949 8.18489 26.3062 8.19598 26.223 8.2256L24.9046 8.75153C24.872 8.76083 24.8425 8.77865 24.8191 8.80317C24.7957 8.82769 24.7793 8.85801 24.7715 8.891C24.7637 8.92399 24.7649 8.95845 24.7749 8.99083C24.7849 9.0232 24.8034 9.05232 24.8284 9.07517L25.4115 9.70344C25.4369 9.73014 25.4562 9.76204 25.4681 9.79694C25.4799 9.83183 25.4841 9.86888 25.4802 9.90554C25.4764 9.9422 25.4646 9.97758 25.4458 10.0092C25.4269 10.0409 25.4014 10.0681 25.371 10.089C25.2442 10.1896 25.1242 10.2986 25.0117 10.415C24.8849 10.5427 24.7154 10.619 24.5357 10.6292L23.0483 10.5863C22.9652 10.5878 22.8844 10.6145 22.8168 10.6629C22.7492 10.7114 22.698 10.7793 22.67 10.8576L22.432 11.5906C22.4181 11.6247 22.4124 11.6616 22.4153 11.6983C22.4181 11.7351 22.4294 11.7706 22.4483 11.8022C22.4673 11.8338 22.4932 11.8606 22.5243 11.8805C22.5553 11.9003 22.5905 11.9127 22.6271 11.9166L24.0383 12.1546C24.119 12.1752 24.1929 12.2165 24.2527 12.2746C24.3124 12.3326 24.3558 12.4053 24.3786 12.4854C24.4072 12.5828 24.4422 12.6782 24.4834 12.771C24.5172 12.8394 24.5233 12.9183 24.5002 12.9911C24.4771 13.0638 24.4267 13.1249 24.3596 13.1613L23.3101 13.7038C23.2783 13.7145 23.2501 13.734 23.2289 13.7599C23.2076 13.7859 23.1941 13.8173 23.1898 13.8506C23.1856 13.8839 23.1909 13.9177 23.205 13.9482C23.2191 13.9786 23.2415 14.0045 23.2697 14.0227L24.0907 14.7153C24.1614 14.7669 24.2428 14.8021 24.3288 14.8182C24.4149 14.8342 24.5035 14.8308 24.5881 14.8081L25.8589 14.3916C26.0367 14.3449 26.2248 14.3549 26.3967 14.4202C26.6174 14.5119 26.8431 14.5914 27.0726 14.6581C27.1486 14.6828 27.2138 14.733 27.2572 14.8002C27.3005 14.8674 27.3194 14.9475 27.3105 15.027L27.2296 15.6553C27.2243 15.6927 27.2266 15.7309 27.2364 15.7674C27.2462 15.804 27.2633 15.8382 27.2866 15.868C27.3099 15.8977 27.3391 15.9225 27.3722 15.9408C27.4054 15.959 27.4419 15.9704 27.4795 15.9742L29.1025 16.1265C29.188 16.1285 29.2724 16.1075 29.347 16.0656C29.4215 16.0237 29.4834 15.9625 29.5261 15.8885L29.8569 15.2459C29.9011 15.1694 29.9622 15.1041 30.0357 15.055C30.1091 15.0058 30.1929 14.9743 30.2805 14.9628C30.5637 14.9366 30.8469 14.8985 31.1253 14.8461C31.3061 14.819 31.4908 14.8542 31.6489 14.9461L32.5175 15.5244C32.5934 15.5689 32.6781 15.5962 32.7657 15.6044C32.8532 15.6126 32.9415 15.6016 33.0244 15.572L34.3333 15.0294C34.3657 15.0198 34.3949 15.0017 34.4181 14.9771C34.4412 14.9525 34.4573 14.9221 34.4648 14.8891C34.4724 14.8562 34.471 14.8218 34.4608 14.7896C34.4506 14.7574 34.4321 14.7284 34.407 14.7057L33.824 14.0751C33.799 14.0482 33.78 14.0163 33.7683 13.9814C33.7567 13.9466 33.7526 13.9097 33.7565 13.8731C33.7603 13.8366 33.7719 13.8013 33.7906 13.7696C33.8092 13.738 33.8344 13.7107 33.8644 13.6896C33.9918 13.5895 34.1119 13.4806 34.2238 13.3635C34.3514 13.2371 34.5205 13.161 34.6998 13.1494L36.1871 13.1922C36.2703 13.1908 36.351 13.1641 36.4186 13.1156C36.4862 13.0671 36.5375 12.9992 36.5655 12.9209L36.8035 12.1879C36.8173 12.1538 36.823 12.1169 36.8202 12.0802C36.8174 12.0435 36.806 12.0079 36.7871 11.9763C36.7682 11.9447 36.7422 11.9179 36.7112 11.8981C36.6802 11.8782 36.645 11.8658 36.6083 11.8619L35.1971 11.6239C35.1164 11.6034 35.0425 11.562 34.9828 11.504C34.9231 11.4459 34.8796 11.3732 34.8568 11.2931C34.8293 11.1954 34.7943 11.0999 34.7521 11.0076C34.7185 10.9392 34.7129 10.8604 34.7365 10.788C34.76 10.7156 34.8109 10.6552 34.8782 10.6197L35.9277 10.0747C35.9595 10.064 35.9877 10.0446 36.009 10.0186C36.0303 9.99266 36.0438 9.96124 36.048 9.92794C36.0522 9.89464 36.047 9.86082 36.0329 9.83037C36.0187 9.79993 35.9963 9.77408 35.9682 9.7558L35.1448 9.06566C35.073 9.01632 34.9909 8.98384 34.9048 8.97065C34.8187 8.95747 34.7307 8.96391 34.6474 8.98951ZM32.1819 10.8315C33.1505 11.6453 32.7888 12.7829 31.3704 13.3731C29.9521 13.9632 28.0197 13.78 27.0511 12.9661C26.0826 12.1522 26.4467 11.0147 27.8626 10.4245C29.2786 9.83433 31.2134 10.0104 32.1819 10.8243V10.8315Z" fill="#FAFAFA"/>
<path d="M30.1043 7.91143L31.7297 8.06373H31.744C31.7469 8.0714 31.7469 8.07987 31.744 8.08753L31.6631 8.7158C31.6451 8.85865 31.6789 9.00321 31.7584 9.12328C31.8378 9.24334 31.9577 9.33096 32.0962 9.37024C32.3174 9.43619 32.5344 9.51567 32.7459 9.60822C32.8807 9.66154 33.0245 9.68821 33.1695 9.68675C33.2695 9.68806 33.3691 9.6736 33.4646 9.64391L34.7354 9.22745C34.7567 9.22436 34.7783 9.22436 34.7996 9.22745C34.8668 9.2259 34.9327 9.24591 34.9876 9.28456L35.7373 9.91283L34.7663 10.415C34.6425 10.4805 34.5486 10.5913 34.5043 10.7243C34.46 10.8572 34.4686 11.0021 34.5284 11.1289C34.563 11.2064 34.5932 11.2859 34.6188 11.3669C34.6527 11.4951 34.7216 11.6113 34.8179 11.7025C34.9142 11.7937 35.0339 11.8563 35.1638 11.8833L36.5678 12.1213L36.3298 12.8495C36.3189 12.8754 36.3012 12.8979 36.2786 12.9146C36.256 12.9314 36.2293 12.9418 36.2013 12.9447L34.7164 12.9018H34.6973C34.4498 12.913 34.2154 13.0166 34.0405 13.1922C33.9359 13.3015 33.8238 13.4032 33.7049 13.4968C33.647 13.5422 33.599 13.599 33.5638 13.6636C33.5286 13.7283 33.507 13.7995 33.5003 13.8728C33.4955 13.9425 33.5051 14.0125 33.5284 14.0784C33.5518 14.1443 33.5883 14.2047 33.6359 14.2559L34.1666 14.8271L32.9268 15.3435C32.8949 15.3557 32.8609 15.3613 32.8268 15.3601C32.7679 15.3614 32.7098 15.3475 32.6578 15.3197L31.7892 14.7414C31.6224 14.6394 31.4302 14.5866 31.2347 14.5891C31.1822 14.5892 31.1297 14.5932 31.0777 14.601C30.8111 14.651 30.5351 14.689 30.259 14.7152C30.1281 14.7305 30.0026 14.7767 29.893 14.8499C29.7833 14.9231 29.6927 15.0213 29.6284 15.1364L29.2976 15.779C29.2788 15.8076 29.2535 15.8314 29.2237 15.8484C29.1939 15.8654 29.1605 15.875 29.1263 15.8766L27.5032 15.7242C27.4978 15.7261 27.492 15.7261 27.4866 15.7242C27.4848 15.7164 27.4848 15.7083 27.4866 15.7005L27.5699 15.0722C27.585 14.9326 27.5516 14.7921 27.4753 14.6742C27.399 14.5564 27.2845 14.4683 27.151 14.4249C26.9309 14.3579 26.7148 14.2784 26.5037 14.1869C26.3685 14.1319 26.2237 14.1044 26.0778 14.106C25.9785 14.1045 25.8797 14.1189 25.785 14.1488L24.5142 14.5653C24.4929 14.5684 24.4713 14.5684 24.45 14.5653C24.3821 14.5667 24.3155 14.5467 24.2596 14.5082L23.5123 13.8799L24.4809 13.3778C24.6043 13.3118 24.6978 13.201 24.7421 13.0682C24.7863 12.9354 24.778 12.7907 24.7189 12.6639C24.6833 12.5867 24.6531 12.5072 24.6285 12.4259C24.5944 12.2974 24.5251 12.1809 24.4284 12.0897C24.3316 11.9985 24.2114 11.936 24.0811 11.9095L22.6794 11.6834L22.9174 10.9528C22.9283 10.9273 22.9457 10.9052 22.9678 10.8885C22.99 10.8718 23.0161 10.8611 23.0435 10.8576L24.5309 10.9004H24.5476C24.7951 10.8893 25.0295 10.7857 25.2044 10.6101C25.31 10.502 25.4221 10.4002 25.5399 10.3055C25.5983 10.2605 25.6466 10.2038 25.6818 10.139C25.7171 10.0743 25.7384 10.0029 25.7446 9.92949C25.7499 9.8597 25.7406 9.78956 25.7173 9.72357C25.6939 9.65759 25.657 9.59722 25.6089 9.54634L25.0806 8.97519L26.3181 8.45878C26.3501 8.44689 26.384 8.44124 26.4181 8.44213C26.477 8.44054 26.5352 8.45449 26.587 8.48258L27.4556 9.06086C27.6224 9.1631 27.8145 9.21668 28.0101 9.21555C28.0636 9.21585 28.117 9.21107 28.1696 9.20128C28.4337 9.1513 28.7098 9.11322 28.9882 9.08704C29.1185 9.07165 29.2434 9.02569 29.3525 8.95291C29.4617 8.88012 29.5522 8.78257 29.6165 8.6682L29.9473 8.02328C29.9657 7.99537 29.9904 7.97206 30.0192 7.95515C30.0481 7.93823 30.0805 7.92816 30.1139 7.92571M29.5451 13.9799C30.2068 13.9853 30.8631 13.8616 31.4775 13.6158C32.3318 13.2612 32.8768 12.6924 32.9744 12.057C33.0055 11.7877 32.9646 11.515 32.8559 11.2667C32.7472 11.0183 32.5745 10.8033 32.3556 10.6434C31.7416 10.127 30.7754 9.83192 29.7069 9.83192C29.0432 9.82018 28.3835 9.9382 27.765 10.1794C26.9107 10.5339 26.3657 11.1027 26.2681 11.7381C26.2373 12.0074 26.2783 12.28 26.387 12.5283C26.4956 12.7766 26.6681 12.9917 26.8869 13.1517C27.5009 13.6681 28.4671 13.9632 29.5356 13.9632M30.1043 7.65442C30.0241 7.65775 29.9461 7.68132 29.8774 7.72293C29.8088 7.76453 29.7517 7.82283 29.7117 7.8924L29.3809 8.53493C29.3357 8.61129 29.274 8.67656 29.2002 8.72597C29.1265 8.77539 29.0427 8.80769 28.9549 8.82051C28.6723 8.84422 28.3911 8.88234 28.1125 8.93473C28.0753 8.93847 28.0378 8.93847 28.0006 8.93473C27.856 8.93627 27.7137 8.89843 27.5889 8.82527L26.7203 8.24698C26.6264 8.19008 26.5183 8.16118 26.4085 8.16369C26.341 8.16268 26.2739 8.1748 26.211 8.19938L24.9045 8.75149C24.8719 8.76079 24.8424 8.77862 24.819 8.80314C24.7956 8.82766 24.7792 8.85798 24.7714 8.89096C24.7637 8.92395 24.7649 8.95842 24.7749 8.99079C24.7849 9.02317 24.8033 9.05229 24.8284 9.07514L25.4114 9.70341C25.4368 9.73011 25.4561 9.76201 25.468 9.7969C25.4799 9.8318 25.484 9.86885 25.4802 9.90551C25.4763 9.94216 25.4646 9.97755 25.4457 10.0092C25.4269 10.0409 25.4014 10.0681 25.371 10.0889C25.2442 10.1896 25.1241 10.2985 25.0116 10.415C24.884 10.5414 24.7149 10.6175 24.5357 10.6291L23.0483 10.5863C22.9665 10.5898 22.8876 10.6174 22.8216 10.6657C22.7555 10.714 22.7052 10.7808 22.677 10.8576L22.4391 11.5906C22.4252 11.6247 22.4195 11.6616 22.4223 11.6983C22.4252 11.735 22.4365 11.7706 22.4554 11.8022C22.4743 11.8338 22.5003 11.8606 22.5314 11.8804C22.5624 11.9003 22.5976 11.9127 22.6342 11.9166L24.0454 12.1546C24.1261 12.1751 24.2 12.2165 24.2597 12.2745C24.3195 12.3326 24.3629 12.4053 24.3857 12.4854C24.4143 12.5828 24.4493 12.6782 24.4904 12.7709C24.5243 12.8394 24.5303 12.9183 24.5073 12.991C24.4842 13.0638 24.4338 13.1248 24.3667 13.1612L23.3172 13.7038C23.2854 13.7145 23.2572 13.7339 23.2359 13.7599C23.2147 13.7858 23.2011 13.8173 23.1969 13.8506C23.1927 13.8839 23.1979 13.9177 23.2121 13.9481C23.2262 13.9786 23.2486 14.0044 23.2768 14.0227L24.0978 14.7152C24.2005 14.7906 24.3249 14.8307 24.4524 14.8295C24.5008 14.8299 24.549 14.8227 24.5951 14.808L25.866 14.3916C25.9352 14.3696 26.0075 14.3592 26.0801 14.3606C26.1909 14.3592 26.3008 14.3795 26.4038 14.4201C26.6245 14.5119 26.8501 14.5913 27.0796 14.6581C27.1557 14.6828 27.2209 14.733 27.2643 14.8002C27.3076 14.8674 27.3265 14.9475 27.3176 15.027L27.2367 15.6552C27.2314 15.6927 27.2337 15.7309 27.2435 15.7674C27.2533 15.804 27.2704 15.8381 27.2937 15.8679C27.317 15.8977 27.3461 15.9225 27.3793 15.9407C27.4124 15.959 27.4489 15.9703 27.4866 15.9741L29.1096 16.1264H29.1405C29.2207 16.1231 29.2988 16.0995 29.3675 16.0579C29.4361 16.0163 29.4931 15.958 29.5332 15.8885L29.864 15.2459C29.9081 15.1694 29.9693 15.104 30.0428 15.0549C30.1162 15.0058 30.2 14.9743 30.2876 14.9627C30.5708 14.9365 30.854 14.8985 31.1324 14.8461C31.1688 14.8424 31.2055 14.8424 31.2419 14.8461C31.3872 14.845 31.5302 14.8828 31.656 14.9556L32.5246 15.5339C32.6177 15.5905 32.725 15.6193 32.8339 15.6172C32.9015 15.6182 32.9686 15.6061 33.0315 15.5815L34.3403 15.0389C34.3728 15.0293 34.402 15.0112 34.4251 14.9866C34.4483 14.9619 34.4644 14.9316 34.4719 14.8986C34.4794 14.8657 34.478 14.8313 34.4679 14.7991C34.4577 14.7669 34.4392 14.7379 34.4141 14.7152L33.8311 14.0846C33.806 14.0577 33.7871 14.0258 33.7754 13.9909C33.7638 13.9561 33.7597 13.9191 33.7636 13.8826C33.7674 13.8461 33.779 13.8108 33.7976 13.7791C33.8163 13.7475 33.8415 13.7202 33.8715 13.6991C33.9989 13.599 34.1189 13.49 34.2309 13.373C34.3589 13.2471 34.5277 13.1711 34.7068 13.1588L36.1942 13.2017C36.2758 13.1987 36.3546 13.1712 36.4204 13.1228C36.4862 13.0745 36.5359 13.0074 36.5631 12.9304L36.801 12.1974C36.8149 12.1633 36.8206 12.1264 36.8178 12.0897C36.8149 12.053 36.8036 12.0174 36.7847 11.9858C36.7658 11.9542 36.7398 11.9274 36.7088 11.9075C36.6777 11.8877 36.6425 11.8753 36.6059 11.8714L35.1947 11.6334C35.114 11.6129 35.0401 11.5715 34.9804 11.5135C34.9207 11.4554 34.8772 11.3827 34.8544 11.3026C34.8269 11.2049 34.7919 11.1094 34.7497 11.017C34.7161 10.9487 34.7105 10.8699 34.734 10.7975C34.7576 10.7251 34.8084 10.6647 34.8758 10.6291L35.9253 10.0842C35.9571 10.0735 35.9853 10.0541 36.0065 10.0281C36.0278 10.0021 36.0414 9.97072 36.0456 9.93742C36.0498 9.90412 36.0445 9.87031 36.0304 9.83986C36.0163 9.80941 35.9939 9.78357 35.9657 9.76528L35.1423 9.07514C35.0413 8.998 34.9173 8.95694 34.7901 8.95853C34.7409 8.95813 34.692 8.96535 34.645 8.97995L33.3742 9.39641C33.3049 9.41837 33.2326 9.42882 33.16 9.42735C33.0493 9.4285 32.9394 9.4083 32.8363 9.36786C32.6158 9.27574 32.3901 9.19628 32.1605 9.12988C32.0847 9.10479 32.0197 9.05452 31.9764 8.98742C31.9331 8.92032 31.9141 8.84043 31.9225 8.76102L32.0058 8.13275C32.016 8.05898 31.9968 7.98415 31.9522 7.92447C31.9077 7.86478 31.8414 7.82504 31.7678 7.81386L30.1424 7.66156L30.1043 7.65442ZM29.5356 13.7086C28.5718 13.7086 27.6317 13.4468 27.0511 12.9566C26.0825 12.1427 26.4466 11.0051 27.8626 10.415C28.4461 10.1821 29.0692 10.0649 29.6974 10.0699C30.6612 10.0699 31.6012 10.3317 32.1819 10.8219C33.1505 11.6358 32.7887 12.7733 31.3704 13.3635C30.7869 13.5963 30.1638 13.7135 29.5356 13.7086Z" fill="#EBEBEB"/>
</svg>
