<svg width="112" height="29" viewBox="0 0 112 29" fill="none" xmlns="http://www.w3.org/2000/svg">
<path d="M51.8324 19.9131L50.9376 19.6751C50.8792 19.654 50.8278 19.6174 50.7888 19.5691C50.7498 19.5209 50.7247 19.4629 50.7163 19.4014C50.6906 19.2346 50.6524 19.0699 50.602 18.9088C50.5964 18.8331 50.61 18.7571 50.6416 18.688C50.6732 18.6189 50.7218 18.559 50.7829 18.5138L51.3064 18.064C51.4397 17.9498 51.5016 17.788 51.4421 17.7047L50.8329 16.8598C50.7734 16.7766 50.6068 16.7742 50.4616 16.8598L49.8119 17.2097C49.7516 17.2483 49.6826 17.2713 49.6112 17.2767C49.5397 17.2821 49.4681 17.2697 49.4026 17.2406C49.2523 17.1315 49.0931 17.0352 48.9267 16.9527C48.8748 16.9191 48.8328 16.8723 48.8052 16.8171C48.7775 16.7618 48.7653 16.7001 48.7696 16.6385L48.8315 15.8008C48.8359 15.7411 48.819 15.6817 48.7837 15.6333C48.7484 15.5849 48.697 15.5506 48.6387 15.5367L47.6321 15.3725C47.5665 15.3702 47.5021 15.3908 47.45 15.4308C47.3979 15.4707 47.3613 15.5275 47.3465 15.5914L47.1085 16.3411C47.0848 16.4114 47.0431 16.4743 46.9876 16.5235C46.9321 16.5728 46.8646 16.6067 46.792 16.6219C46.652 16.6432 46.5136 16.6742 46.3779 16.7147C46.3146 16.7376 46.2466 16.7448 46.1799 16.7357C46.1132 16.7265 46.0496 16.7014 45.9948 16.6623L45.3617 15.9627C45.2951 15.8889 45.1238 15.9055 44.981 16.0055L44.3099 16.4672C44.1671 16.5671 44.0909 16.7194 44.1433 16.8099L44.5978 17.619C44.6142 17.6906 44.6133 17.7651 44.5951 17.8363C44.5768 17.9075 44.5419 17.9733 44.4931 18.0283C44.4313 18.114 44.3741 18.2044 44.3194 18.2949C44.2837 18.361 44.2322 18.4174 44.1696 18.4589C44.1069 18.5004 44.0349 18.5258 43.9601 18.5328L43.0676 18.4852C43.0023 18.4865 42.9397 18.5112 42.8911 18.5549C42.8426 18.5986 42.8115 18.6584 42.8035 18.7232L42.6345 19.6275C42.6197 19.6865 42.6268 19.7489 42.6543 19.8031C42.6819 19.8573 42.7281 19.8998 42.7844 19.9226L43.6769 20.1606C43.7336 20.1811 43.7838 20.2164 43.8223 20.2628C43.8608 20.3093 43.8862 20.3652 43.8958 20.4248C43.9196 20.5917 43.957 20.7565 44.0077 20.9174C44.0138 20.9929 44.0007 21.0688 43.9695 21.138C43.9382 21.2071 43.89 21.2671 43.8292 21.3124L43.3056 21.7622C43.17 21.8764 43.1105 22.0382 43.17 22.1215L43.7792 22.9664C43.8387 23.0496 44.0053 23.052 44.1504 22.9664L44.7977 22.6165C44.8588 22.5785 44.9281 22.5558 44.9998 22.5504C45.0715 22.545 45.1434 22.5571 45.2094 22.5856C45.3598 22.6947 45.519 22.7911 45.6854 22.8735C45.7377 22.9067 45.7799 22.9534 45.8076 23.0088C45.8353 23.0641 45.8473 23.126 45.8425 23.1877L45.783 24.0254C45.7753 24.0857 45.7909 24.1467 45.8268 24.1958C45.8626 24.2449 45.9159 24.2784 45.9757 24.2895L46.9824 24.4537C47.0479 24.4555 47.112 24.4348 47.164 24.3949C47.216 24.355 47.2527 24.2985 47.268 24.2348L47.494 23.4852C47.5186 23.4149 47.5608 23.3521 47.6167 23.3029C47.6725 23.2538 47.7401 23.2198 47.8129 23.2043C47.9529 23.183 48.0913 23.152 48.227 23.1115C48.2903 23.0886 48.3583 23.0814 48.425 23.0905C48.4918 23.0997 48.5553 23.1248 48.6101 23.1639L49.2408 23.8635C49.3098 23.9373 49.4788 23.9207 49.6216 23.8207L50.295 23.359C50.4378 23.2591 50.5116 23.1068 50.4616 23.0163L50.0071 22.2072C49.9895 22.1356 49.9898 22.0608 50.0081 21.9894C50.0263 21.918 50.062 21.8522 50.1118 21.7979C50.1737 21.7122 50.2308 21.6218 50.2855 21.5313C50.321 21.4655 50.3721 21.4094 50.4343 21.3679C50.4966 21.3264 50.568 21.3008 50.6425 21.2934L51.5349 21.341C51.6006 21.3403 51.6639 21.3158 51.7129 21.2721C51.7619 21.2283 51.7934 21.1682 51.8014 21.103L51.9704 20.1987C51.9835 20.1425 51.977 20.0835 51.9519 20.0315C51.9268 19.9795 51.8846 19.9377 51.8324 19.9131ZM49.2884 20.2391C49.1839 20.758 48.8815 21.2159 48.4453 21.5157C48.0091 21.8155 47.4733 21.9338 46.9514 21.8455C46.6954 21.8081 46.4494 21.7196 46.2283 21.5852C46.0071 21.4508 45.8152 21.2733 45.664 21.0633C45.5128 20.8533 45.4054 20.615 45.3482 20.3626C45.2909 20.1102 45.285 19.8489 45.3308 19.5942C45.4353 19.0753 45.7377 18.6175 46.1739 18.3176C46.6101 18.0178 47.1459 17.8995 47.6678 17.9879C47.9238 18.0253 48.1698 18.1138 48.3909 18.2481C48.6121 18.3825 48.804 18.56 48.9552 18.77C49.1064 18.9801 49.2138 19.2183 49.271 19.4707C49.3283 19.7231 49.3342 19.9844 49.2884 20.2391Z" fill="#F0F0F0"/>
<path d="M111.439 8.14026L110.713 8.08077C110.666 8.07335 110.622 8.05353 110.586 8.02339C110.55 7.99326 110.522 7.9539 110.506 7.90943C110.462 7.78439 110.408 7.6627 110.346 7.54532C110.33 7.48789 110.329 7.42723 110.343 7.36925C110.357 7.31127 110.386 7.25796 110.427 7.21453L110.765 6.78855C110.853 6.67908 110.877 6.55057 110.818 6.49108L110.223 5.92469C110.166 5.86996 110.037 5.89375 109.935 5.97467L109.497 6.34115C109.456 6.37995 109.405 6.40787 109.35 6.4224C109.295 6.43694 109.238 6.43764 109.183 6.42444C109.053 6.36204 108.919 6.31031 108.781 6.26976C108.735 6.25221 108.695 6.22252 108.665 6.18392C108.636 6.14531 108.617 6.09928 108.612 6.05082L108.535 5.394C108.531 5.34721 108.51 5.30363 108.476 5.27128C108.441 5.23892 108.397 5.21997 108.35 5.2179L107.545 5.23931C107.495 5.24656 107.448 5.27152 107.413 5.30982C107.379 5.34811 107.359 5.3973 107.357 5.44873L107.291 6.06272C107.283 6.12087 107.26 6.17592 107.224 6.22231C107.188 6.26869 107.141 6.30476 107.086 6.32687C106.981 6.36457 106.879 6.40828 106.779 6.45776C106.734 6.48458 106.683 6.50009 106.63 6.50299C106.577 6.50589 106.525 6.49609 106.477 6.47442L105.884 6.02702C105.82 5.97705 105.692 6.02702 105.596 6.11507L105.144 6.57199C105.047 6.66718 105.011 6.80997 105.063 6.85994L105.539 7.41919C105.563 7.47222 105.574 7.53013 105.57 7.58809C105.567 7.64604 105.55 7.70237 105.52 7.75236C105.485 7.82851 105.451 7.90467 105.423 7.99034C105.405 8.04623 105.374 8.09704 105.333 8.13847C105.291 8.1799 105.241 8.21072 105.185 8.22832L104.487 8.32113C104.438 8.33121 104.394 8.35848 104.362 8.39811C104.331 8.43774 104.315 8.48718 104.316 8.53769V9.25162C104.313 9.29963 104.327 9.34716 104.357 9.38528C104.386 9.4234 104.428 9.44949 104.476 9.45866L105.201 9.51816C105.249 9.52587 105.293 9.54604 105.33 9.57658C105.367 9.60711 105.395 9.64692 105.411 9.69188C105.453 9.81726 105.506 9.93902 105.568 10.056C105.584 10.1134 105.585 10.174 105.571 10.232C105.557 10.2899 105.528 10.3432 105.487 10.3868L105.149 10.8104C105.061 10.9198 105.037 11.0484 105.097 11.1102L105.692 11.6742C105.749 11.729 105.88 11.7076 105.98 11.6243L106.429 11.2578C106.471 11.2199 106.522 11.1925 106.576 11.178C106.631 11.1635 106.688 11.1623 106.743 11.1745C106.874 11.2373 107.009 11.289 107.148 11.3292C107.193 11.3475 107.232 11.3775 107.261 11.416C107.29 11.4545 107.309 11.5001 107.315 11.5481L107.391 12.2073C107.395 12.2545 107.417 12.2984 107.452 12.3308C107.486 12.3632 107.531 12.3819 107.579 12.3834L108.381 12.362C108.432 12.3543 108.478 12.3292 108.512 12.291C108.547 12.2528 108.567 12.2039 108.569 12.1526L108.635 11.5386C108.643 11.4804 108.666 11.4254 108.702 11.379C108.738 11.3326 108.786 11.2965 108.84 11.2744C108.945 11.2364 109.048 11.1919 109.147 11.1412C109.193 11.1145 109.245 11.0993 109.298 11.0968C109.351 11.0943 109.403 11.1047 109.452 11.1269L110.042 11.5743C110.106 11.6219 110.235 11.5743 110.332 11.4862L110.784 11.0293C110.88 10.9317 110.915 10.7913 110.863 10.7414L110.387 10.1821C110.364 10.1289 110.353 10.0709 110.357 10.0129C110.361 9.95497 110.378 9.89875 110.408 9.84895C110.444 9.77129 110.476 9.69186 110.504 9.61097C110.521 9.55489 110.551 9.50388 110.593 9.4624C110.634 9.42092 110.685 9.39022 110.742 9.37299L111.439 9.28018C111.489 9.27054 111.533 9.2434 111.565 9.20366C111.596 9.16393 111.612 9.11424 111.61 9.06362V8.34968C111.614 8.29953 111.598 8.24994 111.566 8.21103C111.534 8.17212 111.489 8.14681 111.439 8.14026ZM109.535 8.76377C109.531 9.18057 109.364 9.57935 109.071 9.87563C108.778 10.1719 108.381 10.3424 107.964 10.3511C107.761 10.3594 107.558 10.3267 107.367 10.2551C107.177 10.1834 107.002 10.0742 106.855 9.93395C106.707 9.79368 106.589 9.62519 106.508 9.43849C106.427 9.25179 106.384 9.05067 106.382 8.84706C106.385 8.43007 106.552 8.03095 106.845 7.73453C107.138 7.43812 107.535 7.26779 107.952 7.25975C108.155 7.25243 108.357 7.28581 108.547 7.35793C108.737 7.43005 108.91 7.53945 109.056 7.67965C109.203 7.81986 109.32 7.98803 109.401 8.17423C109.481 8.36044 109.524 8.5609 109.525 8.76377H109.535Z" fill="#F0F0F0"/>
<path d="M78.7787 20.1581L77.9148 19.9202C77.8601 19.9 77.8118 19.8655 77.775 19.8203C77.7382 19.775 77.7141 19.7208 77.7054 19.6631C77.681 19.5019 77.6445 19.3428 77.5959 19.1872C77.5901 19.1142 77.603 19.0409 77.6334 18.9743C77.6638 18.9077 77.7107 18.8499 77.7697 18.8064L78.2765 18.3733C78.4051 18.2614 78.4645 18.1068 78.4074 18.0258L77.8173 17.2072C77.7601 17.1287 77.6007 17.1239 77.4579 17.2072L76.832 17.5451C76.7736 17.5821 76.707 17.6041 76.6381 17.6091C76.5692 17.614 76.5001 17.6019 76.437 17.5737C76.2941 17.4687 76.1429 17.3756 75.9848 17.2953C75.9344 17.2634 75.8936 17.2185 75.8667 17.1653C75.8399 17.112 75.8281 17.0525 75.8325 16.993L75.8896 16.1839C75.8958 16.1261 75.8805 16.068 75.8467 16.0206C75.813 15.9733 75.7631 15.9399 75.7064 15.9269L74.7307 15.7698C74.6679 15.7676 74.6062 15.7873 74.5563 15.8255C74.5064 15.8637 74.4713 15.918 74.457 15.9792L74.2357 16.6932C74.2122 16.761 74.1716 16.8216 74.1179 16.8692C74.0641 16.9167 73.9989 16.9495 73.9287 16.9645C73.7939 16.9865 73.6604 17.0159 73.5289 17.0525C73.4681 17.0747 73.4028 17.0819 73.3387 17.0736C73.2745 17.0653 73.2132 17.0418 73.16 17.0049L72.5484 16.3291C72.4842 16.2553 72.3104 16.2743 72.1796 16.3695L71.5299 16.8169C71.3942 16.9097 71.3205 17.0549 71.3704 17.1453L71.8107 17.9283C71.8262 17.9979 71.825 18.0702 71.8072 18.1393C71.7894 18.2083 71.7555 18.2722 71.7084 18.3257C71.6479 18.4081 71.5923 18.4939 71.5418 18.5827C71.508 18.648 71.4586 18.7039 71.398 18.7454C71.3373 18.7869 71.2674 18.8128 71.1943 18.8207L70.3328 18.7731C70.2708 18.775 70.2112 18.7983 70.1644 18.8391C70.1175 18.8798 70.0862 18.9356 70.0758 18.9968L69.914 19.8702C69.8982 19.927 69.904 19.9877 69.9304 20.0405C69.9568 20.0932 70.0018 20.1343 70.0568 20.1558L70.9206 20.3937C70.9753 20.4136 71.0238 20.4476 71.061 20.4924C71.0982 20.5371 71.1229 20.591 71.1324 20.6484C71.156 20.8095 71.1918 20.9686 71.2395 21.1243C71.2453 21.1973 71.2324 21.2706 71.202 21.3372C71.1716 21.4038 71.1248 21.4616 71.0658 21.5051L70.5613 21.9406C70.4304 22.0524 70.3733 22.2071 70.4304 22.288L71.0182 23.1043C71.0753 23.1852 71.2372 23.1876 71.3776 23.1043L72.0034 22.7664C72.0621 22.729 72.129 22.7066 72.1983 22.7012C72.2676 22.6958 72.3372 22.7076 72.4009 22.7354C72.5434 22.841 72.6947 22.9341 72.853 23.0139C72.9026 23.0466 72.9427 23.0917 72.9694 23.1447C72.9961 23.1977 73.0085 23.2568 73.0053 23.3161L72.9458 24.1276C72.9404 24.1854 72.9563 24.2432 72.9905 24.29C73.0247 24.3369 73.0748 24.3697 73.1315 24.3822L74.1048 24.5417C74.1681 24.5434 74.2301 24.5233 74.2804 24.4848C74.3307 24.4462 74.3661 24.3915 74.3808 24.3299L74.5998 23.616C74.6227 23.5475 74.6631 23.4863 74.7169 23.4383C74.7708 23.3903 74.8362 23.3572 74.9068 23.3423C75.0418 23.3214 75.1753 23.292 75.3066 23.2542C75.3675 23.232 75.4329 23.225 75.4972 23.2337C75.5614 23.2424 75.6226 23.2666 75.6754 23.3042L76.2871 23.9801C76.3537 24.0515 76.525 24.0348 76.6559 23.9396L77.3056 23.4922C77.4436 23.397 77.515 23.2542 77.4674 23.1638L77.0272 22.3808C77.0106 22.3115 77.011 22.2391 77.0284 22.1699C77.0458 22.1007 77.0797 22.0367 77.1271 21.9834C77.1866 21.9001 77.2437 21.8145 77.2961 21.7264C77.3301 21.6618 77.3793 21.6065 77.4394 21.565C77.4995 21.5236 77.5687 21.4973 77.6411 21.4884L78.505 21.536C78.567 21.5352 78.6267 21.5125 78.6737 21.4721C78.7207 21.4316 78.752 21.3759 78.762 21.3147L78.9238 20.4389C78.9382 20.3825 78.9314 20.3227 78.9046 20.271C78.8779 20.2192 78.8331 20.1791 78.7787 20.1581ZM76.3299 20.4723C76.2294 20.9741 75.9374 21.417 75.5157 21.7071C75.0941 21.9973 74.5761 22.1117 74.0715 22.0263C73.8242 21.99 73.5867 21.9044 73.3732 21.7745C73.1597 21.6446 72.9745 21.4731 72.8286 21.2702C72.6827 21.0672 72.5791 20.837 72.5241 20.5932C72.469 20.3495 72.4635 20.0971 72.508 19.8511C72.6079 19.3495 72.8995 18.9066 73.3207 18.6164C73.7419 18.3263 74.2597 18.2117 74.764 18.2971C75.0113 18.3334 75.2489 18.419 75.4625 18.5489C75.6762 18.6787 75.8615 18.8502 76.0076 19.0531C76.1536 19.256 76.2574 19.4862 76.3128 19.73C76.3682 19.9737 76.374 20.2262 76.3299 20.4723Z" fill="#F0F0F0"/>
<path d="M83.9286 25.5888L83.3265 25.4246C83.2888 25.4099 83.2554 25.3857 83.2296 25.3545C83.2037 25.3233 83.1863 25.286 83.179 25.2461C83.1623 25.1332 83.1369 25.0218 83.1028 24.9129C83.099 24.8619 83.1082 24.8107 83.1294 24.7641C83.1506 24.7175 83.1832 24.677 83.2242 24.6464L83.5788 24.3442C83.6692 24.2656 83.7097 24.1562 83.6692 24.1062L83.2575 23.535C83.217 23.4779 83.1052 23.4755 83.0076 23.535L82.5697 23.773C82.5291 23.7991 82.4826 23.8147 82.4344 23.8184C82.3862 23.8222 82.3379 23.8139 82.2937 23.7944C82.1937 23.7208 82.0879 23.6555 81.9772 23.5993C81.9424 23.5765 81.9141 23.5449 81.8954 23.5077C81.8766 23.4705 81.8678 23.4291 81.8701 23.3875L81.9105 22.8235C81.9151 22.7828 81.9045 22.7419 81.8808 22.7085C81.8571 22.6752 81.8219 22.6517 81.782 22.6426L81.1014 22.5332C81.0572 22.5319 81.014 22.5459 80.9789 22.5728C80.9438 22.5996 80.919 22.6377 80.9087 22.6807L80.7564 23.1876C80.7398 23.2347 80.7114 23.2767 80.6739 23.3097C80.6364 23.3426 80.591 23.3653 80.5422 23.3756C80.4476 23.3914 80.3538 23.4121 80.2614 23.4375C80.219 23.4532 80.1735 23.4583 80.1287 23.4525C80.084 23.4467 80.0413 23.4301 80.0043 23.4042L79.576 22.9282C79.5308 22.8758 79.4165 22.8901 79.319 22.9544L78.8644 23.2685C78.7692 23.3351 78.7193 23.4375 78.7526 23.5065L79.0596 24.0538C79.0953 24.1157 79.0596 24.2371 78.9906 24.3323C78.9477 24.3894 78.9096 24.4489 78.8716 24.5108C78.8487 24.556 78.8151 24.5949 78.7735 24.624C78.732 24.653 78.6839 24.6714 78.6336 24.6773L78.0291 24.6464C77.9859 24.647 77.9443 24.6628 77.9116 24.6911C77.879 24.7195 77.8574 24.7584 77.8506 24.8011L77.7364 25.4127C77.7266 25.4527 77.7315 25.495 77.7503 25.5317C77.7691 25.5685 77.8005 25.5972 77.8387 25.6126L78.4408 25.7768C78.4786 25.7915 78.512 25.8156 78.5378 25.8469C78.5636 25.8781 78.581 25.9154 78.5884 25.9553C78.6053 26.0681 78.6307 26.1795 78.6645 26.2884C78.6683 26.3395 78.6592 26.3907 78.638 26.4373C78.6168 26.4838 78.5842 26.5243 78.5432 26.555L78.191 26.8572C78.0981 26.9357 78.0577 27.0452 78.0981 27.0952L78.5098 27.6663C78.5503 27.7235 78.6622 27.7258 78.7621 27.6663L79.1976 27.4284C79.2387 27.4023 79.2856 27.3867 79.3341 27.3829C79.3827 27.3792 79.4314 27.3875 79.476 27.4069C79.5752 27.4806 79.6802 27.5458 79.7902 27.6021C79.825 27.6249 79.8532 27.6565 79.872 27.6937C79.8908 27.7308 79.8995 27.7723 79.8973 27.8139L79.8568 28.3779C79.8524 28.4183 79.863 28.4589 79.8868 28.4918C79.9105 28.5248 79.9456 28.5478 79.9853 28.5564L80.6659 28.6682C80.7102 28.6699 80.7537 28.6561 80.7889 28.6292C80.8241 28.6022 80.8487 28.5639 80.8587 28.5207L81.011 28.0138C81.0277 27.9664 81.0565 27.9241 81.0944 27.8912C81.1324 27.8582 81.1783 27.8357 81.2276 27.8258C81.3214 27.8092 81.4143 27.7877 81.506 27.7615C81.549 27.7469 81.5949 27.7426 81.6399 27.7488C81.6849 27.755 81.7279 27.7715 81.7654 27.7972L82.1914 28.2732C82.2366 28.3255 82.3532 28.3113 82.4484 28.247L82.9029 27.9329C82.9981 27.8662 83.0481 27.7639 83.0148 27.6949L82.7078 27.1499C82.6967 27.1012 82.6973 27.0505 82.7098 27.0021C82.7222 26.9536 82.746 26.9089 82.7792 26.8715C82.8196 26.8144 82.8601 26.7549 82.8958 26.693C82.919 26.6478 82.9527 26.6089 82.9941 26.5795C83.0355 26.5501 83.0834 26.531 83.1338 26.524L83.7358 26.5574C83.7791 26.5568 83.8207 26.5409 83.8533 26.5126C83.886 26.4843 83.9076 26.4454 83.9143 26.4027L84.0286 25.7911C84.0392 25.751 84.035 25.7084 84.0166 25.6712C83.9982 25.634 83.9669 25.6047 83.9286 25.5888ZM82.2175 25.8101C82.1471 26.1601 81.9433 26.4689 81.6494 26.6714C81.3554 26.8739 80.9942 26.9542 80.6421 26.8953C80.4692 26.87 80.3031 26.8101 80.1537 26.7194C80.0044 26.6286 79.8748 26.5087 79.7727 26.3668C79.6705 26.225 79.598 26.0641 79.5593 25.8936C79.5206 25.7231 79.5166 25.5467 79.5474 25.3746C79.6184 25.0245 79.8226 24.7156 80.117 24.5131C80.4114 24.3107 80.7729 24.2305 81.1252 24.2894C81.2983 24.3147 81.4646 24.3746 81.614 24.4656C81.7635 24.5565 81.893 24.6767 81.995 24.8189C82.097 24.961 82.1692 25.1223 82.2075 25.293C82.2457 25.4637 82.2491 25.6404 82.2175 25.8125V25.8101Z" fill="#F0F0F0"/>
<path d="M107.051 3.09524L106.539 2.95484C106.506 2.94299 106.477 2.92262 106.455 2.89584C106.433 2.86907 106.418 2.83685 106.413 2.80253C106.4 2.70719 106.378 2.6132 106.348 2.52172C106.346 2.47827 106.354 2.43479 106.372 2.39528C106.39 2.35577 106.418 2.32151 106.453 2.29564L106.753 2.0291C106.829 1.96485 106.865 1.87204 106.829 1.82444L106.482 1.34849C106.446 1.30089 106.351 1.30089 106.268 1.34849L105.896 1.54839C105.862 1.57186 105.821 1.58576 105.78 1.58869C105.738 1.59161 105.696 1.58346 105.658 1.56505C105.574 1.50309 105.485 1.44817 105.392 1.40084C105.362 1.38184 105.338 1.35527 105.322 1.3239C105.306 1.29252 105.299 1.25746 105.301 1.22236L105.335 0.746401C105.338 0.712076 105.329 0.677748 105.308 0.649753C105.288 0.621759 105.259 0.601989 105.225 0.594095L104.647 0.501284C104.61 0.500246 104.574 0.511973 104.544 0.534499C104.515 0.557026 104.494 0.588986 104.485 0.625032L104.354 1.05577C104.341 1.09605 104.317 1.13206 104.285 1.1601C104.254 1.18813 104.215 1.20716 104.173 1.21522C104.093 1.2284 104.013 1.24668 103.935 1.26995C103.899 1.2829 103.86 1.28684 103.822 1.28146C103.784 1.27607 103.748 1.2615 103.716 1.23902L103.355 0.839212C103.317 0.796376 103.219 0.805895 103.138 0.86301L102.753 1.12717C102.669 1.18428 102.627 1.27233 102.657 1.32231L102.917 1.79826C102.927 1.8398 102.926 1.88309 102.916 1.9245C102.906 1.96592 102.886 2.00424 102.857 2.03624C102.821 2.08598 102.788 2.13762 102.757 2.19093C102.738 2.22944 102.708 2.26242 102.673 2.28693C102.637 2.31143 102.596 2.32669 102.553 2.33133L102.041 2.30278C102.004 2.30437 101.969 2.31844 101.942 2.34267C101.914 2.36689 101.895 2.39983 101.889 2.43604L101.791 2.95484C101.784 2.98886 101.788 3.02451 101.804 3.05544C101.82 3.08637 101.847 3.11059 101.879 3.1238L102.391 3.26421C102.423 3.27597 102.452 3.29636 102.474 3.32319C102.496 3.35002 102.51 3.38228 102.515 3.41651C102.529 3.51165 102.55 3.60554 102.579 3.69733C102.584 3.7425 102.578 3.78834 102.56 3.83015C102.542 3.87197 102.513 3.90825 102.477 3.93531L102.177 4.19232C102.101 4.25896 102.065 4.35177 102.098 4.39936L102.448 4.87532C102.481 4.92291 102.577 4.92291 102.662 4.87532L103.033 4.67542C103.068 4.65194 103.108 4.63804 103.15 4.63512C103.192 4.63219 103.234 4.64035 103.271 4.65876C103.356 4.72072 103.446 4.77564 103.54 4.82296C103.57 4.84197 103.594 4.86853 103.61 4.89991C103.626 4.93129 103.633 4.96634 103.631 5.00145L103.595 5.4774C103.592 5.51206 103.602 5.54666 103.622 5.57471C103.643 5.60275 103.673 5.62231 103.707 5.62971L104.283 5.72252C104.32 5.72412 104.357 5.71265 104.387 5.69008C104.417 5.66751 104.438 5.63523 104.447 5.59877L104.578 5.16803C104.591 5.12776 104.615 5.09174 104.647 5.06371C104.678 5.03568 104.717 5.01665 104.759 5.00859C104.839 4.99514 104.919 4.97686 104.997 4.95385C105.033 4.94091 105.072 4.93696 105.11 4.94235C105.148 4.94774 105.184 4.9623 105.216 4.98479L105.573 5.3608C105.613 5.40363 105.711 5.39411 105.792 5.337L106.177 5.07284C106.258 5.01573 106.301 4.92768 106.272 4.8777L106.011 4.40174C106 4.36005 106.001 4.31649 106.011 4.27496C106.022 4.23342 106.043 4.19522 106.072 4.16377C106.108 4.11403 106.142 4.06239 106.172 4.00908C106.192 3.97044 106.221 3.93734 106.257 3.91281C106.293 3.88828 106.334 3.87311 106.377 3.86867L106.889 3.89723C106.925 3.89564 106.961 3.88157 106.988 3.85734C107.016 3.83312 107.035 3.80018 107.041 3.76396L107.136 3.24517C107.14 3.21425 107.134 3.18286 107.119 3.15579C107.103 3.12872 107.079 3.10745 107.051 3.09524ZM105.599 3.28087C105.539 3.57825 105.367 3.84084 105.117 4.01315C104.867 4.18545 104.561 4.25397 104.261 4.20422C104.115 4.18264 103.974 4.13182 103.847 4.05478C103.721 3.97774 103.611 3.87605 103.524 3.75575C103.438 3.63545 103.376 3.49898 103.343 3.35445C103.311 3.20992 103.307 3.06027 103.333 2.91438C103.392 2.6167 103.565 2.35374 103.815 2.18133C104.064 2.00892 104.371 1.94065 104.671 1.99103C104.817 2.01292 104.958 2.06394 105.084 2.14107C105.211 2.2182 105.32 2.31988 105.407 2.4401C105.493 2.56033 105.555 2.69667 105.588 2.84107C105.621 2.98547 105.625 3.13501 105.599 3.28087Z" fill="#F0F0F0"/>
<path d="M6.36204 24.1611L5.75995 23.9945C5.7222 23.9797 5.68883 23.9556 5.66301 23.9244C5.63719 23.8932 5.61977 23.8558 5.61241 23.816C5.59549 23.7032 5.57004 23.5918 5.53626 23.4828C5.53246 23.4318 5.54159 23.3806 5.56281 23.334C5.58402 23.2874 5.61663 23.2469 5.65762 23.2163L6.01221 22.9141C6.10264 22.8355 6.1431 22.726 6.10264 22.6761L5.69094 22.1049C5.65049 22.0478 5.53864 22.0478 5.45296 22.1049L5.01508 22.3429C4.97362 22.3682 4.92667 22.3832 4.8782 22.3865C4.82973 22.3898 4.78117 22.3814 4.73665 22.3619C4.63786 22.2878 4.53275 22.2225 4.42252 22.1668C4.38806 22.1442 4.36007 22.113 4.34129 22.0762C4.32252 22.0395 4.31361 21.9986 4.31543 21.9574L4.35588 21.391C4.3598 21.3507 4.34892 21.3104 4.32527 21.2775C4.30162 21.2447 4.26682 21.2216 4.22738 21.2125L3.54676 21.1007C3.50258 21.0994 3.45933 21.1134 3.42424 21.1403C3.38914 21.1671 3.36435 21.2052 3.354 21.2482L3.20169 21.7551C3.18491 21.8023 3.15648 21.8445 3.11904 21.8778C3.0816 21.9111 3.03635 21.9344 2.98751 21.9455C2.89265 21.9599 2.79884 21.9806 2.7067 22.0074C2.66408 22.0221 2.61857 22.0266 2.5739 22.0204C2.52923 22.0142 2.48666 21.9975 2.44968 21.9717L2.02132 21.4957C1.9761 21.4433 1.8595 21.4576 1.7643 21.5243L1.30977 21.836C1.21458 21.9026 1.1646 22.005 1.19792 22.074L1.50491 22.619C1.51602 22.6677 1.51534 22.7184 1.50293 22.7668C1.49051 22.8152 1.46671 22.86 1.43351 22.8974C1.39306 22.9545 1.3526 23.014 1.31691 23.0759C1.29371 23.1211 1.25998 23.16 1.21855 23.1894C1.17713 23.2188 1.12924 23.2378 1.07893 23.2448L0.476843 23.2115C0.433629 23.2121 0.392015 23.228 0.359355 23.2563C0.326695 23.2846 0.305091 23.3235 0.29836 23.3662L0.184131 23.9778C0.17669 24.013 0.1805 24.0496 0.195021 24.0825C0.209542 24.1154 0.234038 24.1429 0.265043 24.1611L0.867128 24.3253C0.904884 24.34 0.938253 24.3641 0.964074 24.3953C0.989895 24.4266 1.00731 24.4639 1.01467 24.5037C1.03133 24.6166 1.05679 24.728 1.09083 24.8369C1.09761 24.8887 1.09087 24.9413 1.07127 24.9897C1.05167 25.0381 1.01987 25.0805 0.978977 25.113L0.62439 25.4152C0.533958 25.4937 0.493502 25.6032 0.533958 25.6532L0.94566 26.2243C0.986117 26.2814 1.09797 26.2838 1.19554 26.2243L1.63342 25.9863C1.67453 25.9603 1.72142 25.9447 1.76996 25.9409C1.81851 25.9372 1.86723 25.9454 1.91185 25.9649C2.01064 26.0391 2.11575 26.1044 2.22598 26.1601C2.2608 26.1829 2.28902 26.2145 2.30781 26.2517C2.32661 26.2888 2.33532 26.3303 2.33307 26.3719L2.29262 26.9359C2.28808 26.9765 2.29868 27.0175 2.32238 27.0508C2.34608 27.0842 2.38123 27.1076 2.42112 27.1167L3.10174 27.2262C3.14602 27.2279 3.1895 27.2141 3.22469 27.1871C3.25987 27.1602 3.28456 27.1218 3.2945 27.0787L3.44681 26.5742C3.46278 26.5265 3.49096 26.4838 3.52853 26.4504C3.56611 26.417 3.61178 26.394 3.66099 26.3838C3.75564 26.3682 3.84938 26.3475 3.9418 26.3219C3.98413 26.3062 4.02965 26.301 4.07442 26.3068C4.1192 26.3126 4.16189 26.3292 4.19882 26.3552L4.62718 26.8312C4.6724 26.8811 4.78662 26.8692 4.8842 26.8026L5.33873 26.4885C5.43393 26.4218 5.4839 26.3195 5.45058 26.2505L5.14359 25.7032C5.1079 25.6413 5.14359 25.5199 5.21499 25.4247C5.25544 25.3676 5.2959 25.3081 5.33159 25.2462C5.35443 25.201 5.38811 25.1621 5.42963 25.133C5.47116 25.104 5.51924 25.0856 5.56957 25.0797L6.17404 25.1106C6.21725 25.11 6.25886 25.0941 6.29152 25.0658C6.32418 25.0375 6.34579 24.9986 6.35252 24.9559L6.46675 24.3443C6.47314 24.3064 6.4662 24.2674 6.44711 24.234C6.42803 24.2006 6.39797 24.1748 6.36204 24.1611ZM4.65098 24.38C4.58052 24.7299 4.37678 25.0388 4.08281 25.2413C3.78883 25.4438 3.42764 25.5241 3.07556 25.4652C2.90262 25.4399 2.73653 25.38 2.58716 25.2892C2.4378 25.1985 2.3082 25.0786 2.20608 24.9367C2.10397 24.7949 2.03141 24.6339 1.99272 24.4635C1.95403 24.293 1.95 24.1165 1.98086 23.9445C2.05186 23.5944 2.25608 23.2855 2.55044 23.083C2.8448 22.8806 3.20629 22.8004 3.55866 22.8593C3.73054 22.8853 3.8955 22.9453 4.04389 23.0358C4.19228 23.1264 4.32112 23.2456 4.42284 23.3866C4.52457 23.5275 4.59715 23.6874 4.63632 23.8567C4.67549 24.0261 4.68048 24.2016 4.65098 24.3729V24.38Z" fill="#F0F0F0"/>
</svg>
