<svg width="112" height="56" viewBox="0 0 112 56" fill="none" xmlns="http://www.w3.org/2000/svg">
<path d="M89.1429 17.0401V13.5204L66.9038 0.669556L65.3546 1.56673C61.5469 3.76803 58.7435 5.31727 56.7564 5.29109C55.2524 5.26967 54.5052 4.39391 54.3219 3.64666C54.2629 3.40881 54.155 3.18587 54.005 2.99206C53.8551 2.79825 53.6663 2.63783 53.4509 2.52102C52.3086 1.85945 50.1502 2.04507 48.6366 2.91369C47.7394 3.43248 47.2682 4.07978 47.2682 4.65807V8.17776C47.2761 8.39668 47.3443 8.60918 47.4652 8.79184C47.5862 8.97449 47.7552 9.12022 47.9536 9.21296C48.558 9.52313 49.2237 9.69544 49.9027 9.71748C50.1821 9.73969 50.4602 9.77703 50.7356 9.82933C49.3958 10.7646 47.4753 11.8712 45.2335 13.161L44.5601 13.5513V17.071C46.9398 18.2609 48.9579 19.3008 50.3691 20.1956C50.1311 20.2385 49.8717 20.2694 49.629 20.2885C48.9516 20.3127 48.2878 20.4858 47.6847 20.7954C47.4869 20.8877 47.3184 21.0327 47.1975 21.2145C47.0766 21.3962 47.0081 21.6077 46.9993 21.8258V25.3598C46.9993 25.9381 47.4753 26.5854 48.3606 27.1018C49.8741 27.9752 52.0397 28.1536 53.1772 27.4968C53.3924 27.3797 53.5809 27.2191 53.7308 27.0254C53.8808 26.8316 53.9888 26.6089 54.0482 26.3712C54.2339 25.6239 54.9787 24.7458 56.4875 24.7268C58.715 24.6958 62.7535 27.1922 66.8586 29.9004L66.9086 29.8718C67.8343 29.3364 68.7006 28.82 69.5263 28.3155C72.7605 26.3736 75.1022 24.9671 76.8703 24.9838C78.3791 25.0004 79.1264 25.8833 79.3025 26.6282C79.3643 26.8655 79.4742 27.0876 79.6252 27.2808C79.7762 27.474 79.9653 27.6342 80.1806 27.7514C81.3229 28.4106 83.4766 28.2274 84.9949 27.3588C85.8945 26.84 86.3633 26.1903 86.3609 25.6096V22.0947C86.3507 21.8776 86.2811 21.6674 86.1599 21.487C86.0387 21.3066 85.8703 21.1629 85.6731 21.0714C85.0692 20.7619 84.4047 20.5889 83.7265 20.5645C83.5099 20.5455 83.2862 20.5193 83.0649 20.4836C83.905 19.9624 84.9568 19.3794 86.1586 18.7107C87.0677 18.2109 88.0791 17.6493 89.1429 17.0401Z" fill="#BA68C8"/>
<path opacity="0.2" d="M86.375 22.1065V25.6191C86.375 26.1998 85.8991 26.8471 85.0114 27.3659C83.4884 28.244 81.337 28.4225 80.1971 27.7585C79.9808 27.6431 79.7909 27.4838 79.6397 27.2908C79.4885 27.0978 79.3793 26.8753 79.319 26.6376C79.1405 25.8928 78.3933 25.0099 76.8845 24.9908C75.1163 24.967 72.7746 26.3735 69.5381 28.3225C68.7028 28.827 67.8365 29.3458 66.9203 29.8765L66.8704 29.9075V26.3806L66.9203 26.3497C67.8437 25.819 68.7099 25.2978 69.5381 24.7981C72.7746 22.8538 75.1163 21.4473 76.8845 21.4664C78.3933 21.483 79.1405 22.3636 79.319 23.1108C79.3803 23.3486 79.4899 23.5713 79.641 23.765C79.792 23.9586 79.9813 24.1191 80.1971 24.2364C81.337 24.8956 83.4884 24.7124 85.0114 23.839C85.9062 23.3297 86.375 22.6824 86.375 22.1065Z" fill="black"/>
<path opacity="0.2" d="M89.1454 13.5204V17.0401C88.0864 17.6493 87.0702 18.2109 86.1706 18.7059C84.9665 19.3723 83.9217 19.9529 83.0769 20.4765C81.9798 20.2956 80.9161 19.8768 80.8899 19.1533C80.8518 18.1348 82.9698 16.9615 86.173 15.1862C87.0702 14.6912 88.0792 14.1296 89.1454 13.5204Z" fill="black"/>
<path d="M89.4381 13.6892C88.3743 14.3032 87.3629 14.8648 86.461 15.3551C83.3673 17.0709 81.3159 18.2108 81.3111 19.1199V22.6681C81.3397 23.3821 82.6724 23.7485 83.8027 23.8414C84.1224 23.8659 84.4403 23.9096 84.7547 23.9722C84.8411 23.9334 84.9253 23.8897 85.0069 23.8414C85.9041 23.3249 86.3729 22.6776 86.3729 22.1017V25.6143C86.3729 26.195 85.897 26.8423 85.0093 27.361C83.4862 28.2392 81.3349 28.4177 80.195 27.7537C79.9787 27.6383 79.7888 27.479 79.6376 27.286C79.4864 27.093 79.3771 26.8705 79.3169 26.6328C79.2474 26.3537 79.1165 26.0935 78.9337 25.8713C78.5506 25.3953 77.8842 24.9979 76.8824 24.986C75.1142 24.9622 72.7725 26.3687 69.536 28.3177C68.7863 28.7699 68.0081 29.2363 67.1871 29.7099V30.0526L67.1443 30.0811C68.4198 30.7165 69.5978 31.3234 70.6854 31.8327C71.6373 32.2848 72.5226 32.6918 73.2698 33.0725C73.177 33.0844 73.0795 33.0916 72.989 33.1011C72.3087 33.1266 71.6421 33.2995 71.0352 33.608C70.8387 33.7008 70.6714 33.8457 70.5514 34.027C70.4314 34.2082 70.3633 34.4188 70.3546 34.636V38.1486C70.3546 38.7316 70.8115 39.3861 71.7135 39.9049C73.2341 40.783 75.3902 40.9567 76.5278 40.2975C76.7446 40.1816 76.935 40.0218 77.087 39.8285C77.239 39.6352 77.3492 39.4124 77.4107 39.1743C77.5868 38.4318 78.3293 37.5489 79.8428 37.5298C81.6038 37.5013 83.7575 38.9934 86.7442 41.0567C87.5533 41.6159 88.3933 42.1942 89.2786 42.7868L111.511 29.9503V26.4282L89.4381 13.6892Z" fill="#BA68C8"/>
<path opacity="0.4" d="M89.4381 13.6892C88.3743 14.3032 87.3629 14.8648 86.461 15.3551C83.3673 17.0709 81.3159 18.2108 81.3111 19.1199V22.6681C81.3397 23.3821 82.6724 23.7485 83.8027 23.8414C84.1224 23.8659 84.4403 23.9096 84.7547 23.9722C84.8411 23.9334 84.9253 23.8897 85.0069 23.8414C85.9041 23.3249 86.3729 22.6776 86.3729 22.1017V25.6143C86.3729 26.195 85.897 26.8423 85.0093 27.361C83.4862 28.2392 81.3349 28.4177 80.195 27.7537C79.9787 27.6383 79.7888 27.479 79.6376 27.286C79.4864 27.093 79.3771 26.8705 79.3169 26.6328C79.2474 26.3537 79.1165 26.0935 78.9337 25.8713C78.5506 25.3953 77.8842 24.9979 76.8824 24.986C75.1142 24.9622 72.7725 26.3687 69.536 28.3177C68.7863 28.7699 68.0081 29.2363 67.1871 29.7099V30.0526L67.1443 30.0811C68.4198 30.7165 69.5978 31.3234 70.6854 31.8327C71.6373 32.2848 72.5226 32.6918 73.2698 33.0725C73.177 33.0844 73.0795 33.0916 72.989 33.1011C72.3087 33.1266 71.6421 33.2995 71.0352 33.608C70.8387 33.7008 70.6714 33.8457 70.5514 34.027C70.4314 34.2082 70.3633 34.4188 70.3546 34.636V38.1486C70.3546 38.7316 70.8115 39.3861 71.7135 39.9049C73.2341 40.783 75.3902 40.9567 76.5278 40.2975C76.7446 40.1816 76.935 40.0218 77.087 39.8285C77.239 39.6352 77.3492 39.4124 77.4107 39.1743C77.5868 38.4318 78.3293 37.5489 79.8428 37.5298C81.6038 37.5013 83.7575 38.9934 86.7442 41.0567C87.5533 41.6159 88.3933 42.1942 89.2786 42.7868L111.511 29.9503V26.4282L89.4381 13.6892Z" fill="black"/>
<path d="M89.2737 39.2648V42.7845L111.503 29.9504V26.4307L89.2737 39.2648Z" fill="#BA68C8"/>
<path opacity="0.2" d="M89.2737 39.2648V42.7845L111.503 29.9504V26.4307L89.2737 39.2648Z" fill="black"/>
<path d="M86.4133 37.6918C83.6123 35.7547 81.4158 34.2268 79.8452 34.2506C78.5934 34.2506 77.9699 35.0312 77.8128 35.6785C77.7421 35.9459 77.6173 36.196 77.4463 36.4133C77.2752 36.6306 77.0614 36.8106 76.8181 36.9422C75.5473 37.6751 73.2175 37.5228 71.5421 36.6138C71.497 36.5936 71.4533 36.5706 71.4112 36.5447C71.0024 36.3207 70.6392 36.022 70.3403 35.6642V34.6266C70.3394 34.429 70.3965 34.2354 70.5045 34.0698C70.5625 33.9815 70.6321 33.9014 70.7116 33.8318C70.8057 33.7491 70.9077 33.6757 71.0162 33.6129C71.623 33.3044 72.2897 33.1314 72.97 33.106C73.0604 33.106 73.158 33.0893 73.2508 33.0774C74.0599 32.9846 74.9166 32.7657 75.3926 32.392V31.6781C75.3926 30.838 73.2936 29.8552 70.3951 28.5011C69.3099 27.9918 68.1033 27.3755 66.8254 26.7329C65.833 27.3064 64.893 27.8252 64.0577 28.2893C61.0497 29.9551 59.0602 31.0617 59.0602 31.966C59.0602 31.966 59.0602 34.8551 59.0602 35.4857V35.5072C59.0863 36.2211 60.419 36.5876 61.5518 36.678C62.0179 36.711 62.4795 36.7907 62.9297 36.916C61.2638 37.8227 58.9245 37.9774 57.6489 37.2396C57.4059 37.1093 57.1923 36.9302 57.0216 36.7136C56.8508 36.497 56.7266 36.2475 56.6566 35.9807C56.4971 35.3263 55.8736 34.5529 54.629 34.541C53.025 34.5219 50.5834 35.9807 47.4897 37.8298C46.6782 38.3058 45.8381 38.8246 44.9409 39.3386V42.8559L66.9991 55.602C67.901 55.0809 68.7435 54.5763 69.5574 54.0885C72.8391 52.1228 75.2189 50.7021 77.0061 50.7259C78.5077 50.7497 79.255 51.623 79.4358 52.3703C79.4952 52.6089 79.6038 52.8325 79.7546 53.0268C79.9054 53.221 80.0951 53.3816 80.3116 53.4983C81.4467 54.1527 83.6123 53.9743 85.1259 53.1009C86.0231 52.5845 86.4966 51.9348 86.4966 51.3565V47.8368C86.485 47.6191 86.4147 47.4087 86.2932 47.2277C86.1717 47.0467 86.0035 46.902 85.8065 46.8087C85.2015 46.5 84.5362 46.3278 83.8575 46.3042C83.6385 46.2852 83.4148 46.259 83.1911 46.2233C83.9931 45.7236 84.9902 45.1714 86.1254 44.5408C86.9821 44.0649 87.9364 43.5389 88.9502 42.9535V39.4338C88.0792 38.8317 87.2344 38.251 86.4133 37.6918Z" fill="#BA68C8"/>
<path opacity="0.2" d="M75.4186 31.6876V32.3849C74.9284 32.7585 74.0788 32.9775 73.2768 33.0703C73.184 33.0822 73.0864 33.0893 72.996 33.0988C72.3157 33.1243 71.6491 33.2973 71.0422 33.6057C70.9338 33.6686 70.8318 33.7419 70.7376 33.8247C70.6581 33.8943 70.5885 33.9743 70.5305 34.0626C70.4226 34.2282 70.3655 34.4218 70.3663 34.6195V35.6571C69.7143 34.8432 69.819 33.9651 70.7542 33.4225C71.1207 33.2107 71.799 32.9465 72.9436 32.8442C74.0883 32.7419 75.3877 32.4087 75.4186 31.6876Z" fill="black"/>
<path opacity="0.2" d="M86.4751 47.5488C86.5065 47.6416 86.5226 47.7388 86.5227 47.8367V51.3612C86.5227 51.9395 86.0467 52.5892 85.1519 53.1056C83.6384 53.9813 81.4728 54.1574 80.3376 53.503C80.1212 53.3863 79.9314 53.2257 79.7806 53.0315C79.6298 52.8372 79.5213 52.6136 79.4619 52.375C79.281 51.6277 78.5338 50.7544 77.0321 50.7306C75.2449 50.7068 72.8651 52.1275 69.5834 54.0932C68.7695 54.581 67.9176 55.0856 67.0251 55.6067V52.0847C67.9271 51.5659 68.7695 51.0613 69.5834 50.5711C72.8651 48.6078 75.2449 47.1871 77.0321 47.2109C78.5338 47.2323 79.281 48.108 79.4619 48.8553C79.5217 49.0938 79.6304 49.3172 79.7812 49.5114C79.9319 49.7056 80.1214 49.8663 80.3376 49.9833C81.4728 50.6377 83.6384 50.4593 85.1519 49.5859C86.2014 48.9814 86.6679 48.1961 86.4751 47.5488Z" fill="black"/>
<path opacity="0.2" d="M88.9763 39.4338V42.9464C87.9625 43.5318 87.0082 44.0649 86.1515 44.5337C85.0163 45.1644 84.0097 45.7236 83.2172 46.2162C82.1202 46.0353 81.0635 45.6165 81.0374 44.8907C80.9921 43.8745 83.0483 42.7489 86.1515 41.014C87.0082 40.55 87.9625 40.0193 88.9763 39.4338Z" fill="black"/>
<path d="M48.3606 23.5821C49.8741 24.4555 52.0397 24.6339 53.1772 23.9771C53.3927 23.8598 53.5815 23.699 53.7314 23.5048C53.8814 23.3106 53.9893 23.0873 54.0482 22.8491C54.2339 22.1042 54.9787 21.2261 56.4875 21.2071C58.715 21.1761 62.7535 23.6725 66.8586 26.3807L66.9086 26.3498C67.8343 25.8167 68.7005 25.3003 69.5263 24.7958C72.7605 22.8539 75.1022 21.4474 76.8703 21.4641C78.3791 21.4807 79.1264 22.3636 79.3025 23.1085C79.3643 23.3458 79.4741 23.5679 79.6252 23.7611C79.7762 23.9543 79.9652 24.1145 80.1806 24.2318C81.3229 24.891 83.4766 24.7077 84.9949 23.8367C86.5132 22.9657 86.8154 21.7211 85.6731 21.0619C85.0692 20.7524 84.4047 20.5794 83.7265 20.555C82.4366 20.4527 80.9088 20.0219 80.8707 19.1485C80.8279 18.1348 82.9507 16.9568 86.1539 15.1815C87.0486 14.6817 88.0577 14.1201 89.1238 13.5156L66.8848 0.664795L65.3355 1.56197C61.5279 3.76327 58.7245 5.31251 56.7374 5.28633C55.2334 5.26491 54.4861 4.38915 54.3029 3.6419C54.2439 3.40405 54.136 3.18112 53.986 2.98731C53.836 2.7935 53.6473 2.63307 53.4319 2.51626C52.2896 1.85468 50.1311 2.04031 48.6176 2.90893C47.104 3.77755 46.7923 5.02931 47.9346 5.68851C48.539 5.99868 49.2046 6.17099 49.8836 6.19302C51.1806 6.29773 52.6965 6.72848 52.7394 7.59947C52.7917 8.78936 49.6195 10.6289 45.224 13.1563L44.5505 13.5465C49.1935 15.893 52.5204 17.5922 52.4704 18.8796C52.4371 19.7506 50.9141 20.179 49.6147 20.2837C48.9373 20.308 48.2735 20.481 47.6704 20.7906C46.5472 21.4617 46.847 22.7182 48.3606 23.5821Z" fill="#FAFAFA"/>
<path d="M66.8991 1.12415L88.3671 13.518C87.765 13.8607 87.1772 14.1844 86.6203 14.4985L85.9849 14.865C82.5342 16.7688 80.4519 17.9302 80.5114 19.1843C80.5638 20.5979 82.9769 20.9001 83.7146 20.9572C84.3357 20.9778 84.9448 21.1337 85.4994 21.4142C85.6385 21.474 85.7584 21.5709 85.8462 21.6943C85.9339 21.8177 85.986 21.9628 85.9968 22.1138C85.9968 22.5636 85.547 23.1038 84.8212 23.5226C83.9544 24.0038 82.9806 24.2591 81.9892 24.2651C81.4362 24.2855 80.887 24.166 80.3924 23.9177C80.2225 23.8268 80.0732 23.702 79.9536 23.5509C79.8341 23.3998 79.7469 23.2258 79.6975 23.0396C79.4881 22.1567 78.629 21.1191 76.8941 21.0976H76.8442C74.9737 21.0976 72.6129 22.5255 69.3455 24.4769C68.415 25.0386 67.6249 25.505 66.8776 25.9381C62.9177 23.3251 58.8911 20.8145 56.5304 20.8145H56.4828C54.7598 20.8359 53.8936 21.8711 53.6746 22.7564C53.6264 22.9424 53.5402 23.1165 53.4215 23.2677C53.3027 23.4188 53.1539 23.5437 52.9845 23.6345C52.4898 23.8822 51.9405 24.0009 51.3877 23.9796C50.396 23.9747 49.4215 23.721 48.5533 23.2418C47.8394 22.823 47.3801 22.2899 47.3801 21.833C47.3905 21.6816 47.4424 21.5359 47.5301 21.4121C47.6179 21.2882 47.7381 21.191 47.8775 21.131C48.4315 20.8515 49.0398 20.6964 49.6599 20.6764C50.3977 20.6146 52.8131 20.3123 52.8655 18.9011C52.9178 17.4899 50.3382 16.0454 45.3692 13.53L45.4239 13.499C50.6737 10.4815 53.1915 8.97743 53.1344 7.5924C53.0821 6.17881 50.6713 5.87657 49.9336 5.81708C49.3117 5.79889 48.7014 5.64369 48.1464 5.36255C48.0073 5.30272 47.8874 5.20582 47.7996 5.08242C47.7119 4.95903 47.6598 4.8139 47.649 4.66289C47.649 4.21073 48.1012 3.67052 48.8389 3.2493C49.7057 2.76861 50.6797 2.51408 51.6708 2.50919C52.2239 2.48881 52.7731 2.60831 53.2677 2.85663C53.4377 2.94783 53.5869 3.07344 53.7057 3.22544C53.8245 3.37745 53.9104 3.55253 53.9578 3.73953C54.172 4.61767 55.0335 5.65525 56.7612 5.67905H56.8159C58.8602 5.67905 61.604 4.18455 65.5569 1.90234L66.9133 1.11701M66.9133 0.671997L65.3641 1.56918C61.5802 3.75381 58.8007 5.29353 56.8159 5.29353H56.766C55.2619 5.27211 54.5147 4.39635 54.3314 3.6491C54.2724 3.41125 54.1645 3.18832 54.0145 2.99451C53.8646 2.8007 53.6759 2.64027 53.4604 2.52347C52.9077 2.23991 52.2917 2.10229 51.6708 2.12366C50.6118 2.12766 49.5711 2.40032 48.6461 2.91613C47.1326 3.78951 46.8209 5.03651 47.9631 5.69571C48.5675 6.00588 49.2332 6.17819 49.9122 6.20022C51.2092 6.30494 52.7251 6.73568 52.7679 7.60668C52.8203 8.79657 49.648 10.6361 45.2526 13.1635L44.5791 13.5537C49.2221 15.9002 52.549 17.5994 52.499 18.8868C52.4657 19.7578 50.9426 20.1862 49.6433 20.2909C48.9658 20.3152 48.302 20.4882 47.699 20.7978C46.5615 21.4546 46.8613 22.7016 48.3748 23.575C49.2948 24.0944 50.3312 24.3727 51.3877 24.3841C52.008 24.4061 52.6238 24.2702 53.1772 23.9891C53.3927 23.8718 53.5815 23.7109 53.7314 23.5167C53.8814 23.3225 53.9893 23.0992 54.0482 22.8611C54.2339 22.1162 54.9787 21.2381 56.4875 21.219H56.5304C58.7673 21.219 62.7797 23.7011 66.8586 26.3927L66.9086 26.3617C67.8343 25.8286 68.7006 25.3122 69.5263 24.8077C72.7343 22.8825 75.0617 21.476 76.8251 21.476H76.8941C78.4029 21.4927 79.1502 22.3756 79.3263 23.1205C79.3881 23.3578 79.498 23.5799 79.649 23.7731C79.8 23.9662 79.989 24.1264 80.2044 24.2437C80.7571 24.5273 81.3731 24.6649 81.994 24.6435C83.0533 24.6395 84.0942 24.366 85.0187 23.8487C86.5322 22.9753 86.8392 21.733 85.6969 21.0739C85.093 20.7644 84.4285 20.5913 83.7503 20.567C82.4604 20.4646 80.9326 20.0339 80.8945 19.1605C80.8517 18.1467 82.9745 16.9687 86.1777 15.1934C87.0725 14.6937 88.0815 14.132 89.1476 13.5276L66.9086 0.676758L66.9133 0.671997Z" fill="#E0E0E0"/>
<path d="M89.4355 13.6892C88.3717 14.3032 87.3603 14.8648 86.4608 15.3551C83.3361 17.0875 81.2705 18.2322 81.3062 19.1437C81.3347 19.8576 82.6674 20.2241 83.8002 20.3145C84.5606 20.3448 85.3054 20.5405 85.9824 20.888C87.2866 21.6424 86.9796 23.0298 85.3042 24.0103C83.6288 24.9908 81.1991 25.1574 79.895 24.403C79.6527 24.2713 79.4399 24.0915 79.2697 23.8746C79.0994 23.6577 78.9753 23.4083 78.905 23.1417C78.7479 22.4873 78.1173 21.7138 76.8726 21.7138C75.2853 21.6924 72.8794 23.1417 69.8333 24.9622C68.9932 25.4691 68.1222 25.9951 67.1869 26.5329L67.1465 26.5567C68.4173 27.1945 69.5977 27.8013 70.6828 28.3106C73.698 29.717 75.8755 30.7332 75.8374 31.6922C75.7994 32.568 74.2763 32.9964 72.9817 33.0987C72.3026 33.124 71.6373 33.2978 71.0327 33.608C69.8951 34.2648 70.1974 35.5118 71.7109 36.3828C73.2244 37.2538 75.3877 37.4347 76.5252 36.7778C76.7406 36.6597 76.9298 36.4991 77.0812 36.3055C77.2326 36.112 77.343 35.8897 77.4057 35.6522C77.5818 34.9073 78.3267 34.0268 79.8402 34.0054C81.5989 33.9816 83.7526 35.4713 86.7416 37.537C87.5483 38.0939 88.3884 38.6698 89.2761 39.2623L111.506 26.4282L89.4355 13.6892Z" fill="#FAFAFA"/>
<path d="M89.4356 14.132L110.732 26.4283L89.288 38.8031C88.4384 38.232 87.6364 37.6823 86.9582 37.2135C83.9407 35.124 81.7608 33.6128 79.8855 33.6128H79.8379C78.103 33.6366 77.2439 34.6742 77.0369 35.55C76.9865 35.7373 76.8985 35.9125 76.7782 36.0647C76.6579 36.2169 76.5079 36.343 76.3373 36.4353C75.8425 36.6828 75.2933 36.8014 74.7404 36.7803C73.7457 36.7782 72.7676 36.5253 71.8966 36.045C71.1826 35.6285 70.7234 35.0931 70.7234 34.6361C70.7342 34.4851 70.7863 34.34 70.874 34.2166C70.9617 34.0932 71.0817 33.9963 71.2207 33.9365C71.7756 33.6543 72.3857 33.4975 73.0079 33.4772C73.7433 33.4177 76.1516 33.1202 76.2135 31.7043C76.2587 30.4882 74.2216 29.5387 70.8376 27.9561C70.0047 27.5658 69.1099 27.116 68.1651 26.6401L67.9461 26.5282C68.7029 26.0832 69.4216 25.6501 70.0237 25.2884C72.996 23.5035 75.3449 22.0947 76.8275 22.0947H76.8584C77.8865 22.1066 78.3981 22.7182 78.5243 23.2346C78.606 23.5525 78.7521 23.8501 78.9535 24.1092C79.1549 24.3683 79.4073 24.5834 79.6951 24.741C80.3967 25.1078 81.1813 25.2866 81.9726 25.2598C83.2034 25.2594 84.4138 24.9458 85.4899 24.3484C86.556 23.732 87.17 22.9205 87.17 22.0995C87.17 21.4807 86.813 20.9334 86.1681 20.5598C85.4419 20.1826 84.6417 19.9698 83.824 19.9363C82.5175 19.8315 81.6965 19.4389 81.6822 19.1343C81.6537 18.4608 84.062 17.1234 86.6155 15.7074L86.6369 15.6955C87.458 15.2409 88.4123 14.7126 89.426 14.1272M89.426 13.6846C88.3623 14.2986 87.3509 14.8602 86.4513 15.3504C83.3267 17.0829 81.261 18.2276 81.2967 19.139C81.3253 19.853 82.658 20.2194 83.7907 20.3099C84.5512 20.3402 85.2959 20.5359 85.973 20.8834C87.2771 21.6378 86.9701 23.0252 85.2947 24.0057C84.2749 24.5697 83.1285 24.8653 81.963 24.8648C81.239 24.8863 80.5214 24.7224 79.8784 24.3888C79.6361 24.2572 79.4233 24.0774 79.2531 23.8605C79.0828 23.6436 78.9587 23.3941 78.8884 23.1275C78.7313 22.4731 78.1007 21.6997 76.856 21.6997H76.8203C75.233 21.6997 72.8414 23.1275 69.8167 24.9481C68.9766 25.455 68.1056 25.9809 67.1703 26.5187L67.1299 26.5425C68.4007 27.1803 69.5811 27.7871 70.6662 28.2964C73.6814 29.7029 75.8589 30.719 75.8208 31.6781C75.7828 32.5538 74.2597 32.9822 72.9651 33.0845C72.286 33.1098 71.6207 33.2837 71.0161 33.5938C69.8785 34.2506 70.1808 35.4976 71.6943 36.3686C72.6278 36.8949 73.6807 37.1727 74.7523 37.1754C75.373 37.1978 75.9891 37.061 76.5419 36.778C76.7574 36.6599 76.9465 36.4992 77.0979 36.3057C77.2493 36.1121 77.3597 35.8899 77.4224 35.6523C77.5985 34.9074 78.3434 34.0269 79.8569 34.0055H79.8974C81.6489 34.0055 83.7931 35.4881 86.7512 37.5371C87.5579 38.094 88.398 38.6699 89.2856 39.2624L111.515 26.4283L89.4356 13.6893L89.426 13.6846Z" fill="#E0E0E0"/>
<path d="M75.4186 31.6876C75.4472 30.8451 73.3387 29.8599 70.4211 28.4963C69.3359 27.987 68.127 27.3706 66.8514 26.7257C65.8567 27.2992 64.9143 27.8228 64.079 28.2845C61.0472 29.9646 59.0505 31.0736 59.0815 31.9826C59.11 32.6966 60.4427 33.0631 61.5755 33.1535C62.3362 33.1819 63.0813 33.3777 63.7577 33.727C65.0618 34.4814 64.7549 35.8807 63.0795 36.8469C61.4041 37.8131 58.9791 37.9916 57.675 37.2396C57.432 37.1082 57.2185 36.9285 57.0474 36.7116C56.8763 36.4948 56.7514 36.2452 56.6803 35.9783C56.5232 35.3262 55.8973 34.5504 54.6527 34.5504C53.0463 34.529 50.6071 35.9783 47.5133 37.8393C46.7018 38.3152 45.8618 38.8293 44.9646 39.3481L67.0228 52.0942C67.9247 51.573 68.7695 51.0685 69.581 50.5782C72.8628 48.6149 75.2402 47.1942 77.0274 47.218C78.5314 47.2394 79.2787 48.1152 79.4619 48.8624C79.5209 49.1003 79.6288 49.3232 79.7788 49.517C79.9288 49.7108 80.1175 49.8713 80.3329 49.9881C81.4704 50.6449 83.6336 50.464 85.1472 49.5954C86.6607 48.7268 86.9677 47.4726 85.8302 46.8158C85.2258 46.5056 84.5601 46.3333 83.8811 46.3113C82.5865 46.2066 81.0682 45.7759 81.0254 44.9049C80.9778 43.8911 83.0363 42.7511 86.1419 41.0282C86.9963 40.5522 87.9529 40.0263 88.9644 39.4409C88.0624 38.8412 87.2224 38.251 86.4109 37.6989C83.6122 35.7617 81.4014 34.2339 79.8403 34.2553C78.5933 34.2672 77.965 35.0383 77.8079 35.6832C77.7384 35.9514 77.6142 36.2024 77.443 36.4203C77.2718 36.6381 77.0574 36.8182 76.8132 36.9492C75.5138 37.6989 73.0912 37.5228 71.4111 36.5518C69.731 35.5809 69.4287 34.1863 70.7281 33.4343C71.0946 33.2225 71.7728 32.9583 72.9151 32.8584C74.0574 32.7584 75.3877 32.4086 75.4186 31.6876Z" fill="#FAFAFA"/>
<path d="M66.8658 27.1636L67.1252 27.2945C68.2389 27.8585 69.2908 28.3916 70.257 28.8438C71.7039 29.5196 72.9533 30.1051 73.8266 30.6191C74.9546 31.2831 75.0356 31.5948 75.0332 31.671C75.0189 31.9756 74.1979 32.3706 72.8914 32.4753C72.0721 32.5095 71.2702 32.7232 70.5425 33.1012C69.8976 33.4724 69.5454 34.0174 69.5454 34.6362C69.5454 35.45 70.157 36.2687 71.2255 36.8874C72.3044 37.4864 73.5184 37.8001 74.7524 37.7989C75.5411 37.8259 76.3233 37.648 77.0227 37.2825C77.3123 37.126 77.5664 36.9111 77.7687 36.6514C77.9711 36.3917 78.1174 36.0928 78.1983 35.7737C78.3244 35.2549 78.8361 34.6433 79.8641 34.6338H79.8903C81.3301 34.6338 83.5909 36.1973 86.2086 38.0083L86.4276 38.1606C87.0154 38.5652 87.6175 38.9816 88.2505 39.4076C87.4271 39.8836 86.6513 40.3096 85.9707 40.6856H85.954C82.6223 42.537 80.5995 43.6555 80.6566 44.9025C80.709 46.3161 83.1197 46.6184 83.8574 46.6778C84.4793 46.696 85.0896 46.8512 85.6446 47.1324C85.7834 47.1923 85.903 47.2893 85.9903 47.4127C86.0776 47.5361 86.1293 47.6812 86.1396 47.832C86.1396 48.2842 85.6898 48.8268 84.9616 49.2456C84.0943 49.7247 83.1205 49.9784 82.1297 49.9834C81.5768 50.005 81.0275 49.8863 80.5329 49.6383C80.3628 49.5471 80.2137 49.4215 80.0949 49.2695C79.976 49.1175 79.8902 48.9424 79.8427 48.7554C79.6285 47.8773 78.7671 46.8397 77.0393 46.8159H76.9894C75.0974 46.8159 72.7058 48.2437 69.3883 50.2332C68.5031 50.7687 67.7463 51.2161 67.03 51.6326L45.7405 39.3291C46.2759 39.0173 46.79 38.708 47.2921 38.4081L47.7228 38.1487L47.7538 38.1321C50.757 36.3353 53.1321 34.9146 54.6266 34.9146H54.6575C55.6808 34.9289 56.1901 35.5405 56.3234 36.0593C56.4055 36.3772 56.5523 36.6749 56.7546 36.9337C56.9569 37.1924 57.2102 37.4067 57.499 37.5633C58.1947 37.9306 58.9733 38.1126 59.7598 38.0916C60.9892 38.0926 62.1985 37.7788 63.2723 37.1801C64.3385 36.5662 64.9501 35.7523 64.9501 34.9313C64.9501 34.3125 64.5955 33.7675 63.9505 33.3939C63.2248 33.0156 62.4243 32.8027 61.6065 32.7704C60.3 32.6657 59.4789 32.2707 59.4647 31.9684C59.4409 31.2926 61.7826 29.9956 64.2599 28.6201C65.0238 28.2012 65.9067 27.711 66.8586 27.1636M66.8467 26.7258C65.852 27.2993 64.9096 27.8229 64.0743 28.2845C61.0425 29.9647 59.0458 31.0736 59.0768 31.9827C59.1053 32.6966 60.438 33.0631 61.5708 33.1536C62.3315 33.1819 63.0766 33.3778 63.753 33.7271C65.0571 34.4815 64.7502 35.8808 63.0748 36.847C62.0607 37.4109 60.9201 37.7081 59.7598 37.7108C59.0357 37.7323 58.3181 37.5685 57.6751 37.2349C57.4321 37.1035 57.2185 36.9238 57.0475 36.707C56.8764 36.4901 56.7515 36.2405 56.6803 35.9736C56.5233 35.3215 55.8974 34.5457 54.6527 34.5457H54.6171C53.0107 34.5457 50.5857 35.9998 47.5158 37.837C46.7043 38.3129 45.8642 38.827 44.967 39.3457L67.0252 52.0918C67.9272 51.5707 68.772 51.0662 69.5835 50.5759C72.839 48.6293 75.2022 47.2157 76.9846 47.2157H77.0298C78.5338 47.2371 79.2811 48.1129 79.4643 48.8601C79.5233 49.098 79.6313 49.3209 79.7812 49.5147C79.9312 49.7085 80.1199 49.8689 80.3353 49.9857C80.8882 50.2688 81.5043 50.4056 82.1249 50.3832C83.1837 50.3792 84.2242 50.1074 85.1496 49.5931C86.6632 48.7197 86.9702 47.4703 85.8326 46.8135C85.2282 46.5033 84.5626 46.331 83.8836 46.309C82.589 46.2043 81.0707 45.7735 81.0279 44.9025C80.9803 43.8887 83.0388 42.7488 86.1444 41.0259C86.9987 40.5499 87.9554 40.024 88.9668 39.4386C88.0649 38.8389 87.2248 38.2487 86.4133 37.6966C83.6337 35.7713 81.4348 34.253 79.876 34.253H79.8427C78.5957 34.2649 77.9675 35.036 77.8104 35.6809C77.7409 35.9491 77.6166 36.2001 77.4454 36.4179C77.2742 36.6358 77.0598 36.8159 76.8156 36.9469C76.1742 37.2767 75.4589 37.4365 74.7381 37.411C73.5724 37.4115 72.4257 37.115 71.4064 36.5495C69.7287 35.5833 69.424 34.184 70.7234 33.432C71.0899 33.2202 71.7681 32.956 72.9104 32.8561C74.0527 32.7561 75.3711 32.4063 75.4021 31.6852C75.4306 30.8428 73.3221 29.8576 70.4045 28.4939C69.3193 27.9847 68.1104 27.3683 66.8348 26.7234L66.8467 26.7258Z" fill="#E0E0E0"/>
<path d="M44.5577 30.6214V27.1017C40.7001 24.5625 36.5545 21.9709 34.4841 21.997C33.2347 22.0113 32.6136 22.7776 32.4541 23.4249C32.383 23.6921 32.2578 23.9419 32.0863 24.1589C31.9148 24.3758 31.7006 24.5553 31.457 24.6862C30.1886 25.4192 27.8564 25.2692 26.1834 24.3602C26.6333 24.2337 27.0951 24.154 27.5613 24.1222C28.6893 24.0318 30.022 23.67 30.0506 22.9537V22.9275C30.0506 22.3112 30.0506 19.4174 30.0506 19.4102C30.0506 18.2394 26.6308 16.4855 22.2496 14.2747L20.629 15.2123C16.8214 17.4136 14.018 18.9581 12.0356 18.9343C10.5221 18.9105 9.78435 18.0395 9.60349 17.2922C9.54034 17.0545 9.42951 16.8322 9.27773 16.6387C9.12595 16.4452 8.93639 16.2845 8.72059 16.1666C7.58305 15.5098 5.42935 15.6906 3.91581 16.5616C3.01388 17.0828 2.5403 17.7325 2.54268 18.3108C2.54268 18.7082 2.54268 21.2498 2.54268 21.8305C2.55185 22.0481 2.62061 22.2591 2.74147 22.4404C2.86233 22.6217 3.03064 22.7663 3.22806 22.8585C3.83375 23.1682 4.4997 23.342 5.17948 23.3678C5.47427 23.3902 5.76749 23.43 6.05762 23.4868C4.92246 24.265 3.33991 25.1764 1.39087 26.2973L0.400879 26.8685V30.3882C3.91105 32.6989 7.42599 34.786 9.61301 34.7574C10.8576 34.7408 11.4835 33.9721 11.6358 33.3296C11.7078 33.0624 11.8335 32.8127 12.0054 32.5958C12.1773 32.3789 12.3916 32.1994 12.6353 32.0683C13.9038 31.3353 16.2383 31.4876 17.9065 32.3943C17.4575 32.521 16.9965 32.6007 16.531 32.6323C15.3983 32.7227 14.0727 33.0868 14.0465 33.8031V37.3466C14.0465 38.4199 17.4925 40.3523 21.4691 42.5821C21.8546 42.8011 22.2639 43.02 22.659 43.2461C23.549 42.7249 24.3938 42.2204 25.2077 41.7373C28.4894 39.7716 30.8621 38.3485 32.6493 38.3723C34.1533 38.3937 34.9053 39.2719 35.0814 40.0191C35.1412 40.2569 35.2497 40.4798 35.4001 40.6735C35.5504 40.8673 35.7393 41.0277 35.9548 41.1448C37.0971 41.804 39.2555 41.6207 40.7691 40.7497C41.6782 40.2262 42.1517 39.5598 42.1422 38.9815C42.1422 38.5913 42.1422 36.0544 42.1422 35.4714C42.1298 35.2548 42.0591 35.0456 41.9376 34.8659C41.8162 34.6862 41.6484 34.5427 41.4521 34.4504C40.8475 34.1406 40.182 33.9684 39.503 33.9459C39.2841 33.9293 39.058 33.9007 38.8367 33.865C39.6411 33.3676 40.6382 32.8155 41.7781 32.1849C42.6253 31.7137 43.5606 31.1925 44.5577 30.6214Z" fill="#BA68C8"/>
<path d="M14.0465 33.7962C13.9989 34.8647 17.4638 36.809 21.469 39.0579C21.8545 39.2768 22.2639 39.4958 22.6589 39.7218C23.5489 39.2007 24.3938 38.6961 25.2076 38.213C28.4894 36.2473 30.862 34.8242 32.6492 34.848C34.1532 34.8695 34.9053 35.7476 35.0814 36.4948C35.1412 36.7327 35.2497 36.9555 35.4 37.1493C35.5503 37.343 35.7392 37.5035 35.9547 37.6205C37.097 38.2797 39.2555 38.0964 40.769 37.2254C42.2826 36.3544 42.5943 35.1051 41.452 34.4459C40.8475 34.1361 40.1819 33.9638 39.503 33.9413C38.2108 33.839 36.6877 33.4059 36.6473 32.5349C36.5997 31.5211 38.6558 30.3812 41.7685 28.6606C42.6038 28.1847 43.5462 27.673 44.5434 27.1019C40.6857 24.5626 36.5402 21.971 34.4697 21.9972C33.2204 22.0115 32.5992 22.7778 32.4398 23.4251C32.3686 23.6923 32.2434 23.9421 32.0719 24.1591C31.9004 24.376 31.6863 24.5555 31.4427 24.6864C30.1409 25.4384 27.7231 25.2623 26.043 24.2937C24.3628 23.3251 24.0606 21.9258 25.36 21.1762C25.7264 20.9644 26.3999 20.7002 27.547 20.6003C28.694 20.5003 30.0077 20.1481 30.0362 19.4318C30.0814 18.261 26.645 16.4976 22.2353 14.2725L20.6147 15.2101C16.807 17.4114 14.0036 18.9559 12.0213 18.9321C10.522 18.9106 9.78429 18.0397 9.60343 17.2924C9.54029 17.0547 9.42945 16.8324 9.27767 16.6388C9.12589 16.4453 8.93633 16.2847 8.72053 16.1668C7.583 15.5099 5.4293 15.6908 3.91575 16.5618C2.40221 17.4328 2.09046 18.6727 3.228 19.339C3.83369 19.6487 4.49965 19.8225 5.17942 19.8483C6.46926 19.9506 7.99232 20.379 8.03515 21.2524C8.08751 22.4422 5.56732 23.9011 1.39795 26.2975L0.407959 26.8686C3.91813 29.1794 7.43307 31.2665 9.62009 31.2379C10.8647 31.2213 11.4906 30.4526 11.6429 29.81C11.715 29.5426 11.8407 29.2926 12.0126 29.0753C12.1844 28.8581 12.3987 28.6781 12.6424 28.5464C13.9418 27.7967 16.3644 27.9729 18.0421 28.9414C19.7199 29.91 20.0245 31.3093 18.7227 32.0589C18.3563 32.2707 17.6828 32.5349 16.5381 32.6348C15.3934 32.7348 14.0679 33.0799 14.0465 33.7962Z" fill="#FAFAFA"/>
<path d="M22.2615 14.7174C24.4913 15.8431 26.3071 16.7735 27.6184 17.5732C29.4865 18.7226 29.6721 19.239 29.665 19.4127C29.665 19.7173 28.8344 20.11 27.5232 20.2123C26.3071 20.3123 25.5741 20.6098 25.1743 20.8406C24.5318 21.2118 24.1772 21.7568 24.1772 22.3732C24.1772 23.1871 24.7888 24.0081 25.8573 24.6244C26.9309 25.2218 28.139 25.5355 29.3675 25.5359C30.158 25.5627 30.9419 25.3839 31.6426 25.0171C31.9334 24.8614 32.1892 24.6475 32.3939 24.3888C32.5985 24.13 32.7478 23.832 32.8325 23.5131C32.9634 22.9681 33.4679 22.3851 34.4983 22.3732H34.5245C36.5592 22.3732 41.0689 25.2575 43.8294 27.0685C43.1869 27.4326 42.5705 27.7824 42.0089 28.0894L41.6043 28.3155C38.2512 30.1693 36.2284 31.2902 36.2855 32.5396C36.3284 33.6676 37.9656 34.2054 39.4863 34.3173C40.1079 34.3358 40.7179 34.4902 41.2735 34.7694C41.4126 34.8293 41.5326 34.9262 41.6203 35.0496C41.708 35.173 41.7601 35.3181 41.7709 35.4691C41.7709 35.9213 41.3188 36.4615 40.581 36.8827C39.7142 37.3634 38.7403 37.6179 37.7491 37.6228C37.1961 37.6432 36.6468 37.5237 36.1523 37.2754C35.9825 37.1844 35.8335 37.0592 35.7147 36.9076C35.5959 36.756 35.5099 36.5814 35.4621 36.3948C35.2527 35.5143 34.3936 34.4767 32.6587 34.4529H32.6088C30.7264 34.4529 28.3418 35.8808 25.0434 37.8536L25.0149 37.8727C24.2296 38.3486 23.4585 38.8008 22.6589 39.2672L22.2353 39.0293L21.6594 38.708C19.677 37.5966 17.8042 36.5448 16.4501 35.65C14.5462 34.3958 14.4249 33.9175 14.432 33.7985C14.432 33.4939 15.2602 33.0988 16.5738 32.9941C17.7899 32.8966 18.5205 32.5991 18.9203 32.3682C19.5652 31.997 19.9198 31.452 19.9198 30.8333C19.9198 30.0218 19.3082 29.2008 18.2397 28.5844C17.1651 27.9874 15.9563 27.6737 14.7271 27.6729C13.9377 27.6463 13.1548 27.8242 12.4544 28.1894C12.1632 28.3458 11.9073 28.5605 11.7026 28.8201C11.4979 29.0796 11.3488 29.3785 11.2645 29.6981C11.1431 30.2145 10.6363 30.8238 9.61057 30.838H9.56773C7.55682 30.838 4.22989 28.889 1.13855 26.8733L1.58357 26.6163C6.029 24.0628 8.48493 22.654 8.41592 21.2214C8.34691 19.7887 5.94809 19.5079 5.21274 19.4508C4.59015 19.428 3.97977 19.2713 3.42314 18.9915C3.2847 18.9317 3.16532 18.8351 3.07803 18.7122C2.99074 18.5892 2.9389 18.4446 2.92815 18.2942C2.92815 17.8445 3.38268 17.3019 4.11804 16.8806C4.98006 16.4091 5.94598 16.1596 6.92856 16.1548C7.48009 16.1341 8.02787 16.2536 8.52063 16.5023C8.69078 16.594 8.84053 16.7194 8.9608 16.8707C9.08107 17.0221 9.16934 17.1963 9.22029 17.3828C9.42971 18.2633 10.2888 19.3009 12.0237 19.3247H12.0736C14.1226 19.3247 16.8641 17.8302 20.8146 15.5503L22.2543 14.7174M22.2424 14.2795L20.6218 15.2172C16.8356 17.4018 14.0536 18.9391 12.0736 18.9391H12.0284C10.522 18.9106 9.78429 18.0396 9.60343 17.2923C9.54029 17.0547 9.42945 16.8323 9.27767 16.6388C9.12589 16.4453 8.93634 16.2847 8.72053 16.1667C8.16879 15.8856 7.55454 15.7496 6.9357 15.7717C5.87841 15.7752 4.83932 16.0471 3.91576 16.5617C2.40697 17.4375 2.09046 18.6726 3.228 19.3389C3.83369 19.6486 4.49965 19.8224 5.17942 19.8482C6.46926 19.9506 7.99232 20.3789 8.03516 21.2523C8.08751 22.4422 5.56732 23.901 1.39795 26.2974L0.407959 26.8686C3.89434 29.1627 7.3831 31.2378 9.57249 31.2378H9.62009C10.8647 31.2212 11.4906 30.4525 11.6429 29.81C11.715 29.5425 11.8407 29.2925 12.0126 29.0753C12.1844 28.858 12.3987 28.678 12.6424 28.5463C13.2851 28.2176 14.0009 28.0579 14.7223 28.0823C15.8878 28.0812 17.0344 28.3769 18.054 28.9414C19.7342 29.9123 20.0364 31.3092 18.7346 32.0589C18.3682 32.2707 17.6947 32.5348 16.55 32.6348C15.4053 32.7347 14.0679 33.0798 14.0465 33.7961C13.9989 34.8646 17.4638 36.8089 21.469 39.0578C21.8545 39.2768 22.2639 39.4957 22.6589 39.7218C23.5489 39.2006 24.3938 38.6961 25.2076 38.213C28.4656 36.2639 30.8263 34.8551 32.6088 34.8551H32.654C34.158 34.8765 34.91 35.7547 35.0861 36.5019C35.1459 36.7398 35.2544 36.9626 35.4048 37.1563C35.5551 37.3501 35.744 37.5105 35.9595 37.6276C36.5128 37.9092 37.1286 38.0459 37.7491 38.025C38.8079 38.0217 39.8486 37.7499 40.7738 37.2349C42.2873 36.3615 42.5991 35.1145 41.4568 34.4553C40.8522 34.1455 40.1867 33.9732 39.5077 33.9508C38.2155 33.8485 36.6925 33.4154 36.652 32.5444C36.6044 31.5306 38.6605 30.3907 41.7733 28.6701C42.6086 28.1941 43.551 27.6825 44.5481 27.1113C40.7214 24.5768 36.5973 22.0043 34.515 22.0043H34.484C33.2346 22.0186 32.6135 22.7849 32.4541 23.4322C32.3829 23.6994 32.2577 23.9492 32.0862 24.1661C31.9147 24.3831 31.7005 24.5625 31.457 24.6935C30.8148 25.0271 30.098 25.1909 29.3746 25.1694C28.214 25.1681 27.0726 24.8725 26.0572 24.3103C24.3914 23.3417 24.0749 21.9424 25.3742 21.1928C25.7407 20.981 26.4142 20.7168 27.5613 20.6169C28.7083 20.5169 30.0219 20.1647 30.0505 19.4484C30.0957 18.2776 26.6593 16.5141 22.2496 14.2891L22.2424 14.2795Z" fill="#E0E0E0"/>
<path opacity="0.2" d="M42.1493 38.9793C42.1612 39.5647 41.6877 40.2191 40.7786 40.7474C39.265 41.6184 37.1066 41.7993 35.9643 41.1401C35.7489 41.0233 35.5601 40.8629 35.4102 40.6691C35.2602 40.4752 35.1523 40.2523 35.0933 40.0145C34.9172 39.2672 34.1652 38.3891 32.6588 38.3677C30.8716 38.3439 28.4989 39.7693 25.2172 41.7327C24.4747 42.1753 23.7005 42.6338 22.8945 43.1082L22.6685 42.9273V39.7218C23.5585 39.203 24.4057 38.6984 25.2172 38.213C28.4989 36.2473 30.8716 34.8242 32.6588 34.8456C34.1652 34.8694 34.9172 35.7475 35.0933 36.4948C35.1526 36.7325 35.2606 36.9553 35.4105 37.1491C35.5605 37.3429 35.749 37.5034 35.9643 37.6204C37.1066 38.2772 39.265 38.0964 40.7786 37.2277C41.6758 36.7066 42.1493 36.0593 42.1493 35.4786C42.1493 36.0831 42.1493 38.589 42.1493 38.9793Z" fill="black"/>
<path opacity="0.2" d="M44.5601 27.1018V30.6215C43.5629 31.1903 42.6182 31.7162 41.7828 32.1803C40.6429 32.8133 39.641 33.3701 38.8391 33.8604C37.742 33.6843 36.6973 33.2607 36.6592 32.5348C36.614 31.5234 38.6701 30.393 41.7828 28.6606C42.6253 28.1917 43.5629 27.6706 44.5601 27.1018Z" fill="black"/>
</svg>
