<svg width="38" height="17" viewBox="0 0 38 17" fill="none" xmlns="http://www.w3.org/2000/svg">
<path d="M9.78809 12.582H9.70242L7.56062 12.3797C7.44656 12.3699 7.33574 12.3368 7.23503 12.2823C7.13432 12.2279 7.04588 12.1533 6.9752 12.0632C6.90236 11.9725 6.84875 11.8679 6.81766 11.7558C6.78656 11.6437 6.77863 11.5264 6.79433 11.4112L6.89904 10.6187C6.58987 10.5261 6.28634 10.4157 5.98997 10.2879C5.91367 10.2607 5.83298 10.2477 5.75199 10.2498C5.70869 10.2485 5.66543 10.2533 5.62348 10.2641L3.95763 10.8138C3.84676 10.8487 3.73118 10.8664 3.61495 10.8662C3.33272 10.8689 3.05808 10.7748 2.83676 10.5997L1.75396 9.69059C1.65714 9.61415 1.58112 9.51458 1.53288 9.40104C1.48464 9.28751 1.46573 9.16366 1.4779 9.04091C1.49311 8.91666 1.53948 8.79828 1.61271 8.69676C1.68594 8.59524 1.78364 8.51388 1.89674 8.46024L3.18897 7.79153C3.13733 7.67182 3.09438 7.54854 3.06046 7.42266C3.04747 7.38537 3.02233 7.35352 2.98906 7.33223L1.14235 7.03476C1.02668 7.01674 0.916225 6.97405 0.818499 6.90958C0.720773 6.84512 0.638059 6.76038 0.575968 6.66113C0.514872 6.55859 0.476462 6.44415 0.463326 6.32551C0.45019 6.20687 0.462632 6.0868 0.499815 5.97338L0.806805 5.02147C0.874385 4.82138 1.00208 4.64703 1.17245 4.52223C1.34283 4.39744 1.54757 4.32827 1.75872 4.32419L3.74107 4.38131C3.84242 4.36533 3.93679 4.31979 4.01237 4.25041C4.14268 4.11471 4.28011 3.98602 4.42407 3.86489L3.76487 3.15096C3.67967 3.06322 3.61714 2.95603 3.58272 2.83868C3.5483 2.72132 3.54303 2.59734 3.56735 2.47748C3.59668 2.35604 3.65543 2.24367 3.73843 2.15029C3.82143 2.05691 3.92614 1.98539 4.04331 1.94203L5.76627 1.2281C5.90849 1.17099 6.06041 1.1419 6.21367 1.14242C6.45448 1.13894 6.69106 1.20594 6.89428 1.33518L8.03658 2.09671C8.12183 2.13811 8.21548 2.15928 8.31025 2.15859H8.36499C8.74575 2.0872 9.13365 2.03246 9.52394 1.99914C9.59107 1.98155 9.65048 1.94222 9.6929 1.88729L10.1284 1.04009C10.2221 0.868596 10.3595 0.724968 10.5267 0.623812C10.6939 0.522656 10.8849 0.467577 11.0803 0.464182C11.1088 0.461809 11.1375 0.461809 11.166 0.464182L13.3078 0.66409C13.4217 0.674462 13.5323 0.707858 13.633 0.762265C13.7336 0.816671 13.8221 0.890952 13.8932 0.980597C13.9661 1.07174 14.0197 1.17675 14.0508 1.28925C14.0819 1.40175 14.0898 1.51939 14.0741 1.63504L13.9694 2.42513C14.2782 2.51956 14.5817 2.63078 14.8784 2.75829C14.9552 2.78331 15.0357 2.79537 15.1164 2.79399C15.1597 2.79531 15.203 2.79051 15.2449 2.77971L16.9108 2.22998C17.0217 2.19509 17.1372 2.17743 17.2535 2.17763C17.5357 2.17495 17.8103 2.26901 18.0317 2.44416L19.1145 3.35562C19.2118 3.43162 19.2882 3.53112 19.3365 3.64477C19.3848 3.75842 19.4034 3.88248 19.3905 4.0053C19.3749 4.12881 19.3287 4.24646 19.2559 4.34748C19.1832 4.4485 19.0863 4.52968 18.974 4.58359L17.6794 5.25231C17.7311 5.37202 17.774 5.49529 17.808 5.62117C17.8211 5.65838 17.8462 5.69018 17.8793 5.7116L19.7261 6.00907C19.8432 6.02668 19.955 6.06985 20.0535 6.13552C20.1521 6.20119 20.2349 6.28776 20.2963 6.38906C20.3576 6.49037 20.3959 6.60393 20.4084 6.72169C20.4209 6.83946 20.4073 6.95853 20.3686 7.07045L20.0616 8.03427C19.9941 8.23461 19.8665 8.40927 19.6962 8.53447C19.5258 8.65967 19.321 8.72932 19.1097 8.73392L17.125 8.67442C17.0234 8.69134 16.9291 8.73769 16.8537 8.8077C16.7233 8.94258 16.5859 9.07047 16.442 9.19084L17.1012 9.90477C17.1871 9.99204 17.2501 10.0992 17.2845 10.2167C17.319 10.3342 17.3239 10.4584 17.2987 10.5782C17.2694 10.6997 17.2106 10.8121 17.1276 10.9054C17.0446 10.9988 16.9399 11.0703 16.8227 11.1137L15.1021 11.8276C14.9595 11.8861 14.8065 11.9153 14.6524 11.9133C14.412 11.9161 14.1758 11.8501 13.9717 11.7229L12.8295 10.959C12.7439 10.9185 12.6504 10.8974 12.5558 10.8971C12.5376 10.8947 12.5192 10.8947 12.501 10.8971C12.125 10.9662 11.7348 11.0209 11.3421 11.0566C11.2756 11.0742 11.2164 11.1125 11.1731 11.1661L10.7376 12.0133C10.643 12.1829 10.5055 12.3248 10.3389 12.4246C10.1723 12.5244 9.98231 12.5787 9.78809 12.582ZM10.5377 4.60976C9.7745 4.60297 9.0172 4.74441 8.30787 5.02622C7.46781 5.37605 6.91808 5.90674 6.83479 6.4422C6.76102 6.91815 7.07277 7.31081 7.3631 7.54879C8.01754 8.09852 9.12414 8.42693 10.3212 8.42693C11.0847 8.43412 11.8422 8.29183 12.551 8.00809C13.3911 7.65826 13.9432 7.12995 14.0241 6.59212C14.0979 6.11616 13.7861 5.7235 13.4958 5.48552C12.8414 4.93341 11.7348 4.60976 10.5377 4.60976Z" fill="#E0E0E0"/>
<path d="M29.1309 16.2517H29.0476L27.4246 16.0994C27.3151 16.0885 27.2088 16.056 27.112 16.0037C27.0152 15.9514 26.9297 15.8804 26.8605 15.7948C26.7909 15.7061 26.7397 15.6045 26.7099 15.4958C26.6801 15.3871 26.6722 15.2735 26.6868 15.1618L26.7463 14.712C26.5512 14.6477 26.3632 14.5764 26.1847 14.4978C26.1491 14.4942 26.1132 14.4942 26.0776 14.4978H26.03L24.7663 14.9143C24.6638 14.9459 24.5571 14.9619 24.4498 14.9619C24.1913 14.9686 23.9387 14.8844 23.7359 14.7239L22.9149 14.0338C22.8175 13.9569 22.7414 13.8565 22.6937 13.742C22.646 13.6275 22.6283 13.5027 22.6424 13.3795C22.6565 13.2562 22.7018 13.1387 22.774 13.0378C22.8463 12.937 22.9431 12.8563 23.0553 12.8034L23.893 12.3679L23.8644 12.2727L22.5389 12.0585C22.4252 12.0411 22.3166 11.9991 22.2209 11.9354C22.1251 11.8717 22.0444 11.7878 21.9844 11.6897C21.9242 11.5903 21.886 11.4792 21.8725 11.3638C21.8589 11.2485 21.8703 11.1316 21.9058 11.021L22.1438 10.288C22.2059 10.0991 22.3256 9.93445 22.4861 9.81708C22.6466 9.69971 22.8398 9.63552 23.0386 9.63355L24.5498 9.67639C24.5498 9.67639 24.6021 9.64783 24.6212 9.63117C24.6783 9.5693 24.7402 9.5098 24.8044 9.45031L24.4284 9.04575C24.3426 8.95796 24.2801 8.85014 24.2465 8.73207C24.2128 8.61401 24.2092 8.48942 24.2359 8.3696C24.2626 8.24978 24.3188 8.13853 24.3994 8.04591C24.48 7.95329 24.5824 7.88224 24.6973 7.8392L26.0038 7.29661C26.1336 7.2432 26.2728 7.21649 26.4131 7.21807C26.6315 7.21482 26.8459 7.27608 27.0295 7.39418L27.8981 7.97247C27.933 7.98258 27.969 7.98818 28.0052 7.98913C28.3027 7.93439 28.6002 7.89393 28.9 7.86775L29.2213 7.24425C29.3078 7.08462 29.4351 6.95075 29.5902 6.85628C29.7453 6.76181 29.9226 6.71011 30.1042 6.70642H30.1851L31.8105 6.85873C31.9214 6.86864 32.0291 6.90121 32.127 6.95442C32.2248 7.00764 32.3107 7.08036 32.3793 7.1681C32.4492 7.25612 32.5006 7.35735 32.5304 7.46571C32.5603 7.57407 32.5679 7.68734 32.553 7.79874L32.4935 8.24852C32.6886 8.31198 32.8766 8.38337 33.0575 8.4627C33.0924 8.47201 33.1284 8.47681 33.1646 8.47698C33.1796 8.47841 33.1948 8.47841 33.2098 8.47698L34.4758 8.06052C34.5783 8.02856 34.685 8.01251 34.7924 8.01292C35.0509 8.0062 35.3035 8.09042 35.5063 8.2509L36.3297 8.94104C36.427 9.01804 36.503 9.11863 36.5505 9.23325C36.598 9.34788 36.6154 9.47274 36.6011 9.59599C36.5868 9.71925 36.5413 9.8368 36.4688 9.9375C36.3963 10.0382 36.2992 10.1187 36.1869 10.1714L35.3492 10.6069C35.3492 10.6378 35.3706 10.6688 35.3802 10.7021L36.7033 10.9163C36.8177 10.9338 36.9269 10.9762 37.0233 11.0404C37.1196 11.1046 37.2007 11.1891 37.261 11.2879C37.3213 11.3867 37.3593 11.4975 37.3723 11.6125C37.3853 11.7276 37.373 11.844 37.3363 11.9538L37.0984 12.6868C37.0351 12.8752 36.9152 13.0394 36.755 13.157C36.5948 13.2745 36.4022 13.3397 36.2036 13.3436L34.6924 13.2984C34.6676 13.3119 34.6438 13.327 34.621 13.3436C34.5615 13.4055 34.4996 13.465 34.4354 13.5245L34.8114 13.9291C34.8965 14.0168 34.9586 14.1242 34.9922 14.2416C35.0258 14.3591 35.0299 14.4831 35.0042 14.6025C34.9769 14.7221 34.9208 14.8332 34.8407 14.9261C34.7606 15.019 34.6591 15.0909 34.5449 15.1356L33.236 15.6782C33.1062 15.7316 32.967 15.7583 32.8267 15.7567C32.6083 15.76 32.3939 15.6987 32.2103 15.5806L31.3417 15.0023C31.3068 14.9922 31.2708 14.9866 31.2346 14.9857C30.9419 15.0404 30.642 15.0809 30.3398 15.107L30.0185 15.7305C29.9292 15.8876 29.8002 16.0184 29.6444 16.1099C29.4886 16.2014 29.3115 16.2503 29.1309 16.2517ZM29.6972 10.1952C29.1415 10.1896 28.5901 10.2931 28.0742 10.4998C27.4959 10.7378 27.1223 11.09 27.0652 11.435C27.0608 11.5668 27.0897 11.6976 27.1492 11.8153C27.2086 11.933 27.2968 12.0339 27.4055 12.1085C27.8815 12.4988 28.6668 12.732 29.5473 12.732C30.1031 12.7381 30.6546 12.6346 31.1703 12.4274C31.7486 12.1894 32.1222 11.8372 32.1794 11.4922C32.1844 11.3603 32.1558 11.2292 32.0963 11.1114C32.0368 10.9936 31.9482 10.8929 31.839 10.8187C31.3631 10.4284 30.5682 10.1952 29.6972 10.1952Z" fill="#E0E0E0"/>
</svg>
