<svg width="14" height="15" viewBox="0 0 14 15" fill="none" xmlns="http://www.w3.org/2000/svg">
<path d="M6.93994 7.75559C7.87282 7.21538 8.62959 5.77086 8.62959 4.52623C8.62959 3.28161 7.87282 2.71284 6.93994 3.25067C6.00707 3.7885 5.2503 5.23303 5.2503 6.47765C5.2503 7.72228 6.00707 8.29342 6.93994 7.75559ZM9.86945 8.89789C9.69811 7.92694 8.99131 7.57235 8.17029 8.04593L5.7096 9.47379C4.88857 9.94975 4.1794 11.1206 4.00805 12.2891L3.7082 14.3476C3.64871 14.7545 3.86051 14.983 4.14846 14.8235L9.73142 11.6013C9.8847 11.4912 10.0061 11.3425 10.0835 11.1703C10.1608 10.9981 10.1912 10.8086 10.1717 10.6208L9.86945 8.89789ZM10.7571 4.16451C11.4258 3.77898 11.9708 2.73664 11.9708 1.8466C11.9708 0.95656 11.4258 0.542478 10.7571 0.928003C10.0884 1.31353 9.54342 2.35587 9.54342 3.24829C9.54342 4.14071 10.086 4.55241 10.7571 4.16451ZM12.8632 4.77373C12.7371 4.08597 12.2302 3.82182 11.64 4.16688L9.87183 5.18781C9.30668 5.57501 8.90288 6.15574 8.73668 6.82034C9.59578 6.55856 10.3121 6.99882 10.5739 7.97691L12.7157 6.73705C13.056 6.5419 13.1012 6.39674 13.0322 5.99456L12.8632 4.77373ZM4.33646 6.25157C4.33646 5.35678 3.79388 4.94507 3.12278 5.33298C2.45168 5.72088 1.90909 6.76084 1.90909 7.65088C1.90909 8.54092 2.45406 8.95738 3.12278 8.56948C3.7915 8.18157 4.33646 7.15351 4.33646 6.25395V6.25157ZM0.842947 13.0363C0.773934 13.5123 0.81915 13.6075 1.15946 13.4123L3.30126 12.1725C3.55347 10.914 4.1964 9.76722 5.13845 8.89551C4.94331 8.41955 4.50543 8.2839 4.0033 8.57424L2.23512 9.59516C1.64493 9.93547 1.13566 10.785 1.01191 11.6132L0.842947 13.0363Z" fill="#E0E0E0"/>
</svg>
