<svg width="37" height="35" viewBox="0 0 37 35" fill="none" xmlns="http://www.w3.org/2000/svg">
<g clip-path="url(#clip0_39_1981)">
<path d="M11.8094 35C7.7486 27.7072 3.46683 20.7183 0.0966649 13.3149C-0.538694 11.9199 1.90606 7.79008 3.8812 6.78179C9.337 3.97792 15.2348 1.89229 21.1188 0.0967072C22.5829 -0.345282 25.4972 0.884 26.4088 2.2514C29.5718 7.00279 32.1271 12.1547 34.9447 17.1409C37.0304 20.8288 36.5608 23.6326 32.4171 25.4973C25.8287 28.4531 19.2817 31.547 11.8094 35ZM13.8812 29.71C19.9033 26.3674 25.1381 23.4669 30.2624 20.6354C23.4668 4.95859 18.7016 3.60499 5.31766 13.1078C7.96959 18.2321 10.6492 23.4393 13.8812 29.71Z" fill="#5995F5"/>
</g>
<defs>
<clipPath id="clip0_39_1981">
<rect width="36.1602" height="35" fill="white"/>
</clipPath>
</defs>
</svg>
