<svg width="133" height="101" viewBox="0 0 133 101" fill="none" xmlns="http://www.w3.org/2000/svg">
<g clip-path="url(#clip0_39_2075)">
<path d="M82.5871 14.8893C88.2406 20.9714 93.8776 27.07 99.5312 33.152C99.251 33.1685 98.9873 33.2015 98.7071 33.185C81.2849 32.7894 81.3014 32.7894 81.3509 50.1291C81.3838 63.1339 81.3509 76.1387 81.3509 88.9951C87.3505 88.9951 92.3942 88.9951 99.5147 88.9951C99.5147 70.0566 99.5147 51.5961 99.5147 33.1191C103.256 36.564 107.163 39.8605 110.706 43.4866C113.888 46.7337 116.673 50.3599 119.64 53.8048C118.503 55.041 117.365 56.2607 116.228 57.4969C118.206 57.9913 120.167 58.4693 121.321 58.7495C121.321 62.0626 121.321 65.1118 121.321 68.1776C109.223 85.4843 94.5205 98.0935 71.6591 97.5002C65.1979 97.3353 58.6873 99.066 52.2096 99.9726C41.4135 101.472 31.6723 100.187 25.2111 89.9841C30.0075 89.6709 34.804 89.3578 39.8641 89.0446C39.8641 79.1056 39.8641 69.7105 39.8641 60.3648C37.161 60.3648 34.9523 60.7604 32.9579 60.2989C25.0957 58.4364 23.431 62.3922 23.7441 69.1501C24.0573 75.9574 23.7771 82.7812 23.7606 89.5885C10.591 86.0942 2.46507 61.3373 5.84401 47.7392C9.56908 46.3546 13.5414 45.3821 17.0027 43.5031C34.8864 33.7454 52.6217 23.724 70.4723 13.9004C71.9558 13.0927 73.7853 12.9279 76.7522 12.1202C74.9226 16.109 73.9007 18.3342 72.8788 20.5758C73.2579 20.889 73.637 21.1857 74.0161 21.4988C76.8511 19.2902 79.7191 17.0815 82.5871 14.8893ZM69.335 45.4316C62.297 45.4316 57.0555 45.4316 50.5613 45.4316C50.5613 56.92 50.38 67.7655 50.6108 78.6111C50.8415 89.0281 54.9622 92.0115 65.3957 89.3578C66.9615 88.9622 69.1372 86.6711 69.1702 85.2206C69.4669 72.018 69.335 58.799 69.335 45.4316Z" fill="#E6A676"/>
<path d="M82.587 14.8893C79.7191 17.098 76.8511 19.2901 73.9996 21.4988C73.6205 21.1856 73.2414 20.889 72.8623 20.5758C73.8842 18.3341 74.9226 16.0925 76.7357 12.1202C73.7688 12.9279 71.9393 13.0927 70.4558 13.9003C52.6216 23.724 34.8864 33.7454 17.0027 43.5031C13.5414 45.3821 9.58555 46.3546 5.84399 47.7391C6.17365 46.6842 6.5033 45.6294 6.83295 44.5745C7.60763 44.5415 8.53066 44.7723 9.12403 44.4426C26.3978 34.586 43.6551 24.68 60.9124 14.7739C64.176 12.8949 67.423 10.9664 70.6866 9.07092C70.4393 8.527 70.1756 7.99955 69.9284 7.45563C67.901 7.65342 65.8572 7.86769 63.8298 8.06548C63.9287 6.59853 63.7474 3.96131 64.1924 3.84593C69.6647 2.4614 75.1863 1.07686 80.7904 0.53293C83.3452 0.285691 86.0978 1.91747 88.7515 2.69215C87.7955 5.57661 87.0209 8.54348 85.7847 11.2961C85.1583 12.6806 83.6749 13.7025 82.587 14.8893ZM72.3019 8.59293C72.8128 8.39514 73.3073 8.19734 73.8018 7.99955C73.5381 7.6699 73.2908 7.12597 72.9942 7.09301C72.5656 7.04356 72.0876 7.35673 71.6261 7.52156C71.8404 7.86769 72.0711 8.21383 72.3019 8.59293Z" fill="#171412"/>
<path d="M63.8133 8.06542C65.8407 7.86763 67.8845 7.65336 69.9119 7.45557C70.1591 7.99949 70.4229 8.52694 70.6701 9.07086C67.4065 10.9664 64.176 12.8948 60.8959 14.7738C43.6386 24.6799 26.3978 34.5859 9.10755 44.4425C8.51418 44.7887 7.59115 44.5414 6.81647 44.5744C9.61851 33.3333 17.9917 26.4106 27.4362 21.8284C39.0565 16.1749 51.6492 12.5487 63.8133 8.06542Z" fill="#E6A676"/>
<path d="M23.7936 89.5885C23.81 82.7647 24.0903 75.9409 23.7771 69.1501C23.4639 62.3757 25.1287 58.4364 32.9909 60.2989C34.9853 60.7769 37.1939 60.3649 39.8971 60.3649C39.8971 69.7105 39.8971 79.1056 39.8971 89.0446C34.8369 89.3743 30.0405 89.6874 25.244 89.9841C24.6836 90.0665 24.2056 89.9347 23.7936 89.5885ZM29.1669 64.1723C29.1669 72.1499 29.1669 79.6495 29.1669 87.6601C32.0184 87.3799 34.2765 87.1656 36.5346 86.9513C36.5346 78.6935 36.5346 71.1115 36.5346 63.101C33.7655 63.4966 31.4415 63.8427 29.1669 64.1723Z" fill="#171412"/>
<path d="M9.7174 19.3066C9.7174 17.7737 9.7174 16.0431 9.7174 14.0322C7.09666 13.6531 4.65723 13.3234 0.750854 12.763C6.2066 9.20277 10.3602 6.48314 14.1512 3.99426C16.7555 5.67549 19.9366 7.73582 22.4585 9.36759C18.8817 12.1532 14.5798 15.5156 9.7174 19.3066Z" fill="#171412"/>
<path d="M121.321 68.1941C121.321 65.1283 121.321 62.079 121.321 58.766C120.167 58.4858 118.206 57.9913 116.228 57.5133C117.365 56.2772 118.503 55.0574 119.64 53.8212C122.64 51.6785 125.64 49.5358 128.326 47.6238C129.562 49.4039 131.277 51.8763 132.249 53.2773C129.942 56.8376 127.749 60.4143 125.343 63.8427C124.206 65.458 122.673 66.7601 121.321 68.1941Z" fill="#171412"/>
<path d="M122.458 16.1585C118.948 14.9882 115.536 13.8509 112.289 12.7631C115.058 9.28524 118.288 5.247 121.601 1.09338C123.794 2.93944 126.76 5.44479 129.612 7.85125C127.519 10.2742 124.75 13.5048 122.458 16.1585Z" fill="#272727"/>
<path d="M69.335 45.4315C69.335 58.7989 69.4504 72.0015 69.1702 85.2041C69.1372 86.6545 66.9615 88.9456 65.3957 89.3412C54.9622 91.9949 50.8415 89.0115 50.6108 78.5945C50.38 67.749 50.5613 56.9034 50.5613 45.415C57.0555 45.4315 62.2969 45.4315 69.335 45.4315ZM55.3413 48.8599C55.3413 62.0295 55.3413 74.4244 55.3413 86.9842C58.6378 86.9842 61.4563 86.9842 64.555 86.9842C64.555 74.408 64.555 62.2767 64.555 49.5522C61.4233 49.3214 58.6378 49.1071 55.3413 48.8599Z" fill="#171412"/>
<path d="M99.5146 33.1355C99.5146 51.596 99.5146 70.073 99.5146 89.0116C92.3941 89.0116 87.334 89.0116 81.3508 89.0116C81.3508 76.1386 81.3673 63.1339 81.3508 50.1456C81.3178 32.7894 81.3013 32.7894 98.707 33.2014C98.9707 33.185 99.2509 33.152 99.5146 33.1355ZM94.0094 87.182C94.0094 70.6005 94.0094 54.3321 94.0094 37.866C90.8283 37.7012 88.1746 37.5693 85.389 37.421C85.389 53.953 85.389 70.4192 85.389 87.1655C88.4548 87.182 91.092 87.182 94.0094 87.182Z" fill="#171412"/>
<path d="M72.3019 8.59292C72.0711 8.2303 71.8404 7.86768 71.6096 7.52155C72.0711 7.35672 72.5491 7.04355 72.9777 7.093C73.2744 7.12597 73.5216 7.68637 73.7853 7.99954C73.3073 8.18085 72.8128 8.37864 72.3019 8.59292Z" fill="#E6A676"/>
<path d="M29.1669 64.1723C31.4415 63.8427 33.7655 63.4965 36.5346 63.101C36.5346 71.1115 36.5346 78.6935 36.5346 86.9513C34.2765 87.1656 32.0348 87.3798 29.1669 87.66C29.1669 79.633 29.1669 72.1334 29.1669 64.1723Z" fill="#E6A676"/>
<path d="M55.3412 48.86C58.6543 49.1072 61.4398 49.3215 64.555 49.5687C64.555 62.2933 64.555 74.4245 64.555 87.0007C61.4563 87.0007 58.6378 87.0007 55.3412 87.0007C55.3412 74.408 55.3412 62.0296 55.3412 48.86Z" fill="#E6A676"/>
<path d="M94.0094 87.182C91.092 87.182 88.4548 87.182 85.389 87.182C85.389 70.4357 85.389 53.9696 85.389 37.4375C88.1746 37.5858 90.8283 37.7177 94.0094 37.8825C94.0094 54.3322 94.0094 70.6005 94.0094 87.182Z" fill="#E6A676"/>
</g>
<defs>
<clipPath id="clip0_39_2075">
<rect width="131.498" height="100" fill="white" transform="translate(0.750854 0.5)"/>
</clipPath>
</defs>
</svg>
