<svg width="130" height="101" viewBox="0 0 130 101" fill="none" xmlns="http://www.w3.org/2000/svg">
<g clip-path="url(#clip0_39_2060)">
<path d="M14.8156 36.257C14.8156 36.257 -8.7004 77.265 3.92693 85.8179C16.5543 94.3708 49.2378 100.5 62.3744 100.482C75.4935 100.465 115.378 97.7427 127.32 62.4424C139.262 27.1421 105.876 3.02899 75.5286 4.20567C45.1809 5.38235 14.8156 36.257 14.8156 36.257Z" fill="#A7B592"/>
<path d="M115.641 22.9974C84.0815 24.736 52.5395 26.4747 20.98 28.2309C18.6091 27.2826 16.2206 26.3518 13.8321 25.4034C13.9375 24.4375 14.0429 23.4891 14.1482 22.5232C32.5184 15.2524 50.8535 7.87618 69.3116 0.868799C71.4542 0.0609313 74.4925 0.763425 76.8634 1.51861C92.1075 6.45363 107.316 11.5291 122.473 16.7276C124.422 17.395 126.073 18.9229 129.533 21.1006C123.509 21.9261 119.575 22.4529 115.641 22.9974ZM109.178 18.2906C98.0787 13.9176 85.9958 9.1231 73.8602 4.46908C72.666 4.01246 70.98 4.11783 69.7857 4.60958C55.7886 10.3173 41.8441 16.1305 28.4089 21.7153C55.3846 20.5738 82.7468 19.4146 109.178 18.2906Z" fill="black"/>
<path d="M16.045 72.4354C31.0432 72.0314 46.059 71.6451 61.0573 71.1884C81.3242 70.5738 101.574 69.8888 121.841 69.239C121.577 73.1203 121.314 77.0191 121.05 80.9004C120.418 80.2682 119.803 79.6535 119.171 79.0212C119.891 73.5945 116.73 72.8393 112.357 73.0676C81.5525 74.7185 50.7306 76.3166 20.5585 77.8797C19.2764 80.6019 18.2227 82.8323 17.1865 85.0627C16.8001 80.8653 16.4313 76.6503 16.045 72.4354Z" fill="black"/>
<path d="M22.7186 31.8312C26.8809 31.0409 31.0608 30.2506 36.8036 29.1617C37.2778 41.0163 37.5061 51.6591 38.2086 62.2492C38.6126 68.5541 34.3449 68.2028 30.3056 68.8351C25.4232 69.5903 23.0875 67.5355 23.0699 62.7585C23.0348 56.6644 23.2455 50.5527 23.1401 44.4585C23.0875 41.2973 22.6133 38.1537 22.3323 34.9924C22.4376 33.9387 22.5781 32.885 22.7186 31.8312ZM29.0938 64.4621C33.66 62.3195 34.9245 48.1993 31.7984 34.3251C27.5483 37.3282 26.1257 53.1695 29.0938 64.4621Z" fill="black"/>
<path d="M27.9874 84.0617C35.3811 82.4986 42.7397 79.7413 50.151 79.5657C72.3147 79.0739 94.496 79.6008 116.677 79.7062C117.503 79.7062 118.328 79.2671 119.154 79.0388C119.786 79.6711 120.4 80.2857 121.033 80.918C117.011 81.7083 112.989 82.5162 108.967 83.3065C86.8563 83.7455 64.7629 84.2197 42.6519 84.6061C38.3667 84.6763 34.0639 84.3778 29.7611 84.2373C29.1816 84.1846 28.5845 84.1143 27.9874 84.0617Z" fill="black"/>
<path d="M46.1117 65.5861C45.4268 54.0652 44.7418 42.5618 44.0569 31.3395C54.5416 27.107 56.3681 27.8446 57.2287 37.6444C57.8785 45.1259 58.1243 52.8007 57.0882 60.1769C56.7018 62.9693 52.2585 65.2173 49.6593 67.7111C48.4651 67.0086 47.2884 66.3061 46.1117 65.5861ZM49.6242 61.2482C50.5023 61.336 51.3804 61.4062 52.2585 61.494C52.2585 52.2387 52.2585 42.9833 52.2585 33.728C51.3804 33.728 50.5023 33.7455 49.6242 33.7455C49.6242 42.9131 49.6242 52.0806 49.6242 61.2482Z" fill="black"/>
<path d="M66.8001 66.8154C66.1679 56.5239 65.5005 47.0051 65.0615 37.4512C64.8331 32.5688 65.0088 27.8621 71.9459 27.7392C78.725 27.6162 78.1805 32.8674 78.5493 36.854C79.1289 42.9306 78.2508 49.2004 79.1816 55.1891C80.7798 65.3577 75.4057 67.2545 66.8001 66.8154ZM70.0492 31.48C70.0492 42.1403 70.0492 52.3616 70.0492 62.9517C77.2673 59.3514 77.2146 36.2394 70.0492 31.48Z" fill="black"/>
<path d="M99.0095 62.0736C86.5226 66.2183 86.47 66.2183 86.3295 55.1189C86.2241 46.7943 86.3119 38.4522 86.3119 29.9872C89.4556 30.1804 92.248 30.356 96.0239 30.6019C97.0425 41.2446 98.0435 51.7996 99.0095 62.0736ZM90.7376 60.8091C92.1953 60.6335 93.653 60.4579 95.1106 60.2822C94.1623 51.3079 93.1963 42.3511 92.248 33.3767C91.0889 33.4996 89.9122 33.6226 88.7531 33.7455C89.4204 42.755 90.0878 51.7821 90.7376 60.8091Z" fill="black"/>
<path d="M105.209 62.4599C105.209 52.9236 104.928 43.3521 105.455 33.8333C105.56 31.9892 108.844 30.3032 110.671 28.5646C112.374 30.3559 115.413 32.0595 115.536 33.9387C116.045 41.7539 116.326 49.7096 115.29 57.4195C114.921 60.2119 110.583 62.4599 108.054 64.9538C107.106 64.1283 106.157 63.2853 105.209 62.4599ZM111.215 33.8333C110.688 33.8157 110.179 33.7982 109.652 33.7982C109.652 42.1578 109.652 50.5351 109.652 58.8948C110.179 58.9123 110.688 58.9299 111.215 58.9474C111.215 50.5702 111.215 42.193 111.215 33.8333Z" fill="black"/>
<path d="M109.178 18.2906C82.7467 19.4146 55.3846 20.5737 28.4088 21.7153C41.8616 16.1304 55.8061 10.2998 69.7857 4.60955C70.98 4.1178 72.666 4.01243 73.8602 4.46905C85.9958 9.12307 98.0787 13.9176 109.178 18.2906Z" fill="#A7B592"/>
</g>
<defs>
<clipPath id="clip0_39_2060">
<rect width="129.593" height="100" fill="white" transform="translate(0.20372 0.5)"/>
</clipPath>
</defs>
</svg>
