<svg width="110" height="101" viewBox="0 0 110 101" fill="none" xmlns="http://www.w3.org/2000/svg">
<g clip-path="url(#clip0_39_2046)">
<path d="M84.9338 23.6974C92.6712 26.392 100.273 29.2822 104.006 37.5165C97.0367 37.5767 90.0519 37.4412 83.0972 37.8175C81.2758 37.9229 78.1597 39.4584 77.9941 40.6777C76.9554 47.9033 76.5942 55.2344 76.0221 62.4751C86.5144 62.4751 95.5615 62.4751 103.796 62.4751C104.428 54.5871 105 47.4517 105.557 40.3164C111.744 47.0152 109.29 55.144 107.755 62.1439C103.058 83.5348 83.4736 99.3259 61.7816 100.154C57.1451 100.334 52.4484 99.0399 47.7819 98.4076C48.1733 97.7754 49.0614 96.7969 48.8958 96.5711C42.3927 87.4036 35.7843 78.3113 28.2877 67.9545C21.7846 78.2661 16.5159 86.5907 11.2622 94.9303C7.12254 91.9497 0.273227 91.5132 0.438815 84.3778C0.72483 72.2146 17.6449 40.2712 22.7179 35.8756C22.5373 42.7099 23.32 49.0323 31.5242 50.899C39.8186 52.7807 46.984 49.9807 48.6249 44.3959C50.7625 37.11 46.5626 30.893 37.5154 27.9575C36.1004 27.5059 34.6553 27.1296 33.2252 26.7081C39.1111 18.7298 47.9625 19.0158 56.4828 18.3835C55.0376 21.6652 53.5925 24.9468 51.8162 28.9511C62.173 28.3339 71.3405 27.9425 80.4629 27.0844C82.0435 26.949 83.4435 24.8866 84.9338 23.6974ZM64.2955 44.9228C66.1019 45.7507 67.261 46.2776 68.4051 46.8195C68.7513 46.4883 69.0825 46.1421 69.4287 45.8109C67.803 43.0411 66.1772 40.2562 64.0245 36.5832C60.6827 39.7745 58.1386 42.183 55.6097 44.6066C56.3172 44.8023 57.0247 45.0131 57.7322 45.2088C58.1085 47.1657 59.4332 49.6796 58.6806 51.0043C55.143 57.1913 51.0184 63.0471 47.1195 69.0233C46.3368 70.2125 45.5991 71.4469 44.8465 72.6512C55.7452 66.6148 60.9536 56.7849 64.2955 44.9228Z" fill="#CFA9B5"/>
<path d="M11.2472 94.9452C16.5159 86.6056 21.7695 78.266 28.2726 67.9695C35.7692 78.3262 42.3777 87.4336 48.8808 96.5861C49.0464 96.8269 48.1582 97.7904 47.7668 98.4226C34.9112 99.1 22.0555 99.7774 8.25154 100.5C9.50098 98.1968 10.3741 96.571 11.2472 94.9452Z" fill="#171412"/>
<path d="M84.9338 23.6974C83.4435 24.8866 82.0435 26.9489 80.4478 27.0994C71.3255 27.9424 62.1579 28.3489 51.8011 28.9661C53.5775 24.9468 55.0226 21.6802 56.4677 18.3985C59.7795 12.6331 63.0762 6.88266 66.7492 0.5C73.1168 8.62886 79.0328 16.1706 84.9338 23.6974ZM60.7881 17.7512C59.5386 19.9641 58.2892 22.192 56.6785 25.0522C64.9579 24.45 71.9728 23.9533 79.6952 23.3963C77.4071 20.5361 75.7211 18.4437 74.0351 16.3362C71.8373 13.2503 69.6395 10.1643 66.8998 6.35579C64.4912 10.8417 62.6396 14.304 60.7881 17.7512Z" fill="#171412"/>
<path d="M105.557 40.3314C104.985 47.4668 104.413 54.587 103.796 62.4901C95.5615 62.4901 86.5144 62.4901 76.0221 62.4901C76.6092 55.2644 76.9554 47.9334 77.9941 40.6927C78.1748 39.4734 81.2758 37.9379 83.0972 37.8326C90.0519 37.4412 97.0367 37.5917 104.006 37.5315C104.518 38.4498 105.045 39.3831 105.557 40.3314ZM79.7704 59.359C87.0714 59.359 93.6648 59.359 100.68 59.359C100.68 53.1419 100.68 47.2861 100.68 40.5121C94.0712 40.9035 87.7488 41.2647 80.9898 41.6561C80.7037 44.7421 80.4328 47.1807 80.2672 49.6345C80.0414 52.7957 79.936 55.9569 79.7704 59.359Z" fill="#171412"/>
<path d="M33.2252 26.708C34.6553 27.1145 36.1004 27.4908 37.5154 27.9574C46.5625 30.8929 50.7625 37.1099 48.6249 44.3958C46.984 49.9806 39.8186 52.7806 31.5242 50.8989C23.3351 49.0473 22.5373 42.7098 22.7179 35.8756C26.2254 32.8197 29.7178 29.7639 33.2252 26.708ZM35.995 47.9334C42.5433 48.0839 45.3733 46.0667 45.4938 41.1744C45.6292 35.7852 40.8874 31.2843 34.6553 31.0585C29.5522 30.8778 26.6468 33.467 26.2404 38.525C25.7436 44.6668 29.0554 47.7678 35.995 47.9334Z" fill="#171412"/>
<path d="M64.2955 44.9227C60.9536 56.7848 55.7451 66.6147 44.8465 72.6512C45.5991 71.4469 46.3367 70.2125 47.1195 69.0233C51.0184 63.0471 55.143 57.1913 58.6806 51.0043C59.4332 49.6796 58.1085 47.1657 57.7322 45.2088C57.0247 45.0131 56.3172 44.8023 55.6097 44.6066C58.1537 42.183 60.6827 39.7745 64.0245 36.5831C66.1772 40.2562 67.8029 43.026 69.4287 45.8109C69.0825 46.1421 68.7513 46.4883 68.4051 46.8195C67.261 46.2775 66.1019 45.7507 64.2955 44.9227Z" fill="#171412"/>
<path d="M74.02 16.3362C75.706 18.4437 77.392 20.5361 79.6801 23.3962C71.9577 23.9532 64.9428 24.465 56.6634 25.0521C58.2741 22.192 59.5236 19.9791 60.773 17.7512C65.1987 17.2845 69.6094 16.8028 74.02 16.3362Z" fill="#CFA9B5"/>
<path d="M79.7704 59.3589C79.936 55.9418 80.0564 52.7957 80.2521 49.6495C80.4177 47.1958 80.6887 44.7571 80.9747 41.6712C87.7488 41.2798 94.0712 40.9034 100.665 40.5271C100.665 47.2861 100.665 53.1569 100.665 59.374C93.6497 59.359 87.0563 59.3589 79.7704 59.3589Z" fill="#CFA9B5"/>
<path d="M35.995 47.9334C29.0554 47.7829 25.7436 44.6668 26.2404 38.525C26.6468 33.4671 29.5672 30.8779 34.6553 31.0585C40.8723 31.2843 45.6292 35.7853 45.4938 41.1744C45.3733 46.0518 42.5433 48.0689 35.995 47.9334Z" fill="#CFA9B5"/>
</g>
<defs>
<clipPath id="clip0_39_2046">
<rect width="109.122" height="100" fill="white" transform="translate(0.438812 0.5)"/>
</clipPath>
</defs>
</svg>
