<svg width="24" height="55" viewBox="0 0 24 55" fill="none" xmlns="http://www.w3.org/2000/svg">
<path d="M10.941 48.4143L10.3699 48.1192L10.941 47.9692V48.4143Z" fill="#263238"/>
<path d="M5.20562 49.3899C5.20562 49.3899 12.057 46.4104 12.1355 46.8721C12.1549 46.9639 12.1549 47.0587 12.1355 47.1505C12.1427 47.1424 12.149 47.1336 12.1546 47.1243L12.0165 47.9834C11.71 48.2263 11.3397 48.3751 10.9504 48.4118V47.9692C10.7391 48.0518 10.5366 48.1555 10.3459 48.2785C9.90331 48.5617 9.61535 49.0662 9.15605 49.6469C8.81099 50.0729 8.20414 50.2633 7.31411 50.3775C6.36219 50.4989 5.51261 50.299 5.27701 50.0372C5.21276 49.9435 5.17262 49.8354 5.16017 49.7225C5.14771 49.6096 5.16333 49.4953 5.20562 49.3899Z" fill="#263238"/>
<path d="M5.39604 49.2328C5.46267 49.1662 5.71017 48.8996 6.04334 48.6141C6.36021 48.3216 6.69226 48.0459 7.03809 47.7883C7.21352 47.6694 7.37906 47.5365 7.53308 47.3909C7.65207 47.2647 7.77106 47.1339 7.87577 46.9958C8.20623 46.5649 8.48947 46.0998 8.7206 45.6084C8.95147 45.0736 9.04474 44.4894 8.99189 43.9093C8.93239 42.4623 8.82293 41.9388 8.83245 40.9988L12.0689 41.4962C11.9666 42.0149 11.8476 43.1763 11.7881 43.7665C11.6977 44.666 11.5644 44.7493 11.9 45.6536C12.0278 45.9064 12.1146 46.1779 12.157 46.458C12.1713 46.9197 11.8048 47.3123 11.3978 47.5313C11.0623 47.7121 10.6839 47.7859 10.3507 47.9811C10.0173 48.2017 9.72628 48.4807 9.49164 48.8045C9.25366 49.0948 9.06804 49.4399 8.74439 49.6421C8.40147 49.8377 8.02272 49.9624 7.63065 50.0086C7.13828 50.089 6.63771 50.1066 6.14091 50.061C5.43412 49.9944 4.91294 49.7231 5.39604 49.2328Z" fill="#C8856A"/>
<path d="M8.07333 47.867C7.91632 47.774 7.74121 47.7156 7.55977 47.6959C7.37834 47.6762 7.19478 47.6956 7.02147 47.7528C6.51219 48.1454 6.09097 48.4929 5.79588 48.738C5.43415 49.0331 5.11764 49.302 5.12716 49.6471C5.13906 50.1897 7.22375 50.3848 8.39936 49.8851C8.76097 49.7654 9.06154 49.5092 9.23704 49.1711C9.23704 49.1711 9.07759 48.4167 8.07333 47.867ZM12.0761 45.987C11.9024 45.6348 11.8381 45.4563 11.8381 45.4563C11.4924 45.7081 11.2294 46.0571 11.0828 46.4589C10.9361 46.8607 10.9125 47.297 11.0147 47.7123C11.2248 47.6752 11.425 47.5955 11.6031 47.478C11.7811 47.3606 11.9332 47.2079 12.0499 47.0293C12.1519 46.8756 12.2084 46.6963 12.2131 46.5119C12.2177 46.3275 12.1702 46.1456 12.0761 45.987Z" fill="#37474F"/>
<path d="M17.709 48.0953C17.521 48.4095 17.7947 49.5708 17.7661 50.4013C17.7423 51.1581 17.6114 52.3385 17.8137 53.219C18.016 54.0995 18.7918 55.0633 19.8151 54.2161C20.4481 53.6902 20.6956 53.0667 20.767 51.9768C20.8123 51.2224 20.491 50.1824 20.2149 49.2614C19.8913 48.1858 19.7628 47.6099 19.7628 47.6099L17.709 48.0953Z" fill="#263238"/>
<path d="M19.7295 42.4863C19.8389 44.245 19.6581 45.4849 19.67 46.6129C19.6833 47.1248 19.7471 47.6341 19.8604 48.1335C20.0222 48.8475 20.2935 49.8446 20.4077 50.3087C20.5671 50.956 20.6861 51.3653 20.4767 52.1006C20.4584 52.1584 20.4345 52.2142 20.4053 52.2672C20.1031 52.8741 19.313 53.3453 19.056 53.2763C19.0057 53.3446 18.9366 53.3967 18.8571 53.4263C18.7777 53.4559 18.6913 53.4616 18.6086 53.4428C18.5794 53.4399 18.5506 53.4335 18.5229 53.4238C18.4932 53.4158 18.4645 53.4047 18.4372 53.3905C18.3308 53.3349 18.237 53.2577 18.162 53.1639C18.0871 53.0701 18.0325 52.9616 18.0017 52.8455C17.9832 52.7942 17.9681 52.7417 17.9565 52.6884C17.8306 52.081 17.8072 51.4568 17.8875 50.8417C17.8994 50.4324 17.8637 49.9112 17.8161 49.252C17.7685 48.5928 17.5781 46.5201 17.3187 45.5324C17.1355 44.8447 16.9047 43.9808 16.6643 43.0599L19.7295 42.4863Z" fill="#C8856A"/>
<path d="M20.579 51.151C19.9436 50.8845 18.116 50.8821 17.8423 51.7769C17.8423 52.6146 17.8566 53.1834 18.4015 53.9021C19.1155 54.854 20.0198 53.8116 20.3577 53.1524C20.634 52.5235 20.7113 51.8251 20.579 51.151Z" fill="#37474F"/>
<path d="M16.6952 17.7031C17.6162 19.2833 18.8585 21.4775 18.9751 25.0495C19.1274 29.8091 19.2273 33.2264 19.2606 33.8023C19.2939 34.3782 19.6866 35.4206 20.0555 38.243C20.4243 41.0654 20.0222 46.4628 20.0222 46.4628C20.0222 46.4628 19.7057 47.1029 18.6252 47.2291C17.6305 47.3457 17.164 46.8792 17.164 46.8792C17.164 46.8792 15.5863 39.3258 15.1603 37.6314C14.7343 35.937 13.2874 28.5287 13.2874 28.5287L12.7591 33.0908C12.7591 33.0908 13.1041 34.6448 12.8685 37.1364C12.6329 39.628 11.8429 44.4281 11.8429 44.4281C11.8429 44.4281 11.3907 44.904 10.3317 44.8636C9.79083 44.8615 9.27036 44.6569 8.87289 44.29C8.87289 44.29 7.94478 34.8114 7.86862 31.9985C7.79247 29.1856 7.86863 22.1628 8.64443 17.9744L16.6952 17.7031Z" fill="#37474F"/>
<path d="M9.29168 21.9963C9.4416 23.1386 11.1955 24.3261 11.8785 24.4713L12.74 28.7549L12.759 33.0861L13.2873 28.5241L12.4211 24.0215C12.4211 24.0215 10.2388 23.4789 9.29168 21.9963ZM16.619 36.5677C16.3287 35.1137 15.9455 31.8082 15.7337 30.3327C15.5219 28.8572 15.3292 27.3842 15.0912 25.9254C15.2007 27.4103 15.3292 28.8929 15.4934 30.3732C15.6576 31.8534 16.0431 35.1589 16.3263 36.6344C16.6095 38.1098 16.9379 39.5472 17.2639 41.0013C17.59 42.4553 17.9255 43.9022 18.2849 45.3491C18.039 43.88 17.7748 42.4148 17.4924 40.9537C17.214 39.4901 16.9189 38.0194 16.619 36.5677ZM9.22266 28.4503L9.36069 24.5641C9.19649 25.8516 9.07511 27.1438 8.98944 28.4384C8.90377 29.733 8.83237 31.0252 8.86331 32.3365C8.94422 33.6406 9.0775 34.9257 9.2179 36.2179C9.35831 37.5101 9.52252 38.7928 9.71052 40.0755C9.63913 38.7809 9.55265 37.4871 9.45112 36.1941L9.3012 34.257C9.25122 33.612 9.1941 32.9647 9.16316 32.3246C9.13223 31.6844 9.16316 31.0371 9.16316 30.3922C9.16316 29.7473 9.20362 29.0976 9.22266 28.4503Z" fill="#263238"/>
<path d="M16.2191 1.6824C17.1401 2.17501 17.2353 2.93892 17.2805 4.79991C17.3662 8.1792 18.399 12.0249 18.399 12.0249L10.6719 12.1225L10.2554 4.38821C10.2554 4.38821 9.57241 3.56005 9.60097 2.67001C9.62953 1.77997 10.1198 0.59484 11.757 0.164099C13.123 -0.200007 15.7789 -0.0595997 16.2191 1.6824Z" fill="#263238"/>
<path d="M6.38119 16.9108C8.23504 15.1521 10.0794 13.3173 10.0794 13.3173L10.7933 8.85283C9.3345 8.87901 8.26836 10.4449 6.84525 11.918C5.28887 13.5315 5.06042 13.7361 5.06042 13.7361C5.06042 13.7361 3.90622 11.7014 3.69204 10.947C3.54931 10.5354 3.55436 10.0869 3.70632 9.67861C3.97761 8.79809 3.96096 8.38163 3.89908 7.4083C3.88718 7.23934 3.87528 7.07513 3.861 6.90855C3.85145 6.8296 3.84747 6.75008 3.8491 6.67057C3.8491 6.59204 3.84911 6.52778 3.76105 6.49447C3.69406 6.47669 3.62286 6.48432 3.56115 6.51588C3.4603 6.56797 3.37126 6.64028 3.29961 6.72832C3.22795 6.81635 3.17522 6.91821 3.14469 7.02754C3.08717 7.24689 3.04738 7.47052 3.0257 7.69626C3.0019 7.86998 2.8615 7.72957 2.80676 7.65342C2.52833 7.28217 2.51167 6.68009 2.46645 6.22555C2.46614 5.93623 2.44306 5.64739 2.39744 5.36169C2.35734 5.17974 2.26368 5.01397 2.12852 4.88573C2.03095 4.80244 1.91672 4.75961 1.82391 4.88573C1.77822 4.9719 1.75145 5.06683 1.74538 5.16417C1.74487 5.26087 1.72332 5.35629 1.68222 5.44383C1.64113 5.53136 1.58147 5.6089 1.5074 5.67106C1.39165 5.73576 1.28518 5.81581 1.19089 5.90904C1.0911 6.0446 1.02799 6.20362 1.00765 6.37072C0.914839 6.35168 0.769672 6.45401 0.710178 6.63725C0.593673 7.06813 0.562947 7.51769 0.619745 7.96041C0.663366 8.49519 0.801129 9.01805 1.02669 9.50489C1.21342 9.95319 1.37237 10.4126 1.50264 10.8804C1.79297 12.1845 2.38554 14.9403 3.10185 16.7323C3.97285 18.8765 4.96522 18.2553 6.38119 16.9108Z" fill="#C8856A"/>
<path d="M4.42992 12.539L4.09913 11.8845C3.84711 12.2418 3.4965 12.518 3.0901 12.6794C2.729 12.8602 2.32232 12.9298 1.92163 12.8793L2.0668 13.5218C2.50948 13.511 2.94653 13.4199 3.35664 13.2529C3.75453 13.0816 4.11815 12.8397 4.42992 12.539Z" fill="#F0F0F0"/>
<path d="M10.8076 8.73633C8.82997 9.0814 7.64722 10.771 6.61201 11.9086C5.68628 12.92 5.06278 13.653 5.06278 13.653L4.32266 12.2632C4.32266 12.2632 4.11562 12.7558 3.26366 13.1437C2.4117 13.5316 2 13.3483 2 13.3483C2 13.3483 2.67348 15.9994 3.18989 17.137C3.65395 18.146 4.43214 18.7742 5.58871 17.8176C7.01658 16.642 10.4244 13.2817 10.4244 13.2817L10.8076 8.73633Z" fill="#BA68C8"/>
<path opacity="0.15" d="M5.0603 13.6528C5.57909 14.5357 5.84325 15.2853 5.79327 15.8659C6.1193 15.2139 5.88133 14.1644 5.34112 13.3291L5.0603 13.6528Z" fill="black"/>
<path d="M17.709 19.4738C17.609 18.7598 17.1021 18.6432 17.3496 16.9131C17.471 16.0564 17.9017 13.8408 17.9017 13.8408C17.9017 13.8408 16.4287 12.7057 16.8999 9.39302L15.3292 8.75523L14.4653 8.44824L12.0427 8.55295L10.8076 8.89088C10.1182 9.41408 9.50256 10.0281 8.97757 10.7162C8.07325 11.9917 7.91143 13.3982 8.83478 14.4477C8.83478 14.6523 8.80623 17.8103 8.56825 18.579C8.41131 18.9378 8.40275 19.3442 8.54445 19.7094C9.42973 21.1658 14.7009 22.6531 17.709 19.4738Z" fill="#FAFAFA"/>
<path d="M12.0427 8.55298L10.8052 8.7386C9.61527 9.63578 8.20407 11.254 8.12315 12.501C8.07386 13.2395 8.26869 13.9736 8.67764 14.5905C8.67764 14.5905 8.69668 17.1249 8.40635 18.4624C8.11602 19.7998 7.79474 23.3838 7.79474 23.3838C7.79474 23.3838 7.76857 23.6075 8.76332 23.8883C9.06793 22.1701 9.81994 15.8708 9.77948 14.3573C9.73902 12.8437 9.70809 10.4568 12.0427 8.55298Z" fill="#BA68C8"/>
<path opacity="0.3" d="M12.0427 8.55298L10.8052 8.7386C9.61527 9.63578 8.20407 11.254 8.12315 12.501C8.07386 13.2395 8.26869 13.9736 8.67764 14.5905C8.67764 14.5905 8.69668 17.1249 8.40635 18.4624C8.11602 19.7998 7.79474 23.3838 7.79474 23.3838C7.79474 23.3838 7.76857 23.6075 8.76332 23.8883C9.06793 22.1701 9.81994 15.8708 9.77948 14.3573C9.73902 12.8437 9.70809 10.4568 12.0427 8.55298Z" fill="black"/>
<path opacity="0.2" d="M9.59388 15.0591C9.49393 14.6593 9.38684 14.2595 9.27737 13.8693C9.1679 13.479 9.06319 13.072 8.96562 12.6794C8.91495 12.4821 8.8768 12.2818 8.85139 12.0797C8.85168 11.9846 8.87319 11.8909 8.91436 11.8052C8.95554 11.7196 9.01533 11.6442 9.08937 11.5847C9.37765 11.2951 9.69687 11.0382 10.0413 10.8184L10.0722 10.797V10.7589C10.0342 10.5424 10.0342 10.3209 10.0722 10.1044C10.1073 9.88562 10.184 9.67556 10.2983 9.4857C10.4291 9.30143 10.59 9.14053 10.7742 9.00974C10.9556 8.87538 11.1511 8.76126 11.3573 8.66943C11.1426 8.74585 10.938 8.84814 10.7481 8.97405C10.5518 9.0991 10.3813 9.26067 10.2459 9.45C10.1166 9.64366 10.0276 9.86137 9.98417 10.0902C9.93773 10.3199 9.9329 10.556 9.96989 10.7874L9.99368 10.7279C9.63818 10.949 9.3092 11.2101 9.01321 11.5061C8.93983 11.5846 8.87519 11.6707 8.82045 11.7631C8.8052 11.7877 8.7932 11.8141 8.78476 11.8417C8.77099 11.8678 8.76136 11.8959 8.7562 11.925C8.74793 11.9818 8.74793 12.0395 8.7562 12.0963C8.78392 12.3035 8.82526 12.5086 8.87995 12.7103C8.9799 13.1125 9.10603 13.5051 9.22977 13.9002C9.35352 14.2952 9.46537 14.6665 9.59388 15.0591Z" fill="black"/>
<path d="M15.3292 8.75513C14.8453 9.45586 14.4399 10.2076 14.1202 10.9969C13.4254 12.5723 12.759 14.0025 12.7709 15.4542C12.7828 16.9059 13.2588 24.4522 13.2588 24.4522C13.2588 24.4522 15.3482 24.7663 17.2425 24.0048L17.0878 21.0848L17.8018 23.8667C17.8018 23.8667 18.7085 23.5431 19.0416 23.2408C18.549 20.2042 17.4448 18.7645 17.3901 17.6436C17.352 16.8726 18.0064 14.7403 18.1302 12.8174C18.1805 11.6887 18.1006 10.558 17.8922 9.44764L15.3292 8.75513Z" fill="#BA68C8"/>
<path opacity="0.3" d="M15.3292 8.75513C14.8453 9.45586 14.4399 10.2076 14.1202 10.9969C13.4254 12.5723 12.759 14.0025 12.7709 15.4542C12.7828 16.9059 13.2588 24.4522 13.2588 24.4522C13.2588 24.4522 15.3482 24.7663 17.2425 24.0048L17.0878 21.0848L17.8018 23.8667C17.8018 23.8667 18.7085 23.5431 19.0416 23.2408C18.549 20.2042 17.4448 18.7645 17.3901 17.6436C17.352 16.8726 18.0064 14.7403 18.1302 12.8174C18.1805 11.6887 18.1006 10.558 17.8922 9.44764L15.3292 8.75513Z" fill="black"/>
<path opacity="0.2" d="M13.0469 15.8946C13.1778 15.5281 13.3719 15.1874 13.6204 14.888C13.8584 14.5762 14.113 14.2835 14.3748 13.9979C14.5057 13.8528 14.6389 13.71 14.7722 13.5672L14.9721 13.3554C15.0078 13.3173 15.0387 13.284 15.0744 13.2412C15.0843 13.231 15.0931 13.2198 15.1006 13.2078C15.1096 13.19 15.1175 13.1718 15.1244 13.1531C15.1329 13.1205 15.1369 13.0869 15.1363 13.0532C15.1022 12.8492 15.033 12.6527 14.9317 12.4725C14.8388 12.2964 14.7389 12.1274 14.6318 11.9608V12.056L15.2291 11.4539L15.5266 11.1493L15.6004 11.0732L15.6361 11.0327C15.6561 11.0153 15.6737 10.9953 15.6884 10.9732C15.7029 10.9304 15.7077 10.8849 15.7027 10.84C15.7027 10.8019 15.7027 10.7638 15.7027 10.7281C15.6527 10.4457 15.5851 10.1668 15.5004 9.8928C15.4148 9.61913 15.3291 9.34783 15.2315 9.0813C15.3005 9.35735 15.3695 9.63341 15.4314 9.90946C15.4994 10.184 15.5527 10.4621 15.5909 10.7424C15.6008 10.8015 15.6008 10.8618 15.5909 10.9209C15.5909 10.9042 15.5909 10.9209 15.5718 10.9375L15.5314 10.9756L15.4552 11.0494L15.1458 11.3468L14.5342 11.9466L14.4914 11.9894L14.5247 12.0441C14.627 12.2059 14.7222 12.3773 14.8103 12.5463C14.9016 12.7071 14.9667 12.8814 15.0031 13.0627C15.0045 13.0777 15.0045 13.0928 15.0031 13.1079C15.0031 13.1079 14.9888 13.1245 14.984 13.1317C14.9793 13.1388 14.9221 13.2031 14.8912 13.2388L14.6937 13.4553C14.5628 13.6005 14.4295 13.7457 14.301 13.8932C14.0488 14.1931 13.8036 14.5001 13.5871 14.8237C13.4754 14.9859 13.3745 15.1552 13.2849 15.3306C13.177 15.5052 13.0967 15.6955 13.0469 15.8946Z" fill="black"/>
<path d="M15.1769 6.48731C15.342 6.51817 15.5122 6.50664 15.6716 6.45378C15.831 6.40092 15.9744 6.30846 16.0884 6.18508C16.5857 5.6877 16.6547 5.16177 16.4501 4.79766C16.3626 4.63875 16.2192 4.51794 16.0478 4.45859C15.8764 4.39925 15.689 4.40559 15.522 4.47639C15.1793 4.67154 15.1603 4.8405 15.0246 5.07134C14.889 5.30218 14.5701 5.10228 14.7224 4.1575C14.087 3.82195 14.4844 2.76533 14.1512 2.30603C13.6324 1.5921 12.7234 1.72537 12.4187 1.87529C12.2461 1.74244 12.0403 1.65953 11.8237 1.63561C11.6072 1.61169 11.3883 1.64768 11.1908 1.73965C10.7434 1.95383 10.2579 2.38457 10.2817 4.06707C9.86524 5.84715 10.2103 6.98944 10.5911 7.37497C10.8528 7.63674 11.4835 7.85092 12.0927 7.85092V8.69574C12.0927 8.69574 10.3388 10.4782 12.5687 10.4139C14.2464 10.3663 14.8628 8.83139 14.8628 8.83139L14.8199 6.21363C14.8199 6.21363 14.8533 6.41115 15.1769 6.48731Z" fill="#C8856A"/>
<path d="M12.9924 3.33167L13.6159 3.61011C13.6517 3.52466 13.6532 3.42869 13.6199 3.34223C13.5866 3.25576 13.5213 3.18548 13.4374 3.14605C13.3962 3.12792 13.3517 3.11836 13.3066 3.11793C13.2615 3.11751 13.2168 3.12624 13.1752 3.1436C13.1336 3.16095 13.096 3.18657 13.0645 3.21889C13.0331 3.25122 13.0086 3.28959 12.9924 3.33167Z" fill="#263238"/>
<path d="M10.5981 3.29847L11.2835 3.15092C11.2765 3.10648 11.2604 3.06395 11.2363 3.02598C11.2121 2.98801 11.1804 2.95541 11.1432 2.93019C11.1059 2.90498 11.0639 2.88769 11.0196 2.8794C10.9754 2.87111 10.93 2.872 10.8861 2.882C10.7934 2.9005 10.7116 2.95428 10.6579 3.03199C10.6042 3.1097 10.5827 3.20525 10.5981 3.29847Z" fill="#263238"/>
<path d="M12.7615 5.82568L11.8096 6.0351C11.8215 6.09679 11.8456 6.1555 11.8803 6.20785C11.9151 6.2602 11.9598 6.30515 12.0121 6.3401C12.0643 6.37506 12.1229 6.39933 12.1845 6.41152C12.2462 6.4237 12.3096 6.42357 12.3712 6.41111C12.4985 6.38144 12.6097 6.30439 12.6822 6.19563C12.7547 6.08688 12.783 5.9546 12.7615 5.82568Z" fill="#AF6152"/>
<path d="M12.1855 6.41122C12.2078 6.29988 12.2669 6.19925 12.3532 6.12546C12.4395 6.05167 12.5481 6.009 12.6615 6.00428C12.694 6.00183 12.7266 6.00183 12.7591 6.00428C12.7412 6.10257 12.6949 6.19348 12.626 6.2658C12.5571 6.33811 12.4685 6.38867 12.3712 6.41122C12.31 6.42427 12.2467 6.42427 12.1855 6.41122Z" fill="#F28F8F"/>
<path d="M10.6504 3.95538C10.6285 4.00575 10.6219 4.06151 10.6315 4.11562C10.6412 4.16973 10.6666 4.21977 10.7046 4.25945C10.7427 4.29912 10.7916 4.32665 10.8453 4.33857C10.8989 4.35049 10.9549 4.34626 11.0061 4.32642C11.0574 4.30658 11.1016 4.27201 11.1333 4.22708C11.1649 4.18214 11.1826 4.12884 11.184 4.0739C11.1854 4.01895 11.1705 3.96482 11.1412 3.91832C11.1119 3.87182 11.0695 3.83503 11.0193 3.81259C10.9857 3.79758 10.9495 3.78936 10.9128 3.78842C10.876 3.78748 10.8394 3.79383 10.8051 3.80711C10.7708 3.82038 10.7395 3.84032 10.7129 3.86577C10.6864 3.89122 10.6652 3.92168 10.6504 3.95538Z" fill="#263238"/>
<path d="M12.7925 4.0694C12.7626 4.13699 12.7606 4.21361 12.7869 4.28265C12.8132 4.3517 12.8656 4.40761 12.9329 4.43826C12.9831 4.46066 13.0389 4.46767 13.0931 4.45841C13.1473 4.44915 13.1976 4.42404 13.2376 4.38624C13.2775 4.34843 13.3054 4.29964 13.3177 4.24601C13.3299 4.19238 13.326 4.13631 13.3064 4.0849C13.2869 4.03348 13.2525 3.98902 13.2077 3.95712C13.1629 3.92521 13.1096 3.9073 13.0546 3.90564C12.9996 3.90399 12.9454 3.91865 12.8987 3.9478C12.8521 3.97694 12.8151 4.01925 12.7925 4.0694Z" fill="#263238"/>
<path d="M12.1118 3.71948L11.8881 5.5305L10.9053 5.19495C11.1837 4.49291 11.6311 3.79326 12.1118 3.71948Z" fill="#AF6152"/>
<path d="M12.0926 7.83903C12.966 7.83903 14.0179 7.56297 14.3582 7.01562C14.1559 7.61533 13.5277 7.9009 13.0303 8.01513C12.719 8.09513 12.3997 8.13983 12.0784 8.1484L12.0926 7.83903Z" fill="#AF6152"/>
<path d="M19.256 23.9525C19.4559 23.7455 19.7105 23.5623 19.7962 23.2767C19.8218 23.2038 19.8298 23.1259 19.8195 23.0494C19.8091 22.9728 19.7808 22.8999 19.7367 22.8364C19.7148 22.8131 19.6978 22.7856 19.6867 22.7555C19.6808 22.7289 19.6808 22.7012 19.6867 22.6746C19.7167 22.5672 19.7117 22.453 19.6725 22.3486C19.6533 22.3052 19.6252 22.2665 19.5899 22.2349C19.5546 22.2033 19.513 22.1796 19.4678 22.1653C19.5213 22.0047 19.5213 21.831 19.4678 21.6703C19.4083 21.4823 19.2179 21.3276 19.087 21.5347C19.025 21.6381 18.9732 21.7473 18.9323 21.8607C18.8302 22.143 18.7607 22.436 18.7253 22.7341C18.6872 23.0435 18.5944 23.924 19.0751 23.974C19.1227 23.9763 19.2298 23.9811 19.256 23.9525Z" fill="#AF6152"/>
<path d="M17.452 9.6311C19.2987 10.019 19.4724 10.6044 20.5457 12.1465C21.619 13.6886 22.9564 15.7947 23.2848 16.542C23.6917 17.4677 23.775 17.8199 22.7755 18.7742C22.2591 19.2668 21.5428 19.8499 20.8098 20.5115C20.2339 21.0326 19.5414 21.5847 18.9822 22.1249C18.9074 22.1829 18.8506 22.2608 18.8182 22.3496C18.7858 22.4384 18.7791 22.5346 18.7989 22.6271C18.836 22.7498 18.8662 22.8746 18.8893 23.0007C18.8857 23.1652 18.869 23.3291 18.8394 23.4909C18.8256 23.5726 18.8357 23.6566 18.8687 23.7326C18.9016 23.8087 18.9559 23.8735 19.025 23.9193C19.1 23.9513 19.1821 23.9628 19.263 23.9526C19.1233 24.0542 18.9693 24.1344 18.806 24.1906C18.6402 24.2445 18.4602 24.2343 18.3015 24.162C18.1516 24.0859 18.0421 23.9407 17.8827 23.8884C17.797 23.8622 17.7042 23.8646 17.6162 23.8384C17.5266 23.8114 17.4476 23.7574 17.3901 23.6837C17.302 23.5671 17.2687 23.4005 17.1402 23.3267C17.0783 23.2934 17.0069 23.2863 16.9403 23.2577C16.8768 23.2248 16.8221 23.1771 16.7807 23.1188C16.7393 23.0604 16.7124 22.993 16.7023 22.9222C16.6836 22.7794 16.6901 22.6344 16.7214 22.4938C16.7867 22.1127 16.8725 21.7353 16.9784 21.3634C17.0222 21.2386 17.0866 21.122 17.1688 21.0184C17.2592 20.8946 17.3449 20.7804 17.4401 20.6495C18.0945 19.8523 20.1697 17.1893 20.1697 17.1893L17.8779 14.186C17.3837 13.5446 17.0814 12.7764 17.006 11.9702C16.9306 11.164 17.0852 10.353 17.452 9.6311Z" fill="#C8856A"/>
<path d="M20.1602 17.1892C20.7123 17.7532 21.588 17.8151 21.9093 17.8032C21.584 17.9299 21.2296 17.962 20.8868 17.8959C20.5441 17.8298 20.227 17.6681 19.9722 17.4296L20.1602 17.1892Z" fill="#AF6152"/>
<path d="M21.3286 20.0592L20.8074 20.5114C20.307 20.4347 19.8535 20.1731 19.5366 19.7784C18.9583 19.0883 19.0035 18.5885 19.0035 18.5885L19.6056 17.9055L21.3286 20.0592Z" fill="#F0F0F0"/>
<path d="M17.4306 9.32886C18.7561 9.61919 19.0036 9.80481 19.9508 11.1232C20.8979 12.4416 22.4971 14.9785 22.9136 15.6448C23.33 16.3111 23.9512 17.4296 23.5918 17.996C23.2325 18.5624 21.262 20.2235 21.262 20.2235C20.7514 20.1505 20.2838 19.8973 19.9436 19.5096C19.751 19.3288 19.5967 19.1111 19.49 18.8695C19.3833 18.6279 19.3263 18.3672 19.3225 18.1031L20.0531 17.1869C20.0531 17.1869 18.0089 14.5525 17.6376 14.067C17.2664 13.5815 16.4525 11.9371 17.4306 9.32886Z" fill="#BA68C8"/>
<path opacity="0.15" d="M20.0532 17.1869C20.3173 16.8895 20.967 16.4016 21.4406 16.3207C20.9432 16.2326 20.2031 16.5896 19.8533 16.9156L20.0532 17.1869Z" fill="black"/>
</svg>
