<svg width="36" height="46" viewBox="0 0 36 46" fill="none" xmlns="http://www.w3.org/2000/svg">
<path d="M10.4116 28.9028V29.7476C10.4108 30.5524 10.6332 31.3416 11.0542 32.0274C11.0851 32.0798 11.1184 32.1298 11.1517 32.1797V32.194C11.1803 32.2369 11.2112 32.2797 11.2422 32.3202C11.5994 32.8121 12.0556 33.224 12.5814 33.5293C13.1072 33.8347 13.691 34.0267 14.2954 34.0931H14.3287H14.3954C14.438 34.0994 14.4809 34.1034 14.5239 34.105H14.7738C15.6753 34.0629 16.551 33.7909 17.3177 33.3149L17.689 33.0983C20.9041 31.2445 23.5076 26.7348 23.5076 23.0247V22.5964C23.5076 22.5131 23.5076 22.4322 23.5076 22.3584V22.1942C23.5088 21.4671 23.328 20.7512 22.9816 20.1119C22.9688 20.0842 22.9545 20.0572 22.9388 20.031L22.9055 19.9715C22.8745 19.9167 22.8412 19.8644 22.8079 19.812L22.7532 19.7311L22.7079 19.6669C22.6865 19.6335 22.6603 19.6026 22.6366 19.5717L22.5937 19.5217C22.2355 19.0576 21.7871 18.6707 21.2755 18.3844C20.7638 18.0981 20.1996 17.9183 19.6166 17.8558C19.4848 17.8395 19.352 17.8315 19.2192 17.8321H19.1526C18.2475 17.8726 17.3681 18.1455 16.5991 18.6245L16.2278 18.8387C13.0151 20.6806 10.4116 25.1903 10.4116 28.9028ZM12.5939 29.1146C12.5939 25.9828 14.7928 22.1751 17.5034 20.6093C20.2139 19.0434 22.4152 20.3118 22.4152 23.446C22.4152 26.5801 20.2282 30.3854 17.5034 31.9513C14.7785 33.5172 12.5939 32.2488 12.5939 29.1146Z" fill="#455A64"/>
<path d="M11.5017 29.531V29.9593C11.5017 31.7941 12.1395 33.0887 13.1676 33.7051L13.2175 33.7336C13.2271 33.7405 13.2375 33.7461 13.2485 33.7503L13.2699 33.7622L13.3508 33.805C13.4055 33.8336 13.4603 33.8574 13.5174 33.8812L13.5935 33.9121L13.6864 33.9455L13.772 33.974C13.8387 33.9954 13.9053 34.0121 13.9767 34.0287L14.0838 34.0525L14.198 34.0716L14.3241 34.0906H14.3908C14.4334 34.0969 14.4763 34.1009 14.5193 34.1025H14.7168C15.6366 34.0695 16.5317 33.7962 17.3131 33.31L17.6844 33.0935C20.8995 31.2396 23.5029 26.73 23.5029 23.0199V22.5915C23.5029 22.5082 23.5029 22.4273 23.5029 22.3535C23.5029 22.2798 23.5029 22.2179 23.5029 22.1536C23.5029 22.1298 23.5029 22.1037 23.5029 22.0799L23.4887 21.9014V21.8681C23.4887 21.7991 23.4744 21.73 23.4649 21.6634C23.4553 21.5968 23.4482 21.542 23.4387 21.4849C23.4292 21.4278 23.4268 21.4135 23.4197 21.3802C23.4078 21.3088 23.3935 21.235 23.3768 21.166C23.3602 21.097 23.3459 21.0423 23.3316 20.9804C23.3007 20.8709 23.2697 20.7615 23.2316 20.6568C23.2126 20.5996 23.1912 20.5425 23.1698 20.4854C23.1299 20.3816 23.0846 20.2799 23.0341 20.1808C23.0221 20.1531 23.0086 20.1261 22.9937 20.0999C22.9808 20.0722 22.9665 20.0452 22.9508 20.019L22.9175 19.9595C22.8866 19.9047 22.8533 19.8524 22.82 19.8L22.7652 19.7191L22.72 19.6549C22.6986 19.6216 22.6724 19.5906 22.6486 19.5597C22.6248 19.5287 22.5986 19.5002 22.5748 19.4716C22.551 19.4431 22.5249 19.4121 22.4987 19.3836C22.4478 19.3267 22.3937 19.2727 22.3368 19.2218L22.2536 19.1456C22.1977 19.0954 22.1389 19.0485 22.0775 19.0052L21.9846 18.9409L21.8918 18.8814L21.8704 18.8695L21.7919 18.8196C20.74 18.2341 19.3003 18.3293 17.7106 19.2455L17.3393 19.4621C14.1076 21.3112 11.5017 25.8209 11.5017 29.531ZM12.594 29.1145C12.594 25.9827 14.7929 22.1751 17.5035 20.6092C20.2141 19.0433 22.4154 20.3117 22.4154 23.4459C22.4154 26.58 20.2284 30.3853 17.5035 31.9512C14.7787 33.5171 12.594 32.2487 12.594 29.1145Z" fill="#263238"/>
<path d="M13.8503 31.1467C14.6285 32.0724 15.9731 32.2033 17.5033 31.3204C19.9164 29.9282 21.8702 26.5442 21.8702 23.7598C21.8702 22.5152 21.4799 21.6014 20.8326 21.0945C21.2824 21.6276 21.5465 22.4248 21.5465 23.4457C21.5465 26.2277 19.5928 29.6141 17.182 31.0063C15.847 31.7773 14.6523 31.7749 13.8503 31.1467Z" fill="#BA68C8"/>
<path opacity="0.2" d="M13.8503 31.1467C14.6285 32.0724 15.9731 32.2033 17.5033 31.3204C19.9164 29.9282 21.8702 26.5442 21.8702 23.7598C21.8702 22.5152 21.4799 21.6014 20.8326 21.0945C21.2824 21.6276 21.5465 22.4248 21.5465 23.4457C21.5465 26.2277 19.5928 29.6141 17.182 31.0063C15.847 31.7773 14.6523 31.7749 13.8503 31.1467Z" fill="black"/>
<path d="M12.594 29.1147C12.594 32.2488 14.7929 33.5173 17.5035 31.9514C20.214 30.3855 22.4153 26.5778 22.4153 23.4436C22.4153 20.3095 20.2164 19.0434 17.5035 20.6093C14.7905 22.1752 12.594 25.9829 12.594 29.1147ZM13.139 28.8005C13.139 26.0162 15.0928 22.6321 17.5035 21.24C19.9142 19.8478 21.8704 20.9758 21.8704 23.7602C21.8704 26.5445 19.9166 29.9286 17.5035 31.3207C15.0904 32.7129 13.139 31.5849 13.139 28.8005Z" fill="#BA68C8"/>
<path d="M13.2865 27.4153C13.2865 27.3654 13.308 27.3178 13.3175 27.2678L17.1251 26.2492L17.2132 26.1207L14.4169 24.5072C14.4384 24.4692 14.4622 24.4311 14.486 24.393L17.2751 26.0017L17.3417 25.8637L16.3327 22.0989L16.4445 21.999L17.4369 25.7019L17.5725 25.5496L18.5482 20.79L18.6934 20.752L17.7296 25.4568L17.8819 25.433L20.4997 20.8947C20.5377 20.9162 20.5782 20.9352 20.6163 20.959L17.9985 25.4996L18.0556 25.6448L21.6872 22.4249C21.7015 22.4725 21.7133 22.5201 21.7276 22.5677L18.0461 25.8328L17.9795 26.0255L21.7491 25.0165L21.7205 25.1617L17.889 26.1898L17.801 26.3159L20.6567 27.9627C20.6353 28.0008 20.6139 28.0412 20.5901 28.0793L17.7344 26.4325L17.6677 26.5705L18.7053 30.44L18.5935 30.5424L17.5725 26.7347L17.4369 26.8894L16.4326 31.7965L16.2875 31.8322L17.2798 26.9917L17.1251 27.0155L14.4479 31.6418L14.3337 31.5728L17.0109 26.937L16.9538 26.7942L13.2937 30.0474C13.2794 29.9998 13.2675 29.9498 13.2556 29.8998L16.9633 26.6134L17.0299 26.4206L13.2865 27.4153Z" fill="#EBEBEB"/>
<path d="M15.614 27.0822C15.614 27.5938 15.7925 27.9579 16.0781 28.1316L16.3161 28.2649C16.4754 28.3637 16.6625 28.4079 16.8491 28.391C16.8883 28.3877 16.9272 28.3821 16.9657 28.3744H17.0014L17.0942 28.3482C17.1171 28.3444 17.1394 28.338 17.1609 28.3292L17.2275 28.303L17.3251 28.2649C17.382 28.2384 17.4376 28.209 17.4917 28.1769C17.9682 27.8664 18.3648 27.448 18.6492 26.9555C18.9337 26.463 19.0981 25.9104 19.129 25.3425C19.129 25.2783 19.129 25.2188 19.129 25.1593V25.0998C19.129 25.0641 19.129 25.0284 19.1123 24.9927C19.0956 24.957 19.1123 24.9451 19.0956 24.9213C19.079 24.8975 19.0837 24.8666 19.0766 24.8428L19.048 24.7666C19.0412 24.7456 19.0332 24.725 19.0242 24.7048C19.0138 24.6795 19.0018 24.6549 18.9885 24.631L18.9624 24.5858C18.9474 24.5593 18.9307 24.5339 18.9124 24.5096L18.891 24.4811L18.8267 24.4097L18.8101 24.393L18.7292 24.3264L18.6649 24.2859C18.5864 24.2383 18.5102 24.205 18.4483 24.1646C18.1509 23.9789 17.7344 23.9956 17.2584 24.2645C16.7828 24.5725 16.3862 24.988 16.1005 25.4774C15.8149 25.9668 15.6483 26.5165 15.614 27.0822ZM17.6701 27.4225C17.5321 27.1607 17.5083 26.6419 17.6701 26.4468C17.832 26.2516 17.8344 26.5372 18.2603 26.3159C18.3588 26.2635 18.4541 26.2054 18.5459 26.1421C18.3507 26.6076 18.0698 27.0322 17.7177 27.3939L17.6701 27.4225ZM16.6825 25.4068C16.6873 25.3911 16.6937 25.376 16.7016 25.3616C16.9829 24.9984 17.3512 24.7119 17.7725 24.5287C17.7493 24.9705 17.5971 25.3958 17.3346 25.7519C17.3062 25.6995 17.2632 25.6565 17.2109 25.6281L16.9586 25.4853C16.9372 25.4718 16.9139 25.4613 16.8896 25.4544C16.8226 25.4309 16.7531 25.4149 16.6825 25.4068ZM18.3722 24.4549C18.5641 24.6883 18.6647 24.9834 18.6554 25.2854C18.6197 25.5972 18.0961 25.9089 17.7749 25.9613C17.7868 25.7995 17.9938 25.7233 18.1318 25.2307C18.2437 24.8309 18.2342 24.5215 18.3722 24.462V24.4549ZM16.4208 27.9175C16.414 27.9123 16.4083 27.9058 16.4041 27.8984C16.2732 27.6914 16.7777 26.9965 17.118 26.7323C17.0752 26.8881 17.0752 27.0525 17.118 27.2083C17.2061 27.5319 17.3965 27.6842 17.2251 27.8389C16.9779 27.9704 16.6887 27.9986 16.4208 27.9175ZM16.0876 27.244C16.0962 26.8223 16.191 26.4069 16.366 26.0232C16.4176 25.9377 16.4978 25.8734 16.5924 25.8416C16.6869 25.8097 16.7897 25.8125 16.8824 25.8494C16.9327 25.8888 16.9703 25.942 16.9906 26.0025C17.0109 26.0629 17.013 26.1281 16.9967 26.1897C16.911 26.4444 16.7706 26.2802 16.4136 26.7561C16.2708 26.937 16.1661 27.1155 16.0805 27.244H16.0876Z" fill="#E0E0E0"/>
<path opacity="0.2" d="M15.614 27.0822C15.614 27.5938 15.7925 27.9579 16.0781 28.1316L16.3161 28.2649C16.4754 28.3637 16.6625 28.4079 16.8491 28.391C16.8883 28.3877 16.9272 28.3821 16.9657 28.3744H17.0014L17.0942 28.3482C17.1171 28.3444 17.1394 28.338 17.1609 28.3292L17.2275 28.303L17.3251 28.2649C17.382 28.2384 17.4376 28.209 17.4917 28.1769C17.9682 27.8664 18.3648 27.448 18.6492 26.9555C18.9337 26.463 19.0981 25.9104 19.129 25.3425C19.129 25.2783 19.129 25.2188 19.129 25.1593V25.0998C19.129 25.0641 19.129 25.0284 19.1123 24.9927C19.0956 24.957 19.1123 24.9451 19.0956 24.9213C19.079 24.8975 19.0837 24.8666 19.0766 24.8428L19.048 24.7666C19.0412 24.7456 19.0332 24.725 19.0242 24.7048C19.0138 24.6795 19.0018 24.6549 18.9885 24.631L18.9624 24.5858C18.9474 24.5593 18.9307 24.5339 18.9124 24.5096L18.891 24.4811L18.8267 24.4097L18.8101 24.393L18.7292 24.3264L18.6649 24.2859C18.5864 24.2383 18.5102 24.205 18.4483 24.1646C18.1509 23.9789 17.7344 23.9956 17.2584 24.2645C16.7828 24.5725 16.3862 24.988 16.1005 25.4774C15.8149 25.9668 15.6483 26.5165 15.614 27.0822ZM17.6701 27.4225C17.5321 27.1607 17.5083 26.6419 17.6701 26.4468C17.832 26.2516 17.8344 26.5372 18.2603 26.3159C18.3588 26.2635 18.4541 26.2054 18.5459 26.1421C18.3507 26.6076 18.0698 27.0322 17.7177 27.3939L17.6701 27.4225ZM16.6825 25.4068C16.6873 25.3911 16.6937 25.376 16.7016 25.3616C16.9829 24.9984 17.3512 24.7119 17.7725 24.5287C17.7493 24.9705 17.5971 25.3958 17.3346 25.7519C17.3062 25.6995 17.2632 25.6565 17.2109 25.6281L16.9586 25.4853C16.9372 25.4718 16.9139 25.4613 16.8896 25.4544C16.8226 25.4309 16.7531 25.4149 16.6825 25.4068ZM18.3722 24.4549C18.5641 24.6883 18.6647 24.9834 18.6554 25.2854C18.6197 25.5972 18.0961 25.9089 17.7749 25.9613C17.7868 25.7995 17.9938 25.7233 18.1318 25.2307C18.2437 24.8309 18.2342 24.5215 18.3722 24.462V24.4549ZM16.4208 27.9175C16.414 27.9123 16.4083 27.9058 16.4041 27.8984C16.2732 27.6914 16.7777 26.9965 17.118 26.7323C17.0752 26.8881 17.0752 27.0525 17.118 27.2083C17.2061 27.5319 17.3965 27.6842 17.2251 27.8389C16.9779 27.9704 16.6887 27.9986 16.4208 27.9175ZM16.0876 27.244C16.0962 26.8223 16.191 26.4069 16.366 26.0232C16.4176 25.9377 16.4978 25.8734 16.5924 25.8416C16.6869 25.8097 16.7897 25.8125 16.8824 25.8494C16.9327 25.8888 16.9703 25.942 16.9906 26.0025C17.0109 26.0629 17.013 26.1281 16.9967 26.1897C16.911 26.4444 16.7706 26.2802 16.4136 26.7561C16.2708 26.937 16.1661 27.1155 16.0805 27.244H16.0876Z" fill="black"/>
<path d="M15.8684 27.2249C15.8684 28.2696 16.599 28.6908 17.5033 28.1768C17.9798 27.8663 18.3764 27.4479 18.6609 26.9554C18.9454 26.4629 19.1097 25.9103 19.1406 25.3425C19.1406 24.2977 18.4076 23.8741 17.5033 24.3905C17.0274 24.7014 16.6314 25.12 16.3473 25.6124C16.0633 26.1048 15.8992 26.6572 15.8684 27.2249ZM17.5081 25.9541C17.3129 26.0326 17.47 25.7161 17.1392 25.5947C16.8774 25.5019 16.5942 25.5947 16.7013 25.3567C16.8084 25.1188 17.5866 24.5 17.9103 24.4953C18.2339 24.4905 17.7937 25.8351 17.5081 25.9541ZM18.905 25.4353C18.855 25.8755 17.8246 26.3229 17.7746 26.0231C17.7413 25.8184 17.9793 25.7851 18.1316 25.2377C18.2506 24.8046 18.2315 24.4786 18.3981 24.45C18.5647 24.4215 18.955 24.995 18.905 25.4353ZM17.6723 26.4467C17.846 26.2396 17.8365 26.5371 18.2625 26.3158C18.5956 26.1444 18.8693 25.8589 18.8646 26.0659C18.8598 26.2729 18.3243 27.2558 17.9698 27.5342C17.6152 27.8127 17.4176 26.7489 17.6723 26.4467ZM17.3415 26.6371C17.4819 26.7132 17.2392 26.9345 17.3415 27.351C17.4295 27.6746 17.6199 27.827 17.451 27.9816C17.282 28.1363 16.5585 28.1744 16.3896 27.9055C16.2206 27.6366 17.1345 26.5252 17.3415 26.6371ZM16.1183 27.539C16.0183 27.4295 16.1183 26.4657 16.3563 26.0231C16.5942 25.5804 17.3653 25.9612 17.2368 26.3325C17.1511 26.5847 17.0107 26.4229 16.6537 26.8965C16.3753 27.2701 16.2206 27.6485 16.1183 27.539Z" fill="#E0E0E0"/>
<path d="M17.5034 26.8586C17.2274 27.018 17.0037 26.8895 17.0037 26.5682C17.0131 26.3948 17.0633 26.2259 17.1501 26.0754C17.2369 25.9249 17.358 25.797 17.5034 25.702C17.7818 25.5425 18.0055 25.6711 18.0055 25.99C17.9966 26.1641 17.9464 26.3337 17.8591 26.4847C17.7718 26.6357 17.6499 26.7639 17.5034 26.8586Z" fill="#455A64"/>
<path d="M3.41765 37.7247L5.34766 33.6528L5.96402 32.3535C6.37155 31.4967 7.01456 30.7736 7.81787 30.2688V30.8447C7.20525 31.2865 6.71411 31.8759 6.39 32.5581L6.0949 33.1793L7.58465 32.3344V32.8842L5.74032 33.9289L3.83649 37.9293C3.81721 37.9698 3.78687 38.004 3.74897 38.028C3.71108 38.052 3.66717 38.0648 3.62232 38.065C3.58709 38.065 3.55225 38.0577 3.51999 38.0435C3.46435 38.0146 3.42239 37.9649 3.40323 37.9051C3.38407 37.8454 3.38925 37.7806 3.41765 37.7247Z" fill="#FAFAFA"/>
<path d="M8.83154 32.0059C9.5074 33.2839 9.28846 34.9093 9.26466 35.4638C9.24087 36.0183 9.51692 35.9088 9.67399 35.4638C9.83105 35.0187 10.2475 33.1935 9.54072 31.6038L8.83154 32.0059Z" fill="#EBEBEB"/>
<path d="M7.53931 35.9731C7.57058 35.4151 7.73245 34.8722 8.01187 34.3882C8.29129 33.9042 8.68046 33.4925 9.14804 33.1864C9.624 32.9175 10.0333 32.908 10.326 33.1031L11.0114 33.491L8.7054 37.4105L8.02954 37.025C7.72969 36.8584 7.53931 36.4967 7.53931 35.9731Z" fill="#455A64"/>
<path d="M9.87631 33.6027C9.40794 33.908 9.01817 34.3195 8.73865 34.8037C8.45913 35.2879 8.29773 35.8312 8.26758 36.3894C8.26758 37.4151 8.98151 37.8316 9.87631 37.3176C10.3445 37.0126 10.7342 36.6016 11.0137 36.1178C11.2932 35.634 11.4547 35.0911 11.485 34.5332C11.485 33.5052 10.764 33.0911 9.87631 33.6027Z" fill="#263238"/>
<path d="M9.8762 34.8068C9.71113 34.914 9.57375 35.0587 9.47531 35.2291C9.37686 35.3995 9.32016 35.5908 9.30981 35.7873C9.30981 36.149 9.56207 36.2966 9.8762 36.1157C10.0411 36.0078 10.1782 35.8626 10.2766 35.6918C10.375 35.5211 10.4319 35.3296 10.4426 35.1329C10.4426 34.7735 10.188 34.626 9.8762 34.8068Z" fill="black"/>
<path d="M9.30981 31.9512C9.98329 33.2268 9.76435 34.8521 9.74055 35.4066C9.71676 35.9611 9.99519 35.854 10.1499 35.4066C10.3046 34.9592 10.7234 33.1387 10.019 31.5466L9.30981 31.9512Z" fill="#FAFAFA"/>
<path d="M7.60106 32.5867L14.3358 28.5886V29.3026L8.5958 32.6985L7.85331 33.1411L7.72243 33.2173C7.67047 33.248 7.61099 33.2637 7.55064 33.2626C7.49029 33.2615 7.43142 33.2437 7.3806 33.2112C7.32977 33.1786 7.28899 33.1326 7.26278 33.0782C7.23658 33.0238 7.22599 32.9632 7.23219 32.9032L7.29169 32.2559L7.60106 32.5867Z" fill="#37474F"/>
<path d="M12.1846 44.4262L15.4139 42.5628L5.0833 36.5967L1.85156 38.4624L12.1846 44.4262Z" fill="#BA68C8"/>
<path d="M15.4139 42.5627V43.3076L12.1846 45.171V44.4261L15.4139 42.5627Z" fill="#BA68C8"/>
<path opacity="0.3" d="M15.4139 42.5627V43.3076L12.1846 45.171V44.4261L15.4139 42.5627Z" fill="black"/>
<path d="M1.85156 38.4622V39.207L12.1846 45.1708V44.4259L1.85156 38.4622Z" fill="#BA68C8"/>
<path opacity="0.15" d="M1.85156 38.4622V39.207L12.1846 45.1708V44.4259L1.85156 38.4622Z" fill="black"/>
<path d="M19.6905 35.6184C19.6749 35.5911 19.6542 35.5672 19.6293 35.548C19.6045 35.5288 19.5761 35.5147 19.5458 35.5065C19.5155 35.4983 19.4839 35.4962 19.4527 35.5003C19.4216 35.5044 19.3916 35.5146 19.3645 35.5303L19.1598 35.647C18.2815 36.1545 17.5785 36.9173 17.1441 37.834L16.5301 39.1333L14.6001 43.2051C14.5732 43.262 14.5698 43.3272 14.5907 43.3865C14.6117 43.4458 14.6553 43.4944 14.712 43.5216C14.7439 43.5371 14.7789 43.5452 14.8143 43.5454C14.8596 43.5458 14.904 43.5332 14.9423 43.5092C14.9807 43.4851 15.0114 43.4507 15.0309 43.4098L16.9347 39.4094L19.3145 38.0577C19.3418 38.042 19.3658 38.0212 19.3851 37.9963C19.4044 37.9714 19.4186 37.9429 19.4269 37.9125C19.4352 37.8822 19.4374 37.8504 19.4334 37.8192C19.4294 37.788 19.4193 37.7578 19.4037 37.7305C19.3881 37.7031 19.3672 37.6791 19.3423 37.6598C19.3174 37.6405 19.289 37.6263 19.2586 37.6181C19.2282 37.6098 19.1965 37.6076 19.1652 37.6115C19.134 37.6155 19.1038 37.6256 19.0765 37.6412L17.2845 38.6598L17.5772 38.0386C17.9697 37.2087 18.6066 36.5186 19.4025 36.061L19.6048 35.9444C19.6319 35.9287 19.6556 35.9078 19.6745 35.8828C19.6935 35.8579 19.7074 35.8295 19.7153 35.7992C19.7233 35.7689 19.7252 35.7373 19.7209 35.7063C19.7167 35.6753 19.7063 35.6454 19.6905 35.6184Z" fill="#F5F5F5"/>
<path d="M19.8096 38.3101C20.483 39.5856 20.2641 41.211 20.2403 41.7655C20.2165 42.32 20.4949 42.2129 20.652 41.7655C20.8091 41.3181 21.2232 39.4976 20.5187 37.9055L19.8096 38.3101Z" fill="#E0E0E0"/>
<path d="M18.5173 42.2771C18.5467 41.7186 18.7078 41.1751 18.9874 40.6907C19.267 40.2064 19.6572 39.7951 20.1261 39.4904C20.602 39.2214 21.009 39.2095 21.3041 39.4071L21.9894 39.8045L19.681 43.7264L19.0052 43.3385C18.7053 43.1624 18.5173 42.7983 18.5173 42.2771Z" fill="#455A64"/>
<path d="M20.8519 39.9067C20.3834 40.2118 19.9935 40.6233 19.714 41.1075C19.4344 41.5917 19.2731 42.1351 19.2432 42.6934C19.2432 43.7191 19.9571 44.1332 20.8519 43.6215C21.3203 43.3162 21.71 42.9048 21.9896 42.4206C22.2691 41.9364 22.4305 41.3931 22.4606 40.8348C22.4606 39.8044 21.7419 39.3927 20.8519 39.9067Z" fill="#37474F"/>
<path d="M20.8518 41.1087C20.6869 41.2166 20.5498 41.3618 20.4514 41.5326C20.353 41.7033 20.2961 41.8948 20.2854 42.0916C20.2854 42.4509 20.54 42.5985 20.8518 42.4176C21.0169 42.3104 21.1542 42.1658 21.2527 41.9953C21.3511 41.8249 21.4078 41.6336 21.4182 41.4371C21.4182 41.0754 21.1659 40.9302 20.8518 41.1087Z" fill="#263238"/>
<path d="M20.2854 38.2552C20.9613 39.5332 20.7423 41.1585 20.7185 41.713C20.6947 42.2675 20.9708 42.1581 21.1278 41.713C21.2849 41.268 21.7014 39.4427 20.9946 37.853L20.2854 38.2552Z" fill="#F5F5F5"/>
<path d="M30.6089 15.0547L29.9854 13.9791L32.615 12.4631C32.6648 12.4384 32.7204 12.4278 32.7757 12.4324C32.8311 12.4371 32.8841 12.4567 32.9291 12.4893C33.0572 12.5728 33.1637 12.6852 33.2402 12.8175C33.3167 12.9498 33.3609 13.0983 33.3694 13.2509C33.3746 13.304 33.3659 13.3576 33.3442 13.4064C33.3225 13.4552 33.2886 13.4975 33.2457 13.5293L30.6089 15.0547Z" fill="#455A64"/>
<path d="M30.7349 14.7715C30.7349 15.05 30.5397 15.1642 30.297 15.0238C30.1695 14.9406 30.0634 14.8285 29.9873 14.6966C29.9112 14.5647 29.8673 14.4167 29.8591 14.2646C29.8591 13.9838 30.0543 13.8696 30.297 14.01C30.4247 14.0936 30.5309 14.2061 30.607 14.3384C30.6831 14.4707 30.7269 14.6191 30.7349 14.7715Z" fill="#37474F"/>
<path d="M30.2734 14.2575C30.2549 14.2448 30.2337 14.2363 30.2115 14.2326C30.1893 14.2289 30.1666 14.2301 30.1449 14.2361L30.1092 14.2575L28.2744 15.3141L28.8598 15.652L30.3853 14.7715L30.4519 14.7334C30.4756 14.702 30.4874 14.6632 30.4852 14.624C30.4806 14.5507 30.4591 14.4795 30.4223 14.4159C30.3856 14.3523 30.3346 14.2981 30.2734 14.2575Z" fill="#E0E0E0"/>
<path d="M22.8889 10.5951L22.2678 9.51948L24.8856 8.00356C24.9356 7.97945 24.9913 7.96938 25.0466 7.97441C25.1019 7.97943 25.1548 7.99938 25.1997 8.03212C25.3279 8.11478 25.4347 8.2267 25.5113 8.35868C25.5878 8.49065 25.6319 8.63891 25.64 8.79126C25.6451 8.84441 25.6364 8.89798 25.6148 8.94677C25.5931 8.99556 25.5591 9.03791 25.5162 9.0697L22.8889 10.5951Z" fill="#455A64"/>
<path d="M23.0173 10.3118C23.0173 10.5903 22.8198 10.7045 22.577 10.5641C22.4495 10.4809 22.3434 10.3688 22.2673 10.2369C22.1912 10.105 22.1473 9.95698 22.1392 9.80493C22.1392 9.52412 22.3343 9.40988 22.577 9.55029C22.7051 9.63375 22.8116 9.74618 22.8881 9.87848C22.9646 10.0108 23.0088 10.1592 23.0173 10.3118Z" fill="#37474F"/>
<path d="M22.5557 9.79786C22.5366 9.78524 22.5151 9.77681 22.4925 9.77312C22.4699 9.76943 22.4469 9.77056 22.4248 9.77644L22.3891 9.79786L20.5566 10.8545L21.1397 11.1924L22.6651 10.3119L22.7318 10.2738C22.7554 10.2424 22.7672 10.2036 22.7651 10.1643C22.7607 10.0913 22.7395 10.0202 22.7032 9.95661C22.6669 9.89305 22.6164 9.83872 22.5557 9.79786Z" fill="#E0E0E0"/>
<path d="M20.9279 14.0625L22.1821 14.7764L10.5354 20.2904C10.1893 20.5094 9.89316 20.799 9.6664 21.1401C9.43965 21.4813 9.28734 21.8664 9.2194 22.2704L7.61544 32.5939C7.61042 32.622 7.59873 32.6485 7.58132 32.6712C7.56392 32.6939 7.54132 32.7121 7.51543 32.7242C7.48954 32.7363 7.46112 32.7421 7.43255 32.7409C7.40398 32.7398 7.37612 32.7318 7.35128 32.7176C7.29179 32.6843 7.25609 32.6176 7.2775 32.3678L8.18896 21.4017C8.29264 20.6667 8.67845 20.0009 9.26462 19.5455L20.9279 14.0625Z" fill="#455A64"/>
<path d="M20.0475 33.0341L29.7213 27.4464C29.8992 27.3302 30.0472 27.1738 30.1535 26.9899C30.2597 26.8059 30.3212 26.5995 30.3329 26.3874V25.8162C30.3214 25.6041 30.26 25.3976 30.1537 25.2136C30.0474 25.0296 29.8993 24.8733 29.7213 24.7572L20.0475 19.1719C19.8584 19.0757 19.6492 19.0256 19.4371 19.0256C19.2249 19.0256 19.0158 19.0757 18.8267 19.1719L9.15286 24.7572C8.97485 24.8733 8.82671 25.0296 8.72045 25.2136C8.61418 25.3976 8.5528 25.6041 8.54126 25.8162V26.3945C8.5528 26.6067 8.61418 26.8131 8.72045 26.9971C8.82671 27.1811 8.97485 27.3375 9.15286 27.4535L18.8267 33.0341C19.0158 33.1302 19.2249 33.1804 19.4371 33.1804C19.6492 33.1804 19.8584 33.1302 20.0475 33.0341Z" fill="#BA68C8"/>
<path opacity="0.3" d="M19.8689 33.1126C19.9313 33.0937 19.9913 33.0674 20.0474 33.0341L29.7212 27.444C29.8991 27.3285 30.0473 27.1726 30.1536 26.989C30.2599 26.8053 30.3213 26.5992 30.3328 26.3874V25.8162C30.3219 25.6277 30.272 25.4435 30.1864 25.2751C30.1008 25.1068 29.9813 24.958 29.8354 24.8381C30.0544 25.0333 30.0139 25.2927 29.7212 25.464L20.095 31.0208L19.8689 33.1126Z" fill="black"/>
<path opacity="0.15" d="M8.54126 25.8162V26.3945C8.55241 26.6064 8.61365 26.8127 8.71997 26.9964C8.82628 27.1801 8.97464 27.3359 9.15286 27.4511L18.8267 33.0365C18.9869 33.1171 19.1615 33.1651 19.3404 33.1778C19.5194 33.1904 19.699 33.1675 19.869 33.1103L20.0951 31.0208L20.0475 31.047C19.8587 31.1443 19.6494 31.195 19.4371 31.195C19.2247 31.195 19.0154 31.1443 18.8267 31.047L9.15286 25.464C8.85777 25.2927 8.81969 25.0309 9.03863 24.8381C8.89283 24.9581 8.77339 25.1069 8.6878 25.2752C8.60221 25.4436 8.55233 25.6277 8.54126 25.8162Z" fill="black"/>
<path d="M16.6063 21.1588L26.2825 26.7441C26.5015 26.86 26.7498 26.9089 26.9964 26.8845C27.0329 26.887 27.0694 26.887 27.1059 26.8845H27.1297H27.1939L27.2915 26.8607C27.3634 26.8386 27.4328 26.8091 27.4985 26.7727L27.9959 26.4847C28.3669 26.2435 28.6303 25.8684 28.7313 25.4376L30.2091 17.1964C30.2167 17.146 30.2207 17.0951 30.221 17.0441C30.221 17.0251 30.221 17.0037 30.221 16.9846C30.2133 16.882 30.1909 16.781 30.1544 16.6848C30.0888 16.5052 29.9772 16.346 29.8307 16.2231L29.7903 16.1898C29.7689 16.1749 29.7467 16.1614 29.7236 16.1493L20.0498 10.564C19.8607 10.4678 19.6516 10.4177 19.4394 10.4177C19.2273 10.4177 19.0181 10.4678 18.829 10.564L18.3293 10.8496C18.2215 10.9154 18.123 10.9955 18.0365 11.0875C18.0194 11.1047 18.0035 11.1229 17.9889 11.1423C17.922 11.2163 17.8615 11.2959 17.8081 11.3802C17.7962 11.3969 17.7867 11.4159 17.7748 11.435C17.7651 11.4511 17.7564 11.4678 17.7486 11.485C17.7343 11.5088 17.7224 11.5326 17.7105 11.5563C17.6986 11.5801 17.6867 11.6039 17.6772 11.6277C17.6682 11.648 17.6603 11.6686 17.6534 11.6896L17.6415 11.7182C17.6415 11.7372 17.6296 11.7539 17.6248 11.7729C17.6201 11.7919 17.6106 11.8205 17.6058 11.8419C17.601 11.8592 17.597 11.8766 17.5939 11.8943L16.1232 20.1069C16.0951 20.31 16.1256 20.517 16.2112 20.7033C16.2968 20.8897 16.4339 21.0477 16.6063 21.1588Z" fill="#BA68C8"/>
<path d="M28.4885 18.1889L27.0178 26.4015C27.0087 26.4828 26.9788 26.5603 26.9311 26.6266C26.8834 26.693 26.8194 26.7459 26.7453 26.7803C26.6711 26.8148 26.5894 26.8295 26.5079 26.8232C26.4264 26.8169 26.3479 26.7897 26.28 26.7442L16.6062 21.1589C16.4359 21.0473 16.3008 20.8897 16.2165 20.7043C16.1323 20.5189 16.1024 20.3135 16.1303 20.1118L17.601 11.8992C17.6112 11.8202 17.6412 11.745 17.6881 11.6806C17.7349 11.6162 17.7972 11.5645 17.8692 11.5304C17.9412 11.4963 18.0206 11.4808 18.1001 11.4854C18.1797 11.4899 18.2568 11.5144 18.3244 11.5565L27.9982 17.1418C28.1712 17.2516 28.3091 17.4084 28.396 17.5939C28.4828 17.7794 28.5149 17.9858 28.4885 18.1889Z" fill="#BA68C8"/>
<path opacity="0.15" d="M28.4885 18.1889L27.0178 26.4015C27.0087 26.4828 26.9788 26.5603 26.9311 26.6266C26.8834 26.693 26.8194 26.7459 26.7453 26.7803C26.6711 26.8148 26.5894 26.8295 26.5079 26.8232C26.4264 26.8169 26.3479 26.7897 26.28 26.7442L16.6062 21.1589C16.4359 21.0473 16.3008 20.8897 16.2165 20.7043C16.1323 20.5189 16.1024 20.3135 16.1303 20.1118L17.601 11.8992C17.6112 11.8202 17.6412 11.745 17.6881 11.6806C17.7349 11.6162 17.7972 11.5645 17.8692 11.5304C17.9412 11.4963 18.0206 11.4808 18.1001 11.4854C18.1797 11.4899 18.2568 11.5144 18.3244 11.5565L27.9982 17.1418C28.1712 17.2516 28.3091 17.4084 28.396 17.5939C28.4828 17.7794 28.5149 17.9858 28.4885 18.1889Z" fill="black"/>
<path opacity="0.3" d="M26.5298 26.842C26.6848 26.8836 26.8458 26.8981 27.0057 26.8848C27.0422 26.8873 27.0788 26.8873 27.1152 26.8848L27.2009 26.8705L27.2984 26.8467C27.3703 26.8246 27.4397 26.7951 27.5055 26.7587L28.0029 26.4707C28.3738 26.2295 28.6373 25.8544 28.7382 25.4236L30.2089 17.1967C30.2165 17.1463 30.2205 17.0954 30.2208 17.0444C30.2208 17.0254 30.2208 17.0039 30.2208 16.9849C30.2131 16.8823 30.1907 16.7813 30.1542 16.6851L28.4265 17.6727C28.4948 17.839 28.5162 18.0209 28.4883 18.1986L27.0153 26.4088C27.0079 26.5282 26.9538 26.6398 26.8647 26.7195C26.7756 26.7993 26.6587 26.8407 26.5393 26.8348C26.5366 26.8378 26.5334 26.8402 26.5298 26.842Z" fill="black"/>
<path d="M3.76753 38.4956C4.58855 37.7246 5.312 36.2896 5.8427 35.4162C6.21807 34.6736 6.5363 33.9035 6.79461 33.1125L9.84073 33.5885C9.43855 34.4238 9.09347 35.2282 8.93641 35.6161L8.88168 36.054C8.85611 36.2811 8.74967 36.4914 8.58182 36.6465C8.40572 36.8202 8.22486 36.9821 8.0321 37.1391C7.52282 37.558 6.53521 38.5242 5.85697 39.2191C4.8765 40.221 3.77467 40.3495 2.79658 40.2257C1.81849 40.102 2.23258 39.7783 2.36108 39.6593C2.48959 39.5403 3.58904 38.6622 3.76753 38.4956Z" fill="#FFA8A7"/>
<path d="M8.61986 38.1814C8.61986 38.6835 8.14391 39.9353 8.14391 39.9353C8.05077 40.0598 7.92854 40.1597 7.7879 40.226C7.64726 40.2924 7.4925 40.3233 7.33716 40.3161L7.64177 38.3123L8.61986 38.1814Z" fill="#263238"/>
<path d="M7.33966 40.3184L5.11694 39.2571L5.38586 37.9172L7.64427 38.3147L7.33966 40.3184Z" fill="black"/>
<path d="M9.06241 35.9778C9.09097 35.9088 9.12429 35.8279 9.1457 35.7565C9.16556 35.6975 9.16148 35.633 9.13434 35.577C9.1072 35.5209 9.05916 35.4777 9.00054 35.4567C8.9785 35.5098 8.95306 35.5615 8.92439 35.6114C8.87203 35.6399 8.78398 35.7018 8.40797 35.6804C8.24158 35.6745 8.07672 35.6465 7.91774 35.5971C7.75353 35.5423 7.28472 35.3282 7.12052 35.271C7.07555 35.2537 7.0282 35.2432 6.9801 35.2401C6.88456 35.2563 6.79915 35.3093 6.74213 35.3877C6.62314 35.5209 6.53985 35.6256 6.40658 35.7827C6.34947 35.8493 6.27093 35.9469 6.21381 36.0207C6.16581 36.0833 6.10598 36.1358 6.03771 36.1754C6.03375 36.168 6.03168 36.1599 6.03168 36.1516C6.03168 36.1432 6.03375 36.1351 6.03771 36.1278C6.10741 35.7233 6.10176 35.3094 6.02105 34.9069C6.01894 34.8812 6.0099 34.8565 5.99488 34.8355C5.98883 34.8274 5.98119 34.8207 5.97242 34.8157C5.96366 34.8106 5.95396 34.8075 5.94392 34.8064C5.93388 34.8052 5.92371 34.8062 5.91405 34.8092C5.9044 34.8121 5.89546 34.8171 5.88778 34.8236C5.63994 35.4135 5.34218 35.9812 4.99775 36.5204C4.61312 37.1326 4.11177 37.663 3.52228 38.0816C2.17771 39.0049 1.64464 39.2976 1.22104 39.676C0.576119 40.2495 1.17106 40.8492 2.89878 41.2371C4.07677 41.5037 5.41421 41.1943 5.89731 40.7612C6.3804 40.3281 6.68739 39.4404 7.07054 39.1239C7.45368 38.8074 8.358 38.5908 8.61739 38.1863C8.61818 38.1792 8.61818 38.172 8.61739 38.1648C8.72258 37.988 8.80267 37.7974 8.85537 37.5985C8.90584 37.3581 8.93294 37.1134 8.93628 36.8679V36.7822C8.94818 36.6537 8.9577 36.5252 8.96722 36.3943C8.97467 36.2711 8.99541 36.149 9.0291 36.0302C9.03875 36.0119 9.04989 35.9943 9.06241 35.9778Z" fill="#37474F"/>
<path d="M22.6393 20.0904C22.6687 20.444 22.6615 20.7997 22.6179 21.1518C22.5084 22.0918 22.1681 23.8219 20.0001 25.1807C17.8321 26.5396 12.8013 28.0817 12.5228 28.5124C12.2444 28.9432 12.1206 30.2354 10.9617 32.2249C9.80274 34.2144 9.36248 34.7451 9.36248 34.7451C8.09644 34.845 6.9827 34.4666 6.37109 33.7741C6.37109 33.7741 6.76614 32.282 7.24448 30.2378C8.11072 26.5467 8.56287 25.1427 9.38628 24.374C10.2097 23.6053 18.1391 19.3574 18.1391 19.3574C18.1391 19.3574 19.0839 19.9976 22.6393 20.0904Z" fill="#37474F"/>
<path d="M17.9654 20.395C17.1277 22.3274 17.6822 23.5958 17.6822 23.5958C15.4714 25.2212 13.2653 26.8442 12.9226 28.2435L12.9702 28.2269C14.2981 27.6034 18.101 26.3445 19.9453 25.2093L17.9654 20.395Z" fill="#263238"/>
<path d="M14.2647 22.8225C13.5721 23.3461 12.2609 24.1742 11.7992 24.5145C11.4272 24.7627 11.0846 25.0526 10.7783 25.3784C10.5267 25.6643 10.3175 25.9848 10.1572 26.3303C10.0144 26.6849 9.86683 27.0585 9.7288 27.4226L9.30044 28.5245C9.01645 29.259 8.71977 29.9896 8.4104 30.7162C8.60792 29.9523 8.83162 29.1932 9.0815 28.4459C9.33138 27.6987 9.59077 26.9562 9.89776 26.2161C10.0707 25.8456 10.3003 25.5044 10.5784 25.2047C10.9373 24.8429 11.3365 24.5235 11.7683 24.2528C12.5656 23.7177 13.3998 23.2398 14.2647 22.8225Z" fill="#263238"/>
<path d="M6.56609 33.1721C6.93734 33.967 8.96967 34.4263 9.76214 34.2287L9.25525 35.1807C9.25525 35.1807 8.77929 35.3877 7.5894 35.0474C6.39951 34.7071 6.29004 34.1478 6.29004 34.1478L6.56609 33.1721Z" fill="#263238"/>
<path d="M8.00825 41.1301C8.82928 40.3591 9.55273 38.9241 10.0834 38.0507C10.4588 37.3081 10.777 36.538 11.0353 35.7471L14.0815 36.223C13.6793 37.0583 13.3342 37.8627 13.1771 38.2506L13.1224 38.6885C13.0968 38.9156 12.9904 39.1259 12.8226 39.281C12.6464 39.4548 12.4656 39.6166 12.2728 39.7737C11.7635 40.1925 10.7759 41.1587 10.0977 41.8536C9.11723 42.8555 8.0154 42.984 7.03731 42.8602C6.05922 42.7365 6.47329 42.4128 6.6018 42.2938C6.73031 42.1749 7.82977 41.2967 8.00825 41.1301Z" fill="#FFA8A7"/>
<path d="M12.8511 40.8159C12.8511 41.3181 12.3751 42.5674 12.3751 42.5674C12.2822 42.6924 12.1601 42.7927 12.0195 42.8595C11.8788 42.9263 11.7239 42.9576 11.5684 42.9506L11.873 40.9468L12.8511 40.8159Z" fill="#263238"/>
<path d="M11.5804 42.9529L9.35767 41.8915L9.6242 40.5493L11.885 40.9491L11.5804 42.9529Z" fill="black"/>
<path d="M13.3033 38.6146C13.3318 38.5456 13.3651 38.4646 13.3866 38.3932C13.4064 38.3342 13.4023 38.2697 13.3752 38.2137C13.348 38.1576 13.3 38.1144 13.2414 38.0934C13.2128 38.1481 13.1843 38.2243 13.1652 38.2481C13.1462 38.2719 13.0224 38.3385 12.6488 38.3171C12.4814 38.3114 12.3157 38.2826 12.1562 38.2314C11.9944 38.1767 11.5256 37.9625 11.3614 37.9078C11.3167 37.8894 11.2692 37.8789 11.221 37.8768C11.1734 37.8841 11.1278 37.9009 11.0869 37.9263C11.046 37.9517 11.0106 37.985 10.983 38.0244C10.864 38.1576 10.7807 38.2624 10.6474 38.4194C10.5903 38.4861 10.5118 38.5836 10.4523 38.6574C10.4045 38.7193 10.3456 38.7717 10.2786 38.8121C10.2746 38.8048 10.2725 38.7966 10.2725 38.7883C10.2725 38.78 10.2746 38.7718 10.2786 38.7645C10.3483 38.36 10.3426 37.9461 10.2619 37.5437C10.2598 37.5179 10.2507 37.4933 10.2357 37.4723C10.2299 37.464 10.2224 37.457 10.2137 37.4518C10.205 37.4465 10.1953 37.4431 10.1853 37.4418C10.1752 37.4405 10.165 37.4412 10.1553 37.444C10.1455 37.4468 10.1365 37.4516 10.1286 37.458C9.88363 38.0521 9.58742 38.6239 9.24335 39.1667C8.85804 39.7783 8.35681 40.3086 7.7679 40.7278C6.42332 41.6512 5.89025 41.9439 5.46664 42.3223C4.82172 42.8958 5.41667 43.4931 7.14439 43.8834C8.32238 44.1499 9.65982 43.8406 10.1429 43.4074C10.626 42.9743 10.933 42.0867 11.3161 41.7702C11.6993 41.4536 12.6131 41.2323 12.8511 40.8159V40.7944C12.9559 40.6174 13.0359 40.4268 13.0891 40.2281C13.1395 39.9877 13.1666 39.743 13.17 39.4975V39.4118C13.1819 39.2833 13.1914 39.1548 13.2009 39.0239C13.2084 38.9006 13.2291 38.7786 13.2628 38.6598C13.2751 38.6437 13.2886 38.6285 13.3033 38.6146Z" fill="#37474F"/>
<path d="M26.4325 19.6836C26.7109 21.071 27.0227 22.0872 26.9513 23.6698C26.9084 24.6217 26.5015 26.3399 24.3335 27.6987C22.1655 29.0576 17.1323 30.5997 16.8539 31.0304C16.5754 31.4612 16.4517 32.7534 15.2927 34.7429C14.1338 36.7324 13.6959 37.2631 13.6959 37.2631C12.4275 37.363 11.3161 36.9846 10.7021 36.2921C10.7021 36.2921 11.0996 34.7976 11.5779 32.7558C12.4418 29.0647 12.8963 27.932 13.7197 27.1633C14.5431 26.3946 18.1413 23.7102 18.1413 23.7102C18.1413 23.7102 17.782 23.0772 17.6987 21.3638C17.6641 20.662 17.8222 19.9641 18.1556 19.3457C18.1556 19.3457 22.5225 20.2072 26.4325 19.6836Z" fill="#37474F"/>
<path d="M23.4363 21.1804C23.408 21.6434 23.3142 22.1001 23.1579 22.5369C23.0039 22.9749 22.807 23.3966 22.5701 23.7958C22.3311 24.1935 22.0554 24.568 21.7467 24.9143C21.4418 25.2614 21.0985 25.5727 20.7234 25.8424C21.0185 25.4878 21.3041 25.1285 21.573 24.7739C21.8419 24.4193 22.0941 24.0362 22.3226 23.6483C22.5543 23.2638 22.7641 22.8665 22.9509 22.4584C23.1383 22.0425 23.3004 21.6158 23.4363 21.1804Z" fill="#263238"/>
<path d="M23.7483 21.2422C23.8303 21.6267 23.8615 22.0204 23.8411 22.413C23.8254 22.8049 23.7784 23.1948 23.7007 23.5791C23.624 23.9634 23.5181 24.3413 23.3842 24.7095C23.258 25.0812 23.0852 25.4354 22.8701 25.7638C22.982 25.3901 23.0795 25.0189 23.17 24.6453C23.2604 24.2716 23.3461 23.898 23.4198 23.522C23.4936 23.146 23.5602 22.77 23.6174 22.3916C23.6745 22.0132 23.7173 21.6325 23.7483 21.2422Z" fill="#263238"/>
<path d="M17.8226 25.7185C17.2515 26.2635 16.0497 27.1868 15.4833 27.7294C15.2025 28.0031 14.9288 28.2792 14.6789 28.5766C14.4272 28.862 14.2188 29.1827 14.0602 29.5285C13.915 29.8831 13.7675 30.2544 13.6294 30.6209L13.2011 31.7227C12.9171 32.4557 12.6204 33.1863 12.311 33.9145C12.5094 33.1482 12.733 32.3906 12.9821 31.6418C13.2344 30.8922 13.4914 30.152 13.7984 29.4143C13.971 29.0437 14.2007 28.7024 14.479 28.4029C14.7475 28.1074 15.0344 27.8292 15.3381 27.57C15.945 27.0512 17.1848 26.1826 17.8226 25.7185Z" fill="#263238"/>
<path d="M10.8071 35.8066C11.1783 36.6015 13.2106 37.0608 14.0031 36.8633L13.4962 37.8152C13.4962 37.8152 13.0203 38.0222 11.8304 37.6819C10.6405 37.3416 10.531 36.7823 10.531 36.7823L10.8071 35.8066Z" fill="#263238"/>
<path d="M26.5158 18.7935C25.8019 19.1457 24.612 19.5384 22.7343 19.4313C20.8567 19.3242 18.91 18.6841 18.3889 18.1177L18.1509 19.3385C18.1509 19.3385 19.2503 20.3832 22.463 20.5665C25.3664 20.7307 26.6419 19.724 26.6419 19.724L26.5158 18.7935Z" fill="#455A64"/>
<path d="M21.097 9.66945C20.6687 9.65517 20.1451 9.55522 19.9071 9.1578C19.5288 9.322 18.4293 9.26727 18.6125 8.68184C18.2933 8.73272 17.9661 8.67502 17.6835 8.51797C17.4009 8.36092 17.1792 8.1136 17.0538 7.8156C17.2671 7.90828 17.5029 7.93641 17.732 7.89651C16.9134 7.79894 16.3874 6.78278 16.911 6.10454C17.3037 5.59051 18.2722 5.44772 18.3151 4.69571C15.9519 0.719098 24.6286 -1.25374 25.2783 2.8133C26.8371 3.51296 26.2516 5.10503 26.5372 6.44961C26.7228 7.32775 27.363 8.11546 26.7752 8.88412C26.8088 8.53216 26.7463 8.17767 26.5943 7.85844C26.7561 9.19111 24.8833 10.0169 23.8552 9.35532C23.5839 9.69801 22.6201 9.77654 22.2798 9.37436C21.9187 9.57595 21.5105 9.6778 21.097 9.66945Z" fill="#263238"/>
<path d="M16.5018 11.1948C15.8331 11.9992 14.7265 13.0986 13.6461 14.3361L13.4081 14.1219C12.9179 13.6603 12.4324 13.1962 11.9564 12.7226C11.7184 12.4847 11.4614 12.2253 11.2235 11.9682C11.1354 11.873 11.0473 11.7755 10.9641 11.6731C10.7451 11.409 10.7998 11.0306 10.7879 10.7212C10.7858 10.3238 10.7306 9.92844 10.6237 9.54563C10.5857 9.42188 10.5405 9.30765 10.5 9.17914C10.415 8.91751 10.3615 8.64669 10.3406 8.37239C10.3415 8.29931 10.326 8.22694 10.2953 8.16059C10.212 8.01067 10.0288 8.07968 9.93123 8.17249C9.83519 8.28251 9.77902 8.42168 9.77178 8.56754C9.73133 8.87215 9.78606 9.17676 9.77178 9.48375C9.77178 9.60036 9.72419 9.73839 9.61234 9.76218C9.58149 9.76747 9.54981 9.76526 9.51999 9.75574C9.49016 9.74621 9.46307 9.72965 9.441 9.70745C9.31288 9.56977 9.20182 9.41716 9.11021 9.25291L8.76038 8.7246C8.5581 8.41999 8.3582 8.10824 8.12974 7.82266C7.8275 7.44904 7.59191 7.40382 7.46816 7.54661C7.39676 7.6299 7.55383 7.90596 7.87748 8.49852C8.20113 9.09109 8.46291 9.47185 8.42245 9.49803C8.382 9.52421 8.17257 9.08395 7.73707 8.54612C7.33727 8.05588 7.13499 7.84646 6.87797 7.75841C6.62095 7.67036 6.54242 7.85598 6.63999 8.02495C6.73756 8.19391 6.91605 8.47711 7.46816 9.21484C7.64405 9.43668 7.80315 9.67134 7.94411 9.91687C7.9108 9.96923 7.58714 9.58608 7.11595 9.1839C6.85142 8.93497 6.56376 8.71185 6.25685 8.51756C6.22888 8.50108 6.19643 8.49381 6.1641 8.4968C6.13177 8.49978 6.1012 8.51286 6.07672 8.53418C6.05224 8.55551 6.03509 8.58399 6.0277 8.6156C6.0203 8.64722 6.02304 8.68035 6.03553 8.71032C6.17371 8.94273 6.33734 9.15904 6.52339 9.35524C6.78754 9.67175 6.90891 9.77408 7.12547 10.0002C7.2754 10.1548 7.46578 10.3595 7.44436 10.3904C7.42294 10.4214 6.54242 9.82168 6.25447 9.71935C5.93082 9.60274 5.87132 9.86452 6.06646 10.0692C6.18069 10.1858 6.6281 10.5451 7.03028 10.9521C7.32299 11.2495 7.64902 11.6517 7.82274 11.8255C8.66757 12.675 8.80797 12.6036 9.1816 13.0391C9.55522 13.4746 10.2097 14.5146 11.0116 15.576C11.6732 16.4517 12.3919 17.3156 12.6775 17.6036C13.5342 18.4627 14.0673 18.051 15.1073 17.199C16.203 16.2383 17.2047 15.1753 18.0986 14.0244L20.2404 9.42664C18.6888 9.32907 17.6536 9.80502 16.5018 11.1948Z" fill="#FFA8A7"/>
<path d="M9.41696 10.2405C9.30367 10.4288 9.23115 10.6388 9.2041 10.8568C9.17704 11.0749 9.19605 11.2962 9.25989 11.5065C9.28131 11.5708 9.30987 11.6327 9.33605 11.6945C9.39322 11.7907 9.44487 11.89 9.49073 11.992C9.49073 12.0087 9.49073 12.0396 9.46218 12.0277C9.39484 11.9795 9.33814 11.9179 9.29559 11.8468C9.24478 11.7712 9.20021 11.6917 9.16232 11.6089C9.08503 11.4469 9.03978 11.2716 9.02906 11.0924C9.02028 10.9297 9.05097 10.7672 9.11851 10.6189C9.18605 10.4705 9.28844 10.3407 9.41696 10.2405Z" fill="#F28F8F"/>
<path d="M20.1166 9.29102C18.9648 9.35527 18.4151 9.57183 17.7368 10.0192C17.1144 10.4254 16.5629 10.9311 16.1043 11.5161C15.5022 12.2158 13.6555 14.2505 13.6555 14.2505C14.0836 14.7178 14.3743 15.2943 14.4956 15.9163C14.6229 16.5647 14.5489 17.2364 14.2838 17.8416C14.2838 17.8416 14.8002 17.675 15.7997 16.7278C16.7992 15.7807 18.2818 14.3861 18.2818 14.3861L20.1166 9.29102Z" fill="#EBEBEB"/>
<path d="M13.7695 13.9434C13.6244 14.1147 13.6077 14.0552 13.4863 13.9958C13.4576 13.9762 13.4236 13.9658 13.3888 13.9658C13.354 13.9658 13.32 13.9762 13.2912 13.9958L13.4649 14.1695C13.5595 14.7651 13.5022 15.3749 13.2983 15.9424C13.2068 16.1945 13.0655 16.4256 12.8827 16.6218C12.6999 16.8181 12.4795 16.9755 12.2346 17.0847L12.0728 16.892C12.0361 16.9334 12.0082 16.9819 11.9907 17.0345C11.9733 17.087 11.9668 17.1426 11.9714 17.1977C11.9761 17.2529 11.9919 17.3066 12.0179 17.3554C12.0439 17.4043 12.0796 17.4474 12.1227 17.4821C12.2132 17.5702 12.3345 17.6178 12.4297 17.6987C12.5249 17.7796 12.6225 17.9057 12.7272 18.0009C12.8103 18.0932 12.9002 18.1791 12.9961 18.2579C13.1318 18.3378 13.2872 18.3779 13.4445 18.3737C13.6019 18.3694 13.7549 18.3211 13.8861 18.2341C14.0099 18.1604 14.1241 18.0676 14.2479 17.9962C14.3716 17.9248 14.4859 17.9105 14.5977 17.8605C14.7493 17.7898 14.8827 17.6853 14.9875 17.5549C15.0923 17.4245 15.1657 17.2718 15.2022 17.1085C15.2557 16.8364 15.2629 16.5572 15.2236 16.2827C15.1787 15.9847 15.1062 15.6915 15.007 15.407C14.8559 14.8923 14.6141 14.4088 14.2931 13.9791C13.9932 13.6269 13.8481 13.8506 13.7695 13.9434Z" fill="#E0E0E0"/>
<path d="M26.6966 18.3103C26.6981 18.4015 26.6787 18.4918 26.6399 18.5743C26.6012 18.6567 26.544 18.7293 26.4729 18.7863C25.7709 19.2194 24.5524 19.7382 22.601 19.7953C20.6496 19.8524 18.9004 19.1766 18.3055 18.634C18.2329 18.5726 18.1767 18.4941 18.1418 18.4057C18.1069 18.3172 18.0945 18.2215 18.1056 18.1271C18.1529 17.4844 18.1257 16.8383 18.0247 16.2018C16.642 14.7097 17.1037 13.4603 17.3322 12.7631C17.8938 11.0472 20.1165 9.28383 20.1165 9.28383H21.2683C22.0234 9.24659 22.7801 9.25693 23.5339 9.31476C24.3359 9.39568 26.204 10.1691 26.204 10.1691C25.966 11.6279 25.709 12.3109 26.0588 13.427C26.2343 13.9482 26.5566 14.4077 26.9869 14.7502C26.7197 15.9168 26.6219 17.1158 26.6966 18.3103Z" fill="#E0E0E0"/>
<path opacity="0.1" d="M20.4663 16.1591C20.4663 16.1591 21.254 17.0848 22.8818 16.7612C24.5096 16.4375 24.7856 15.1929 24.7856 15.1929C24.7856 15.1929 24.9332 16.7778 22.9865 17.1586C21.0398 17.5393 20.4663 16.1591 20.4663 16.1591Z" fill="black"/>
<path d="M12.782 19.6336C12.7795 19.6954 12.7959 19.7566 12.8291 19.8089C12.8623 19.8612 12.9106 19.9021 12.9676 19.9263C13.0828 19.9708 13.191 20.0318 13.2889 20.1072C13.4816 20.3023 13.4959 20.6307 13.6078 20.8639C13.6768 21.0091 13.8576 21.0686 13.9552 21.1971C14.0066 21.2851 14.0519 21.3766 14.0909 21.4708C14.198 21.6659 14.4359 21.7278 14.6144 21.8396C14.8238 21.9696 15.0495 22.0712 15.2855 22.1419C15.7687 22.2866 16.2708 22.3588 16.7753 22.356C17.8105 22.356 18.7291 22.0038 19.7238 21.8182C20.7757 21.6207 21.837 21.4018 22.8699 21.1043C23.9027 20.8068 24.2311 20.5664 24.7071 20.0548L22.0465 18.2771C21.1445 18.615 20.2593 18.991 19.3597 19.3432C19.0447 19.4947 18.7056 19.5897 18.3578 19.6241C18.0575 19.6087 17.7642 19.5274 17.4987 19.3861C17.1727 19.2314 16.8657 19.0363 16.5278 18.9101C16.3134 18.8511 16.0956 18.8051 15.8757 18.7721C15.4711 18.6721 15.0618 18.6079 14.662 18.4937C14.6317 18.4784 14.5983 18.4704 14.5644 18.4704C14.5305 18.4704 14.4971 18.4784 14.4669 18.4937C14.3979 18.5436 14.4098 18.6483 14.4383 18.7316C14.5589 19.0012 14.7691 19.2207 15.0333 19.3528C15.1546 19.4194 16.1089 19.7597 15.9685 19.9263C15.9378 19.9518 15.9018 19.9702 15.8631 19.9801C15.8244 19.99 15.784 19.9911 15.7448 19.9834C15.0499 19.931 14.3907 19.6717 13.7196 19.4813C13.4913 19.3969 13.2438 19.3788 13.0057 19.4289C12.9535 19.4398 12.9052 19.4646 12.8658 19.5006C12.8264 19.5366 12.7975 19.5825 12.782 19.6336Z" fill="#FFA8A7"/>
<path d="M26.204 10.1812C26.9536 10.4667 27.6937 10.9236 27.6652 12.699C27.6461 13.758 27.1892 15.0478 26.3849 16.9611C25.8304 18.2676 25.314 19.4813 25.0665 19.9835C24.531 19.0506 23.2435 17.5109 22.5605 17.8155L24.1621 13.3534C24.1621 13.3534 25.045 10.8047 26.204 10.1812Z" fill="#EBEBEB"/>
<path d="M22.3417 17.7486C22.4844 17.6391 23.2531 17.4678 24.0694 18.2055C24.8856 18.9433 25.1593 19.5906 25.1641 19.8357C25.1688 20.0808 24.9665 20.1688 24.8 20.295C24.6334 20.4211 24.5453 20.7995 24.2574 20.8637C24.0187 20.9191 23.7889 21.0072 23.5744 21.1255C23.4924 21.163 23.4014 21.1764 23.3121 21.1642C23.2228 21.1519 23.1388 21.1146 23.0699 21.0565L23.3078 20.9804C23.3532 20.6744 23.3342 20.3623 23.2523 20.064C23.1703 19.7657 23.0272 19.4878 22.8319 19.2479C22.1513 18.334 21.692 18.4245 21.692 18.4245L21.4968 18.4982C21.5025 18.4325 21.5258 18.3694 21.5644 18.3158C21.6029 18.2622 21.6552 18.22 21.7158 18.1936C21.9181 18.1175 22.0537 18.0984 22.1251 18.0151C22.1846 17.9167 22.2575 17.827 22.3417 17.7486Z" fill="#E0E0E0"/>
<path d="M23.9671 6.5542L24.1908 9.48133C23.91 10.4142 22.3203 10.6712 20.2403 12.0491C20.1785 10.764 21.2684 9.60508 21.2684 9.60508L21.1803 8.81499L23.9671 6.5542Z" fill="#FFA8A7"/>
<path d="M24.75 5.00733C24.5995 4.96941 24.4409 4.98007 24.2969 5.03778C24.1528 5.09548 24.0307 5.19728 23.948 5.32861C23.8711 5.46795 23.821 5.62053 23.8005 5.77838C23.7696 5.94497 23.6268 5.98067 23.4983 5.8712C23.3712 5.75971 23.287 5.60737 23.2603 5.44046C23.2427 5.29503 23.2427 5.14801 23.2603 5.00257C22.7534 4.90738 22.7843 4.36955 22.801 4.14823C21.9443 4.08398 21.5373 3.95309 20.9876 3.56995C20.5514 3.2873 20.2365 2.8519 20.1047 2.34912C20.0309 2.43003 19.2194 2.98452 19.1385 4.67892C19.1385 4.9169 19.0148 5.21914 18.9743 5.49281C18.6649 7.50849 19.2599 8.43422 19.6073 8.64602C20.0886 8.90893 20.6444 9.00199 21.1851 8.91017C21.7557 8.83296 22.315 8.68755 22.851 8.47705C23.1627 8.16958 23.4259 7.81651 23.6315 7.42995L23.9028 6.954C23.9891 7.04259 24.0963 7.10805 24.2146 7.14438C24.326 7.17202 24.4421 7.1755 24.5549 7.15456C24.6678 7.13363 24.7749 7.08877 24.869 7.02301C25.0396 6.87017 25.1742 6.6814 25.2631 6.4703C25.352 6.2592 25.3929 6.03102 25.383 5.80218C25.3668 5.6223 25.2982 5.45113 25.1857 5.30985C25.0732 5.16857 24.9217 5.06339 24.75 5.00733Z" fill="#FFA8A7"/>
<path d="M23.7981 7.15625C23.7709 7.45113 23.6823 7.73707 23.5381 7.99568C23.3938 8.2543 23.197 8.47987 22.9604 8.65789C22.4418 8.98576 21.8436 9.16596 21.2303 9.17906L21.2041 8.90063C21.706 8.86313 22.1974 8.73746 22.6558 8.52938C23.3221 8.20335 23.5815 7.69884 23.7981 7.15625Z" fill="#F28F8F"/>
<path d="M21.504 5.22155C21.4955 5.27718 21.5037 5.33409 21.5277 5.38501C21.5517 5.43593 21.5903 5.47856 21.6386 5.50744C21.6869 5.53633 21.7427 5.55017 21.7989 5.5472C21.8551 5.54422 21.9091 5.52457 21.9541 5.49075C21.9991 5.45693 22.033 5.41047 22.0514 5.3573C22.0699 5.30414 22.0721 5.24667 22.0578 5.19225C22.0434 5.13783 22.0132 5.08891 21.9709 5.05174C21.9287 5.01458 21.8763 4.99084 21.8205 4.98357C21.7471 4.97401 21.6729 4.99357 21.6137 5.03805C21.5546 5.08252 21.5152 5.14839 21.504 5.22155Z" fill="#263238"/>
<path d="M19.4548 4.92419C19.4485 4.96224 19.4499 5.00118 19.459 5.03867C19.4681 5.07616 19.4847 5.11142 19.5077 5.14232C19.5308 5.17322 19.56 5.19912 19.5933 5.21846C19.6267 5.2378 19.6637 5.25017 19.702 5.25484C19.7402 5.25951 19.7791 5.25637 19.8161 5.24561C19.8532 5.23485 19.8877 5.2167 19.9175 5.19225C19.9473 5.1678 19.9719 5.13755 19.9897 5.10334C20.0076 5.06913 20.0183 5.03167 20.0212 4.9932C20.0269 4.91989 20.004 4.84723 19.9574 4.79036C19.9108 4.73349 19.844 4.69678 19.771 4.68789C19.6981 4.67899 19.6244 4.6986 19.5655 4.74262C19.5066 4.78663 19.467 4.85167 19.4548 4.92419Z" fill="#263238"/>
<path d="M21.7515 4.40527L22.3464 4.78842C22.3962 4.70648 22.4124 4.60844 22.3916 4.51484C22.3707 4.42123 22.3144 4.33933 22.2346 4.28629C22.1953 4.26146 22.1514 4.24483 22.1055 4.23738C22.0597 4.22993 22.0128 4.23181 21.9677 4.24292C21.9226 4.25404 21.8802 4.27414 21.843 4.30204C21.8059 4.32994 21.7747 4.36505 21.7515 4.40527Z" fill="#263238"/>
<path d="M19.4835 4.21959L20.1974 4.15295C20.1954 4.10651 20.1839 4.06098 20.1636 4.01915C20.1433 3.97733 20.1147 3.94011 20.0794 3.90978C20.0442 3.87945 20.0031 3.85667 19.9587 3.84283C19.9144 3.82899 19.8676 3.82438 19.8214 3.8293C19.7255 3.8378 19.6366 3.88327 19.5735 3.95609C19.5104 4.02892 19.4782 4.1234 19.4835 4.21959Z" fill="#263238"/>
<path d="M20.9541 4.70752L20.5495 6.41144L19.7095 5.96642L20.9541 4.70752Z" fill="#F28F8F"/>
<path d="M21.4563 6.96362L20.3806 7.07785C20.3888 7.15296 20.4124 7.22557 20.4501 7.29105C20.4878 7.35652 20.5387 7.41345 20.5996 7.4582C20.6604 7.50296 20.73 7.53457 20.8037 7.55103C20.8774 7.56749 20.9538 7.56843 21.0279 7.55381C21.095 7.54369 21.1594 7.52031 21.2174 7.48505C21.2754 7.44979 21.3258 7.40335 21.3657 7.34842C21.4056 7.29349 21.4341 7.23119 21.4496 7.16513C21.4652 7.09906 21.4674 7.03056 21.4563 6.96362Z" fill="#B16668"/>
<path d="M20.7305 7.50838C20.7744 7.37462 20.8663 7.26189 20.9885 7.19199C21.1107 7.1221 21.2545 7.10001 21.3921 7.13L21.442 7.14666C21.4247 7.24807 21.375 7.34114 21.3004 7.41193C21.2257 7.48272 21.1301 7.52742 21.0279 7.53932C20.9277 7.55237 20.8259 7.54178 20.7305 7.50838Z" fill="#F28F8F"/>
<path d="M29.6142 20.5093L29.4761 21.2851L20.997 26.3136C20.6855 26.5611 20.4279 26.8697 20.24 27.2204C20.0522 27.5711 19.9381 27.9566 19.9047 28.353L18.8576 39.2048C18.8547 39.2387 18.8617 39.2727 18.8778 39.3027C18.8938 39.3327 18.9182 39.3574 18.948 39.3738C18.976 39.3908 19.0081 39.3998 19.0408 39.3998C19.0735 39.3998 19.1056 39.3908 19.1336 39.3738L22.5153 37.4033V36.6894L19.7071 38.3314L20.9422 29.0503C21.01 28.6463 21.1623 28.2611 21.3891 27.9199C21.6158 27.5788 21.912 27.2893 22.2583 27.0703L29.7926 22.3108C30.6494 21.7872 30.3281 20.9638 29.6142 20.5093Z" fill="#455A64"/>
<path d="M21.9536 35.5996V36.4468C21.9528 37.2515 22.1752 38.0407 22.5962 38.7266C22.6271 38.7789 22.6604 38.8289 22.6937 38.8789V38.8932C22.7223 38.936 22.7532 38.9789 22.7842 39.0193C23.1409 39.5088 23.5958 39.9185 24.12 40.2222C24.6441 40.5258 25.2258 40.7168 25.8279 40.7827H25.8612H25.9255H26.0564H26.104H26.2539H26.3062C27.2079 40.7394 28.0835 40.4667 28.8502 39.9903L29.2215 39.7761C32.4342 37.9222 35.0376 33.4102 35.0376 29.7001V29.2717C35.0376 29.1908 35.0376 29.1075 35.0376 29.0337V28.86C35.0386 28.1337 34.8578 27.4187 34.5117 26.7801C34.4974 26.7515 34.4832 26.723 34.4689 26.6992L34.4356 26.6397C34.4046 26.585 34.3713 26.5326 34.338 26.4802C34.3211 26.4524 34.3029 26.4254 34.2833 26.3993L34.238 26.3351C34.2166 26.3018 34.1904 26.2708 34.1666 26.2399L34.1238 26.1899C33.7659 25.7255 33.3176 25.3384 32.8059 25.0521C32.2942 24.7658 31.7298 24.5861 31.1467 24.5241C31.0149 24.5077 30.8821 24.4998 30.7493 24.5003H30.6826C29.7812 24.5426 28.9055 24.8146 28.1387 25.2904L27.7674 25.5069C24.5571 27.3798 21.9536 31.8895 21.9536 35.5996ZM24.1335 35.8137C24.1335 32.682 26.3348 28.8743 29.0454 27.3084C31.7559 25.7425 33.9572 27.0109 33.9572 30.1427C33.9572 33.2745 31.7583 37.0845 29.0454 38.6504C26.3324 40.2163 24.1335 38.9455 24.1335 35.8137Z" fill="#455A64"/>
<path d="M23.0435 36.2349V36.6633C23.0435 38.4981 23.6812 39.7927 24.7093 40.409L24.7593 40.4376L24.7902 40.4543L24.8116 40.4661L24.8926 40.509C24.9465 40.537 25.0021 40.5616 25.0591 40.5828L25.1353 40.6161L25.2281 40.6494L25.3138 40.6756C25.378 40.697 25.447 40.716 25.5184 40.7327L25.6255 40.7565L25.7398 40.7755C25.7814 40.7836 25.8235 40.7891 25.8659 40.7922H25.9301H26.061H26.1086H26.2585C27.1787 40.7594 28.0741 40.4853 28.8549 39.9973L29.2261 39.7832C32.4388 37.9293 35.0423 33.4172 35.0423 29.7072V29.2788C35.0423 29.1979 35.0423 29.1146 35.0423 29.0408C35.0423 28.967 35.0423 28.9052 35.0423 28.8385V28.7671L35.028 28.5887C35.028 28.5768 35.028 28.5649 35.028 28.5554C35.028 28.484 35.0138 28.4173 35.0042 28.3507C34.9947 28.2841 34.9876 28.2293 34.9781 28.1698C34.9685 28.1103 34.9662 28.1008 34.959 28.0675C34.9479 27.9929 34.9336 27.9215 34.9162 27.8533C34.9019 27.7891 34.8852 27.7296 34.871 27.6677C34.84 27.5558 34.8091 27.4488 34.771 27.344C34.752 27.2869 34.7306 27.2298 34.7091 27.1727C34.6693 27.0681 34.624 26.9656 34.5735 26.8657C34.5616 26.8395 34.5473 26.8133 34.533 26.7872C34.5188 26.761 34.5045 26.7301 34.4902 26.7063L34.4569 26.6468C34.426 26.592 34.3926 26.5397 34.3593 26.4873C34.3425 26.4594 34.3242 26.4324 34.3046 26.4064L34.2594 26.3422C34.2379 26.3088 34.2118 26.2779 34.188 26.247L34.1142 26.1565C34.088 26.128 34.0642 26.097 34.0357 26.0709C33.9856 26.0132 33.9323 25.9584 33.8762 25.9067L33.7929 25.8329C33.737 25.7826 33.6782 25.7358 33.6168 25.6925L33.524 25.6282L33.4312 25.5663L33.4098 25.5544L33.317 25.5259C32.2651 24.9381 30.8253 25.0333 29.2356 25.9519L28.8644 26.166C25.6493 28.008 23.0435 32.5201 23.0435 36.2349ZM24.1334 35.8184C24.1334 32.6866 26.3347 28.879 29.0453 27.3131C31.7558 25.7472 33.9571 27.0156 33.9571 30.1474C33.9571 33.2792 31.7582 37.0892 29.0453 38.6551C26.3323 40.221 24.1334 38.9455 24.1334 35.8137V35.8184Z" fill="#37474F"/>
<path d="M25.3923 37.8459C26.1705 38.7716 27.5151 38.9025 29.0453 38.0196C31.4584 36.6274 33.4122 33.2434 33.4122 30.4567C33.4122 29.2144 33.0219 28.3006 32.3722 27.7937C32.8244 28.3268 33.0862 29.124 33.0862 30.1425C33.0862 32.9269 31.1324 36.3109 28.7216 37.7055C27.389 38.4742 26.1943 38.4742 25.3923 37.8459Z" fill="#BA68C8"/>
<path opacity="0.2" d="M25.3923 37.8459C26.1705 38.7716 27.5151 38.9025 29.0453 38.0196C31.4584 36.6274 33.4122 33.2434 33.4122 30.4567C33.4122 29.2144 33.0219 28.3006 32.3722 27.7937C32.8244 28.3268 33.0862 29.124 33.0862 30.1425C33.0862 32.9269 31.1324 36.3109 28.7216 37.7055C27.389 38.4742 26.1943 38.4742 25.3923 37.8459Z" fill="black"/>
<path d="M24.136 35.8135C24.136 38.9453 26.3349 40.2161 29.0455 38.6502C31.756 37.0843 33.9573 33.2742 33.9573 30.1424C33.9573 27.0107 31.7584 25.7422 29.0455 27.3081C26.3325 28.874 24.136 32.6817 24.136 35.8135ZM24.681 35.4993C24.681 32.715 26.6347 29.3286 29.0455 27.9388C31.4562 26.549 33.4124 27.6675 33.4124 30.459C33.4124 33.2504 31.4562 36.6273 29.0455 38.0195C26.6347 39.4117 24.681 38.2837 24.681 35.4993Z" fill="#BA68C8"/>
<path d="M24.8285 34.1143C24.8285 34.0643 24.8499 34.0144 24.8594 33.9668L28.6671 32.9482L28.7551 32.8197L25.9589 31.2062L26.0279 31.0896L28.8218 32.7031L28.8884 32.5651L27.8794 28.8003C27.9174 28.7669 27.9531 28.7312 27.9912 28.7003L28.9836 32.4032L29.1192 32.2509L30.0949 27.4914L30.2401 27.4509L29.2715 32.1462L29.4238 32.1248L32.0416 27.5866C32.0825 27.6056 32.1222 27.6271 32.1606 27.6508L29.5428 32.1915L29.5999 32.3342L33.2291 29.1168C33.2458 29.162 33.2577 29.2096 33.2719 29.2596L29.5904 32.5246L29.5238 32.7174L33.291 31.7131L33.2624 31.8607L29.431 32.8887L29.3429 33.0149L32.1987 34.6593L32.132 34.7783L29.2763 33.1315L29.2097 33.2695L30.2472 37.139L30.133 37.2413L29.1145 33.4337L28.9788 33.586L27.9745 38.4931L27.8294 38.5312L28.8218 33.6907L28.6671 33.7121L25.9898 38.3503L25.8756 38.2813L28.5576 33.636L28.5029 33.4932L24.8428 36.7368C24.8285 36.6892 24.8166 36.6416 24.8047 36.5917L28.5124 33.3028L28.579 33.11L24.8285 34.1143Z" fill="#EBEBEB"/>
<path d="M27.1558 33.7813C27.1558 34.293 27.3342 34.6547 27.6198 34.8284C27.7103 34.8831 27.7816 34.9165 27.8578 34.9641C28.0169 35.0631 28.2044 35.1067 28.3909 35.0878C28.43 35.0844 28.469 35.0789 28.5075 35.0711H28.5432L28.636 35.045L28.7026 35.0259L28.7693 34.9998L28.8668 34.9617C28.9238 34.9351 28.9794 34.9058 29.0334 34.8736C29.5099 34.5632 29.9065 34.1447 30.191 33.6523C30.4755 33.1598 30.6398 32.6072 30.6707 32.0393C30.6707 31.9751 30.6707 31.9156 30.6707 31.8561V31.7966C30.6707 31.7609 30.6707 31.7228 30.654 31.6895C30.6374 31.6562 30.654 31.6419 30.6374 31.6181C30.6207 31.5943 30.6255 31.5634 30.616 31.5372C30.6087 31.5121 30.5999 31.4875 30.5898 31.4634C30.5833 31.4423 30.5754 31.4216 30.566 31.4015L30.5303 31.3254L30.5041 31.2825C30.4897 31.2558 30.473 31.2303 30.4541 31.2064L30.4327 31.1778L30.3685 31.1064C30.3623 31.1015 30.3567 31.0959 30.3518 31.0898L30.2709 31.0231L30.2066 30.9827C30.1281 30.9351 30.052 30.9018 29.9901 30.8613C29.6926 30.6757 29.2761 30.69 28.8002 30.9589C28.3242 31.2677 27.9274 31.684 27.6417 32.1742C27.3561 32.6644 27.1896 33.2149 27.1558 33.7813ZM29.2095 34.1216C29.0739 33.8598 29.0501 33.3411 29.2095 33.1435C29.369 32.946 29.3737 33.2363 29.7997 33.015C29.8981 32.9626 29.9935 32.9046 30.0853 32.8413C29.8946 33.3057 29.6185 33.7303 29.2714 34.0931C29.2522 34.1055 29.2314 34.1151 29.2095 34.1216ZM28.2243 32.1059C28.2294 32.0896 28.2357 32.0737 28.2433 32.0584C28.5255 31.6966 28.8936 31.4111 29.3142 31.2278C29.2911 31.6696 29.1388 32.0949 28.8763 32.451C28.8487 32.3981 28.8055 32.3549 28.7526 32.3273L28.5003 32.1845C28.4783 32.1715 28.4552 32.1604 28.4313 32.1512C28.3639 32.1296 28.2946 32.1144 28.2243 32.1059ZM29.9139 31.154C30.1054 31.3875 30.2052 31.6828 30.1947 31.9846C30.1614 32.2963 29.6379 32.6081 29.3142 32.6604C29.3285 32.4986 29.5355 32.4225 29.6736 31.9275C29.7854 31.53 29.7759 31.2207 29.9139 31.1612V31.154ZM27.953 34.6095C27.953 34.6095 27.953 34.5976 27.9387 34.5904C27.8078 34.3834 28.31 33.6885 28.6526 33.4243C28.6097 33.5801 28.6097 33.7446 28.6526 33.9003C28.7407 34.2239 28.9311 34.3763 28.7597 34.5309C28.5124 34.6639 28.2228 34.6947 27.953 34.6166V34.6095ZM27.6222 33.936C27.6302 33.5143 27.725 33.0987 27.9006 32.7152C27.9522 32.6297 28.0324 32.5654 28.127 32.5336C28.2215 32.5018 28.3243 32.5045 28.417 32.5414C28.4675 32.5806 28.5053 32.6338 28.5257 32.6943C28.546 32.7549 28.5479 32.8201 28.5313 32.8818C28.4456 33.1364 28.3052 32.9722 27.9482 33.4481C27.8126 33.6338 27.7055 33.8146 27.6222 33.9431V33.936Z" fill="#E0E0E0"/>
<path opacity="0.2" d="M27.1558 33.7813C27.1558 34.293 27.3342 34.6547 27.6198 34.8284C27.7103 34.8831 27.7816 34.9165 27.8578 34.9641C28.0169 35.0631 28.2044 35.1067 28.3909 35.0878C28.43 35.0844 28.469 35.0789 28.5075 35.0711H28.5432L28.636 35.045L28.7026 35.0259L28.7693 34.9998L28.8668 34.9617C28.9238 34.9351 28.9794 34.9058 29.0334 34.8736C29.5099 34.5632 29.9065 34.1447 30.191 33.6523C30.4755 33.1598 30.6398 32.6072 30.6707 32.0393C30.6707 31.9751 30.6707 31.9156 30.6707 31.8561V31.7966C30.6707 31.7609 30.6707 31.7228 30.654 31.6895C30.6374 31.6562 30.654 31.6419 30.6374 31.6181C30.6207 31.5943 30.6255 31.5634 30.616 31.5372C30.6087 31.5121 30.5999 31.4875 30.5898 31.4634C30.5833 31.4423 30.5754 31.4216 30.566 31.4015L30.5303 31.3254L30.5041 31.2825C30.4897 31.2558 30.473 31.2303 30.4541 31.2064L30.4327 31.1778L30.3685 31.1064C30.3623 31.1015 30.3567 31.0959 30.3518 31.0898L30.2709 31.0231L30.2066 30.9827C30.1281 30.9351 30.052 30.9018 29.9901 30.8613C29.6926 30.6757 29.2761 30.69 28.8002 30.9589C28.3242 31.2677 27.9274 31.684 27.6417 32.1742C27.3561 32.6644 27.1896 33.2149 27.1558 33.7813ZM29.2095 34.1216C29.0739 33.8598 29.0501 33.3411 29.2095 33.1435C29.369 32.946 29.3737 33.2363 29.7997 33.015C29.8981 32.9626 29.9935 32.9046 30.0853 32.8413C29.8946 33.3057 29.6185 33.7303 29.2714 34.0931C29.2522 34.1055 29.2314 34.1151 29.2095 34.1216ZM28.2243 32.1059C28.2294 32.0896 28.2357 32.0737 28.2433 32.0584C28.5255 31.6966 28.8936 31.4111 29.3142 31.2278C29.2911 31.6696 29.1388 32.0949 28.8763 32.451C28.8487 32.3981 28.8055 32.3549 28.7526 32.3273L28.5003 32.1845C28.4783 32.1715 28.4552 32.1604 28.4313 32.1512C28.3639 32.1296 28.2946 32.1144 28.2243 32.1059ZM29.9139 31.154C30.1054 31.3875 30.2052 31.6828 30.1947 31.9846C30.1614 32.2963 29.6379 32.6081 29.3142 32.6604C29.3285 32.4986 29.5355 32.4225 29.6736 31.9275C29.7854 31.53 29.7759 31.2207 29.9139 31.1612V31.154ZM27.953 34.6095C27.953 34.6095 27.953 34.5976 27.9387 34.5904C27.8078 34.3834 28.31 33.6885 28.6526 33.4243C28.6097 33.5801 28.6097 33.7446 28.6526 33.9003C28.7407 34.2239 28.9311 34.3763 28.7597 34.5309C28.5124 34.6639 28.2228 34.6947 27.953 34.6166V34.6095ZM27.6222 33.936C27.6302 33.5143 27.725 33.0987 27.9006 32.7152C27.9522 32.6297 28.0324 32.5654 28.127 32.5336C28.2215 32.5018 28.3243 32.5045 28.417 32.5414C28.4675 32.5806 28.5053 32.6338 28.5257 32.6943C28.546 32.7549 28.5479 32.8201 28.5313 32.8818C28.4456 33.1364 28.3052 32.9722 27.9482 33.4481C27.8126 33.6338 27.7055 33.8146 27.6222 33.9431V33.936Z" fill="black"/>
<path d="M27.4104 33.9241C27.4104 34.9664 28.141 35.39 29.0453 34.876C29.5218 34.5655 29.9184 34.1471 30.2029 33.6546C30.4874 33.1622 30.6517 32.6096 30.6826 32.0417C30.6826 30.997 29.9496 30.5734 29.0453 31.0898C28.5694 31.4006 28.1734 31.8192 27.8893 32.3116C27.6053 32.8041 27.4412 33.3565 27.4104 33.9241ZM29.0501 32.6509C28.8549 32.7318 29.012 32.4129 28.6812 32.2939C28.4194 32.2011 28.1362 32.2939 28.2433 32.056C28.3504 31.818 29.1286 31.2016 29.4523 31.1969C29.7759 31.1921 29.3356 32.5343 29.0501 32.6509ZM30.447 32.1321C30.397 32.5748 29.3666 33.0198 29.3166 32.7223C29.2833 32.5176 29.5213 32.4843 29.6736 31.9346C29.7926 31.5038 29.7735 31.1778 29.9401 31.1493C30.1067 31.1207 30.497 31.6942 30.447 32.1321ZM29.2143 33.1411C29.388 32.9341 29.3785 33.2339 29.8045 33.0126C30.1376 32.8389 30.4113 32.5557 30.4065 32.7628C30.4018 32.9698 29.8663 33.9526 29.5118 34.2311C29.1572 34.5095 28.9596 33.4457 29.2143 33.1411ZM28.8835 33.3339C29.0239 33.4101 28.7812 33.629 28.8835 34.0478C28.9715 34.3739 29.1619 34.5238 28.9906 34.6809C28.8192 34.8379 28.1005 34.8736 27.9316 34.6047C27.7626 34.3358 28.6788 33.2244 28.8835 33.3363V33.3339ZM27.6603 34.2358C27.5603 34.1264 27.6603 33.1602 27.8983 32.7199C28.1362 32.2797 28.9073 32.658 28.7788 33.0269C28.6931 33.2815 28.5527 33.1197 28.1957 33.5933C27.9173 33.9693 27.7626 34.3477 27.6603 34.2382V34.2358Z" fill="#E0E0E0"/>
<path d="M29.0454 33.5575C28.7693 33.717 28.5457 33.5861 28.5457 33.2672C28.5551 33.0937 28.6053 32.9249 28.6921 32.7744C28.7789 32.6239 28.8999 32.496 29.0454 32.401C29.3238 32.2415 29.5475 32.37 29.5475 32.6889C29.5382 32.863 29.4878 33.0325 29.4006 33.1834C29.3133 33.3344 29.1916 33.4625 29.0454 33.5575Z" fill="#455A64"/>
</svg>
