<svg width="38" height="57" viewBox="0 0 38 57" fill="none" xmlns="http://www.w3.org/2000/svg">
<path d="M8.1113 43.0637C7.96524 43.1184 7.83382 43.2062 7.72731 43.3202C7.6208 43.4341 7.54208 43.5711 7.49731 43.7205C7.50212 44.1741 7.57266 44.6246 7.70674 45.058C7.94798 45.8011 7.96618 46.5987 7.75909 47.3521C7.53539 48.1327 7.52111 49.6962 8.15651 50.4839C8.50686 50.8875 8.95157 51.1982 9.45106 51.3884C9.95056 51.5786 10.4893 51.6423 11.0194 51.5738C11.9713 51.431 12.2712 51.0336 12.3187 50.3316L8.1113 43.0637Z" fill="#37474F"/>
<path d="M8.29936 49.8558C8.20283 49.709 8.12902 49.5486 8.08042 49.3798C7.93784 48.927 7.9004 48.4476 7.97095 47.9781C8.11015 47.4924 8.20729 46.9955 8.26128 46.4931C8.29572 45.9636 8.26293 45.4319 8.16371 44.9106C8.0828 44.4965 7.92573 44.0562 7.94953 43.6303C8.02806 42.3333 9.33932 42.0572 10.0247 41.7098L12.0428 39.0349L14.087 42.2191C14.087 42.2191 12.8376 43.171 12.4949 43.5089C12.0356 43.9587 11.7334 44.8059 11.5692 45.3865C11.3455 46.1386 11.0313 46.9477 11.2669 47.7282C11.4147 48.1435 11.6054 48.5423 11.8357 48.9181C11.9025 49.0254 11.9516 49.1427 11.9809 49.2656C12.0475 49.6059 11.8262 49.9295 11.6168 50.2175C11.2765 50.6649 10.8552 51.1694 10.2912 51.1694C9.96974 51.143 9.66216 51.0267 9.40357 50.8339C8.97166 50.5879 8.59563 50.2548 8.29936 49.8558Z" fill="#F28F8F"/>
<path d="M11.6859 48.3421C11.574 47.9803 11.2813 46.9951 11.4027 46.4716C11.5432 45.816 11.7391 45.1736 11.9881 44.5511C12.1666 44.2298 12.3736 44.087 12.2665 44.0299C11.5362 44.004 10.8054 44.0639 10.089 44.2084C9.59402 44.3512 9.61306 44.6701 9.42982 44.9723C9.56063 44.5778 9.58364 44.1555 9.49645 43.7491C9.37508 43.3517 9.21088 42.2308 9.82962 41.8453L10.0224 41.7072C10.0224 41.7072 9.99145 41.5383 9.73205 41.6906C9.47266 41.8429 8.58262 42.3355 8.30418 42.6425C8.10761 42.8145 7.96004 43.0354 7.87645 43.2828C7.79286 43.5302 7.77622 43.7954 7.82823 44.0513C7.95198 44.801 8.12808 45.0032 8.15188 45.7719C8.1847 46.4626 8.11249 47.1543 7.9377 47.8233C7.77539 48.573 7.88859 49.3562 8.25659 50.0293L11.6859 48.3421Z" fill="#455A64"/>
<path d="M23.937 23.2853C23.937 23.2853 23.9227 27.8807 22.4735 32.4094C21.3954 35.772 19.8248 37.4498 19.3488 37.89C17.2237 39.8486 12.9853 43.0899 12.9853 43.0899C12.9853 43.0899 11.1195 42.0951 10.9553 40.3912C12.4903 38.3731 13.9562 35.2271 15.6768 34.218L14.5892 23.2544L23.937 23.2853Z" fill="#37474F"/>
<path d="M10.3317 51.1978C10.8981 51.243 12.088 51.2692 12.3069 50.3792C12.4878 49.6652 11.8643 48.6514 11.6858 48.3421C11.6073 48.2635 10.7815 48.0493 9.60826 48.3278C8.43503 48.6062 8.11614 48.9894 8.06616 49.5986C8.25614 50.0506 8.56924 50.4401 8.96978 50.7228C9.37032 51.0056 9.84222 51.1701 10.3317 51.1978Z" fill="#F0F0F0"/>
<path d="M22.9183 50.1103C22.6613 50.1103 22.5519 49.9199 22.4614 49.1251C22.371 48.3302 22.2234 44.801 22.2234 44.801L18.2754 45.841C18.2754 45.841 19.0488 48.7419 19.2987 49.582C19.5771 50.5149 19.9698 51.7952 19.9817 52.4996C19.9936 53.204 19.8341 55.1531 20.6718 55.5933C21.5095 56.0336 22.3615 55.7171 22.9778 55.3982C23.5942 55.0793 24.4057 53.8299 25.1006 53.2278C25.7955 52.6257 26.3833 52.3116 26.9473 51.6714C27.5113 51.0313 27.6612 49.3226 27.0187 48.899C26.3762 48.4754 25.4005 48.7848 24.8079 49.0632C24.2153 49.3416 23.3943 50.127 22.9183 50.1103Z" fill="#F28F8F"/>
<path d="M12.9234 23.2544C12.6688 24.9678 12.5641 26.9621 13.5517 29.3704C14.5393 31.7788 14.851 32.9925 17.0285 38.4493C16.9143 39.613 16.8191 40.772 17.4474 43.0399C18.2256 45.8599 19.0823 48.8941 19.0823 48.8941C19.0823 48.8941 20.0961 47.6186 22.4378 48.1564C22.4497 46.8071 22.1522 39.9533 22.057 38.0257C21.8976 34.8725 20.6982 27.5547 20.6982 27.5547C20.6982 27.5547 23.3778 25.9055 23.9442 23.2711L12.9234 23.2544Z" fill="#455A64"/>
<path d="M20.0628 54.9796C19.9061 54.2771 19.846 53.5565 19.8844 52.8378C19.901 51.8097 19.7463 51.4813 19.7463 51.4813C19.7463 51.4813 19.9201 50.8173 21.0457 50.0986C22.1713 49.3799 22.7853 49.8321 22.7853 49.8321C22.7853 49.8321 22.9805 50.27 23.7182 49.5798L24.7772 51.2671L20.0628 54.9796Z" fill="#455A64"/>
<path d="M27.1163 48.8205C26.7665 48.4112 26.1454 48.3445 25.2815 48.6801C24.7053 48.8813 24.1724 49.1897 23.7109 49.5892C23.7109 49.5892 23.1945 50.334 23.7989 50.9385C24.4034 51.5429 27.1163 48.8205 27.1163 48.8205Z" fill="#F0F0F0"/>
<path d="M27.6375 49.5988C27.6333 49.3758 27.5409 49.1635 27.3805 49.0086C27.3305 48.9681 27.1425 48.8491 27.1163 48.8206C26.6665 48.4589 25.7289 49.0443 24.9293 49.6321C23.9964 50.3175 23.0493 51.7882 22.2521 52.7686C21.4548 53.7491 20.5576 54.0656 20.2269 54.4987C20.1183 54.6329 20.0579 54.7996 20.0553 54.9722C20.0527 55.1448 20.1081 55.3133 20.2126 55.4507C20.2507 55.503 20.3982 55.6696 20.4268 55.7029C20.5683 55.8381 20.7395 55.9383 20.9267 55.9953C21.114 56.0523 21.3119 56.0647 21.5048 56.0313C22.4805 55.9457 23.1968 55.7124 24.1035 54.6677C25.0102 53.623 25.4862 53.0852 26.4833 52.4569C27.4804 51.8286 27.7422 50.5245 27.6375 49.5988Z" fill="#37474F"/>
<path d="M27.6375 49.5988C27.4923 48.2994 26.2263 49.0609 25.1911 49.8201C24.2606 50.5055 23.3134 51.9762 22.5162 52.9566C21.719 53.9371 20.8028 54.2393 20.491 54.6867C19.927 55.503 20.5315 56.1146 21.5048 56.0289C22.4781 55.9433 23.1968 55.71 24.1035 54.6653C25.0102 53.6206 25.4862 53.0828 26.4833 52.4545C27.4804 51.8262 27.7422 50.5245 27.6375 49.5988Z" fill="#263238"/>
<path d="M23.1731 49.951C22.8708 50.051 22.778 49.8416 22.778 49.8416C21.7761 50.6673 21.6167 51.2456 21.6167 51.2456C21.6167 51.2456 22.6138 50.2533 23.1731 49.951Z" fill="#37474F"/>
<path d="M19.4417 27.0454C19.9176 28.559 20.3245 30.8864 20.6149 32.4475C20.9153 34.0099 21.1361 35.5866 21.2765 37.1714C21.3693 38.7563 21.4549 40.3412 21.5144 41.9309C21.5739 43.5206 21.6358 45.1032 21.6644 46.6905C21.5057 45.104 21.3685 43.523 21.2527 41.9476C21.1313 40.3674 21.029 38.7849 20.9338 37.2023C20.8862 36.4146 20.7196 34.8606 20.622 34.0753C20.5245 33.29 20.465 33.2757 20.3507 32.4927C20.2365 31.7098 20.0628 30.1558 19.9105 29.3776C19.7582 28.5994 19.6225 27.8188 19.4417 27.0454Z" fill="#37474F"/>
<path d="M36.9805 5.74646C36.9733 5.78339 36.9733 5.82138 36.9805 5.85831C37.002 5.9178 37.0805 5.93446 37.1376 5.96302C37.1805 5.98625 37.218 6.01813 37.2479 6.05663C37.2778 6.09514 37.2994 6.13944 37.3113 6.18672C37.3356 6.28153 37.3468 6.37921 37.3446 6.47705V6.78404C37.3302 6.87526 37.335 6.9685 37.3589 7.05772C37.3803 7.10531 37.4137 7.14577 37.4375 7.1886C37.5078 7.3164 37.5393 7.462 37.5279 7.60745C37.5141 7.81576 37.4799 8.02222 37.4256 8.22381C37.3803 8.40943 37.3494 8.58792 37.2875 8.76878C37.1971 9.02342 37.0924 9.27091 37.0139 9.53031C36.9419 9.79529 36.8878 10.0648 36.852 10.3371C36.8033 10.7146 36.6743 11.0773 36.4736 11.4008C36.3715 11.5616 36.2364 11.6988 36.0772 11.8035C35.918 11.9081 35.7384 11.9777 35.5503 12.0077C35.5915 11.9045 35.6195 11.7966 35.6336 11.6864C35.6553 11.5709 35.6688 11.454 35.674 11.3366C35.6565 11.1758 35.6263 11.0166 35.5836 10.8606C35.5567 10.5377 35.5487 10.2135 35.5598 9.88965C35.5479 9.6812 35.5479 9.47223 35.5598 9.26377C35.586 9.04483 35.6217 8.82827 35.6621 8.61171C35.7431 8.18097 35.843 7.75737 35.943 7.33139L36.0762 6.7769C36.1833 6.31998 36.2928 5.86069 36.4379 5.41329C36.4523 5.35677 36.4801 5.30454 36.5189 5.26098C36.6831 5.1063 36.8877 5.33 36.9353 5.47992C36.9535 5.5476 36.9647 5.61698 36.9686 5.68696C36.9829 5.69886 36.9829 5.72266 36.9805 5.74646Z" fill="#F28F8F"/>
<path d="M24.7842 11.4914C25.5815 11.9031 29.6414 13.7069 29.6414 13.7069C29.6414 13.7069 32.6827 11.6817 33.3395 11.1844C34.2415 10.5014 34.4628 9.77077 34.6627 9.13061C34.8102 8.65465 34.9221 8.19536 35.1149 7.7432C35.4028 7.06734 35.6503 6.38196 35.9097 5.69659C35.9299 5.61858 35.9771 5.55028 36.043 5.50383C36.2119 5.4134 36.3571 5.7418 36.3857 5.86317C36.4142 6.00658 36.4191 6.1537 36.3999 6.29867C36.3517 6.70715 36.2721 7.11131 36.162 7.5076C36.1096 7.7075 36.0572 7.9074 36.0097 8.1073C35.9859 8.20726 35.9644 8.30721 35.943 8.40716C35.943 8.43809 35.8669 8.60706 35.943 8.59278C35.9552 8.58893 35.9664 8.58246 35.9759 8.57383C35.9854 8.5652 35.9928 8.55461 35.9978 8.5428C36.1524 8.30483 36.2952 8.05495 36.4737 7.82887C36.557 7.72178 36.6189 7.62659 36.7521 7.7194C36.8047 7.75668 36.8476 7.80589 36.8773 7.86298C36.9071 7.92007 36.923 7.98342 36.9235 8.04781C36.9143 8.39809 36.8125 8.73968 36.6284 9.0378C36.4602 9.35285 36.3376 9.69018 36.2643 10.0397C36.2405 10.3462 36.2405 10.6541 36.2643 10.9607C36.2874 11.2699 36.2222 11.5794 36.0763 11.8531C35.9696 12.0121 35.832 12.1481 35.6717 12.2529C35.5289 12.3505 35.3624 12.4076 35.2219 12.5028C34.8938 12.731 34.5835 12.984 34.2938 13.2595C33.6513 13.8711 31.7237 16.0415 31.2192 16.4508C30.1221 17.3456 30.0578 17.3147 27.3853 16.3913C23.6158 15.0896 23.6776 14.9635 23.6776 14.9635L22.2878 10.5275C23.1566 10.7443 23.9952 11.068 24.7842 11.4914Z" fill="#FFA8A7"/>
<path d="M22.2903 10.4561C23.3445 10.6655 24.4321 11.22 24.9961 11.4722C27.4211 12.586 29.6176 13.614 29.6176 13.614L31.738 12.2171C31.7055 12.6861 31.8303 13.1525 32.0926 13.5426C32.2369 13.7628 32.434 13.9435 32.6659 14.0682C32.8978 14.1929 33.1572 14.2576 33.4205 14.2566C33.4205 14.2566 32.6804 15.0657 31.7785 15.989C30.8765 16.9124 30.4767 17.1194 30.1555 17.2075C29.8342 17.2955 29.4153 17.1171 28.58 16.8577C27.7447 16.5983 23.473 15.1633 23.473 15.1633L22.2903 10.4561Z" fill="#37474F"/>
<path d="M36.0383 8.48557C35.9074 8.70689 35.372 9.34705 35.3244 9.43749C35.2768 9.52792 35.2125 9.30422 35.4148 8.96153C35.6171 8.61884 35.9764 8.28567 36.0002 8.15479L36.0383 8.48557Z" fill="#F28F8F"/>
<path d="M23.5871 14.8919C23.4586 11.5197 22.4662 10.6487 21.876 10.4108L18.9798 9.90625C18.2492 9.99668 15.4839 10.9296 14.6272 11.1533C14.0751 11.2937 13.7514 12.4145 13.492 14.1899C13.2652 15.8036 13.1546 17.4316 13.1613 19.0613C13.147 20.8842 13.078 21.9432 12.6853 24.5586C16.493 25.6747 20.6005 26.4624 23.3943 24.2682C23.3229 23.7923 23.568 19.8442 23.5799 18.6805C23.5918 17.5168 23.6323 15.8057 23.5871 14.8919Z" fill="#FAFAFA"/>
<path d="M20.4243 13.5902C20.5171 12.9382 20.8859 12.7145 21.093 12.6954C21.2378 12.6755 21.3852 12.6892 21.5239 12.7354C21.6625 12.7816 21.7887 12.8591 21.8926 12.962C21.7071 12.1737 21.3621 11.4318 20.8788 10.7821C20.1649 9.88968 19.9602 9.77783 19.9602 9.77783L19.9316 10.7845C20.0764 11.11 20.1695 11.456 20.2077 11.8102C20.2645 12.3293 20.2876 12.8516 20.2767 13.3737C20.3504 13.4257 20.4028 13.5026 20.4243 13.5902Z" fill="#E0E0E0"/>
<path d="M16.7311 9.70874C16.4455 9.81345 16.4931 10.1609 15.6792 10.5678C15.86 11.2862 16.193 11.9574 16.6557 12.5359C17.1185 13.1144 17.7001 13.5868 18.3612 13.9209C18.6064 13.6039 18.9365 13.363 19.3131 13.2261C19.9128 13.0214 20.415 13.5568 20.415 13.5568C20.3528 13.3922 20.2515 13.2452 20.1199 13.1285C19.1394 12.2956 18.5278 11.7982 18.0042 11.4293C16.6192 10.4584 16.712 9.9253 16.712 9.9253L16.7311 9.70874Z" fill="#E0E0E0"/>
<path d="M13.661 11.1177C14.2651 10.958 14.8601 10.7657 15.4434 10.5417C15.7659 10.3981 16.0791 10.2344 16.3811 10.0515C16.3439 10.3414 16.3592 10.6356 16.4263 10.9201C16.5358 11.4651 16.8475 11.9958 17.095 12.6455C17.678 14.1614 17.6995 15.3703 17.7399 18.6592C17.7709 21.2151 17.4282 25.4963 17.3425 27.3692C16.2073 27.4334 12.947 26.7314 12.3069 26.2626C12.3616 23.8828 13.0779 21.9433 12.8566 19.0495C12.6496 16.3532 11.4668 11.8316 13.661 11.1177Z" fill="#263238"/>
<path d="M15.5863 11.1177C15.6196 11.8054 15.6482 12.4956 15.6672 13.1833L15.6982 14.2162L15.7196 15.2514L15.6934 15.1966C16.0932 15.4941 16.4978 15.7868 16.8833 16.0867L16.9285 16.1224L16.9047 16.1747L16.1908 17.7454V17.6954C16.3978 18.2166 16.5929 18.7401 16.7928 19.2613C16.9928 19.7825 17.1855 20.306 17.3759 20.8319C17.1522 20.3203 16.9309 19.8063 16.7167 19.2922C16.5025 18.7782 16.2836 18.2618 16.0742 17.743V17.7192V17.693L16.7643 16.1152L16.7881 16.2033C16.3859 15.9082 15.9909 15.6036 15.5982 15.3061L15.572 15.2847V15.2514V14.2185V13.1857C15.572 12.4892 15.5768 11.7999 15.5863 11.1177Z" fill="#37474F"/>
<path d="M20.4195 10.2349C21.4166 11.5771 21.8759 12.3124 22.102 14.5185C22.2662 16.1177 22.29 18.4403 22.34 19.6493C22.4733 23.6616 22.7422 26.5221 22.7422 26.5221C23.3011 26.3941 23.8057 26.0936 24.1843 25.663C23.9844 23.0738 23.8678 19.5993 23.8488 18.595C23.8297 17.5908 23.7464 15.2633 23.6965 14.0473C23.6465 12.8312 23.3347 11.2772 22.2971 10.4562C21.2762 10.2515 20.1958 9.98022 20.1958 9.98022L20.4195 10.2349Z" fill="#263238"/>
<path d="M21.124 10.5322C21.398 10.8124 21.6472 11.1158 21.8689 11.4389C22.0919 11.7612 22.2953 12.0966 22.4781 12.4432C22.6574 12.7915 22.8163 13.1498 22.9541 13.5165C23.0939 13.8828 23.2146 14.2561 23.3158 14.635V14.6635L23.3015 14.6897L22.7328 15.6416V15.5678L23.4967 16.8577L23.5109 16.8815V16.9053L23.2849 17.8691L23.0469 18.821C22.8922 19.4635 22.728 20.1013 22.5709 20.7415C22.6994 20.0942 22.8303 19.4469 22.9684 18.802L23.1754 17.8334L23.3896 16.8672V16.9148L22.6233 15.6392L22.6019 15.6035L22.6233 15.5655L23.1992 14.6136V14.6659C23.1021 14.2898 22.9862 13.9189 22.8517 13.5545C22.7185 13.1904 22.5638 12.8406 22.3972 12.4836C22.2238 12.1352 22.0323 11.796 21.8237 11.4675C21.6148 11.1382 21.3809 10.8255 21.124 10.5322Z" fill="#37474F"/>
<path d="M16.819 8.84266C16.6738 8.05971 15.8813 7.25058 15.522 6.56996C15.1627 5.88935 14.9651 5.40387 14.9937 4.78275C15.0127 4.41626 15.2317 3.91413 15.5077 3.80704C15.4421 3.58577 15.4221 3.35348 15.4489 3.12425C15.4756 2.89501 15.5486 2.67358 15.6634 2.47336C15.7782 2.27314 15.9324 2.09829 16.1167 1.95939C16.301 1.82049 16.5116 1.72042 16.7357 1.66524C16.9902 1.60816 17.2406 1.53423 17.4853 1.44392C17.7804 1.31541 17.8447 1.07743 18.0803 0.870392C18.4872 0.518184 19.1773 0.499145 19.4486 1.02508C19.7176 0.668109 20.0888 0.672869 20.5195 0.787098C20.7008 0.825657 20.8607 0.931674 20.9667 1.08367C21.0728 1.23567 21.1171 1.42229 21.0907 1.60574C21.1897 1.54015 21.3026 1.49842 21.4205 1.48381C21.5384 1.4692 21.6581 1.48212 21.7702 1.52155C21.8823 1.56098 21.9837 1.62585 22.0664 1.71107C22.1492 1.79628 22.2111 1.89952 22.2473 2.01269C22.2901 2.25066 22.2473 2.4696 22.4043 2.69092C22.4364 2.74504 22.4813 2.79044 22.535 2.8231C22.5887 2.85577 22.6497 2.8747 22.7125 2.87823C22.7753 2.88176 22.838 2.86977 22.8951 2.84333C22.9521 2.81689 23.0018 2.77681 23.0397 2.72662C23.104 3.07883 22.9707 3.35012 22.5876 3.33584C22.6536 3.43297 22.6974 3.54346 22.716 3.65945C22.7345 3.77544 22.7272 3.89408 22.6947 4.00694C22.6511 4.14922 22.5651 4.27475 22.4481 4.36665C22.3311 4.45855 22.1887 4.51241 22.0402 4.52097C22.0284 4.71138 21.9721 4.89638 21.876 5.06118C21.7637 5.23349 21.6109 5.37566 21.431 5.47527C20.8384 5.71555 20.2193 5.88412 19.5867 5.9774L18.8466 6.1416C18.8037 6.1416 18.58 6.16778 18.5538 6.20586L16.819 8.84266Z" fill="#263238"/>
<path d="M15.8528 7.84083C15.99 7.93685 16.1551 7.98492 16.3225 7.9776C16.4898 7.97029 16.6501 7.908 16.7785 7.80037L16.738 9.38531L16.7119 9.92552C16.7119 10.3682 17.2735 10.9488 17.9803 11.4438C18.9084 12.0935 20.0983 13.1263 20.2863 13.2929C20.341 12.886 20.2387 11.3462 19.9317 10.7846L19.9793 9.56379C20.2911 9.56497 20.6027 9.54669 20.9122 9.50906C21.2261 9.45086 21.516 9.3016 21.7458 9.07987C21.9756 8.85814 22.1351 8.57374 22.2044 8.26205C22.3917 7.38334 22.4078 6.47677 22.252 5.59194C22.2051 5.37474 22.1891 5.15203 22.2044 4.93036C22.2427 4.4587 22.171 3.98458 21.995 3.54533C21.3096 3.0075 19.3915 2.91945 17.9493 3.82852C18.2706 4.56863 18.085 5.33016 17.4567 5.66809C17.4901 5.90607 17.5257 6.49625 17.1402 6.49149C16.8618 6.49149 16.838 6.13691 16.55 5.83468C16.2621 5.53244 15.5981 5.45629 15.3411 5.91321C15.1762 6.24155 15.1372 6.6189 15.2315 6.97402C15.3258 7.32914 15.5467 7.63748 15.8528 7.84083Z" fill="#FFA8A7"/>
<path d="M19.9793 9.56382C19.0012 9.46149 18.2564 9.36392 17.74 8.66427C17.4978 8.30308 17.2952 7.91693 17.1355 7.51245C17.204 8.01487 17.3518 8.50324 17.5734 8.95936C17.8256 9.40675 18.4325 9.77562 19.9674 9.88747L19.9793 9.56382Z" fill="#F28F8F"/>
<path d="M21.8881 4.8137L21.2336 4.64235C21.2436 4.60011 21.262 4.5603 21.2877 4.52529C21.3133 4.49029 21.3458 4.46081 21.3831 4.43861C21.4204 4.4164 21.4618 4.40193 21.5048 4.39605C21.5478 4.39017 21.5916 4.393 21.6334 4.40438C21.7194 4.42844 21.7932 4.4838 21.8403 4.55956C21.8874 4.63533 21.9045 4.72599 21.8881 4.8137Z" fill="#263238"/>
<path d="M21.7785 5.42986C21.7766 5.48401 21.7589 5.53642 21.7274 5.58055C21.696 5.62468 21.6522 5.65857 21.6017 5.67801C21.5511 5.69746 21.4959 5.70158 21.443 5.68988C21.3901 5.67818 21.3418 5.65116 21.3041 5.61221C21.2665 5.57325 21.2411 5.52406 21.2312 5.47079C21.2213 5.41752 21.2273 5.36251 21.2484 5.31262C21.2696 5.26273 21.305 5.22016 21.3501 5.19023C21.3953 5.1603 21.4483 5.14432 21.5025 5.14429C21.5393 5.14491 21.5757 5.15278 21.6096 5.16747C21.6434 5.18216 21.674 5.20337 21.6996 5.22989C21.7253 5.25641 21.7454 5.28772 21.759 5.32203C21.7725 5.35634 21.7791 5.39298 21.7785 5.42986Z" fill="#263238"/>
<path d="M19.6437 5.57268C19.6419 5.62684 19.6241 5.67924 19.5927 5.72337C19.5612 5.7675 19.5175 5.80139 19.4669 5.82084C19.4163 5.84028 19.3611 5.84441 19.3082 5.8327C19.2553 5.821 19.207 5.79399 19.1694 5.75503C19.1317 5.71607 19.1063 5.66689 19.0964 5.61361C19.0865 5.56034 19.0925 5.50533 19.1137 5.45544C19.1348 5.40555 19.1702 5.36299 19.2154 5.33305C19.2605 5.30312 19.3135 5.28714 19.3677 5.28711C19.4046 5.28773 19.441 5.29561 19.4748 5.31029C19.5086 5.32498 19.5392 5.34619 19.5649 5.37271C19.5905 5.39923 19.6107 5.43054 19.6242 5.46485C19.6377 5.49916 19.6444 5.5358 19.6437 5.57268Z" fill="#263238"/>
<path d="M21.4739 6.5795L20.522 7.015L20.2031 5.1445C20.5553 5.01361 21.0146 5.86795 21.4739 6.5795Z" fill="#F28F8F"/>
<path d="M19.3487 4.71382L18.7276 4.98749C18.6933 4.90232 18.693 4.80728 18.7266 4.72187C18.7603 4.63647 18.8253 4.56717 18.9084 4.52819C18.9494 4.51013 18.9935 4.50063 19.0383 4.50026C19.083 4.49988 19.1274 4.50866 19.1686 4.52604C19.2098 4.54342 19.2471 4.56904 19.278 4.60134C19.309 4.63363 19.333 4.6719 19.3487 4.71382Z" fill="#263238"/>
<path d="M19.475 7.5481L20.6268 7.78607C20.6151 7.86261 20.588 7.93598 20.5472 8.00176C20.5064 8.06755 20.4527 8.1244 20.3893 8.16887C20.3259 8.21334 20.2542 8.24452 20.1785 8.26053C20.1027 8.27654 20.0245 8.27705 19.9486 8.26203C19.7922 8.22821 19.6551 8.13466 19.5667 8.00131C19.4782 7.86796 19.4453 7.70534 19.475 7.5481Z" fill="#B16668"/>
<path d="M19.6153 7.72649C19.5686 7.7217 19.5215 7.7217 19.4749 7.72649C19.4892 7.8524 19.543 7.97056 19.6285 8.06413C19.7139 8.15771 19.8267 8.22194 19.9508 8.24767C20.013 8.25832 20.0766 8.25832 20.1388 8.24767C20.134 8.11055 20.0773 7.98039 19.98 7.8836C19.8828 7.78681 19.7524 7.73064 19.6153 7.72649Z" fill="#F28F8F"/>
<path d="M6.90022 30.6985C7.06919 30.6653 7.22967 30.5982 7.372 30.5013C7.51433 30.4043 7.63556 30.2796 7.72838 30.1345C7.80606 29.8524 7.78678 29.5524 7.67365 29.2826C7.55228 29.1136 7.01445 28.4163 6.80979 28.4496C6.60513 28.483 6.2791 29.5134 6.40999 29.9322C6.51788 30.2192 6.68491 30.4803 6.90022 30.6985Z" fill="#F28F8F"/>
<path d="M11.3837 34.1637L10.3484 41.2745C10.2985 41.6196 10.0248 41.7838 9.70115 41.9147L8.88964 42.2383C8.79793 42.2867 8.69677 42.3146 8.5932 42.3199C8.48964 42.3253 8.38615 42.308 8.28994 42.2693C8.1594 42.2148 8.0369 42.1427 7.92583 42.0551H7.91156L7.87348 42.0265L0.862646 36.4793C0.611272 36.2809 0.416494 36.02 0.297864 35.7225C0.179235 35.4251 0.140927 35.1018 0.186789 34.7849L1.1387 28.3095C1.15492 28.2296 1.18992 28.1546 1.24082 28.0909C1.29172 28.0272 1.35705 27.9765 1.43141 27.943L2.81407 27.3909C2.89311 27.3633 2.97763 27.3552 3.06048 27.3672C3.14333 27.3792 3.22206 27.411 3.29002 27.4599L11.2099 33.7259C11.2721 33.7788 11.3197 33.8468 11.348 33.9234C11.3818 33.9987 11.3942 34.0819 11.3837 34.1637Z" fill="#37474F"/>
<path d="M11.3836 34.1633L10.3484 41.2741C10.2984 41.6192 10.0247 41.7834 9.7011 41.9143L8.88959 42.2379C8.79788 42.2863 8.69672 42.3142 8.59315 42.3195C8.48958 42.3249 8.3861 42.3076 8.28989 42.2689C8.15935 42.2144 8.03685 42.1423 7.92578 42.0547C8.20422 42.2379 8.46123 42.1166 8.51359 41.7644L9.4893 35.0653C9.50353 34.9422 9.48548 34.8175 9.43694 34.7035L11.3598 33.9373C11.3871 34.0093 11.3953 34.0872 11.3836 34.1633Z" fill="#263238"/>
<path d="M9.47724 35.0535C9.48857 34.9307 9.47077 34.8071 9.42528 34.6925C9.37979 34.578 9.30791 34.4758 9.21547 34.3943L1.70964 28.4686C1.41217 28.2306 1.12421 28.3473 1.06948 28.7233L0.186581 34.7846C0.13971 35.1013 0.177305 35.4248 0.295564 35.7223C0.413823 36.0198 0.608553 36.2808 0.860059 36.479L7.86137 42.0072C8.15885 42.2452 8.4468 42.1262 8.50153 41.7526L9.47724 35.0535Z" fill="#455A64"/>
<path d="M2.35714 27.5691L10.3056 33.8993C10.4175 33.9892 10.5039 34.1068 10.5565 34.2403C10.6091 34.3738 10.626 34.5188 10.6055 34.6608L9.53932 41.9787L9.39653 42.0358L10.4746 34.6418C10.491 34.5228 10.4765 34.4015 10.4323 34.2897C10.3881 34.178 10.3158 34.0796 10.2223 34.004L2.21436 27.6262L2.35714 27.5691Z" fill="#BA68C8"/>
<path opacity="0.2" d="M10.5554 34.2395C10.6089 34.3731 10.6262 34.5184 10.6054 34.6607L9.53927 41.9785L9.39648 42.0357L10.4745 34.6417C10.4918 34.5226 10.477 34.401 10.4317 34.2895L10.5554 34.2395Z" fill="black"/>
<path opacity="0.2" d="M10.4317 34.2896C10.3881 34.1777 10.3159 34.0793 10.2223 34.004L2.21436 27.6262L2.35714 27.5691L10.3056 33.8993C10.4135 33.9898 10.4956 34.1072 10.5436 34.2396" fill="black"/>
<path d="M5.30795 28.9279L5.14612 30.0297L4.67017 30.2153L4.88435 28.7542C4.88435 28.678 4.95098 28.6542 5.01047 28.7018L5.30795 28.9279Z" fill="#BA68C8"/>
<path opacity="0.4" d="M5.30795 28.9279L5.14612 30.0297L4.67017 30.2153L4.88435 28.7542C4.88435 28.678 4.95098 28.6542 5.01047 28.7018L5.30795 28.9279Z" fill="black"/>
<path d="M8.17784 30.4581L7.92558 32.2406L7.47818 32.419L7.21165 32.2168L7.42345 30.7556C7.42772 30.7143 7.42194 30.6726 7.40661 30.6341C7.39128 30.5956 7.36684 30.5613 7.3354 30.5342L5.41491 29.016L5.01511 28.7018C4.95562 28.6542 4.8985 28.678 4.88898 28.7542L4.6748 30.2154L4.42017 30.0155L4.67956 28.233V28.2092C4.69034 28.1733 4.70864 28.14 4.73326 28.1117C4.75788 28.0834 4.78825 28.0607 4.82235 28.045L5.01273 27.9688C5.05236 27.9553 5.09466 27.9515 5.13607 27.9577C5.17747 27.9639 5.21679 27.98 5.25071 28.0045L8.07789 30.2344C8.11078 30.2614 8.13694 30.2956 8.15429 30.3344C8.17164 30.3733 8.17971 30.4156 8.17784 30.4581Z" fill="#BA68C8"/>
<path opacity="0.2" d="M7.73044 30.6318L7.47104 32.4167L7.21165 32.2168L7.42345 30.7556C7.42772 30.7143 7.42194 30.6727 7.40661 30.6341C7.39128 30.5956 7.36684 30.5613 7.3354 30.5343L5.41491 29.016L5.01511 28.7018C4.95562 28.6543 4.8985 28.6781 4.88898 28.7542L4.6748 30.2154L4.42017 30.0155L4.67956 28.233V28.2092C4.69622 28.1545 4.74858 28.1402 4.80093 28.1807L7.62811 30.4129C7.66136 30.4386 7.68798 30.4719 7.70578 30.51C7.72358 30.5481 7.73203 30.5898 7.73044 30.6318Z" fill="black"/>
<path d="M4.63002 29.085C4.58531 28.577 4.57498 28.0666 4.59908 27.5572C4.64602 27.1097 4.72394 26.666 4.8323 26.2293C5.04648 25.1393 5.54623 21.879 6.04599 20.2156L8.79463 22.1837C8.79463 22.1837 7.23588 25.6867 7.08119 26.2697C6.98838 26.6172 7.31917 27.0836 7.45244 27.412C7.55905 27.727 7.62619 28.0539 7.65234 28.3854C7.69319 28.7427 7.76647 29.0956 7.87128 29.4396C7.88854 29.481 7.89665 29.5257 7.89508 29.5705C7.88363 29.6234 7.85296 29.6702 7.80901 29.7019C7.76506 29.7335 7.71093 29.7478 7.6571 29.7418C7.5453 29.72 7.44444 29.6604 7.37152 29.5729C7.19547 29.3619 7.06065 29.1197 6.9741 28.8589C6.95982 28.8232 6.9384 28.7804 6.89795 28.7756C6.87996 28.7757 6.86236 28.7809 6.84719 28.7906C6.83203 28.8003 6.81992 28.8141 6.81228 28.8304C6.76493 28.9289 6.73283 29.034 6.71708 29.1421C6.69705 29.4179 6.74019 29.6946 6.84321 29.9513C6.92651 30.2035 7.28585 30.4462 7.38104 30.5414C7.34059 30.57 7.25729 30.6247 7.2097 30.6509C7.12784 30.6964 7.04177 30.7339 6.95268 30.7628C6.78194 30.8026 6.60238 30.7735 6.45293 30.6819C6.24589 30.5771 6.11024 30.3534 5.88654 30.2892C5.82705 30.2725 5.76517 30.2678 5.7033 30.2559C5.56381 30.2386 5.43614 30.1688 5.34633 30.0607C5.27256 29.9632 5.244 29.8346 5.15119 29.7561C5.09881 29.7205 5.043 29.6902 4.98461 29.6657C4.88185 29.606 4.79561 29.5217 4.73369 29.4203C4.67178 29.3189 4.63614 29.2037 4.63002 29.085Z" fill="#FFA8A7"/>
<path d="M9.49641 20.939C9.49641 20.939 12.395 17.4336 12.9995 16.6554C13.6039 15.8772 14.7391 12.9477 13.661 11.1177C12.1808 11.4318 11.3622 11.6888 10.1199 13.4237C8.87767 15.1585 7.17851 17.6549 6.59546 18.5854C6.1552 19.2994 6.0029 19.9681 5.74112 21.2032C5.50314 22.2884 5.37939 23.1498 5.37939 23.1498C5.37939 23.1498 5.62927 23.5187 6.71683 23.7852C7.7211 24.0232 8.109 23.7234 8.109 23.7234L9.49641 20.939Z" fill="#37474F"/>
</svg>
