<svg width="26" height="56" viewBox="0 0 26 56" fill="none" xmlns="http://www.w3.org/2000/svg">
<path d="M12.2725 42.8877C12.37 44.8677 12.5104 47.5283 12.3486 48.1518C12.3224 48.2565 13.3672 48.7563 14.1001 48.6278C14.8331 48.4993 15.0235 48.2304 15.0235 48.1518C15.0235 47.8829 15.2448 47.3831 15.2757 47.1166C15.4733 45.4079 15.6327 44.0443 15.8207 42.833L12.2725 42.8877Z" fill="#B16668"/>
<path d="M23.0507 43.9587L19.719 43.5232C19.9927 45.2105 20.283 46.962 20.4972 48.1471C20.5482 48.5024 20.6294 48.8527 20.7399 49.1942C20.8637 49.9581 22.6747 50.1318 23.0935 48.9419L23.0626 47.9091C23.0626 46.9477 23.0483 45.3675 23.0507 43.9587Z" fill="#B16668"/>
<path d="M8.28167 51.8668C8.26408 51.961 8.27178 52.0582 8.30396 52.1485C8.33615 52.2388 8.39169 52.319 8.46492 52.3808C9.13826 52.866 9.97265 53.0731 10.7947 52.9591C11.9489 52.8235 12.2559 52.5688 12.739 52.2261C13.2221 51.8835 13.8313 51.1315 14.3549 51.022C14.8308 50.922 15.4186 50.7673 15.6209 50.5127C15.7518 50.3461 15.7209 49.825 15.7209 49.825L8.28167 51.8668Z" fill="#263238"/>
<path d="M15.3045 46.8833C15.3493 46.8851 15.3923 46.9013 15.4271 46.9297C15.4618 46.958 15.4865 46.9968 15.4973 47.0404C15.5306 47.2212 15.5663 47.8566 15.64 48.1517C15.743 48.781 15.7622 49.4212 15.6972 50.0555C15.6305 50.3911 14.6263 50.5886 14.1194 50.7695C13.6125 50.9503 13.1841 51.512 12.6558 51.9308C12.0407 52.4036 11.2897 52.6656 10.514 52.6781C9.62395 52.6638 8.62683 52.3735 8.40075 51.9641C8.12231 51.462 8.08424 50.9837 9.4074 50.3959C9.65965 50.284 10.5473 49.601 10.8353 49.4059C11.1402 49.1902 11.4282 48.9515 11.6967 48.6919C11.8134 48.5825 11.9347 48.473 12.0371 48.354C12.1216 48.2456 12.1846 48.122 12.2227 47.9899C12.2729 47.746 12.304 47.4985 12.3155 47.2498C12.3179 47.2267 12.3261 47.2046 12.3393 47.1855C12.3559 47.1695 12.3764 47.158 12.3988 47.1522C12.6104 47.0988 12.8306 47.089 13.0461 47.1237C13.2673 47.1461 13.4848 47.1965 13.6934 47.2736C13.8111 47.3019 13.9158 47.369 13.9909 47.464C14.031 47.5367 14.0507 47.6189 14.048 47.7019C14.042 47.7851 14.042 47.8686 14.048 47.9518C14.05 47.9824 14.0617 48.0116 14.0813 48.0351C14.1241 48.0803 14.1979 48.0351 14.236 48.0113C14.3657 47.8823 14.4858 47.7439 14.5953 47.5972C14.6572 47.5211 14.938 47.4759 15.0165 47.4164C15.0951 47.3569 15.1784 47.2236 15.2426 47.1641C15.3069 47.1046 15.2997 46.988 15.3045 46.8833Z" fill="#37474F"/>
<path d="M12.6486 51.9262C12.8633 51.7767 13.0584 51.6008 13.2292 51.4026C13.2292 51.4026 11.8537 52.0023 11.2326 51.5787C10.8304 51.305 11.0256 50.979 11.0375 50.8648C11.0494 50.7505 10.057 50.3031 9.66432 50.2532C9.55485 50.3127 9.46442 50.3603 9.40492 50.3841C8.18172 50.8862 8.14602 51.3526 8.27453 51.8571C8.49823 52.2617 9.34543 52.6805 10.4949 52.6901C11.2753 52.6684 12.0289 52.401 12.6486 51.9262Z" fill="#455A64"/>
<path d="M11.1565 50.5698C10.3331 50.8839 10.6805 51.0457 10.9185 51.0695C11.1565 51.0933 12.3464 50.1628 13.2007 49.5179C14.086 48.8468 14.7333 48.0662 15.0641 47.8187C15.1854 47.7259 15.4377 47.5689 15.5567 47.4641C15.5353 47.288 15.521 47.1262 15.5043 47.0405C15.4914 46.9934 15.4674 46.95 15.4342 46.9139C15.4011 46.8779 15.3599 46.8503 15.3139 46.8335L15.264 47.1667C15.1785 47.2331 15.0829 47.2853 14.9808 47.3214C14.8404 47.3862 14.716 47.4813 14.6167 47.5998C14.5072 47.7464 14.3871 47.8848 14.2573 48.0139C13.5244 48.8968 11.9775 50.2556 11.1565 50.5698Z" fill="#263238"/>
<path d="M10.9684 50.9529C10.9873 50.9536 11.0058 50.9477 11.0208 50.9362C11.0282 50.9289 11.0341 50.9202 11.0381 50.9106C11.0421 50.901 11.0442 50.8907 11.0442 50.8803C11.0442 50.8699 11.0421 50.8596 11.0381 50.85C11.0341 50.8404 11.0282 50.8317 11.0208 50.8244C10.8278 50.6254 10.5948 50.4696 10.3372 50.3675C10.0795 50.2653 9.80313 50.2191 9.52626 50.2318C9.51572 50.2324 9.50541 50.2351 9.49594 50.2398C9.48648 50.2444 9.47806 50.251 9.47117 50.259C9.46429 50.267 9.45908 50.2763 9.45587 50.2863C9.45266 50.2964 9.45151 50.307 9.45249 50.3175C9.45488 50.3385 9.46545 50.3578 9.48192 50.3712C9.49839 50.3845 9.51943 50.3909 9.54054 50.3889C9.79075 50.38 10.0401 50.4227 10.2731 50.5144C10.5061 50.6061 10.7176 50.7449 10.8946 50.9219C10.903 50.9332 10.9143 50.9421 10.9273 50.9475C10.9403 50.953 10.9545 50.9548 10.9684 50.9529Z" fill="#F0F0F0"/>
<path d="M11.7609 50.4128C11.776 50.413 11.7908 50.409 11.8037 50.4013C11.8166 50.3936 11.8271 50.3825 11.834 50.3691C11.8409 50.3558 11.844 50.3408 11.8428 50.3258C11.8417 50.3108 11.8364 50.2964 11.8276 50.2843C11.6383 50.0816 11.4085 49.9211 11.153 49.8133C10.8975 49.7054 10.6222 49.6527 10.345 49.6584C10.3333 49.6574 10.3216 49.659 10.3107 49.663C10.2997 49.6671 10.2897 49.6734 10.2814 49.6816C10.2732 49.6899 10.2667 49.6998 10.2627 49.7108C10.2586 49.7217 10.2569 49.7334 10.2578 49.7451C10.2587 49.7567 10.262 49.768 10.2677 49.7782C10.2734 49.7885 10.2812 49.7973 10.2906 49.8042C10.3 49.8112 10.3108 49.8159 10.3222 49.8183C10.3337 49.8206 10.3455 49.8205 10.3569 49.8178C10.6071 49.8153 10.8552 49.8644 11.0856 49.9618C11.3161 50.0592 11.5241 50.203 11.6967 50.3842C11.7044 50.3936 11.7143 50.4011 11.7254 50.4061C11.7366 50.411 11.7488 50.4133 11.7609 50.4128Z" fill="#F0F0F0"/>
<path d="M12.4105 49.8726C12.4286 49.8729 12.4463 49.867 12.4605 49.8559C12.477 49.8428 12.4877 49.8238 12.4904 49.8029C12.493 49.782 12.4874 49.7609 12.4748 49.7441C12.2814 49.545 12.048 49.3892 11.79 49.2871C11.5319 49.1849 11.2551 49.1387 10.9779 49.1515C10.9674 49.1521 10.9571 49.1548 10.9476 49.1595C10.9381 49.1641 10.9297 49.1707 10.9228 49.1787C10.9159 49.1867 10.9107 49.196 10.9075 49.206C10.9043 49.2161 10.9032 49.2267 10.9041 49.2372C10.9053 49.2478 10.9086 49.2581 10.9138 49.2675C10.919 49.2769 10.926 49.2851 10.9344 49.2918C10.9428 49.2984 10.9525 49.3033 10.9628 49.3062C10.9731 49.3091 10.9839 49.3099 10.9946 49.3086C11.2447 49.2994 11.4939 49.3423 11.7266 49.4345C11.9593 49.5266 12.1703 49.6661 12.3463 49.844C12.3544 49.853 12.3643 49.8603 12.3753 49.8652C12.3864 49.8701 12.3984 49.8726 12.4105 49.8726Z" fill="#F0F0F0"/>
<path d="M12.9889 49.4322C13.0069 49.4326 13.0246 49.4267 13.0388 49.4155C13.0475 49.4098 13.055 49.4024 13.0607 49.3937C13.0664 49.385 13.0703 49.3752 13.0721 49.3649C13.0739 49.3547 13.0735 49.3441 13.0711 49.334C13.0686 49.3239 13.0641 49.3144 13.0579 49.3061C12.8733 49.0994 12.647 48.9343 12.3939 48.8215C12.1408 48.7087 11.8666 48.6508 11.5896 48.6516C11.5789 48.6519 11.5685 48.6543 11.5588 48.6587C11.5491 48.663 11.5403 48.6693 11.533 48.677C11.5257 48.6847 11.52 48.6938 11.5163 48.7038C11.5125 48.7137 11.5107 48.7243 11.511 48.7349C11.5128 48.756 11.5228 48.7755 11.5388 48.7892C11.5548 48.803 11.5756 48.81 11.5967 48.8087C11.847 48.811 12.0942 48.8645 12.3229 48.9661C12.5517 49.0676 12.7573 49.2149 12.927 49.3989C12.9341 49.4087 12.9434 49.4168 12.9541 49.4226C12.9648 49.4284 12.9767 49.4316 12.9889 49.4322Z" fill="#F0F0F0"/>
<path d="M13.6219 48.9563C13.6396 48.9564 13.6569 48.9515 13.6719 48.942C13.6806 48.9361 13.6881 48.9284 13.6939 48.9195C13.6996 48.9106 13.7035 48.9006 13.7053 48.8902C13.707 48.8797 13.7067 48.869 13.7042 48.8587C13.7017 48.8484 13.6972 48.8387 13.6909 48.8302C13.3934 48.4232 12.6866 48.1305 12.0822 48.1686C12.0716 48.1689 12.0613 48.1713 12.0517 48.1757C12.0421 48.1801 12.0335 48.1863 12.0264 48.1941C12.0193 48.2019 12.0139 48.211 12.0104 48.2209C12.0068 48.2309 12.0054 48.2414 12.006 48.2519C12.0066 48.2624 12.0093 48.2727 12.014 48.2822C12.0186 48.2917 12.0252 48.3001 12.0332 48.307C12.0412 48.3139 12.0505 48.3191 12.0605 48.3223C12.0706 48.3255 12.0812 48.3267 12.0917 48.3257C12.3653 48.3112 12.6387 48.3572 12.8925 48.4604C13.1463 48.5637 13.3742 48.7216 13.56 48.923C13.5671 48.9328 13.5764 48.941 13.5871 48.9467C13.5978 48.9525 13.6097 48.9558 13.6219 48.9563Z" fill="#F0F0F0"/>
<path d="M20.5708 53.2971C20.5922 54.08 20.6946 54.6036 20.9587 55.07C21.0898 55.2889 21.2902 55.4579 21.5281 55.5501C21.766 55.6423 22.0279 55.6526 22.2723 55.5793C22.8054 55.4627 23.4955 55.1271 23.6693 54.4584C23.825 53.85 23.8461 53.2149 23.7311 52.5974L20.5708 53.2971Z" fill="#263238"/>
<path d="M23.0625 47.8997C23.2458 47.9639 23.2577 49.0348 23.3481 50.0891C23.4481 51.2195 23.6337 51.5645 23.7265 52.4903C23.8288 53.5493 23.7432 53.9015 23.3529 54.525C22.9626 55.1485 21.6347 55.7339 21.0207 54.801C20.5186 54.0395 20.5447 53.3327 20.6209 52.2808C20.6931 51.4468 20.7177 50.6094 20.6947 49.7725C20.678 48.9825 20.2925 48.2185 20.4852 48.1353C20.502 48.3377 20.5394 48.5378 20.5971 48.7326C20.6151 48.8362 20.6505 48.9359 20.7018 49.0277C20.7994 49.18 20.8565 48.9396 20.8589 48.8492C20.8589 48.6945 20.816 48.566 20.9422 48.4422C21.0392 48.3603 21.1529 48.3002 21.2753 48.2661C21.4049 48.219 21.5388 48.1847 21.6751 48.1638C21.9547 48.1301 22.2368 48.1237 22.5176 48.1448C22.5788 48.1434 22.6395 48.156 22.6952 48.1816C22.7508 48.2072 22.8 48.245 22.8388 48.2923C22.8543 48.3177 22.864 48.3461 22.8674 48.3756C22.8841 48.4803 22.8674 48.585 22.8888 48.6897C22.8888 48.7183 22.9031 48.7945 22.9293 48.8111C22.9555 48.8278 23.0007 48.823 23.003 48.8111C23.0054 48.7992 23.0768 48.0829 23.0625 47.8997Z" fill="#37474F"/>
<path d="M23.693 52.1284C23.7097 52.2807 23.7835 53.235 23.5026 53.4064C23.2218 53.5777 23.0624 52.7971 23.0624 52.7971C23.0624 52.7971 22.3722 52.5592 21.3466 52.9732C21.3918 53.1374 21.218 53.6705 20.9444 53.5491C20.6707 53.4278 20.616 52.3878 20.6136 52.3712C20.5398 53.3802 20.5327 54.0608 21.0205 54.8009C21.6345 55.7338 22.9624 55.1507 23.3527 54.5249C23.743 53.899 23.8287 53.5492 23.7263 52.4901C23.7144 52.3854 23.7073 52.2236 23.693 52.1284Z" fill="#455A64"/>
<path d="M22.9817 52.8615C22.9817 53.2446 23.3172 53.1233 23.3886 52.5902C23.491 51.7882 23.3172 51.0148 23.3482 50.0891C23.2577 49.0348 23.2815 47.9235 23.0626 47.8997C23.0626 48.0805 23.0031 48.804 23.0031 48.804C23.0459 49.5917 23.222 50.5174 23.1649 51.3265C23.1197 52.05 22.9888 52.4807 22.9817 52.8615Z" fill="#263238"/>
<path d="M21.4539 52.9662C21.3944 52.5878 21.2777 52.4784 21.2159 51.7763C21.154 51.0743 20.8137 49.7797 20.6899 49.0063C20.6566 48.7683 20.471 48.1543 20.4686 48.1448C20.3306 48.2066 20.4448 48.6517 20.5376 49.13C20.6304 49.6083 20.6923 49.9034 20.7447 50.3627C20.9041 51.2742 20.8994 52.238 21.0065 52.7663C21.1135 53.2946 21.5229 53.3422 21.4539 52.9662Z" fill="#263238"/>
<path d="M21.3776 52.9805H21.4061C21.939 52.7518 22.5336 52.7099 23.0934 52.8615C23.1132 52.8654 23.1337 52.8618 23.151 52.8513C23.1682 52.8408 23.1809 52.8242 23.1866 52.8049C23.1923 52.7855 23.1905 52.7647 23.1816 52.7465C23.1727 52.7284 23.1574 52.7143 23.1386 52.7069C22.5413 52.5405 21.9048 52.5859 21.3371 52.8354C21.321 52.8439 21.3082 52.8577 21.3009 52.8745C21.2936 52.8912 21.2922 52.9099 21.2969 52.9276C21.3016 52.9452 21.3121 52.9608 21.3268 52.9717C21.3414 52.9826 21.3593 52.9882 21.3776 52.9877V52.9805Z" fill="#F0F0F0"/>
<path d="M21.18 52.2166H21.2085C21.835 51.9727 22.5193 51.9181 23.1766 52.0595C23.1869 52.0622 23.1976 52.0627 23.2082 52.0613C23.2187 52.0598 23.2289 52.0562 23.238 52.0508C23.2472 52.0454 23.2552 52.0382 23.2616 52.0297C23.268 52.0212 23.2727 52.0115 23.2753 52.0012C23.278 51.9909 23.2786 51.9801 23.2771 51.9696C23.2756 51.9591 23.2721 51.9489 23.2666 51.9397C23.2612 51.9306 23.2541 51.9226 23.2456 51.9162C23.237 51.9098 23.2274 51.9051 23.217 51.9024C22.5243 51.7483 21.8012 51.8064 21.1419 52.069C21.1322 52.0734 21.1235 52.0796 21.1162 52.0874C21.1089 52.0951 21.1032 52.1042 21.0995 52.1142C21.0957 52.1241 21.0939 52.1347 21.0943 52.1453C21.0946 52.156 21.097 52.1664 21.1014 52.1761C21.1094 52.1895 21.121 52.2004 21.1349 52.2076C21.1488 52.2148 21.1644 52.2179 21.18 52.2166Z" fill="#F0F0F0"/>
<path d="M23.3076 51.4361C23.3264 51.4353 23.3443 51.428 23.3583 51.4155C23.3723 51.4029 23.3815 51.3859 23.3843 51.3674C23.3871 51.3488 23.3834 51.3298 23.3737 51.3137C23.3641 51.2976 23.3491 51.2853 23.3314 51.279C22.3629 50.9173 21.0635 51.3338 21.0207 51.3528C21.002 51.3626 20.9878 51.3793 20.9813 51.3994C20.9747 51.4194 20.9763 51.4412 20.9856 51.4602C20.9949 51.4791 21.0113 51.4937 21.0311 51.5007C21.051 51.5078 21.0729 51.5068 21.0921 51.498C21.0921 51.498 22.3748 51.0934 23.2743 51.4313C23.285 51.4351 23.2963 51.4367 23.3076 51.4361Z" fill="#F0F0F0"/>
<path d="M23.1719 50.7481C23.1869 50.7471 23.2013 50.7418 23.2135 50.733C23.2257 50.7242 23.2352 50.7121 23.2409 50.6982C23.2451 50.6884 23.2473 50.6778 23.2473 50.6671C23.2473 50.6564 23.2451 50.6459 23.2408 50.6361C23.2366 50.6263 23.2304 50.6174 23.2227 50.6101C23.2149 50.6028 23.2057 50.5971 23.1957 50.5935C22.1319 50.1722 21.0087 50.7243 20.9706 50.7481C20.9612 50.7531 20.9529 50.7599 20.9462 50.7682C20.9395 50.7765 20.9346 50.786 20.9317 50.7963C20.9288 50.8065 20.928 50.8172 20.9294 50.8277C20.9307 50.8383 20.9342 50.8485 20.9397 50.8576C20.9502 50.8761 20.9676 50.8898 20.9881 50.8956C21.0085 50.9014 21.0305 50.8988 21.0491 50.8886C21.0491 50.8886 22.1462 50.3531 23.1362 50.7434C23.1477 50.7473 23.1598 50.7489 23.1719 50.7481Z" fill="#F0F0F0"/>
<path d="M23.1314 49.9082C23.147 49.9082 23.1622 49.9034 23.1749 49.8944C23.1877 49.8855 23.1974 49.8728 23.2028 49.8582C23.207 49.8484 23.2092 49.8378 23.2091 49.8272C23.2091 49.8165 23.2069 49.8059 23.2027 49.7961C23.1985 49.7863 23.1923 49.7775 23.1845 49.7702C23.1768 49.7628 23.1676 49.7572 23.1576 49.7535C22.1628 49.3442 20.9587 49.9082 20.9158 49.932C20.9047 49.9358 20.8947 49.9421 20.8862 49.9502C20.8778 49.9584 20.8712 49.9683 20.867 49.9792C20.8628 49.9901 20.861 50.0019 20.8617 50.0136C20.8625 50.0253 20.8658 50.0366 20.8714 50.047C20.877 50.0573 20.8847 50.0662 20.8941 50.0732C20.9035 50.0802 20.9143 50.0851 20.9258 50.0875C20.9373 50.09 20.9491 50.0899 20.9605 50.0872C20.972 50.0846 20.9827 50.0796 20.992 50.0724C20.992 50.0724 22.1819 49.5227 23.0957 49.9034C23.1069 49.9085 23.1193 49.9102 23.1314 49.9082Z" fill="#EBEBEB"/>
<path d="M16.9178 30.3512L16.4037 35.5296C16.4037 35.5296 16.4846 37.1526 16.4323 38.6091C16.3799 40.0655 15.7731 44.1539 15.4804 45.7032C15.0081 45.9936 14.4689 46.1573 13.9149 46.1786C13.3609 46.1999 12.8108 46.0779 12.3176 45.8245C12.3176 45.8245 11.8417 37.3525 11.7822 35.3035C11.6894 32.5835 11.7513 24.9467 11.8036 21.7031L21.9534 21.5889C21.9534 21.5889 22.0367 23.3499 22.2508 25.9534C22.3056 28.5711 22.4603 35.5796 22.4603 35.5796C23.3955 38.7257 23.2004 40.7509 23.1218 46.5432C22.6886 46.8312 22.1879 47.0017 21.669 47.038C21.15 47.0743 20.6305 46.9751 20.1614 46.7503C20.1614 46.7503 18.8597 40.9984 18.3647 38.659C18.1267 37.5453 17.3818 32.9047 16.9178 30.3298" fill="#455A64"/>
<path d="M13.058 26.7434L12.9985 30.7295C13.0175 31.3626 12.9556 32.7595 12.9794 33.3949C13.0032 34.0303 12.9913 34.4539 13.0223 35.3225C13.0532 36.1911 13.2293 41.1078 13.2603 42.3833C12.9913 40.984 12.8533 36.7932 12.7438 35.2844C12.7034 33.9184 12.7581 32.5739 12.8224 30.7224C12.8866 28.8709 12.9699 28.0142 13.058 26.7434Z" fill="#37474F"/>
<path d="M18.7861 25.813C19.1883 27.9191 19.7571 33.3402 19.8761 34.7895C19.9951 36.2388 21.1064 41.9812 21.1802 43.44C20.9922 41.9907 19.7166 36.2721 19.5834 34.8133C19.4501 33.3545 18.9741 28.4641 18.7861 25.813Z" fill="#37474F"/>
<path d="M16.0493 26.5077L16.9179 30.351L16.4039 35.5294L16.4801 31.2768L15.5044 26.9717C14.9952 26.8751 14.5239 26.6363 14.1449 26.283C13.7658 25.9296 13.4946 25.4762 13.3625 24.9751C14.3145 26.1745 16.0493 26.5077 16.0493 26.5077Z" fill="#37474F"/>
<path d="M10.8851 11.8173C10.2164 12.6217 9.11216 13.7211 8.02936 14.9538L7.79138 14.7397C7.30114 14.2804 6.81805 13.8163 6.34209 13.3427C6.10412 13.1048 5.8471 12.8477 5.60912 12.5907C5.52107 12.4955 5.43301 12.398 5.34972 12.2956C5.13316 12.0315 5.1879 11.6531 5.176 11.3437C5.17904 10.9466 5.13105 10.5507 5.03321 10.1657C4.99514 10.042 4.94754 9.92774 4.90709 9.79685C4.82263 9.53601 4.7699 9.26595 4.75002 8.99249C4.74974 8.91953 4.73434 8.84741 4.7048 8.78069C4.62151 8.63076 4.43827 8.69977 4.3407 8.78069C4.24466 8.89071 4.18849 9.02987 4.18126 9.17573C4.1408 9.48034 4.19553 9.78496 4.18126 10.0919C4.18126 10.2062 4.13366 10.3442 4.02181 10.3704C3.99113 10.375 3.9598 10.3722 3.93042 10.3623C3.90103 10.3523 3.87444 10.3355 3.85285 10.3133C3.72325 10.1763 3.61132 10.0236 3.51968 9.85873C3.40545 9.68263 3.28169 9.50652 3.17222 9.3328C2.96994 9.02819 2.77004 8.71644 2.54158 8.43086C2.24173 8.05724 2.00375 8.01202 1.88001 8.15719C1.81099 8.2381 1.96806 8.51415 2.28933 9.1091C2.6106 9.70404 2.87476 10.08 2.8343 10.1062C2.79384 10.1324 2.58442 9.69452 2.1513 9.15431C1.7515 8.66408 1.54922 8.45466 1.2922 8.36661C1.03518 8.27856 0.956651 8.46656 1.05422 8.63314C1.18749 8.8378 1.33028 9.0853 1.88239 9.82303C2.05941 10.0432 2.21857 10.2772 2.35834 10.5227C2.32741 10.575 2.00376 10.1919 1.53256 9.78972C1.26757 9.54204 0.979939 9.31975 0.673456 9.12576C0.645485 9.10928 0.613042 9.10201 0.580713 9.10499C0.548385 9.10798 0.517813 9.12106 0.493331 9.14238C0.468849 9.1637 0.451695 9.19219 0.444302 9.2238C0.436909 9.25541 0.439651 9.28855 0.452138 9.31852C0.587081 9.55002 0.746661 9.76625 0.928094 9.96344C1.19463 10.2776 1.316 10.3799 1.53256 10.606C1.68249 10.7607 1.87049 10.9653 1.84907 10.9963C1.82765 11.0272 0.949511 10.4275 0.659178 10.3252C0.335527 10.2086 0.276033 10.4727 0.473555 10.675C0.585405 10.7916 1.0328 11.151 1.42547 11.5579C1.7158 11.853 2.04421 12.2552 2.21556 12.4289C3.06038 13.2785 3.1984 13.2047 3.57441 13.6402C3.95041 14.0757 4.59772 15.1133 5.3997 16.1747C6.06128 17.048 6.7776 17.9119 7.06555 18.1975C7.91989 19.0566 8.45296 18.6449 9.49292 17.7953C10.5859 16.8342 11.5866 15.7729 12.4819 14.6254L14.6237 10.0325C13.0673 9.95392 12.0345 10.4299 10.8851 11.8173Z" fill="#B16668"/>
<path d="M3.80992 10.8655C3.80992 10.8655 3.80992 10.8655 3.80992 10.8774C3.73042 11.0093 3.67258 11.1531 3.63858 11.3034C3.59734 11.4479 3.57966 11.5982 3.58623 11.7484C3.59156 11.8816 3.61395 12.0135 3.65286 12.141C3.67666 12.2053 3.70283 12.2672 3.73139 12.329C3.78779 12.4252 3.83865 12.5245 3.8837 12.6265C3.8837 12.6432 3.88369 12.6741 3.85513 12.6622C3.78795 12.6145 3.73192 12.5528 3.69093 12.4813C3.63849 12.4064 3.59309 12.3267 3.55529 12.2434C3.47883 12.0811 3.43362 11.9059 3.42202 11.727C3.41208 11.5627 3.44219 11.3985 3.50976 11.2484C3.57733 11.0983 3.68033 10.9669 3.80992 10.8655Z" fill="#9A4A4D"/>
<path d="M13.6004 10.0229C12.5938 10.1895 11.9751 10.4704 10.9827 11.5246C9.99032 12.5788 8.01748 14.7849 8.01748 14.7849L6.14935 13.119C6.0622 13.5526 5.8106 13.9355 5.44732 14.1876C5.08293 14.4466 4.64209 14.5757 4.19556 14.5541C4.19556 14.5541 5.26408 16.1414 5.83999 16.9338C6.41589 17.7263 7.11793 18.5997 7.74381 18.7734C8.36969 18.9471 8.82661 18.5211 9.57148 17.9024C10.3164 17.2837 13.6457 14.0234 13.6457 14.0234L13.6004 10.0229Z" fill="#37474F"/>
<path d="M21.644 10.1134C20.9848 9.97058 20.2899 9.84445 19.0809 9.58506V9.48511L18.9905 9.56602L18.6288 9.48987L15.773 9.63265C15.773 9.63265 13.6788 9.97058 13.5908 10.0229C12.3128 10.6417 12.0844 12.7763 11.9249 15.8415C11.794 18.3427 11.7036 23.6258 11.7036 23.6258C11.7036 23.6258 12.1225 24.4039 15.5327 24.7014C19.8758 25.0798 22.108 23.4425 22.108 23.4425C21.9724 21.9099 22.0176 20.8248 22.0009 19.7372C22.0178 18.3833 22.1228 17.0319 22.3151 15.6916C22.6856 13.8079 22.4507 11.8554 21.644 10.1134Z" fill="#263238"/>
<path d="M13.6669 4.1187L13.6455 4.09014C13.5343 3.92599 13.4424 3.7495 13.3718 3.56421C13.2171 3.20248 12.8959 2.11492 13.5765 2.06257C13.4289 1.90312 13.2124 1.58661 13.4599 1.40575C13.6669 1.26296 13.9787 1.39147 14.2095 1.38433C14.1111 1.29276 14.0304 1.18385 13.9715 1.06306C13.916 0.946272 13.8868 0.818741 13.8858 0.689437C14.012 0.713235 14.1238 0.76559 14.25 0.794148C14.5648 0.845606 14.8854 0.851217 15.2019 0.810806C15.5565 0.784629 15.892 0.66326 16.2442 0.632323C16.5919 0.604981 16.9412 0.604981 17.2889 0.632323C18.4407 0.713235 19.5711 1.20109 19.7758 2.38622C20.7015 2.67179 20.5825 4.19247 20.3446 4.86119C19.8686 6.22005 18.9357 7.39566 18.9167 8.09293L18.6264 7.87399L17.1699 6.78167L15.2852 5.35381L14.4689 4.7422C14.1752 4.57077 13.9055 4.3611 13.6669 4.1187Z" fill="#263238"/>
<path d="M13.7455 7.54815C13.8053 7.82924 13.9434 8.08766 14.1438 8.29359C14.3443 8.49951 14.5989 8.64452 14.8782 8.71187C15.1313 8.7474 15.3867 8.76331 15.6422 8.75946L15.6303 9.64236C15.209 10.2254 15.6303 11.4105 15.823 11.6818C16.5822 10.6038 18.4122 10.3991 18.9429 9.64712L18.9548 6.94369C18.9548 6.94369 19.3237 7.36967 19.94 6.97463C20.1891 6.7934 20.368 6.53175 20.4465 6.23387C20.525 5.93599 20.4982 5.62015 20.3708 5.33972C20.0733 4.6948 19.4617 4.95657 19.2713 5.14934C19.0809 5.3421 18.862 5.7062 18.7073 5.65385C18.6175 5.62524 18.5362 5.57485 18.4705 5.50716C18.4049 5.43948 18.3571 5.35661 18.3313 5.26595C18.194 4.86583 18.1303 4.44414 18.1433 4.02132C17.9062 3.90311 17.7109 3.71538 17.5833 3.48321C17.4557 3.25103 17.402 2.98546 17.4294 2.72196C16.2062 2.06276 14.5736 2.20317 14.0239 2.62201C13.7859 3.04323 13.6717 3.66673 13.7193 4.57819C13.691 4.86791 13.6409 5.15509 13.5694 5.43729C13.5127 6.14581 13.5722 6.85883 13.7455 7.54815Z" fill="#B16668"/>
<path d="M15.6421 8.738C16.3156 8.70706 17.4984 8.5738 18.1195 8.00741C18.505 7.65758 18.6431 6.86987 18.6431 6.86987C18.6431 6.86987 18.5812 7.83844 18.298 8.26442C18.0148 8.6904 17.3104 8.87127 16.8844 8.97836C16.4584 9.08545 15.635 9.16636 15.635 9.16636L15.6421 8.738Z" fill="#9A4A4D"/>
<path d="M16.1895 4.80169C16.1909 4.85633 16.2083 4.90935 16.2396 4.95414C16.271 4.99892 16.3148 5.0335 16.3656 5.05355C16.4165 5.07361 16.4721 5.07825 16.5256 5.06691C16.5791 5.05556 16.628 5.02873 16.6663 4.98976C16.7046 4.95078 16.7307 4.90139 16.7411 4.84774C16.7515 4.79409 16.746 4.73855 16.7251 4.68804C16.7042 4.63754 16.6688 4.59431 16.6235 4.56373C16.5782 4.53316 16.5249 4.5166 16.4703 4.51611C16.3954 4.51736 16.3239 4.548 16.2714 4.60142C16.2189 4.65484 16.1894 4.72676 16.1895 4.80169Z" fill="#263238"/>
<path d="M13.9549 4.27819L14.5975 4.04022C14.5841 3.99762 14.5622 3.95817 14.5332 3.92426C14.5041 3.89034 14.4685 3.86265 14.4285 3.84286C14.3885 3.82307 14.3449 3.81159 14.3003 3.80911C14.2557 3.80662 14.2111 3.81319 14.1691 3.82842C14.0822 3.86118 14.0114 3.92632 13.9714 4.01017C13.9315 4.09402 13.9256 4.19008 13.9549 4.27819Z" fill="#263238"/>
<path d="M16.3347 4.01161L16.9249 4.35192C16.9492 4.31466 16.9657 4.27281 16.9732 4.22895C16.9808 4.18509 16.9793 4.14016 16.9688 4.0969C16.9583 4.05365 16.9391 4.013 16.9123 3.97746C16.8855 3.94192 16.8517 3.91224 16.8131 3.89024C16.733 3.84499 16.6386 3.83235 16.5495 3.85496C16.4604 3.87757 16.3835 3.93368 16.3347 4.01161Z" fill="#263238"/>
<path d="M14.0764 4.75896C14.0778 4.8136 14.0953 4.86662 14.1266 4.91141C14.1579 4.9562 14.2018 4.99078 14.2526 5.01083C14.3035 5.03088 14.3591 5.03553 14.4126 5.02418C14.466 5.01284 14.515 4.98601 14.5533 4.94703C14.5916 4.90806 14.6176 4.85867 14.6281 4.80502C14.6385 4.75136 14.6329 4.69582 14.612 4.64532C14.5911 4.59482 14.5558 4.55158 14.5105 4.52101C14.4652 4.49044 14.4119 4.47387 14.3572 4.47339C14.32 4.4737 14.2833 4.48133 14.249 4.49585C14.2148 4.51037 14.1838 4.5315 14.1577 4.55801C14.1316 4.58453 14.111 4.61593 14.0971 4.65041C14.0831 4.68488 14.0761 4.72177 14.0764 4.75896Z" fill="#263238"/>
<path d="M15.5707 4.40454L15.3517 6.3988L14.2832 6.06563L15.5707 4.40454Z" fill="#9A4A4D"/>
<path d="M16.2966 6.59619C16.344 6.72523 16.3392 6.86764 16.2833 6.9932C16.2274 7.11877 16.1247 7.21759 15.9971 7.26869C15.8695 7.31979 15.727 7.31915 15.5999 7.2669C15.4727 7.21466 15.371 7.11492 15.3162 6.98886L16.2966 6.59619Z" fill="#9A4A4D"/>
<path d="M16.2182 6.86967C16.0958 6.86804 15.9768 6.91037 15.8829 6.98897C15.789 7.06757 15.7265 7.17723 15.7065 7.29803C15.8084 7.32025 15.9146 7.31113 16.0112 7.27186C16.093 7.23942 16.1653 7.18688 16.2215 7.11908C16.2777 7.05127 16.3158 6.97041 16.3324 6.88395C16.2949 6.87554 16.2566 6.87076 16.2182 6.86967Z" fill="#FFA8A7"/>
<path d="M15.8279 11.6722C16.1611 11.4746 16.8536 10.8107 17.1748 11.2295C17.4961 11.6484 17.7293 12.1338 17.9697 12.0648C18.5704 11.7813 19.0726 11.3247 19.4118 10.7536C19.5617 10.4373 19.6467 10.0942 19.6617 9.74455C19.5306 9.58398 19.4181 9.40916 19.3262 9.22338C19.1929 8.95446 19.1548 8.70221 18.943 8.68555V9.36379C18.943 9.36379 18.7645 9.74693 18.0601 10.0111C17.1153 10.3657 16.2658 10.7464 15.8279 11.6722Z" fill="#37474F"/>
<path d="M15.8279 11.6723C15.6327 11.4914 15.5304 10.9584 15.2068 11.044C14.8831 11.1297 14.4143 11.8603 14.4072 11.689C14.4 11.5176 14.6213 10.2944 14.8688 9.93268C15.1163 9.57095 15.4186 8.91651 15.6399 8.93317V9.63283C15.5525 9.88522 15.5106 10.1511 15.5161 10.4182C15.5471 10.7085 15.7898 11.3915 15.8279 11.6723Z" fill="#37474F"/>
<path d="M20.7659 27.286C20.7151 27.3337 20.671 27.3882 20.635 27.4478C20.6187 27.4783 20.612 27.5131 20.6158 27.5475C20.6196 27.5819 20.6338 27.6144 20.6564 27.6406C20.6814 27.6629 20.7117 27.6785 20.7444 27.6858C20.8485 27.7093 20.9562 27.7106 21.0608 27.6897C21.1654 27.6688 21.2643 27.6261 21.3513 27.5644C21.5253 27.44 21.6746 27.2842 21.7916 27.1051C21.8284 27.0421 21.8808 26.9896 21.9439 26.9528C22.2294 26.8148 22.0914 27.2955 22.0676 27.4073C22.0079 27.7256 21.917 28.0373 21.7963 28.3378C21.7249 28.5758 21.1419 29.1136 21.0062 29.3302C20.944 29.4115 20.9086 29.5101 20.9048 29.6124C20.9009 29.7147 20.9289 29.8156 20.9848 29.9013C21.0943 30.0013 21.3204 29.8514 21.6012 29.5753C21.8095 29.3964 22.0044 29.2023 22.1842 28.9947C22.2913 28.8352 22.4032 28.6781 22.4032 28.6781C22.3446 28.874 22.2689 29.0643 22.1771 29.2469C22.0748 29.404 21.6868 29.8062 21.5655 30.0037C21.5217 30.0815 21.5029 30.1709 21.5114 30.2598C21.5199 30.3487 21.5554 30.4329 21.6131 30.5011C21.6821 30.5772 21.7202 30.6914 22.089 30.3154C22.2732 30.1355 22.4457 29.9439 22.6054 29.7419C22.7033 29.7645 22.8056 29.76 22.9011 29.729C22.9967 29.698 23.082 29.6416 23.148 29.5658C23.3646 29.304 23.5566 29.0228 23.7216 28.7257C23.821 28.6954 23.9131 28.6451 23.9925 28.578C24.0719 28.511 24.1368 28.4284 24.1832 28.3355C24.3332 28.0237 24.5307 27.5287 24.6735 27.1265C24.8163 26.7243 24.733 25.6987 24.8091 25.0038C24.8305 24.7872 25.0471 22.3455 25.1375 20.8272C25.2143 19.82 25.1728 18.8073 25.0138 17.8097C24.6949 16.4247 24.7163 16.5984 24.2094 14.6874C23.881 13.4499 23.6145 12.567 23.3979 11.9745C23.0624 11.0606 22.8506 10.6537 21.5369 10.1777C20.823 10.756 20.5517 12.1815 21.0134 14.8921C21.3601 16.18 21.8032 17.4401 22.3389 18.6616C22.3389 18.6616 22.534 24.5587 22.5293 24.6635C22.534 24.7586 22.5147 24.8534 22.4731 24.9391C22.4315 25.0248 22.369 25.0986 22.2913 25.1537C22.1366 25.287 21.9605 25.3917 21.8154 25.5368C21.3394 26.0009 21.2347 26.7529 20.7897 27.2503L20.7659 27.286Z" fill="#B16668"/>
<path d="M22.6077 29.7419C22.8205 29.4911 22.9982 29.2124 23.136 28.9137C23.2783 28.6177 23.3861 28.3063 23.4572 27.9856C23.3383 28.2902 23.2193 28.5948 23.0765 28.8852C22.9399 29.1811 22.7833 29.4673 22.6077 29.7419Z" fill="#9A4A4D"/>
<path d="M23.7239 28.7282C23.8231 28.5991 23.9033 28.4565 23.9619 28.3046C24.0282 28.152 24.0769 27.9923 24.107 27.8286C24.0285 27.9738 23.969 28.1237 23.9024 28.2713L23.7239 28.7282Z" fill="#9A4A4D"/>
<path d="M22.4056 28.6782C22.5631 28.4421 22.6986 28.1919 22.8101 27.9309C22.7579 28.3143 22.5835 28.6707 22.3127 28.9471L22.4056 28.6782Z" fill="#9A4A4D"/>
<path d="M21.4702 10.0754C22.6148 10.2753 23.0955 10.7346 23.3906 11.2082C23.7524 11.7865 23.9213 12.4766 24.5805 14.716C25.2397 16.9554 25.442 17.9287 25.4587 18.4071C25.4984 19.2965 25.4498 20.1878 25.3135 21.0676C25.1921 22.0196 25.0279 23.2094 24.8494 24.6754C24.1855 24.9324 22.7076 24.6611 22.3745 24.2256C22.3745 23.2356 22.3364 22.3884 22.3197 21.2699C22.2983 19.8778 22.2245 18.795 22.2245 18.795L20.83 14.6089C20.83 14.6089 20.0256 11.1606 21.4702 10.0754Z" fill="#37474F"/>
<path d="M8.00781 14.7849C8.65749 15.3465 9.15725 15.9867 9.1977 16.8625C9.2721 16.4235 9.21931 15.9725 9.04557 15.5626C8.87183 15.1527 8.5844 14.8011 8.21723 14.5493L8.00781 14.7849Z" fill="#263238"/>
</svg>
