<svg width="112" height="29" viewBox="0 0 112 29" fill="none" xmlns="http://www.w3.org/2000/svg">
<path d="M51.8324 19.9129L50.9376 19.6749C50.8792 19.6538 50.8278 19.6171 50.7888 19.5689C50.7498 19.5206 50.7247 19.4627 50.7163 19.4012C50.6906 19.2344 50.6524 19.0697 50.602 18.9086C50.5964 18.8328 50.61 18.7569 50.6416 18.6878C50.6732 18.6187 50.7218 18.5588 50.7829 18.5135L51.3064 18.0638C51.4397 17.9495 51.5016 17.7877 51.4421 17.7044L50.8329 16.8596C50.7734 16.7763 50.6068 16.7739 50.4616 16.8596L49.8119 17.2094C49.7516 17.248 49.6826 17.2711 49.6112 17.2765C49.5397 17.2819 49.4681 17.2695 49.4026 17.2404C49.2523 17.1313 49.0931 17.035 48.9267 16.9524C48.8748 16.9189 48.8328 16.8721 48.8052 16.8168C48.7775 16.7616 48.7653 16.6999 48.7696 16.6383L48.8315 15.8006C48.8359 15.7408 48.819 15.6815 48.7837 15.6331C48.7484 15.5847 48.697 15.5504 48.6387 15.5364L47.6321 15.3722C47.5665 15.37 47.5021 15.3906 47.45 15.4305C47.3979 15.4705 47.3613 15.5272 47.3465 15.5912L47.1085 16.3408C47.0848 16.4111 47.0431 16.474 46.9876 16.5233C46.9321 16.5725 46.8646 16.6064 46.792 16.6216C46.652 16.6429 46.5136 16.674 46.3779 16.7144C46.3146 16.7373 46.2466 16.7445 46.1799 16.7354C46.1132 16.7263 46.0496 16.7011 45.9948 16.6621L45.3617 15.9624C45.2951 15.8886 45.1238 15.9053 44.981 16.0053L44.3099 16.4669C44.1671 16.5669 44.0909 16.7192 44.1433 16.8096L44.5978 17.6187C44.6142 17.6904 44.6133 17.7649 44.5951 17.8361C44.5768 17.9073 44.5419 17.9731 44.4931 18.0281C44.4313 18.1137 44.3741 18.2042 44.3194 18.2946C44.2837 18.3608 44.2322 18.4171 44.1696 18.4586C44.1069 18.5001 44.0349 18.5255 43.9601 18.5326L43.0676 18.485C43.0023 18.4862 42.9397 18.511 42.8911 18.5547C42.8426 18.5984 42.8115 18.6581 42.8035 18.723L42.6345 19.6273C42.6197 19.6863 42.6268 19.7486 42.6543 19.8029C42.6819 19.8571 42.7281 19.8995 42.7844 19.9224L43.6769 20.1604C43.7336 20.1808 43.7838 20.2161 43.8223 20.2626C43.8608 20.309 43.8862 20.3649 43.8958 20.4245C43.9196 20.5915 43.957 20.7562 44.0077 20.9171C44.0138 20.9927 44.0007 21.0686 43.9695 21.1377C43.9382 21.2068 43.89 21.2668 43.8292 21.3122L43.3056 21.7619C43.17 21.8762 43.1105 22.038 43.17 22.1213L43.7792 22.9661C43.8387 23.0494 44.0053 23.0518 44.1504 22.9661L44.7977 22.6163C44.8588 22.5783 44.9281 22.5556 44.9998 22.5502C45.0715 22.5448 45.1434 22.5569 45.2094 22.5854C45.3598 22.6945 45.519 22.7908 45.6854 22.8733C45.7377 22.9064 45.7799 22.9532 45.8076 23.0085C45.8353 23.0639 45.8473 23.1257 45.8425 23.1874L45.783 24.0251C45.7753 24.0854 45.7909 24.1464 45.8268 24.1955C45.8626 24.2447 45.9159 24.2782 45.9757 24.2893L46.9824 24.4535C47.0479 24.4553 47.112 24.4345 47.164 24.3946C47.216 24.3548 47.2527 24.2983 47.268 24.2345L47.494 23.4849C47.5186 23.4146 47.5608 23.3519 47.6167 23.3027C47.6725 23.2535 47.7401 23.2196 47.8129 23.2041C47.9529 23.1828 48.0913 23.1518 48.227 23.1113C48.2903 23.0884 48.3583 23.0812 48.425 23.0903C48.4918 23.0994 48.5553 23.1246 48.6101 23.1636L49.2408 23.8633C49.3098 23.9371 49.4788 23.9204 49.6216 23.8205L50.295 23.3588C50.4378 23.2588 50.5116 23.1065 50.4616 23.0161L50.0071 22.207C49.9895 22.1354 49.9898 22.0606 50.0081 21.9892C50.0263 21.9178 50.062 21.852 50.1118 21.7976C50.1737 21.712 50.2308 21.6215 50.2855 21.5311C50.321 21.4652 50.3721 21.4091 50.4343 21.3676C50.4966 21.3261 50.568 21.3005 50.6425 21.2931L51.5349 21.3407C51.6006 21.3401 51.6639 21.3156 51.7129 21.2718C51.7619 21.228 51.7934 21.168 51.8014 21.1027L51.9704 20.1984C51.9835 20.1422 51.977 20.0832 51.9519 20.0312C51.9268 19.9793 51.8846 19.9375 51.8324 19.9129ZM49.2884 20.2389C49.1839 20.7578 48.8815 21.2156 48.4453 21.5155C48.0091 21.8153 47.4733 21.9336 46.9514 21.8452C46.6954 21.8078 46.4494 21.7193 46.2283 21.585C46.0071 21.4506 45.8152 21.2731 45.664 21.0631C45.5128 20.853 45.4054 20.6147 45.3482 20.3624C45.2909 20.11 45.285 19.8487 45.3308 19.594C45.4353 19.0751 45.7377 18.6172 46.1739 18.3174C46.6101 18.0176 47.1459 17.8993 47.6678 17.9876C47.9238 18.025 48.1698 18.1135 48.3909 18.2479C48.6121 18.3823 48.804 18.5597 48.9552 18.7698C49.1064 18.9798 49.2138 19.2181 49.271 19.4705C49.3283 19.7229 49.3342 19.9842 49.2884 20.2389Z" fill="#F0F0F0"/>
<path d="M111.439 8.14014L110.713 8.08065C110.666 8.07323 110.622 8.05341 110.586 8.02327C110.55 7.99313 110.522 7.95378 110.506 7.9093C110.462 7.78426 110.408 7.66258 110.346 7.5452C110.33 7.48777 110.329 7.42711 110.343 7.36913C110.357 7.31115 110.386 7.25784 110.427 7.21441L110.765 6.78843C110.853 6.67896 110.877 6.55045 110.818 6.49096L110.223 5.92457C110.166 5.86983 110.037 5.89363 109.935 5.97454L109.497 6.34103C109.456 6.37983 109.405 6.40774 109.35 6.42228C109.295 6.43682 109.238 6.43752 109.183 6.42432C109.053 6.36192 108.919 6.31019 108.781 6.26964C108.735 6.25209 108.695 6.2224 108.665 6.18379C108.636 6.14519 108.617 6.09915 108.612 6.0507L108.535 5.39388C108.531 5.34709 108.51 5.30351 108.476 5.27116C108.441 5.2388 108.397 5.21985 108.35 5.21777L107.545 5.23919C107.495 5.24643 107.448 5.2714 107.413 5.30969C107.379 5.34799 107.359 5.39718 107.357 5.44861L107.291 6.06259C107.283 6.12075 107.26 6.1758 107.224 6.22219C107.188 6.26857 107.141 6.30464 107.086 6.32675C106.981 6.36445 106.879 6.40815 106.779 6.45764C106.734 6.48445 106.683 6.49996 106.63 6.50286C106.577 6.50576 106.525 6.49597 106.477 6.4743L105.884 6.0269C105.82 5.97692 105.692 6.0269 105.596 6.11495L105.144 6.57187C105.047 6.66706 105.011 6.80985 105.063 6.85982L105.539 7.41907C105.563 7.4721 105.574 7.53001 105.57 7.58796C105.567 7.64592 105.55 7.70224 105.52 7.75224C105.485 7.82839 105.451 7.90455 105.423 7.99022C105.405 8.04611 105.374 8.09692 105.333 8.13835C105.291 8.17978 105.241 8.2106 105.185 8.2282L104.487 8.32101C104.438 8.33109 104.394 8.35836 104.362 8.39799C104.331 8.43762 104.315 8.48706 104.316 8.53757V9.2515C104.313 9.29951 104.327 9.34704 104.357 9.38516C104.386 9.42328 104.428 9.44937 104.476 9.45854L105.201 9.51804C105.249 9.52575 105.293 9.54592 105.33 9.57646C105.367 9.60699 105.395 9.64679 105.411 9.69176C105.453 9.81714 105.506 9.9389 105.568 10.0559C105.584 10.1133 105.585 10.1739 105.571 10.2319C105.557 10.2898 105.528 10.3431 105.487 10.3867L105.149 10.8103C105.061 10.9197 105.037 11.0482 105.097 11.1101L105.692 11.6741C105.749 11.7289 105.88 11.7074 105.98 11.6241L106.429 11.2577C106.471 11.2197 106.522 11.1924 106.576 11.1779C106.631 11.1634 106.688 11.1622 106.743 11.1744C106.874 11.2372 107.009 11.2889 107.148 11.329C107.193 11.3474 107.232 11.3773 107.261 11.4158C107.29 11.4543 107.309 11.5 107.315 11.548L107.391 12.2072C107.395 12.2544 107.417 12.2983 107.452 12.3307C107.486 12.3631 107.531 12.3818 107.579 12.3833L108.381 12.3619C108.432 12.3542 108.478 12.3291 108.512 12.2909C108.547 12.2527 108.567 12.2037 108.569 12.1525L108.635 11.5385C108.643 11.4803 108.666 11.4253 108.702 11.3789C108.738 11.3325 108.786 11.2964 108.84 11.2743C108.945 11.2362 109.048 11.1917 109.147 11.141C109.193 11.1144 109.245 11.0992 109.298 11.0967C109.351 11.0942 109.403 11.1045 109.452 11.1268L110.042 11.5742C110.106 11.6218 110.235 11.5742 110.332 11.4861L110.784 11.0292C110.88 10.9316 110.915 10.7912 110.863 10.7412L110.387 10.182C110.364 10.1288 110.353 10.0708 110.357 10.0128C110.361 9.95485 110.378 9.89863 110.408 9.84882C110.444 9.77117 110.476 9.69174 110.504 9.61085C110.521 9.55477 110.551 9.50376 110.593 9.46228C110.634 9.42079 110.685 9.3901 110.742 9.37287L111.439 9.28006C111.489 9.27042 111.533 9.24328 111.565 9.20354C111.596 9.16381 111.612 9.11412 111.61 9.0635V8.34956C111.614 8.29941 111.598 8.24982 111.566 8.21091C111.534 8.17199 111.489 8.14669 111.439 8.14014ZM109.535 8.76365C109.531 9.18045 109.364 9.57922 109.071 9.87551C108.778 10.1718 108.381 10.3423 107.964 10.351C107.761 10.3593 107.558 10.3266 107.367 10.255C107.177 10.1833 107.002 10.0741 106.855 9.93383C106.707 9.79355 106.589 9.62507 106.508 9.43837C106.427 9.25166 106.384 9.05055 106.382 8.84694C106.385 8.42995 106.552 8.03083 106.845 7.73441C107.138 7.438 107.535 7.26766 107.952 7.25963C108.155 7.2523 108.357 7.28569 108.547 7.35781C108.737 7.42993 108.91 7.53933 109.056 7.67953C109.203 7.81974 109.32 7.98791 109.401 8.17411C109.481 8.36031 109.524 8.56077 109.525 8.76365H109.535Z" fill="#F0F0F0"/>
<path d="M78.7787 20.158L77.9148 19.92C77.8601 19.8998 77.8118 19.8653 77.775 19.8201C77.7382 19.7749 77.7141 19.7207 77.7054 19.663C77.681 19.5018 77.6445 19.3427 77.5959 19.1871C77.5901 19.1141 77.603 19.0408 77.6334 18.9742C77.6638 18.9075 77.7107 18.8498 77.7697 18.8063L78.2765 18.3732C78.4051 18.2613 78.4645 18.1066 78.4074 18.0257L77.8173 17.2071C77.7601 17.1286 77.6007 17.1238 77.4579 17.2071L76.832 17.545C76.7736 17.582 76.707 17.604 76.6381 17.6089C76.5692 17.6139 76.5001 17.6018 76.437 17.5736C76.2941 17.4686 76.1429 17.3754 75.9848 17.2951C75.9344 17.2633 75.8936 17.2184 75.8667 17.1651C75.8399 17.1119 75.8281 17.0524 75.8325 16.9929L75.8896 16.1838C75.8958 16.1259 75.8805 16.0679 75.8467 16.0205C75.813 15.9732 75.7631 15.9398 75.7064 15.9268L74.7307 15.7697C74.6679 15.7675 74.6062 15.7872 74.5563 15.8254C74.5064 15.8636 74.4713 15.9179 74.457 15.9791L74.2357 16.693C74.2122 16.7609 74.1716 16.8215 74.1179 16.8691C74.0641 16.9166 73.9989 16.9494 73.9287 16.9643C73.7939 16.9864 73.6604 17.0158 73.5289 17.0524C73.4681 17.0745 73.4028 17.0818 73.3387 17.0735C73.2745 17.0652 73.2132 17.0417 73.16 17.0048L72.5484 16.3289C72.4842 16.2552 72.3104 16.2742 72.1796 16.3694L71.5299 16.8168C71.3942 16.9096 71.3205 17.0548 71.3704 17.1452L71.8107 17.9282C71.8262 17.9978 71.825 18.0701 71.8072 18.1391C71.7894 18.2082 71.7555 18.2721 71.7084 18.3256C71.6479 18.408 71.5923 18.4938 71.5418 18.5826C71.508 18.6479 71.4586 18.7038 71.398 18.7453C71.3373 18.7868 71.2674 18.8127 71.1943 18.8206L70.3328 18.773C70.2708 18.7748 70.2112 18.7982 70.1644 18.8389C70.1175 18.8797 70.0862 18.9354 70.0758 18.9967L69.914 19.8701C69.8982 19.9269 69.904 19.9876 69.9304 20.0403C69.9568 20.0931 70.0018 20.1342 70.0568 20.1556L70.9206 20.3936C70.9753 20.4135 71.0238 20.4475 71.061 20.4923C71.0982 20.537 71.1229 20.5908 71.1324 20.6482C71.156 20.8094 71.1918 20.9685 71.2395 21.1242C71.2453 21.1972 71.2324 21.2705 71.202 21.3371C71.1716 21.4037 71.1248 21.4615 71.0658 21.505L70.5613 21.9405C70.4304 22.0523 70.3733 22.207 70.4304 22.2879L71.0182 23.1042C71.0753 23.1851 71.2372 23.1875 71.3776 23.1042L72.0034 22.7662C72.0621 22.7289 72.129 22.7065 72.1983 22.7011C72.2676 22.6957 72.3372 22.7075 72.4009 22.7353C72.5434 22.8408 72.6947 22.934 72.853 23.0137C72.9026 23.0465 72.9427 23.0916 72.9694 23.1446C72.9961 23.1976 73.0085 23.2567 73.0053 23.316L72.9458 24.1275C72.9404 24.1853 72.9563 24.243 72.9905 24.2899C73.0247 24.3368 73.0748 24.3696 73.1315 24.3821L74.1048 24.5416C74.1681 24.5433 74.2301 24.5232 74.2804 24.4846C74.3307 24.4461 74.3661 24.3914 74.3808 24.3298L74.5998 23.6158C74.6227 23.5474 74.6631 23.4862 74.7169 23.4382C74.7708 23.3902 74.8362 23.3571 74.9068 23.3422C75.0418 23.3213 75.1753 23.2919 75.3066 23.2541C75.3675 23.2319 75.4329 23.2248 75.4972 23.2335C75.5614 23.2423 75.6226 23.2665 75.6754 23.3041L76.2871 23.9799C76.3537 24.0513 76.525 24.0347 76.6559 23.9395L77.3056 23.4921C77.4436 23.3969 77.515 23.2541 77.4674 23.1637L77.0272 22.3807C77.0106 22.3113 77.011 22.2389 77.0284 22.1697C77.0458 22.1006 77.0797 22.0366 77.1271 21.9833C77.1866 21.9 77.2437 21.8143 77.2961 21.7263C77.3301 21.6617 77.3793 21.6063 77.4394 21.5649C77.4995 21.5235 77.5687 21.4972 77.6411 21.4883L78.505 21.5359C78.567 21.535 78.6267 21.5124 78.6737 21.4719C78.7207 21.4315 78.752 21.3758 78.762 21.3146L78.9238 20.4388C78.9382 20.3824 78.9314 20.3226 78.9046 20.2708C78.8779 20.2191 78.8331 20.1789 78.7787 20.158ZM76.3299 20.4721C76.2294 20.974 75.9374 21.4169 75.5157 21.707C75.0941 21.9971 74.5761 22.1116 74.0715 22.0261C73.8242 21.9899 73.5867 21.9043 73.3732 21.7744C73.1597 21.6445 72.9745 21.473 72.8286 21.2701C72.6827 21.0671 72.5791 20.8369 72.5241 20.5931C72.469 20.3493 72.4635 20.097 72.508 19.851C72.6079 19.3494 72.8995 18.9065 73.3207 18.6163C73.7419 18.3261 74.2597 18.2116 74.764 18.297C75.0113 18.3333 75.2489 18.4189 75.4625 18.5487C75.6762 18.6786 75.8615 18.8501 76.0076 19.053C76.1536 19.2559 76.2574 19.486 76.3128 19.7298C76.3682 19.9736 76.374 20.2261 76.3299 20.4721Z" fill="#F0F0F0"/>
<path d="M83.9286 25.5887L83.3265 25.4245C83.2888 25.4097 83.2554 25.3856 83.2296 25.3544C83.2037 25.3231 83.1863 25.2858 83.179 25.246C83.1623 25.1331 83.1369 25.0217 83.1028 24.9128C83.099 24.8618 83.1082 24.8106 83.1294 24.764C83.1506 24.7174 83.1832 24.6769 83.2242 24.6463L83.5788 24.344C83.6692 24.2655 83.7097 24.156 83.6692 24.1061L83.2575 23.5349C83.217 23.4778 83.1052 23.4754 83.0076 23.5349L82.5697 23.7729C82.5291 23.799 82.4826 23.8146 82.4344 23.8183C82.3862 23.8221 82.3379 23.8138 82.2937 23.7943C82.1937 23.7207 82.0879 23.6554 81.9772 23.5992C81.9424 23.5763 81.9141 23.5447 81.8954 23.5076C81.8766 23.4704 81.8678 23.429 81.8701 23.3874L81.9105 22.8234C81.9151 22.7827 81.9045 22.7418 81.8808 22.7084C81.8571 22.6751 81.8219 22.6516 81.782 22.6425L81.1014 22.533C81.0572 22.5318 81.014 22.5458 80.9789 22.5727C80.9438 22.5995 80.919 22.6376 80.9087 22.6806L80.7564 23.1875C80.7398 23.2346 80.7114 23.2766 80.6739 23.3096C80.6364 23.3425 80.591 23.3652 80.5422 23.3755C80.4476 23.3913 80.3538 23.412 80.2614 23.4374C80.219 23.4531 80.1735 23.4582 80.1287 23.4524C80.084 23.4466 80.0413 23.43 80.0043 23.404L79.576 22.9281C79.5308 22.8757 79.4165 22.89 79.319 22.9543L78.8644 23.2684C78.7692 23.335 78.7193 23.4373 78.7526 23.5064L79.0596 24.0537C79.0953 24.1156 79.0596 24.237 78.9906 24.3321C78.9477 24.3893 78.9096 24.4488 78.8716 24.5106C78.8487 24.5559 78.8151 24.5948 78.7735 24.6239C78.732 24.6529 78.6839 24.6713 78.6336 24.6772L78.0291 24.6463C77.9859 24.6469 77.9443 24.6627 77.9116 24.691C77.879 24.7193 77.8574 24.7583 77.8506 24.801L77.7364 25.4126C77.7266 25.4526 77.7315 25.4949 77.7503 25.5316C77.7691 25.5683 77.8005 25.5971 77.8387 25.6125L78.4408 25.7767C78.4786 25.7914 78.512 25.8155 78.5378 25.8468C78.5636 25.878 78.581 25.9153 78.5884 25.9552C78.6053 26.068 78.6307 26.1794 78.6645 26.2883C78.6683 26.3394 78.6592 26.3905 78.638 26.4371C78.6168 26.4837 78.5842 26.5242 78.5432 26.5549L78.191 26.8571C78.0981 26.9356 78.0577 27.0451 78.0981 27.0951L78.5098 27.6662C78.5503 27.7233 78.6622 27.7257 78.7621 27.6662L79.1976 27.4282C79.2387 27.4022 79.2856 27.3866 79.3341 27.3828C79.3827 27.3791 79.4314 27.3873 79.476 27.4068C79.5752 27.4804 79.6802 27.5457 79.7902 27.602C79.825 27.6248 79.8532 27.6564 79.872 27.6936C79.8908 27.7307 79.8995 27.7722 79.8973 27.8138L79.8568 28.3778C79.8524 28.4181 79.863 28.4587 79.8868 28.4917C79.9105 28.5247 79.9456 28.5477 79.9853 28.5563L80.6659 28.6681C80.7102 28.6698 80.7537 28.656 80.7889 28.629C80.8241 28.6021 80.8487 28.5637 80.8587 28.5206L81.011 28.0137C81.0277 27.9663 81.0565 27.924 81.0944 27.8911C81.1324 27.8581 81.1783 27.8356 81.2276 27.8257C81.3214 27.809 81.4143 27.7876 81.506 27.7614C81.549 27.7468 81.5949 27.7424 81.6399 27.7486C81.6849 27.7548 81.7279 27.7714 81.7654 27.7971L82.1914 28.2731C82.2366 28.3254 82.3532 28.3111 82.4484 28.2469L82.9029 27.9328C82.9981 27.8661 83.0481 27.7638 83.0148 27.6948L82.7078 27.1498C82.6967 27.1011 82.6973 27.0504 82.7098 27.0019C82.7222 26.9535 82.746 26.9088 82.7792 26.8714C82.8196 26.8143 82.8601 26.7548 82.8958 26.6929C82.919 26.6477 82.9527 26.6087 82.9941 26.5793C83.0355 26.5499 83.0834 26.5309 83.1338 26.5239L83.7358 26.5572C83.7791 26.5566 83.8207 26.5408 83.8533 26.5125C83.886 26.4842 83.9076 26.4452 83.9143 26.4026L84.0286 25.791C84.0392 25.7508 84.035 25.7082 84.0166 25.671C83.9982 25.6338 83.9669 25.6046 83.9286 25.5887ZM82.2175 25.81C82.1471 26.1599 81.9433 26.4688 81.6494 26.6713C81.3554 26.8738 80.9942 26.9541 80.6421 26.8952C80.4692 26.8698 80.3031 26.81 80.1537 26.7192C80.0044 26.6285 79.8748 26.5086 79.7727 26.3667C79.6705 26.2249 79.598 26.0639 79.5593 25.8935C79.5206 25.723 79.5166 25.5465 79.5474 25.3745C79.6184 25.0244 79.8226 24.7155 80.117 24.513C80.4114 24.3106 80.7729 24.2304 81.1252 24.2893C81.2983 24.3146 81.4646 24.3745 81.614 24.4655C81.7635 24.5564 81.893 24.6766 81.995 24.8187C82.097 24.9609 82.1692 25.1222 82.2075 25.2929C82.2457 25.4636 82.2491 25.6403 82.2175 25.8124V25.81Z" fill="#F0F0F0"/>
<path d="M107.051 3.095L106.539 2.95459C106.506 2.94274 106.477 2.92238 106.455 2.8956C106.433 2.86882 106.418 2.83661 106.413 2.80229C106.4 2.70694 106.378 2.61296 106.348 2.52147C106.346 2.47803 106.354 2.43455 106.372 2.39504C106.39 2.35553 106.418 2.32126 106.453 2.29539L106.753 2.02886C106.829 1.9646 106.865 1.87179 106.829 1.8242L106.482 1.34824C106.446 1.30065 106.351 1.30065 106.268 1.34824L105.896 1.54814C105.862 1.57162 105.821 1.58552 105.78 1.58845C105.738 1.59137 105.696 1.58321 105.658 1.5648C105.574 1.50284 105.485 1.44792 105.392 1.4006C105.362 1.38159 105.338 1.35503 105.322 1.32365C105.306 1.29227 105.299 1.25722 105.301 1.22211L105.335 0.746157C105.338 0.711832 105.329 0.677504 105.308 0.649509C105.288 0.621515 105.259 0.601745 105.225 0.593851L104.647 0.50104C104.61 0.500002 104.574 0.511728 104.544 0.534255C104.515 0.556782 104.494 0.588741 104.485 0.624788L104.354 1.05553C104.341 1.09581 104.317 1.13182 104.285 1.15985C104.254 1.18788 104.215 1.20691 104.173 1.21497C104.093 1.22816 104.013 1.24644 103.935 1.26971C103.899 1.28265 103.86 1.2866 103.822 1.28121C103.784 1.27582 103.748 1.26126 103.716 1.23877L103.355 0.838968C103.317 0.796132 103.219 0.805651 103.138 0.862766L102.753 1.12692C102.669 1.18404 102.627 1.27209 102.657 1.32206L102.917 1.79802C102.927 1.83955 102.926 1.88285 102.916 1.92426C102.906 1.96567 102.886 2.00399 102.857 2.036C102.821 2.08574 102.788 2.13737 102.757 2.19068C102.738 2.22919 102.708 2.26218 102.673 2.28668C102.637 2.31119 102.596 2.32645 102.553 2.33109L102.041 2.30253C102.004 2.30413 101.969 2.3182 101.942 2.34242C101.914 2.36665 101.895 2.39958 101.889 2.4358L101.791 2.95459C101.784 2.98862 101.788 3.02426 101.804 3.05519C101.82 3.08612 101.847 3.11034 101.879 3.12356L102.391 3.26396C102.423 3.27572 102.452 3.29611 102.474 3.32294C102.496 3.34978 102.51 3.38204 102.515 3.41627C102.529 3.5114 102.55 3.60529 102.579 3.69708C102.584 3.74226 102.578 3.7881 102.56 3.82991C102.542 3.87172 102.513 3.90801 102.477 3.93506L102.177 4.19208C102.101 4.25871 102.065 4.35152 102.098 4.39912L102.448 4.87508C102.481 4.92267 102.577 4.92267 102.662 4.87508L103.033 4.67517C103.068 4.6517 103.108 4.6378 103.15 4.63487C103.192 4.63195 103.234 4.6401 103.271 4.65852C103.356 4.72048 103.446 4.7754 103.54 4.82272C103.57 4.84172 103.594 4.86829 103.61 4.89966C103.626 4.93104 103.633 4.9661 103.631 5.0012L103.595 5.47716C103.592 5.51182 103.602 5.54642 103.622 5.57446C103.643 5.60251 103.673 5.62207 103.707 5.62947L104.283 5.72228C104.32 5.72387 104.357 5.7124 104.387 5.68983C104.417 5.66726 104.438 5.63499 104.447 5.59853L104.578 5.16779C104.591 5.12751 104.615 5.0915 104.647 5.06347C104.678 5.03543 104.717 5.0164 104.759 5.00834C104.839 4.99489 104.919 4.97662 104.997 4.95361C105.033 4.94066 105.072 4.93672 105.11 4.9421C105.148 4.94749 105.184 4.96206 105.216 4.98454L105.573 5.36055C105.613 5.40339 105.711 5.39387 105.792 5.33675L106.177 5.0726C106.258 5.01548 106.301 4.92743 106.272 4.87746L106.011 4.4015C106 4.35981 106.001 4.31625 106.011 4.27471C106.022 4.23318 106.043 4.19497 106.072 4.16352C106.108 4.11378 106.142 4.06215 106.172 4.00884C106.192 3.97019 106.221 3.93709 106.257 3.91257C106.293 3.88804 106.334 3.87286 106.377 3.86843L106.889 3.89699C106.925 3.89539 106.961 3.88132 106.988 3.8571C107.016 3.83287 107.035 3.79994 107.041 3.76372L107.136 3.24493C107.14 3.21401 107.134 3.18262 107.119 3.15554C107.103 3.12847 107.079 3.10721 107.051 3.095ZM105.599 3.28062C105.539 3.57801 105.367 3.8406 105.117 4.0129C104.867 4.18521 104.561 4.25373 104.261 4.20398C104.115 4.18239 103.974 4.13157 103.847 4.05453C103.721 3.9775 103.611 3.87581 103.524 3.75551C103.438 3.6352 103.376 3.49874 103.343 3.35421C103.311 3.20968 103.307 3.06003 103.333 2.91414C103.392 2.61646 103.565 2.35349 103.815 2.18108C104.064 2.00868 104.371 1.94041 104.671 1.99078C104.817 2.01268 104.958 2.0637 105.084 2.14082C105.211 2.21795 105.32 2.31963 105.407 2.43986C105.493 2.56008 105.555 2.69642 105.588 2.84082C105.621 2.98523 105.625 3.13477 105.599 3.28062Z" fill="#F0F0F0"/>
<path d="M6.36204 24.1608L5.75995 23.9942C5.7222 23.9795 5.68883 23.9554 5.66301 23.9241C5.63719 23.8929 5.61977 23.8556 5.61241 23.8157C5.59549 23.7029 5.57004 23.5915 5.53626 23.4826C5.53246 23.4315 5.54159 23.3804 5.56281 23.3338C5.58402 23.2872 5.61663 23.2467 5.65762 23.216L6.01221 22.9138C6.10264 22.8353 6.1431 22.7258 6.10264 22.6758L5.69094 22.1047C5.65049 22.0476 5.53864 22.0476 5.45296 22.1047L5.01508 22.3427C4.97362 22.368 4.92667 22.3829 4.8782 22.3862C4.82973 22.3896 4.78117 22.3811 4.73665 22.3617C4.63786 22.2876 4.53275 22.2223 4.42252 22.1666C4.38806 22.1439 4.36007 22.1127 4.34129 22.076C4.32252 22.0393 4.31361 21.9983 4.31543 21.9571L4.35588 21.3907C4.3598 21.3505 4.34892 21.3101 4.32527 21.2773C4.30162 21.2444 4.26682 21.2213 4.22738 21.2123L3.54676 21.1004C3.50258 21.0992 3.45933 21.1132 3.42424 21.14C3.38914 21.1669 3.36435 21.205 3.354 21.248L3.20169 21.7549C3.18491 21.8021 3.15648 21.8443 3.11904 21.8775C3.0816 21.9108 3.03635 21.9341 2.98751 21.9452C2.89265 21.9597 2.79884 21.9803 2.7067 22.0071C2.66408 22.0219 2.61857 22.0263 2.5739 22.0201C2.52923 22.0139 2.48666 21.9972 2.44968 21.9714L2.02132 21.4955C1.9761 21.4431 1.8595 21.4574 1.7643 21.524L1.30977 21.8358C1.21458 21.9024 1.1646 22.0047 1.19792 22.0737L1.50491 22.6187C1.51602 22.6675 1.51534 22.7182 1.50293 22.7666C1.49051 22.815 1.46671 22.8598 1.43351 22.8972C1.39306 22.9543 1.3526 23.0138 1.31691 23.0756C1.29371 23.1208 1.25998 23.1598 1.21855 23.1892C1.17713 23.2186 1.12924 23.2376 1.07893 23.2446L0.476843 23.2113C0.433629 23.2119 0.392015 23.2277 0.359355 23.256C0.326695 23.2843 0.305091 23.3233 0.29836 23.366L0.184131 23.9776C0.17669 24.0127 0.1805 24.0494 0.195021 24.0822C0.209542 24.1151 0.234038 24.1426 0.265043 24.1608L0.867128 24.325C0.904884 24.3397 0.938253 24.3639 0.964074 24.3951C0.989895 24.4263 1.00731 24.4637 1.01467 24.5035C1.03133 24.6164 1.05679 24.7278 1.09083 24.8367C1.09761 24.8884 1.09087 24.9411 1.07127 24.9894C1.05167 25.0378 1.01987 25.0803 0.978977 25.1127L0.62439 25.415C0.533958 25.4935 0.493502 25.603 0.533958 25.6529L0.94566 26.2241C0.986117 26.2812 1.09797 26.2836 1.19554 26.2241L1.63342 25.9861C1.67453 25.96 1.72142 25.9444 1.76996 25.9407C1.81851 25.937 1.86723 25.9452 1.91185 25.9647C2.01064 26.0388 2.11575 26.1041 2.22598 26.1598C2.2608 26.1827 2.28902 26.2143 2.30781 26.2514C2.32661 26.2886 2.33532 26.33 2.33307 26.3716L2.29262 26.9356C2.28808 26.9763 2.29868 27.0172 2.32238 27.0506C2.34608 27.0839 2.38123 27.1074 2.42112 27.1165L3.10174 27.226C3.14602 27.2277 3.1895 27.2138 3.22469 27.1869C3.25987 27.16 3.28456 27.1216 3.2945 27.0784L3.44681 26.5739C3.46278 26.5262 3.49096 26.4836 3.52853 26.4502C3.56611 26.4168 3.61178 26.3938 3.66099 26.3835C3.75564 26.368 3.84938 26.3473 3.9418 26.3217C3.98413 26.306 4.02965 26.3008 4.07442 26.3066C4.1192 26.3124 4.16189 26.329 4.19882 26.355L4.62718 26.8309C4.6724 26.8809 4.78662 26.869 4.8842 26.8024L5.33873 26.4882C5.43393 26.4216 5.4839 26.3193 5.45058 26.2503L5.14359 25.7029C5.1079 25.641 5.14359 25.5197 5.21499 25.4245C5.25544 25.3674 5.2959 25.3079 5.33159 25.246C5.35443 25.2007 5.38811 25.1618 5.42963 25.1328C5.47116 25.1037 5.51924 25.0854 5.56957 25.0794L6.17404 25.1103C6.21725 25.1098 6.25886 25.0939 6.29152 25.0656C6.32418 25.0373 6.34579 24.9984 6.35252 24.9557L6.46675 24.3441C6.47314 24.3061 6.4662 24.2671 6.44711 24.2337C6.42803 24.2003 6.39797 24.1746 6.36204 24.1608ZM4.65098 24.3798C4.58052 24.7297 4.37678 25.0386 4.08281 25.2411C3.78883 25.4436 3.42764 25.5238 3.07556 25.4649C2.90262 25.4396 2.73653 25.3798 2.58716 25.289C2.4378 25.1982 2.3082 25.0783 2.20608 24.9365C2.10397 24.7946 2.03141 24.6337 1.99272 24.4632C1.95403 24.2928 1.95 24.1163 1.98086 23.9443C2.05186 23.5941 2.25608 23.2852 2.55044 23.0828C2.8448 22.8803 3.20629 22.8001 3.55866 22.8591C3.73054 22.885 3.8955 22.9451 4.04389 23.0356C4.19228 23.1261 4.32112 23.2454 4.42284 23.3863C4.52457 23.5273 4.59715 23.6871 4.63632 23.8565C4.67549 24.0258 4.68048 24.2013 4.65098 24.3726V24.3798Z" fill="#F0F0F0"/>
</svg>
