<svg width="37" height="18" viewBox="0 0 37 18" fill="none" xmlns="http://www.w3.org/2000/svg">
<path d="M18.9002 3.80388C18.8956 3.85096 18.8786 3.896 18.8511 3.93444C18.8235 3.97289 18.7863 4.00337 18.7431 4.02282L17.3581 4.73676C17.27 4.78434 17.2037 4.86417 17.1731 4.95954C17.1424 5.05491 17.1499 5.15842 17.1939 5.24841C17.2485 5.36933 17.2939 5.49424 17.3295 5.62203C17.3589 5.72839 17.416 5.82502 17.495 5.90198C17.5741 5.97893 17.6722 6.03345 17.7793 6.05991L18.1268 6.11703L18.7193 5.81004C18.7641 5.79089 18.8026 5.75953 18.8303 5.71955C18.8581 5.67957 18.8741 5.63258 18.8764 5.58396L18.9002 3.80388ZM8.11979 4.46784C6.50868 5.13894 5.93278 6.3431 6.62291 7.34975C7.00164 6.85354 7.51322 6.47481 8.09838 6.25743C9.96412 5.484 12.5129 5.72198 13.7884 6.79288C13.9506 6.92815 14.096 7.08235 14.2216 7.25219C14.7213 6.53825 14.6118 5.68153 13.8075 5.00567C12.5343 3.92287 9.98554 3.68251 8.11979 4.46784ZM19.914 6.70246C19.913 6.73735 19.9066 6.77187 19.8949 6.80479L19.588 7.77098C19.5507 7.87389 19.4834 7.96321 19.3946 8.0273C19.3059 8.09139 19.2 8.1273 19.0906 8.13032L17.132 8.07083C17.0264 8.07126 16.922 8.09311 16.825 8.13508C16.7025 8.18655 16.5904 8.25994 16.4942 8.35164C16.3457 8.50604 16.1867 8.64996 16.0183 8.78238C15.9788 8.81019 15.9458 8.84614 15.9213 8.8878C15.8969 8.92947 15.8817 8.97588 15.8768 9.02391C15.8718 9.07195 15.8772 9.12049 15.8926 9.16626C15.908 9.21204 15.933 9.25398 15.9659 9.28928L16.6346 10.0032C16.6871 9.96765 16.7439 9.93886 16.8036 9.91753C16.8998 9.87582 17.0034 9.85397 17.1082 9.85328L19.0668 9.9104C19.1766 9.90784 19.2831 9.87216 19.3723 9.80804C19.4614 9.74391 19.5292 9.65433 19.5665 9.55105L19.8711 8.59913C19.8834 8.564 19.8891 8.52687 19.8878 8.48967L19.914 6.70246ZM4.01467 4.2846C4.01583 4.35687 4.04481 4.42592 4.09559 4.47736L4.19554 4.58683C4.25469 4.551 4.30907 4.50782 4.35736 4.45832C4.507 4.30509 4.66596 4.16123 4.83332 4.02758C4.87329 4.00021 4.90686 3.96452 4.93173 3.92294C4.95659 3.88137 4.97216 3.8349 4.97736 3.78673C4.98256 3.73857 4.97727 3.68985 4.96186 3.64392C4.94644 3.598 4.92126 3.55596 4.88805 3.52068L4.11938 2.69014C4.07686 2.64962 4.0492 2.59598 4.04085 2.53784L4.01467 4.2846ZM16.8155 10.3007C16.8134 10.3545 16.7947 10.4063 16.7618 10.4489C16.729 10.4915 16.6837 10.5229 16.6323 10.5387L14.9117 11.2526C14.7674 11.305 14.6109 11.3133 14.4619 11.2764C14.383 11.2636 14.3076 11.2344 14.2406 11.1907L13.0959 10.4292C12.8887 10.3073 12.6459 10.2603 12.4082 10.2959C12.0417 10.3649 11.668 10.4149 11.2968 10.4482C11.1589 10.4664 11.0288 10.5224 10.9208 10.6101C10.8443 10.6657 10.7816 10.7382 10.7376 10.8219L10.2997 11.6691C10.2298 11.7948 10.1177 11.8917 9.98316 11.9427C9.90759 11.9726 9.82619 11.9848 9.74518 11.9784L7.60338 11.7785C7.55382 11.7733 7.50581 11.7581 7.46224 11.7339C7.41867 11.7097 7.38042 11.6769 7.34978 11.6376C7.31913 11.5983 7.29671 11.5532 7.28386 11.5051C7.27101 11.4569 7.26798 11.4067 7.27497 11.3573L7.38444 10.5315C7.39576 10.4265 7.37076 10.3209 7.31359 10.2321C7.25643 10.1433 7.17056 10.0768 7.07031 10.0437C6.76744 9.95456 6.47023 9.84727 6.18027 9.72239C5.95219 9.6351 5.70242 9.62178 5.46634 9.68432H5.4473L3.78145 10.2269C3.64557 10.2673 3.50087 10.2673 3.36499 10.2269C3.27838 10.2039 3.19739 10.1634 3.12701 10.1079L2.04422 9.19646C2.0147 9.17441 1.98998 9.14658 1.97157 9.11467C1.95315 9.08276 1.94144 9.04743 1.93712 9.01084L1.91571 10.7909C1.91907 10.8288 1.93034 10.8655 1.94878 10.8987C1.96723 10.9319 1.99245 10.9608 2.0228 10.9837L3.10322 11.8951C3.23377 11.9944 3.39376 12.0472 3.55776 12.0451C3.5901 12.0498 3.62298 12.0498 3.65533 12.0451H3.66961C3.70041 12.0424 3.73077 12.036 3.76004 12.026L5.42588 11.4811H5.44492C5.68113 11.4181 5.93127 11.4323 6.15885 11.5215C6.44842 11.6453 6.74478 11.7526 7.04651 11.8428C7.13425 11.8707 7.21143 11.9247 7.26783 11.9975L7.25118 13.2088C7.25134 13.3003 7.28553 13.3885 7.3471 13.4563C7.40868 13.524 7.49324 13.5664 7.58434 13.5753L9.72615 13.7752C9.80712 13.7805 9.88829 13.7683 9.96412 13.7395C10.0137 13.7185 10.0608 13.6922 10.1045 13.6609C10.1282 13.6454 10.1505 13.6279 10.1712 13.6086C10.1889 13.593 10.2049 13.5754 10.2188 13.5562C10.2361 13.536 10.2521 13.5145 10.2664 13.492V13.4705L10.7042 12.6257C10.717 12.5993 10.733 12.5745 10.7518 12.552C10.7624 12.5345 10.7752 12.5185 10.7899 12.5044C10.8188 12.4699 10.8516 12.4387 10.8875 12.4115C10.9954 12.3239 11.1256 12.2679 11.2635 12.2497C11.6363 12.218 12.0072 12.1671 12.3748 12.0974C12.6133 12.0633 12.8563 12.1102 13.065 12.2307L14.2097 12.9922C14.2768 13.0335 14.351 13.0617 14.4286 13.0755L14.4857 13.0874C14.5726 13.0993 14.6606 13.0993 14.7475 13.0874C14.7662 13.086 14.7846 13.082 14.8022 13.0755C14.8283 13.0712 14.8539 13.064 14.8784 13.0541L16.6013 12.3401C16.6639 12.3172 16.7168 12.2735 16.7513 12.2164C16.7701 12.1839 16.78 12.1469 16.7798 12.1093L16.8155 10.3007ZM1.21367 6.43354C1.14082 6.42299 1.07398 6.38718 1.02483 6.33238C0.975684 6.27758 0.947343 6.20725 0.944757 6.13369L0.92334 7.92804C0.923351 8.00412 0.951181 8.07757 1.00159 8.13455C1.052 8.19153 1.1215 8.22812 1.19701 8.23741L2.71055 8.47539L3.50064 8.06607C3.58836 8.01808 3.65415 7.93807 3.68431 7.84274C3.71446 7.74741 3.70663 7.64412 3.66247 7.55442C3.60672 7.43369 3.56057 7.30876 3.52444 7.18079C3.49531 7.07472 3.43855 6.9783 3.35994 6.90136C3.28133 6.82443 3.18371 6.76975 3.07704 6.74291L1.21367 6.43354Z" fill="#E6E6E6"/>
<path opacity="0.1" d="M18.9002 3.80388C18.8956 3.85096 18.8786 3.896 18.8511 3.93444C18.8235 3.97289 18.7863 4.00337 18.7431 4.02282L17.3581 4.73676C17.27 4.78434 17.2037 4.86417 17.1731 4.95954C17.1424 5.05491 17.1499 5.15842 17.1939 5.24841C17.2485 5.36933 17.2939 5.49424 17.3295 5.62203C17.3589 5.72839 17.416 5.82502 17.495 5.90198C17.5741 5.97893 17.6722 6.03345 17.7793 6.05991L18.1268 6.11703L18.7193 5.81004C18.7641 5.79089 18.8026 5.75953 18.8303 5.71955C18.8581 5.67957 18.8741 5.63258 18.8764 5.58396L18.9002 3.80388ZM8.11979 4.46784C6.50868 5.13894 5.93278 6.3431 6.62291 7.34975C7.00164 6.85354 7.51322 6.47481 8.09838 6.25743C9.96412 5.484 12.5129 5.72198 13.7884 6.79288C13.9506 6.92815 14.096 7.08235 14.2216 7.25219C14.7213 6.53825 14.6118 5.68153 13.8075 5.00567C12.5343 3.92287 9.98554 3.68251 8.11979 4.46784ZM19.914 6.70246C19.913 6.73735 19.9066 6.77187 19.8949 6.80479L19.588 7.77098C19.5507 7.87389 19.4834 7.96321 19.3946 8.0273C19.3059 8.09139 19.2 8.1273 19.0906 8.13032L17.132 8.07083C17.0264 8.07126 16.922 8.09311 16.825 8.13508C16.7025 8.18655 16.5904 8.25994 16.4942 8.35164C16.3457 8.50604 16.1867 8.64996 16.0183 8.78238C15.9788 8.81019 15.9458 8.84614 15.9213 8.8878C15.8969 8.92947 15.8817 8.97588 15.8768 9.02391C15.8718 9.07195 15.8772 9.12049 15.8926 9.16626C15.908 9.21204 15.933 9.25398 15.9659 9.28928L16.6346 10.0032C16.6871 9.96765 16.7439 9.93886 16.8036 9.91753C16.8998 9.87582 17.0034 9.85397 17.1082 9.85328L19.0668 9.9104C19.1766 9.90784 19.2831 9.87216 19.3723 9.80804C19.4614 9.74391 19.5292 9.65433 19.5665 9.55105L19.8711 8.59913C19.8834 8.564 19.8891 8.52687 19.8878 8.48967L19.914 6.70246ZM4.01467 4.2846C4.01583 4.35687 4.04481 4.42592 4.09559 4.47736L4.19554 4.58683C4.25469 4.551 4.30907 4.50782 4.35736 4.45832C4.507 4.30509 4.66596 4.16123 4.83332 4.02758C4.87329 4.00021 4.90686 3.96452 4.93173 3.92294C4.95659 3.88137 4.97216 3.8349 4.97736 3.78673C4.98256 3.73857 4.97727 3.68985 4.96186 3.64392C4.94644 3.598 4.92126 3.55596 4.88805 3.52068L4.11938 2.69014C4.07686 2.64962 4.0492 2.59598 4.04085 2.53784L4.01467 4.2846ZM16.8155 10.3007C16.8134 10.3545 16.7947 10.4063 16.7618 10.4489C16.729 10.4915 16.6837 10.5229 16.6323 10.5387L14.9117 11.2526C14.7674 11.305 14.6109 11.3133 14.4619 11.2764C14.383 11.2636 14.3076 11.2344 14.2406 11.1907L13.0959 10.4292C12.8887 10.3073 12.6459 10.2603 12.4082 10.2959C12.0417 10.3649 11.668 10.4149 11.2968 10.4482C11.1589 10.4664 11.0288 10.5224 10.9208 10.6101C10.8443 10.6657 10.7816 10.7382 10.7376 10.8219L10.2997 11.6691C10.2298 11.7948 10.1177 11.8917 9.98316 11.9427C9.90759 11.9726 9.82619 11.9848 9.74518 11.9784L7.60338 11.7785C7.55382 11.7733 7.50581 11.7581 7.46224 11.7339C7.41867 11.7097 7.38042 11.6769 7.34978 11.6376C7.31913 11.5983 7.29671 11.5532 7.28386 11.5051C7.27101 11.4569 7.26798 11.4067 7.27497 11.3573L7.38444 10.5315C7.39576 10.4265 7.37076 10.3209 7.31359 10.2321C7.25643 10.1433 7.17056 10.0768 7.07031 10.0437C6.76744 9.95456 6.47023 9.84727 6.18027 9.72239C5.95219 9.6351 5.70242 9.62178 5.46634 9.68432H5.4473L3.78145 10.2269C3.64557 10.2673 3.50087 10.2673 3.36499 10.2269C3.27838 10.2039 3.19739 10.1634 3.12701 10.1079L2.04422 9.19646C2.0147 9.17441 1.98998 9.14658 1.97157 9.11467C1.95315 9.08276 1.94144 9.04743 1.93712 9.01084L1.91571 10.7909C1.91907 10.8288 1.93034 10.8655 1.94878 10.8987C1.96723 10.9319 1.99245 10.9608 2.0228 10.9837L3.10322 11.8951C3.23377 11.9944 3.39376 12.0472 3.55776 12.0451C3.5901 12.0498 3.62298 12.0498 3.65533 12.0451H3.66961C3.70041 12.0424 3.73077 12.036 3.76004 12.026L5.42588 11.4811H5.44492C5.68113 11.4181 5.93127 11.4323 6.15885 11.5215C6.44842 11.6453 6.74478 11.7526 7.04651 11.8428C7.13425 11.8707 7.21143 11.9247 7.26783 11.9975L7.25118 13.2088C7.25134 13.3003 7.28553 13.3885 7.3471 13.4563C7.40868 13.524 7.49324 13.5664 7.58434 13.5753L9.72615 13.7752C9.80712 13.7805 9.88829 13.7683 9.96412 13.7395C10.0137 13.7185 10.0608 13.6922 10.1045 13.6609C10.1282 13.6454 10.1505 13.6279 10.1712 13.6086C10.1889 13.593 10.2049 13.5754 10.2188 13.5562C10.2361 13.536 10.2521 13.5145 10.2664 13.492V13.4705L10.7042 12.6257C10.717 12.5993 10.733 12.5745 10.7518 12.552C10.7624 12.5345 10.7752 12.5185 10.7899 12.5044C10.8188 12.4699 10.8516 12.4387 10.8875 12.4115C10.9954 12.3239 11.1256 12.2679 11.2635 12.2497C11.6363 12.218 12.0072 12.1671 12.3748 12.0974C12.6133 12.0633 12.8563 12.1102 13.065 12.2307L14.2097 12.9922C14.2768 13.0335 14.351 13.0617 14.4286 13.0755L14.4857 13.0874C14.5726 13.0993 14.6606 13.0993 14.7475 13.0874C14.7662 13.086 14.7846 13.082 14.8022 13.0755C14.8283 13.0712 14.8539 13.064 14.8784 13.0541L16.6013 12.3401C16.6639 12.3172 16.7168 12.2735 16.7513 12.2164C16.7701 12.1839 16.78 12.1469 16.7798 12.1093L16.8155 10.3007ZM1.21367 6.43354C1.14082 6.42299 1.07398 6.38718 1.02483 6.33238C0.975684 6.27758 0.947343 6.20725 0.944757 6.13369L0.92334 7.92804C0.923351 8.00412 0.951181 8.07757 1.00159 8.13455C1.052 8.19153 1.1215 8.22812 1.19701 8.23741L2.71055 8.47539L3.50064 8.06607C3.58836 8.01808 3.65415 7.93807 3.68431 7.84274C3.71446 7.74741 3.70663 7.64412 3.66247 7.55442C3.60672 7.43369 3.56057 7.30876 3.52444 7.18079C3.49531 7.07472 3.43855 6.9783 3.35994 6.90136C3.28133 6.82443 3.18371 6.76975 3.07704 6.74291L1.21367 6.43354Z" fill="black"/>
<path d="M5.457 9.68921L3.79115 10.2318C3.65527 10.2722 3.51057 10.2722 3.37469 10.2318L3.35327 12.0166C3.42316 12.0359 3.49502 12.047 3.56745 12.0499C3.5998 12.0547 3.63267 12.0547 3.66502 12.0499H3.6793C3.7101 12.0473 3.74047 12.0409 3.76973 12.0309L5.43558 11.4859L5.457 9.68921Z" fill="#EBEBEB"/>
<path d="M10.9161 10.6079C10.8396 10.6636 10.7769 10.736 10.7328 10.8197L10.295 11.6669C10.2251 11.7926 10.113 11.8896 9.97845 11.9406L9.95703 13.7278C10.0066 13.7069 10.0537 13.6805 10.0974 13.6493C10.1211 13.6337 10.1434 13.6162 10.1641 13.5969C10.1818 13.5813 10.1978 13.5637 10.2117 13.5446C10.2291 13.5243 10.245 13.5028 10.2593 13.4803V13.4589L10.6971 12.6141C10.7099 12.5876 10.7259 12.5628 10.7447 12.5403C10.7561 12.5234 10.7688 12.5075 10.7828 12.4927C10.8138 12.4618 10.8471 12.4332 10.8804 12.4046L10.9161 10.6079Z" fill="#EBEBEB"/>
<path d="M18.9003 3.8064C18.8982 3.85395 18.8818 3.89978 18.8534 3.93796C18.825 3.97614 18.7858 4.00491 18.7408 4.02058L17.3582 4.73451C17.2698 4.78252 17.2036 4.86295 17.1734 4.95884C17.1432 5.05473 17.1515 5.15859 17.1963 5.24854C17.2503 5.37056 17.2956 5.4962 17.332 5.62454C17.3612 5.73069 17.4184 5.82707 17.4975 5.90366C17.5766 5.98024 17.6747 6.03425 17.7818 6.06005L18.1268 6.11479L18.7194 5.80779C18.7638 5.78947 18.8021 5.75896 18.8299 5.7198C18.8577 5.68064 18.8738 5.63442 18.8765 5.58647L18.9003 3.8064Z" fill="#EBEBEB"/>
<path d="M19.9141 6.69067C19.9132 6.72557 19.9067 6.76009 19.8951 6.793L19.5881 7.75919C19.5509 7.86211 19.4835 7.95143 19.3948 8.01552C19.3061 8.07962 19.2001 8.11551 19.0907 8.11854L17.1322 8.05905C17.0266 8.05947 16.9221 8.08133 16.8252 8.1233L16.8062 9.9129C16.9023 9.87118 17.0059 9.84932 17.1108 9.84864L19.0693 9.90576C19.1791 9.9032 19.2856 9.86752 19.3748 9.80339C19.464 9.73927 19.5317 9.64969 19.5691 9.54641L19.8737 8.5945C19.886 8.55936 19.8916 8.52224 19.8903 8.48503L19.9141 6.69067Z" fill="#EBEBEB"/>
<path d="M16.8203 10.3008C16.8182 10.3546 16.7995 10.4063 16.7667 10.449C16.7338 10.4916 16.6885 10.523 16.6371 10.5388L14.9165 11.2527C14.7723 11.3051 14.6157 11.3134 14.4667 11.2765L14.4453 13.0637L14.5024 13.0756C14.5893 13.0875 14.6773 13.0875 14.7642 13.0756C14.7829 13.0742 14.8013 13.0702 14.8189 13.0637C14.845 13.0594 14.8706 13.0522 14.8951 13.0423L16.6181 12.3284C16.6807 12.3054 16.7336 12.2617 16.768 12.2046C16.7868 12.1721 16.7967 12.1351 16.7965 12.0975L16.8203 10.3008Z" fill="#EBEBEB"/>
<path d="M17.0561 2.56404L15.3902 3.11377C15.1543 3.17746 14.9041 3.16412 14.6763 3.07569C14.386 2.95108 14.0888 2.84302 13.7863 2.75204C13.6877 2.72009 13.6029 2.65557 13.5458 2.56909C13.4887 2.4826 13.4628 2.37929 13.4721 2.27609L13.5816 1.4503C13.5889 1.4009 13.5861 1.35053 13.5734 1.30223C13.5607 1.25393 13.5383 1.20873 13.5076 1.16934C13.4769 1.12995 13.4385 1.09721 13.3948 1.0731C13.3511 1.04899 13.3029 1.03401 13.2532 1.02908L11.1114 0.829178C10.9991 0.824338 10.8876 0.850679 10.7893 0.905282C10.691 0.959885 10.6097 1.04062 10.5545 1.13855L10.1166 1.98576C10.0579 2.08594 9.97737 2.17158 9.88094 2.23628C9.78452 2.30097 9.67473 2.34306 9.55976 2.35938C9.18614 2.3927 8.81251 2.44267 8.44841 2.51168C8.21018 2.54727 7.96692 2.50114 7.75827 2.3808L6.61359 1.61213C6.51281 1.55404 6.40065 1.51844 6.28482 1.50776C6.16898 1.49708 6.05221 1.51157 5.9425 1.55025L4.22192 2.26419C4.17621 2.2726 4.13397 2.29423 4.10041 2.32637C4.06685 2.35852 4.04344 2.39979 4.03306 2.44509C4.02268 2.4904 4.0258 2.53774 4.04202 2.5813C4.05824 2.62485 4.08686 2.66269 4.12435 2.69017L4.89063 3.52071C4.92359 3.556 4.9486 3.59795 4.96398 3.64372C4.97936 3.6895 4.98475 3.73804 4.97979 3.78607C4.97483 3.83411 4.95963 3.88052 4.93522 3.92218C4.91081 3.96384 4.87775 3.99979 4.83828 4.0276C4.66987 4.16002 4.51084 4.30395 4.36232 4.45834C4.19104 4.62652 3.96425 4.72638 3.72454 4.73916L1.76598 4.68204C1.65633 4.68408 1.54992 4.7196 1.46102 4.78383C1.37212 4.84805 1.30499 4.93793 1.26861 5.04139L0.961617 5.9933C0.944764 6.03824 0.938196 6.08639 0.942393 6.1342C0.94659 6.18202 0.961447 6.22828 0.985872 6.2696C1.0103 6.31092 1.04367 6.34624 1.08354 6.37297C1.12341 6.39969 1.16875 6.41714 1.21625 6.42404L3.07486 6.7239C3.18197 6.75036 3.28009 6.80488 3.35914 6.88184C3.43819 6.95879 3.49531 7.05542 3.52464 7.16178C3.56116 7.28962 3.6073 7.41452 3.66267 7.5354C3.70737 7.62564 3.71524 7.72972 3.68459 7.82565C3.65395 7.92158 3.5872 8.00182 3.49846 8.04943L2.11581 8.76336C2.07445 8.77826 2.03803 8.80433 2.01058 8.83867C1.98314 8.87301 1.96574 8.91428 1.96031 8.9579C1.95489 9.00153 1.96166 9.0458 1.97986 9.08581C1.99807 9.12582 2.027 9.16002 2.06346 9.18459L3.14626 10.096C3.23884 10.1649 3.34586 10.2118 3.45923 10.2333C3.5726 10.2547 3.68936 10.2501 3.80069 10.2198L5.46654 9.67006C5.7025 9.60637 5.95263 9.61971 6.18048 9.70814C6.4708 9.83275 6.76796 9.94081 7.07051 10.0318C7.16908 10.0637 7.25387 10.1283 7.31095 10.2147C7.36802 10.3012 7.39401 10.4045 7.38464 10.5077L7.27756 11.3335C7.27022 11.3829 7.273 11.4333 7.28571 11.4816C7.29843 11.5299 7.32082 11.5751 7.35152 11.6145C7.38223 11.6539 7.42061 11.6866 7.46435 11.7107C7.50809 11.7348 7.55627 11.7498 7.60596 11.7547L9.74776 11.9546C9.8597 11.959 9.97068 11.9325 10.0685 11.8779C10.1663 11.8233 10.2472 11.7428 10.3023 11.6453L10.7401 10.7981C10.7991 10.6976 10.88 10.6118 10.9769 10.5471C11.0737 10.4824 11.184 10.4404 11.2994 10.4245C11.673 10.3911 12.0443 10.3412 12.4107 10.2722C12.649 10.2371 12.892 10.2832 13.1009 10.403L14.2432 11.1669C14.344 11.225 14.4561 11.2606 14.5719 11.2713C14.6878 11.282 14.8046 11.2675 14.9143 11.2288L16.6348 10.5149C16.6807 10.5068 16.7232 10.4855 16.7571 10.4535C16.791 10.4215 16.8147 10.3802 16.8253 10.3349C16.836 10.2895 16.8331 10.242 16.817 10.1983C16.8009 10.1546 16.7723 10.1165 16.7348 10.0889L15.9661 9.25836C15.9332 9.22307 15.9082 9.18112 15.8928 9.13535C15.8774 9.08958 15.872 9.04104 15.877 8.993C15.8819 8.94497 15.8971 8.89855 15.9215 8.85689C15.946 8.81523 15.979 8.77928 16.0185 8.75147C16.1863 8.61836 16.3453 8.47447 16.4944 8.32073C16.6645 8.15215 16.8907 8.05218 17.1298 8.03992L19.0884 8.09703C19.1981 8.09499 19.3045 8.05947 19.3934 7.99524C19.4823 7.93102 19.5494 7.84114 19.5858 7.73768L19.8951 6.77387C19.912 6.72876 19.9185 6.68043 19.9142 6.63246C19.9098 6.5845 19.8948 6.53812 19.8701 6.49676C19.8454 6.4554 19.8118 6.42013 19.7716 6.39353C19.7315 6.36694 19.6858 6.34972 19.6381 6.34313L17.7795 6.04328C17.6724 6.01681 17.5743 5.9623 17.4952 5.88534C17.4162 5.80838 17.3591 5.71175 17.3297 5.6054C17.293 5.47794 17.2477 5.35312 17.1941 5.23177C17.1486 5.14193 17.14 5.03785 17.1703 4.94179C17.2005 4.84572 17.2672 4.76531 17.3559 4.71774L18.7386 4.0038C18.7799 3.9889 18.8164 3.96284 18.8438 3.92851C18.8713 3.89417 18.8886 3.85289 18.8941 3.80927C18.8995 3.76565 18.8927 3.72137 18.8745 3.68136C18.8563 3.64134 18.8274 3.60716 18.7909 3.58259L17.7081 2.67113C17.6145 2.60545 17.5072 2.56171 17.3943 2.54317C17.2814 2.52464 17.1658 2.53177 17.0561 2.56404ZM13.8101 4.99142C15.0856 6.06232 14.6073 7.56158 12.7392 8.33739C10.871 9.1132 8.32704 8.87522 7.0491 7.80194C5.77115 6.72866 6.25187 5.23178 8.12 4.45597C9.98812 3.68016 12.5345 3.92051 13.8101 4.99379V4.99142Z" fill="#FAFAFA"/>
<path d="M11.0707 1.02924H11.0897L13.2315 1.23152C13.2531 1.2335 13.2741 1.23993 13.293 1.25041C13.312 1.26089 13.3286 1.27519 13.3418 1.2924C13.355 1.30962 13.3645 1.32938 13.3697 1.35044C13.3749 1.3715 13.3756 1.3934 13.3719 1.41477L13.2648 2.24055C13.2475 2.39456 13.284 2.54981 13.3682 2.67995C13.4523 2.81009 13.5789 2.90709 13.7265 2.95449C14.0207 3.04443 14.3099 3.15008 14.5927 3.27099C14.7558 3.33447 14.9295 3.36597 15.1044 3.3638C15.2212 3.36534 15.3375 3.3493 15.4495 3.31621L17.1153 2.76648C17.1562 2.75431 17.1988 2.74869 17.2414 2.74982C17.3598 2.74758 17.4758 2.78345 17.5722 2.85215L18.655 3.76123C18.6683 3.77115 18.679 3.78424 18.686 3.79931C18.686 3.79931 18.686 3.81834 18.6408 3.835L17.2581 4.54893C17.1215 4.62064 17.018 4.74263 16.9696 4.88915C16.9212 5.03568 16.9317 5.19528 16.9987 5.33427C17.0495 5.44591 17.0916 5.56127 17.1248 5.67933C17.1651 5.82412 17.244 5.95527 17.3529 6.05879C17.4619 6.16231 17.5969 6.23431 17.7436 6.26714L19.6022 6.56699C19.6191 6.56896 19.6353 6.57468 19.6498 6.58374C19.6642 6.5928 19.6764 6.60497 19.6855 6.61935C19.6928 6.63666 19.6966 6.65527 19.6966 6.67408C19.6966 6.69288 19.6928 6.7115 19.6855 6.72881L19.3761 7.68073C19.3535 7.74106 19.3137 7.79346 19.2617 7.83151C19.2097 7.86956 19.1477 7.89159 19.0834 7.89491L17.1272 7.83779H17.1058C16.8144 7.85407 16.5391 7.97687 16.3324 8.18286C16.1913 8.33029 16.0402 8.46785 15.8802 8.59456C15.8163 8.64273 15.7633 8.70391 15.7247 8.77405C15.6862 8.8442 15.6629 8.92171 15.6565 9.0015C15.6513 9.07568 15.6614 9.15015 15.6864 9.22019C15.7114 9.29023 15.7507 9.35434 15.8017 9.40845L16.5703 10.239C16.5847 10.2524 16.5946 10.2698 16.5989 10.289C16.5857 10.3072 16.5675 10.3213 16.5465 10.3294L14.8236 11.0434C14.7655 11.0638 14.7042 11.0735 14.6427 11.0719C14.5401 11.0754 14.4387 11.0498 14.35 10.9981L13.2053 10.2366C13.0066 10.1167 12.7782 10.0549 12.5461 10.0581C12.484 10.0578 12.4219 10.0625 12.3605 10.0724C12.0083 10.139 11.6466 10.189 11.2706 10.2223C11.1221 10.2435 10.9806 10.2985 10.8568 10.3831C10.733 10.4677 10.6303 10.5796 10.5566 10.7102L10.1188 11.5574C10.0839 11.6148 10.0355 11.6628 9.97789 11.6972C9.92023 11.7317 9.85503 11.7515 9.78797 11.7549H9.76893L7.62713 11.5526C7.60635 11.5508 7.58615 11.5448 7.56775 11.535C7.54934 11.5252 7.53311 11.5118 7.52004 11.4955C7.50577 11.4781 7.49541 11.4578 7.48967 11.4361C7.48392 11.4143 7.48291 11.3916 7.48672 11.3694L7.59381 10.5436C7.61113 10.3896 7.57461 10.2343 7.49045 10.1042C7.40629 9.97406 7.27969 9.87706 7.13213 9.82967C6.83794 9.73973 6.54878 9.63408 6.2659 9.51316C6.10305 9.44882 5.92933 9.41649 5.75424 9.41796C5.63736 9.41712 5.52102 9.43398 5.40917 9.46794L3.74333 10.0177C3.70243 10.0298 3.65986 10.0355 3.6172 10.0343C3.4995 10.0369 3.38418 10.001 3.28879 9.932L2.20361 9.02293C2.19029 9.013 2.17966 8.99991 2.17267 8.98485C2.18445 8.96928 2.20001 8.95699 2.21789 8.94915L3.60054 8.23521C3.73718 8.16351 3.84062 8.04153 3.88901 7.895C3.93741 7.74847 3.92699 7.58887 3.85994 7.44989C3.80955 7.33809 3.7674 7.22275 3.73381 7.10482C3.69347 6.96044 3.61492 6.82963 3.50644 6.72618C3.39796 6.62272 3.26357 6.55046 3.11745 6.51701L1.25646 6.21716C1.23955 6.21519 1.2233 6.20947 1.20889 6.20041C1.19448 6.19135 1.18227 6.17919 1.17316 6.16481C1.16583 6.14749 1.16206 6.12887 1.16206 6.11007C1.16206 6.09127 1.16583 6.07266 1.17316 6.05534L1.48254 5.10343C1.50516 5.0431 1.54492 4.99068 1.59692 4.95264C1.64892 4.91459 1.7109 4.89255 1.77525 4.88924L3.73143 4.94636H3.75285C4.04425 4.93009 4.31951 4.80727 4.52627 4.60129C4.66738 4.45386 4.81846 4.3163 4.97843 4.18959C5.04207 4.14167 5.09489 4.08088 5.13344 4.01117C5.17198 3.94146 5.19539 3.8644 5.20213 3.78503C5.20772 3.71046 5.1977 3.63554 5.1727 3.56506C5.14771 3.49458 5.10829 3.43009 5.05697 3.37571L4.2883 2.54516C4.26688 2.52137 4.25974 2.50232 4.26212 2.49518C4.2645 2.48804 4.27878 2.46901 4.31447 2.45473L6.03506 1.7408C6.09311 1.72038 6.1544 1.7107 6.21592 1.71224C6.31853 1.70839 6.4201 1.73398 6.50863 1.78601L7.6533 2.54754C7.85254 2.66629 8.08057 2.72803 8.3125 2.72602C8.37467 2.72638 8.43675 2.7216 8.49813 2.71174C8.85866 2.64332 9.22245 2.59328 9.58807 2.56182C9.73886 2.54221 9.88308 2.48797 10.0094 2.40333C10.1358 2.3187 10.2408 2.20597 10.3163 2.07397L10.7518 1.22676C10.7866 1.16936 10.835 1.12135 10.8926 1.08692C10.9503 1.05249 11.0155 1.03269 11.0826 1.02924M10.3329 9.00627C11.189 9.01232 12.0379 8.85063 12.8317 8.53031C13.9145 8.08053 14.6046 7.36897 14.7355 6.5765C14.8331 5.95062 14.5594 5.3295 13.9645 4.82975C13.1792 4.17055 11.9369 3.78978 10.559 3.78978C9.703 3.78373 8.85409 3.94542 8.06025 4.26574C6.97745 4.71552 6.28731 5.42707 6.15642 6.21954C6.06123 6.84542 6.33253 7.46655 6.92747 7.96392C7.7128 8.6255 8.95505 9.00627 10.3329 9.00627ZM11.0826 0.819824C10.977 0.823408 10.8742 0.853931 10.7838 0.908499C10.6934 0.963068 10.6185 1.03987 10.5662 1.13157L10.1283 1.97878C10.0696 2.07896 9.98901 2.1646 9.89259 2.2293C9.79616 2.29399 9.68637 2.33607 9.57141 2.3524C9.19778 2.38571 8.82416 2.43569 8.46005 2.5047C8.4114 2.51369 8.36196 2.51767 8.3125 2.5166C8.12209 2.51865 7.93465 2.46933 7.76991 2.37382L6.61334 1.61229C6.49 1.53781 6.34807 1.49985 6.20402 1.50282C6.11455 1.50214 6.02575 1.51828 5.94225 1.55041L4.22166 2.26434C4.17596 2.27276 4.13372 2.29439 4.10016 2.32653C4.0666 2.35868 4.04318 2.39995 4.03281 2.44525C4.02243 2.49056 4.02555 2.5379 4.04177 2.58146C4.05799 2.62501 4.08661 2.66285 4.12409 2.69033L4.89038 3.52087C4.92334 3.55616 4.94835 3.59811 4.96373 3.64388C4.97911 3.68965 4.9845 3.7382 4.97954 3.78623C4.97458 3.83427 4.95938 3.88068 4.93497 3.92234C4.91056 3.964 4.8775 3.99995 4.83803 4.02776C4.66962 4.16018 4.51059 4.30411 4.36207 4.4585C4.19407 4.62302 3.97311 4.72254 3.73857 4.73932H3.72429L1.76573 4.6822C1.65988 4.68877 1.55831 4.72635 1.47367 4.79025C1.38903 4.85415 1.32508 4.94155 1.28977 5.04155L0.980402 5.99346C0.964001 6.03859 0.957847 6.08681 0.962388 6.13461C0.966928 6.18241 0.98205 6.22861 1.00665 6.26985C1.03126 6.31108 1.06473 6.34633 1.10465 6.37302C1.14456 6.39972 1.18991 6.4172 1.23742 6.4242L3.09603 6.72406C3.20313 6.75052 3.30125 6.80504 3.3803 6.882C3.45935 6.95895 3.51648 7.05558 3.5458 7.16194C3.58232 7.28978 3.62846 7.41468 3.68383 7.53556C3.72854 7.6258 3.7364 7.72988 3.70576 7.82581C3.67512 7.92174 3.60837 8.00198 3.51963 8.04959L2.13698 8.76352C2.09562 8.77842 2.05919 8.80449 2.03175 8.83883C2.0043 8.87317 1.9869 8.91444 1.98148 8.95806C1.97606 9.00169 1.98282 9.04596 2.00103 9.08597C2.01923 9.12598 2.04817 9.16018 2.08462 9.18475L3.16742 10.0962C3.30456 10.1986 3.47234 10.2514 3.64338 10.2461C3.70782 10.2474 3.77206 10.2386 3.83376 10.22L5.49961 9.67022C5.59079 9.64359 5.68544 9.63076 5.78042 9.63215C5.92679 9.6295 6.07229 9.65536 6.20878 9.7083C6.4991 9.83291 6.79626 9.94097 7.09882 10.0319C7.19739 10.0639 7.28217 10.1284 7.33925 10.2149C7.39633 10.3014 7.42232 10.4047 7.41295 10.5079L7.30586 11.3337C7.29852 11.3831 7.3013 11.4335 7.31401 11.4818C7.32673 11.5301 7.34912 11.5753 7.37983 11.6147C7.41053 11.654 7.44892 11.6868 7.49266 11.7109C7.53639 11.735 7.58457 11.75 7.63427 11.7549L9.77607 11.9548H9.81414C9.91967 11.9512 10.0225 11.9207 10.1129 11.8661C10.2033 11.8116 10.2782 11.7348 10.3306 11.6431L10.7684 10.7959C10.8274 10.6954 10.9083 10.6096 11.0052 10.5449C11.102 10.4801 11.2123 10.4382 11.3277 10.4222C11.7013 10.3889 12.0726 10.3389 12.439 10.2699C12.4869 10.2609 12.5355 10.2569 12.5842 10.258C12.7753 10.2562 12.9635 10.3055 13.1292 10.4008L14.2715 11.1647C14.3949 11.239 14.5368 11.2769 14.6808 11.2742C14.7703 11.2749 14.8591 11.2587 14.9426 11.2266L16.6632 10.5127C16.709 10.5046 16.7515 10.4832 16.7854 10.4512C16.8193 10.4192 16.843 10.378 16.8536 10.3326C16.8643 10.2873 16.8614 10.2398 16.8453 10.1961C16.8292 10.1524 16.8006 10.1143 16.7631 10.0867L15.9944 9.25614C15.9615 9.22085 15.9365 9.1789 15.9211 9.13313C15.9057 9.08735 15.9003 9.03881 15.9053 8.99078C15.9102 8.94275 15.9254 8.89634 15.9498 8.85468C15.9743 8.81301 16.0073 8.77706 16.0468 8.74925C16.2146 8.61614 16.3736 8.47225 16.5227 8.31851C16.6898 8.15398 16.91 8.05441 17.1439 8.03769H17.1581L19.1167 8.09481H19.1286C19.2345 8.08824 19.336 8.05067 19.4207 7.98677C19.5053 7.92287 19.5693 7.83547 19.6046 7.73546L19.9139 6.77165C19.9308 6.72654 19.9373 6.67821 19.933 6.63025C19.9286 6.58228 19.9136 6.53591 19.8889 6.49455C19.8642 6.45319 19.8305 6.4179 19.7904 6.39131C19.7502 6.36472 19.7046 6.34749 19.6569 6.34091L17.7983 6.04105C17.6912 6.01459 17.5931 5.96008 17.514 5.88312C17.435 5.80616 17.3779 5.70953 17.3485 5.60318C17.3118 5.47572 17.2665 5.3509 17.2129 5.22956C17.1674 5.13972 17.1588 5.03563 17.1891 4.93956C17.2193 4.8435 17.2859 4.76309 17.3747 4.71552L18.7574 4.00159C18.7987 3.98669 18.8351 3.96062 18.8626 3.92628C18.89 3.89195 18.9074 3.85067 18.9129 3.80705C18.9183 3.76342 18.9115 3.71915 18.8933 3.67914C18.8751 3.63913 18.8462 3.60493 18.8097 3.58036L17.7269 2.66891C17.5898 2.56656 17.422 2.51371 17.251 2.51898C17.1865 2.51766 17.1223 2.5265 17.0606 2.54516L15.3947 3.09489C15.3036 3.12153 15.2089 3.13436 15.1139 3.13297C14.9675 3.13562 14.822 3.10976 14.6856 3.05682C14.3952 2.9322 14.0981 2.82414 13.7955 2.73316C13.6969 2.7012 13.6122 2.63669 13.5551 2.5502C13.498 2.46372 13.472 2.3604 13.4814 2.25721L13.5909 1.43142C13.5982 1.38202 13.5954 1.33165 13.5827 1.28335C13.57 1.23506 13.5476 1.18984 13.5169 1.15046C13.4862 1.11107 13.4478 1.07834 13.4041 1.05423C13.3603 1.03012 13.3121 1.01514 13.2624 1.0102L11.1206 0.810303L11.0826 0.819824ZM10.3329 8.79684C9.06689 8.79684 7.83179 8.45177 7.06074 7.80447C5.78518 6.73357 6.26351 5.23431 8.13164 4.4585C8.89595 4.14901 9.71301 3.99061 10.5376 3.99207C11.8036 3.99207 13.0387 4.33714 13.8098 4.98444C15.0854 6.05534 14.607 7.5546 12.7389 8.33041C11.9702 8.63816 11.149 8.79335 10.321 8.78732L10.3329 8.79684Z" fill="#EBEBEB"/>
<path d="M36.0467 9.92237C36.0441 9.95809 36.0316 9.99238 36.0106 10.0214C35.9896 10.0504 35.9609 10.073 35.9277 10.0866L34.8783 10.6315C34.8109 10.6671 34.7601 10.7275 34.7365 10.7999C34.713 10.8723 34.7186 10.9511 34.7521 11.0194C34.7933 11.1122 34.8283 11.2076 34.8568 11.305C34.8797 11.3851 34.9231 11.4578 34.9828 11.5159C35.0425 11.5739 35.1164 11.6153 35.1972 11.6358L35.4613 11.6786L35.9111 11.4407C35.9446 11.4262 35.9734 11.4028 35.9944 11.373C36.0154 11.3432 36.0278 11.3081 36.0301 11.2717L36.0467 9.92237ZM27.8627 10.4174C26.6418 10.9266 26.1968 11.8452 26.7275 12.6044C27.0134 12.2269 27.4016 11.9395 27.846 11.7762C29.2739 11.1884 31.1991 11.3669 32.1677 12.1808C32.2907 12.2839 32.401 12.4013 32.4961 12.5306C32.8769 11.9785 32.7936 11.3407 32.182 10.8243C31.2134 10.0104 29.281 9.82956 27.8627 10.4174ZM36.8178 12.1118C36.8175 12.1386 36.8126 12.1651 36.8035 12.1903L36.5655 12.9233C36.5373 13.0017 36.4861 13.0697 36.4186 13.1185C36.3511 13.1674 36.2704 13.1947 36.1871 13.1969L34.6998 13.1517C34.6177 13.1506 34.5365 13.1676 34.4618 13.2017C34.3676 13.2391 34.2818 13.2949 34.2095 13.3659C34.097 13.4824 33.977 13.5913 33.8502 13.6919C33.8201 13.713 33.7949 13.7403 33.7763 13.772C33.7577 13.8037 33.7461 13.839 33.7422 13.8755C33.7384 13.912 33.7424 13.949 33.7541 13.9838C33.7657 14.0186 33.7847 14.0506 33.8097 14.0775L34.3166 14.6248C34.357 14.5987 34.4001 14.5772 34.4451 14.5606C34.5203 14.5283 34.6013 14.5121 34.6831 14.513L36.1705 14.5558C36.2539 14.5542 36.3349 14.5271 36.4025 14.4782C36.4702 14.4293 36.5212 14.3609 36.5489 14.2821L36.7868 13.5515C36.7953 13.5246 36.7993 13.4965 36.7987 13.4682L36.8178 12.1118ZM24.7499 10.2865C24.7495 10.3138 24.7545 10.3409 24.7647 10.3663C24.775 10.3916 24.7901 10.4146 24.8094 10.434L24.8856 10.5149C24.9305 10.4883 24.972 10.4563 25.0093 10.4197C25.1212 10.3019 25.2412 10.1921 25.3687 10.0913C25.3991 10.0705 25.4246 10.0433 25.4434 10.0116C25.4623 9.97995 25.474 9.94457 25.4779 9.90791C25.4817 9.87125 25.4776 9.83419 25.4657 9.7993C25.4538 9.76441 25.4345 9.73251 25.4091 9.70581L24.8261 9.07754C24.7944 9.04593 24.7736 9.00511 24.7666 8.96094L24.7499 10.2865ZM34.4761 14.8533C34.4734 14.8934 34.4588 14.9318 34.4343 14.9635C34.4097 14.9953 34.3762 15.0191 34.338 15.0318L33.0315 15.5743C32.9217 15.6144 32.8025 15.621 32.6889 15.5934C32.6288 15.5822 32.5714 15.5596 32.5199 15.5268L31.6465 14.9389C31.4884 14.8471 31.3038 14.8118 31.123 14.839C30.8445 14.8913 30.5613 14.9294 30.2781 14.9556C30.174 14.9678 30.0756 15.01 29.995 15.077C29.9371 15.1193 29.8892 15.1737 29.8545 15.2364L29.5214 15.8813C29.469 15.9763 29.3847 16.0496 29.2834 16.0884C29.2261 16.1115 29.1642 16.1213 29.1025 16.1169L27.4771 15.9646C27.4404 15.9597 27.405 15.9475 27.3731 15.9287C27.3412 15.9099 27.3133 15.8849 27.2911 15.8552C27.269 15.8255 27.2529 15.7917 27.244 15.7557C27.2351 15.7197 27.2334 15.6824 27.2392 15.6457L27.3225 15.0175C27.3308 14.9381 27.3118 14.8582 27.2685 14.7911C27.2252 14.724 27.1603 14.6737 27.0845 14.6486C26.8545 14.5833 26.6288 14.5038 26.4086 14.4106C26.2367 14.3453 26.0487 14.3353 25.8708 14.3821H25.8565L24.6024 14.7938C24.499 14.8235 24.3893 14.8235 24.2859 14.7938C24.2186 14.7771 24.1559 14.7453 24.1026 14.701L23.2816 14.0108C23.2589 13.9945 23.24 13.9735 23.2261 13.9493C23.2121 13.9251 23.2035 13.8982 23.2007 13.8704L23.184 15.2221C23.1865 15.2507 23.1949 15.2784 23.2089 15.3034C23.2228 15.3284 23.2419 15.3502 23.2649 15.3673L24.086 16.0598C24.1848 16.1354 24.3066 16.1749 24.431 16.1717C24.4554 16.1764 24.4804 16.1764 24.5048 16.1717H24.5167C24.5401 16.1692 24.5632 16.1644 24.5857 16.1574L25.8399 15.7433H25.8541C26.0321 15.6962 26.2205 15.707 26.392 15.7742C26.6123 15.867 26.838 15.9465 27.0678 16.0122C27.134 16.0344 27.192 16.0758 27.2344 16.1312V17.0498C27.2341 17.1193 27.2598 17.1865 27.3065 17.238C27.3532 17.2895 27.4174 17.3217 27.4867 17.3282L29.1097 17.4805C29.1721 17.4851 29.2348 17.4753 29.2929 17.452C29.3305 17.4359 29.3664 17.4159 29.4 17.3925C29.4169 17.3811 29.4328 17.3684 29.4476 17.3544C29.4615 17.3421 29.4742 17.3286 29.4857 17.314C29.4981 17.2991 29.5093 17.2832 29.519 17.2664V17.2497L29.8498 16.6072C29.8594 16.5876 29.8714 16.5692 29.8855 16.5524C29.8944 16.5394 29.9048 16.5274 29.9164 16.5167C29.938 16.49 29.9628 16.466 29.9902 16.4453C30.0718 16.3783 30.1709 16.3362 30.2758 16.324C30.5584 16.2993 30.8395 16.2604 31.1182 16.2074C31.299 16.1813 31.4833 16.2165 31.6418 16.3073L32.5104 16.888C32.5622 16.9175 32.6185 16.9384 32.677 16.9499H32.7198C32.7862 16.9582 32.8533 16.9582 32.9197 16.9499H32.9625L33.0173 16.9332L34.3261 16.3882C34.3742 16.3708 34.4146 16.3371 34.4404 16.293C34.4543 16.2682 34.4625 16.2406 34.4642 16.2121L34.4761 14.8533ZM22.6248 11.919C22.5667 11.912 22.5133 11.8838 22.4747 11.84C22.436 11.7961 22.4149 11.7395 22.4154 11.681L22.3987 13.0423C22.3981 13.1 22.4186 13.156 22.4562 13.1998C22.4939 13.2436 22.5462 13.2722 22.6034 13.2802L23.7528 13.4659L24.3525 13.1541C24.4199 13.1186 24.4706 13.058 24.4938 12.9855C24.5169 12.9129 24.5106 12.8342 24.4762 12.7662C24.4351 12.6742 24.4001 12.5796 24.3715 12.483C24.3491 12.4025 24.3058 12.3293 24.246 12.2708C24.1863 12.2123 24.1122 12.1706 24.0312 12.1498L22.6248 11.919Z" fill="#E6E6E6"/>
<path opacity="0.1" d="M36.0467 9.92237C36.0441 9.95809 36.0316 9.99238 36.0106 10.0214C35.9896 10.0504 35.9609 10.073 35.9277 10.0866L34.8783 10.6315C34.8109 10.6671 34.7601 10.7275 34.7365 10.7999C34.713 10.8723 34.7186 10.9511 34.7521 11.0194C34.7933 11.1122 34.8283 11.2076 34.8568 11.305C34.8797 11.3851 34.9231 11.4578 34.9828 11.5159C35.0425 11.5739 35.1164 11.6153 35.1972 11.6358L35.4613 11.6786L35.9111 11.4407C35.9446 11.4262 35.9734 11.4028 35.9944 11.373C36.0154 11.3432 36.0278 11.3081 36.0301 11.2717L36.0467 9.92237ZM27.8627 10.4174C26.6418 10.9266 26.1968 11.8452 26.7275 12.6044C27.0134 12.2269 27.4016 11.9395 27.846 11.7762C29.2739 11.1884 31.1991 11.3669 32.1677 12.1808C32.2907 12.2839 32.401 12.4013 32.4961 12.5306C32.8769 11.9785 32.7936 11.3407 32.182 10.8243C31.2134 10.0104 29.281 9.82956 27.8627 10.4174ZM36.8178 12.1118C36.8175 12.1386 36.8126 12.1651 36.8035 12.1903L36.5655 12.9233C36.5373 13.0017 36.4861 13.0697 36.4186 13.1185C36.3511 13.1674 36.2704 13.1947 36.1871 13.1969L34.6998 13.1517C34.6177 13.1506 34.5365 13.1676 34.4618 13.2017C34.3676 13.2391 34.2818 13.2949 34.2095 13.3659C34.097 13.4824 33.977 13.5913 33.8502 13.6919C33.8201 13.713 33.7949 13.7403 33.7763 13.772C33.7577 13.8037 33.7461 13.839 33.7422 13.8755C33.7384 13.912 33.7424 13.949 33.7541 13.9838C33.7657 14.0186 33.7847 14.0506 33.8097 14.0775L34.3166 14.6248C34.357 14.5987 34.4001 14.5772 34.4451 14.5606C34.5203 14.5283 34.6013 14.5121 34.6831 14.513L36.1705 14.5558C36.2539 14.5542 36.3349 14.5271 36.4025 14.4782C36.4702 14.4293 36.5212 14.3609 36.5489 14.2821L36.7868 13.5515C36.7953 13.5246 36.7993 13.4965 36.7987 13.4682L36.8178 12.1118ZM24.7499 10.2865C24.7495 10.3138 24.7545 10.3409 24.7647 10.3663C24.775 10.3916 24.7901 10.4146 24.8094 10.434L24.8856 10.5149C24.9305 10.4883 24.972 10.4563 25.0093 10.4197C25.1212 10.3019 25.2412 10.1921 25.3687 10.0913C25.3991 10.0705 25.4246 10.0433 25.4434 10.0116C25.4623 9.97995 25.474 9.94457 25.4779 9.90791C25.4817 9.87125 25.4776 9.83419 25.4657 9.7993C25.4538 9.76441 25.4345 9.73251 25.4091 9.70581L24.8261 9.07754C24.7944 9.04593 24.7736 9.00511 24.7666 8.96094L24.7499 10.2865ZM34.4761 14.8533C34.4734 14.8934 34.4588 14.9318 34.4343 14.9635C34.4097 14.9953 34.3762 15.0191 34.338 15.0318L33.0315 15.5743C32.9217 15.6144 32.8025 15.621 32.6889 15.5934C32.6288 15.5822 32.5714 15.5596 32.5199 15.5268L31.6465 14.9389C31.4884 14.8471 31.3038 14.8118 31.123 14.839C30.8445 14.8913 30.5613 14.9294 30.2781 14.9556C30.174 14.9678 30.0756 15.01 29.995 15.077C29.9371 15.1193 29.8892 15.1737 29.8545 15.2364L29.5214 15.8813C29.469 15.9763 29.3847 16.0496 29.2834 16.0884C29.2261 16.1115 29.1642 16.1213 29.1025 16.1169L27.4771 15.9646C27.4404 15.9597 27.405 15.9475 27.3731 15.9287C27.3412 15.9099 27.3133 15.8849 27.2911 15.8552C27.269 15.8255 27.2529 15.7917 27.244 15.7557C27.2351 15.7197 27.2334 15.6824 27.2392 15.6457L27.3225 15.0175C27.3308 14.9381 27.3118 14.8582 27.2685 14.7911C27.2252 14.724 27.1603 14.6737 27.0845 14.6486C26.8545 14.5833 26.6288 14.5038 26.4086 14.4106C26.2367 14.3453 26.0487 14.3353 25.8708 14.3821H25.8565L24.6024 14.7938C24.499 14.8235 24.3893 14.8235 24.2859 14.7938C24.2186 14.7771 24.1559 14.7453 24.1026 14.701L23.2816 14.0108C23.2589 13.9945 23.24 13.9735 23.2261 13.9493C23.2121 13.9251 23.2035 13.8982 23.2007 13.8704L23.184 15.2221C23.1865 15.2507 23.1949 15.2784 23.2089 15.3034C23.2228 15.3284 23.2419 15.3502 23.2649 15.3673L24.086 16.0598C24.1848 16.1354 24.3066 16.1749 24.431 16.1717C24.4554 16.1764 24.4804 16.1764 24.5048 16.1717H24.5167C24.5401 16.1692 24.5632 16.1644 24.5857 16.1574L25.8399 15.7433H25.8541C26.0321 15.6962 26.2205 15.707 26.392 15.7742C26.6123 15.867 26.838 15.9465 27.0678 16.0122C27.134 16.0344 27.192 16.0758 27.2344 16.1312V17.0498C27.2341 17.1193 27.2598 17.1865 27.3065 17.238C27.3532 17.2895 27.4174 17.3217 27.4867 17.3282L29.1097 17.4805C29.1721 17.4851 29.2348 17.4753 29.2929 17.452C29.3305 17.4359 29.3664 17.4159 29.4 17.3925C29.4169 17.3811 29.4328 17.3684 29.4476 17.3544C29.4615 17.3421 29.4742 17.3286 29.4857 17.314C29.4981 17.2991 29.5093 17.2832 29.519 17.2664V17.2497L29.8498 16.6072C29.8594 16.5876 29.8714 16.5692 29.8855 16.5524C29.8944 16.5394 29.9048 16.5274 29.9164 16.5167C29.938 16.49 29.9628 16.466 29.9902 16.4453C30.0718 16.3783 30.1709 16.3362 30.2758 16.324C30.5584 16.2993 30.8395 16.2604 31.1182 16.2074C31.299 16.1813 31.4833 16.2165 31.6418 16.3073L32.5104 16.888C32.5622 16.9175 32.6185 16.9384 32.677 16.9499H32.7198C32.7862 16.9582 32.8533 16.9582 32.9197 16.9499H32.9625L33.0173 16.9332L34.3261 16.3882C34.3742 16.3708 34.4146 16.3371 34.4404 16.293C34.4543 16.2682 34.4625 16.2406 34.4642 16.2121L34.4761 14.8533ZM22.6248 11.919C22.5667 11.912 22.5133 11.8838 22.4747 11.84C22.436 11.7961 22.4149 11.7395 22.4154 11.681L22.3987 13.0423C22.3981 13.1 22.4186 13.156 22.4562 13.1998C22.4939 13.2436 22.5462 13.2722 22.6034 13.2802L23.7528 13.4659L24.3525 13.1541C24.4199 13.1186 24.4706 13.058 24.4938 12.9855C24.5169 12.9129 24.5106 12.8342 24.4762 12.7662C24.4351 12.6742 24.4001 12.5796 24.3715 12.483C24.3491 12.4025 24.3058 12.3293 24.246 12.2708C24.1863 12.2123 24.1122 12.1706 24.0312 12.1498L22.6248 11.919Z" fill="black"/>
<path d="M25.8422 14.3894L24.5881 14.8011C24.4846 14.8308 24.375 14.8308 24.2715 14.8011L24.2549 16.1552C24.3075 16.1703 24.3619 16.1783 24.4167 16.179C24.4411 16.1837 24.4661 16.1837 24.4905 16.179H24.5024C24.5258 16.1765 24.5489 16.1717 24.5714 16.1647L25.8255 15.7506L25.8422 14.3894Z" fill="#EBEBEB"/>
<path d="M29.9949 15.0864C29.937 15.1287 29.8891 15.1831 29.8545 15.2459L29.5213 15.8908C29.4689 15.9857 29.3846 16.0591 29.2833 16.0978L29.269 17.4543C29.3067 17.4382 29.3426 17.4182 29.3761 17.3948C29.393 17.3834 29.4089 17.3707 29.4237 17.3567C29.4376 17.3444 29.4504 17.3309 29.4618 17.3163C29.4742 17.3014 29.4854 17.2855 29.4951 17.2687V17.252L29.8259 16.6095C29.8356 16.5899 29.8475 16.5715 29.8616 16.5548L29.8925 16.5191C29.9154 16.495 29.9401 16.4728 29.9663 16.4524L29.9949 15.0864Z" fill="#EBEBEB"/>
<path d="M36.0492 9.92236C36.0459 9.95819 36.0328 9.99242 36.0114 10.0214C35.99 10.0503 35.9611 10.0728 35.9278 10.0866L34.876 10.6315C34.8094 10.6679 34.7596 10.7286 34.737 10.801C34.7144 10.8733 34.7207 10.9517 34.7546 11.0194C34.7954 11.1121 34.8296 11.2075 34.8569 11.305C34.88 11.3854 34.9238 11.4583 34.9839 11.5164C35.0441 11.5744 35.1185 11.6156 35.1996 11.6358L35.459 11.6786L35.9112 11.4407C35.9445 11.426 35.9732 11.4025 35.9942 11.3727C36.0152 11.343 36.0276 11.308 36.0302 11.2717L36.0492 9.92236Z" fill="#EBEBEB"/>
<path d="M36.8178 12.1118C36.8175 12.1386 36.8126 12.1652 36.8035 12.1904L36.5655 12.9233C36.5373 13.0017 36.4861 13.0698 36.4186 13.1186C36.3511 13.1674 36.2704 13.1947 36.1871 13.197L34.6998 13.1518C34.6177 13.1506 34.5364 13.1677 34.4618 13.2018L34.4475 14.5582C34.5227 14.526 34.6037 14.5098 34.6855 14.5106L36.1729 14.5535C36.2563 14.5519 36.3373 14.5248 36.4049 14.4759C36.4725 14.427 36.5236 14.3586 36.5512 14.2798L36.7892 13.5492C36.7976 13.5223 36.8017 13.4941 36.8011 13.4659L36.8178 12.1118Z" fill="#EBEBEB"/>
<path d="M34.476 14.8533C34.4733 14.8934 34.4588 14.9317 34.4342 14.9635C34.4096 14.9953 34.3761 15.0191 34.338 15.0318L33.0315 15.5743C32.9216 15.6144 32.8024 15.621 32.6888 15.5934L32.6721 16.9499H32.715C32.7813 16.9582 32.8485 16.9582 32.9149 16.9499H32.9577L33.0124 16.9332L34.3213 16.3882C34.3693 16.3708 34.4097 16.3371 34.4355 16.293C34.4495 16.2682 34.4576 16.2405 34.4593 16.2121L34.476 14.8533Z" fill="#EBEBEB"/>
<path d="M34.6474 8.98938L33.3766 9.40584C33.1987 9.45257 33.0107 9.44259 32.8388 9.37729C32.6182 9.28517 32.3925 9.20571 32.1629 9.13931C32.0871 9.11422 32.0222 9.06395 31.9789 8.99685C31.9356 8.92975 31.9165 8.84985 31.9249 8.77044L32.0082 8.14218C32.0185 8.06841 31.9992 7.99359 31.9547 7.9339C31.9101 7.87421 31.8439 7.83448 31.7702 7.82329L30.1449 7.67098C30.0598 7.66938 29.9758 7.69061 29.9018 7.73246C29.8277 7.77431 29.7662 7.83526 29.7236 7.90896L29.3928 8.5515C29.3476 8.62786 29.2859 8.69313 29.2122 8.74255C29.1385 8.79196 29.0547 8.82425 28.9669 8.83707C28.6843 8.86079 28.4031 8.89891 28.1244 8.95131C27.9436 8.97904 27.7588 8.94376 27.6009 8.85136L26.7323 8.27307C26.6559 8.22854 26.5708 8.20121 26.4829 8.19299C26.3949 8.18477 26.3062 8.19586 26.223 8.22548L24.9046 8.75141C24.872 8.7607 24.8425 8.77853 24.8191 8.80305C24.7957 8.82757 24.7793 8.85789 24.7715 8.89087C24.7637 8.92386 24.7649 8.95833 24.7749 8.99071C24.7849 9.02308 24.8034 9.0522 24.8284 9.07505L25.4115 9.70332C25.4369 9.73002 25.4562 9.76192 25.4681 9.79681C25.4799 9.83171 25.4841 9.86876 25.4802 9.90542C25.4764 9.94208 25.4646 9.97746 25.4458 10.0091C25.4269 10.0408 25.4014 10.068 25.371 10.0888C25.2442 10.1895 25.1242 10.2984 25.0117 10.4149C24.8849 10.5426 24.7154 10.6189 24.5357 10.6291L23.0483 10.5862C22.9652 10.5876 22.8844 10.6144 22.8168 10.6628C22.7492 10.7113 22.698 10.7792 22.67 10.8575L22.432 11.5905C22.4181 11.6246 22.4124 11.6615 22.4153 11.6982C22.4181 11.7349 22.4294 11.7705 22.4483 11.8021C22.4673 11.8337 22.4932 11.8605 22.5243 11.8803C22.5553 11.9002 22.5905 11.9126 22.6271 11.9165L24.0383 12.1545C24.119 12.175 24.1929 12.2164 24.2527 12.2744C24.3124 12.3325 24.3558 12.4052 24.3786 12.4853C24.4072 12.5827 24.4422 12.6781 24.4834 12.7709C24.5172 12.8393 24.5233 12.9182 24.5002 12.9909C24.4771 13.0637 24.4267 13.1247 24.3596 13.1611L23.3101 13.7037C23.2783 13.7144 23.2501 13.7338 23.2289 13.7598C23.2076 13.7858 23.1941 13.8172 23.1898 13.8505C23.1856 13.8838 23.1909 13.9176 23.205 13.948C23.2191 13.9785 23.2415 14.0043 23.2697 14.0226L24.0907 14.7151C24.1614 14.7668 24.2428 14.802 24.3288 14.818C24.4149 14.8341 24.5035 14.8307 24.5881 14.8079L25.8589 14.3915C26.0367 14.3448 26.2248 14.3547 26.3967 14.42C26.6174 14.5118 26.8431 14.5912 27.0726 14.658C27.1486 14.6827 27.2138 14.7329 27.2572 14.8001C27.3005 14.8673 27.3194 14.9474 27.3105 15.0269L27.2296 15.6551C27.2243 15.6926 27.2266 15.7308 27.2364 15.7673C27.2462 15.8039 27.2633 15.8381 27.2866 15.8678C27.3099 15.8976 27.3391 15.9224 27.3722 15.9406C27.4054 15.9589 27.4419 15.9702 27.4795 15.974L29.1025 16.1263C29.188 16.1284 29.2724 16.1074 29.347 16.0655C29.4215 16.0236 29.4834 15.9624 29.5261 15.8884L29.8569 15.2458C29.9011 15.1693 29.9622 15.1039 30.0357 15.0548C30.1091 15.0057 30.1929 14.9742 30.2805 14.9626C30.5637 14.9365 30.8469 14.8984 31.1253 14.846C31.3061 14.8189 31.4908 14.8541 31.6489 14.946L32.5175 15.5243C32.5934 15.5687 32.6781 15.596 32.7657 15.6043C32.8532 15.6125 32.9415 15.6014 33.0244 15.5719L34.3333 15.0293C34.3657 15.0197 34.3949 15.0016 34.4181 14.977C34.4412 14.9523 34.4573 14.922 34.4648 14.889C34.4724 14.8561 34.471 14.8217 34.4608 14.7895C34.4506 14.7573 34.4321 14.7283 34.407 14.7056L33.824 14.075C33.799 14.0481 33.78 14.0161 33.7683 13.9813C33.7567 13.9465 33.7526 13.9095 33.7565 13.873C33.7603 13.8365 33.7719 13.8012 33.7906 13.7695C33.8092 13.7379 33.8344 13.7106 33.8644 13.6894C33.9918 13.5894 34.1119 13.4804 34.2238 13.3634C34.3514 13.237 34.5205 13.1609 34.6998 13.1492L36.1871 13.1921C36.2703 13.1907 36.351 13.1639 36.4186 13.1155C36.4862 13.067 36.5375 12.9991 36.5655 12.9208L36.8035 12.1878C36.8173 12.1537 36.823 12.1168 36.8202 12.0801C36.8174 12.0433 36.806 12.0078 36.7871 11.9762C36.7682 11.9446 36.7422 11.9178 36.7112 11.8979C36.6802 11.8781 36.645 11.8657 36.6083 11.8618L35.1971 11.6238C35.1164 11.6033 35.0425 11.5619 34.9828 11.5038C34.9231 11.4458 34.8796 11.3731 34.8568 11.293C34.8293 11.1953 34.7943 11.0998 34.7521 11.0074C34.7185 10.9391 34.7129 10.8603 34.7365 10.7879C34.76 10.7155 34.8109 10.6551 34.8782 10.6195L35.9277 10.0746C35.9595 10.0639 35.9877 10.0445 36.009 10.0185C36.0303 9.99254 36.0438 9.96111 36.048 9.92782C36.0522 9.89452 36.047 9.8607 36.0329 9.83025C36.0187 9.7998 35.9963 9.77396 35.9682 9.75567L35.1448 9.06554C35.073 9.0162 34.9909 8.98372 34.9048 8.97053C34.8187 8.95734 34.7307 8.96379 34.6474 8.98938ZM32.1819 10.8313C33.1505 11.6452 32.7888 12.7828 31.3704 13.3729C29.9521 13.9631 28.0197 13.7799 27.0511 12.966C26.0826 12.1521 26.4467 11.0146 27.8626 10.4244C29.2786 9.83421 31.2134 10.0103 32.1819 10.8242V10.8313Z" fill="#FAFAFA"/>
<path d="M30.1043 7.91131L31.7297 8.06361H31.744C31.7469 8.07127 31.7469 8.07975 31.744 8.08741L31.6631 8.71568C31.6451 8.85853 31.6789 9.00309 31.7584 9.12315C31.8378 9.24322 31.9577 9.33084 32.0962 9.37012C32.3174 9.43607 32.5344 9.51555 32.7459 9.60809C32.8807 9.66142 33.0245 9.68808 33.1695 9.68662C33.2695 9.68794 33.3691 9.67348 33.4646 9.64379L34.7354 9.22733C34.7567 9.22424 34.7783 9.22424 34.7996 9.22733C34.8668 9.22577 34.9327 9.24579 34.9876 9.28444L35.7373 9.91271L34.7663 10.4148C34.6425 10.4804 34.5486 10.5912 34.5043 10.7241C34.46 10.8571 34.4686 11.002 34.5284 11.1288C34.563 11.2063 34.5932 11.2858 34.6188 11.3667C34.6527 11.4949 34.7216 11.6112 34.8179 11.7024C34.9142 11.7936 35.0339 11.8562 35.1638 11.8832L36.5678 12.1211L36.3298 12.8494C36.3189 12.8753 36.3012 12.8978 36.2786 12.9145C36.256 12.9313 36.2293 12.9416 36.2013 12.9445L34.7164 12.9017H34.6973C34.4498 12.9129 34.2154 13.0165 34.0405 13.192C33.9359 13.3013 33.8238 13.4031 33.7049 13.4967C33.647 13.5421 33.599 13.5989 33.5638 13.6635C33.5286 13.7282 33.507 13.7993 33.5003 13.8727C33.4955 13.9424 33.5051 14.0124 33.5284 14.0783C33.5518 14.1442 33.5883 14.2046 33.6359 14.2558L34.1666 14.827L32.9268 15.3434C32.8949 15.3556 32.8609 15.3612 32.8268 15.36C32.7679 15.3613 32.7098 15.3473 32.6578 15.3196L31.7892 14.7413C31.6224 14.6393 31.4302 14.5865 31.2347 14.589C31.1822 14.5891 31.1297 14.5931 31.0777 14.6009C30.8111 14.6508 30.5351 14.6889 30.259 14.7151C30.1281 14.7304 30.0026 14.7765 29.893 14.8498C29.7833 14.923 29.6927 15.0212 29.6284 15.1363L29.2976 15.7789C29.2788 15.8075 29.2535 15.8313 29.2237 15.8483C29.1939 15.8652 29.1605 15.8749 29.1263 15.8764L27.5032 15.7241C27.4978 15.7259 27.492 15.7259 27.4866 15.7241C27.4848 15.7163 27.4848 15.7082 27.4866 15.7003L27.5699 15.0721C27.585 14.9325 27.5516 14.792 27.4753 14.6741C27.399 14.5562 27.2845 14.4682 27.151 14.4248C26.9309 14.3578 26.7148 14.2783 26.5037 14.1868C26.3685 14.1317 26.2237 14.1042 26.0778 14.1059C25.9785 14.1043 25.8797 14.1188 25.785 14.1487L24.5142 14.5652C24.4929 14.5683 24.4713 14.5683 24.45 14.5652C24.3821 14.5666 24.3155 14.5466 24.2596 14.5081L23.5123 13.8798L24.4809 13.3777C24.6043 13.3117 24.6978 13.2009 24.7421 13.0681C24.7863 12.9353 24.778 12.7906 24.7189 12.6637C24.6833 12.5866 24.6531 12.5071 24.6285 12.4258C24.5944 12.2972 24.5251 12.1808 24.4284 12.0896C24.3316 11.9983 24.2114 11.9359 24.0811 11.9093L22.6794 11.6833L22.9174 10.9527C22.9283 10.9272 22.9457 10.905 22.9678 10.8884C22.99 10.8717 23.0161 10.861 23.0435 10.8575L24.5309 10.9003H24.5476C24.7951 10.8892 25.0295 10.7856 25.2044 10.61C25.31 10.5018 25.4221 10.4001 25.5399 10.3054C25.5983 10.2603 25.6466 10.2037 25.6818 10.1389C25.7171 10.0742 25.7384 10.0028 25.7446 9.92937C25.7499 9.85958 25.7406 9.78943 25.7173 9.72345C25.6939 9.65747 25.657 9.5971 25.6089 9.54622L25.0806 8.97507L26.3181 8.45866C26.3501 8.44676 26.384 8.44111 26.4181 8.442C26.477 8.44042 26.5352 8.45437 26.587 8.48246L27.4556 9.06074C27.6224 9.16298 27.8145 9.21656 28.0101 9.21543C28.0636 9.21573 28.117 9.21095 28.1696 9.20115C28.4337 9.15118 28.7098 9.1131 28.9882 9.08692C29.1185 9.07153 29.2434 9.02557 29.3525 8.95278C29.4617 8.88 29.5522 8.78244 29.6165 8.66808L29.9473 8.02316C29.9657 7.99525 29.9904 7.97194 30.0192 7.95502C30.0481 7.93811 30.0805 7.92804 30.1139 7.92559M29.5451 13.9797C30.2068 13.9851 30.8631 13.8615 31.4775 13.6156C32.3318 13.2611 32.8768 12.6923 32.9744 12.0569C33.0055 11.7876 32.9646 11.5149 32.8559 11.2665C32.7472 11.0182 32.5745 10.8031 32.3556 10.6433C31.7416 10.1269 30.7754 9.83179 29.7069 9.83179C29.0432 9.82006 28.3835 9.93808 27.765 10.1792C26.9107 10.5338 26.3657 11.1026 26.2681 11.738C26.2373 12.0073 26.2783 12.2799 26.387 12.5282C26.4956 12.7765 26.6681 12.9916 26.8869 13.1516C27.5009 13.668 28.4671 13.9631 29.5356 13.9631M30.1043 7.6543C30.0241 7.65763 29.9461 7.6812 29.8774 7.7228C29.8088 7.76441 29.7517 7.82271 29.7117 7.89227L29.3809 8.53481C29.3357 8.61117 29.274 8.67644 29.2002 8.72585C29.1265 8.77526 29.0427 8.80757 28.9549 8.82039C28.6723 8.8441 28.3911 8.88222 28.1125 8.93461C28.0753 8.93835 28.0378 8.93835 28.0006 8.93461C27.856 8.93614 27.7137 8.8983 27.5889 8.82514L26.7203 8.24686C26.6264 8.18996 26.5183 8.16106 26.4085 8.16357C26.341 8.16255 26.2739 8.17468 26.211 8.19926L24.9045 8.75137C24.8719 8.76067 24.8424 8.7785 24.819 8.80302C24.7956 8.82753 24.7792 8.85785 24.7714 8.89084C24.7637 8.92383 24.7649 8.95829 24.7749 8.99067C24.7849 9.02305 24.8033 9.05216 24.8284 9.07502L25.4114 9.70328C25.4368 9.72999 25.4561 9.76189 25.468 9.79678C25.4799 9.83168 25.484 9.86873 25.4802 9.90539C25.4763 9.94204 25.4646 9.97743 25.4457 10.0091C25.4269 10.0408 25.4014 10.068 25.371 10.0888C25.2442 10.1895 25.1241 10.2984 25.0116 10.4148C24.884 10.5413 24.7149 10.6174 24.5357 10.629L23.0483 10.5862C22.9665 10.5897 22.8876 10.6173 22.8216 10.6656C22.7555 10.7139 22.7052 10.7806 22.677 10.8575L22.4391 11.5904C22.4252 11.6246 22.4195 11.6615 22.4223 11.6982C22.4252 11.7349 22.4365 11.7705 22.4554 11.8021C22.4743 11.8337 22.5003 11.8605 22.5314 11.8803C22.5624 11.9002 22.5976 11.9125 22.6342 11.9165L24.0454 12.1545C24.1261 12.175 24.2 12.2164 24.2597 12.2744C24.3195 12.3325 24.3629 12.4052 24.3857 12.4852C24.4143 12.5826 24.4493 12.678 24.4904 12.7708C24.5243 12.8393 24.5303 12.9181 24.5073 12.9909C24.4842 13.0637 24.4338 13.1247 24.3667 13.1611L23.3172 13.7037C23.2854 13.7144 23.2572 13.7338 23.2359 13.7598C23.2147 13.7857 23.2011 13.8172 23.1969 13.8504C23.1927 13.8837 23.1979 13.9176 23.2121 13.948C23.2262 13.9785 23.2486 14.0043 23.2768 14.0226L24.0978 14.7151C24.2005 14.7905 24.3249 14.8305 24.4524 14.8293C24.5008 14.8298 24.549 14.8225 24.5951 14.8079L25.866 14.3915C25.9352 14.3695 26.0075 14.359 26.0801 14.3605C26.1909 14.3591 26.3008 14.3793 26.4038 14.42C26.6245 14.5117 26.8501 14.5912 27.0796 14.658C27.1557 14.6827 27.2209 14.7329 27.2643 14.8001C27.3076 14.8673 27.3265 14.9474 27.3176 15.0269L27.2367 15.6551C27.2314 15.6926 27.2337 15.7307 27.2435 15.7673C27.2533 15.8038 27.2704 15.838 27.2937 15.8678C27.317 15.8976 27.3461 15.9223 27.3793 15.9406C27.4124 15.9588 27.4489 15.9702 27.4866 15.974L29.1096 16.1263H29.1405C29.2207 16.123 29.2988 16.0994 29.3675 16.0578C29.4361 16.0162 29.4931 15.9579 29.5332 15.8883L29.864 15.2458C29.9081 15.1693 29.9693 15.1039 30.0428 15.0548C30.1162 15.0057 30.2 14.9741 30.2876 14.9626C30.5708 14.9364 30.854 14.8983 31.1324 14.846C31.1688 14.8422 31.2055 14.8422 31.2419 14.846C31.3872 14.8449 31.5302 14.8827 31.656 14.9555L32.5246 15.5337C32.6177 15.5903 32.725 15.6192 32.8339 15.617C32.9015 15.6181 32.9686 15.6059 33.0315 15.5813L34.3403 15.0388C34.3728 15.0292 34.402 15.0111 34.4251 14.9865C34.4483 14.9618 34.4644 14.9315 34.4719 14.8985C34.4794 14.8656 34.478 14.8312 34.4679 14.799C34.4577 14.7667 34.4392 14.7378 34.4141 14.7151L33.8311 14.0845C33.806 14.0576 33.7871 14.0256 33.7754 13.9908C33.7638 13.956 33.7597 13.919 33.7636 13.8825C33.7674 13.846 33.779 13.8107 33.7976 13.779C33.8163 13.7473 33.8415 13.72 33.8715 13.6989C33.9989 13.5989 34.1189 13.4899 34.2309 13.3729C34.3589 13.247 34.5277 13.171 34.7068 13.1587L36.1942 13.2016C36.2758 13.1986 36.3546 13.1711 36.4204 13.1227C36.4862 13.0743 36.5359 13.0073 36.5631 12.9303L36.801 12.1973C36.8149 12.1632 36.8206 12.1263 36.8178 12.0896C36.8149 12.0528 36.8036 12.0173 36.7847 11.9857C36.7658 11.9541 36.7398 11.9273 36.7088 11.9074C36.6777 11.8876 36.6425 11.8752 36.6059 11.8713L35.1947 11.6333C35.114 11.6127 35.0401 11.5714 34.9804 11.5133C34.9207 11.4553 34.8772 11.3826 34.8544 11.3025C34.8269 11.2048 34.7919 11.1093 34.7497 11.0169C34.7161 10.9486 34.7105 10.8698 34.734 10.7974C34.7576 10.725 34.8084 10.6646 34.8758 10.629L35.9253 10.0841C35.9571 10.0734 35.9853 10.0539 36.0065 10.028C36.0278 10.002 36.0414 9.97059 36.0456 9.9373C36.0498 9.904 36.0445 9.87019 36.0304 9.83974C36.0163 9.80929 35.9939 9.78344 35.9657 9.76516L35.1423 9.07502C35.0413 8.99787 34.9173 8.95682 34.7901 8.95841C34.7409 8.958 34.692 8.96523 34.645 8.97983L33.3742 9.39629C33.3049 9.41825 33.2326 9.4287 33.16 9.42723C33.0493 9.42838 32.9394 9.40818 32.8363 9.36773C32.6158 9.27562 32.3901 9.19616 32.1605 9.12976C32.0847 9.10467 32.0197 9.0544 31.9764 8.98729C31.9331 8.92019 31.9141 8.8403 31.9225 8.76089L32.0058 8.13263C32.016 8.05886 31.9968 7.98403 31.9522 7.92435C31.9077 7.86466 31.8414 7.82492 31.7678 7.81374L30.1424 7.66144L30.1043 7.6543ZM29.5356 13.7085C28.5718 13.7085 27.6317 13.4467 27.0511 12.9564C26.0825 12.1426 26.4466 11.005 27.8626 10.4148C28.4461 10.182 29.0692 10.0648 29.6974 10.0698C30.6612 10.0698 31.6012 10.3315 32.1819 10.8218C33.1505 11.6357 32.7887 12.7732 31.3704 13.3634C30.7869 13.5962 30.1638 13.7134 29.5356 13.7085Z" fill="#EBEBEB"/>
</svg>
