<svg width="44" height="32" viewBox="0 0 44 32" fill="none" xmlns="http://www.w3.org/2000/svg">
<g clip-path="url(#clip0_45_2445)">
<path d="M16.9172 25.2839C16.9172 25.2839 21.3214 24.229 21.401 19.8669C21.4081 18.7332 21.123 17.6169 20.5733 16.6255C20.0235 15.634 19.2275 14.801 18.2621 14.2067C17.7799 13.9055 17.2756 13.6412 16.7535 13.4161C15.3172 12.8092 14.0375 11.8839 13.0112 10.71C12.7904 10.4506 12.5835 10.1797 12.3914 9.89836C12.2889 9.74107 12.1499 9.61079 11.9864 9.51853C11.8228 9.42628 11.6395 9.37476 11.4518 9.36834C11.2642 9.36191 11.0777 9.40077 10.9082 9.48163C10.7388 9.56248 10.5912 9.68296 10.4782 9.83287L10.3869 9.9732C10.2927 10.141 10.242 10.3298 10.2395 10.5222C10.2371 10.7147 10.2829 10.9047 10.3729 11.0748C10.8571 12.0104 12.0873 14.1155 13.9749 15.175C13.9749 15.175 8.9485 14.8101 7.34399 8.03656C7.34399 8.03656 6.86451 5.10822 4.72438 3.91069C4.62119 3.85406 4.50327 3.83003 4.38615 3.84177C4.26903 3.85351 4.15821 3.90046 4.0683 3.97643C3.9784 4.05241 3.91362 4.15384 3.88252 4.26737C3.85141 4.38089 3.85544 4.50118 3.89407 4.61237C4.26596 5.6836 4.7314 7.63661 4.96062 11.0047C4.96062 11.0047 5.0074 17.3198 12.5528 20.0938C13.6199 20.4726 14.5741 21.1148 15.3269 21.9607C16.0796 22.8067 16.6065 23.8291 16.8588 24.933C16.8728 25.05 16.8962 25.1576 16.9172 25.2839Z" fill="#EC5863"/>
<path d="M36.2418 28.4694C36.065 28.4694 35.8954 28.3992 35.7704 28.2742C35.6454 28.1492 35.5752 27.9796 35.5752 27.8028C35.5752 27.626 35.6454 27.4565 35.7704 27.3315C35.8954 27.2064 36.065 27.1362 36.2418 27.1362C37.1262 27.1331 37.9732 26.7791 38.5968 26.152C39.2204 25.5249 39.5696 24.6759 39.5678 23.7915C39.5624 23.7012 39.5755 23.6106 39.6064 23.5255C39.6373 23.4404 39.6853 23.3625 39.7474 23.2966C39.8095 23.2307 39.8844 23.1782 39.9676 23.1423C40.0507 23.1064 40.1403 23.0879 40.2308 23.0879C40.3214 23.0879 40.411 23.1064 40.4941 23.1423C40.5773 23.1782 40.6522 23.2307 40.7143 23.2966C40.7764 23.3625 40.8243 23.4404 40.8552 23.5255C40.8861 23.6106 40.8993 23.7012 40.8939 23.7915C40.8939 25.0277 40.4046 26.2137 39.5329 27.0902C38.6612 27.9668 37.478 28.4626 36.2418 28.4694Z" fill="#587EEC"/>
<path d="M7.7582 28.4694C6.52242 28.462 5.33978 27.9659 4.46857 27.0894C3.59737 26.213 3.10838 25.0274 3.1084 23.7916C3.1084 23.7046 3.12551 23.6186 3.15878 23.5383C3.19204 23.4579 3.2408 23.385 3.30226 23.3235C3.36373 23.262 3.4367 23.2133 3.51701 23.18C3.59732 23.1468 3.68338 23.1296 3.77031 23.1296C3.85723 23.1296 3.94331 23.1468 4.02361 23.18C4.10392 23.2133 4.1769 23.262 4.23836 23.3235C4.29983 23.385 4.34858 23.4579 4.38185 23.5383C4.41511 23.6186 4.43223 23.7046 4.43223 23.7916C4.43036 24.676 4.77958 25.5249 5.40319 26.152C6.0268 26.7792 6.87381 27.1331 7.7582 27.1362C7.93499 27.1362 8.10454 27.2065 8.22955 27.3315C8.35456 27.4565 8.42479 27.626 8.42479 27.8028C8.42479 27.9796 8.35456 28.1492 8.22955 28.2742C8.10454 28.3992 7.93499 28.4694 7.7582 28.4694Z" fill="#EC5863"/>
<path d="M27.0825 25.2839C27.0825 25.2839 22.6783 24.229 22.5987 19.8669C22.5921 18.7331 22.8776 17.6167 23.4278 16.6252C23.978 15.6338 24.7743 14.8009 25.7399 14.2067C26.2213 13.9054 26.7249 13.6412 27.2462 13.4161C28.6826 12.8092 29.9622 11.8839 30.9885 10.71C31.2101 10.4506 31.4178 10.1797 31.6107 9.89836C31.7133 9.74153 31.8521 9.61167 32.0154 9.51972C32.1788 9.42777 32.3618 9.37642 32.5491 9.37C32.7365 9.36358 32.9226 9.40228 33.0918 9.48283C33.261 9.56338 33.4084 9.68343 33.5216 9.83287C33.5547 9.87784 33.5851 9.9247 33.6128 9.9732C33.7074 10.1408 33.7585 10.3295 33.7614 10.5219C33.7642 10.7144 33.7188 10.9045 33.6292 11.0748C33.145 12.0104 31.9147 14.1155 30.0272 15.175C30.0272 15.175 35.0512 14.8101 36.6581 8.03656C36.6581 8.03656 37.1259 5.10822 39.2753 3.91069C39.3785 3.85406 39.4965 3.83003 39.6136 3.84177C39.7307 3.85351 39.8415 3.90046 39.9314 3.97643C40.0213 4.05241 40.0861 4.15384 40.1172 4.26737C40.1483 4.38089 40.1443 4.50118 40.1057 4.61237C39.7361 5.6836 39.2683 7.63661 39.0391 11.0047C39.0391 11.0047 38.9923 17.3198 31.4493 20.0938C30.3817 20.4718 29.4271 21.1138 28.6742 21.9599C27.9213 22.806 27.3947 23.8287 27.1433 24.933C27.1269 25.05 27.1035 25.1576 27.0825 25.2839Z" fill="#587EEC"/>
<path d="M26.4814 8.53241C26.3178 9.33075 25.9485 10.0725 25.4101 10.6842C24.4972 11.8074 23.3276 12.6946 22 13.2711C21.0062 12.8429 20.0987 12.2374 19.3219 11.4841C19.1535 11.3181 18.9898 11.145 18.8331 10.9672C18.7512 10.876 18.6717 10.7848 18.5992 10.6889C18.0585 10.079 17.6896 9.33641 17.5303 8.53709C17.4063 7.73951 17.6379 6.84604 18.2624 6.33381C18.9243 5.80054 19.8996 5.79118 20.6668 6.12565C21.0378 6.28851 21.3582 6.54814 21.5944 6.87733C21.8305 7.20653 21.9739 7.59318 22.0093 7.99679C22.0443 7.59336 22.1872 7.20677 22.423 6.87756C22.6588 6.54834 22.9788 6.28863 23.3495 6.12565C24.1261 5.79118 25.0944 5.80054 25.754 6.33381C26.1008 6.62684 26.3422 7.0252 26.4416 7.4682C26.4635 7.549 26.4806 7.631 26.4931 7.71379C26.5292 7.98577 26.5253 8.26157 26.4814 8.53241Z" fill="#E5E2E9"/>
<path d="M32.1675 7.84946C34.3221 7.84946 36.0688 6.0923 36.0688 3.92473C36.0688 1.75716 34.3221 0 32.1675 0C30.0128 0 28.2661 1.75716 28.2661 3.92473C28.2661 6.0923 30.0128 7.84946 32.1675 7.84946Z" fill="#EC5863"/>
<path d="M11.8325 7.84946C13.9871 7.84946 15.7338 6.0923 15.7338 3.92473C15.7338 1.75716 13.9871 0 11.8325 0C9.67784 0 7.93115 1.75716 7.93115 3.92473C7.93115 6.0923 9.67784 7.84946 11.8325 7.84946Z" fill="#587EEC"/>
<path d="M29.6089 25.555C29.8926 26.6187 30.4287 27.5983 31.1716 28.4107C31.9146 29.2231 32.8425 29.8443 33.8767 30.2218C34.9109 30.5992 36.0208 30.7216 37.1124 30.5787C38.204 30.4358 39.245 30.0317 40.1472 29.4008C41.0494 28.7698 41.7861 27.9306 42.2948 26.9543C42.8036 25.978 43.0694 24.8935 43.0697 23.7925C43.07 22.6916 42.8049 21.6069 42.2967 20.6303C41.7885 19.6537 41.0523 18.8141 40.1505 18.1826V15.252H42.445" stroke="#EC5863" stroke-width="1.85945" stroke-linecap="round" stroke-linejoin="round"/>
<path d="M14.3917 25.555C14.1074 26.6178 13.5711 27.5965 12.8282 28.408C12.0853 29.2196 11.1577 29.84 10.124 30.2168C9.09036 30.5936 7.98106 30.7157 6.89018 30.5726C5.7993 30.4295 4.75901 30.0255 3.85746 29.3949C2.95592 28.7642 2.21971 27.9255 1.71124 26.9498C1.20277 25.9742 0.937019 24.8903 0.936524 23.7901C0.936029 22.6898 1.2008 21.6057 1.7084 20.6296C2.21599 19.6535 2.95145 18.8141 3.85242 18.1826V15.252H1.55559" stroke="#587EEC" stroke-width="1.85945" stroke-linecap="round" stroke-linejoin="round"/>
</g>
<defs>
<clipPath id="clip0_45_2445">
<rect width="44" height="31.6317" fill="white"/>
</clipPath>
</defs>
</svg>
