<svg width="8" height="18" viewBox="0 0 8 18" fill="none" xmlns="http://www.w3.org/2000/svg">
<path d="M0.956209 16.7096C0.956209 16.7096 -0.612072 11.3527 0.703946 5.77452C1.4393 2.65463 3.23603 1.04114 4.42354 0.776981C5.75384 0.472369 7.265 1.59087 6.30119 3.70173C5.38498 5.70789 3.27887 6.72405 2.56256 11.7644C2.0866 15.0961 2.46975 17.2046 2.46975 17.2046L0.956209 16.7096Z" fill="#BA68C8"/>
<path opacity="0.5" d="M0.956209 16.7096C0.956209 16.7096 -0.612072 11.3527 0.703946 5.77452C1.4393 2.65463 3.23603 1.04114 4.42354 0.776981C5.75384 0.472369 7.265 1.59087 6.30119 3.70173C5.38498 5.70789 3.27887 6.72405 2.56256 11.7644C2.0866 15.0961 2.46975 17.2046 2.46975 17.2046L0.956209 16.7096Z" fill="white"/>
<path d="M1.62997 15.2295C1.6408 15.2273 1.65107 15.2229 1.66018 15.2166C1.6693 15.2103 1.67707 15.2023 1.68305 15.193C1.68904 15.1837 1.69311 15.1733 1.69502 15.1624C1.69694 15.1515 1.69667 15.1404 1.69422 15.1296C0.416282 9.21582 2.71277 3.87797 4.75224 1.97653C4.76766 1.96056 4.77627 1.93923 4.77627 1.91703C4.77627 1.89484 4.76766 1.87351 4.75224 1.85754C4.74445 1.84925 4.73505 1.84265 4.72462 1.83814C4.71418 1.83363 4.70293 1.8313 4.69156 1.8313C4.68019 1.8313 4.66894 1.83363 4.65851 1.83814C4.64807 1.84265 4.63866 1.84925 4.63087 1.85754C2.56284 3.78516 0.230662 9.19202 1.52526 15.17C1.528 15.1809 1.53293 15.1912 1.53974 15.2002C1.54656 15.2091 1.55511 15.2166 1.5649 15.2222C1.57469 15.2277 1.5855 15.2312 1.59668 15.2325C1.60787 15.2338 1.61919 15.2328 1.62997 15.2295Z" fill="white"/>
<path d="M2.46993 17.1976C2.51038 15.7983 3.10532 14.2966 4.56413 12.6118C6.02293 10.9269 8.11476 9.29673 7.63881 8.00689C7.16285 6.71705 5.41609 7.18824 4.25238 8.05686C3.08867 8.92548 0.618457 12.1429 1.72505 16.9596L2.46993 17.1976Z" fill="#BA68C8"/>
<path opacity="0.65" d="M2.46993 17.1976C2.51038 15.7983 3.10532 14.2966 4.56413 12.6118C6.02293 10.9269 8.11476 9.29673 7.63881 8.00689C7.16285 6.71705 5.41609 7.18824 4.25238 8.05686C3.08867 8.92548 0.618457 12.1429 1.72505 16.9596L2.46993 17.1976Z" fill="white"/>
<path d="M1.95345 15.6958C1.97254 15.692 1.98967 15.6815 2.00185 15.6663C2.01403 15.651 2.02048 15.632 2.02009 15.6126C1.92252 12.6759 4.87582 8.65646 6.35128 7.92587C6.36146 7.92106 6.37055 7.91424 6.37802 7.90582C6.38549 7.8974 6.39117 7.88756 6.39473 7.87689C6.39829 7.86621 6.39965 7.85493 6.39873 7.84371C6.3978 7.8325 6.39462 7.82158 6.38936 7.81163C6.38454 7.80177 6.37782 7.79295 6.36958 7.78569C6.36134 7.77843 6.35175 7.77287 6.34135 7.76933C6.33096 7.76579 6.31996 7.76435 6.30901 7.76507C6.29805 7.7658 6.28735 7.76868 6.27751 7.77356C4.71875 8.53985 1.75593 12.5664 1.85112 15.6268C1.8511 15.6379 1.85334 15.6488 1.8577 15.6589C1.86206 15.6691 1.86845 15.6782 1.87648 15.6858C1.8845 15.6934 1.89399 15.6992 1.90437 15.703C1.91474 15.7068 1.92577 15.7084 1.93679 15.7077L1.95345 15.6958Z" fill="white"/>
</svg>
