<svg width="16" height="13" viewBox="0 0 16 13" fill="none" xmlns="http://www.w3.org/2000/svg">
<path d="M15.2248 5.45117C15.2248 2.59544 11.9978 0.284668 8.01646 0.284668C4.03509 0.284668 0.808105 2.59782 0.808105 5.45117C0.808105 8.30453 4.03509 10.6153 8.01646 10.6153C8.25444 10.6153 8.49242 10.6153 8.7304 10.5891C9.5181 12.0693 10.8579 12.324 11.8979 12.205C11.5282 12.0322 11.222 11.7477 11.0226 11.3916C10.8232 11.0355 10.7407 10.6258 10.7865 10.2203C13.39 9.44444 15.2248 7.60011 15.2248 5.45117Z" fill="white"/>
<path d="M11.4552 12.3049C10.8855 12.3228 10.3223 12.1783 9.83149 11.8885C9.34064 11.5986 8.94227 11.1752 8.68278 10.6676C8.45908 10.6819 8.233 10.689 8.01644 10.689C3.99938 10.689 0.731934 8.34021 0.731934 5.45353C0.731934 2.56686 3.99938 0.218018 8.01644 0.218018C12.0335 0.218018 15.3009 2.56924 15.3009 5.45353C15.3009 7.56678 13.5566 9.4587 10.8508 10.2797C10.8188 10.6623 10.9045 11.0455 11.0963 11.3781C11.2881 11.7107 11.5769 11.9767 11.924 12.1407C11.9393 12.1466 11.9521 12.1577 11.9599 12.1721C11.9678 12.1865 11.9702 12.2032 11.9669 12.2192C11.9645 12.2354 11.957 12.2504 11.9454 12.262C11.9338 12.2736 11.9188 12.2811 11.9026 12.2835C11.754 12.2986 11.6046 12.3057 11.4552 12.3049ZM8.72561 10.5153C8.73915 10.5149 8.75252 10.5183 8.76427 10.525C8.77603 10.5317 8.78571 10.5416 8.79226 10.5534C9.05041 11.0744 9.45964 11.5055 9.96654 11.7903C10.4734 12.0752 11.0544 12.2006 11.6337 12.1502C11.3149 11.9449 11.0593 11.655 10.8955 11.313C10.7316 10.971 10.6659 10.5902 10.7056 10.2131C10.707 10.1981 10.7131 10.1839 10.7229 10.1724C10.7327 10.1609 10.7457 10.1527 10.7603 10.1488C13.4257 9.35399 15.1486 7.5049 15.1486 5.45115C15.1486 2.64301 11.9502 0.360804 8.00931 0.360804C4.06839 0.360804 0.869965 2.64301 0.869965 5.45115C0.869965 8.2593 4.07077 10.5391 8.00931 10.5391C8.24728 10.5391 8.48526 10.5391 8.72324 10.5153H8.72561Z" fill="#BA68C8"/>
<path d="M5.60584 5.60114C5.60584 5.74611 5.56285 5.88782 5.48231 6.00835C5.40177 6.12889 5.2873 6.22284 5.15336 6.27832C5.01943 6.33379 4.87205 6.34831 4.72987 6.32003C4.58769 6.29174 4.45708 6.22193 4.35457 6.11943C4.25207 6.01692 4.18226 5.88631 4.15398 5.74413C4.12569 5.60195 4.14021 5.45457 4.19569 5.32064C4.25117 5.18671 4.34511 5.07223 4.46565 4.99169C4.58618 4.91115 4.7279 4.86816 4.87287 4.86816C5.06727 4.86816 5.2537 4.94539 5.39116 5.08285C5.52862 5.22031 5.60584 5.40674 5.60584 5.60114Z" fill="#BA68C8"/>
<path d="M8.74939 5.60114C8.74939 5.74611 8.7064 5.88782 8.62586 6.00835C8.54532 6.12889 8.43084 6.22284 8.29691 6.27832C8.16298 6.33379 8.0156 6.34831 7.87342 6.32003C7.73124 6.29174 7.60064 6.22193 7.49813 6.11943C7.39562 6.01692 7.32581 5.88631 7.29753 5.74413C7.26925 5.60195 7.28376 5.45457 7.33924 5.32064C7.39472 5.18671 7.48867 5.07223 7.6092 4.99169C7.72974 4.91115 7.87145 4.86816 8.01642 4.86816C8.21082 4.86816 8.39725 4.94539 8.53471 5.08285C8.67217 5.22031 8.74939 5.40674 8.74939 5.60114Z" fill="#BA68C8"/>
<path d="M11.16 6.33167C11.5648 6.33167 11.8929 6.0035 11.8929 5.59869C11.8929 5.19389 11.5648 4.86572 11.16 4.86572C10.7552 4.86572 10.427 5.19389 10.427 5.59869C10.427 6.0035 10.7552 6.33167 11.16 6.33167Z" fill="#BA68C8"/>
<g opacity="0.3">
<path d="M5.60584 5.60114C5.60584 5.74611 5.56285 5.88782 5.48231 6.00835C5.40177 6.12889 5.2873 6.22284 5.15336 6.27832C5.01943 6.33379 4.87205 6.34831 4.72987 6.32003C4.58769 6.29174 4.45708 6.22193 4.35457 6.11943C4.25207 6.01692 4.18226 5.88631 4.15398 5.74413C4.12569 5.60195 4.14021 5.45457 4.19569 5.32064C4.25117 5.18671 4.34511 5.07223 4.46565 4.99169C4.58618 4.91115 4.7279 4.86816 4.87287 4.86816C5.06727 4.86816 5.2537 4.94539 5.39116 5.08285C5.52862 5.22031 5.60584 5.40674 5.60584 5.60114Z" fill="white"/>
<path d="M8.74939 5.60114C8.74939 5.74611 8.7064 5.88782 8.62586 6.00835C8.54532 6.12889 8.43084 6.22284 8.29691 6.27832C8.16298 6.33379 8.0156 6.34831 7.87342 6.32003C7.73124 6.29174 7.60064 6.22193 7.49813 6.11943C7.39562 6.01692 7.32581 5.88631 7.29753 5.74413C7.26925 5.60195 7.28376 5.45457 7.33924 5.32064C7.39472 5.18671 7.48867 5.07223 7.6092 4.99169C7.72974 4.91115 7.87145 4.86816 8.01642 4.86816C8.21082 4.86816 8.39725 4.94539 8.53471 5.08285C8.67217 5.22031 8.74939 5.40674 8.74939 5.60114Z" fill="white"/>
<path d="M11.16 6.33167C11.5648 6.33167 11.8929 6.0035 11.8929 5.59869C11.8929 5.19389 11.5648 4.86572 11.16 4.86572C10.7552 4.86572 10.427 5.19389 10.427 5.59869C10.427 6.0035 10.7552 6.33167 11.16 6.33167Z" fill="white"/>
</g>
</svg>
