<svg width="717" height="481" viewBox="0 0 717 481" fill="none" xmlns="http://www.w3.org/2000/svg">
<path opacity="0.6" d="M416.592 79.1687C370.626 77.5702 326.812 62.7213 285.038 46.4786C243.264 30.2359 201.86 12.2361 156.97 3.62926C128.108 -1.91268 95.1012 -2.69212 71.8509 12.791C49.472 27.6862 42.2434 53.401 38.3551 77.2598C35.4307 95.2133 33.7341 114.105 41.7285 130.916C47.2935 142.581 57.1693 152.39 64.0018 163.566C87.767 202.452 70.9663 250.407 45.2074 288.408C33.1268 306.243 19.1119 323.212 9.79065 342.176C0.469399 361.14 -3.84795 382.866 4.31145 402.206C12.3982 421.362 31.6613 435.775 52.535 445.901C94.9296 466.451 144.883 472.329 193.595 475.698C301.423 483.076 409.832 479.879 517.944 476.682C557.955 475.493 598.145 474.298 637.503 468.095C659.36 464.654 681.931 459.198 697.8 446.027C717.941 429.302 722.939 400.991 709.439 380.019C686.796 344.852 624.194 336.113 608.364 298.369C599.657 277.595 608.602 254.45 621.263 235.182C648.415 193.852 693.939 157.588 696.335 110.34C697.985 77.8873 676.102 45.3953 642.262 30.0377C606.799 13.9271 557.619 15.9616 531.457 42.588C504.517 70.0202 457.171 80.5757 416.592 79.1687Z" fill="#EC5863"/>
</svg>
