<svg width="530" height="789" viewBox="0 0 530 789" fill="none" xmlns="http://www.w3.org/2000/svg">
<g clip-path="url(#clip0_59_1383)">
<path d="M344.791 78.6609C347.673 83.9336 347.673 89.5128 344.791 90.9229C341.91 92.3331 337.373 89.3902 334.492 84.1175C331.61 78.8449 331.61 73.2656 334.492 71.8555C337.373 70.4454 341.91 73.3269 344.791 78.6609Z" fill="#212020"/>
<path d="M348.592 775.696V776.615V779.558L349.083 785.321V787.835L352.516 788.142C356.872 788.628 361.26 788.751 365.635 788.509C368.916 788.301 372.134 787.513 375.138 786.18V780.049L364.348 778.271L360.67 777.658L358.156 777.29L348.286 775.634L348.592 775.696Z" fill="#2F2E29"/>
<path d="M270.303 775.573L270.671 783.176C286.182 789.613 311.808 790.901 345.711 785.873L349.389 785.321L355.52 784.279C358.831 783.666 362.202 783.053 365.635 782.317C369.069 781.581 372.38 780.968 375.874 780.171V774.04V771.097H372.809H364.655H363.49H361.099L350.125 771.588L270.303 775.573Z" fill="#2F2E29"/>
<path d="M270.303 775.573C276.127 782.133 317.877 782.93 347.734 779.681H348.899C353.436 779.19 357.604 778.577 361.16 777.903L364.532 777.29C368.289 776.613 371.938 775.437 375.384 773.795V773.121C375.384 772.446 375.384 771.711 375.384 770.852C375.055 767.974 374.354 765.151 373.299 762.453C372.015 759.028 369.942 755.956 367.246 753.484C364.551 751.012 361.311 749.212 357.788 748.229L356.93 747.922C348.019 746.067 338.783 746.488 330.078 749.148L322.966 750.926L316.529 752.704L311.379 754.114L307.823 755.218L302.857 756.69L299.24 757.854L294.458 759.51C278.825 764.966 270.058 770.3 270.303 775.573Z" fill="#1D1D1B"/>
<path d="M316.467 752.704C332.53 757.854 347.857 758.835 361.528 764.966C365.299 766.611 368.876 768.667 372.195 771.097C373.299 771.874 374.403 772.732 375.506 773.672C376.303 774.286 377.1 775.021 377.836 775.696C378.204 773.918 383.967 743.998 387.4 721.13C388.381 714.57 389.239 707.641 390.158 700.591C397.337 644.531 399.839 587.972 397.638 531.497C397.504 529.426 397.753 527.347 398.374 525.366C399.845 520.646 402.972 510.591 406.834 497.409C408.612 491.278 410.574 484.718 412.597 477.545C414.988 469.022 417.563 459.826 420.076 450.323C420.444 449.035 420.812 447.687 421.119 446.338C425.042 431.746 428.843 416.541 432.154 402.011L433.993 393.856C434.3 392.507 434.545 391.097 434.851 389.81C436.384 382.207 437.794 375.034 438.898 368.229C442.515 345.85 443.189 328.868 438.223 324.331C438.223 324.331 434.238 323.84 428.414 323.411L416.153 322.43L400.335 321.326L380.166 319.916C370.97 319.242 354.662 348.425 354.662 348.425L330.936 518.255L316.467 752.704Z" fill="#094D61"/>
<path d="M470.225 774.899V775.818V778.761L470.716 784.463V787.038L474.211 787.345C481.776 788.608 489.538 787.933 496.772 785.383V779.252L482.977 777.228L480.464 776.861L470.532 775.205L470.225 774.899Z" fill="#2F2E29"/>
<path d="M391.875 774.776V776.554V782.685C407.447 788.816 433.012 790.41 466.976 785.321L470.594 784.831L476.724 783.789C483.284 782.624 490.089 781.275 497.139 779.681V775.696V773.489C497.17 773.265 497.17 773.038 497.139 772.814V770.546L489.66 770.914H486.472H482.916L471.942 771.404L395.615 774.899L391.875 774.776Z" fill="#2F2E29"/>
<path d="M391.875 774.776L393.224 775.818C402.297 781.397 441.105 781.949 469.306 778.884H470.532C475.008 778.393 479.238 777.78 482.794 777.106C486.983 776.483 491.093 775.414 495.055 773.918L497.017 772.998V772.324C497.017 772.324 497.017 771.956 497.017 771.772V770.239C496.718 767.356 496.016 764.528 494.932 761.84C493.603 758.262 491.414 755.066 488.56 752.532C485.706 749.999 482.273 748.205 478.563 747.309C470.658 745.637 462.473 745.826 454.653 747.861L451.772 748.535L444.599 750.313L441.656 751.11L438.223 752.03L433.012 753.501L429.456 754.605L424.49 756.076L420.812 757.241L416.03 758.897C400.335 764.169 391.691 769.503 391.875 774.776Z" fill="#1D1D1B"/>
<path d="M400.029 321.142L401.071 347.628L402.052 372.582L402.542 386.744L402.972 398.577V401.336L406.711 497.286L407.692 523.098L434.422 709.787L440.185 750.129L441.534 750.559H441.841C447.045 751.302 452.16 752.576 457.106 754.36C458.884 754.912 460.662 755.586 462.44 756.322C471.775 760.143 480.794 764.694 489.415 769.933C491.376 771.036 493.277 772.201 495.177 773.427L497.262 774.715L500.634 776.861C501.063 758.897 505.906 724.256 503.148 689.126C501.063 662.149 497.507 632.414 492.725 603.292C488.189 574.905 482.548 546.948 476.111 522.24C475.534 520.251 475.346 518.169 475.559 516.109C476.663 504.705 480.525 463.259 482.487 420.465C482.487 414.947 482.916 409.368 483.161 403.911C483.836 382.698 483.897 362.098 482.794 345.728C482.409 337.223 481.156 328.779 479.054 320.529C478.434 316.858 476.521 313.53 473.659 311.149C473.23 311.149 449.136 314.153 428.414 317.28C413.21 319.242 400.029 321.142 400.029 321.142Z" fill="#094D61"/>
<path opacity="0.4" d="M357.604 749.7C357.979 754.641 359.225 759.478 361.283 763.985C361.283 763.985 361.283 764.599 361.283 764.905C365.054 766.549 368.631 768.605 371.95 771.036C373.054 771.813 374.157 772.671 375.261 773.611C376.058 774.224 376.855 774.96 377.59 775.634C377.958 773.856 383.721 743.937 387.154 721.068C388.135 714.508 388.994 707.58 389.913 700.529C397.092 644.47 399.594 587.911 397.393 531.436C397.259 529.365 397.508 527.286 398.129 525.305C399.6 520.584 402.727 510.529 406.589 497.348L407.57 523.159L434.422 709.787L440.185 750.129L441.534 750.558H441.841C447.045 751.302 452.16 752.576 457.106 754.36C458.884 754.912 460.662 755.586 462.44 756.322C435.587 705.25 422.835 538.916 422.345 533.03C421.014 525.92 419.253 518.897 417.072 512.001C415.601 504.398 413.884 491.278 412.536 477.054C410.615 460.451 410.061 443.719 410.88 427.025C411.808 415.344 416.063 404.174 423.142 394.837C416.542 396.972 409.662 398.108 402.727 398.209C396.428 398.147 390.25 396.468 384.786 393.333C379.322 390.199 374.754 385.713 371.521 380.307C384.802 401.31 392.11 425.535 392.661 450.379C393.212 475.223 386.985 499.749 374.648 521.32C383.476 535.176 384.641 552.527 384.764 568.958C385.408 627.078 376.948 684.94 359.689 740.442C358.791 743.033 358.134 745.701 357.727 748.413C357.666 748.84 357.625 749.269 357.604 749.7Z" fill="#1D1D1B"/>
<path opacity="0.4" d="M402.727 347.567C421.119 344.256 439.94 355.721 450.24 371.417C460.539 387.112 463.972 406.241 466.179 424.879C470.287 459.949 470.042 497.9 450.791 527.512C463.666 531.681 470.839 545.17 476.111 557.677C482.446 572.718 487.984 587.985 492.725 603.476C488.189 575.089 482.548 547.132 476.111 522.424C475.534 520.435 475.346 518.353 475.559 516.293C476.663 504.889 480.525 463.443 482.487 420.649C482.487 415.131 482.916 409.552 483.161 404.095C483.836 382.882 483.897 362.282 482.794 345.912C467.611 346.22 452.423 345.667 437.303 344.256C425.533 343.153 412.904 341.927 402.727 347.567Z" fill="#1D1D1B"/>
<path d="M477.337 381.594C478.466 379.729 479.78 377.983 481.261 376.383C482.292 374.627 483.418 372.928 484.633 371.294C488.494 366.594 493.497 362.963 499.163 360.749C502.718 360.039 506.41 360.634 509.562 362.424C512.714 364.214 515.117 367.08 516.328 370.497C517.397 372.863 517.901 375.444 517.8 378.038L517.432 398.393C517.61 401.819 517.067 405.245 515.838 408.448C514.285 411.183 512.2 413.58 509.707 415.499C505.232 419.545 505.048 418.993 500.573 422.979C499.765 423.848 498.783 424.537 497.691 425.002C496.282 425.492 494.748 425.492 493.338 425.002L492.787 425.615C492.409 426.136 491.929 426.574 491.376 426.902C491.015 427.086 490.616 427.181 490.212 427.181C489.807 427.181 489.408 427.086 489.047 426.902C488.329 426.502 487.719 425.934 487.269 425.247C486.806 425.706 486.375 426.198 485.981 426.718C485.701 427.162 485.349 427.556 484.939 427.883C484.563 428.051 484.156 428.137 483.744 428.137C483.332 428.137 482.925 428.051 482.548 427.883C481.798 427.661 481.092 427.308 480.464 426.841C479.927 426.476 479.537 425.933 479.36 425.308C479.019 425.963 478.452 426.472 477.765 426.742C477.078 427.013 476.317 427.026 475.62 426.78C475.006 426.608 474.443 426.289 473.98 425.851C473.517 425.412 473.167 424.868 472.962 424.264C472.757 423.66 472.702 423.015 472.802 422.385C472.902 421.755 473.154 421.159 473.536 420.649L483.1 409.245C485.004 407.251 486.559 404.95 487.698 402.44C488.212 400.799 488.581 399.117 488.802 397.412C489.353 393.304 488.802 389.503 489.721 385.15C486.595 386.254 485.491 389.013 484.204 392.078C483.229 395.287 481.693 398.297 479.667 400.968C478.277 402.424 476.401 403.318 474.395 403.482C473.955 403.487 473.522 403.382 473.133 403.177C472.745 402.972 472.414 402.674 472.17 402.308C471.926 401.943 471.778 401.522 471.738 401.085C471.698 400.647 471.769 400.207 471.942 399.803C473.879 395.602 475.28 391.173 476.111 386.622C476.26 384.893 476.673 383.197 477.337 381.594Z" fill="#FFCFA1"/>
<path d="M354.233 265.779C356.585 265.671 358.914 265.259 361.16 264.553C383.292 257.441 388.749 220.839 390.097 205.45C390.097 202.937 390.404 200.975 390.404 199.81C390.404 198.645 390.404 198.584 390.404 198.584C395.063 192.453 353.62 113.179 351.719 114.282C339.458 122.804 334.246 137.703 336.883 156.463C336.883 156.831 336.883 180.988 336.27 193.25C336.27 194.108 336.27 194.966 336.27 195.886C336.27 196.806 336.27 197.603 335.779 200.545C334.859 211.091 333.388 237.332 339.396 252.904C342.216 260.813 346.876 266.025 354.233 265.779Z" fill="#EDEDED"/>
<path d="M325.602 339.903C325.234 339.903 298.627 354.189 298.627 354.189L296.236 355.292H295.868C294.018 356.359 292.401 357.789 291.116 359.496C289.831 361.202 288.903 363.151 288.389 365.224C288.389 366.328 286.243 380.797 286.12 381.472L292.251 395.941L293.477 398.884L295.5 403.85C296.46 403.912 297.422 403.912 298.382 403.85C299.675 403.794 300.964 403.671 302.244 403.482C305.63 402.916 308.955 402.033 312.176 400.846H312.544C315.916 399.681 319.165 398.332 322.66 397.351C325.691 396.419 328.816 395.822 331.978 395.573L333.02 377.609C333.572 364.06 331.181 358.542 325.602 354.005V348.977V348.119V339.903Z" fill="#E8B98E"/>
<path d="M3.55555 723.153C0.796732 724.318 -0.245219 723.153 9.17e-06 719.965L319.41 361.239C319.826 360.754 320.362 360.386 320.964 360.171C321.566 359.956 322.214 359.901 322.843 360.013C324.374 360.365 325.783 361.118 326.925 362.196C328.067 363.273 328.902 364.636 329.342 366.144C329.59 366.793 329.652 367.498 329.522 368.18C329.392 368.862 329.075 369.495 328.606 370.007L3.55555 723.153Z" fill="#323031"/>
<path d="M310.643 390.975C310.332 389.558 309.528 388.298 308.375 387.419C307.821 387.026 307.192 386.752 306.527 386.615C305.862 386.478 305.177 386.48 304.513 386.622H303.593C302.314 386.982 301.22 387.817 300.536 388.957C299.853 390.096 299.63 391.454 299.915 392.753L302.857 406.609C303.188 407.919 303.943 409.082 305.003 409.919C306.056 410.654 307.356 410.941 308.62 410.717L310.459 410.287C311.625 409.971 312.62 409.208 313.228 408.164C313.836 407.12 314.009 405.879 313.709 404.708L310.643 390.975Z" fill="#F5C79B"/>
<path d="M301.386 401.704C300.736 400.412 299.65 399.391 298.32 398.822C297.695 398.536 297.015 398.387 296.328 398.387C295.64 398.387 294.961 398.536 294.336 398.822L293.539 399.251C292.939 399.578 292.411 400.02 291.984 400.553C291.557 401.085 291.24 401.698 291.052 402.354C290.863 403.01 290.807 403.697 290.887 404.374C290.967 405.052 291.18 405.708 291.515 406.302L295.071 413.108C295.675 414.325 296.698 415.282 297.952 415.805C298.532 416.062 299.158 416.195 299.792 416.195C300.425 416.195 301.052 416.062 301.631 415.805L303.348 415.008C304.38 414.415 305.142 413.445 305.474 412.302C305.805 411.158 305.68 409.93 305.125 408.877L301.386 401.704Z" fill="#F5C79B"/>
<path d="M322.904 387.725C322.937 387.028 322.831 386.331 322.592 385.674C322.354 385.018 321.987 384.416 321.514 383.902C321.04 383.389 320.47 382.975 319.835 382.684C319.2 382.393 318.514 382.231 317.816 382.207H316.896C316.224 382.205 315.559 382.345 314.946 382.62C314.333 382.895 313.786 383.298 313.34 383.801C312.387 384.881 311.882 386.285 311.931 387.725V398.945C311.912 400.254 312.399 401.519 313.29 402.478C314.18 403.437 315.406 404.016 316.712 404.095H318.613C319.201 404.077 319.78 403.943 320.316 403.701C320.853 403.459 321.337 403.114 321.74 402.685C322.548 401.725 322.984 400.506 322.966 399.252L322.904 387.725Z" fill="#F5C79B"/>
<path d="M332.284 387.787C332.237 386.648 331.751 385.572 330.928 384.783C330.106 383.995 329.01 383.555 327.87 383.556H327.073C326.505 383.548 325.94 383.653 325.412 383.865C324.885 384.077 324.404 384.392 323.999 384.791C323.594 385.191 323.273 385.667 323.053 386.191C322.834 386.716 322.72 387.279 322.72 387.848V396.431C322.728 396.96 322.842 397.482 323.053 397.966C323.265 398.451 323.57 398.888 323.953 399.254C324.335 399.619 324.786 399.904 325.28 400.093C325.773 400.282 326.3 400.371 326.828 400.355H328.422C328.913 400.363 329.401 400.275 329.858 400.094C330.315 399.914 330.732 399.645 331.085 399.303C331.438 398.962 331.72 398.554 331.915 398.103C332.111 397.652 332.215 397.168 332.223 396.677L332.284 387.787Z" fill="#F5C79B"/>
<path d="M322.782 327.58C322.782 327.58 296.972 354.863 296.236 355.292H295.868C294.808 355.793 293.818 356.432 292.925 357.193C290.181 359.554 287.994 362.494 286.52 365.802C285.047 369.109 284.324 372.702 284.404 376.322C284.404 379.878 284.956 382.453 285.14 385.947C285.135 387.242 284.842 388.52 284.281 389.687C282.963 392.319 281.403 394.823 279.622 397.167C278.736 398.19 277.956 399.299 277.292 400.478C276.989 400.986 276.819 401.563 276.8 402.155C276.781 402.747 276.912 403.334 277.182 403.861C277.451 404.388 277.851 404.838 278.342 405.168C278.833 405.499 279.4 405.699 279.99 405.75C281.622 405.705 283.227 405.322 284.704 404.625C286.182 403.929 287.499 402.934 288.573 401.704C290.064 400.056 291.303 398.196 292.251 396.186C292.864 394.837 293.539 393.366 294.213 391.465C294.822 388.619 295.966 385.914 297.585 383.495C299.205 381.907 301.018 380.527 302.98 379.387C305.333 377.62 307.314 375.405 308.809 372.869C310.303 370.333 311.28 367.527 311.685 364.611C311.942 361.788 312.936 359.082 314.567 356.764C317.326 353.821 319.901 353.943 325.97 354.066C326.154 353.024 322.721 330.339 322.782 327.58Z" fill="#F5C79B"/>
<path d="M380.227 218.509C380.227 218.509 350.554 222.311 348.04 224.947C320.943 254.253 324.989 301.033 299.547 351.981C312.973 361.239 320.697 353.208 331.549 361.546C344.178 343.888 399.293 286.747 380.227 218.509Z" fill="#EDEDED"/>
<path d="M354.355 348.058L381.146 347.077L494.871 342.662C495.283 324.548 496.737 306.473 499.224 288.525C502.289 271.91 506.152 250.758 508.665 228.748C508.665 226.909 509.095 225.069 509.278 223.169C513.693 180.926 512.65 136.783 491.561 117.225L490.15 115.937C473.843 102.143 440.553 92.9462 440.553 92.9462L381.514 93.314L374.525 98.2188L359.015 108.948L352.393 113.853C352.107 113.908 351.847 114.06 351.658 114.282C346.079 118.88 349.819 148.003 352.884 183.685C353.62 191.778 354.294 200.239 354.846 208.884V209.865C357.237 252.475 332.714 329.971 354.355 348.058Z" fill="#FEC757"/>
<path d="M429.886 90.8616L413.7 50.7648C399.882 52.5693 385.941 53.2663 372.012 52.8493C372.012 52.8493 374.587 89.6354 374.771 104.227C373.177 132.675 407.57 127.648 429.886 90.8616Z" fill="#F2C194"/>
<path d="M387.277 122.375L370.785 144.263C367.152 136.482 365.409 127.953 365.697 119.371L378.572 105.331C377.652 113.485 378.694 119.739 387.277 122.375Z" fill="#EDEDED"/>
<path d="M387.277 122.375L408.244 146.286C422.574 130.957 433.556 112.813 440.492 93.0075L427.679 85.2211C427.74 97.2992 403.34 122.927 387.277 122.375Z" fill="#EDEDED"/>
<path d="M327.87 59.2256C328.34 61.3031 328.933 63.3504 329.648 65.3566C329.983 66.3779 330.372 67.3808 330.813 68.3608C331.834 70.7094 332.98 73.0016 334.246 75.2275C334.768 75.6944 335.321 76.1246 335.902 76.515C336.881 77.3264 337.905 78.0837 338.967 78.7835L342.277 97.1765C342.417 97.8676 342.7 98.5217 343.109 99.0962C343.517 99.6707 344.042 100.153 344.649 100.511C345.256 100.87 345.932 101.097 346.633 101.177C347.333 101.257 348.042 101.189 348.715 100.978L353.129 99.6903C354.11 101.223 356.746 105.821 358.769 109.255L361.405 113.853C362.647 115.756 364.086 117.523 365.697 119.126C370.479 123.908 377.1 127.464 383.353 122.804L384.457 121.946C384.457 121.946 384.763 121.946 384.947 121.578C397.209 112.32 403.339 103.185 404.136 93.2527C404.552 84.2695 401.82 75.4228 396.412 68.2382L394.511 65.4792C395.439 64.7484 396.423 64.0924 397.454 63.5173L399.538 62.2298C405.117 58.9803 411.8 55.4244 412.903 50.8261C412.995 50.1753 412.995 49.5149 412.903 48.8642C411.616 40.9102 408.603 33.3347 404.075 26.6699C378.817 -12.0168 359.566 7.23459 344.914 16.1246C339.402 19.7224 334.821 24.576 331.549 30.2872C328.441 35.6831 326.753 41.7797 326.644 48.0058C326.521 51.7849 326.934 55.5623 327.87 59.2256Z" fill="#FFCFA1"/>
<path d="M419.831 69.3418C402.849 87.183 393.163 51.7458 393.163 51.7458C386.514 53.1969 379.962 55.0603 373.544 57.325C377.529 20.5389 362.202 1.28753 331.978 30.3485C324.069 28.2027 333.511 11.9555 352.945 4.7822C374.587 -3.31073 394.082 -2.14584 408.55 15.9406C417.44 27.2217 433.196 50.1517 419.831 69.3418Z" fill="#323031"/>
<path d="M355.275 73.3882C358.156 78.7222 358.156 84.2401 355.275 85.6503C352.393 87.0604 347.795 84.1788 344.914 78.8448C342.033 73.5108 342.094 67.9929 344.914 66.5828C347.734 65.1727 352.393 68.1156 355.275 73.3882Z" fill="#212020"/>
<path d="M386.923 48.5782L351.723 71.0301L353.437 73.718L388.637 51.2662L386.923 48.5782Z" fill="#212020"/>
<path d="M397.761 49.3546C401.5 55.4857 400.581 65.9084 396.535 68.3608C392.488 70.8132 389.177 66.031 385.192 59.9C382.679 55.8535 379.062 50.3356 382.679 46.3505C386.296 42.3653 392.243 40.2807 397.761 49.3546Z" fill="#FFCFA1"/>
<path d="M338.293 81.1133L335.166 80.5615C335.378 79.4189 335.847 78.3395 336.537 77.4047C337.227 76.47 338.121 75.7046 339.151 75.1662C340.19 74.6527 341.333 74.3856 342.492 74.3856C343.651 74.3856 344.794 74.6527 345.833 75.1662L344.423 77.9865C343.835 77.6852 343.184 77.5281 342.523 77.5281C341.862 77.5281 341.211 77.6852 340.622 77.9865C340.018 78.2907 339.492 78.7317 339.088 79.2744C338.683 79.8172 338.411 80.4469 338.293 81.1133Z" fill="#212020"/>
<path opacity="0.1" d="M388.748 345.789L500.327 345.053C499.224 302.136 496.833 217.283 493.032 171.668L455.88 164.127L465.689 229.177C470.103 279.574 445.028 335.796 388.748 345.789Z" fill="#1D1D1B"/>
<path d="M477.031 238.067C477.031 238.067 455.267 168.174 454.286 155.973C453.94 149.966 454.816 143.952 456.86 138.293C458.905 132.634 462.075 127.448 466.179 123.049C474.149 114.159 484.878 111.217 494.136 118.696C501.629 125.082 506.926 133.661 509.279 143.22C516.39 174.611 530.123 232.304 530 233.408C511.792 223.843 477.031 238.067 477.031 238.067Z" fill="#EDEDED"/>
<path d="M484.326 371.601H520.375C524.053 332.178 530.184 255.724 530.184 234.143C517.923 220.349 489.353 217.957 477.031 233.346C477.276 240.336 479.483 327.212 484.326 371.601Z" fill="#EDEDED"/>
<path d="M319.165 373.133L318.613 372.766C313.229 368.669 308.424 363.864 304.328 358.48C302.792 356.616 301.513 354.554 300.527 352.349C299.458 350.01 299.035 347.428 299.301 344.869C299.421 343.488 299.931 342.17 300.773 341.068C301.266 340.43 301.912 339.926 302.651 339.605C303.391 339.283 304.2 339.154 305.003 339.229V342.356C304.727 342.36 304.456 342.429 304.211 342.557C303.966 342.685 303.754 342.868 303.593 343.091C303.104 343.708 302.806 344.454 302.735 345.237C302.482 347.333 302.821 349.457 303.715 351.368C304.649 353.311 305.801 355.142 307.149 356.825C310.952 361.752 315.36 366.181 320.268 370.007H323.211H325.173C327.293 369.973 329.382 369.492 331.304 368.596C332.129 368.235 332.865 367.696 333.458 367.018C334.052 366.339 334.488 365.539 334.737 364.673C334.922 363.925 334.867 363.138 334.581 362.423C334.295 361.709 333.792 361.101 333.143 360.687L334.553 357.867C335.857 358.583 336.884 359.714 337.472 361.08C338.061 362.446 338.177 363.969 337.802 365.408C337.459 366.734 336.831 367.968 335.963 369.027C335.095 370.086 334.007 370.943 332.775 371.539C330.54 372.582 328.126 373.186 325.663 373.317H323.517C322.456 373.241 321.391 373.241 320.33 373.317L319.165 373.133Z" fill="#323031"/>
</g>
<defs>
<clipPath id="clip0_59_1383">
<rect width="530" height="789" fill="white"/>
</clipPath>
</defs>
</svg>
