<svg width="47" height="57" viewBox="0 0 47 57" fill="none" xmlns="http://www.w3.org/2000/svg">
<path d="M46.0937 20.1295H30.9466V56.423H25.8975V39.6721H20.8485V56.423H15.7995V20.1295H0.652344V14.5458H46.0937V20.1295ZM23.373 0.586792C24.7121 0.586792 25.9963 1.17506 26.9432 2.2222C27.8901 3.26933 28.422 4.68954 28.422 6.17041C28.422 7.65128 27.8901 9.07149 26.9432 10.1186C25.9963 11.1658 24.7121 11.754 23.373 11.754C22.0339 11.754 20.7497 11.1658 19.8028 10.1186C18.8559 9.07149 18.324 7.65128 18.324 6.17041C18.324 3.0715 20.5708 0.586792 23.373 0.586792Z" fill="#EC5863"/>
</svg>
