<svg width="18" height="18" viewBox="0 0 18 18" fill="none" xmlns="http://www.w3.org/2000/svg">
<path d="M10.7881 7.32326L7.3291 10.7822C6.88477 10.3379 6.61133 9.72951 6.61133 9.05275C6.61133 7.69923 7.70508 6.60548 9.05859 6.60548C9.73535 6.60548 10.3438 6.87892 10.7881 7.32326Z" stroke="white" stroke-width="1.02539" stroke-linecap="round" stroke-linejoin="round"/>
<path d="M13.0371 4.79395C11.8408 3.8916 10.4736 3.39941 9.05859 3.39941C6.64551 3.39941 4.39648 4.82129 2.83105 7.28223C2.21582 8.24609 2.21582 9.86621 2.83105 10.8301C3.37109 11.6777 4 12.4092 4.68359 12.9971" stroke="white" stroke-width="1.02539" stroke-linecap="round" stroke-linejoin="round"/>
<path d="M6.61133 14.2002C7.39063 14.5283 8.21777 14.7061 9.05859 14.7061C11.4717 14.7061 13.7207 13.2842 15.2861 10.8232C15.9014 9.85938 15.9014 8.23926 15.2861 7.27539C15.0605 6.91992 14.8145 6.58496 14.5615 6.27051" stroke="white" stroke-width="1.02539" stroke-linecap="round" stroke-linejoin="round"/>
<path d="M11.458 9.53127C11.2803 10.4951 10.4941 11.2813 9.53027 11.459" stroke="white" stroke-width="1.02539" stroke-linecap="round" stroke-linejoin="round"/>
<path d="M7.3291 10.7822L2.22266 15.8887" stroke="white" stroke-width="1.02539" stroke-linecap="round" stroke-linejoin="round"/>
<path d="M15.8945 2.2168L10.7881 7.32324" stroke="white" stroke-width="1.02539" stroke-linecap="round" stroke-linejoin="round"/>
</svg>
