<svg width="18" height="18" viewBox="0 0 18 18" fill="none" xmlns="http://www.w3.org/2000/svg">
<path d="M10.7881 7.24903L7.3291 10.708C6.88477 10.2637 6.61133 9.65528 6.61133 8.97852C6.61133 7.62501 7.70508 6.53126 9.05859 6.53126C9.73535 6.53126 10.3438 6.8047 10.7881 7.24903Z" stroke="white" stroke-width="1.02539" stroke-linecap="round" stroke-linejoin="round"/>
<path d="M13.0371 4.71973C11.8408 3.81739 10.4736 3.3252 9.05859 3.3252C6.64551 3.3252 4.39648 4.74708 2.83105 7.20802C2.21582 8.17188 2.21582 9.792 2.83105 10.7559C3.37109 11.6035 4 12.335 4.68359 12.9229" stroke="white" stroke-width="1.02539" stroke-linecap="round" stroke-linejoin="round"/>
<path d="M6.61133 14.126C7.39063 14.4541 8.21777 14.6318 9.05859 14.6318C11.4717 14.6318 13.7207 13.21 15.2861 10.749C15.9014 9.78515 15.9014 8.16503 15.2861 7.20116C15.0605 6.8457 14.8145 6.51073 14.5615 6.19628" stroke="white" stroke-width="1.02539" stroke-linecap="round" stroke-linejoin="round"/>
<path d="M11.458 9.45704C11.2803 10.4209 10.4941 11.207 9.53027 11.3848" stroke="white" stroke-width="1.02539" stroke-linecap="round" stroke-linejoin="round"/>
<path d="M7.3291 10.708L2.22266 15.8145" stroke="white" stroke-width="1.02539" stroke-linecap="round" stroke-linejoin="round"/>
<path d="M15.8945 2.14258L10.7881 7.24902" stroke="white" stroke-width="1.02539" stroke-linecap="round" stroke-linejoin="round"/>
</svg>
